<?xml version="1.0" encoding="utf-8" standalone="no"?>
<!DOCTYPE svg PUBLIC "-//W3C//DTD SVG 1.1//EN"
  "http://www.w3.org/Graphics/SVG/1.1/DTD/svg11.dtd">
<svg xmlns:xlink="http://www.w3.org/1999/xlink" width="460.8pt" height="345.6pt" viewBox="0 0 460.8 345.6" xmlns="http://www.w3.org/2000/svg" version="1.1">
 <metadata>
  <rdf:RDF xmlns:dc="http://purl.org/dc/elements/1.1/" xmlns:cc="http://creativecommons.org/ns#" xmlns:rdf="http://www.w3.org/1999/02/22-rdf-syntax-ns#">
   <cc:Work>
    <dc:type rdf:resource="http://purl.org/dc/dcmitype/StillImage"/>
    <dc:date>2022-12-05T15:50:34.759737</dc:date>
    <dc:format>image/svg+xml</dc:format>
    <dc:creator>
     <cc:Agent>
      <dc:title>Matplotlib v3.5.3, https://matplotlib.org/</dc:title>
     </cc:Agent>
    </dc:creator>
   </cc:Work>
  </rdf:RDF>
 </metadata>
 <defs>
  <style type="text/css">*{stroke-linejoin: round; stroke-linecap: butt}</style>
 </defs>
 <g id="figure_1">
  <g id="patch_1">
   <path d="M 0 345.6 
L 460.8 345.6 
L 460.8 0 
L 0 0 
z
" style="fill: #ffffff"/>
  </g>
  <g id="patch_2">
   <path d="M 77.184 307.584 
L 343.296 307.584 
L 343.296 41.472 
L 77.184 41.472 
z
" style="fill: #ffffff"/>
  </g>
  <g id="pane3d_1">
   <g id="patch_3">
    <path d="M 97.277291 241.969309 
L 185.156164 168.307495 
L 183.934564 62.073991 
L 91.850234 129.272941 
" style="fill: #f2f2f2; opacity: 0.5; stroke: #f2f2f2; stroke-linejoin: miter"/>
   </g>
  </g>
  <g id="pane3d_2">
   <g id="patch_4">
    <path d="M 185.156164 168.307495 
L 326.170401 209.294766 
L 331.202702 99.402171 
L 183.934564 62.073991 
" style="fill: #e6e6e6; opacity: 0.5; stroke: #e6e6e6; stroke-linejoin: miter"/>
   </g>
  </g>
  <g id="pane3d_3">
   <g id="patch_5">
    <path d="M 97.277291 241.969309 
L 246.759269 290.790123 
L 326.170401 209.294766 
L 185.156164 168.307495 
" style="fill: #ececec; opacity: 0.5; stroke: #ececec; stroke-linejoin: miter"/>
   </g>
  </g>
  <g id="axis3d_1">
   <g id="line2d_1">
    <path d="M 97.277291 241.969309 
L 246.759269 290.790123 
" style="fill: none; stroke: #000000; stroke-width: 0.8; stroke-linecap: square"/>
   </g>
   <g id="text_1">
    <!-- X Position -->
    <g transform="translate(129.631186 296.031726)rotate(-341.912962)scale(0.1 -0.1)">
     <defs>
      <path id="DejaVuSans-58" d="M 403 4666 
L 1081 4666 
L 2241 2931 
L 3406 4666 
L 4084 4666 
L 2584 2425 
L 4184 0 
L 3506 0 
L 2194 1984 
L 872 0 
L 191 0 
L 1856 2491 
L 403 4666 
z
" transform="scale(0.015625)"/>
      <path id="DejaVuSans-20" transform="scale(0.015625)"/>
      <path id="DejaVuSans-50" d="M 1259 4147 
L 1259 2394 
L 2053 2394 
Q 2494 2394 2734 2622 
Q 2975 2850 2975 3272 
Q 2975 3691 2734 3919 
Q 2494 4147 2053 4147 
L 1259 4147 
z
M 628 4666 
L 2053 4666 
Q 2838 4666 3239 4311 
Q 3641 3956 3641 3272 
Q 3641 2581 3239 2228 
Q 2838 1875 2053 1875 
L 1259 1875 
L 1259 0 
L 628 0 
L 628 4666 
z
" transform="scale(0.015625)"/>
      <path id="DejaVuSans-6f" d="M 1959 3097 
Q 1497 3097 1228 2736 
Q 959 2375 959 1747 
Q 959 1119 1226 758 
Q 1494 397 1959 397 
Q 2419 397 2687 759 
Q 2956 1122 2956 1747 
Q 2956 2369 2687 2733 
Q 2419 3097 1959 3097 
z
M 1959 3584 
Q 2709 3584 3137 3096 
Q 3566 2609 3566 1747 
Q 3566 888 3137 398 
Q 2709 -91 1959 -91 
Q 1206 -91 779 398 
Q 353 888 353 1747 
Q 353 2609 779 3096 
Q 1206 3584 1959 3584 
z
" transform="scale(0.015625)"/>
      <path id="DejaVuSans-73" d="M 2834 3397 
L 2834 2853 
Q 2591 2978 2328 3040 
Q 2066 3103 1784 3103 
Q 1356 3103 1142 2972 
Q 928 2841 928 2578 
Q 928 2378 1081 2264 
Q 1234 2150 1697 2047 
L 1894 2003 
Q 2506 1872 2764 1633 
Q 3022 1394 3022 966 
Q 3022 478 2636 193 
Q 2250 -91 1575 -91 
Q 1294 -91 989 -36 
Q 684 19 347 128 
L 347 722 
Q 666 556 975 473 
Q 1284 391 1588 391 
Q 1994 391 2212 530 
Q 2431 669 2431 922 
Q 2431 1156 2273 1281 
Q 2116 1406 1581 1522 
L 1381 1569 
Q 847 1681 609 1914 
Q 372 2147 372 2553 
Q 372 3047 722 3315 
Q 1072 3584 1716 3584 
Q 2034 3584 2315 3537 
Q 2597 3491 2834 3397 
z
" transform="scale(0.015625)"/>
      <path id="DejaVuSans-69" d="M 603 3500 
L 1178 3500 
L 1178 0 
L 603 0 
L 603 3500 
z
M 603 4863 
L 1178 4863 
L 1178 4134 
L 603 4134 
L 603 4863 
z
" transform="scale(0.015625)"/>
      <path id="DejaVuSans-74" d="M 1172 4494 
L 1172 3500 
L 2356 3500 
L 2356 3053 
L 1172 3053 
L 1172 1153 
Q 1172 725 1289 603 
Q 1406 481 1766 481 
L 2356 481 
L 2356 0 
L 1766 0 
Q 1100 0 847 248 
Q 594 497 594 1153 
L 594 3053 
L 172 3053 
L 172 3500 
L 594 3500 
L 594 4494 
L 1172 4494 
z
" transform="scale(0.015625)"/>
      <path id="DejaVuSans-6e" d="M 3513 2113 
L 3513 0 
L 2938 0 
L 2938 2094 
Q 2938 2591 2744 2837 
Q 2550 3084 2163 3084 
Q 1697 3084 1428 2787 
Q 1159 2491 1159 1978 
L 1159 0 
L 581 0 
L 581 3500 
L 1159 3500 
L 1159 2956 
Q 1366 3272 1645 3428 
Q 1925 3584 2291 3584 
Q 2894 3584 3203 3211 
Q 3513 2838 3513 2113 
z
" transform="scale(0.015625)"/>
     </defs>
     <use xlink:href="#DejaVuSans-58"/>
     <use xlink:href="#DejaVuSans-20" x="68.505859"/>
     <use xlink:href="#DejaVuSans-50" x="100.292969"/>
     <use xlink:href="#DejaVuSans-6f" x="156.970703"/>
     <use xlink:href="#DejaVuSans-73" x="218.152344"/>
     <use xlink:href="#DejaVuSans-69" x="270.251953"/>
     <use xlink:href="#DejaVuSans-74" x="298.035156"/>
     <use xlink:href="#DejaVuSans-69" x="337.244141"/>
     <use xlink:href="#DejaVuSans-6f" x="365.027344"/>
     <use xlink:href="#DejaVuSans-6e" x="426.208984"/>
    </g>
   </g>
   <g id="Line3DCollection_1">
    <path d="M 100.116265 242.896518 
L 187.845942 169.089307 
L 186.737821 62.784535 
" style="fill: none; stroke: #b0b0b0; stroke-width: 0.8"/>
    <path d="M 117.273501 248.500071 
L 204.091903 173.811367 
L 203.673978 67.077357 
" style="fill: none; stroke: #b0b0b0; stroke-width: 0.8"/>
    <path d="M 134.645136 254.173647 
L 220.524082 178.587552 
L 220.812641 71.421508 
" style="fill: none; stroke: #b0b0b0; stroke-width: 0.8"/>
    <path d="M 152.235214 259.918567 
L 237.145698 183.4188 
L 238.157462 75.817915 
" style="fill: none; stroke: #b0b0b0; stroke-width: 0.8"/>
    <path d="M 170.047881 265.736184 
L 253.960048 188.306068 
L 255.712185 80.267526 
" style="fill: none; stroke: #b0b0b0; stroke-width: 0.8"/>
    <path d="M 188.08739 271.627887 
L 270.970502 193.250335 
L 273.480643 84.771312 
" style="fill: none; stroke: #b0b0b0; stroke-width: 0.8"/>
    <path d="M 206.358101 277.595101 
L 288.180512 198.252606 
L 291.466762 89.330269 
" style="fill: none; stroke: #b0b0b0; stroke-width: 0.8"/>
    <path d="M 224.864487 283.639287 
L 305.59361 203.313906 
L 309.674568 93.945416 
" style="fill: none; stroke: #b0b0b0; stroke-width: 0.8"/>
    <path d="M 243.611139 289.761943 
L 323.213412 208.435286 
L 328.108183 98.617801 
" style="fill: none; stroke: #b0b0b0; stroke-width: 0.8"/>
   </g>
   <g id="xtick_1">
    <g id="line2d_2">
     <path d="M 100.88007 242.253926 
L 98.585383 244.184453 
" style="fill: none; stroke: #000000; stroke-width: 0.8; stroke-linecap: square"/>
    </g>
    <g id="text_2">
     <!-- −1.00 -->
     <g transform="translate(95.340499 289.209629)rotate(-90)scale(0.1 -0.1)">
      <defs>
       <path id="DejaVuSans-2212" d="M 678 2272 
L 4684 2272 
L 4684 1741 
L 678 1741 
L 678 2272 
z
" transform="scale(0.015625)"/>
       <path id="DejaVuSans-31" d="M 794 531 
L 1825 531 
L 1825 4091 
L 703 3866 
L 703 4441 
L 1819 4666 
L 2450 4666 
L 2450 531 
L 3481 531 
L 3481 0 
L 794 0 
L 794 531 
z
" transform="scale(0.015625)"/>
       <path id="DejaVuSans-2e" d="M 684 794 
L 1344 794 
L 1344 0 
L 684 0 
L 684 794 
z
" transform="scale(0.015625)"/>
       <path id="DejaVuSans-30" d="M 2034 4250 
Q 1547 4250 1301 3770 
Q 1056 3291 1056 2328 
Q 1056 1369 1301 889 
Q 1547 409 2034 409 
Q 2525 409 2770 889 
Q 3016 1369 3016 2328 
Q 3016 3291 2770 3770 
Q 2525 4250 2034 4250 
z
M 2034 4750 
Q 2819 4750 3233 4129 
Q 3647 3509 3647 2328 
Q 3647 1150 3233 529 
Q 2819 -91 2034 -91 
Q 1250 -91 836 529 
Q 422 1150 422 2328 
Q 422 3509 836 4129 
Q 1250 4750 2034 4750 
z
" transform="scale(0.015625)"/>
      </defs>
      <use xlink:href="#DejaVuSans-2212"/>
      <use xlink:href="#DejaVuSans-31" x="83.789062"/>
      <use xlink:href="#DejaVuSans-2e" x="147.412109"/>
      <use xlink:href="#DejaVuSans-30" x="179.199219"/>
      <use xlink:href="#DejaVuSans-30" x="242.822266"/>
     </g>
    </g>
   </g>
   <g id="xtick_2">
    <g id="line2d_3">
     <path d="M 118.029753 247.849477 
L 115.757738 249.804061 
" style="fill: none; stroke: #000000; stroke-width: 0.8; stroke-linecap: square"/>
    </g>
    <g id="text_3">
     <!-- −0.75 -->
     <g transform="translate(112.514804 294.931743)rotate(-90)scale(0.1 -0.1)">
      <defs>
       <path id="DejaVuSans-37" d="M 525 4666 
L 3525 4666 
L 3525 4397 
L 1831 0 
L 1172 0 
L 2766 4134 
L 525 4134 
L 525 4666 
z
" transform="scale(0.015625)"/>
       <path id="DejaVuSans-35" d="M 691 4666 
L 3169 4666 
L 3169 4134 
L 1269 4134 
L 1269 2991 
Q 1406 3038 1543 3061 
Q 1681 3084 1819 3084 
Q 2600 3084 3056 2656 
Q 3513 2228 3513 1497 
Q 3513 744 3044 326 
Q 2575 -91 1722 -91 
Q 1428 -91 1123 -41 
Q 819 9 494 109 
L 494 744 
Q 775 591 1075 516 
Q 1375 441 1709 441 
Q 2250 441 2565 725 
Q 2881 1009 2881 1497 
Q 2881 1984 2565 2268 
Q 2250 2553 1709 2553 
Q 1456 2553 1204 2497 
Q 953 2441 691 2322 
L 691 4666 
z
" transform="scale(0.015625)"/>
      </defs>
      <use xlink:href="#DejaVuSans-2212"/>
      <use xlink:href="#DejaVuSans-30" x="83.789062"/>
      <use xlink:href="#DejaVuSans-2e" x="147.412109"/>
      <use xlink:href="#DejaVuSans-37" x="179.199219"/>
      <use xlink:href="#DejaVuSans-35" x="242.822266"/>
     </g>
    </g>
   </g>
   <g id="xtick_3">
    <g id="line2d_4">
     <path d="M 135.393586 253.514901 
L 133.144991 255.493995 
" style="fill: none; stroke: #000000; stroke-width: 0.8; stroke-linecap: square"/>
    </g>
    <g id="text_4">
     <!-- −0.50 -->
     <g transform="translate(129.904527 300.72563)rotate(-90)scale(0.1 -0.1)">
      <use xlink:href="#DejaVuSans-2212"/>
      <use xlink:href="#DejaVuSans-30" x="83.789062"/>
      <use xlink:href="#DejaVuSans-2e" x="147.412109"/>
      <use xlink:href="#DejaVuSans-35" x="179.199219"/>
      <use xlink:href="#DejaVuSans-30" x="242.822266"/>
     </g>
    </g>
   </g>
   <g id="xtick_4">
    <g id="line2d_5">
     <path d="M 152.975605 259.251514 
L 150.751201 261.255582 
" style="fill: none; stroke: #000000; stroke-width: 0.8; stroke-linecap: square"/>
    </g>
    <g id="text_5">
     <!-- −0.25 -->
     <g transform="translate(147.513747 306.592649)rotate(-90)scale(0.1 -0.1)">
      <defs>
       <path id="DejaVuSans-32" d="M 1228 531 
L 3431 531 
L 3431 0 
L 469 0 
L 469 531 
Q 828 903 1448 1529 
Q 2069 2156 2228 2338 
Q 2531 2678 2651 2914 
Q 2772 3150 2772 3378 
Q 2772 3750 2511 3984 
Q 2250 4219 1831 4219 
Q 1534 4219 1204 4116 
Q 875 4013 500 3803 
L 500 4441 
Q 881 4594 1212 4672 
Q 1544 4750 1819 4750 
Q 2544 4750 2975 4387 
Q 3406 4025 3406 3419 
Q 3406 3131 3298 2873 
Q 3191 2616 2906 2266 
Q 2828 2175 2409 1742 
Q 1991 1309 1228 531 
z
" transform="scale(0.015625)"/>
      </defs>
      <use xlink:href="#DejaVuSans-2212"/>
      <use xlink:href="#DejaVuSans-30" x="83.789062"/>
      <use xlink:href="#DejaVuSans-2e" x="147.412109"/>
      <use xlink:href="#DejaVuSans-32" x="179.199219"/>
      <use xlink:href="#DejaVuSans-35" x="242.822266"/>
     </g>
    </g>
   </g>
   <g id="xtick_5">
    <g id="line2d_6">
     <path d="M 170.77995 265.060666 
L 168.580531 267.090184 
" style="fill: none; stroke: #000000; stroke-width: 0.8; stroke-linecap: square"/>
    </g>
    <g id="text_6">
     <!-- 0.00 -->
     <g transform="translate(165.346645 304.154506)rotate(-90)scale(0.1 -0.1)">
      <use xlink:href="#DejaVuSans-30"/>
      <use xlink:href="#DejaVuSans-2e" x="63.623047"/>
      <use xlink:href="#DejaVuSans-30" x="95.410156"/>
      <use xlink:href="#DejaVuSans-30" x="159.033203"/>
     </g>
    </g>
   </g>
   <g id="xtick_6">
    <g id="line2d_7">
     <path d="M 188.810862 270.943743 
L 186.637249 272.999198 
" style="fill: none; stroke: #000000; stroke-width: 0.8; stroke-linecap: square"/>
    </g>
    <g id="text_7">
     <!-- 0.25 -->
     <g transform="translate(183.407512 310.172004)rotate(-90)scale(0.1 -0.1)">
      <use xlink:href="#DejaVuSans-30"/>
      <use xlink:href="#DejaVuSans-2e" x="63.623047"/>
      <use xlink:href="#DejaVuSans-32" x="95.410156"/>
      <use xlink:href="#DejaVuSans-35" x="159.033203"/>
     </g>
    </g>
   </g>
   <g id="xtick_7">
    <g id="line2d_8">
     <path d="M 207.072696 276.902164 
L 204.925732 278.984057 
" style="fill: none; stroke: #000000; stroke-width: 0.8; stroke-linecap: square"/>
    </g>
    <g id="text_8">
     <!-- 0.50 -->
     <g transform="translate(201.700746 316.266922)rotate(-90)scale(0.1 -0.1)">
      <use xlink:href="#DejaVuSans-30"/>
      <use xlink:href="#DejaVuSans-2e" x="63.623047"/>
      <use xlink:href="#DejaVuSans-35" x="95.410156"/>
      <use xlink:href="#DejaVuSans-30" x="159.033203"/>
     </g>
    </g>
   </g>
   <g id="xtick_8">
    <g id="line2d_9">
     <path d="M 225.569916 282.937386 
L 223.450472 285.04623 
" style="fill: none; stroke: #000000; stroke-width: 0.8; stroke-linecap: square"/>
    </g>
    <g id="text_9">
     <!-- 0.75 -->
     <g transform="translate(220.230862 322.440763)rotate(-90)scale(0.1 -0.1)">
      <use xlink:href="#DejaVuSans-30"/>
      <use xlink:href="#DejaVuSans-2e" x="63.623047"/>
      <use xlink:href="#DejaVuSans-37" x="95.410156"/>
      <use xlink:href="#DejaVuSans-35" x="159.033203"/>
     </g>
    </g>
   </g>
   <g id="xtick_9">
    <g id="line2d_10">
     <path d="M 244.307103 289.050904 
L 242.216077 291.187226 
" style="fill: none; stroke: #000000; stroke-width: 0.8; stroke-linecap: square"/>
    </g>
    <g id="text_10">
     <!-- 1.00 -->
     <g transform="translate(239.002489 328.695072)rotate(-90)scale(0.1 -0.1)">
      <use xlink:href="#DejaVuSans-31"/>
      <use xlink:href="#DejaVuSans-2e" x="63.623047"/>
      <use xlink:href="#DejaVuSans-30" x="95.410156"/>
      <use xlink:href="#DejaVuSans-30" x="159.033203"/>
     </g>
    </g>
   </g>
  </g>
  <g id="axis3d_2">
   <g id="line2d_11">
    <path d="M 326.170401 209.294766 
L 246.759269 290.790123 
" style="fill: none; stroke: #000000; stroke-width: 0.8; stroke-linecap: square"/>
   </g>
   <g id="text_11">
    <!-- Y Position -->
    <g transform="translate(300.365029 295.420657)rotate(-45.742112)scale(0.1 -0.1)">
     <defs>
      <path id="DejaVuSans-59" d="M -13 4666 
L 666 4666 
L 1959 2747 
L 3244 4666 
L 3922 4666 
L 2272 2222 
L 2272 0 
L 1638 0 
L 1638 2222 
L -13 4666 
z
" transform="scale(0.015625)"/>
     </defs>
     <use xlink:href="#DejaVuSans-59"/>
     <use xlink:href="#DejaVuSans-20" x="61.083984"/>
     <use xlink:href="#DejaVuSans-50" x="92.871094"/>
     <use xlink:href="#DejaVuSans-6f" x="149.548828"/>
     <use xlink:href="#DejaVuSans-73" x="210.730469"/>
     <use xlink:href="#DejaVuSans-69" x="262.830078"/>
     <use xlink:href="#DejaVuSans-74" x="290.613281"/>
     <use xlink:href="#DejaVuSans-69" x="329.822266"/>
     <use xlink:href="#DejaVuSans-6f" x="357.605469"/>
     <use xlink:href="#DejaVuSans-6e" x="418.787109"/>
    </g>
   </g>
   <g id="Line3DCollection_2">
    <path d="M 93.859678 127.80654 
L 99.187855 240.367836 
L 248.493209 289.010673 
" style="fill: none; stroke: #b0b0b0; stroke-width: 0.8"/>
    <path d="M 105.761185 119.121362 
L 110.510197 230.877225 
L 258.762006 278.472362 
" style="fill: none; stroke: #b0b0b0; stroke-width: 0.8"/>
    <path d="M 117.402992 110.625702 
L 121.596219 221.584701 
L 268.805142 268.165634 
" style="fill: none; stroke: #b0b0b0; stroke-width: 0.8"/>
    <path d="M 128.793507 102.313423 
L 132.453244 212.484128 
L 278.629975 258.082938 
" style="fill: none; stroke: #b0b0b0; stroke-width: 0.8"/>
    <path d="M 139.940779 94.178651 
L 143.088295 203.569617 
L 288.243547 248.217048 
" style="fill: none; stroke: #b0b0b0; stroke-width: 0.8"/>
    <path d="M 150.852518 86.215761 
L 153.50811 194.835522 
L 297.652598 238.561047 
" style="fill: none; stroke: #b0b0b0; stroke-width: 0.8"/>
    <path d="M 161.536111 78.419362 
L 163.719157 186.27642 
L 306.863588 229.108306 
" style="fill: none; stroke: #b0b0b0; stroke-width: 0.8"/>
    <path d="M 171.998639 70.784285 
L 173.727649 177.887103 
L 315.882703 219.852474 
" style="fill: none; stroke: #b0b0b0; stroke-width: 0.8"/>
    <path d="M 182.246892 63.305577 
L 183.539554 169.66257 
L 324.715879 210.787463 
" style="fill: none; stroke: #b0b0b0; stroke-width: 0.8"/>
   </g>
   <g id="xtick_10">
    <g id="line2d_12">
     <path d="M 247.234748 288.600674 
L 251.013399 289.831737 
" style="fill: none; stroke: #000000; stroke-width: 0.8; stroke-linecap: square"/>
    </g>
    <g id="text_12">
     <!-- −1.00 -->
     <g transform="translate(264.18361 333.13647)rotate(-90)scale(0.1 -0.1)">
      <use xlink:href="#DejaVuSans-2212"/>
      <use xlink:href="#DejaVuSans-31" x="83.789062"/>
      <use xlink:href="#DejaVuSans-2e" x="147.412109"/>
      <use xlink:href="#DejaVuSans-30" x="179.199219"/>
      <use xlink:href="#DejaVuSans-30" x="242.822266"/>
     </g>
    </g>
   </g>
   <g id="xtick_11">
    <g id="line2d_13">
     <path d="M 257.513131 278.07142 
L 261.262963 279.275275 
" style="fill: none; stroke: #000000; stroke-width: 0.8; stroke-linecap: square"/>
    </g>
    <g id="text_13">
     <!-- −0.75 -->
     <g transform="translate(274.314766 322.442039)rotate(-90)scale(0.1 -0.1)">
      <use xlink:href="#DejaVuSans-2212"/>
      <use xlink:href="#DejaVuSans-30" x="83.789062"/>
      <use xlink:href="#DejaVuSans-2e" x="147.412109"/>
      <use xlink:href="#DejaVuSans-37" x="179.199219"/>
      <use xlink:href="#DejaVuSans-35" x="242.822266"/>
     </g>
    </g>
   </g>
   <g id="xtick_12">
    <g id="line2d_14">
     <path d="M 267.565738 267.773452 
L 271.287098 268.950992 
" style="fill: none; stroke: #000000; stroke-width: 0.8; stroke-linecap: square"/>
    </g>
    <g id="text_14">
     <!-- −0.50 -->
     <g transform="translate(284.223155 311.98276)rotate(-90)scale(0.1 -0.1)">
      <use xlink:href="#DejaVuSans-2212"/>
      <use xlink:href="#DejaVuSans-30" x="83.789062"/>
      <use xlink:href="#DejaVuSans-2e" x="147.412109"/>
      <use xlink:href="#DejaVuSans-35" x="179.199219"/>
      <use xlink:href="#DejaVuSans-30" x="242.822266"/>
     </g>
    </g>
   </g>
   <g id="xtick_13">
    <g id="line2d_15">
     <path d="M 277.399927 257.699233 
L 281.093161 258.851311 
" style="fill: none; stroke: #000000; stroke-width: 0.8; stroke-linecap: square"/>
    </g>
    <g id="text_15">
     <!-- −0.25 -->
     <g transform="translate(293.916045 301.750962)rotate(-90)scale(0.1 -0.1)">
      <use xlink:href="#DejaVuSans-2212"/>
      <use xlink:href="#DejaVuSans-30" x="83.789062"/>
      <use xlink:href="#DejaVuSans-2e" x="147.412109"/>
      <use xlink:href="#DejaVuSans-32" x="179.199219"/>
      <use xlink:href="#DejaVuSans-35" x="242.822266"/>
     </g>
    </g>
   </g>
   <g id="xtick_14">
    <g id="line2d_16">
     <path d="M 287.022742 247.841548 
L 290.688191 248.968982 
" style="fill: none; stroke: #000000; stroke-width: 0.8; stroke-linecap: square"/>
    </g>
    <g id="text_16">
     <!-- 0.00 -->
     <g transform="translate(303.400391 283.359616)rotate(-90)scale(0.1 -0.1)">
      <use xlink:href="#DejaVuSans-30"/>
      <use xlink:href="#DejaVuSans-2e" x="63.623047"/>
      <use xlink:href="#DejaVuSans-30" x="95.410156"/>
      <use xlink:href="#DejaVuSans-30" x="159.033203"/>
     </g>
    </g>
   </g>
   <g id="xtick_15">
    <g id="line2d_17">
     <path d="M 296.440923 238.193491 
L 300.078928 239.297062 
" style="fill: none; stroke: #000000; stroke-width: 0.8; stroke-linecap: square"/>
    </g>
    <g id="text_17">
     <!-- 0.25 -->
     <g transform="translate(312.682851 273.561068)rotate(-90)scale(0.1 -0.1)">
      <use xlink:href="#DejaVuSans-30"/>
      <use xlink:href="#DejaVuSans-2e" x="63.623047"/>
      <use xlink:href="#DejaVuSans-32" x="95.410156"/>
      <use xlink:href="#DejaVuSans-35" x="159.033203"/>
     </g>
    </g>
   </g>
   <g id="xtick_16">
    <g id="line2d_18">
     <path d="M 305.66093 228.748445 
L 309.271828 229.828903 
" style="fill: none; stroke: #000000; stroke-width: 0.8; stroke-linecap: square"/>
    </g>
    <g id="text_18">
     <!-- 0.50 -->
     <g transform="translate(321.769803 263.968896)rotate(-90)scale(0.1 -0.1)">
      <use xlink:href="#DejaVuSans-30"/>
      <use xlink:href="#DejaVuSans-2e" x="63.623047"/>
      <use xlink:href="#DejaVuSans-35" x="95.410156"/>
      <use xlink:href="#DejaVuSans-30" x="159.033203"/>
     </g>
    </g>
   </g>
   <g id="xtick_17">
    <g id="line2d_19">
     <path d="M 314.688953 219.500069 
L 318.273078 220.558133 
" style="fill: none; stroke: #000000; stroke-width: 0.8; stroke-linecap: square"/>
    </g>
    <g id="text_19">
     <!-- 0.75 -->
     <g transform="translate(330.66736 254.57665)rotate(-90)scale(0.1 -0.1)">
      <use xlink:href="#DejaVuSans-30"/>
      <use xlink:href="#DejaVuSans-2e" x="63.623047"/>
      <use xlink:href="#DejaVuSans-37" x="95.410156"/>
      <use xlink:href="#DejaVuSans-35" x="159.033203"/>
     </g>
    </g>
   </g>
   <g id="xtick_18">
    <g id="line2d_20">
     <path d="M 323.530926 210.442284 
L 327.088609 211.478643 
" style="fill: none; stroke: #000000; stroke-width: 0.8; stroke-linecap: square"/>
    </g>
    <g id="text_20">
     <!-- 1.00 -->
     <g transform="translate(339.381382 245.378144)rotate(-90)scale(0.1 -0.1)">
      <use xlink:href="#DejaVuSans-31"/>
      <use xlink:href="#DejaVuSans-2e" x="63.623047"/>
      <use xlink:href="#DejaVuSans-30" x="95.410156"/>
      <use xlink:href="#DejaVuSans-30" x="159.033203"/>
     </g>
    </g>
   </g>
  </g>
  <g id="axis3d_3">
   <g id="line2d_21">
    <path d="M 326.170401 209.294766 
L 331.202702 99.402171 
" style="fill: none; stroke: #000000; stroke-width: 0.8; stroke-linecap: square"/>
   </g>
   <g id="text_21">
    <!-- Z Position -->
    <g transform="translate(370.643965 174.721631)rotate(-87.378092)scale(0.1 -0.1)">
     <defs>
      <path id="DejaVuSans-5a" d="M 359 4666 
L 4025 4666 
L 4025 4184 
L 1075 531 
L 4097 531 
L 4097 0 
L 288 0 
L 288 481 
L 3238 4134 
L 359 4134 
L 359 4666 
z
" transform="scale(0.015625)"/>
     </defs>
     <use xlink:href="#DejaVuSans-5a"/>
     <use xlink:href="#DejaVuSans-20" x="68.505859"/>
     <use xlink:href="#DejaVuSans-50" x="100.292969"/>
     <use xlink:href="#DejaVuSans-6f" x="156.970703"/>
     <use xlink:href="#DejaVuSans-73" x="218.152344"/>
     <use xlink:href="#DejaVuSans-69" x="270.251953"/>
     <use xlink:href="#DejaVuSans-74" x="298.035156"/>
     <use xlink:href="#DejaVuSans-69" x="337.244141"/>
     <use xlink:href="#DejaVuSans-6f" x="365.027344"/>
     <use xlink:href="#DejaVuSans-6e" x="426.208984"/>
    </g>
   </g>
   <g id="Line3DCollection_3">
    <path d="M 326.266814 207.189346 
L 185.132711 166.26796 
L 97.173487 239.813739 
" style="fill: none; stroke: #b0b0b0; stroke-width: 0.8"/>
    <path d="M 326.848787 194.480534 
L 184.991184 153.960355 
L 96.546755 226.799259 
" style="fill: none; stroke: #b0b0b0; stroke-width: 0.8"/>
    <path d="M 327.436817 181.63947 
L 184.848254 141.530779 
L 95.913254 213.644192 
" style="fill: none; stroke: #b0b0b0; stroke-width: 0.8"/>
    <path d="M 328.030998 168.664076 
L 184.7039 128.977409 
L 95.272872 200.346248 
" style="fill: none; stroke: #b0b0b0; stroke-width: 0.8"/>
    <path d="M 328.631427 155.552235 
L 184.558101 116.298387 
L 94.625497 186.903085 
" style="fill: none; stroke: #b0b0b0; stroke-width: 0.8"/>
    <path d="M 329.238204 142.301783 
L 184.410836 103.491817 
L 93.971014 173.312313 
" style="fill: none; stroke: #b0b0b0; stroke-width: 0.8"/>
    <path d="M 329.851429 128.91051 
L 184.262082 90.555764 
L 93.309304 159.571486 
" style="fill: none; stroke: #b0b0b0; stroke-width: 0.8"/>
    <path d="M 330.471206 115.37616 
L 184.111816 77.488254 
L 92.640248 145.678106 
" style="fill: none; stroke: #b0b0b0; stroke-width: 0.8"/>
    <path d="M 331.097641 101.696426 
L 183.960015 64.287274 
L 91.963723 131.629618 
" style="fill: none; stroke: #b0b0b0; stroke-width: 0.8"/>
   </g>
   <g id="xtick_19">
    <g id="line2d_22">
     <path d="M 325.082262 206.845889 
L 328.638736 207.877077 
" style="fill: none; stroke: #000000; stroke-width: 0.8; stroke-linecap: square"/>
    </g>
    <g id="text_22">
     <!-- −1.00 -->
     <g transform="translate(329.208123 212.186875)scale(0.1 -0.1)">
      <use xlink:href="#DejaVuSans-2212"/>
      <use xlink:href="#DejaVuSans-31" x="83.789062"/>
      <use xlink:href="#DejaVuSans-2e" x="147.412109"/>
      <use xlink:href="#DejaVuSans-30" x="179.199219"/>
      <use xlink:href="#DejaVuSans-30" x="242.822266"/>
     </g>
    </g>
   </g>
   <g id="xtick_20">
    <g id="line2d_23">
     <path d="M 325.657875 194.140362 
L 329.233462 195.161692 
" style="fill: none; stroke: #000000; stroke-width: 0.8; stroke-linecap: square"/>
    </g>
    <g id="text_23">
     <!-- −0.75 -->
     <g transform="translate(329.882595 199.502974)scale(0.1 -0.1)">
      <use xlink:href="#DejaVuSans-2212"/>
      <use xlink:href="#DejaVuSans-30" x="83.789062"/>
      <use xlink:href="#DejaVuSans-2e" x="147.412109"/>
      <use xlink:href="#DejaVuSans-37" x="179.199219"/>
      <use xlink:href="#DejaVuSans-35" x="242.822266"/>
     </g>
    </g>
   </g>
   <g id="xtick_21">
    <g id="line2d_24">
     <path d="M 326.239475 181.30267 
L 329.834381 182.31388 
" style="fill: none; stroke: #000000; stroke-width: 0.8; stroke-linecap: square"/>
    </g>
    <g id="text_24">
     <!-- −0.50 -->
     <g transform="translate(330.564065 186.68748)scale(0.1 -0.1)">
      <use xlink:href="#DejaVuSans-2212"/>
      <use xlink:href="#DejaVuSans-30" x="83.789062"/>
      <use xlink:href="#DejaVuSans-2e" x="147.412109"/>
      <use xlink:href="#DejaVuSans-35" x="179.199219"/>
      <use xlink:href="#DejaVuSans-30" x="242.822266"/>
     </g>
    </g>
   </g>
   <g id="xtick_22">
    <g id="line2d_25">
     <path d="M 326.827157 168.330738 
L 330.441591 169.331559 
" style="fill: none; stroke: #000000; stroke-width: 0.8; stroke-linecap: square"/>
    </g>
    <g id="text_25">
     <!-- −0.25 -->
     <g transform="translate(331.252642 173.738332)scale(0.1 -0.1)">
      <use xlink:href="#DejaVuSans-2212"/>
      <use xlink:href="#DejaVuSans-30" x="83.789062"/>
      <use xlink:href="#DejaVuSans-2e" x="147.412109"/>
      <use xlink:href="#DejaVuSans-32" x="179.199219"/>
      <use xlink:href="#DejaVuSans-35" x="242.822266"/>
     </g>
    </g>
   </g>
   <g id="xtick_23">
    <g id="line2d_26">
     <path d="M 327.421016 155.22245 
L 331.055191 156.212608 
" style="fill: none; stroke: #000000; stroke-width: 0.8; stroke-linecap: square"/>
    </g>
    <g id="text_26">
     <!-- 0.00 -->
     <g transform="translate(336.138281 160.653431)scale(0.1 -0.1)">
      <use xlink:href="#DejaVuSans-30"/>
      <use xlink:href="#DejaVuSans-2e" x="63.623047"/>
      <use xlink:href="#DejaVuSans-30" x="95.410156"/>
      <use xlink:href="#DejaVuSans-30" x="159.033203"/>
     </g>
    </g>
   </g>
   <g id="xtick_24">
    <g id="line2d_27">
     <path d="M 328.02115 141.975645 
L 331.675284 142.954857 
" style="fill: none; stroke: #000000; stroke-width: 0.8; stroke-linecap: square"/>
    </g>
    <g id="text_27">
     <!-- 0.25 -->
     <g transform="translate(336.84141 147.430629)scale(0.1 -0.1)">
      <use xlink:href="#DejaVuSans-30"/>
      <use xlink:href="#DejaVuSans-2e" x="63.623047"/>
      <use xlink:href="#DejaVuSans-32" x="95.410156"/>
      <use xlink:href="#DejaVuSans-35" x="159.033203"/>
     </g>
    </g>
   </g>
   <g id="xtick_25">
    <g id="line2d_28">
     <path d="M 328.62766 128.588115 
L 332.301972 129.556093 
" style="fill: none; stroke: #000000; stroke-width: 0.8; stroke-linecap: square"/>
    </g>
    <g id="text_28">
     <!-- 0.50 -->
     <g transform="translate(337.551988 134.067735)scale(0.1 -0.1)">
      <use xlink:href="#DejaVuSans-30"/>
      <use xlink:href="#DejaVuSans-2e" x="63.623047"/>
      <use xlink:href="#DejaVuSans-35" x="95.410156"/>
      <use xlink:href="#DejaVuSans-30" x="159.033203"/>
     </g>
    </g>
   </g>
   <g id="xtick_26">
    <g id="line2d_29">
     <path d="M 329.240648 115.057606 
L 332.935362 116.014053 
" style="fill: none; stroke: #000000; stroke-width: 0.8; stroke-linecap: square"/>
    </g>
    <g id="text_29">
     <!-- 0.75 -->
     <g transform="translate(338.270135 120.562512)scale(0.1 -0.1)">
      <use xlink:href="#DejaVuSans-30"/>
      <use xlink:href="#DejaVuSans-2e" x="63.623047"/>
      <use xlink:href="#DejaVuSans-37" x="95.410156"/>
      <use xlink:href="#DejaVuSans-35" x="159.033203"/>
     </g>
    </g>
   </g>
   <g id="xtick_27">
    <g id="line2d_30">
     <path d="M 329.860217 101.381816 
L 333.575561 102.326427 
" style="fill: none; stroke: #000000; stroke-width: 0.8; stroke-linecap: square"/>
    </g>
    <g id="text_30">
     <!-- 1.00 -->
     <g transform="translate(338.995971 106.912671)scale(0.1 -0.1)">
      <use xlink:href="#DejaVuSans-31"/>
      <use xlink:href="#DejaVuSans-2e" x="63.623047"/>
      <use xlink:href="#DejaVuSans-30" x="95.410156"/>
      <use xlink:href="#DejaVuSans-30" x="159.033203"/>
     </g>
    </g>
   </g>
  </g>
  <g id="axes_1">
   <g id="Path3DCollection_1">
    <defs>
     <path id="mbb15ce5850" d="M 0 7.732999 
C 2.050815 7.732999 4.017911 6.918202 5.468056 5.468056 
C 6.918202 4.017911 7.732999 2.050815 7.732999 0 
C 7.732999 -2.050815 6.918202 -4.017911 5.468056 -5.468056 
C 4.017911 -6.918202 2.050815 -7.732999 0 -7.732999 
C -2.050815 -7.732999 -4.017911 -6.918202 -5.468056 -5.468056 
C -6.918202 -4.017911 -7.732999 -2.050815 -7.732999 0 
C -7.732999 2.050815 -6.918202 4.017911 -5.468056 5.468056 
C -4.017911 6.918202 -2.050815 7.732999 0 7.732999 
z
" style="stroke: #277f8e"/>
    </defs>
    <g clip-path="url(#p25db4dd354)">
     <use xlink:href="#mbb15ce5850" x="183.655703" y="157.199133" style="fill: #277f8e; stroke: #277f8e"/>
    </g>
   </g>
   <g id="text_31">
    <!-- Motif 1_1450K centroid -->
    <g transform="translate(94.507188 35.472)scale(0.2 -0.2)">
     <defs>
      <path id="DejaVuSans-4d" d="M 628 4666 
L 1569 4666 
L 2759 1491 
L 3956 4666 
L 4897 4666 
L 4897 0 
L 4281 0 
L 4281 4097 
L 3078 897 
L 2444 897 
L 1241 4097 
L 1241 0 
L 628 0 
L 628 4666 
z
" transform="scale(0.015625)"/>
      <path id="DejaVuSans-66" d="M 2375 4863 
L 2375 4384 
L 1825 4384 
Q 1516 4384 1395 4259 
Q 1275 4134 1275 3809 
L 1275 3500 
L 2222 3500 
L 2222 3053 
L 1275 3053 
L 1275 0 
L 697 0 
L 697 3053 
L 147 3053 
L 147 3500 
L 697 3500 
L 697 3744 
Q 697 4328 969 4595 
Q 1241 4863 1831 4863 
L 2375 4863 
z
" transform="scale(0.015625)"/>
      <path id="DejaVuSans-5f" d="M 3263 -1063 
L 3263 -1509 
L -63 -1509 
L -63 -1063 
L 3263 -1063 
z
" transform="scale(0.015625)"/>
      <path id="DejaVuSans-34" d="M 2419 4116 
L 825 1625 
L 2419 1625 
L 2419 4116 
z
M 2253 4666 
L 3047 4666 
L 3047 1625 
L 3713 1625 
L 3713 1100 
L 3047 1100 
L 3047 0 
L 2419 0 
L 2419 1100 
L 313 1100 
L 313 1709 
L 2253 4666 
z
" transform="scale(0.015625)"/>
      <path id="DejaVuSans-4b" d="M 628 4666 
L 1259 4666 
L 1259 2694 
L 3353 4666 
L 4166 4666 
L 1850 2491 
L 4331 0 
L 3500 0 
L 1259 2247 
L 1259 0 
L 628 0 
L 628 4666 
z
" transform="scale(0.015625)"/>
      <path id="DejaVuSans-63" d="M 3122 3366 
L 3122 2828 
Q 2878 2963 2633 3030 
Q 2388 3097 2138 3097 
Q 1578 3097 1268 2742 
Q 959 2388 959 1747 
Q 959 1106 1268 751 
Q 1578 397 2138 397 
Q 2388 397 2633 464 
Q 2878 531 3122 666 
L 3122 134 
Q 2881 22 2623 -34 
Q 2366 -91 2075 -91 
Q 1284 -91 818 406 
Q 353 903 353 1747 
Q 353 2603 823 3093 
Q 1294 3584 2113 3584 
Q 2378 3584 2631 3529 
Q 2884 3475 3122 3366 
z
" transform="scale(0.015625)"/>
      <path id="DejaVuSans-65" d="M 3597 1894 
L 3597 1613 
L 953 1613 
Q 991 1019 1311 708 
Q 1631 397 2203 397 
Q 2534 397 2845 478 
Q 3156 559 3463 722 
L 3463 178 
Q 3153 47 2828 -22 
Q 2503 -91 2169 -91 
Q 1331 -91 842 396 
Q 353 884 353 1716 
Q 353 2575 817 3079 
Q 1281 3584 2069 3584 
Q 2775 3584 3186 3129 
Q 3597 2675 3597 1894 
z
M 3022 2063 
Q 3016 2534 2758 2815 
Q 2500 3097 2075 3097 
Q 1594 3097 1305 2825 
Q 1016 2553 972 2059 
L 3022 2063 
z
" transform="scale(0.015625)"/>
      <path id="DejaVuSans-72" d="M 2631 2963 
Q 2534 3019 2420 3045 
Q 2306 3072 2169 3072 
Q 1681 3072 1420 2755 
Q 1159 2438 1159 1844 
L 1159 0 
L 581 0 
L 581 3500 
L 1159 3500 
L 1159 2956 
Q 1341 3275 1631 3429 
Q 1922 3584 2338 3584 
Q 2397 3584 2469 3576 
Q 2541 3569 2628 3553 
L 2631 2963 
z
" transform="scale(0.015625)"/>
      <path id="DejaVuSans-64" d="M 2906 2969 
L 2906 4863 
L 3481 4863 
L 3481 0 
L 2906 0 
L 2906 525 
Q 2725 213 2448 61 
Q 2172 -91 1784 -91 
Q 1150 -91 751 415 
Q 353 922 353 1747 
Q 353 2572 751 3078 
Q 1150 3584 1784 3584 
Q 2172 3584 2448 3432 
Q 2725 3281 2906 2969 
z
M 947 1747 
Q 947 1113 1208 752 
Q 1469 391 1925 391 
Q 2381 391 2643 752 
Q 2906 1113 2906 1747 
Q 2906 2381 2643 2742 
Q 2381 3103 1925 3103 
Q 1469 3103 1208 2742 
Q 947 2381 947 1747 
z
" transform="scale(0.015625)"/>
     </defs>
     <use xlink:href="#DejaVuSans-4d"/>
     <use xlink:href="#DejaVuSans-6f" x="86.279297"/>
     <use xlink:href="#DejaVuSans-74" x="147.460938"/>
     <use xlink:href="#DejaVuSans-69" x="186.669922"/>
     <use xlink:href="#DejaVuSans-66" x="214.453125"/>
     <use xlink:href="#DejaVuSans-20" x="249.658203"/>
     <use xlink:href="#DejaVuSans-31" x="281.445312"/>
     <use xlink:href="#DejaVuSans-5f" x="345.068359"/>
     <use xlink:href="#DejaVuSans-31" x="395.068359"/>
     <use xlink:href="#DejaVuSans-34" x="458.691406"/>
     <use xlink:href="#DejaVuSans-35" x="522.314453"/>
     <use xlink:href="#DejaVuSans-30" x="585.9375"/>
     <use xlink:href="#DejaVuSans-4b" x="649.560547"/>
     <use xlink:href="#DejaVuSans-20" x="715.136719"/>
     <use xlink:href="#DejaVuSans-63" x="746.923828"/>
     <use xlink:href="#DejaVuSans-65" x="801.904297"/>
     <use xlink:href="#DejaVuSans-6e" x="863.427734"/>
     <use xlink:href="#DejaVuSans-74" x="926.806641"/>
     <use xlink:href="#DejaVuSans-72" x="966.015625"/>
     <use xlink:href="#DejaVuSans-6f" x="1004.878906"/>
     <use xlink:href="#DejaVuSans-69" x="1066.060547"/>
     <use xlink:href="#DejaVuSans-64" x="1093.84375"/>
    </g>
   </g>
   <g id="Path3DCollection_2">
    <defs>
     <path id="m33bc00480d" d="M 0 7.315842 
C 1.940184 7.315842 3.801164 6.544999 5.173082 5.173082 
C 6.544999 3.801164 7.315842 1.940184 7.315842 0 
C 7.315842 -1.940184 6.544999 -3.801164 5.173082 -5.173082 
C 3.801164 -6.544999 1.940184 -7.315842 0 -7.315842 
C -1.940184 -7.315842 -3.801164 -6.544999 -5.173082 -5.173082 
C -6.544999 -3.801164 -7.315842 -1.940184 -7.315842 0 
C -7.315842 1.940184 -6.544999 3.801164 -5.173082 5.173082 
C -3.801164 6.544999 -1.940184 7.315842 0 7.315842 
z
" style="stroke: #46327e"/>
    </defs>
    <g clip-path="url(#p25db4dd354)">
     <use xlink:href="#m33bc00480d" x="249.844106" y="175.381575" style="fill: #46327e; stroke: #46327e"/>
    </g>
   </g>
   <g id="Path3DCollection_3">
    <defs>
     <path id="mf9b53c4815" d="M 0 8.309495 
C 2.203704 8.309495 4.317446 7.433954 5.8757 5.8757 
C 7.433954 4.317446 8.309495 2.203704 8.309495 0 
C 8.309495 -2.203704 7.433954 -4.317446 5.8757 -5.8757 
C 4.317446 -7.433954 2.203704 -8.309495 0 -8.309495 
C -2.203704 -8.309495 -4.317446 -7.433954 -5.8757 -5.8757 
C -7.433954 -4.317446 -8.309495 -2.203704 -8.309495 0 
C -8.309495 2.203704 -7.433954 4.317446 -5.8757 5.8757 
C -4.317446 7.433954 -2.203704 8.309495 0 8.309495 
z
" style="stroke: #a0da39"/>
    </defs>
    <g clip-path="url(#p25db4dd354)">
     <use xlink:href="#mf9b53c4815" x="235.318762" y="134.966025" style="fill: #a0da39; stroke: #a0da39"/>
    </g>
   </g>
   <g id="Path3DCollection_4">
    <defs>
     <path id="m0f18a6a43d" d="M 0 7.912497 
C 2.098419 7.912497 4.111174 7.078786 5.59498 5.59498 
C 7.078786 4.111174 7.912497 2.098419 7.912497 0 
C 7.912497 -2.098419 7.078786 -4.111174 5.59498 -5.59498 
C 4.111174 -7.078786 2.098419 -7.912497 0 -7.912497 
C -2.098419 -7.912497 -4.111174 -7.078786 -5.59498 -5.59498 
C -7.078786 -4.111174 -7.912497 -2.098419 -7.912497 0 
C -7.912497 2.098419 -7.078786 4.111174 -5.59498 5.59498 
C -4.111174 7.078786 -2.098419 7.912497 0 7.912497 
z
" style="stroke: #46327e"/>
    </defs>
    <g clip-path="url(#p25db4dd354)">
     <use xlink:href="#m0f18a6a43d" x="201.851327" y="200.749842" style="fill: #46327e; stroke: #46327e"/>
    </g>
   </g>
   <g id="Path3DCollection_5">
    <defs>
     <path id="md2494cf1bd" d="M 0 7.324828 
C 1.942567 7.324828 3.805833 6.553038 5.179436 5.179436 
C 6.553038 3.805833 7.324828 1.942567 7.324828 0 
C 7.324828 -1.942567 6.553038 -3.805833 5.179436 -5.179436 
C 3.805833 -6.553038 1.942567 -7.324828 0 -7.324828 
C -1.942567 -7.324828 -3.805833 -6.553038 -5.179436 -5.179436 
C -6.553038 -3.805833 -7.324828 -1.942567 -7.324828 0 
C -7.324828 1.942567 -6.553038 3.805833 -5.179436 5.179436 
C -3.805833 6.553038 -1.942567 7.324828 0 7.324828 
z
" style="stroke: #46327e"/>
    </defs>
    <g clip-path="url(#p25db4dd354)">
     <use xlink:href="#md2494cf1bd" x="187.289961" y="131.904412" style="fill: #46327e; stroke: #46327e"/>
    </g>
   </g>
   <g id="Path3DCollection_6">
    <defs>
     <path id="m71520ebbd9" d="M 0 8.269706 
C 2.193152 8.269706 4.296773 7.398358 5.847565 5.847565 
C 7.398358 4.296773 8.269706 2.193152 8.269706 0 
C 8.269706 -2.193152 7.398358 -4.296773 5.847565 -5.847565 
C 4.296773 -7.398358 2.193152 -8.269706 0 -8.269706 
C -2.193152 -8.269706 -4.296773 -7.398358 -5.847565 -5.847565 
C -7.398358 -4.296773 -8.269706 -2.193152 -8.269706 0 
C -8.269706 2.193152 -7.398358 4.296773 -5.847565 5.847565 
C -4.296773 7.398358 -2.193152 8.269706 0 8.269706 
z
" style="stroke: #fde725"/>
    </defs>
    <g clip-path="url(#p25db4dd354)">
     <use xlink:href="#m71520ebbd9" x="269.589031" y="163.872115" style="fill: #fde725; stroke: #fde725"/>
    </g>
   </g>
   <g id="Path3DCollection_7">
    <defs>
     <path id="m9f78860515" d="M 0 5.243962 
C 1.390715 5.243962 2.724657 4.691425 3.708041 3.708041 
C 4.691425 2.724657 5.243962 1.390715 5.243962 0 
C 5.243962 -1.390715 4.691425 -2.724657 3.708041 -3.708041 
C 2.724657 -4.691425 1.390715 -5.243962 0 -5.243962 
C -1.390715 -5.243962 -2.724657 -4.691425 -3.708041 -3.708041 
C -4.691425 -2.724657 -5.243962 -1.390715 -5.243962 0 
C -5.243962 1.390715 -4.691425 2.724657 -3.708041 3.708041 
C -2.724657 4.691425 -1.390715 5.243962 0 5.243962 
z
" style="stroke: #000000"/>
    </defs>
    <g clip-path="url(#p25db4dd354)">
     <use xlink:href="#m9f78860515" x="213.508054" y="170.558841" style="fill: #277f8e; stroke: #000000"/>
    </g>
   </g>
   <g id="Path3DCollection_8">
    <defs>
     <path id="m1f5a66d90f" d="M 0 7.476915 
C 1.982901 7.476915 3.884854 6.6891 5.286977 5.286977 
C 6.6891 3.884854 7.476915 1.982901 7.476915 0 
C 7.476915 -1.982901 6.6891 -3.884854 5.286977 -5.286977 
C 3.884854 -6.6891 1.982901 -7.476915 0 -7.476915 
C -1.982901 -7.476915 -3.884854 -6.6891 -5.286977 -5.286977 
C -6.6891 -3.884854 -7.476915 -1.982901 -7.476915 0 
C -7.476915 1.982901 -6.6891 3.884854 -5.286977 5.286977 
C -3.884854 6.6891 -1.982901 7.476915 0 7.476915 
z
" style="stroke: #46327e"/>
    </defs>
    <g clip-path="url(#p25db4dd354)">
     <use xlink:href="#m1f5a66d90f" x="157.5642" y="176.438277" style="fill: #46327e; stroke: #46327e"/>
    </g>
   </g>
   <g id="Path3DCollection_9">
    <defs>
     <path id="m244adb60b9" d="M 0 7.53527 
C 1.998377 7.53527 3.915174 6.741306 5.32824 5.32824 
C 6.741306 3.915174 7.53527 1.998377 7.53527 0 
C 7.53527 -1.998377 6.741306 -3.915174 5.32824 -5.32824 
C 3.915174 -6.741306 1.998377 -7.53527 0 -7.53527 
C -1.998377 -7.53527 -3.915174 -6.741306 -5.32824 -5.32824 
C -6.741306 -3.915174 -7.53527 -1.998377 -7.53527 0 
C -7.53527 1.998377 -6.741306 3.915174 -5.32824 5.32824 
C -3.915174 6.741306 -1.998377 7.53527 0 7.53527 
z
" style="stroke: #1fa187"/>
    </defs>
    <g clip-path="url(#p25db4dd354)">
     <use xlink:href="#m244adb60b9" x="239.203403" y="210.861632" style="fill: #1fa187; stroke: #1fa187"/>
    </g>
   </g>
   <g id="Path3DCollection_10">
    <defs>
     <path id="m6de46850aa" d="M 0 7.670124 
C 2.034141 7.670124 3.985242 6.861952 5.423597 5.423597 
C 6.861952 3.985242 7.670124 2.034141 7.670124 0 
C 7.670124 -2.034141 6.861952 -3.985242 5.423597 -5.423597 
C 3.985242 -6.861952 2.034141 -7.670124 0 -7.670124 
C -2.034141 -7.670124 -3.985242 -6.861952 -5.423597 -5.423597 
C -6.861952 -3.985242 -7.670124 -2.034141 -7.670124 0 
C -7.670124 2.034141 -6.861952 3.985242 -5.423597 5.423597 
C -3.985242 6.861952 -2.034141 7.670124 0 7.670124 
z
" style="stroke: #46327e"/>
    </defs>
    <g clip-path="url(#p25db4dd354)">
     <use xlink:href="#m6de46850aa" x="226.198291" y="139.652984" style="fill: #46327e; stroke: #46327e"/>
    </g>
   </g>
   <g id="Path3DCollection_11">
    <defs>
     <path id="m68acdb1b29" d="M 0 8.277243 
C 2.195151 8.277243 4.300689 7.405101 5.852895 5.852895 
C 7.405101 4.300689 8.277243 2.195151 8.277243 0 
C 8.277243 -2.195151 7.405101 -4.300689 5.852895 -5.852895 
C 4.300689 -7.405101 2.195151 -8.277243 0 -8.277243 
C -2.195151 -8.277243 -4.300689 -7.405101 -5.852895 -5.852895 
C -7.405101 -4.300689 -8.277243 -2.195151 -8.277243 0 
C -8.277243 2.195151 -7.405101 4.300689 -5.852895 5.852895 
C -4.300689 7.405101 -2.195151 8.277243 0 8.277243 
z
" style="stroke: #a0da39"/>
    </defs>
    <g clip-path="url(#p25db4dd354)">
     <use xlink:href="#m68acdb1b29" x="191.200467" y="209.889072" style="fill: #a0da39; stroke: #a0da39"/>
    </g>
   </g>
   <g id="Path3DCollection_12">
    <defs>
     <path id="m4f563c9f2e" d="M 0 7.919198 
C 2.100196 7.919198 4.114656 7.084781 5.599719 5.599719 
C 7.084781 4.114656 7.919198 2.100196 7.919198 0 
C 7.919198 -2.100196 7.084781 -4.114656 5.599719 -5.599719 
C 4.114656 -7.084781 2.100196 -7.919198 0 -7.919198 
C -2.100196 -7.919198 -4.114656 -7.084781 -5.599719 -5.599719 
C -7.084781 -4.114656 -7.919198 -2.100196 -7.919198 0 
C -7.919198 2.100196 -7.084781 4.114656 -5.599719 5.599719 
C -4.114656 7.084781 -2.100196 7.919198 0 7.919198 
z
" style="stroke: #46327e"/>
    </defs>
    <g clip-path="url(#p25db4dd354)">
     <use xlink:href="#m4f563c9f2e" x="177.21833" y="167.1602" style="fill: #46327e; stroke: #46327e"/>
    </g>
   </g>
   <g id="Path3DCollection_13">
    <defs>
     <path id="me02ded681c" d="M 0 7.215532 
C 1.913581 7.215532 3.749045 6.455258 5.102151 5.102151 
C 6.455258 3.749045 7.215532 1.913581 7.215532 0 
C 7.215532 -1.913581 6.455258 -3.749045 5.102151 -5.102151 
C 3.749045 -6.455258 1.913581 -7.215532 0 -7.215532 
C -1.913581 -7.215532 -3.749045 -6.455258 -5.102151 -5.102151 
C -6.455258 -3.749045 -7.215532 -1.913581 -7.215532 0 
C -7.215532 1.913581 -6.455258 3.749045 -5.102151 5.102151 
C -3.749045 6.455258 -1.913581 7.215532 0 7.215532 
z
" style="stroke: #440154"/>
    </defs>
    <g clip-path="url(#p25db4dd354)">
     <use xlink:href="#me02ded681c" x="246.282879" y="184.839251" style="fill: #440154; stroke: #440154"/>
    </g>
   </g>
  </g>
  <g id="axes_2">
   <g id="patch_6">
    <path d="M 361.152 307.584 
L 374.4576 307.584 
L 374.4576 41.472 
L 361.152 41.472 
z
" style="fill: #ffffff"/>
   </g>
   <g id="patch_7">
    <path clip-path="url(#p1ee0b015f8)" style="fill: #ffffff; stroke: #ffffff; stroke-width: 0.01; stroke-linejoin: miter"/>
   </g>
   <g id="QuadMesh_1">
    <path d="M 361.152 307.584 
L 374.4576 307.584 
L 374.4576 274.32 
L 361.152 274.32 
L 361.152 307.584 
" clip-path="url(#p1ee0b015f8)" style="fill: #440154"/>
    <path d="M 361.152 274.32 
L 374.4576 274.32 
L 374.4576 241.056 
L 361.152 241.056 
L 361.152 274.32 
" clip-path="url(#p1ee0b015f8)" style="fill: #46327e"/>
    <path d="M 361.152 241.056 
L 374.4576 241.056 
L 374.4576 207.792 
L 361.152 207.792 
L 361.152 241.056 
" clip-path="url(#p1ee0b015f8)" style="fill: #365c8d"/>
    <path d="M 361.152 207.792 
L 374.4576 207.792 
L 374.4576 174.528 
L 361.152 174.528 
L 361.152 207.792 
" clip-path="url(#p1ee0b015f8)" style="fill: #277f8e"/>
    <path d="M 361.152 174.528 
L 374.4576 174.528 
L 374.4576 141.264 
L 361.152 141.264 
L 361.152 174.528 
" clip-path="url(#p1ee0b015f8)" style="fill: #1fa187"/>
    <path d="M 361.152 141.264 
L 374.4576 141.264 
L 374.4576 108 
L 361.152 108 
L 361.152 141.264 
" clip-path="url(#p1ee0b015f8)" style="fill: #4ac16d"/>
    <path d="M 361.152 108 
L 374.4576 108 
L 374.4576 74.736 
L 361.152 74.736 
L 361.152 108 
" clip-path="url(#p1ee0b015f8)" style="fill: #a0da39"/>
    <path d="M 361.152 74.736 
L 374.4576 74.736 
L 374.4576 41.472 
L 361.152 41.472 
L 361.152 74.736 
" clip-path="url(#p1ee0b015f8)" style="fill: #fde725"/>
   </g>
   <g id="matplotlib.axis_1">
    <g id="ytick_1">
     <g id="line2d_31">
      <defs>
       <path id="m2d43cb4f6d" d="M 0 0 
L 3.5 0 
" style="stroke: #000000; stroke-width: 0.8"/>
      </defs>
      <g>
       <use xlink:href="#m2d43cb4f6d" x="374.4576" y="307.584" style="stroke: #000000; stroke-width: 0.8"/>
      </g>
     </g>
     <g id="text_32">
      <!-- 0.991 -->
      <g transform="translate(381.4576 311.383219)scale(0.1 -0.1)">
       <defs>
        <path id="DejaVuSans-39" d="M 703 97 
L 703 672 
Q 941 559 1184 500 
Q 1428 441 1663 441 
Q 2288 441 2617 861 
Q 2947 1281 2994 2138 
Q 2813 1869 2534 1725 
Q 2256 1581 1919 1581 
Q 1219 1581 811 2004 
Q 403 2428 403 3163 
Q 403 3881 828 4315 
Q 1253 4750 1959 4750 
Q 2769 4750 3195 4129 
Q 3622 3509 3622 2328 
Q 3622 1225 3098 567 
Q 2575 -91 1691 -91 
Q 1453 -91 1209 -44 
Q 966 3 703 97 
z
M 1959 2075 
Q 2384 2075 2632 2365 
Q 2881 2656 2881 3163 
Q 2881 3666 2632 3958 
Q 2384 4250 1959 4250 
Q 1534 4250 1286 3958 
Q 1038 3666 1038 3163 
Q 1038 2656 1286 2365 
Q 1534 2075 1959 2075 
z
" transform="scale(0.015625)"/>
       </defs>
       <use xlink:href="#DejaVuSans-30"/>
       <use xlink:href="#DejaVuSans-2e" x="63.623047"/>
       <use xlink:href="#DejaVuSans-39" x="95.410156"/>
       <use xlink:href="#DejaVuSans-39" x="159.033203"/>
       <use xlink:href="#DejaVuSans-31" x="222.65625"/>
      </g>
     </g>
    </g>
    <g id="ytick_2">
     <g id="line2d_32">
      <g>
       <use xlink:href="#m2d43cb4f6d" x="374.4576" y="254.3616" style="stroke: #000000; stroke-width: 0.8"/>
      </g>
     </g>
     <g id="text_33">
      <!-- 0.996 -->
      <g transform="translate(381.4576 258.160819)scale(0.1 -0.1)">
       <defs>
        <path id="DejaVuSans-36" d="M 2113 2584 
Q 1688 2584 1439 2293 
Q 1191 2003 1191 1497 
Q 1191 994 1439 701 
Q 1688 409 2113 409 
Q 2538 409 2786 701 
Q 3034 994 3034 1497 
Q 3034 2003 2786 2293 
Q 2538 2584 2113 2584 
z
M 3366 4563 
L 3366 3988 
Q 3128 4100 2886 4159 
Q 2644 4219 2406 4219 
Q 1781 4219 1451 3797 
Q 1122 3375 1075 2522 
Q 1259 2794 1537 2939 
Q 1816 3084 2150 3084 
Q 2853 3084 3261 2657 
Q 3669 2231 3669 1497 
Q 3669 778 3244 343 
Q 2819 -91 2113 -91 
Q 1303 -91 875 529 
Q 447 1150 447 2328 
Q 447 3434 972 4092 
Q 1497 4750 2381 4750 
Q 2619 4750 2861 4703 
Q 3103 4656 3366 4563 
z
" transform="scale(0.015625)"/>
       </defs>
       <use xlink:href="#DejaVuSans-30"/>
       <use xlink:href="#DejaVuSans-2e" x="63.623047"/>
       <use xlink:href="#DejaVuSans-39" x="95.410156"/>
       <use xlink:href="#DejaVuSans-39" x="159.033203"/>
       <use xlink:href="#DejaVuSans-36" x="222.65625"/>
      </g>
     </g>
    </g>
    <g id="ytick_3">
     <g id="line2d_33">
      <g>
       <use xlink:href="#m2d43cb4f6d" x="374.4576" y="201.1392" style="stroke: #000000; stroke-width: 0.8"/>
      </g>
     </g>
     <g id="text_34">
      <!-- 1.0 -->
      <g transform="translate(381.4576 204.938419)scale(0.1 -0.1)">
       <use xlink:href="#DejaVuSans-31"/>
       <use xlink:href="#DejaVuSans-2e" x="63.623047"/>
       <use xlink:href="#DejaVuSans-30" x="95.410156"/>
      </g>
     </g>
    </g>
    <g id="ytick_4">
     <g id="line2d_34">
      <g>
       <use xlink:href="#m2d43cb4f6d" x="374.4576" y="147.9168" style="stroke: #000000; stroke-width: 0.8"/>
      </g>
     </g>
     <g id="text_35">
      <!-- 1.004 -->
      <g transform="translate(381.4576 151.716019)scale(0.1 -0.1)">
       <use xlink:href="#DejaVuSans-31"/>
       <use xlink:href="#DejaVuSans-2e" x="63.623047"/>
       <use xlink:href="#DejaVuSans-30" x="95.410156"/>
       <use xlink:href="#DejaVuSans-30" x="159.033203"/>
       <use xlink:href="#DejaVuSans-34" x="222.65625"/>
      </g>
     </g>
    </g>
    <g id="ytick_5">
     <g id="line2d_35">
      <g>
       <use xlink:href="#m2d43cb4f6d" x="374.4576" y="94.6944" style="stroke: #000000; stroke-width: 0.8"/>
      </g>
     </g>
     <g id="text_36">
      <!-- 1.009 -->
      <g transform="translate(381.4576 98.493619)scale(0.1 -0.1)">
       <use xlink:href="#DejaVuSans-31"/>
       <use xlink:href="#DejaVuSans-2e" x="63.623047"/>
       <use xlink:href="#DejaVuSans-30" x="95.410156"/>
       <use xlink:href="#DejaVuSans-30" x="159.033203"/>
       <use xlink:href="#DejaVuSans-39" x="222.65625"/>
      </g>
     </g>
    </g>
    <g id="ytick_6">
     <g id="line2d_36">
      <g>
       <use xlink:href="#m2d43cb4f6d" x="374.4576" y="41.472" style="stroke: #000000; stroke-width: 0.8"/>
      </g>
     </g>
     <g id="text_37">
      <!-- 1.013 -->
      <g transform="translate(381.4576 45.271219)scale(0.1 -0.1)">
       <defs>
        <path id="DejaVuSans-33" d="M 2597 2516 
Q 3050 2419 3304 2112 
Q 3559 1806 3559 1356 
Q 3559 666 3084 287 
Q 2609 -91 1734 -91 
Q 1441 -91 1130 -33 
Q 819 25 488 141 
L 488 750 
Q 750 597 1062 519 
Q 1375 441 1716 441 
Q 2309 441 2620 675 
Q 2931 909 2931 1356 
Q 2931 1769 2642 2001 
Q 2353 2234 1838 2234 
L 1294 2234 
L 1294 2753 
L 1863 2753 
Q 2328 2753 2575 2939 
Q 2822 3125 2822 3475 
Q 2822 3834 2567 4026 
Q 2313 4219 1838 4219 
Q 1578 4219 1281 4162 
Q 984 4106 628 3988 
L 628 4550 
Q 988 4650 1302 4700 
Q 1616 4750 1894 4750 
Q 2613 4750 3031 4423 
Q 3450 4097 3450 3541 
Q 3450 3153 3228 2886 
Q 3006 2619 2597 2516 
z
" transform="scale(0.015625)"/>
       </defs>
       <use xlink:href="#DejaVuSans-31"/>
       <use xlink:href="#DejaVuSans-2e" x="63.623047"/>
       <use xlink:href="#DejaVuSans-30" x="95.410156"/>
       <use xlink:href="#DejaVuSans-31" x="159.033203"/>
       <use xlink:href="#DejaVuSans-33" x="222.65625"/>
      </g>
     </g>
    </g>
    <g id="text_38">
     <!-- Probability -->
     <g transform="translate(421.684163 200.956906)rotate(-90)scale(0.1 -0.1)">
      <defs>
       <path id="DejaVuSans-62" d="M 3116 1747 
Q 3116 2381 2855 2742 
Q 2594 3103 2138 3103 
Q 1681 3103 1420 2742 
Q 1159 2381 1159 1747 
Q 1159 1113 1420 752 
Q 1681 391 2138 391 
Q 2594 391 2855 752 
Q 3116 1113 3116 1747 
z
M 1159 2969 
Q 1341 3281 1617 3432 
Q 1894 3584 2278 3584 
Q 2916 3584 3314 3078 
Q 3713 2572 3713 1747 
Q 3713 922 3314 415 
Q 2916 -91 2278 -91 
Q 1894 -91 1617 61 
Q 1341 213 1159 525 
L 1159 0 
L 581 0 
L 581 4863 
L 1159 4863 
L 1159 2969 
z
" transform="scale(0.015625)"/>
       <path id="DejaVuSans-61" d="M 2194 1759 
Q 1497 1759 1228 1600 
Q 959 1441 959 1056 
Q 959 750 1161 570 
Q 1363 391 1709 391 
Q 2188 391 2477 730 
Q 2766 1069 2766 1631 
L 2766 1759 
L 2194 1759 
z
M 3341 1997 
L 3341 0 
L 2766 0 
L 2766 531 
Q 2569 213 2275 61 
Q 1981 -91 1556 -91 
Q 1019 -91 701 211 
Q 384 513 384 1019 
Q 384 1609 779 1909 
Q 1175 2209 1959 2209 
L 2766 2209 
L 2766 2266 
Q 2766 2663 2505 2880 
Q 2244 3097 1772 3097 
Q 1472 3097 1187 3025 
Q 903 2953 641 2809 
L 641 3341 
Q 956 3463 1253 3523 
Q 1550 3584 1831 3584 
Q 2591 3584 2966 3190 
Q 3341 2797 3341 1997 
z
" transform="scale(0.015625)"/>
       <path id="DejaVuSans-6c" d="M 603 4863 
L 1178 4863 
L 1178 0 
L 603 0 
L 603 4863 
z
" transform="scale(0.015625)"/>
       <path id="DejaVuSans-79" d="M 2059 -325 
Q 1816 -950 1584 -1140 
Q 1353 -1331 966 -1331 
L 506 -1331 
L 506 -850 
L 844 -850 
Q 1081 -850 1212 -737 
Q 1344 -625 1503 -206 
L 1606 56 
L 191 3500 
L 800 3500 
L 1894 763 
L 2988 3500 
L 3597 3500 
L 2059 -325 
z
" transform="scale(0.015625)"/>
      </defs>
      <use xlink:href="#DejaVuSans-50"/>
      <use xlink:href="#DejaVuSans-72" x="58.552734"/>
      <use xlink:href="#DejaVuSans-6f" x="97.416016"/>
      <use xlink:href="#DejaVuSans-62" x="158.597656"/>
      <use xlink:href="#DejaVuSans-61" x="222.074219"/>
      <use xlink:href="#DejaVuSans-62" x="283.353516"/>
      <use xlink:href="#DejaVuSans-69" x="346.830078"/>
      <use xlink:href="#DejaVuSans-6c" x="374.613281"/>
      <use xlink:href="#DejaVuSans-69" x="402.396484"/>
      <use xlink:href="#DejaVuSans-74" x="430.179688"/>
      <use xlink:href="#DejaVuSans-79" x="469.388672"/>
     </g>
    </g>
   </g>
   <g id="LineCollection_1"/>
   <g id="patch_8">
    <path d="M 361.152 307.584 
L 367.8048 307.584 
L 374.4576 307.584 
L 374.4576 41.472 
L 367.8048 41.472 
L 361.152 41.472 
L 361.152 307.584 
z
" style="fill: none; stroke: #000000; stroke-width: 0.8; stroke-linejoin: miter; stroke-linecap: square"/>
   </g>
  </g>
 </g>
 <defs>
  <clipPath id="p25db4dd354">
   <rect x="77.184" y="41.472" width="266.112" height="266.112"/>
  </clipPath>
  <clipPath id="p1ee0b015f8">
   <rect x="361.152" y="41.472" width="13.3056" height="266.112"/>
  </clipPath>
 </defs>
</svg>
