<?xml version="1.0" encoding="utf-8" standalone="no"?>
<!DOCTYPE svg PUBLIC "-//W3C//DTD SVG 1.1//EN"
  "http://www.w3.org/Graphics/SVG/1.1/DTD/svg11.dtd">
<!-- Created with matplotlib (https://matplotlib.org/) -->
<svg height="345.6pt" version="1.1" viewBox="0 0 460.8 345.6" width="460.8pt" xmlns="http://www.w3.org/2000/svg" xmlns:xlink="http://www.w3.org/1999/xlink">
 <defs>
  <style type="text/css">
*{stroke-linecap:butt;stroke-linejoin:round;}
  </style>
 </defs>
 <g id="figure_1">
  <g id="patch_1">
   <path d="M 0 345.6 
L 460.8 345.6 
L 460.8 0 
L 0 0 
z
" style="fill:#ffffff;"/>
  </g>
  <g id="axes_1">
   <g id="patch_2">
    <path d="M 57.6 108 
L 414.72 108 
L 414.72 41.472 
L 57.6 41.472 
z
" style="fill:#ffffff;"/>
   </g>
   <g id="patch_3">
    <path clip-path="url(#pa658b44cb7)" d="M 114.248703 108 
L 119.125155 108 
L 119.125155 105.284571 
L 114.248703 105.284571 
z
" style="fill:#00008b;opacity:0.4;stroke:#000000;stroke-linejoin:miter;"/>
   </g>
   <g id="patch_4">
    <path clip-path="url(#pa658b44cb7)" d="M 119.125155 108 
L 124.001607 108 
L 124.001607 103.474286 
L 119.125155 103.474286 
z
" style="fill:#00008b;opacity:0.4;stroke:#000000;stroke-linejoin:miter;"/>
   </g>
   <g id="patch_5">
    <path clip-path="url(#pa658b44cb7)" d="M 124.001607 108 
L 128.878059 108 
L 128.878059 102.569143 
L 124.001607 102.569143 
z
" style="fill:#00008b;opacity:0.4;stroke:#000000;stroke-linejoin:miter;"/>
   </g>
   <g id="patch_6">
    <path clip-path="url(#pa658b44cb7)" d="M 128.878059 108 
L 133.754511 108 
L 133.754511 96.233143 
L 128.878059 96.233143 
z
" style="fill:#00008b;opacity:0.4;stroke:#000000;stroke-linejoin:miter;"/>
   </g>
   <g id="patch_7">
    <path clip-path="url(#pa658b44cb7)" d="M 133.754511 108 
L 138.630963 108 
L 138.630963 88.086857 
L 133.754511 88.086857 
z
" style="fill:#00008b;opacity:0.4;stroke:#000000;stroke-linejoin:miter;"/>
   </g>
   <g id="patch_8">
    <path clip-path="url(#pa658b44cb7)" d="M 138.630963 108 
L 143.507414 108 
L 143.507414 83.561143 
L 138.630963 83.561143 
z
" style="fill:#00008b;opacity:0.4;stroke:#000000;stroke-linejoin:miter;"/>
   </g>
   <g id="patch_9">
    <path clip-path="url(#pa658b44cb7)" d="M 143.507414 108 
L 148.383866 108 
L 148.383866 77.225143 
L 143.507414 77.225143 
z
" style="fill:#00008b;opacity:0.4;stroke:#000000;stroke-linejoin:miter;"/>
   </g>
   <g id="patch_10">
    <path clip-path="url(#pa658b44cb7)" d="M 148.383866 108 
L 153.260318 108 
L 153.260318 84.466286 
L 148.383866 84.466286 
z
" style="fill:#00008b;opacity:0.4;stroke:#000000;stroke-linejoin:miter;"/>
   </g>
   <g id="patch_11">
    <path clip-path="url(#pa658b44cb7)" d="M 153.260318 108 
L 158.13677 108 
L 158.13677 86.276571 
L 153.260318 86.276571 
z
" style="fill:#00008b;opacity:0.4;stroke:#000000;stroke-linejoin:miter;"/>
   </g>
   <g id="patch_12">
    <path clip-path="url(#pa658b44cb7)" d="M 158.13677 108 
L 163.013222 108 
L 163.013222 90.802286 
L 158.13677 90.802286 
z
" style="fill:#00008b;opacity:0.4;stroke:#000000;stroke-linejoin:miter;"/>
   </g>
   <g id="patch_13">
    <path clip-path="url(#pa658b44cb7)" d="M 163.013222 108 
L 167.889674 108 
L 167.889674 79.035429 
L 163.013222 79.035429 
z
" style="fill:#00008b;opacity:0.4;stroke:#000000;stroke-linejoin:miter;"/>
   </g>
   <g id="patch_14">
    <path clip-path="url(#pa658b44cb7)" d="M 167.889674 108 
L 172.766126 108 
L 172.766126 88.086857 
L 167.889674 88.086857 
z
" style="fill:#00008b;opacity:0.4;stroke:#000000;stroke-linejoin:miter;"/>
   </g>
   <g id="patch_15">
    <path clip-path="url(#pa658b44cb7)" d="M 172.766126 108 
L 177.642578 108 
L 177.642578 81.750857 
L 172.766126 81.750857 
z
" style="fill:#00008b;opacity:0.4;stroke:#000000;stroke-linejoin:miter;"/>
   </g>
   <g id="patch_16">
    <path clip-path="url(#pa658b44cb7)" d="M 177.642578 108 
L 182.519029 108 
L 182.519029 90.802286 
L 177.642578 90.802286 
z
" style="fill:#00008b;opacity:0.4;stroke:#000000;stroke-linejoin:miter;"/>
   </g>
   <g id="patch_17">
    <path clip-path="url(#pa658b44cb7)" d="M 182.519029 108 
L 187.395481 108 
L 187.395481 85.371429 
L 182.519029 85.371429 
z
" style="fill:#00008b;opacity:0.4;stroke:#000000;stroke-linejoin:miter;"/>
   </g>
   <g id="patch_18">
    <path clip-path="url(#pa658b44cb7)" d="M 187.395481 108 
L 192.271933 108 
L 192.271933 88.086857 
L 187.395481 88.086857 
z
" style="fill:#00008b;opacity:0.4;stroke:#000000;stroke-linejoin:miter;"/>
   </g>
   <g id="patch_19">
    <path clip-path="url(#pa658b44cb7)" d="M 192.271933 108 
L 197.148385 108 
L 197.148385 86.276571 
L 192.271933 86.276571 
z
" style="fill:#00008b;opacity:0.4;stroke:#000000;stroke-linejoin:miter;"/>
   </g>
   <g id="patch_20">
    <path clip-path="url(#pa658b44cb7)" d="M 197.148385 108 
L 202.024837 108 
L 202.024837 89.897143 
L 197.148385 89.897143 
z
" style="fill:#00008b;opacity:0.4;stroke:#000000;stroke-linejoin:miter;"/>
   </g>
   <g id="patch_21">
    <path clip-path="url(#pa658b44cb7)" d="M 202.024837 108 
L 206.901289 108 
L 206.901289 78.130286 
L 202.024837 78.130286 
z
" style="fill:#00008b;opacity:0.4;stroke:#000000;stroke-linejoin:miter;"/>
   </g>
   <g id="patch_22">
    <path clip-path="url(#pa658b44cb7)" d="M 206.901289 108 
L 211.777741 108 
L 211.777741 89.897143 
L 206.901289 89.897143 
z
" style="fill:#00008b;opacity:0.4;stroke:#000000;stroke-linejoin:miter;"/>
   </g>
   <g id="patch_23">
    <path clip-path="url(#pa658b44cb7)" d="M 211.777741 108 
L 216.654193 108 
L 216.654193 79.940571 
L 211.777741 79.940571 
z
" style="fill:#00008b;opacity:0.4;stroke:#000000;stroke-linejoin:miter;"/>
   </g>
   <g id="patch_24">
    <path clip-path="url(#pa658b44cb7)" d="M 216.654193 108 
L 221.530644 108 
L 221.530644 70.889143 
L 216.654193 70.889143 
z
" style="fill:#00008b;opacity:0.4;stroke:#000000;stroke-linejoin:miter;"/>
   </g>
   <g id="patch_25">
    <path clip-path="url(#pa658b44cb7)" d="M 221.530644 108 
L 226.407096 108 
L 226.407096 54.596571 
L 221.530644 54.596571 
z
" style="fill:#00008b;opacity:0.4;stroke:#000000;stroke-linejoin:miter;"/>
   </g>
   <g id="patch_26">
    <path clip-path="url(#pa658b44cb7)" d="M 226.407096 108 
L 231.283548 108 
L 231.283548 44.64 
L 226.407096 44.64 
z
" style="fill:#00008b;opacity:0.4;stroke:#000000;stroke-linejoin:miter;"/>
   </g>
   <g id="patch_27">
    <path clip-path="url(#pa658b44cb7)" d="M 231.283548 108 
L 236.16 108 
L 236.16 50.976 
L 231.283548 50.976 
z
" style="fill:#00008b;opacity:0.4;stroke:#000000;stroke-linejoin:miter;"/>
   </g>
   <g id="patch_28">
    <path clip-path="url(#pa658b44cb7)" d="M 236.16 108 
L 241.036452 108 
L 241.036452 82.656 
L 236.16 82.656 
z
" style="fill:#00008b;opacity:0.4;stroke:#000000;stroke-linejoin:miter;"/>
   </g>
   <g id="patch_29">
    <path clip-path="url(#pa658b44cb7)" d="M 241.036452 108 
L 245.912904 108 
L 245.912904 88.086857 
L 241.036452 88.086857 
z
" style="fill:#00008b;opacity:0.4;stroke:#000000;stroke-linejoin:miter;"/>
   </g>
   <g id="patch_30">
    <path clip-path="url(#pa658b44cb7)" d="M 245.912904 108 
L 250.789356 108 
L 250.789356 83.561143 
L 245.912904 83.561143 
z
" style="fill:#00008b;opacity:0.4;stroke:#000000;stroke-linejoin:miter;"/>
   </g>
   <g id="patch_31">
    <path clip-path="url(#pa658b44cb7)" d="M 250.789356 108 
L 255.665807 108 
L 255.665807 82.656 
L 250.789356 82.656 
z
" style="fill:#00008b;opacity:0.4;stroke:#000000;stroke-linejoin:miter;"/>
   </g>
   <g id="patch_32">
    <path clip-path="url(#pa658b44cb7)" d="M 255.665807 108 
L 260.542259 108 
L 260.542259 82.656 
L 255.665807 82.656 
z
" style="fill:#00008b;opacity:0.4;stroke:#000000;stroke-linejoin:miter;"/>
   </g>
   <g id="patch_33">
    <path clip-path="url(#pa658b44cb7)" d="M 260.542259 108 
L 265.418711 108 
L 265.418711 71.794286 
L 260.542259 71.794286 
z
" style="fill:#00008b;opacity:0.4;stroke:#000000;stroke-linejoin:miter;"/>
   </g>
   <g id="patch_34">
    <path clip-path="url(#pa658b44cb7)" d="M 265.418711 108 
L 270.295163 108 
L 270.295163 88.086857 
L 265.418711 88.086857 
z
" style="fill:#00008b;opacity:0.4;stroke:#000000;stroke-linejoin:miter;"/>
   </g>
   <g id="patch_35">
    <path clip-path="url(#pa658b44cb7)" d="M 270.295163 108 
L 275.171615 108 
L 275.171615 87.181714 
L 270.295163 87.181714 
z
" style="fill:#00008b;opacity:0.4;stroke:#000000;stroke-linejoin:miter;"/>
   </g>
   <g id="patch_36">
    <path clip-path="url(#pa658b44cb7)" d="M 275.171615 108 
L 280.048067 108 
L 280.048067 90.802286 
L 275.171615 90.802286 
z
" style="fill:#00008b;opacity:0.4;stroke:#000000;stroke-linejoin:miter;"/>
   </g>
   <g id="patch_37">
    <path clip-path="url(#pa658b44cb7)" d="M 280.048067 108 
L 284.924519 108 
L 284.924519 97.138286 
L 280.048067 97.138286 
z
" style="fill:#00008b;opacity:0.4;stroke:#000000;stroke-linejoin:miter;"/>
   </g>
   <g id="patch_38">
    <path clip-path="url(#pa658b44cb7)" d="M 284.924519 108 
L 289.800971 108 
L 289.800971 86.276571 
L 284.924519 86.276571 
z
" style="fill:#00008b;opacity:0.4;stroke:#000000;stroke-linejoin:miter;"/>
   </g>
   <g id="patch_39">
    <path clip-path="url(#pa658b44cb7)" d="M 289.800971 108 
L 294.677422 108 
L 294.677422 91.707429 
L 289.800971 91.707429 
z
" style="fill:#00008b;opacity:0.4;stroke:#000000;stroke-linejoin:miter;"/>
   </g>
   <g id="patch_40">
    <path clip-path="url(#pa658b44cb7)" d="M 294.677422 108 
L 299.553874 108 
L 299.553874 88.992 
L 294.677422 88.992 
z
" style="fill:#00008b;opacity:0.4;stroke:#000000;stroke-linejoin:miter;"/>
   </g>
   <g id="patch_41">
    <path clip-path="url(#pa658b44cb7)" d="M 299.553874 108 
L 304.430326 108 
L 304.430326 82.656 
L 299.553874 82.656 
z
" style="fill:#00008b;opacity:0.4;stroke:#000000;stroke-linejoin:miter;"/>
   </g>
   <g id="patch_42">
    <path clip-path="url(#pa658b44cb7)" d="M 304.430326 108 
L 309.306778 108 
L 309.306778 77.225143 
L 304.430326 77.225143 
z
" style="fill:#00008b;opacity:0.4;stroke:#000000;stroke-linejoin:miter;"/>
   </g>
   <g id="patch_43">
    <path clip-path="url(#pa658b44cb7)" d="M 309.306778 108 
L 314.18323 108 
L 314.18323 83.561143 
L 309.306778 83.561143 
z
" style="fill:#00008b;opacity:0.4;stroke:#000000;stroke-linejoin:miter;"/>
   </g>
   <g id="patch_44">
    <path clip-path="url(#pa658b44cb7)" d="M 314.18323 108 
L 319.059682 108 
L 319.059682 81.750857 
L 314.18323 81.750857 
z
" style="fill:#00008b;opacity:0.4;stroke:#000000;stroke-linejoin:miter;"/>
   </g>
   <g id="patch_45">
    <path clip-path="url(#pa658b44cb7)" d="M 319.059682 108 
L 323.936134 108 
L 323.936134 78.130286 
L 319.059682 78.130286 
z
" style="fill:#00008b;opacity:0.4;stroke:#000000;stroke-linejoin:miter;"/>
   </g>
   <g id="patch_46">
    <path clip-path="url(#pa658b44cb7)" d="M 323.936134 108 
L 328.812586 108 
L 328.812586 95.328 
L 323.936134 95.328 
z
" style="fill:#00008b;opacity:0.4;stroke:#000000;stroke-linejoin:miter;"/>
   </g>
   <g id="patch_47">
    <path clip-path="url(#pa658b44cb7)" d="M 328.812586 108 
L 333.689037 108 
L 333.689037 104.379429 
L 328.812586 104.379429 
z
" style="fill:#00008b;opacity:0.4;stroke:#000000;stroke-linejoin:miter;"/>
   </g>
   <g id="patch_48">
    <path clip-path="url(#pa658b44cb7)" d="M 333.689037 108 
L 338.565489 108 
L 338.565489 104.379429 
L 333.689037 104.379429 
z
" style="fill:#00008b;opacity:0.4;stroke:#000000;stroke-linejoin:miter;"/>
   </g>
   <g id="patch_49">
    <path clip-path="url(#pa658b44cb7)" d="M 338.565489 108 
L 343.441941 108 
L 343.441941 106.189714 
L 338.565489 106.189714 
z
" style="fill:#00008b;opacity:0.4;stroke:#000000;stroke-linejoin:miter;"/>
   </g>
   <g id="patch_50">
    <path clip-path="url(#pa658b44cb7)" d="M 343.441941 108 
L 348.318393 108 
L 348.318393 108 
L 343.441941 108 
z
" style="fill:#00008b;opacity:0.4;stroke:#000000;stroke-linejoin:miter;"/>
   </g>
   <g id="patch_51">
    <path clip-path="url(#pa658b44cb7)" d="M 348.318393 108 
L 353.194845 108 
L 353.194845 108 
L 348.318393 108 
z
" style="fill:#00008b;opacity:0.4;stroke:#000000;stroke-linejoin:miter;"/>
   </g>
   <g id="patch_52">
    <path clip-path="url(#pa658b44cb7)" d="M 353.194845 108 
L 358.071297 108 
L 358.071297 107.094857 
L 353.194845 107.094857 
z
" style="fill:#00008b;opacity:0.4;stroke:#000000;stroke-linejoin:miter;"/>
   </g>
   <g id="matplotlib.axis_1">
    <g id="xtick_1">
     <g id="line2d_1">
      <defs>
       <path d="M 0 0 
L 0 3.5 
" id="m2cb95f0183" style="stroke:#000000;stroke-width:0.8;"/>
      </defs>
      <g>
       <use style="stroke:#000000;stroke-width:0.8;" x="94.681139" xlink:href="#m2cb95f0183" y="108"/>
      </g>
     </g>
     <g id="text_1">
      <!-- −1.0 -->
      <defs>
       <path d="M 10.59375 35.5 
L 73.1875 35.5 
L 73.1875 27.203125 
L 10.59375 27.203125 
z
" id="DejaVuSans-8722"/>
       <path d="M 12.40625 8.296875 
L 28.515625 8.296875 
L 28.515625 63.921875 
L 10.984375 60.40625 
L 10.984375 69.390625 
L 28.421875 72.90625 
L 38.28125 72.90625 
L 38.28125 8.296875 
L 54.390625 8.296875 
L 54.390625 0 
L 12.40625 0 
z
" id="DejaVuSans-49"/>
       <path d="M 10.6875 12.40625 
L 21 12.40625 
L 21 0 
L 10.6875 0 
z
" id="DejaVuSans-46"/>
       <path d="M 31.78125 66.40625 
Q 24.171875 66.40625 20.328125 58.90625 
Q 16.5 51.421875 16.5 36.375 
Q 16.5 21.390625 20.328125 13.890625 
Q 24.171875 6.390625 31.78125 6.390625 
Q 39.453125 6.390625 43.28125 13.890625 
Q 47.125 21.390625 47.125 36.375 
Q 47.125 51.421875 43.28125 58.90625 
Q 39.453125 66.40625 31.78125 66.40625 
z
M 31.78125 74.21875 
Q 44.046875 74.21875 50.515625 64.515625 
Q 56.984375 54.828125 56.984375 36.375 
Q 56.984375 17.96875 50.515625 8.265625 
Q 44.046875 -1.421875 31.78125 -1.421875 
Q 19.53125 -1.421875 13.0625 8.265625 
Q 6.59375 17.96875 6.59375 36.375 
Q 6.59375 54.828125 13.0625 64.515625 
Q 19.53125 74.21875 31.78125 74.21875 
z
" id="DejaVuSans-48"/>
      </defs>
      <g transform="translate(82.539733 122.598437)scale(0.1 -0.1)">
       <use xlink:href="#DejaVuSans-8722"/>
       <use x="83.789062" xlink:href="#DejaVuSans-49"/>
       <use x="147.412109" xlink:href="#DejaVuSans-46"/>
       <use x="179.199219" xlink:href="#DejaVuSans-48"/>
      </g>
     </g>
    </g>
    <g id="xtick_2">
     <g id="line2d_2">
      <g>
       <use style="stroke:#000000;stroke-width:0.8;" x="161.866586" xlink:href="#m2cb95f0183" y="108"/>
      </g>
     </g>
     <g id="text_2">
      <!-- −0.5 -->
      <defs>
       <path d="M 10.796875 72.90625 
L 49.515625 72.90625 
L 49.515625 64.59375 
L 19.828125 64.59375 
L 19.828125 46.734375 
Q 21.96875 47.46875 24.109375 47.828125 
Q 26.265625 48.1875 28.421875 48.1875 
Q 40.625 48.1875 47.75 41.5 
Q 54.890625 34.8125 54.890625 23.390625 
Q 54.890625 11.625 47.5625 5.09375 
Q 40.234375 -1.421875 26.90625 -1.421875 
Q 22.3125 -1.421875 17.546875 -0.640625 
Q 12.796875 0.140625 7.71875 1.703125 
L 7.71875 11.625 
Q 12.109375 9.234375 16.796875 8.0625 
Q 21.484375 6.890625 26.703125 6.890625 
Q 35.15625 6.890625 40.078125 11.328125 
Q 45.015625 15.765625 45.015625 23.390625 
Q 45.015625 31 40.078125 35.4375 
Q 35.15625 39.890625 26.703125 39.890625 
Q 22.75 39.890625 18.8125 39.015625 
Q 14.890625 38.140625 10.796875 36.28125 
z
" id="DejaVuSans-53"/>
      </defs>
      <g transform="translate(149.72518 122.598437)scale(0.1 -0.1)">
       <use xlink:href="#DejaVuSans-8722"/>
       <use x="83.789062" xlink:href="#DejaVuSans-48"/>
       <use x="147.412109" xlink:href="#DejaVuSans-46"/>
       <use x="179.199219" xlink:href="#DejaVuSans-53"/>
      </g>
     </g>
    </g>
    <g id="xtick_3">
     <g id="line2d_3">
      <g>
       <use style="stroke:#000000;stroke-width:0.8;" x="229.052033" xlink:href="#m2cb95f0183" y="108"/>
      </g>
     </g>
     <g id="text_3">
      <!-- 0.0 -->
      <g transform="translate(221.100471 122.598437)scale(0.1 -0.1)">
       <use xlink:href="#DejaVuSans-48"/>
       <use x="63.623047" xlink:href="#DejaVuSans-46"/>
       <use x="95.410156" xlink:href="#DejaVuSans-48"/>
      </g>
     </g>
    </g>
    <g id="xtick_4">
     <g id="line2d_4">
      <g>
       <use style="stroke:#000000;stroke-width:0.8;" x="296.23748" xlink:href="#m2cb95f0183" y="108"/>
      </g>
     </g>
     <g id="text_4">
      <!-- 0.5 -->
      <g transform="translate(288.285918 122.598437)scale(0.1 -0.1)">
       <use xlink:href="#DejaVuSans-48"/>
       <use x="63.623047" xlink:href="#DejaVuSans-46"/>
       <use x="95.410156" xlink:href="#DejaVuSans-53"/>
      </g>
     </g>
    </g>
    <g id="xtick_5">
     <g id="line2d_5">
      <g>
       <use style="stroke:#000000;stroke-width:0.8;" x="363.422927" xlink:href="#m2cb95f0183" y="108"/>
      </g>
     </g>
     <g id="text_5">
      <!-- 1.0 -->
      <g transform="translate(355.471365 122.598437)scale(0.1 -0.1)">
       <use xlink:href="#DejaVuSans-49"/>
       <use x="63.623047" xlink:href="#DejaVuSans-46"/>
       <use x="95.410156" xlink:href="#DejaVuSans-48"/>
      </g>
     </g>
    </g>
   </g>
   <g id="matplotlib.axis_2">
    <g id="ytick_1">
     <g id="line2d_6">
      <defs>
       <path d="M 0 0 
L -3.5 0 
" id="m5e6fbd1e30" style="stroke:#000000;stroke-width:0.8;"/>
      </defs>
      <g>
       <use style="stroke:#000000;stroke-width:0.8;" x="57.6" xlink:href="#m5e6fbd1e30" y="108"/>
      </g>
     </g>
     <g id="text_6">
      <!-- 0 -->
      <g transform="translate(44.2375 111.799219)scale(0.1 -0.1)">
       <use xlink:href="#DejaVuSans-48"/>
      </g>
     </g>
    </g>
    <g id="ytick_2">
     <g id="line2d_7">
      <g>
       <use style="stroke:#000000;stroke-width:0.8;" x="57.6" xlink:href="#m5e6fbd1e30" y="69.337287"/>
      </g>
     </g>
     <g id="text_7">
      <!-- 1 -->
      <g transform="translate(44.2375 73.136506)scale(0.1 -0.1)">
       <use xlink:href="#DejaVuSans-49"/>
      </g>
     </g>
    </g>
    <g id="text_8">
     <!-- Density -->
     <defs>
      <path d="M 19.671875 64.796875 
L 19.671875 8.109375 
L 31.59375 8.109375 
Q 46.6875 8.109375 53.6875 14.9375 
Q 60.6875 21.78125 60.6875 36.53125 
Q 60.6875 51.171875 53.6875 57.984375 
Q 46.6875 64.796875 31.59375 64.796875 
z
M 9.8125 72.90625 
L 30.078125 72.90625 
Q 51.265625 72.90625 61.171875 64.09375 
Q 71.09375 55.28125 71.09375 36.53125 
Q 71.09375 17.671875 61.125 8.828125 
Q 51.171875 0 30.078125 0 
L 9.8125 0 
z
" id="DejaVuSans-68"/>
      <path d="M 56.203125 29.59375 
L 56.203125 25.203125 
L 14.890625 25.203125 
Q 15.484375 15.921875 20.484375 11.0625 
Q 25.484375 6.203125 34.421875 6.203125 
Q 39.59375 6.203125 44.453125 7.46875 
Q 49.3125 8.734375 54.109375 11.28125 
L 54.109375 2.78125 
Q 49.265625 0.734375 44.1875 -0.34375 
Q 39.109375 -1.421875 33.890625 -1.421875 
Q 20.796875 -1.421875 13.15625 6.1875 
Q 5.515625 13.8125 5.515625 26.8125 
Q 5.515625 40.234375 12.765625 48.109375 
Q 20.015625 56 32.328125 56 
Q 43.359375 56 49.78125 48.890625 
Q 56.203125 41.796875 56.203125 29.59375 
z
M 47.21875 32.234375 
Q 47.125 39.59375 43.09375 43.984375 
Q 39.0625 48.390625 32.421875 48.390625 
Q 24.90625 48.390625 20.390625 44.140625 
Q 15.875 39.890625 15.1875 32.171875 
z
" id="DejaVuSans-101"/>
      <path d="M 54.890625 33.015625 
L 54.890625 0 
L 45.90625 0 
L 45.90625 32.71875 
Q 45.90625 40.484375 42.875 44.328125 
Q 39.84375 48.1875 33.796875 48.1875 
Q 26.515625 48.1875 22.3125 43.546875 
Q 18.109375 38.921875 18.109375 30.90625 
L 18.109375 0 
L 9.078125 0 
L 9.078125 54.6875 
L 18.109375 54.6875 
L 18.109375 46.1875 
Q 21.34375 51.125 25.703125 53.5625 
Q 30.078125 56 35.796875 56 
Q 45.21875 56 50.046875 50.171875 
Q 54.890625 44.34375 54.890625 33.015625 
z
" id="DejaVuSans-110"/>
      <path d="M 44.28125 53.078125 
L 44.28125 44.578125 
Q 40.484375 46.53125 36.375 47.5 
Q 32.28125 48.484375 27.875 48.484375 
Q 21.1875 48.484375 17.84375 46.4375 
Q 14.5 44.390625 14.5 40.28125 
Q 14.5 37.15625 16.890625 35.375 
Q 19.28125 33.59375 26.515625 31.984375 
L 29.59375 31.296875 
Q 39.15625 29.25 43.1875 25.515625 
Q 47.21875 21.78125 47.21875 15.09375 
Q 47.21875 7.46875 41.1875 3.015625 
Q 35.15625 -1.421875 24.609375 -1.421875 
Q 20.21875 -1.421875 15.453125 -0.5625 
Q 10.6875 0.296875 5.421875 2 
L 5.421875 11.28125 
Q 10.40625 8.6875 15.234375 7.390625 
Q 20.0625 6.109375 24.8125 6.109375 
Q 31.15625 6.109375 34.5625 8.28125 
Q 37.984375 10.453125 37.984375 14.40625 
Q 37.984375 18.0625 35.515625 20.015625 
Q 33.0625 21.96875 24.703125 23.78125 
L 21.578125 24.515625 
Q 13.234375 26.265625 9.515625 29.90625 
Q 5.8125 33.546875 5.8125 39.890625 
Q 5.8125 47.609375 11.28125 51.796875 
Q 16.75 56 26.8125 56 
Q 31.78125 56 36.171875 55.265625 
Q 40.578125 54.546875 44.28125 53.078125 
z
" id="DejaVuSans-115"/>
      <path d="M 9.421875 54.6875 
L 18.40625 54.6875 
L 18.40625 0 
L 9.421875 0 
z
M 9.421875 75.984375 
L 18.40625 75.984375 
L 18.40625 64.59375 
L 9.421875 64.59375 
z
" id="DejaVuSans-105"/>
      <path d="M 18.3125 70.21875 
L 18.3125 54.6875 
L 36.8125 54.6875 
L 36.8125 47.703125 
L 18.3125 47.703125 
L 18.3125 18.015625 
Q 18.3125 11.328125 20.140625 9.421875 
Q 21.96875 7.515625 27.59375 7.515625 
L 36.8125 7.515625 
L 36.8125 0 
L 27.59375 0 
Q 17.1875 0 13.234375 3.875 
Q 9.28125 7.765625 9.28125 18.015625 
L 9.28125 47.703125 
L 2.6875 47.703125 
L 2.6875 54.6875 
L 9.28125 54.6875 
L 9.28125 70.21875 
z
" id="DejaVuSans-116"/>
      <path d="M 32.171875 -5.078125 
Q 28.375 -14.84375 24.75 -17.8125 
Q 21.140625 -20.796875 15.09375 -20.796875 
L 7.90625 -20.796875 
L 7.90625 -13.28125 
L 13.1875 -13.28125 
Q 16.890625 -13.28125 18.9375 -11.515625 
Q 21 -9.765625 23.484375 -3.21875 
L 25.09375 0.875 
L 2.984375 54.6875 
L 12.5 54.6875 
L 29.59375 11.921875 
L 46.6875 54.6875 
L 56.203125 54.6875 
z
" id="DejaVuSans-121"/>
     </defs>
     <g transform="translate(38.157812 93.744594)rotate(-90)scale(0.1 -0.1)">
      <use xlink:href="#DejaVuSans-68"/>
      <use x="77.001953" xlink:href="#DejaVuSans-101"/>
      <use x="138.525391" xlink:href="#DejaVuSans-110"/>
      <use x="201.904297" xlink:href="#DejaVuSans-115"/>
      <use x="254.003906" xlink:href="#DejaVuSans-105"/>
      <use x="281.787109" xlink:href="#DejaVuSans-116"/>
      <use x="320.996094" xlink:href="#DejaVuSans-121"/>
     </g>
    </g>
   </g>
   <g id="line2d_8">
    <path clip-path="url(#pa658b44cb7)" d="M 73.832727 107.994109 
L 77.112066 107.987276 
L 80.391405 107.97385 
L 83.670744 107.948789 
L 86.950083 107.904258 
L 90.229421 107.828769 
L 93.50876 107.706373 
L 96.788099 107.516045 
L 100.067438 107.231406 
L 103.346777 106.820991 
L 106.626116 106.249349 
L 109.905455 105.479443 
L 113.184793 104.476846 
L 116.464132 103.216004 
L 119.743471 101.68819 
L 123.02281 99.909673 
L 126.302149 97.927624 
L 129.581488 95.820864 
L 132.860826 93.693377 
L 136.140165 91.660568 
L 139.419504 89.830989 
L 142.698843 88.288345 
L 145.978182 87.079058 
L 149.257521 86.208937 
L 152.53686 85.649266 
L 155.816198 85.349303 
L 159.095537 85.250285 
L 162.374876 85.296328 
L 165.654215 85.43972 
L 168.933554 85.640837 
L 172.212893 85.864876 
L 175.492231 86.078073 
L 178.77157 86.245167 
L 182.050909 86.328415 
L 185.330248 86.287315 
L 188.609587 86.078137 
L 191.888926 85.653197 
L 195.168264 84.961216 
L 198.447603 83.951161 
L 201.726942 82.581885 
L 205.006281 80.838167 
L 208.28562 78.750626 
L 211.564959 76.413442 
L 214.844298 73.991568 
L 218.123636 71.709959 
L 221.402975 69.821917 
L 224.682314 68.561123 
L 227.961653 68.089412 
L 231.240992 68.456363 
L 234.520331 69.584919 
L 237.799669 71.289354 
L 241.079008 73.320951 
L 244.358347 75.427217 
L 247.637686 77.406227 
L 250.917025 79.140457 
L 254.196364 80.602527 
L 257.475702 81.835188 
L 260.755041 82.915704 
L 264.03438 83.918017 
L 267.313719 84.884396 
L 270.593058 85.813183 
L 273.872397 86.663032 
L 277.151736 87.369133 
L 280.431074 87.864516 
L 283.710413 88.099944 
L 286.989752 88.058092 
L 290.269091 87.760451 
L 293.54843 87.26745 
L 296.827769 86.673228 
L 300.107107 86.096381 
L 303.386446 85.667634 
L 306.665785 85.515078 
L 309.945124 85.747962 
L 313.224463 86.440741 
L 316.503802 87.619964 
L 319.78314 89.257084 
L 323.062479 91.269761 
L 326.341818 93.532697 
L 329.621157 95.896552 
L 332.900496 98.211067 
L 336.179835 100.347092 
L 339.459174 102.212539 
L 342.738512 103.759264 
L 346.017851 104.980723 
L 349.29719 105.902719 
L 352.576529 106.570907 
L 355.855868 107.038597 
L 359.135207 107.357263 
L 362.414545 107.570766 
L 365.693884 107.713035 
L 368.973223 107.808301 
L 372.252562 107.87277 
L 375.531901 107.916787 
L 378.81124 107.946842 
L 382.090579 107.967105 
L 385.369917 107.980418 
L 388.649256 107.988847 
L 391.928595 107.993947 
L 395.207934 107.996879 
L 398.487273 107.998475 
" style="fill:none;stroke:#00008b;stroke-linecap:square;stroke-width:4;"/>
   </g>
   <g id="patch_53">
    <path d="M 57.6 108 
L 57.6 41.472 
" style="fill:none;stroke:#000000;stroke-linecap:square;stroke-linejoin:miter;stroke-width:0.8;"/>
   </g>
   <g id="patch_54">
    <path d="M 414.72 108 
L 414.72 41.472 
" style="fill:none;stroke:#000000;stroke-linecap:square;stroke-linejoin:miter;stroke-width:0.8;"/>
   </g>
   <g id="patch_55">
    <path d="M 57.6 108 
L 414.72 108 
" style="fill:none;stroke:#000000;stroke-linecap:square;stroke-linejoin:miter;stroke-width:0.8;"/>
   </g>
   <g id="patch_56">
    <path d="M 57.6 41.472 
L 414.72 41.472 
" style="fill:none;stroke:#000000;stroke-linecap:square;stroke-linejoin:miter;stroke-width:0.8;"/>
   </g>
   <g id="legend_1">
    <g id="patch_57">
     <path d="M 369.80125 64.150125 
L 407.72 64.150125 
Q 409.72 64.150125 409.72 62.150125 
L 409.72 48.472 
Q 409.72 46.472 407.72 46.472 
L 369.80125 46.472 
Q 367.80125 46.472 367.80125 48.472 
L 367.80125 62.150125 
Q 367.80125 64.150125 369.80125 64.150125 
z
" style="fill:#ffffff;opacity:0.8;stroke:#cccccc;stroke-linejoin:miter;"/>
    </g>
    <g id="patch_58">
     <path d="M 371.80125 58.070438 
L 391.80125 58.070438 
L 391.80125 51.070438 
L 371.80125 51.070438 
z
" style="fill:#00008b;opacity:0.4;stroke:#000000;stroke-linejoin:miter;"/>
    </g>
    <g id="text_9">
     <!-- x -->
     <defs>
      <path d="M 54.890625 54.6875 
L 35.109375 28.078125 
L 55.90625 0 
L 45.3125 0 
L 29.390625 21.484375 
L 13.484375 0 
L 2.875 0 
L 24.125 28.609375 
L 4.6875 54.6875 
L 15.28125 54.6875 
L 29.78125 35.203125 
L 44.28125 54.6875 
z
" id="DejaVuSans-120"/>
     </defs>
     <g transform="translate(399.80125 58.070438)scale(0.1 -0.1)">
      <use xlink:href="#DejaVuSans-120"/>
     </g>
    </g>
   </g>
  </g>
  <g id="axes_2">
   <g id="patch_59">
    <path d="M 57.6 207.792 
L 414.72 207.792 
L 414.72 141.264 
L 57.6 141.264 
z
" style="fill:#ffffff;"/>
   </g>
   <g id="patch_60">
    <path clip-path="url(#pf17af6b8c0)" d="M 114.341145 207.792 
L 119.2139 207.792 
L 119.2139 206.573538 
L 114.341145 206.573538 
z
" style="fill:#006400;opacity:0.4;stroke:#000000;stroke-linejoin:miter;"/>
   </g>
   <g id="patch_61">
    <path clip-path="url(#pf17af6b8c0)" d="M 119.2139 207.792 
L 124.086654 207.792 
L 124.086654 206.573538 
L 119.2139 206.573538 
z
" style="fill:#006400;opacity:0.4;stroke:#000000;stroke-linejoin:miter;"/>
   </g>
   <g id="patch_62">
    <path clip-path="url(#pf17af6b8c0)" d="M 124.086654 207.792 
L 128.959408 207.792 
L 128.959408 206.573538 
L 124.086654 206.573538 
z
" style="fill:#006400;opacity:0.4;stroke:#000000;stroke-linejoin:miter;"/>
   </g>
   <g id="patch_63">
    <path clip-path="url(#pf17af6b8c0)" d="M 128.959408 207.792 
L 133.832162 207.792 
L 133.832162 195.607385 
L 128.959408 195.607385 
z
" style="fill:#006400;opacity:0.4;stroke:#000000;stroke-linejoin:miter;"/>
   </g>
   <g id="patch_64">
    <path clip-path="url(#pf17af6b8c0)" d="M 133.832162 207.792 
L 138.704916 207.792 
L 138.704916 184.641231 
L 133.832162 184.641231 
z
" style="fill:#006400;opacity:0.4;stroke:#000000;stroke-linejoin:miter;"/>
   </g>
   <g id="patch_65">
    <path clip-path="url(#pf17af6b8c0)" d="M 138.704916 207.792 
L 143.577671 207.792 
L 143.577671 191.952 
L 138.704916 191.952 
z
" style="fill:#006400;opacity:0.4;stroke:#000000;stroke-linejoin:miter;"/>
   </g>
   <g id="patch_66">
    <path clip-path="url(#pf17af6b8c0)" d="M 143.577671 207.792 
L 148.450425 207.792 
L 148.450425 188.296615 
L 143.577671 188.296615 
z
" style="fill:#006400;opacity:0.4;stroke:#000000;stroke-linejoin:miter;"/>
   </g>
   <g id="patch_67">
    <path clip-path="url(#pf17af6b8c0)" d="M 148.450425 207.792 
L 153.323179 207.792 
L 153.323179 172.456615 
L 148.450425 172.456615 
z
" style="fill:#006400;opacity:0.4;stroke:#000000;stroke-linejoin:miter;"/>
   </g>
   <g id="patch_68">
    <path clip-path="url(#pf17af6b8c0)" d="M 153.323179 207.792 
L 158.195933 207.792 
L 158.195933 176.112 
L 153.323179 176.112 
z
" style="fill:#006400;opacity:0.4;stroke:#000000;stroke-linejoin:miter;"/>
   </g>
   <g id="patch_69">
    <path clip-path="url(#pf17af6b8c0)" d="M 158.195933 207.792 
L 163.068687 207.792 
L 163.068687 170.019692 
L 158.195933 170.019692 
z
" style="fill:#006400;opacity:0.4;stroke:#000000;stroke-linejoin:miter;"/>
   </g>
   <g id="patch_70">
    <path clip-path="url(#pf17af6b8c0)" d="M 163.068687 207.792 
L 167.941441 207.792 
L 167.941441 183.422769 
L 163.068687 183.422769 
z
" style="fill:#006400;opacity:0.4;stroke:#000000;stroke-linejoin:miter;"/>
   </g>
   <g id="patch_71">
    <path clip-path="url(#pf17af6b8c0)" d="M 167.941441 207.792 
L 172.814196 207.792 
L 172.814196 172.456615 
L 167.941441 172.456615 
z
" style="fill:#006400;opacity:0.4;stroke:#000000;stroke-linejoin:miter;"/>
   </g>
   <g id="patch_72">
    <path clip-path="url(#pf17af6b8c0)" d="M 172.814196 207.792 
L 177.68695 207.792 
L 177.68695 178.548923 
L 172.814196 178.548923 
z
" style="fill:#006400;opacity:0.4;stroke:#000000;stroke-linejoin:miter;"/>
   </g>
   <g id="patch_73">
    <path clip-path="url(#pf17af6b8c0)" d="M 177.68695 207.792 
L 182.559704 207.792 
L 182.559704 178.548923 
L 177.68695 178.548923 
z
" style="fill:#006400;opacity:0.4;stroke:#000000;stroke-linejoin:miter;"/>
   </g>
   <g id="patch_74">
    <path clip-path="url(#pf17af6b8c0)" d="M 182.559704 207.792 
L 187.432458 207.792 
L 187.432458 171.238154 
L 182.559704 171.238154 
z
" style="fill:#006400;opacity:0.4;stroke:#000000;stroke-linejoin:miter;"/>
   </g>
   <g id="patch_75">
    <path clip-path="url(#pf17af6b8c0)" d="M 187.432458 207.792 
L 192.305212 207.792 
L 192.305212 179.767385 
L 187.432458 179.767385 
z
" style="fill:#006400;opacity:0.4;stroke:#000000;stroke-linejoin:miter;"/>
   </g>
   <g id="patch_76">
    <path clip-path="url(#pf17af6b8c0)" d="M 192.305212 207.792 
L 197.177967 207.792 
L 197.177967 171.238154 
L 192.305212 171.238154 
z
" style="fill:#006400;opacity:0.4;stroke:#000000;stroke-linejoin:miter;"/>
   </g>
   <g id="patch_77">
    <path clip-path="url(#pf17af6b8c0)" d="M 197.177967 207.792 
L 202.050721 207.792 
L 202.050721 155.398154 
L 197.177967 155.398154 
z
" style="fill:#006400;opacity:0.4;stroke:#000000;stroke-linejoin:miter;"/>
   </g>
   <g id="patch_78">
    <path clip-path="url(#pf17af6b8c0)" d="M 202.050721 207.792 
L 206.923475 207.792 
L 206.923475 165.145846 
L 202.050721 165.145846 
z
" style="fill:#006400;opacity:0.4;stroke:#000000;stroke-linejoin:miter;"/>
   </g>
   <g id="patch_79">
    <path clip-path="url(#pf17af6b8c0)" d="M 206.923475 207.792 
L 211.796229 207.792 
L 211.796229 162.708923 
L 206.923475 162.708923 
z
" style="fill:#006400;opacity:0.4;stroke:#000000;stroke-linejoin:miter;"/>
   </g>
   <g id="patch_80">
    <path clip-path="url(#pf17af6b8c0)" d="M 211.796229 207.792 
L 216.668983 207.792 
L 216.668983 178.548923 
L 211.796229 178.548923 
z
" style="fill:#006400;opacity:0.4;stroke:#000000;stroke-linejoin:miter;"/>
   </g>
   <g id="patch_81">
    <path clip-path="url(#pf17af6b8c0)" d="M 216.668983 207.792 
L 221.541737 207.792 
L 221.541737 178.548923 
L 216.668983 178.548923 
z
" style="fill:#006400;opacity:0.4;stroke:#000000;stroke-linejoin:miter;"/>
   </g>
   <g id="patch_82">
    <path clip-path="url(#pf17af6b8c0)" d="M 221.541737 207.792 
L 226.414492 207.792 
L 226.414492 176.112 
L 221.541737 176.112 
z
" style="fill:#006400;opacity:0.4;stroke:#000000;stroke-linejoin:miter;"/>
   </g>
   <g id="patch_83">
    <path clip-path="url(#pf17af6b8c0)" d="M 226.414492 207.792 
L 231.287246 207.792 
L 231.287246 172.456615 
L 226.414492 172.456615 
z
" style="fill:#006400;opacity:0.4;stroke:#000000;stroke-linejoin:miter;"/>
   </g>
   <g id="patch_84">
    <path clip-path="url(#pf17af6b8c0)" d="M 231.287246 207.792 
L 236.16 207.792 
L 236.16 144.432 
L 231.287246 144.432 
z
" style="fill:#006400;opacity:0.4;stroke:#000000;stroke-linejoin:miter;"/>
   </g>
   <g id="patch_85">
    <path clip-path="url(#pf17af6b8c0)" d="M 236.16 207.792 
L 241.032754 207.792 
L 241.032754 151.742769 
L 236.16 151.742769 
z
" style="fill:#006400;opacity:0.4;stroke:#000000;stroke-linejoin:miter;"/>
   </g>
   <g id="patch_86">
    <path clip-path="url(#pf17af6b8c0)" d="M 241.032754 207.792 
L 245.905508 207.792 
L 245.905508 166.364308 
L 241.032754 166.364308 
z
" style="fill:#006400;opacity:0.4;stroke:#000000;stroke-linejoin:miter;"/>
   </g>
   <g id="patch_87">
    <path clip-path="url(#pf17af6b8c0)" d="M 245.905508 207.792 
L 250.778263 207.792 
L 250.778263 183.422769 
L 245.905508 183.422769 
z
" style="fill:#006400;opacity:0.4;stroke:#000000;stroke-linejoin:miter;"/>
   </g>
   <g id="patch_88">
    <path clip-path="url(#pf17af6b8c0)" d="M 250.778263 207.792 
L 255.651017 207.792 
L 255.651017 170.019692 
L 250.778263 170.019692 
z
" style="fill:#006400;opacity:0.4;stroke:#000000;stroke-linejoin:miter;"/>
   </g>
   <g id="patch_89">
    <path clip-path="url(#pf17af6b8c0)" d="M 255.651017 207.792 
L 260.523771 207.792 
L 260.523771 182.204308 
L 255.651017 182.204308 
z
" style="fill:#006400;opacity:0.4;stroke:#000000;stroke-linejoin:miter;"/>
   </g>
   <g id="patch_90">
    <path clip-path="url(#pf17af6b8c0)" d="M 260.523771 207.792 
L 265.396525 207.792 
L 265.396525 170.019692 
L 260.523771 170.019692 
z
" style="fill:#006400;opacity:0.4;stroke:#000000;stroke-linejoin:miter;"/>
   </g>
   <g id="patch_91">
    <path clip-path="url(#pf17af6b8c0)" d="M 265.396525 207.792 
L 270.269279 207.792 
L 270.269279 155.398154 
L 265.396525 155.398154 
z
" style="fill:#006400;opacity:0.4;stroke:#000000;stroke-linejoin:miter;"/>
   </g>
   <g id="patch_92">
    <path clip-path="url(#pf17af6b8c0)" d="M 270.269279 207.792 
L 275.142033 207.792 
L 275.142033 159.053538 
L 270.269279 159.053538 
z
" style="fill:#006400;opacity:0.4;stroke:#000000;stroke-linejoin:miter;"/>
   </g>
   <g id="patch_93">
    <path clip-path="url(#pf17af6b8c0)" d="M 275.142033 207.792 
L 280.014788 207.792 
L 280.014788 172.456615 
L 275.142033 172.456615 
z
" style="fill:#006400;opacity:0.4;stroke:#000000;stroke-linejoin:miter;"/>
   </g>
   <g id="patch_94">
    <path clip-path="url(#pf17af6b8c0)" d="M 280.014788 207.792 
L 284.887542 207.792 
L 284.887542 180.985846 
L 280.014788 180.985846 
z
" style="fill:#006400;opacity:0.4;stroke:#000000;stroke-linejoin:miter;"/>
   </g>
   <g id="patch_95">
    <path clip-path="url(#pf17af6b8c0)" d="M 284.887542 207.792 
L 289.760296 207.792 
L 289.760296 182.204308 
L 284.887542 182.204308 
z
" style="fill:#006400;opacity:0.4;stroke:#000000;stroke-linejoin:miter;"/>
   </g>
   <g id="patch_96">
    <path clip-path="url(#pf17af6b8c0)" d="M 289.760296 207.792 
L 294.63305 207.792 
L 294.63305 168.801231 
L 289.760296 168.801231 
z
" style="fill:#006400;opacity:0.4;stroke:#000000;stroke-linejoin:miter;"/>
   </g>
   <g id="patch_97">
    <path clip-path="url(#pf17af6b8c0)" d="M 294.63305 207.792 
L 299.505804 207.792 
L 299.505804 174.893538 
L 294.63305 174.893538 
z
" style="fill:#006400;opacity:0.4;stroke:#000000;stroke-linejoin:miter;"/>
   </g>
   <g id="patch_98">
    <path clip-path="url(#pf17af6b8c0)" d="M 299.505804 207.792 
L 304.378559 207.792 
L 304.378559 179.767385 
L 299.505804 179.767385 
z
" style="fill:#006400;opacity:0.4;stroke:#000000;stroke-linejoin:miter;"/>
   </g>
   <g id="patch_99">
    <path clip-path="url(#pf17af6b8c0)" d="M 304.378559 207.792 
L 309.251313 207.792 
L 309.251313 162.708923 
L 304.378559 162.708923 
z
" style="fill:#006400;opacity:0.4;stroke:#000000;stroke-linejoin:miter;"/>
   </g>
   <g id="patch_100">
    <path clip-path="url(#pf17af6b8c0)" d="M 309.251313 207.792 
L 314.124067 207.792 
L 314.124067 182.204308 
L 309.251313 182.204308 
z
" style="fill:#006400;opacity:0.4;stroke:#000000;stroke-linejoin:miter;"/>
   </g>
   <g id="patch_101">
    <path clip-path="url(#pf17af6b8c0)" d="M 314.124067 207.792 
L 318.996821 207.792 
L 318.996821 177.330462 
L 314.124067 177.330462 
z
" style="fill:#006400;opacity:0.4;stroke:#000000;stroke-linejoin:miter;"/>
   </g>
   <g id="patch_102">
    <path clip-path="url(#pf17af6b8c0)" d="M 318.996821 207.792 
L 323.869575 207.792 
L 323.869575 193.170462 
L 318.996821 193.170462 
z
" style="fill:#006400;opacity:0.4;stroke:#000000;stroke-linejoin:miter;"/>
   </g>
   <g id="patch_103">
    <path clip-path="url(#pf17af6b8c0)" d="M 323.869575 207.792 
L 328.742329 207.792 
L 328.742329 188.296615 
L 323.869575 188.296615 
z
" style="fill:#006400;opacity:0.4;stroke:#000000;stroke-linejoin:miter;"/>
   </g>
   <g id="patch_104">
    <path clip-path="url(#pf17af6b8c0)" d="M 328.742329 207.792 
L 333.615084 207.792 
L 333.615084 183.422769 
L 328.742329 183.422769 
z
" style="fill:#006400;opacity:0.4;stroke:#000000;stroke-linejoin:miter;"/>
   </g>
   <g id="patch_105">
    <path clip-path="url(#pf17af6b8c0)" d="M 333.615084 207.792 
L 338.487838 207.792 
L 338.487838 185.859692 
L 333.615084 185.859692 
z
" style="fill:#006400;opacity:0.4;stroke:#000000;stroke-linejoin:miter;"/>
   </g>
   <g id="patch_106">
    <path clip-path="url(#pf17af6b8c0)" d="M 338.487838 207.792 
L 343.360592 207.792 
L 343.360592 200.481231 
L 338.487838 200.481231 
z
" style="fill:#006400;opacity:0.4;stroke:#000000;stroke-linejoin:miter;"/>
   </g>
   <g id="patch_107">
    <path clip-path="url(#pf17af6b8c0)" d="M 343.360592 207.792 
L 348.233346 207.792 
L 348.233346 202.918154 
L 343.360592 202.918154 
z
" style="fill:#006400;opacity:0.4;stroke:#000000;stroke-linejoin:miter;"/>
   </g>
   <g id="patch_108">
    <path clip-path="url(#pf17af6b8c0)" d="M 348.233346 207.792 
L 353.1061 207.792 
L 353.1061 207.792 
L 348.233346 207.792 
z
" style="fill:#006400;opacity:0.4;stroke:#000000;stroke-linejoin:miter;"/>
   </g>
   <g id="patch_109">
    <path clip-path="url(#pf17af6b8c0)" d="M 353.1061 207.792 
L 357.978855 207.792 
L 357.978855 206.573538 
L 353.1061 206.573538 
z
" style="fill:#006400;opacity:0.4;stroke:#000000;stroke-linejoin:miter;"/>
   </g>
   <g id="matplotlib.axis_3">
    <g id="xtick_6">
     <g id="line2d_9">
      <g>
       <use style="stroke:#000000;stroke-width:0.8;" x="89.00229" xlink:href="#m2cb95f0183" y="207.792"/>
      </g>
     </g>
     <g id="text_10">
      <!-- −1.0 -->
      <g transform="translate(76.860884 222.390437)scale(0.1 -0.1)">
       <use xlink:href="#DejaVuSans-8722"/>
       <use x="83.789062" xlink:href="#DejaVuSans-49"/>
       <use x="147.412109" xlink:href="#DejaVuSans-46"/>
       <use x="179.199219" xlink:href="#DejaVuSans-48"/>
      </g>
     </g>
    </g>
    <g id="xtick_7">
     <g id="line2d_10">
      <g>
       <use style="stroke:#000000;stroke-width:0.8;" x="162.123848" xlink:href="#m2cb95f0183" y="207.792"/>
      </g>
     </g>
     <g id="text_11">
      <!-- −0.5 -->
      <g transform="translate(149.982442 222.390437)scale(0.1 -0.1)">
       <use xlink:href="#DejaVuSans-8722"/>
       <use x="83.789062" xlink:href="#DejaVuSans-48"/>
       <use x="147.412109" xlink:href="#DejaVuSans-46"/>
       <use x="179.199219" xlink:href="#DejaVuSans-53"/>
      </g>
     </g>
    </g>
    <g id="xtick_8">
     <g id="line2d_11">
      <g>
       <use style="stroke:#000000;stroke-width:0.8;" x="235.245406" xlink:href="#m2cb95f0183" y="207.792"/>
      </g>
     </g>
     <g id="text_12">
      <!-- 0.0 -->
      <g transform="translate(227.293844 222.390437)scale(0.1 -0.1)">
       <use xlink:href="#DejaVuSans-48"/>
       <use x="63.623047" xlink:href="#DejaVuSans-46"/>
       <use x="95.410156" xlink:href="#DejaVuSans-48"/>
      </g>
     </g>
    </g>
    <g id="xtick_9">
     <g id="line2d_12">
      <g>
       <use style="stroke:#000000;stroke-width:0.8;" x="308.366964" xlink:href="#m2cb95f0183" y="207.792"/>
      </g>
     </g>
     <g id="text_13">
      <!-- 0.5 -->
      <g transform="translate(300.415402 222.390437)scale(0.1 -0.1)">
       <use xlink:href="#DejaVuSans-48"/>
       <use x="63.623047" xlink:href="#DejaVuSans-46"/>
       <use x="95.410156" xlink:href="#DejaVuSans-53"/>
      </g>
     </g>
    </g>
    <g id="xtick_10">
     <g id="line2d_13">
      <g>
       <use style="stroke:#000000;stroke-width:0.8;" x="381.488523" xlink:href="#m2cb95f0183" y="207.792"/>
      </g>
     </g>
     <g id="text_14">
      <!-- 1.0 -->
      <g transform="translate(373.53696 222.390437)scale(0.1 -0.1)">
       <use xlink:href="#DejaVuSans-49"/>
       <use x="63.623047" xlink:href="#DejaVuSans-46"/>
       <use x="95.410156" xlink:href="#DejaVuSans-48"/>
      </g>
     </g>
    </g>
   </g>
   <g id="matplotlib.axis_4">
    <g id="ytick_3">
     <g id="line2d_14">
      <g>
       <use style="stroke:#000000;stroke-width:0.8;" x="57.6" xlink:href="#m5e6fbd1e30" y="207.792"/>
      </g>
     </g>
     <g id="text_15">
      <!-- 0.0 -->
      <g transform="translate(34.696875 211.591219)scale(0.1 -0.1)">
       <use xlink:href="#DejaVuSans-48"/>
       <use x="63.623047" xlink:href="#DejaVuSans-46"/>
       <use x="95.410156" xlink:href="#DejaVuSans-48"/>
      </g>
     </g>
    </g>
    <g id="ytick_4">
     <g id="line2d_15">
      <g>
       <use style="stroke:#000000;stroke-width:0.8;" x="57.6" xlink:href="#m5e6fbd1e30" y="183.899733"/>
      </g>
     </g>
     <g id="text_16">
      <!-- 0.5 -->
      <g transform="translate(34.696875 187.698952)scale(0.1 -0.1)">
       <use xlink:href="#DejaVuSans-48"/>
       <use x="63.623047" xlink:href="#DejaVuSans-46"/>
       <use x="95.410156" xlink:href="#DejaVuSans-53"/>
      </g>
     </g>
    </g>
    <g id="ytick_5">
     <g id="line2d_16">
      <g>
       <use style="stroke:#000000;stroke-width:0.8;" x="57.6" xlink:href="#m5e6fbd1e30" y="160.007466"/>
      </g>
     </g>
     <g id="text_17">
      <!-- 1.0 -->
      <g transform="translate(34.696875 163.806684)scale(0.1 -0.1)">
       <use xlink:href="#DejaVuSans-49"/>
       <use x="63.623047" xlink:href="#DejaVuSans-46"/>
       <use x="95.410156" xlink:href="#DejaVuSans-48"/>
      </g>
     </g>
    </g>
    <g id="text_18">
     <!-- Density -->
     <g transform="translate(28.617187 193.536594)rotate(-90)scale(0.1 -0.1)">
      <use xlink:href="#DejaVuSans-68"/>
      <use x="77.001953" xlink:href="#DejaVuSans-101"/>
      <use x="138.525391" xlink:href="#DejaVuSans-110"/>
      <use x="201.904297" xlink:href="#DejaVuSans-115"/>
      <use x="254.003906" xlink:href="#DejaVuSans-105"/>
      <use x="281.787109" xlink:href="#DejaVuSans-116"/>
      <use x="320.996094" xlink:href="#DejaVuSans-121"/>
     </g>
    </g>
   </g>
   <g id="line2d_17">
    <path clip-path="url(#pf17af6b8c0)" d="M 73.832727 207.789336 
L 77.112066 207.786257 
L 80.391405 207.780141 
L 83.670744 207.768478 
L 86.950083 207.747057 
L 90.229421 207.709059 
L 93.50876 207.643843 
L 96.788099 207.535458 
L 100.067438 207.361114 
L 103.346777 207.09005 
L 106.626116 206.683521 
L 109.905455 206.096682 
L 113.184793 205.282927 
L 116.464132 204.200553 
L 119.743471 202.820748 
L 123.02281 201.135093 
L 126.302149 199.160543 
L 129.581488 196.940456 
L 132.860826 194.541412 
L 136.140165 192.046758 
L 139.419504 189.548477 
L 142.698843 187.138736 
L 145.978182 184.901811 
L 149.257521 182.906516 
L 152.53686 181.199294 
L 155.816198 179.798729 
L 159.095537 178.692766 
L 162.374876 177.839911 
L 165.654215 177.174939 
L 168.933554 176.618456 
L 172.212893 176.088754 
L 175.492231 175.514118 
L 178.77157 174.843989 
L 182.050909 174.057695 
L 185.330248 173.16945 
L 188.609587 172.227961 
L 191.888926 171.308879 
L 195.168264 170.499269 
L 198.447603 169.875619 
L 201.726942 169.480083 
L 205.006281 169.302378 
L 208.28562 169.275147 
L 211.564959 169.287653 
L 214.844298 169.216724 
L 218.123636 168.966803 
L 221.402975 168.505832 
L 224.682314 167.883143 
L 227.961653 167.22061 
L 231.240992 166.677661 
L 234.520331 166.400859 
L 237.799669 166.475438 
L 241.079008 166.896269 
L 244.358347 167.568921 
L 247.637686 168.34045 
L 250.917025 169.048677 
L 254.196364 169.57244 
L 257.475702 169.865703 
L 260.755041 169.965022 
L 264.03438 169.96974 
L 267.313719 170.0037 
L 270.593058 170.172878 
L 273.872397 170.533556 
L 277.151736 171.080731 
L 280.431074 171.758619 
L 283.710413 172.487333 
L 286.989752 173.194961 
L 290.269091 173.843707 
L 293.54843 174.442133 
L 296.827769 175.041078 
L 300.107107 175.716303 
L 303.386446 176.544642 
L 306.665785 177.581731 
L 309.945124 178.848147 
L 313.224463 180.327741 
L 316.503802 181.977754 
L 319.78314 183.746221 
L 323.062479 185.589586 
L 326.341818 187.483505 
L 329.621157 189.422792 
L 332.900496 191.411205 
L 336.179835 193.446246 
L 339.459174 195.506188 
L 342.738512 197.545257 
L 346.017851 199.498964 
L 349.29719 201.297157 
L 352.576529 202.879408 
L 355.855868 204.207135 
L 359.135207 205.268931 
L 362.414545 206.078671 
L 365.693884 206.668476 
L 368.973223 207.079723 
L 372.252562 207.35494 
L 375.531901 207.532199 
L 378.81124 207.642342 
L 382.090579 207.708487 
L 385.369917 207.746907 
L 388.649256 207.768485 
L 391.928595 207.780185 
L 395.207934 207.786295 
L 398.487273 207.789361 
" style="fill:none;stroke:#006400;stroke-linecap:square;stroke-width:4;"/>
   </g>
   <g id="patch_110">
    <path d="M 57.6 207.792 
L 57.6 141.264 
" style="fill:none;stroke:#000000;stroke-linecap:square;stroke-linejoin:miter;stroke-width:0.8;"/>
   </g>
   <g id="patch_111">
    <path d="M 414.72 207.792 
L 414.72 141.264 
" style="fill:none;stroke:#000000;stroke-linecap:square;stroke-linejoin:miter;stroke-width:0.8;"/>
   </g>
   <g id="patch_112">
    <path d="M 57.6 207.792 
L 414.72 207.792 
" style="fill:none;stroke:#000000;stroke-linecap:square;stroke-linejoin:miter;stroke-width:0.8;"/>
   </g>
   <g id="patch_113">
    <path d="M 57.6 141.264 
L 414.72 141.264 
" style="fill:none;stroke:#000000;stroke-linecap:square;stroke-linejoin:miter;stroke-width:0.8;"/>
   </g>
   <g id="legend_2">
    <g id="patch_114">
     <path d="M 369.80125 163.942125 
L 407.72 163.942125 
Q 409.72 163.942125 409.72 161.942125 
L 409.72 148.264 
Q 409.72 146.264 407.72 146.264 
L 369.80125 146.264 
Q 367.80125 146.264 367.80125 148.264 
L 367.80125 161.942125 
Q 367.80125 163.942125 369.80125 163.942125 
z
" style="fill:#ffffff;opacity:0.8;stroke:#cccccc;stroke-linejoin:miter;"/>
    </g>
    <g id="patch_115">
     <path d="M 371.80125 157.862437 
L 391.80125 157.862437 
L 391.80125 150.862437 
L 371.80125 150.862437 
z
" style="fill:#006400;opacity:0.4;stroke:#000000;stroke-linejoin:miter;"/>
    </g>
    <g id="text_19">
     <!-- y -->
     <g transform="translate(399.80125 157.862437)scale(0.1 -0.1)">
      <use xlink:href="#DejaVuSans-121"/>
     </g>
    </g>
   </g>
  </g>
  <g id="axes_3">
   <g id="patch_116">
    <path d="M 57.6 307.584 
L 414.72 307.584 
L 414.72 241.056 
L 57.6 241.056 
z
" style="fill:#ffffff;"/>
   </g>
   <g id="patch_117">
    <path clip-path="url(#p4d0876f801)" d="M 116.748425 307.584 
L 121.524888 307.584 
L 121.524888 296.064 
L 116.748425 296.064 
z
" style="fill:#8b0000;opacity:0.4;stroke:#000000;stroke-linejoin:miter;"/>
   </g>
   <g id="patch_118">
    <path clip-path="url(#p4d0876f801)" d="M 121.524888 307.584 
L 126.301351 307.584 
L 126.301351 292.608 
L 121.524888 292.608 
z
" style="fill:#8b0000;opacity:0.4;stroke:#000000;stroke-linejoin:miter;"/>
   </g>
   <g id="patch_119">
    <path clip-path="url(#p4d0876f801)" d="M 126.301351 307.584 
L 131.077814 307.584 
L 131.077814 297.216 
L 126.301351 297.216 
z
" style="fill:#8b0000;opacity:0.4;stroke:#000000;stroke-linejoin:miter;"/>
   </g>
   <g id="patch_120">
    <path clip-path="url(#p4d0876f801)" d="M 131.077814 307.584 
L 135.854277 307.584 
L 135.854277 270.72 
L 131.077814 270.72 
z
" style="fill:#8b0000;opacity:0.4;stroke:#000000;stroke-linejoin:miter;"/>
   </g>
   <g id="patch_121">
    <path clip-path="url(#p4d0876f801)" d="M 135.854277 307.584 
L 140.63074 307.584 
L 140.63074 271.872 
L 135.854277 271.872 
z
" style="fill:#8b0000;opacity:0.4;stroke:#000000;stroke-linejoin:miter;"/>
   </g>
   <g id="patch_122">
    <path clip-path="url(#p4d0876f801)" d="M 140.63074 307.584 
L 145.407203 307.584 
L 145.407203 290.304 
L 140.63074 290.304 
z
" style="fill:#8b0000;opacity:0.4;stroke:#000000;stroke-linejoin:miter;"/>
   </g>
   <g id="patch_123">
    <path clip-path="url(#p4d0876f801)" d="M 145.407203 307.584 
L 150.183666 307.584 
L 150.183666 286.848 
L 145.407203 286.848 
z
" style="fill:#8b0000;opacity:0.4;stroke:#000000;stroke-linejoin:miter;"/>
   </g>
   <g id="patch_124">
    <path clip-path="url(#p4d0876f801)" d="M 150.183666 307.584 
L 154.960129 307.584 
L 154.960129 284.544 
L 150.183666 284.544 
z
" style="fill:#8b0000;opacity:0.4;stroke:#000000;stroke-linejoin:miter;"/>
   </g>
   <g id="patch_125">
    <path clip-path="url(#p4d0876f801)" d="M 154.960129 307.584 
L 159.736592 307.584 
L 159.736592 283.392 
L 154.960129 283.392 
z
" style="fill:#8b0000;opacity:0.4;stroke:#000000;stroke-linejoin:miter;"/>
   </g>
   <g id="patch_126">
    <path clip-path="url(#p4d0876f801)" d="M 159.736592 307.584 
L 164.513055 307.584 
L 164.513055 279.936 
L 159.736592 279.936 
z
" style="fill:#8b0000;opacity:0.4;stroke:#000000;stroke-linejoin:miter;"/>
   </g>
   <g id="patch_127">
    <path clip-path="url(#p4d0876f801)" d="M 164.513055 307.584 
L 169.289518 307.584 
L 169.289518 275.328 
L 164.513055 275.328 
z
" style="fill:#8b0000;opacity:0.4;stroke:#000000;stroke-linejoin:miter;"/>
   </g>
   <g id="patch_128">
    <path clip-path="url(#p4d0876f801)" d="M 169.289518 307.584 
L 174.065981 307.584 
L 174.065981 286.848 
L 169.289518 286.848 
z
" style="fill:#8b0000;opacity:0.4;stroke:#000000;stroke-linejoin:miter;"/>
   </g>
   <g id="patch_129">
    <path clip-path="url(#p4d0876f801)" d="M 174.065981 307.584 
L 178.842444 307.584 
L 178.842444 296.064 
L 174.065981 296.064 
z
" style="fill:#8b0000;opacity:0.4;stroke:#000000;stroke-linejoin:miter;"/>
   </g>
   <g id="patch_130">
    <path clip-path="url(#p4d0876f801)" d="M 178.842444 307.584 
L 183.618907 307.584 
L 183.618907 284.544 
L 178.842444 284.544 
z
" style="fill:#8b0000;opacity:0.4;stroke:#000000;stroke-linejoin:miter;"/>
   </g>
   <g id="patch_131">
    <path clip-path="url(#p4d0876f801)" d="M 183.618907 307.584 
L 188.39537 307.584 
L 188.39537 294.912 
L 183.618907 294.912 
z
" style="fill:#8b0000;opacity:0.4;stroke:#000000;stroke-linejoin:miter;"/>
   </g>
   <g id="patch_132">
    <path clip-path="url(#p4d0876f801)" d="M 188.39537 307.584 
L 193.171833 307.584 
L 193.171833 291.456 
L 188.39537 291.456 
z
" style="fill:#8b0000;opacity:0.4;stroke:#000000;stroke-linejoin:miter;"/>
   </g>
   <g id="patch_133">
    <path clip-path="url(#p4d0876f801)" d="M 193.171833 307.584 
L 197.948296 307.584 
L 197.948296 268.416 
L 193.171833 268.416 
z
" style="fill:#8b0000;opacity:0.4;stroke:#000000;stroke-linejoin:miter;"/>
   </g>
   <g id="patch_134">
    <path clip-path="url(#p4d0876f801)" d="M 197.948296 307.584 
L 202.724759 307.584 
L 202.724759 273.024 
L 197.948296 273.024 
z
" style="fill:#8b0000;opacity:0.4;stroke:#000000;stroke-linejoin:miter;"/>
   </g>
   <g id="patch_135">
    <path clip-path="url(#p4d0876f801)" d="M 202.724759 307.584 
L 207.501222 307.584 
L 207.501222 260.352 
L 202.724759 260.352 
z
" style="fill:#8b0000;opacity:0.4;stroke:#000000;stroke-linejoin:miter;"/>
   </g>
   <g id="patch_136">
    <path clip-path="url(#p4d0876f801)" d="M 207.501222 307.584 
L 212.277685 307.584 
L 212.277685 249.984 
L 207.501222 249.984 
z
" style="fill:#8b0000;opacity:0.4;stroke:#000000;stroke-linejoin:miter;"/>
   </g>
   <g id="patch_137">
    <path clip-path="url(#p4d0876f801)" d="M 212.277685 307.584 
L 217.054148 307.584 
L 217.054148 279.936 
L 212.277685 279.936 
z
" style="fill:#8b0000;opacity:0.4;stroke:#000000;stroke-linejoin:miter;"/>
   </g>
   <g id="patch_138">
    <path clip-path="url(#p4d0876f801)" d="M 217.054148 307.584 
L 221.830611 307.584 
L 221.830611 267.264 
L 217.054148 267.264 
z
" style="fill:#8b0000;opacity:0.4;stroke:#000000;stroke-linejoin:miter;"/>
   </g>
   <g id="patch_139">
    <path clip-path="url(#p4d0876f801)" d="M 221.830611 307.584 
L 226.607074 307.584 
L 226.607074 261.504 
L 221.830611 261.504 
z
" style="fill:#8b0000;opacity:0.4;stroke:#000000;stroke-linejoin:miter;"/>
   </g>
   <g id="patch_140">
    <path clip-path="url(#p4d0876f801)" d="M 226.607074 307.584 
L 231.383537 307.584 
L 231.383537 261.504 
L 226.607074 261.504 
z
" style="fill:#8b0000;opacity:0.4;stroke:#000000;stroke-linejoin:miter;"/>
   </g>
   <g id="patch_141">
    <path clip-path="url(#p4d0876f801)" d="M 231.383537 307.584 
L 236.16 307.584 
L 236.16 244.224 
L 231.383537 244.224 
z
" style="fill:#8b0000;opacity:0.4;stroke:#000000;stroke-linejoin:miter;"/>
   </g>
   <g id="patch_142">
    <path clip-path="url(#p4d0876f801)" d="M 236.16 307.584 
L 240.936463 307.584 
L 240.936463 262.656 
L 236.16 262.656 
z
" style="fill:#8b0000;opacity:0.4;stroke:#000000;stroke-linejoin:miter;"/>
   </g>
   <g id="patch_143">
    <path clip-path="url(#p4d0876f801)" d="M 240.936463 307.584 
L 245.712926 307.584 
L 245.712926 273.024 
L 240.936463 273.024 
z
" style="fill:#8b0000;opacity:0.4;stroke:#000000;stroke-linejoin:miter;"/>
   </g>
   <g id="patch_144">
    <path clip-path="url(#p4d0876f801)" d="M 245.712926 307.584 
L 250.489389 307.584 
L 250.489389 276.48 
L 245.712926 276.48 
z
" style="fill:#8b0000;opacity:0.4;stroke:#000000;stroke-linejoin:miter;"/>
   </g>
   <g id="patch_145">
    <path clip-path="url(#p4d0876f801)" d="M 250.489389 307.584 
L 255.265852 307.584 
L 255.265852 259.2 
L 250.489389 259.2 
z
" style="fill:#8b0000;opacity:0.4;stroke:#000000;stroke-linejoin:miter;"/>
   </g>
   <g id="patch_146">
    <path clip-path="url(#p4d0876f801)" d="M 255.265852 307.584 
L 260.042315 307.584 
L 260.042315 270.72 
L 255.265852 270.72 
z
" style="fill:#8b0000;opacity:0.4;stroke:#000000;stroke-linejoin:miter;"/>
   </g>
   <g id="patch_147">
    <path clip-path="url(#p4d0876f801)" d="M 260.042315 307.584 
L 264.818778 307.584 
L 264.818778 276.48 
L 260.042315 276.48 
z
" style="fill:#8b0000;opacity:0.4;stroke:#000000;stroke-linejoin:miter;"/>
   </g>
   <g id="patch_148">
    <path clip-path="url(#p4d0876f801)" d="M 264.818778 307.584 
L 269.595241 307.584 
L 269.595241 279.936 
L 264.818778 279.936 
z
" style="fill:#8b0000;opacity:0.4;stroke:#000000;stroke-linejoin:miter;"/>
   </g>
   <g id="patch_149">
    <path clip-path="url(#p4d0876f801)" d="M 269.595241 307.584 
L 274.371704 307.584 
L 274.371704 288 
L 269.595241 288 
z
" style="fill:#8b0000;opacity:0.4;stroke:#000000;stroke-linejoin:miter;"/>
   </g>
   <g id="patch_150">
    <path clip-path="url(#p4d0876f801)" d="M 274.371704 307.584 
L 279.148167 307.584 
L 279.148167 284.544 
L 274.371704 284.544 
z
" style="fill:#8b0000;opacity:0.4;stroke:#000000;stroke-linejoin:miter;"/>
   </g>
   <g id="patch_151">
    <path clip-path="url(#p4d0876f801)" d="M 279.148167 307.584 
L 283.92463 307.584 
L 283.92463 299.52 
L 279.148167 299.52 
z
" style="fill:#8b0000;opacity:0.4;stroke:#000000;stroke-linejoin:miter;"/>
   </g>
   <g id="patch_152">
    <path clip-path="url(#p4d0876f801)" d="M 283.92463 307.584 
L 288.701093 307.584 
L 288.701093 291.456 
L 283.92463 291.456 
z
" style="fill:#8b0000;opacity:0.4;stroke:#000000;stroke-linejoin:miter;"/>
   </g>
   <g id="patch_153">
    <path clip-path="url(#p4d0876f801)" d="M 288.701093 307.584 
L 293.477556 307.584 
L 293.477556 284.544 
L 288.701093 284.544 
z
" style="fill:#8b0000;opacity:0.4;stroke:#000000;stroke-linejoin:miter;"/>
   </g>
   <g id="patch_154">
    <path clip-path="url(#p4d0876f801)" d="M 293.477556 307.584 
L 298.254019 307.584 
L 298.254019 278.784 
L 293.477556 278.784 
z
" style="fill:#8b0000;opacity:0.4;stroke:#000000;stroke-linejoin:miter;"/>
   </g>
   <g id="patch_155">
    <path clip-path="url(#p4d0876f801)" d="M 298.254019 307.584 
L 303.030482 307.584 
L 303.030482 291.456 
L 298.254019 291.456 
z
" style="fill:#8b0000;opacity:0.4;stroke:#000000;stroke-linejoin:miter;"/>
   </g>
   <g id="patch_156">
    <path clip-path="url(#p4d0876f801)" d="M 303.030482 307.584 
L 307.806945 307.584 
L 307.806945 267.264 
L 303.030482 267.264 
z
" style="fill:#8b0000;opacity:0.4;stroke:#000000;stroke-linejoin:miter;"/>
   </g>
   <g id="patch_157">
    <path clip-path="url(#p4d0876f801)" d="M 307.806945 307.584 
L 312.583408 307.584 
L 312.583408 276.48 
L 307.806945 276.48 
z
" style="fill:#8b0000;opacity:0.4;stroke:#000000;stroke-linejoin:miter;"/>
   </g>
   <g id="patch_158">
    <path clip-path="url(#p4d0876f801)" d="M 312.583408 307.584 
L 317.359871 307.584 
L 317.359871 274.176 
L 312.583408 274.176 
z
" style="fill:#8b0000;opacity:0.4;stroke:#000000;stroke-linejoin:miter;"/>
   </g>
   <g id="patch_159">
    <path clip-path="url(#p4d0876f801)" d="M 317.359871 307.584 
L 322.136334 307.584 
L 322.136334 279.936 
L 317.359871 279.936 
z
" style="fill:#8b0000;opacity:0.4;stroke:#000000;stroke-linejoin:miter;"/>
   </g>
   <g id="patch_160">
    <path clip-path="url(#p4d0876f801)" d="M 322.136334 307.584 
L 326.912797 307.584 
L 326.912797 286.848 
L 322.136334 286.848 
z
" style="fill:#8b0000;opacity:0.4;stroke:#000000;stroke-linejoin:miter;"/>
   </g>
   <g id="patch_161">
    <path clip-path="url(#p4d0876f801)" d="M 326.912797 307.584 
L 331.68926 307.584 
L 331.68926 279.936 
L 326.912797 279.936 
z
" style="fill:#8b0000;opacity:0.4;stroke:#000000;stroke-linejoin:miter;"/>
   </g>
   <g id="patch_162">
    <path clip-path="url(#p4d0876f801)" d="M 331.68926 307.584 
L 336.465723 307.584 
L 336.465723 292.608 
L 331.68926 292.608 
z
" style="fill:#8b0000;opacity:0.4;stroke:#000000;stroke-linejoin:miter;"/>
   </g>
   <g id="patch_163">
    <path clip-path="url(#p4d0876f801)" d="M 336.465723 307.584 
L 341.242186 307.584 
L 341.242186 297.216 
L 336.465723 297.216 
z
" style="fill:#8b0000;opacity:0.4;stroke:#000000;stroke-linejoin:miter;"/>
   </g>
   <g id="patch_164">
    <path clip-path="url(#p4d0876f801)" d="M 341.242186 307.584 
L 346.018649 307.584 
L 346.018649 296.064 
L 341.242186 296.064 
z
" style="fill:#8b0000;opacity:0.4;stroke:#000000;stroke-linejoin:miter;"/>
   </g>
   <g id="patch_165">
    <path clip-path="url(#p4d0876f801)" d="M 346.018649 307.584 
L 350.795112 307.584 
L 350.795112 301.824 
L 346.018649 301.824 
z
" style="fill:#8b0000;opacity:0.4;stroke:#000000;stroke-linejoin:miter;"/>
   </g>
   <g id="patch_166">
    <path clip-path="url(#p4d0876f801)" d="M 350.795112 307.584 
L 355.571575 307.584 
L 355.571575 305.28 
L 350.795112 305.28 
z
" style="fill:#8b0000;opacity:0.4;stroke:#000000;stroke-linejoin:miter;"/>
   </g>
   <g id="matplotlib.axis_5">
    <g id="xtick_11">
     <g id="line2d_18">
      <g>
       <use style="stroke:#000000;stroke-width:0.8;" x="90.50141" xlink:href="#m2cb95f0183" y="307.584"/>
      </g>
     </g>
     <g id="text_20">
      <!-- −1.0 -->
      <g transform="translate(78.360003 322.182437)scale(0.1 -0.1)">
       <use xlink:href="#DejaVuSans-8722"/>
       <use x="83.789062" xlink:href="#DejaVuSans-49"/>
       <use x="147.412109" xlink:href="#DejaVuSans-46"/>
       <use x="179.199219" xlink:href="#DejaVuSans-48"/>
      </g>
     </g>
    </g>
    <g id="xtick_12">
     <g id="line2d_19">
      <g>
       <use style="stroke:#000000;stroke-width:0.8;" x="161.193504" xlink:href="#m2cb95f0183" y="307.584"/>
      </g>
     </g>
     <g id="text_21">
      <!-- −0.5 -->
      <g transform="translate(149.052098 322.182437)scale(0.1 -0.1)">
       <use xlink:href="#DejaVuSans-8722"/>
       <use x="83.789062" xlink:href="#DejaVuSans-48"/>
       <use x="147.412109" xlink:href="#DejaVuSans-46"/>
       <use x="179.199219" xlink:href="#DejaVuSans-53"/>
      </g>
     </g>
    </g>
    <g id="xtick_13">
     <g id="line2d_20">
      <g>
       <use style="stroke:#000000;stroke-width:0.8;" x="231.885598" xlink:href="#m2cb95f0183" y="307.584"/>
      </g>
     </g>
     <g id="text_22">
      <!-- 0.0 -->
      <g transform="translate(223.934036 322.182437)scale(0.1 -0.1)">
       <use xlink:href="#DejaVuSans-48"/>
       <use x="63.623047" xlink:href="#DejaVuSans-46"/>
       <use x="95.410156" xlink:href="#DejaVuSans-48"/>
      </g>
     </g>
    </g>
    <g id="xtick_14">
     <g id="line2d_21">
      <g>
       <use style="stroke:#000000;stroke-width:0.8;" x="302.577692" xlink:href="#m2cb95f0183" y="307.584"/>
      </g>
     </g>
     <g id="text_23">
      <!-- 0.5 -->
      <g transform="translate(294.62613 322.182437)scale(0.1 -0.1)">
       <use xlink:href="#DejaVuSans-48"/>
       <use x="63.623047" xlink:href="#DejaVuSans-46"/>
       <use x="95.410156" xlink:href="#DejaVuSans-53"/>
      </g>
     </g>
    </g>
    <g id="xtick_15">
     <g id="line2d_22">
      <g>
       <use style="stroke:#000000;stroke-width:0.8;" x="373.269787" xlink:href="#m2cb95f0183" y="307.584"/>
      </g>
     </g>
     <g id="text_24">
      <!-- 1.0 -->
      <g transform="translate(365.318224 322.182437)scale(0.1 -0.1)">
       <use xlink:href="#DejaVuSans-49"/>
       <use x="63.623047" xlink:href="#DejaVuSans-46"/>
       <use x="95.410156" xlink:href="#DejaVuSans-48"/>
      </g>
     </g>
    </g>
    <g id="text_25">
     <!-- Position -->
     <defs>
      <path d="M 19.671875 64.796875 
L 19.671875 37.40625 
L 32.078125 37.40625 
Q 38.96875 37.40625 42.71875 40.96875 
Q 46.484375 44.53125 46.484375 51.125 
Q 46.484375 57.671875 42.71875 61.234375 
Q 38.96875 64.796875 32.078125 64.796875 
z
M 9.8125 72.90625 
L 32.078125 72.90625 
Q 44.34375 72.90625 50.609375 67.359375 
Q 56.890625 61.8125 56.890625 51.125 
Q 56.890625 40.328125 50.609375 34.8125 
Q 44.34375 29.296875 32.078125 29.296875 
L 19.671875 29.296875 
L 19.671875 0 
L 9.8125 0 
z
" id="DejaVuSans-80"/>
      <path d="M 30.609375 48.390625 
Q 23.390625 48.390625 19.1875 42.75 
Q 14.984375 37.109375 14.984375 27.296875 
Q 14.984375 17.484375 19.15625 11.84375 
Q 23.34375 6.203125 30.609375 6.203125 
Q 37.796875 6.203125 41.984375 11.859375 
Q 46.1875 17.53125 46.1875 27.296875 
Q 46.1875 37.015625 41.984375 42.703125 
Q 37.796875 48.390625 30.609375 48.390625 
z
M 30.609375 56 
Q 42.328125 56 49.015625 48.375 
Q 55.71875 40.765625 55.71875 27.296875 
Q 55.71875 13.875 49.015625 6.21875 
Q 42.328125 -1.421875 30.609375 -1.421875 
Q 18.84375 -1.421875 12.171875 6.21875 
Q 5.515625 13.875 5.515625 27.296875 
Q 5.515625 40.765625 12.171875 48.375 
Q 18.84375 56 30.609375 56 
z
" id="DejaVuSans-111"/>
     </defs>
     <g transform="translate(216.517031 335.860562)scale(0.1 -0.1)">
      <use xlink:href="#DejaVuSans-80"/>
      <use x="60.255859" xlink:href="#DejaVuSans-111"/>
      <use x="121.4375" xlink:href="#DejaVuSans-115"/>
      <use x="173.537109" xlink:href="#DejaVuSans-105"/>
      <use x="201.320312" xlink:href="#DejaVuSans-116"/>
      <use x="240.529297" xlink:href="#DejaVuSans-105"/>
      <use x="268.3125" xlink:href="#DejaVuSans-111"/>
      <use x="329.494141" xlink:href="#DejaVuSans-110"/>
     </g>
    </g>
   </g>
   <g id="matplotlib.axis_6">
    <g id="ytick_6">
     <g id="line2d_23">
      <g>
       <use style="stroke:#000000;stroke-width:0.8;" x="57.6" xlink:href="#m5e6fbd1e30" y="307.584"/>
      </g>
     </g>
     <g id="text_26">
      <!-- 0.0 -->
      <g transform="translate(34.696875 311.383219)scale(0.1 -0.1)">
       <use xlink:href="#DejaVuSans-48"/>
       <use x="63.623047" xlink:href="#DejaVuSans-46"/>
       <use x="95.410156" xlink:href="#DejaVuSans-48"/>
      </g>
     </g>
    </g>
    <g id="ytick_7">
     <g id="line2d_24">
      <g>
       <use style="stroke:#000000;stroke-width:0.8;" x="57.6" xlink:href="#m5e6fbd1e30" y="284.680359"/>
      </g>
     </g>
     <g id="text_27">
      <!-- 0.5 -->
      <g transform="translate(34.696875 288.479578)scale(0.1 -0.1)">
       <use xlink:href="#DejaVuSans-48"/>
       <use x="63.623047" xlink:href="#DejaVuSans-46"/>
       <use x="95.410156" xlink:href="#DejaVuSans-53"/>
      </g>
     </g>
    </g>
    <g id="ytick_8">
     <g id="line2d_25">
      <g>
       <use style="stroke:#000000;stroke-width:0.8;" x="57.6" xlink:href="#m5e6fbd1e30" y="261.776719"/>
      </g>
     </g>
     <g id="text_28">
      <!-- 1.0 -->
      <g transform="translate(34.696875 265.575938)scale(0.1 -0.1)">
       <use xlink:href="#DejaVuSans-49"/>
       <use x="63.623047" xlink:href="#DejaVuSans-46"/>
       <use x="95.410156" xlink:href="#DejaVuSans-48"/>
      </g>
     </g>
    </g>
    <g id="text_29">
     <!-- Density -->
     <g transform="translate(28.617187 293.328594)rotate(-90)scale(0.1 -0.1)">
      <use xlink:href="#DejaVuSans-68"/>
      <use x="77.001953" xlink:href="#DejaVuSans-101"/>
      <use x="138.525391" xlink:href="#DejaVuSans-110"/>
      <use x="201.904297" xlink:href="#DejaVuSans-115"/>
      <use x="254.003906" xlink:href="#DejaVuSans-105"/>
      <use x="281.787109" xlink:href="#DejaVuSans-116"/>
      <use x="320.996094" xlink:href="#DejaVuSans-121"/>
     </g>
    </g>
   </g>
   <g id="line2d_26">
    <path clip-path="url(#p4d0876f801)" d="M 73.832727 307.56534 
L 77.112066 307.5453 
L 80.391405 307.507368 
L 83.670744 307.438996 
L 86.950083 307.321556 
L 90.229421 307.129192 
L 93.50876 306.828489 
L 96.788099 306.37955 
L 100.067438 305.738963 
L 103.346777 304.864858 
L 106.626116 303.723798 
L 109.905455 302.298647 
L 113.184793 300.596009 
L 116.464132 298.651409 
L 119.743471 296.530351 
L 123.02281 294.32389 
L 126.302149 292.138507 
L 129.581488 290.081703 
L 132.860826 288.246369 
L 136.140165 286.697918 
L 139.419504 285.467767 
L 142.698843 284.5549 
L 145.978182 283.934429 
L 149.257521 283.569531 
L 152.53686 283.4219 
L 155.816198 283.456685 
L 159.095537 283.640334 
L 162.374876 283.932918 
L 165.654215 284.278952 
L 168.933554 284.601564 
L 172.212893 284.803823 
L 175.492231 284.778593 
L 178.77157 284.425387 
L 182.050909 283.670192 
L 185.330248 282.482941 
L 188.609587 280.887539 
L 191.888926 278.961006 
L 195.168264 276.82113 
L 198.447603 274.605269 
L 201.726942 272.445671 
L 205.006281 270.448014 
L 208.28562 268.679086 
L 211.564959 267.166658 
L 214.844298 265.91047 
L 218.123636 264.899382 
L 221.402975 264.127683 
L 224.682314 263.604336 
L 227.961653 263.352264 
L 231.240992 263.399234 
L 234.520331 263.765387 
L 237.799669 264.453474 
L 241.079008 265.44588 
L 244.358347 266.708873 
L 247.637686 268.200905 
L 250.917025 269.880191 
L 254.196364 271.707626 
L 257.475702 273.643904 
L 260.755041 275.642761 
L 264.03438 277.644179 
L 267.313719 279.571503 
L 270.593058 281.334783 
L 273.872397 282.84037 
L 277.151736 284.004621 
L 280.431074 284.768347 
L 283.710413 285.108472 
L 286.989752 285.044193 
L 290.269091 284.636378 
L 293.54843 283.980514 
L 296.827769 283.194881 
L 300.107107 282.406411 
L 303.386446 281.736821 
L 306.665785 281.291135 
L 309.945124 281.149842 
L 313.224463 281.365025 
L 316.503802 281.959975 
L 319.78314 282.93131 
L 323.062479 284.252557 
L 326.341818 285.878343 
L 329.621157 287.748727 
L 332.900496 289.793602 
L 336.179835 291.937222 
L 339.459174 294.102927 
L 342.738512 296.217903 
L 346.017851 298.217641 
L 349.29719 300.049649 
L 352.576529 301.676031 
L 355.855868 303.074667 
L 359.135207 304.238955 
L 362.414545 305.176193 
L 365.693884 305.90489 
L 368.973223 306.451367 
L 372.252562 306.84612 
L 375.531901 307.120412 
L 378.81124 307.303502 
L 382.090579 307.420763 
L 385.369917 307.49274 
L 388.649256 307.535039 
L 391.928595 307.558819 
L 395.207934 307.571595 
L 398.487273 307.578152 
" style="fill:none;stroke:#8b0000;stroke-linecap:square;stroke-width:4;"/>
   </g>
   <g id="patch_167">
    <path d="M 57.6 307.584 
L 57.6 241.056 
" style="fill:none;stroke:#000000;stroke-linecap:square;stroke-linejoin:miter;stroke-width:0.8;"/>
   </g>
   <g id="patch_168">
    <path d="M 414.72 307.584 
L 414.72 241.056 
" style="fill:none;stroke:#000000;stroke-linecap:square;stroke-linejoin:miter;stroke-width:0.8;"/>
   </g>
   <g id="patch_169">
    <path d="M 57.6 307.584 
L 414.72 307.584 
" style="fill:none;stroke:#000000;stroke-linecap:square;stroke-linejoin:miter;stroke-width:0.8;"/>
   </g>
   <g id="patch_170">
    <path d="M 57.6 241.056 
L 414.72 241.056 
" style="fill:none;stroke:#000000;stroke-linecap:square;stroke-linejoin:miter;stroke-width:0.8;"/>
   </g>
   <g id="legend_3">
    <g id="patch_171">
     <path d="M 370.471563 263.734125 
L 407.72 263.734125 
Q 409.72 263.734125 409.72 261.734125 
L 409.72 248.056 
Q 409.72 246.056 407.72 246.056 
L 370.471563 246.056 
Q 368.471563 246.056 368.471563 248.056 
L 368.471563 261.734125 
Q 368.471563 263.734125 370.471563 263.734125 
z
" style="fill:#ffffff;opacity:0.8;stroke:#cccccc;stroke-linejoin:miter;"/>
    </g>
    <g id="patch_172">
     <path d="M 372.471563 257.654437 
L 392.471563 257.654437 
L 392.471563 250.654437 
L 372.471563 250.654437 
z
" style="fill:#8b0000;opacity:0.4;stroke:#000000;stroke-linejoin:miter;"/>
    </g>
    <g id="text_30">
     <!-- z -->
     <defs>
      <path d="M 5.515625 54.6875 
L 48.1875 54.6875 
L 48.1875 46.484375 
L 14.40625 7.171875 
L 48.1875 7.171875 
L 48.1875 0 
L 4.296875 0 
L 4.296875 8.203125 
L 38.09375 47.515625 
L 5.515625 47.515625 
z
" id="DejaVuSans-122"/>
     </defs>
     <g transform="translate(400.471563 257.654437)scale(0.1 -0.1)">
      <use xlink:href="#DejaVuSans-122"/>
     </g>
    </g>
   </g>
  </g>
  <g id="text_31">
   <!-- Motif 6 Histogram -->
   <defs>
    <path d="M 9.8125 72.90625 
L 24.515625 72.90625 
L 43.109375 23.296875 
L 61.8125 72.90625 
L 76.515625 72.90625 
L 76.515625 0 
L 66.890625 0 
L 66.890625 64.015625 
L 48.09375 14.015625 
L 38.1875 14.015625 
L 19.390625 64.015625 
L 19.390625 0 
L 9.8125 0 
z
" id="DejaVuSans-77"/>
    <path d="M 37.109375 75.984375 
L 37.109375 68.5 
L 28.515625 68.5 
Q 23.6875 68.5 21.796875 66.546875 
Q 19.921875 64.59375 19.921875 59.515625 
L 19.921875 54.6875 
L 34.71875 54.6875 
L 34.71875 47.703125 
L 19.921875 47.703125 
L 19.921875 0 
L 10.890625 0 
L 10.890625 47.703125 
L 2.296875 47.703125 
L 2.296875 54.6875 
L 10.890625 54.6875 
L 10.890625 58.5 
Q 10.890625 67.625 15.140625 71.796875 
Q 19.390625 75.984375 28.609375 75.984375 
z
" id="DejaVuSans-102"/>
    <path id="DejaVuSans-32"/>
    <path d="M 33.015625 40.375 
Q 26.375 40.375 22.484375 35.828125 
Q 18.609375 31.296875 18.609375 23.390625 
Q 18.609375 15.53125 22.484375 10.953125 
Q 26.375 6.390625 33.015625 6.390625 
Q 39.65625 6.390625 43.53125 10.953125 
Q 47.40625 15.53125 47.40625 23.390625 
Q 47.40625 31.296875 43.53125 35.828125 
Q 39.65625 40.375 33.015625 40.375 
z
M 52.59375 71.296875 
L 52.59375 62.3125 
Q 48.875 64.0625 45.09375 64.984375 
Q 41.3125 65.921875 37.59375 65.921875 
Q 27.828125 65.921875 22.671875 59.328125 
Q 17.53125 52.734375 16.796875 39.40625 
Q 19.671875 43.65625 24.015625 45.921875 
Q 28.375 48.1875 33.59375 48.1875 
Q 44.578125 48.1875 50.953125 41.515625 
Q 57.328125 34.859375 57.328125 23.390625 
Q 57.328125 12.15625 50.6875 5.359375 
Q 44.046875 -1.421875 33.015625 -1.421875 
Q 20.359375 -1.421875 13.671875 8.265625 
Q 6.984375 17.96875 6.984375 36.375 
Q 6.984375 53.65625 15.1875 63.9375 
Q 23.390625 74.21875 37.203125 74.21875 
Q 40.921875 74.21875 44.703125 73.484375 
Q 48.484375 72.75 52.59375 71.296875 
z
" id="DejaVuSans-54"/>
    <path d="M 9.8125 72.90625 
L 19.671875 72.90625 
L 19.671875 43.015625 
L 55.515625 43.015625 
L 55.515625 72.90625 
L 65.375 72.90625 
L 65.375 0 
L 55.515625 0 
L 55.515625 34.71875 
L 19.671875 34.71875 
L 19.671875 0 
L 9.8125 0 
z
" id="DejaVuSans-72"/>
    <path d="M 45.40625 27.984375 
Q 45.40625 37.75 41.375 43.109375 
Q 37.359375 48.484375 30.078125 48.484375 
Q 22.859375 48.484375 18.828125 43.109375 
Q 14.796875 37.75 14.796875 27.984375 
Q 14.796875 18.265625 18.828125 12.890625 
Q 22.859375 7.515625 30.078125 7.515625 
Q 37.359375 7.515625 41.375 12.890625 
Q 45.40625 18.265625 45.40625 27.984375 
z
M 54.390625 6.78125 
Q 54.390625 -7.171875 48.1875 -13.984375 
Q 42 -20.796875 29.203125 -20.796875 
Q 24.46875 -20.796875 20.265625 -20.09375 
Q 16.0625 -19.390625 12.109375 -17.921875 
L 12.109375 -9.1875 
Q 16.0625 -11.328125 19.921875 -12.34375 
Q 23.78125 -13.375 27.78125 -13.375 
Q 36.625 -13.375 41.015625 -8.765625 
Q 45.40625 -4.15625 45.40625 5.171875 
L 45.40625 9.625 
Q 42.625 4.78125 38.28125 2.390625 
Q 33.9375 0 27.875 0 
Q 17.828125 0 11.671875 7.65625 
Q 5.515625 15.328125 5.515625 27.984375 
Q 5.515625 40.671875 11.671875 48.328125 
Q 17.828125 56 27.875 56 
Q 33.9375 56 38.28125 53.609375 
Q 42.625 51.21875 45.40625 46.390625 
L 45.40625 54.6875 
L 54.390625 54.6875 
z
" id="DejaVuSans-103"/>
    <path d="M 41.109375 46.296875 
Q 39.59375 47.171875 37.8125 47.578125 
Q 36.03125 48 33.890625 48 
Q 26.265625 48 22.1875 43.046875 
Q 18.109375 38.09375 18.109375 28.8125 
L 18.109375 0 
L 9.078125 0 
L 9.078125 54.6875 
L 18.109375 54.6875 
L 18.109375 46.1875 
Q 20.953125 51.171875 25.484375 53.578125 
Q 30.03125 56 36.53125 56 
Q 37.453125 56 38.578125 55.875 
Q 39.703125 55.765625 41.0625 55.515625 
z
" id="DejaVuSans-114"/>
    <path d="M 34.28125 27.484375 
Q 23.390625 27.484375 19.1875 25 
Q 14.984375 22.515625 14.984375 16.5 
Q 14.984375 11.71875 18.140625 8.90625 
Q 21.296875 6.109375 26.703125 6.109375 
Q 34.1875 6.109375 38.703125 11.40625 
Q 43.21875 16.703125 43.21875 25.484375 
L 43.21875 27.484375 
z
M 52.203125 31.203125 
L 52.203125 0 
L 43.21875 0 
L 43.21875 8.296875 
Q 40.140625 3.328125 35.546875 0.953125 
Q 30.953125 -1.421875 24.3125 -1.421875 
Q 15.921875 -1.421875 10.953125 3.296875 
Q 6 8.015625 6 15.921875 
Q 6 25.140625 12.171875 29.828125 
Q 18.359375 34.515625 30.609375 34.515625 
L 43.21875 34.515625 
L 43.21875 35.40625 
Q 43.21875 41.609375 39.140625 45 
Q 35.0625 48.390625 27.6875 48.390625 
Q 23 48.390625 18.546875 47.265625 
Q 14.109375 46.140625 10.015625 43.890625 
L 10.015625 52.203125 
Q 14.9375 54.109375 19.578125 55.046875 
Q 24.21875 56 28.609375 56 
Q 40.484375 56 46.34375 49.84375 
Q 52.203125 43.703125 52.203125 31.203125 
z
" id="DejaVuSans-97"/>
    <path d="M 52 44.1875 
Q 55.375 50.25 60.0625 53.125 
Q 64.75 56 71.09375 56 
Q 79.640625 56 84.28125 50.015625 
Q 88.921875 44.046875 88.921875 33.015625 
L 88.921875 0 
L 79.890625 0 
L 79.890625 32.71875 
Q 79.890625 40.578125 77.09375 44.375 
Q 74.3125 48.1875 68.609375 48.1875 
Q 61.625 48.1875 57.5625 43.546875 
Q 53.515625 38.921875 53.515625 30.90625 
L 53.515625 0 
L 44.484375 0 
L 44.484375 32.71875 
Q 44.484375 40.625 41.703125 44.40625 
Q 38.921875 48.1875 33.109375 48.1875 
Q 26.21875 48.1875 22.15625 43.53125 
Q 18.109375 38.875 18.109375 30.90625 
L 18.109375 0 
L 9.078125 0 
L 9.078125 54.6875 
L 18.109375 54.6875 
L 18.109375 46.1875 
Q 21.1875 51.21875 25.484375 53.609375 
Q 29.78125 56 35.6875 56 
Q 41.65625 56 45.828125 52.96875 
Q 50 49.953125 52 44.1875 
z
" id="DejaVuSans-109"/>
   </defs>
   <g transform="translate(176.664375 16.030125)scale(0.12 -0.12)">
    <use xlink:href="#DejaVuSans-77"/>
    <use x="86.279297" xlink:href="#DejaVuSans-111"/>
    <use x="147.460938" xlink:href="#DejaVuSans-116"/>
    <use x="186.669922" xlink:href="#DejaVuSans-105"/>
    <use x="214.453125" xlink:href="#DejaVuSans-102"/>
    <use x="249.658203" xlink:href="#DejaVuSans-32"/>
    <use x="281.445312" xlink:href="#DejaVuSans-54"/>
    <use x="345.068359" xlink:href="#DejaVuSans-32"/>
    <use x="376.855469" xlink:href="#DejaVuSans-72"/>
    <use x="452.050781" xlink:href="#DejaVuSans-105"/>
    <use x="479.833984" xlink:href="#DejaVuSans-115"/>
    <use x="531.933594" xlink:href="#DejaVuSans-116"/>
    <use x="571.142578" xlink:href="#DejaVuSans-111"/>
    <use x="632.324219" xlink:href="#DejaVuSans-103"/>
    <use x="695.800781" xlink:href="#DejaVuSans-114"/>
    <use x="736.914062" xlink:href="#DejaVuSans-97"/>
    <use x="798.193359" xlink:href="#DejaVuSans-109"/>
   </g>
  </g>
 </g>
 <defs>
  <clipPath id="pa658b44cb7">
   <rect height="66.528" width="357.12" x="57.6" y="41.472"/>
  </clipPath>
  <clipPath id="pf17af6b8c0">
   <rect height="66.528" width="357.12" x="57.6" y="141.264"/>
  </clipPath>
  <clipPath id="p4d0876f801">
   <rect height="66.528" width="357.12" x="57.6" y="241.056"/>
  </clipPath>
 </defs>
</svg>
