<?xml version="1.0" encoding="utf-8" standalone="no"?>
<!DOCTYPE svg PUBLIC "-//W3C//DTD SVG 1.1//EN"
  "http://www.w3.org/Graphics/SVG/1.1/DTD/svg11.dtd">
<!-- Created with matplotlib (https://matplotlib.org/) -->
<svg height="345.6pt" version="1.1" viewBox="0 0 460.8 345.6" width="460.8pt" xmlns="http://www.w3.org/2000/svg" xmlns:xlink="http://www.w3.org/1999/xlink">
 <defs>
  <style type="text/css">
*{stroke-linecap:butt;stroke-linejoin:round;}
  </style>
 </defs>
 <g id="figure_1">
  <g id="patch_1">
   <path d="M 0 345.6 
L 460.8 345.6 
L 460.8 0 
L 0 0 
z
" style="fill:#ffffff;"/>
  </g>
  <g id="axes_1">
   <g id="patch_2">
    <path d="M 57.6 108 
L 414.72 108 
L 414.72 41.472 
L 57.6 41.472 
z
" style="fill:#ffffff;"/>
   </g>
   <g id="patch_3">
    <path clip-path="url(#pd938f5fb0a)" d="M 114.660285 108 
L 119.520274 108 
L 119.520274 105.204706 
L 114.660285 105.204706 
z
" style="fill:#00008b;opacity:0.4;stroke:#000000;stroke-linejoin:miter;"/>
   </g>
   <g id="patch_4">
    <path clip-path="url(#pd938f5fb0a)" d="M 119.520274 108 
L 124.380262 108 
L 124.380262 104.272941 
L 119.520274 104.272941 
z
" style="fill:#00008b;opacity:0.4;stroke:#000000;stroke-linejoin:miter;"/>
   </g>
   <g id="patch_5">
    <path clip-path="url(#pd938f5fb0a)" d="M 124.380262 108 
L 129.240251 108 
L 129.240251 96.818824 
L 124.380262 96.818824 
z
" style="fill:#00008b;opacity:0.4;stroke:#000000;stroke-linejoin:miter;"/>
   </g>
   <g id="patch_6">
    <path clip-path="url(#pd938f5fb0a)" d="M 129.240251 108 
L 134.10024 108 
L 134.10024 99.614118 
L 129.240251 99.614118 
z
" style="fill:#00008b;opacity:0.4;stroke:#000000;stroke-linejoin:miter;"/>
   </g>
   <g id="patch_7">
    <path clip-path="url(#pd938f5fb0a)" d="M 134.10024 108 
L 138.960228 108 
L 138.960228 95.887059 
L 134.10024 95.887059 
z
" style="fill:#00008b;opacity:0.4;stroke:#000000;stroke-linejoin:miter;"/>
   </g>
   <g id="patch_8">
    <path clip-path="url(#pd938f5fb0a)" d="M 138.960228 108 
L 143.820217 108 
L 143.820217 90.296471 
L 138.960228 90.296471 
z
" style="fill:#00008b;opacity:0.4;stroke:#000000;stroke-linejoin:miter;"/>
   </g>
   <g id="patch_9">
    <path clip-path="url(#pd938f5fb0a)" d="M 143.820217 108 
L 148.680205 108 
L 148.680205 84.705882 
L 143.820217 84.705882 
z
" style="fill:#00008b;opacity:0.4;stroke:#000000;stroke-linejoin:miter;"/>
   </g>
   <g id="patch_10">
    <path clip-path="url(#pd938f5fb0a)" d="M 148.680205 108 
L 153.540194 108 
L 153.540194 91.228235 
L 148.680205 91.228235 
z
" style="fill:#00008b;opacity:0.4;stroke:#000000;stroke-linejoin:miter;"/>
   </g>
   <g id="patch_11">
    <path clip-path="url(#pd938f5fb0a)" d="M 153.540194 108 
L 158.400183 108 
L 158.400183 94.023529 
L 153.540194 94.023529 
z
" style="fill:#00008b;opacity:0.4;stroke:#000000;stroke-linejoin:miter;"/>
   </g>
   <g id="patch_12">
    <path clip-path="url(#pd938f5fb0a)" d="M 158.400183 108 
L 163.260171 108 
L 163.260171 83.774118 
L 158.400183 83.774118 
z
" style="fill:#00008b;opacity:0.4;stroke:#000000;stroke-linejoin:miter;"/>
   </g>
   <g id="patch_13">
    <path clip-path="url(#pd938f5fb0a)" d="M 163.260171 108 
L 168.12016 108 
L 168.12016 81.910588 
L 163.260171 81.910588 
z
" style="fill:#00008b;opacity:0.4;stroke:#000000;stroke-linejoin:miter;"/>
   </g>
   <g id="patch_14">
    <path clip-path="url(#pd938f5fb0a)" d="M 168.12016 108 
L 172.980148 108 
L 172.980148 81.910588 
L 168.12016 81.910588 
z
" style="fill:#00008b;opacity:0.4;stroke:#000000;stroke-linejoin:miter;"/>
   </g>
   <g id="patch_15">
    <path clip-path="url(#pd938f5fb0a)" d="M 172.980148 108 
L 177.840137 108 
L 177.840137 91.228235 
L 172.980148 91.228235 
z
" style="fill:#00008b;opacity:0.4;stroke:#000000;stroke-linejoin:miter;"/>
   </g>
   <g id="patch_16">
    <path clip-path="url(#pd938f5fb0a)" d="M 177.840137 108 
L 182.700126 108 
L 182.700126 90.296471 
L 177.840137 90.296471 
z
" style="fill:#00008b;opacity:0.4;stroke:#000000;stroke-linejoin:miter;"/>
   </g>
   <g id="patch_17">
    <path clip-path="url(#pd938f5fb0a)" d="M 182.700126 108 
L 187.560114 108 
L 187.560114 77.251765 
L 182.700126 77.251765 
z
" style="fill:#00008b;opacity:0.4;stroke:#000000;stroke-linejoin:miter;"/>
   </g>
   <g id="patch_18">
    <path clip-path="url(#pd938f5fb0a)" d="M 187.560114 108 
L 192.420103 108 
L 192.420103 80.978824 
L 187.560114 80.978824 
z
" style="fill:#00008b;opacity:0.4;stroke:#000000;stroke-linejoin:miter;"/>
   </g>
   <g id="patch_19">
    <path clip-path="url(#pd938f5fb0a)" d="M 192.420103 108 
L 197.280091 108 
L 197.280091 89.364706 
L 192.420103 89.364706 
z
" style="fill:#00008b;opacity:0.4;stroke:#000000;stroke-linejoin:miter;"/>
   </g>
   <g id="patch_20">
    <path clip-path="url(#pd938f5fb0a)" d="M 197.280091 108 
L 202.14008 108 
L 202.14008 83.774118 
L 197.280091 83.774118 
z
" style="fill:#00008b;opacity:0.4;stroke:#000000;stroke-linejoin:miter;"/>
   </g>
   <g id="patch_21">
    <path clip-path="url(#pd938f5fb0a)" d="M 202.14008 108 
L 207.000068 108 
L 207.000068 78.183529 
L 202.14008 78.183529 
z
" style="fill:#00008b;opacity:0.4;stroke:#000000;stroke-linejoin:miter;"/>
   </g>
   <g id="patch_22">
    <path clip-path="url(#pd938f5fb0a)" d="M 207.000068 108 
L 211.860057 108 
L 211.860057 83.774118 
L 207.000068 83.774118 
z
" style="fill:#00008b;opacity:0.4;stroke:#000000;stroke-linejoin:miter;"/>
   </g>
   <g id="patch_23">
    <path clip-path="url(#pd938f5fb0a)" d="M 211.860057 108 
L 216.720046 108 
L 216.720046 86.569412 
L 211.860057 86.569412 
z
" style="fill:#00008b;opacity:0.4;stroke:#000000;stroke-linejoin:miter;"/>
   </g>
   <g id="patch_24">
    <path clip-path="url(#pd938f5fb0a)" d="M 216.720046 108 
L 221.580034 108 
L 221.580034 77.251765 
L 216.720046 77.251765 
z
" style="fill:#00008b;opacity:0.4;stroke:#000000;stroke-linejoin:miter;"/>
   </g>
   <g id="patch_25">
    <path clip-path="url(#pd938f5fb0a)" d="M 221.580034 108 
L 226.440023 108 
L 226.440023 75.388235 
L 221.580034 75.388235 
z
" style="fill:#00008b;opacity:0.4;stroke:#000000;stroke-linejoin:miter;"/>
   </g>
   <g id="patch_26">
    <path clip-path="url(#pd938f5fb0a)" d="M 226.440023 108 
L 231.300011 108 
L 231.300011 53.025882 
L 226.440023 53.025882 
z
" style="fill:#00008b;opacity:0.4;stroke:#000000;stroke-linejoin:miter;"/>
   </g>
   <g id="patch_27">
    <path clip-path="url(#pd938f5fb0a)" d="M 231.300011 108 
L 236.16 108 
L 236.16 44.64 
L 231.300011 44.64 
z
" style="fill:#00008b;opacity:0.4;stroke:#000000;stroke-linejoin:miter;"/>
   </g>
   <g id="patch_28">
    <path clip-path="url(#pd938f5fb0a)" d="M 236.16 108 
L 241.019989 108 
L 241.019989 55.821176 
L 236.16 55.821176 
z
" style="fill:#00008b;opacity:0.4;stroke:#000000;stroke-linejoin:miter;"/>
   </g>
   <g id="patch_29">
    <path clip-path="url(#pd938f5fb0a)" d="M 241.019989 108 
L 245.879977 108 
L 245.879977 64.207059 
L 241.019989 64.207059 
z
" style="fill:#00008b;opacity:0.4;stroke:#000000;stroke-linejoin:miter;"/>
   </g>
   <g id="patch_30">
    <path clip-path="url(#pd938f5fb0a)" d="M 245.879977 108 
L 250.739966 108 
L 250.739966 80.047059 
L 245.879977 80.047059 
z
" style="fill:#00008b;opacity:0.4;stroke:#000000;stroke-linejoin:miter;"/>
   </g>
   <g id="patch_31">
    <path clip-path="url(#pd938f5fb0a)" d="M 250.739966 108 
L 255.599954 108 
L 255.599954 94.023529 
L 250.739966 94.023529 
z
" style="fill:#00008b;opacity:0.4;stroke:#000000;stroke-linejoin:miter;"/>
   </g>
   <g id="patch_32">
    <path clip-path="url(#pd938f5fb0a)" d="M 255.599954 108 
L 260.459943 108 
L 260.459943 86.569412 
L 255.599954 86.569412 
z
" style="fill:#00008b;opacity:0.4;stroke:#000000;stroke-linejoin:miter;"/>
   </g>
   <g id="patch_33">
    <path clip-path="url(#pd938f5fb0a)" d="M 260.459943 108 
L 265.319932 108 
L 265.319932 85.637647 
L 260.459943 85.637647 
z
" style="fill:#00008b;opacity:0.4;stroke:#000000;stroke-linejoin:miter;"/>
   </g>
   <g id="patch_34">
    <path clip-path="url(#pd938f5fb0a)" d="M 265.319932 108 
L 270.17992 108 
L 270.17992 72.592941 
L 265.319932 72.592941 
z
" style="fill:#00008b;opacity:0.4;stroke:#000000;stroke-linejoin:miter;"/>
   </g>
   <g id="patch_35">
    <path clip-path="url(#pd938f5fb0a)" d="M 270.17992 108 
L 275.039909 108 
L 275.039909 86.569412 
L 270.17992 86.569412 
z
" style="fill:#00008b;opacity:0.4;stroke:#000000;stroke-linejoin:miter;"/>
   </g>
   <g id="patch_36">
    <path clip-path="url(#pd938f5fb0a)" d="M 275.039909 108 
L 279.899897 108 
L 279.899897 86.569412 
L 275.039909 86.569412 
z
" style="fill:#00008b;opacity:0.4;stroke:#000000;stroke-linejoin:miter;"/>
   </g>
   <g id="patch_37">
    <path clip-path="url(#pd938f5fb0a)" d="M 279.899897 108 
L 284.759886 108 
L 284.759886 96.818824 
L 279.899897 96.818824 
z
" style="fill:#00008b;opacity:0.4;stroke:#000000;stroke-linejoin:miter;"/>
   </g>
   <g id="patch_38">
    <path clip-path="url(#pd938f5fb0a)" d="M 284.759886 108 
L 289.619874 108 
L 289.619874 79.115294 
L 284.759886 79.115294 
z
" style="fill:#00008b;opacity:0.4;stroke:#000000;stroke-linejoin:miter;"/>
   </g>
   <g id="patch_39">
    <path clip-path="url(#pd938f5fb0a)" d="M 289.619874 108 
L 294.479863 108 
L 294.479863 72.592941 
L 289.619874 72.592941 
z
" style="fill:#00008b;opacity:0.4;stroke:#000000;stroke-linejoin:miter;"/>
   </g>
   <g id="patch_40">
    <path clip-path="url(#pd938f5fb0a)" d="M 294.479863 108 
L 299.339852 108 
L 299.339852 85.637647 
L 294.479863 85.637647 
z
" style="fill:#00008b;opacity:0.4;stroke:#000000;stroke-linejoin:miter;"/>
   </g>
   <g id="patch_41">
    <path clip-path="url(#pd938f5fb0a)" d="M 299.339852 108 
L 304.19984 108 
L 304.19984 91.228235 
L 299.339852 91.228235 
z
" style="fill:#00008b;opacity:0.4;stroke:#000000;stroke-linejoin:miter;"/>
   </g>
   <g id="patch_42">
    <path clip-path="url(#pd938f5fb0a)" d="M 304.19984 108 
L 309.059829 108 
L 309.059829 72.592941 
L 304.19984 72.592941 
z
" style="fill:#00008b;opacity:0.4;stroke:#000000;stroke-linejoin:miter;"/>
   </g>
   <g id="patch_43">
    <path clip-path="url(#pd938f5fb0a)" d="M 309.059829 108 
L 313.919817 108 
L 313.919817 85.637647 
L 309.059829 85.637647 
z
" style="fill:#00008b;opacity:0.4;stroke:#000000;stroke-linejoin:miter;"/>
   </g>
   <g id="patch_44">
    <path clip-path="url(#pd938f5fb0a)" d="M 313.919817 108 
L 318.779806 108 
L 318.779806 82.842353 
L 313.919817 82.842353 
z
" style="fill:#00008b;opacity:0.4;stroke:#000000;stroke-linejoin:miter;"/>
   </g>
   <g id="patch_45">
    <path clip-path="url(#pd938f5fb0a)" d="M 318.779806 108 
L 323.639795 108 
L 323.639795 93.091765 
L 318.779806 93.091765 
z
" style="fill:#00008b;opacity:0.4;stroke:#000000;stroke-linejoin:miter;"/>
   </g>
   <g id="patch_46">
    <path clip-path="url(#pd938f5fb0a)" d="M 323.639795 108 
L 328.499783 108 
L 328.499783 94.955294 
L 323.639795 94.955294 
z
" style="fill:#00008b;opacity:0.4;stroke:#000000;stroke-linejoin:miter;"/>
   </g>
   <g id="patch_47">
    <path clip-path="url(#pd938f5fb0a)" d="M 328.499783 108 
L 333.359772 108 
L 333.359772 88.432941 
L 328.499783 88.432941 
z
" style="fill:#00008b;opacity:0.4;stroke:#000000;stroke-linejoin:miter;"/>
   </g>
   <g id="patch_48">
    <path clip-path="url(#pd938f5fb0a)" d="M 333.359772 108 
L 338.21976 108 
L 338.21976 104.272941 
L 333.359772 104.272941 
z
" style="fill:#00008b;opacity:0.4;stroke:#000000;stroke-linejoin:miter;"/>
   </g>
   <g id="patch_49">
    <path clip-path="url(#pd938f5fb0a)" d="M 338.21976 108 
L 343.079749 108 
L 343.079749 93.091765 
L 338.21976 93.091765 
z
" style="fill:#00008b;opacity:0.4;stroke:#000000;stroke-linejoin:miter;"/>
   </g>
   <g id="patch_50">
    <path clip-path="url(#pd938f5fb0a)" d="M 343.079749 108 
L 347.939738 108 
L 347.939738 99.614118 
L 343.079749 99.614118 
z
" style="fill:#00008b;opacity:0.4;stroke:#000000;stroke-linejoin:miter;"/>
   </g>
   <g id="patch_51">
    <path clip-path="url(#pd938f5fb0a)" d="M 347.939738 108 
L 352.799726 108 
L 352.799726 100.545882 
L 347.939738 100.545882 
z
" style="fill:#00008b;opacity:0.4;stroke:#000000;stroke-linejoin:miter;"/>
   </g>
   <g id="patch_52">
    <path clip-path="url(#pd938f5fb0a)" d="M 352.799726 108 
L 357.659715 108 
L 357.659715 106.136471 
L 352.799726 106.136471 
z
" style="fill:#00008b;opacity:0.4;stroke:#000000;stroke-linejoin:miter;"/>
   </g>
   <g id="matplotlib.axis_1">
    <g id="xtick_1">
     <g id="line2d_1">
      <defs>
       <path d="M 0 0 
L 0 3.5 
" id="m75944b9aa3" style="stroke:#000000;stroke-width:0.8;"/>
      </defs>
      <g>
       <use style="stroke:#000000;stroke-width:0.8;" x="88.844714" xlink:href="#m75944b9aa3" y="108"/>
      </g>
     </g>
     <g id="text_1">
      <!-- −1.0 -->
      <defs>
       <path d="M 10.59375 35.5 
L 73.1875 35.5 
L 73.1875 27.203125 
L 10.59375 27.203125 
z
" id="DejaVuSans-8722"/>
       <path d="M 12.40625 8.296875 
L 28.515625 8.296875 
L 28.515625 63.921875 
L 10.984375 60.40625 
L 10.984375 69.390625 
L 28.421875 72.90625 
L 38.28125 72.90625 
L 38.28125 8.296875 
L 54.390625 8.296875 
L 54.390625 0 
L 12.40625 0 
z
" id="DejaVuSans-49"/>
       <path d="M 10.6875 12.40625 
L 21 12.40625 
L 21 0 
L 10.6875 0 
z
" id="DejaVuSans-46"/>
       <path d="M 31.78125 66.40625 
Q 24.171875 66.40625 20.328125 58.90625 
Q 16.5 51.421875 16.5 36.375 
Q 16.5 21.390625 20.328125 13.890625 
Q 24.171875 6.390625 31.78125 6.390625 
Q 39.453125 6.390625 43.28125 13.890625 
Q 47.125 21.390625 47.125 36.375 
Q 47.125 51.421875 43.28125 58.90625 
Q 39.453125 66.40625 31.78125 66.40625 
z
M 31.78125 74.21875 
Q 44.046875 74.21875 50.515625 64.515625 
Q 56.984375 54.828125 56.984375 36.375 
Q 56.984375 17.96875 50.515625 8.265625 
Q 44.046875 -1.421875 31.78125 -1.421875 
Q 19.53125 -1.421875 13.0625 8.265625 
Q 6.59375 17.96875 6.59375 36.375 
Q 6.59375 54.828125 13.0625 64.515625 
Q 19.53125 74.21875 31.78125 74.21875 
z
" id="DejaVuSans-48"/>
      </defs>
      <g transform="translate(76.703308 122.598437)scale(0.1 -0.1)">
       <use xlink:href="#DejaVuSans-8722"/>
       <use x="83.789062" xlink:href="#DejaVuSans-49"/>
       <use x="147.412109" xlink:href="#DejaVuSans-46"/>
       <use x="179.199219" xlink:href="#DejaVuSans-48"/>
      </g>
     </g>
    </g>
    <g id="xtick_2">
     <g id="line2d_2">
      <g>
       <use style="stroke:#000000;stroke-width:0.8;" x="161.727725" xlink:href="#m75944b9aa3" y="108"/>
      </g>
     </g>
     <g id="text_2">
      <!-- −0.5 -->
      <defs>
       <path d="M 10.796875 72.90625 
L 49.515625 72.90625 
L 49.515625 64.59375 
L 19.828125 64.59375 
L 19.828125 46.734375 
Q 21.96875 47.46875 24.109375 47.828125 
Q 26.265625 48.1875 28.421875 48.1875 
Q 40.625 48.1875 47.75 41.5 
Q 54.890625 34.8125 54.890625 23.390625 
Q 54.890625 11.625 47.5625 5.09375 
Q 40.234375 -1.421875 26.90625 -1.421875 
Q 22.3125 -1.421875 17.546875 -0.640625 
Q 12.796875 0.140625 7.71875 1.703125 
L 7.71875 11.625 
Q 12.109375 9.234375 16.796875 8.0625 
Q 21.484375 6.890625 26.703125 6.890625 
Q 35.15625 6.890625 40.078125 11.328125 
Q 45.015625 15.765625 45.015625 23.390625 
Q 45.015625 31 40.078125 35.4375 
Q 35.15625 39.890625 26.703125 39.890625 
Q 22.75 39.890625 18.8125 39.015625 
Q 14.890625 38.140625 10.796875 36.28125 
z
" id="DejaVuSans-53"/>
      </defs>
      <g transform="translate(149.586319 122.598437)scale(0.1 -0.1)">
       <use xlink:href="#DejaVuSans-8722"/>
       <use x="83.789062" xlink:href="#DejaVuSans-48"/>
       <use x="147.412109" xlink:href="#DejaVuSans-46"/>
       <use x="179.199219" xlink:href="#DejaVuSans-53"/>
      </g>
     </g>
    </g>
    <g id="xtick_3">
     <g id="line2d_3">
      <g>
       <use style="stroke:#000000;stroke-width:0.8;" x="234.610736" xlink:href="#m75944b9aa3" y="108"/>
      </g>
     </g>
     <g id="text_3">
      <!-- 0.0 -->
      <g transform="translate(226.659173 122.598437)scale(0.1 -0.1)">
       <use xlink:href="#DejaVuSans-48"/>
       <use x="63.623047" xlink:href="#DejaVuSans-46"/>
       <use x="95.410156" xlink:href="#DejaVuSans-48"/>
      </g>
     </g>
    </g>
    <g id="xtick_4">
     <g id="line2d_4">
      <g>
       <use style="stroke:#000000;stroke-width:0.8;" x="307.493746" xlink:href="#m75944b9aa3" y="108"/>
      </g>
     </g>
     <g id="text_4">
      <!-- 0.5 -->
      <g transform="translate(299.542184 122.598437)scale(0.1 -0.1)">
       <use xlink:href="#DejaVuSans-48"/>
       <use x="63.623047" xlink:href="#DejaVuSans-46"/>
       <use x="95.410156" xlink:href="#DejaVuSans-53"/>
      </g>
     </g>
    </g>
    <g id="xtick_5">
     <g id="line2d_5">
      <g>
       <use style="stroke:#000000;stroke-width:0.8;" x="380.376757" xlink:href="#m75944b9aa3" y="108"/>
      </g>
     </g>
     <g id="text_5">
      <!-- 1.0 -->
      <g transform="translate(372.425195 122.598437)scale(0.1 -0.1)">
       <use xlink:href="#DejaVuSans-49"/>
       <use x="63.623047" xlink:href="#DejaVuSans-46"/>
       <use x="95.410156" xlink:href="#DejaVuSans-48"/>
      </g>
     </g>
    </g>
   </g>
   <g id="matplotlib.axis_2">
    <g id="ytick_1">
     <g id="line2d_6">
      <defs>
       <path d="M 0 0 
L -3.5 0 
" id="m4b0333fd15" style="stroke:#000000;stroke-width:0.8;"/>
      </defs>
      <g>
       <use style="stroke:#000000;stroke-width:0.8;" x="57.6" xlink:href="#m4b0333fd15" y="108"/>
      </g>
     </g>
     <g id="text_6">
      <!-- 0 -->
      <g transform="translate(44.2375 111.799219)scale(0.1 -0.1)">
       <use xlink:href="#DejaVuSans-48"/>
      </g>
     </g>
    </g>
    <g id="ytick_2">
     <g id="line2d_7">
      <g>
       <use style="stroke:#000000;stroke-width:0.8;" x="57.6" xlink:href="#m4b0333fd15" y="70.658679"/>
      </g>
     </g>
     <g id="text_7">
      <!-- 1 -->
      <g transform="translate(44.2375 74.457898)scale(0.1 -0.1)">
       <use xlink:href="#DejaVuSans-49"/>
      </g>
     </g>
    </g>
    <g id="text_8">
     <!-- Density -->
     <defs>
      <path d="M 19.671875 64.796875 
L 19.671875 8.109375 
L 31.59375 8.109375 
Q 46.6875 8.109375 53.6875 14.9375 
Q 60.6875 21.78125 60.6875 36.53125 
Q 60.6875 51.171875 53.6875 57.984375 
Q 46.6875 64.796875 31.59375 64.796875 
z
M 9.8125 72.90625 
L 30.078125 72.90625 
Q 51.265625 72.90625 61.171875 64.09375 
Q 71.09375 55.28125 71.09375 36.53125 
Q 71.09375 17.671875 61.125 8.828125 
Q 51.171875 0 30.078125 0 
L 9.8125 0 
z
" id="DejaVuSans-68"/>
      <path d="M 56.203125 29.59375 
L 56.203125 25.203125 
L 14.890625 25.203125 
Q 15.484375 15.921875 20.484375 11.0625 
Q 25.484375 6.203125 34.421875 6.203125 
Q 39.59375 6.203125 44.453125 7.46875 
Q 49.3125 8.734375 54.109375 11.28125 
L 54.109375 2.78125 
Q 49.265625 0.734375 44.1875 -0.34375 
Q 39.109375 -1.421875 33.890625 -1.421875 
Q 20.796875 -1.421875 13.15625 6.1875 
Q 5.515625 13.8125 5.515625 26.8125 
Q 5.515625 40.234375 12.765625 48.109375 
Q 20.015625 56 32.328125 56 
Q 43.359375 56 49.78125 48.890625 
Q 56.203125 41.796875 56.203125 29.59375 
z
M 47.21875 32.234375 
Q 47.125 39.59375 43.09375 43.984375 
Q 39.0625 48.390625 32.421875 48.390625 
Q 24.90625 48.390625 20.390625 44.140625 
Q 15.875 39.890625 15.1875 32.171875 
z
" id="DejaVuSans-101"/>
      <path d="M 54.890625 33.015625 
L 54.890625 0 
L 45.90625 0 
L 45.90625 32.71875 
Q 45.90625 40.484375 42.875 44.328125 
Q 39.84375 48.1875 33.796875 48.1875 
Q 26.515625 48.1875 22.3125 43.546875 
Q 18.109375 38.921875 18.109375 30.90625 
L 18.109375 0 
L 9.078125 0 
L 9.078125 54.6875 
L 18.109375 54.6875 
L 18.109375 46.1875 
Q 21.34375 51.125 25.703125 53.5625 
Q 30.078125 56 35.796875 56 
Q 45.21875 56 50.046875 50.171875 
Q 54.890625 44.34375 54.890625 33.015625 
z
" id="DejaVuSans-110"/>
      <path d="M 44.28125 53.078125 
L 44.28125 44.578125 
Q 40.484375 46.53125 36.375 47.5 
Q 32.28125 48.484375 27.875 48.484375 
Q 21.1875 48.484375 17.84375 46.4375 
Q 14.5 44.390625 14.5 40.28125 
Q 14.5 37.15625 16.890625 35.375 
Q 19.28125 33.59375 26.515625 31.984375 
L 29.59375 31.296875 
Q 39.15625 29.25 43.1875 25.515625 
Q 47.21875 21.78125 47.21875 15.09375 
Q 47.21875 7.46875 41.1875 3.015625 
Q 35.15625 -1.421875 24.609375 -1.421875 
Q 20.21875 -1.421875 15.453125 -0.5625 
Q 10.6875 0.296875 5.421875 2 
L 5.421875 11.28125 
Q 10.40625 8.6875 15.234375 7.390625 
Q 20.0625 6.109375 24.8125 6.109375 
Q 31.15625 6.109375 34.5625 8.28125 
Q 37.984375 10.453125 37.984375 14.40625 
Q 37.984375 18.0625 35.515625 20.015625 
Q 33.0625 21.96875 24.703125 23.78125 
L 21.578125 24.515625 
Q 13.234375 26.265625 9.515625 29.90625 
Q 5.8125 33.546875 5.8125 39.890625 
Q 5.8125 47.609375 11.28125 51.796875 
Q 16.75 56 26.8125 56 
Q 31.78125 56 36.171875 55.265625 
Q 40.578125 54.546875 44.28125 53.078125 
z
" id="DejaVuSans-115"/>
      <path d="M 9.421875 54.6875 
L 18.40625 54.6875 
L 18.40625 0 
L 9.421875 0 
z
M 9.421875 75.984375 
L 18.40625 75.984375 
L 18.40625 64.59375 
L 9.421875 64.59375 
z
" id="DejaVuSans-105"/>
      <path d="M 18.3125 70.21875 
L 18.3125 54.6875 
L 36.8125 54.6875 
L 36.8125 47.703125 
L 18.3125 47.703125 
L 18.3125 18.015625 
Q 18.3125 11.328125 20.140625 9.421875 
Q 21.96875 7.515625 27.59375 7.515625 
L 36.8125 7.515625 
L 36.8125 0 
L 27.59375 0 
Q 17.1875 0 13.234375 3.875 
Q 9.28125 7.765625 9.28125 18.015625 
L 9.28125 47.703125 
L 2.6875 47.703125 
L 2.6875 54.6875 
L 9.28125 54.6875 
L 9.28125 70.21875 
z
" id="DejaVuSans-116"/>
      <path d="M 32.171875 -5.078125 
Q 28.375 -14.84375 24.75 -17.8125 
Q 21.140625 -20.796875 15.09375 -20.796875 
L 7.90625 -20.796875 
L 7.90625 -13.28125 
L 13.1875 -13.28125 
Q 16.890625 -13.28125 18.9375 -11.515625 
Q 21 -9.765625 23.484375 -3.21875 
L 25.09375 0.875 
L 2.984375 54.6875 
L 12.5 54.6875 
L 29.59375 11.921875 
L 46.6875 54.6875 
L 56.203125 54.6875 
z
" id="DejaVuSans-121"/>
     </defs>
     <g transform="translate(38.157812 93.744594)rotate(-90)scale(0.1 -0.1)">
      <use xlink:href="#DejaVuSans-68"/>
      <use x="77.001953" xlink:href="#DejaVuSans-101"/>
      <use x="138.525391" xlink:href="#DejaVuSans-110"/>
      <use x="201.904297" xlink:href="#DejaVuSans-115"/>
      <use x="254.003906" xlink:href="#DejaVuSans-105"/>
      <use x="281.787109" xlink:href="#DejaVuSans-116"/>
      <use x="320.996094" xlink:href="#DejaVuSans-121"/>
     </g>
    </g>
   </g>
   <g id="line2d_8">
    <path clip-path="url(#pd938f5fb0a)" d="M 73.832727 107.995187 
L 77.112066 107.989299 
L 80.391405 107.977363 
L 83.670744 107.954414 
L 86.950083 107.912553 
L 90.229421 107.840094 
L 93.50876 107.721009 
L 96.788099 107.535061 
L 100.067438 107.258918 
L 103.346777 106.86837 
L 106.626116 106.341376 
L 109.905455 105.661341 
L 113.184793 104.819817 
L 116.464132 103.818028 
L 119.743471 102.667044 
L 123.02281 101.386961 
L 126.302149 100.005622 
L 129.581488 98.557169 
L 132.860826 97.080173 
L 136.140165 95.614785 
L 139.419504 94.198649 
L 142.698843 92.862255 
L 145.978182 91.625328 
L 149.257521 90.495944 
L 152.53686 89.473089 
L 155.816198 88.551592 
L 159.095537 87.727094 
L 162.374876 86.998637 
L 165.654215 86.367854 
L 168.933554 85.835603 
L 172.212893 85.398074 
L 175.492231 85.044255 
L 178.77157 84.755447 
L 182.050909 84.506267 
L 185.330248 84.266028 
L 188.609587 83.999639 
L 191.888926 83.667837 
L 195.168264 83.227096 
L 198.447603 82.629943 
L 201.726942 81.826777 
L 205.006281 80.77066 
L 208.28562 79.426517 
L 211.564959 77.78509 
L 214.844298 75.879573 
L 218.123636 73.799953 
L 221.402975 71.6981 
L 224.682314 69.777367 
L 227.961653 68.26441 
L 231.240992 67.367178 
L 234.520331 67.229176 
L 237.799669 67.893367 
L 241.079008 69.287605 
L 244.358347 71.237391 
L 247.637686 73.503035 
L 250.917025 75.830412 
L 254.196364 78.000304 
L 257.475702 79.862568 
L 260.755041 81.347418 
L 264.03438 82.454492 
L 267.313719 83.227756 
L 270.593058 83.727806 
L 273.872397 84.011708 
L 277.151736 84.125248 
L 280.431074 84.106128 
L 283.710413 83.992264 
L 286.989752 83.828618 
L 290.269091 83.668574 
L 293.54843 83.569755 
L 296.827769 83.587007 
L 300.107107 83.765837 
L 303.386446 84.138207 
L 306.665785 84.720755 
L 309.945124 85.514524 
L 313.224463 86.505519 
L 316.503802 87.666226 
L 319.78314 88.958754 
L 323.062479 90.339902 
L 326.341818 91.767529 
L 329.621157 93.206684 
L 332.900496 94.633651 
L 336.179835 96.036531 
L 339.459174 97.412139 
L 342.738512 98.760251 
L 346.017851 100.077267 
L 349.29719 101.351592 
L 352.576529 102.562471 
L 355.855868 103.682691 
L 359.135207 104.684144 
L 362.414545 105.544198 
L 365.693884 106.250712 
L 368.973223 106.804215 
L 372.252562 107.216936 
L 375.531901 107.509466 
L 378.81124 107.706397 
L 382.090579 107.832253 
L 385.369917 107.908587 
L 388.649256 107.952518 
L 391.928595 107.976506 
L 395.207934 107.988932 
L 398.487273 107.995038 
" style="fill:none;stroke:#00008b;stroke-linecap:square;stroke-width:4;"/>
   </g>
   <g id="patch_53">
    <path d="M 57.6 108 
L 57.6 41.472 
" style="fill:none;stroke:#000000;stroke-linecap:square;stroke-linejoin:miter;stroke-width:0.8;"/>
   </g>
   <g id="patch_54">
    <path d="M 414.72 108 
L 414.72 41.472 
" style="fill:none;stroke:#000000;stroke-linecap:square;stroke-linejoin:miter;stroke-width:0.8;"/>
   </g>
   <g id="patch_55">
    <path d="M 57.6 108 
L 414.72 108 
" style="fill:none;stroke:#000000;stroke-linecap:square;stroke-linejoin:miter;stroke-width:0.8;"/>
   </g>
   <g id="patch_56">
    <path d="M 57.6 41.472 
L 414.72 41.472 
" style="fill:none;stroke:#000000;stroke-linecap:square;stroke-linejoin:miter;stroke-width:0.8;"/>
   </g>
   <g id="legend_1">
    <g id="patch_57">
     <path d="M 369.80125 64.150125 
L 407.72 64.150125 
Q 409.72 64.150125 409.72 62.150125 
L 409.72 48.472 
Q 409.72 46.472 407.72 46.472 
L 369.80125 46.472 
Q 367.80125 46.472 367.80125 48.472 
L 367.80125 62.150125 
Q 367.80125 64.150125 369.80125 64.150125 
z
" style="fill:#ffffff;opacity:0.8;stroke:#cccccc;stroke-linejoin:miter;"/>
    </g>
    <g id="patch_58">
     <path d="M 371.80125 58.070438 
L 391.80125 58.070438 
L 391.80125 51.070438 
L 371.80125 51.070438 
z
" style="fill:#00008b;opacity:0.4;stroke:#000000;stroke-linejoin:miter;"/>
    </g>
    <g id="text_9">
     <!-- x -->
     <defs>
      <path d="M 54.890625 54.6875 
L 35.109375 28.078125 
L 55.90625 0 
L 45.3125 0 
L 29.390625 21.484375 
L 13.484375 0 
L 2.875 0 
L 24.125 28.609375 
L 4.6875 54.6875 
L 15.28125 54.6875 
L 29.78125 35.203125 
L 44.28125 54.6875 
z
" id="DejaVuSans-120"/>
     </defs>
     <g transform="translate(399.80125 58.070438)scale(0.1 -0.1)">
      <use xlink:href="#DejaVuSans-120"/>
     </g>
    </g>
   </g>
  </g>
  <g id="axes_2">
   <g id="patch_59">
    <path d="M 57.6 207.792 
L 414.72 207.792 
L 414.72 141.264 
L 57.6 141.264 
z
" style="fill:#ffffff;"/>
   </g>
   <g id="patch_60">
    <path clip-path="url(#p8a3fb454b4)" d="M 116.47257 207.792 
L 121.260067 207.792 
L 121.260067 207.125053 
L 116.47257 207.125053 
z
" style="fill:#006400;opacity:0.4;stroke:#000000;stroke-linejoin:miter;"/>
   </g>
   <g id="patch_61">
    <path clip-path="url(#p8a3fb454b4)" d="M 121.260067 207.792 
L 126.047564 207.792 
L 126.047564 206.458105 
L 121.260067 206.458105 
z
" style="fill:#006400;opacity:0.4;stroke:#000000;stroke-linejoin:miter;"/>
   </g>
   <g id="patch_62">
    <path clip-path="url(#p8a3fb454b4)" d="M 126.047564 207.792 
L 130.835062 207.792 
L 130.835062 204.457263 
L 126.047564 204.457263 
z
" style="fill:#006400;opacity:0.4;stroke:#000000;stroke-linejoin:miter;"/>
   </g>
   <g id="patch_63">
    <path clip-path="url(#p8a3fb454b4)" d="M 130.835062 207.792 
L 135.622559 207.792 
L 135.622559 203.790316 
L 130.835062 203.790316 
z
" style="fill:#006400;opacity:0.4;stroke:#000000;stroke-linejoin:miter;"/>
   </g>
   <g id="patch_64">
    <path clip-path="url(#p8a3fb454b4)" d="M 135.622559 207.792 
L 140.410056 207.792 
L 140.410056 195.786947 
L 135.622559 195.786947 
z
" style="fill:#006400;opacity:0.4;stroke:#000000;stroke-linejoin:miter;"/>
   </g>
   <g id="patch_65">
    <path clip-path="url(#p8a3fb454b4)" d="M 140.410056 207.792 
L 145.197553 207.792 
L 145.197553 191.785263 
L 140.410056 191.785263 
z
" style="fill:#006400;opacity:0.4;stroke:#000000;stroke-linejoin:miter;"/>
   </g>
   <g id="patch_66">
    <path clip-path="url(#p8a3fb454b4)" d="M 145.197553 207.792 
L 149.98505 207.792 
L 149.98505 194.453053 
L 145.197553 194.453053 
z
" style="fill:#006400;opacity:0.4;stroke:#000000;stroke-linejoin:miter;"/>
   </g>
   <g id="patch_67">
    <path clip-path="url(#p8a3fb454b4)" d="M 149.98505 207.792 
L 154.772548 207.792 
L 154.772548 188.450526 
L 149.98505 188.450526 
z
" style="fill:#006400;opacity:0.4;stroke:#000000;stroke-linejoin:miter;"/>
   </g>
   <g id="patch_68">
    <path clip-path="url(#p8a3fb454b4)" d="M 154.772548 207.792 
L 159.560045 207.792 
L 159.560045 186.449684 
L 154.772548 186.449684 
z
" style="fill:#006400;opacity:0.4;stroke:#000000;stroke-linejoin:miter;"/>
   </g>
   <g id="patch_69">
    <path clip-path="url(#p8a3fb454b4)" d="M 159.560045 207.792 
L 164.347542 207.792 
L 164.347542 188.450526 
L 159.560045 188.450526 
z
" style="fill:#006400;opacity:0.4;stroke:#000000;stroke-linejoin:miter;"/>
   </g>
   <g id="patch_70">
    <path clip-path="url(#p8a3fb454b4)" d="M 164.347542 207.792 
L 169.135039 207.792 
L 169.135039 181.781053 
L 164.347542 181.781053 
z
" style="fill:#006400;opacity:0.4;stroke:#000000;stroke-linejoin:miter;"/>
   </g>
   <g id="patch_71">
    <path clip-path="url(#p8a3fb454b4)" d="M 169.135039 207.792 
L 173.922536 207.792 
L 173.922536 190.451368 
L 169.135039 190.451368 
z
" style="fill:#006400;opacity:0.4;stroke:#000000;stroke-linejoin:miter;"/>
   </g>
   <g id="patch_72">
    <path clip-path="url(#p8a3fb454b4)" d="M 173.922536 207.792 
L 178.710034 207.792 
L 178.710034 188.450526 
L 173.922536 188.450526 
z
" style="fill:#006400;opacity:0.4;stroke:#000000;stroke-linejoin:miter;"/>
   </g>
   <g id="patch_73">
    <path clip-path="url(#p8a3fb454b4)" d="M 178.710034 207.792 
L 183.497531 207.792 
L 183.497531 194.453053 
L 178.710034 194.453053 
z
" style="fill:#006400;opacity:0.4;stroke:#000000;stroke-linejoin:miter;"/>
   </g>
   <g id="patch_74">
    <path clip-path="url(#p8a3fb454b4)" d="M 183.497531 207.792 
L 188.285028 207.792 
L 188.285028 195.12 
L 183.497531 195.12 
z
" style="fill:#006400;opacity:0.4;stroke:#000000;stroke-linejoin:miter;"/>
   </g>
   <g id="patch_75">
    <path clip-path="url(#p8a3fb454b4)" d="M 188.285028 207.792 
L 193.072525 207.792 
L 193.072525 195.12 
L 188.285028 195.12 
z
" style="fill:#006400;opacity:0.4;stroke:#000000;stroke-linejoin:miter;"/>
   </g>
   <g id="patch_76">
    <path clip-path="url(#p8a3fb454b4)" d="M 193.072525 207.792 
L 197.860022 207.792 
L 197.860022 200.455579 
L 193.072525 200.455579 
z
" style="fill:#006400;opacity:0.4;stroke:#000000;stroke-linejoin:miter;"/>
   </g>
   <g id="patch_77">
    <path clip-path="url(#p8a3fb454b4)" d="M 197.860022 207.792 
L 202.64752 207.792 
L 202.64752 203.123368 
L 197.860022 203.123368 
z
" style="fill:#006400;opacity:0.4;stroke:#000000;stroke-linejoin:miter;"/>
   </g>
   <g id="patch_78">
    <path clip-path="url(#p8a3fb454b4)" d="M 202.64752 207.792 
L 207.435017 207.792 
L 207.435017 201.122526 
L 202.64752 201.122526 
z
" style="fill:#006400;opacity:0.4;stroke:#000000;stroke-linejoin:miter;"/>
   </g>
   <g id="patch_79">
    <path clip-path="url(#p8a3fb454b4)" d="M 207.435017 207.792 
L 212.222514 207.792 
L 212.222514 204.457263 
L 207.435017 204.457263 
z
" style="fill:#006400;opacity:0.4;stroke:#000000;stroke-linejoin:miter;"/>
   </g>
   <g id="patch_80">
    <path clip-path="url(#p8a3fb454b4)" d="M 212.222514 207.792 
L 217.010011 207.792 
L 217.010011 195.786947 
L 212.222514 195.786947 
z
" style="fill:#006400;opacity:0.4;stroke:#000000;stroke-linejoin:miter;"/>
   </g>
   <g id="patch_81">
    <path clip-path="url(#p8a3fb454b4)" d="M 217.010011 207.792 
L 221.797508 207.792 
L 221.797508 203.123368 
L 217.010011 203.123368 
z
" style="fill:#006400;opacity:0.4;stroke:#000000;stroke-linejoin:miter;"/>
   </g>
   <g id="patch_82">
    <path clip-path="url(#p8a3fb454b4)" d="M 221.797508 207.792 
L 226.585006 207.792 
L 226.585006 187.783579 
L 221.797508 187.783579 
z
" style="fill:#006400;opacity:0.4;stroke:#000000;stroke-linejoin:miter;"/>
   </g>
   <g id="patch_83">
    <path clip-path="url(#p8a3fb454b4)" d="M 226.585006 207.792 
L 231.372503 207.792 
L 231.372503 177.779368 
L 226.585006 177.779368 
z
" style="fill:#006400;opacity:0.4;stroke:#000000;stroke-linejoin:miter;"/>
   </g>
   <g id="patch_84">
    <path clip-path="url(#p8a3fb454b4)" d="M 231.372503 207.792 
L 236.16 207.792 
L 236.16 149.767579 
L 231.372503 149.767579 
z
" style="fill:#006400;opacity:0.4;stroke:#000000;stroke-linejoin:miter;"/>
   </g>
   <g id="patch_85">
    <path clip-path="url(#p8a3fb454b4)" d="M 236.16 207.792 
L 240.947497 207.792 
L 240.947497 165.107368 
L 236.16 165.107368 
z
" style="fill:#006400;opacity:0.4;stroke:#000000;stroke-linejoin:miter;"/>
   </g>
   <g id="patch_86">
    <path clip-path="url(#p8a3fb454b4)" d="M 240.947497 207.792 
L 245.734994 207.792 
L 245.734994 144.432 
L 240.947497 144.432 
z
" style="fill:#006400;opacity:0.4;stroke:#000000;stroke-linejoin:miter;"/>
   </g>
   <g id="patch_87">
    <path clip-path="url(#p8a3fb454b4)" d="M 245.734994 207.792 
L 250.522492 207.792 
L 250.522492 175.111579 
L 245.734994 175.111579 
z
" style="fill:#006400;opacity:0.4;stroke:#000000;stroke-linejoin:miter;"/>
   </g>
   <g id="patch_88">
    <path clip-path="url(#p8a3fb454b4)" d="M 250.522492 207.792 
L 255.309989 207.792 
L 255.309989 179.113263 
L 250.522492 179.113263 
z
" style="fill:#006400;opacity:0.4;stroke:#000000;stroke-linejoin:miter;"/>
   </g>
   <g id="patch_89">
    <path clip-path="url(#p8a3fb454b4)" d="M 255.309989 207.792 
L 260.097486 207.792 
L 260.097486 197.120842 
L 255.309989 197.120842 
z
" style="fill:#006400;opacity:0.4;stroke:#000000;stroke-linejoin:miter;"/>
   </g>
   <g id="patch_90">
    <path clip-path="url(#p8a3fb454b4)" d="M 260.097486 207.792 
L 264.884983 207.792 
L 264.884983 191.118316 
L 260.097486 191.118316 
z
" style="fill:#006400;opacity:0.4;stroke:#000000;stroke-linejoin:miter;"/>
   </g>
   <g id="patch_91">
    <path clip-path="url(#p8a3fb454b4)" d="M 264.884983 207.792 
L 269.67248 207.792 
L 269.67248 201.122526 
L 264.884983 201.122526 
z
" style="fill:#006400;opacity:0.4;stroke:#000000;stroke-linejoin:miter;"/>
   </g>
   <g id="patch_92">
    <path clip-path="url(#p8a3fb454b4)" d="M 269.67248 207.792 
L 274.459978 207.792 
L 274.459978 197.787789 
L 269.67248 197.787789 
z
" style="fill:#006400;opacity:0.4;stroke:#000000;stroke-linejoin:miter;"/>
   </g>
   <g id="patch_93">
    <path clip-path="url(#p8a3fb454b4)" d="M 274.459978 207.792 
L 279.247475 207.792 
L 279.247475 202.456421 
L 274.459978 202.456421 
z
" style="fill:#006400;opacity:0.4;stroke:#000000;stroke-linejoin:miter;"/>
   </g>
   <g id="patch_94">
    <path clip-path="url(#p8a3fb454b4)" d="M 279.247475 207.792 
L 284.034972 207.792 
L 284.034972 200.455579 
L 279.247475 200.455579 
z
" style="fill:#006400;opacity:0.4;stroke:#000000;stroke-linejoin:miter;"/>
   </g>
   <g id="patch_95">
    <path clip-path="url(#p8a3fb454b4)" d="M 284.034972 207.792 
L 288.822469 207.792 
L 288.822469 196.453895 
L 284.034972 196.453895 
z
" style="fill:#006400;opacity:0.4;stroke:#000000;stroke-linejoin:miter;"/>
   </g>
   <g id="patch_96">
    <path clip-path="url(#p8a3fb454b4)" d="M 288.822469 207.792 
L 293.609966 207.792 
L 293.609966 196.453895 
L 288.822469 196.453895 
z
" style="fill:#006400;opacity:0.4;stroke:#000000;stroke-linejoin:miter;"/>
   </g>
   <g id="patch_97">
    <path clip-path="url(#p8a3fb454b4)" d="M 293.609966 207.792 
L 298.397464 207.792 
L 298.397464 199.788632 
L 293.609966 199.788632 
z
" style="fill:#006400;opacity:0.4;stroke:#000000;stroke-linejoin:miter;"/>
   </g>
   <g id="patch_98">
    <path clip-path="url(#p8a3fb454b4)" d="M 298.397464 207.792 
L 303.184961 207.792 
L 303.184961 195.786947 
L 298.397464 195.786947 
z
" style="fill:#006400;opacity:0.4;stroke:#000000;stroke-linejoin:miter;"/>
   </g>
   <g id="patch_99">
    <path clip-path="url(#p8a3fb454b4)" d="M 303.184961 207.792 
L 307.972458 207.792 
L 307.972458 183.781895 
L 303.184961 183.781895 
z
" style="fill:#006400;opacity:0.4;stroke:#000000;stroke-linejoin:miter;"/>
   </g>
   <g id="patch_100">
    <path clip-path="url(#p8a3fb454b4)" d="M 307.972458 207.792 
L 312.759955 207.792 
L 312.759955 184.448842 
L 307.972458 184.448842 
z
" style="fill:#006400;opacity:0.4;stroke:#000000;stroke-linejoin:miter;"/>
   </g>
   <g id="patch_101">
    <path clip-path="url(#p8a3fb454b4)" d="M 312.759955 207.792 
L 317.547452 207.792 
L 317.547452 183.781895 
L 312.759955 183.781895 
z
" style="fill:#006400;opacity:0.4;stroke:#000000;stroke-linejoin:miter;"/>
   </g>
   <g id="patch_102">
    <path clip-path="url(#p8a3fb454b4)" d="M 317.547452 207.792 
L 322.33495 207.792 
L 322.33495 173.110737 
L 317.547452 173.110737 
z
" style="fill:#006400;opacity:0.4;stroke:#000000;stroke-linejoin:miter;"/>
   </g>
   <g id="patch_103">
    <path clip-path="url(#p8a3fb454b4)" d="M 322.33495 207.792 
L 327.122447 207.792 
L 327.122447 189.117474 
L 322.33495 189.117474 
z
" style="fill:#006400;opacity:0.4;stroke:#000000;stroke-linejoin:miter;"/>
   </g>
   <g id="patch_104">
    <path clip-path="url(#p8a3fb454b4)" d="M 327.122447 207.792 
L 331.909944 207.792 
L 331.909944 191.118316 
L 327.122447 191.118316 
z
" style="fill:#006400;opacity:0.4;stroke:#000000;stroke-linejoin:miter;"/>
   </g>
   <g id="patch_105">
    <path clip-path="url(#p8a3fb454b4)" d="M 331.909944 207.792 
L 336.697441 207.792 
L 336.697441 192.452211 
L 331.909944 192.452211 
z
" style="fill:#006400;opacity:0.4;stroke:#000000;stroke-linejoin:miter;"/>
   </g>
   <g id="patch_106">
    <path clip-path="url(#p8a3fb454b4)" d="M 336.697441 207.792 
L 341.484938 207.792 
L 341.484938 203.123368 
L 336.697441 203.123368 
z
" style="fill:#006400;opacity:0.4;stroke:#000000;stroke-linejoin:miter;"/>
   </g>
   <g id="patch_107">
    <path clip-path="url(#p8a3fb454b4)" d="M 341.484938 207.792 
L 346.272436 207.792 
L 346.272436 203.790316 
L 341.484938 203.790316 
z
" style="fill:#006400;opacity:0.4;stroke:#000000;stroke-linejoin:miter;"/>
   </g>
   <g id="patch_108">
    <path clip-path="url(#p8a3fb454b4)" d="M 346.272436 207.792 
L 351.059933 207.792 
L 351.059933 199.788632 
L 346.272436 199.788632 
z
" style="fill:#006400;opacity:0.4;stroke:#000000;stroke-linejoin:miter;"/>
   </g>
   <g id="patch_109">
    <path clip-path="url(#p8a3fb454b4)" d="M 351.059933 207.792 
L 355.84743 207.792 
L 355.84743 205.124211 
L 351.059933 205.124211 
z
" style="fill:#006400;opacity:0.4;stroke:#000000;stroke-linejoin:miter;"/>
   </g>
   <g id="matplotlib.axis_3">
    <g id="xtick_6">
     <g id="line2d_9">
      <g>
       <use style="stroke:#000000;stroke-width:0.8;" x="90.269911" xlink:href="#m75944b9aa3" y="207.792"/>
      </g>
     </g>
     <g id="text_10">
      <!-- −1.0 -->
      <g transform="translate(78.128504 222.390437)scale(0.1 -0.1)">
       <use xlink:href="#DejaVuSans-8722"/>
       <use x="83.789062" xlink:href="#DejaVuSans-49"/>
       <use x="147.412109" xlink:href="#DejaVuSans-46"/>
       <use x="179.199219" xlink:href="#DejaVuSans-48"/>
      </g>
     </g>
    </g>
    <g id="xtick_7">
     <g id="line2d_10">
      <g>
       <use style="stroke:#000000;stroke-width:0.8;" x="164.933853" xlink:href="#m75944b9aa3" y="207.792"/>
      </g>
     </g>
     <g id="text_11">
      <!-- −0.5 -->
      <g transform="translate(152.792447 222.390437)scale(0.1 -0.1)">
       <use xlink:href="#DejaVuSans-8722"/>
       <use x="83.789062" xlink:href="#DejaVuSans-48"/>
       <use x="147.412109" xlink:href="#DejaVuSans-46"/>
       <use x="179.199219" xlink:href="#DejaVuSans-53"/>
      </g>
     </g>
    </g>
    <g id="xtick_8">
     <g id="line2d_11">
      <g>
       <use style="stroke:#000000;stroke-width:0.8;" x="239.597795" xlink:href="#m75944b9aa3" y="207.792"/>
      </g>
     </g>
     <g id="text_12">
      <!-- 0.0 -->
      <g transform="translate(231.646232 222.390437)scale(0.1 -0.1)">
       <use xlink:href="#DejaVuSans-48"/>
       <use x="63.623047" xlink:href="#DejaVuSans-46"/>
       <use x="95.410156" xlink:href="#DejaVuSans-48"/>
      </g>
     </g>
    </g>
    <g id="xtick_9">
     <g id="line2d_12">
      <g>
       <use style="stroke:#000000;stroke-width:0.8;" x="314.261737" xlink:href="#m75944b9aa3" y="207.792"/>
      </g>
     </g>
     <g id="text_13">
      <!-- 0.5 -->
      <g transform="translate(306.310175 222.390437)scale(0.1 -0.1)">
       <use xlink:href="#DejaVuSans-48"/>
       <use x="63.623047" xlink:href="#DejaVuSans-46"/>
       <use x="95.410156" xlink:href="#DejaVuSans-53"/>
      </g>
     </g>
    </g>
    <g id="xtick_10">
     <g id="line2d_13">
      <g>
       <use style="stroke:#000000;stroke-width:0.8;" x="388.925679" xlink:href="#m75944b9aa3" y="207.792"/>
      </g>
     </g>
     <g id="text_14">
      <!-- 1.0 -->
      <g transform="translate(380.974117 222.390437)scale(0.1 -0.1)">
       <use xlink:href="#DejaVuSans-49"/>
       <use x="63.623047" xlink:href="#DejaVuSans-46"/>
       <use x="95.410156" xlink:href="#DejaVuSans-48"/>
      </g>
     </g>
    </g>
   </g>
   <g id="matplotlib.axis_4">
    <g id="ytick_3">
     <g id="line2d_14">
      <g>
       <use style="stroke:#000000;stroke-width:0.8;" x="57.6" xlink:href="#m4b0333fd15" y="207.792"/>
      </g>
     </g>
     <g id="text_15">
      <!-- 0 -->
      <g transform="translate(44.2375 211.591219)scale(0.1 -0.1)">
       <use xlink:href="#DejaVuSans-48"/>
      </g>
     </g>
    </g>
    <g id="ytick_4">
     <g id="line2d_15">
      <g>
       <use style="stroke:#000000;stroke-width:0.8;" x="57.6" xlink:href="#m4b0333fd15" y="182.090193"/>
      </g>
     </g>
     <g id="text_16">
      <!-- 1 -->
      <g transform="translate(44.2375 185.889412)scale(0.1 -0.1)">
       <use xlink:href="#DejaVuSans-49"/>
      </g>
     </g>
    </g>
    <g id="ytick_5">
     <g id="line2d_16">
      <g>
       <use style="stroke:#000000;stroke-width:0.8;" x="57.6" xlink:href="#m4b0333fd15" y="156.388387"/>
      </g>
     </g>
     <g id="text_17">
      <!-- 2 -->
      <defs>
       <path d="M 19.1875 8.296875 
L 53.609375 8.296875 
L 53.609375 0 
L 7.328125 0 
L 7.328125 8.296875 
Q 12.9375 14.109375 22.625 23.890625 
Q 32.328125 33.6875 34.8125 36.53125 
Q 39.546875 41.84375 41.421875 45.53125 
Q 43.3125 49.21875 43.3125 52.78125 
Q 43.3125 58.59375 39.234375 62.25 
Q 35.15625 65.921875 28.609375 65.921875 
Q 23.96875 65.921875 18.8125 64.3125 
Q 13.671875 62.703125 7.8125 59.421875 
L 7.8125 69.390625 
Q 13.765625 71.78125 18.9375 73 
Q 24.125 74.21875 28.421875 74.21875 
Q 39.75 74.21875 46.484375 68.546875 
Q 53.21875 62.890625 53.21875 53.421875 
Q 53.21875 48.921875 51.53125 44.890625 
Q 49.859375 40.875 45.40625 35.40625 
Q 44.1875 33.984375 37.640625 27.21875 
Q 31.109375 20.453125 19.1875 8.296875 
z
" id="DejaVuSans-50"/>
      </defs>
      <g transform="translate(44.2375 160.187606)scale(0.1 -0.1)">
       <use xlink:href="#DejaVuSans-50"/>
      </g>
     </g>
    </g>
    <g id="text_18">
     <!-- Density -->
     <g transform="translate(38.157812 193.536594)rotate(-90)scale(0.1 -0.1)">
      <use xlink:href="#DejaVuSans-68"/>
      <use x="77.001953" xlink:href="#DejaVuSans-101"/>
      <use x="138.525391" xlink:href="#DejaVuSans-110"/>
      <use x="201.904297" xlink:href="#DejaVuSans-115"/>
      <use x="254.003906" xlink:href="#DejaVuSans-105"/>
      <use x="281.787109" xlink:href="#DejaVuSans-116"/>
      <use x="320.996094" xlink:href="#DejaVuSans-121"/>
     </g>
    </g>
   </g>
   <g id="line2d_17">
    <path clip-path="url(#p8a3fb454b4)" d="M 73.832727 207.790117 
L 77.112066 207.787993 
L 80.391405 207.783813 
L 83.670744 207.775923 
L 86.950083 207.761609 
L 90.229421 207.736619 
L 93.50876 207.694582 
L 96.788099 207.626358 
L 100.067438 207.519436 
L 103.346777 207.357494 
L 106.626116 207.120372 
L 109.905455 206.784671 
L 113.184793 206.325254 
L 116.464132 205.717749 
L 119.743471 204.941984 
L 123.02281 203.985954 
L 126.302149 202.849607 
L 129.581488 201.547577 
L 132.860826 200.110075 
L 136.140165 198.581517 
L 139.419504 197.017098 
L 142.698843 195.478025 
L 145.978182 194.026482 
L 149.257521 192.721226 
L 152.53686 191.614296 
L 155.816198 190.748714 
L 159.095537 190.15672 
L 162.374876 189.85806 
L 165.654215 189.858253 
L 168.933554 190.147167 
L 172.212893 190.698527 
L 175.492231 191.470816 
L 178.77157 192.409528 
L 182.050909 193.450172 
L 185.330248 194.521092 
L 188.609587 195.545313 
L 191.888926 196.441198 
L 195.168264 197.122501 
L 198.447603 197.499072 
L 201.726942 197.47978 
L 205.006281 196.979034 
L 208.28562 195.927592 
L 211.564959 194.287198 
L 214.844298 192.067082 
L 218.123636 189.338827 
L 221.402975 186.244968 
L 224.682314 182.996745 
L 227.961653 179.857953 
L 231.240992 177.115036 
L 234.520331 175.037508 
L 237.799669 173.836338 
L 241.079008 173.629578 
L 244.358347 174.423476 
L 247.637686 176.113634 
L 250.917025 178.50563 
L 254.196364 181.349579 
L 257.475702 184.380032 
L 260.755041 187.35225 
L 264.03438 190.068106 
L 267.313719 192.388584 
L 270.593058 194.233669 
L 273.872397 195.573154 
L 277.151736 196.41308 
L 280.431074 196.78219 
L 283.710413 196.72165 
L 286.989752 196.279639 
L 290.269091 195.510896 
L 293.54843 194.479875 
L 296.827769 193.265135 
L 300.107107 191.962134 
L 303.386446 190.681943 
L 306.665785 189.544596 
L 309.945124 188.667519 
L 313.224463 188.151197 
L 316.503802 188.065339 
L 319.78314 188.43891 
L 323.062479 189.256469 
L 326.341818 190.461716 
L 329.621157 191.967371 
L 332.900496 193.669093 
L 336.179835 195.460408 
L 339.459174 197.245635 
L 342.738512 198.948634 
L 346.017851 200.516448 
L 349.29719 201.918296 
L 352.576529 203.141421 
L 355.855868 204.185725 
L 359.135207 205.05889 
L 362.414545 205.772951 
L 365.693884 206.342464 
L 368.973223 206.783762 
L 372.252562 207.114585 
L 375.531901 207.353554 
L 378.81124 207.519294 
L 382.090579 207.629337 
L 385.369917 207.699116 
L 388.649256 207.741298 
L 391.928595 207.765575 
L 395.207934 207.778863 
L 398.487273 207.785775 
" style="fill:none;stroke:#006400;stroke-linecap:square;stroke-width:4;"/>
   </g>
   <g id="patch_110">
    <path d="M 57.6 207.792 
L 57.6 141.264 
" style="fill:none;stroke:#000000;stroke-linecap:square;stroke-linejoin:miter;stroke-width:0.8;"/>
   </g>
   <g id="patch_111">
    <path d="M 414.72 207.792 
L 414.72 141.264 
" style="fill:none;stroke:#000000;stroke-linecap:square;stroke-linejoin:miter;stroke-width:0.8;"/>
   </g>
   <g id="patch_112">
    <path d="M 57.6 207.792 
L 414.72 207.792 
" style="fill:none;stroke:#000000;stroke-linecap:square;stroke-linejoin:miter;stroke-width:0.8;"/>
   </g>
   <g id="patch_113">
    <path d="M 57.6 141.264 
L 414.72 141.264 
" style="fill:none;stroke:#000000;stroke-linecap:square;stroke-linejoin:miter;stroke-width:0.8;"/>
   </g>
   <g id="legend_2">
    <g id="patch_114">
     <path d="M 369.80125 163.942125 
L 407.72 163.942125 
Q 409.72 163.942125 409.72 161.942125 
L 409.72 148.264 
Q 409.72 146.264 407.72 146.264 
L 369.80125 146.264 
Q 367.80125 146.264 367.80125 148.264 
L 367.80125 161.942125 
Q 367.80125 163.942125 369.80125 163.942125 
z
" style="fill:#ffffff;opacity:0.8;stroke:#cccccc;stroke-linejoin:miter;"/>
    </g>
    <g id="patch_115">
     <path d="M 371.80125 157.862437 
L 391.80125 157.862437 
L 391.80125 150.862437 
L 371.80125 150.862437 
z
" style="fill:#006400;opacity:0.4;stroke:#000000;stroke-linejoin:miter;"/>
    </g>
    <g id="text_19">
     <!-- y -->
     <g transform="translate(399.80125 157.862437)scale(0.1 -0.1)">
      <use xlink:href="#DejaVuSans-121"/>
     </g>
    </g>
   </g>
  </g>
  <g id="axes_3">
   <g id="patch_116">
    <path d="M 57.6 307.584 
L 414.72 307.584 
L 414.72 241.056 
L 57.6 241.056 
z
" style="fill:#ffffff;"/>
   </g>
   <g id="patch_117">
    <path clip-path="url(#p59c434272f)" d="M 115.358268 307.584 
L 120.190338 307.584 
L 120.190338 306.704 
L 115.358268 306.704 
z
" style="fill:#8b0000;opacity:0.4;stroke:#000000;stroke-linejoin:miter;"/>
   </g>
   <g id="patch_118">
    <path clip-path="url(#p59c434272f)" d="M 120.190338 307.584 
L 125.022407 307.584 
L 125.022407 301.424 
L 120.190338 301.424 
z
" style="fill:#8b0000;opacity:0.4;stroke:#000000;stroke-linejoin:miter;"/>
   </g>
   <g id="patch_119">
    <path clip-path="url(#p59c434272f)" d="M 125.022407 307.584 
L 129.854476 307.584 
L 129.854476 304.064 
L 125.022407 304.064 
z
" style="fill:#8b0000;opacity:0.4;stroke:#000000;stroke-linejoin:miter;"/>
   </g>
   <g id="patch_120">
    <path clip-path="url(#p59c434272f)" d="M 129.854476 307.584 
L 134.686545 307.584 
L 134.686545 299.664 
L 129.854476 299.664 
z
" style="fill:#8b0000;opacity:0.4;stroke:#000000;stroke-linejoin:miter;"/>
   </g>
   <g id="patch_121">
    <path clip-path="url(#p59c434272f)" d="M 134.686545 307.584 
L 139.518615 307.584 
L 139.518615 296.144 
L 134.686545 296.144 
z
" style="fill:#8b0000;opacity:0.4;stroke:#000000;stroke-linejoin:miter;"/>
   </g>
   <g id="patch_122">
    <path clip-path="url(#p59c434272f)" d="M 139.518615 307.584 
L 144.350684 307.584 
L 144.350684 295.264 
L 139.518615 295.264 
z
" style="fill:#8b0000;opacity:0.4;stroke:#000000;stroke-linejoin:miter;"/>
   </g>
   <g id="patch_123">
    <path clip-path="url(#p59c434272f)" d="M 144.350684 307.584 
L 149.182753 307.584 
L 149.182753 284.704 
L 144.350684 284.704 
z
" style="fill:#8b0000;opacity:0.4;stroke:#000000;stroke-linejoin:miter;"/>
   </g>
   <g id="patch_124">
    <path clip-path="url(#p59c434272f)" d="M 149.182753 307.584 
L 154.014822 307.584 
L 154.014822 286.464 
L 149.182753 286.464 
z
" style="fill:#8b0000;opacity:0.4;stroke:#000000;stroke-linejoin:miter;"/>
   </g>
   <g id="patch_125">
    <path clip-path="url(#p59c434272f)" d="M 154.014822 307.584 
L 158.846892 307.584 
L 158.846892 281.184 
L 154.014822 281.184 
z
" style="fill:#8b0000;opacity:0.4;stroke:#000000;stroke-linejoin:miter;"/>
   </g>
   <g id="patch_126">
    <path clip-path="url(#p59c434272f)" d="M 158.846892 307.584 
L 163.678961 307.584 
L 163.678961 295.264 
L 158.846892 295.264 
z
" style="fill:#8b0000;opacity:0.4;stroke:#000000;stroke-linejoin:miter;"/>
   </g>
   <g id="patch_127">
    <path clip-path="url(#p59c434272f)" d="M 163.678961 307.584 
L 168.51103 307.584 
L 168.51103 295.264 
L 163.678961 295.264 
z
" style="fill:#8b0000;opacity:0.4;stroke:#000000;stroke-linejoin:miter;"/>
   </g>
   <g id="patch_128">
    <path clip-path="url(#p59c434272f)" d="M 168.51103 307.584 
L 173.3431 307.584 
L 173.3431 286.464 
L 168.51103 286.464 
z
" style="fill:#8b0000;opacity:0.4;stroke:#000000;stroke-linejoin:miter;"/>
   </g>
   <g id="patch_129">
    <path clip-path="url(#p59c434272f)" d="M 173.3431 307.584 
L 178.175169 307.584 
L 178.175169 271.504 
L 173.3431 271.504 
z
" style="fill:#8b0000;opacity:0.4;stroke:#000000;stroke-linejoin:miter;"/>
   </g>
   <g id="patch_130">
    <path clip-path="url(#p59c434272f)" d="M 178.175169 307.584 
L 183.007238 307.584 
L 183.007238 287.344 
L 178.175169 287.344 
z
" style="fill:#8b0000;opacity:0.4;stroke:#000000;stroke-linejoin:miter;"/>
   </g>
   <g id="patch_131">
    <path clip-path="url(#p59c434272f)" d="M 183.007238 307.584 
L 187.839307 307.584 
L 187.839307 276.784 
L 183.007238 276.784 
z
" style="fill:#8b0000;opacity:0.4;stroke:#000000;stroke-linejoin:miter;"/>
   </g>
   <g id="patch_132">
    <path clip-path="url(#p59c434272f)" d="M 187.839307 307.584 
L 192.671377 307.584 
L 192.671377 277.664 
L 187.839307 277.664 
z
" style="fill:#8b0000;opacity:0.4;stroke:#000000;stroke-linejoin:miter;"/>
   </g>
   <g id="patch_133">
    <path clip-path="url(#p59c434272f)" d="M 192.671377 307.584 
L 197.503446 307.584 
L 197.503446 281.184 
L 192.671377 281.184 
z
" style="fill:#8b0000;opacity:0.4;stroke:#000000;stroke-linejoin:miter;"/>
   </g>
   <g id="patch_134">
    <path clip-path="url(#p59c434272f)" d="M 197.503446 307.584 
L 202.335515 307.584 
L 202.335515 295.264 
L 197.503446 295.264 
z
" style="fill:#8b0000;opacity:0.4;stroke:#000000;stroke-linejoin:miter;"/>
   </g>
   <g id="patch_135">
    <path clip-path="url(#p59c434272f)" d="M 202.335515 307.584 
L 207.167584 307.584 
L 207.167584 284.704 
L 202.335515 284.704 
z
" style="fill:#8b0000;opacity:0.4;stroke:#000000;stroke-linejoin:miter;"/>
   </g>
   <g id="patch_136">
    <path clip-path="url(#p59c434272f)" d="M 207.167584 307.584 
L 211.999654 307.584 
L 211.999654 287.344 
L 207.167584 287.344 
z
" style="fill:#8b0000;opacity:0.4;stroke:#000000;stroke-linejoin:miter;"/>
   </g>
   <g id="patch_137">
    <path clip-path="url(#p59c434272f)" d="M 211.999654 307.584 
L 216.831723 307.584 
L 216.831723 284.704 
L 211.999654 284.704 
z
" style="fill:#8b0000;opacity:0.4;stroke:#000000;stroke-linejoin:miter;"/>
   </g>
   <g id="patch_138">
    <path clip-path="url(#p59c434272f)" d="M 216.831723 307.584 
L 221.663792 307.584 
L 221.663792 274.144 
L 216.831723 274.144 
z
" style="fill:#8b0000;opacity:0.4;stroke:#000000;stroke-linejoin:miter;"/>
   </g>
   <g id="patch_139">
    <path clip-path="url(#p59c434272f)" d="M 221.663792 307.584 
L 226.495861 307.584 
L 226.495861 284.704 
L 221.663792 284.704 
z
" style="fill:#8b0000;opacity:0.4;stroke:#000000;stroke-linejoin:miter;"/>
   </g>
   <g id="patch_140">
    <path clip-path="url(#p59c434272f)" d="M 226.495861 307.584 
L 231.327931 307.584 
L 231.327931 281.184 
L 226.495861 281.184 
z
" style="fill:#8b0000;opacity:0.4;stroke:#000000;stroke-linejoin:miter;"/>
   </g>
   <g id="patch_141">
    <path clip-path="url(#p59c434272f)" d="M 231.327931 307.584 
L 236.16 307.584 
L 236.16 261.824 
L 231.327931 261.824 
z
" style="fill:#8b0000;opacity:0.4;stroke:#000000;stroke-linejoin:miter;"/>
   </g>
   <g id="patch_142">
    <path clip-path="url(#p59c434272f)" d="M 236.16 307.584 
L 240.992069 307.584 
L 240.992069 244.224 
L 236.16 244.224 
z
" style="fill:#8b0000;opacity:0.4;stroke:#000000;stroke-linejoin:miter;"/>
   </g>
   <g id="patch_143">
    <path clip-path="url(#p59c434272f)" d="M 240.992069 307.584 
L 245.824139 307.584 
L 245.824139 263.584 
L 240.992069 263.584 
z
" style="fill:#8b0000;opacity:0.4;stroke:#000000;stroke-linejoin:miter;"/>
   </g>
   <g id="patch_144">
    <path clip-path="url(#p59c434272f)" d="M 245.824139 307.584 
L 250.656208 307.584 
L 250.656208 275.904 
L 245.824139 275.904 
z
" style="fill:#8b0000;opacity:0.4;stroke:#000000;stroke-linejoin:miter;"/>
   </g>
   <g id="patch_145">
    <path clip-path="url(#p59c434272f)" d="M 250.656208 307.584 
L 255.488277 307.584 
L 255.488277 285.584 
L 250.656208 285.584 
z
" style="fill:#8b0000;opacity:0.4;stroke:#000000;stroke-linejoin:miter;"/>
   </g>
   <g id="patch_146">
    <path clip-path="url(#p59c434272f)" d="M 255.488277 307.584 
L 260.320346 307.584 
L 260.320346 293.504 
L 255.488277 293.504 
z
" style="fill:#8b0000;opacity:0.4;stroke:#000000;stroke-linejoin:miter;"/>
   </g>
   <g id="patch_147">
    <path clip-path="url(#p59c434272f)" d="M 260.320346 307.584 
L 265.152416 307.584 
L 265.152416 283.824 
L 260.320346 283.824 
z
" style="fill:#8b0000;opacity:0.4;stroke:#000000;stroke-linejoin:miter;"/>
   </g>
   <g id="patch_148">
    <path clip-path="url(#p59c434272f)" d="M 265.152416 307.584 
L 269.984485 307.584 
L 269.984485 282.944 
L 265.152416 282.944 
z
" style="fill:#8b0000;opacity:0.4;stroke:#000000;stroke-linejoin:miter;"/>
   </g>
   <g id="patch_149">
    <path clip-path="url(#p59c434272f)" d="M 269.984485 307.584 
L 274.816554 307.584 
L 274.816554 291.744 
L 269.984485 291.744 
z
" style="fill:#8b0000;opacity:0.4;stroke:#000000;stroke-linejoin:miter;"/>
   </g>
   <g id="patch_150">
    <path clip-path="url(#p59c434272f)" d="M 274.816554 307.584 
L 279.648623 307.584 
L 279.648623 278.544 
L 274.816554 278.544 
z
" style="fill:#8b0000;opacity:0.4;stroke:#000000;stroke-linejoin:miter;"/>
   </g>
   <g id="patch_151">
    <path clip-path="url(#p59c434272f)" d="M 279.648623 307.584 
L 284.480693 307.584 
L 284.480693 283.824 
L 279.648623 283.824 
z
" style="fill:#8b0000;opacity:0.4;stroke:#000000;stroke-linejoin:miter;"/>
   </g>
   <g id="patch_152">
    <path clip-path="url(#p59c434272f)" d="M 284.480693 307.584 
L 289.312762 307.584 
L 289.312762 279.424 
L 284.480693 279.424 
z
" style="fill:#8b0000;opacity:0.4;stroke:#000000;stroke-linejoin:miter;"/>
   </g>
   <g id="patch_153">
    <path clip-path="url(#p59c434272f)" d="M 289.312762 307.584 
L 294.144831 307.584 
L 294.144831 286.464 
L 289.312762 286.464 
z
" style="fill:#8b0000;opacity:0.4;stroke:#000000;stroke-linejoin:miter;"/>
   </g>
   <g id="patch_154">
    <path clip-path="url(#p59c434272f)" d="M 294.144831 307.584 
L 298.9769 307.584 
L 298.9769 278.544 
L 294.144831 278.544 
z
" style="fill:#8b0000;opacity:0.4;stroke:#000000;stroke-linejoin:miter;"/>
   </g>
   <g id="patch_155">
    <path clip-path="url(#p59c434272f)" d="M 298.9769 307.584 
L 303.80897 307.584 
L 303.80897 293.504 
L 298.9769 293.504 
z
" style="fill:#8b0000;opacity:0.4;stroke:#000000;stroke-linejoin:miter;"/>
   </g>
   <g id="patch_156">
    <path clip-path="url(#p59c434272f)" d="M 303.80897 307.584 
L 308.641039 307.584 
L 308.641039 291.744 
L 303.80897 291.744 
z
" style="fill:#8b0000;opacity:0.4;stroke:#000000;stroke-linejoin:miter;"/>
   </g>
   <g id="patch_157">
    <path clip-path="url(#p59c434272f)" d="M 308.641039 307.584 
L 313.473108 307.584 
L 313.473108 289.104 
L 308.641039 289.104 
z
" style="fill:#8b0000;opacity:0.4;stroke:#000000;stroke-linejoin:miter;"/>
   </g>
   <g id="patch_158">
    <path clip-path="url(#p59c434272f)" d="M 313.473108 307.584 
L 318.305178 307.584 
L 318.305178 286.464 
L 313.473108 286.464 
z
" style="fill:#8b0000;opacity:0.4;stroke:#000000;stroke-linejoin:miter;"/>
   </g>
   <g id="patch_159">
    <path clip-path="url(#p59c434272f)" d="M 318.305178 307.584 
L 323.137247 307.584 
L 323.137247 294.384 
L 318.305178 294.384 
z
" style="fill:#8b0000;opacity:0.4;stroke:#000000;stroke-linejoin:miter;"/>
   </g>
   <g id="patch_160">
    <path clip-path="url(#p59c434272f)" d="M 323.137247 307.584 
L 327.969316 307.584 
L 327.969316 280.304 
L 323.137247 280.304 
z
" style="fill:#8b0000;opacity:0.4;stroke:#000000;stroke-linejoin:miter;"/>
   </g>
   <g id="patch_161">
    <path clip-path="url(#p59c434272f)" d="M 327.969316 307.584 
L 332.801385 307.584 
L 332.801385 289.104 
L 327.969316 289.104 
z
" style="fill:#8b0000;opacity:0.4;stroke:#000000;stroke-linejoin:miter;"/>
   </g>
   <g id="patch_162">
    <path clip-path="url(#p59c434272f)" d="M 332.801385 307.584 
L 337.633455 307.584 
L 337.633455 290.864 
L 332.801385 290.864 
z
" style="fill:#8b0000;opacity:0.4;stroke:#000000;stroke-linejoin:miter;"/>
   </g>
   <g id="patch_163">
    <path clip-path="url(#p59c434272f)" d="M 337.633455 307.584 
L 342.465524 307.584 
L 342.465524 293.504 
L 337.633455 293.504 
z
" style="fill:#8b0000;opacity:0.4;stroke:#000000;stroke-linejoin:miter;"/>
   </g>
   <g id="patch_164">
    <path clip-path="url(#p59c434272f)" d="M 342.465524 307.584 
L 347.297593 307.584 
L 347.297593 295.264 
L 342.465524 295.264 
z
" style="fill:#8b0000;opacity:0.4;stroke:#000000;stroke-linejoin:miter;"/>
   </g>
   <g id="patch_165">
    <path clip-path="url(#p59c434272f)" d="M 347.297593 307.584 
L 352.129662 307.584 
L 352.129662 303.184 
L 347.297593 303.184 
z
" style="fill:#8b0000;opacity:0.4;stroke:#000000;stroke-linejoin:miter;"/>
   </g>
   <g id="patch_166">
    <path clip-path="url(#p59c434272f)" d="M 352.129662 307.584 
L 356.961732 307.584 
L 356.961732 304.944 
L 352.129662 304.944 
z
" style="fill:#8b0000;opacity:0.4;stroke:#000000;stroke-linejoin:miter;"/>
   </g>
   <g id="matplotlib.axis_5">
    <g id="xtick_11">
     <g id="line2d_18">
      <g>
       <use style="stroke:#000000;stroke-width:0.8;" x="100.359476" xlink:href="#m75944b9aa3" y="307.584"/>
      </g>
     </g>
     <g id="text_20">
      <!-- −1.0 -->
      <g transform="translate(88.21807 322.182437)scale(0.1 -0.1)">
       <use xlink:href="#DejaVuSans-8722"/>
       <use x="83.789062" xlink:href="#DejaVuSans-49"/>
       <use x="147.412109" xlink:href="#DejaVuSans-46"/>
       <use x="179.199219" xlink:href="#DejaVuSans-48"/>
      </g>
     </g>
    </g>
    <g id="xtick_12">
     <g id="line2d_19">
      <g>
       <use style="stroke:#000000;stroke-width:0.8;" x="169.673893" xlink:href="#m75944b9aa3" y="307.584"/>
      </g>
     </g>
     <g id="text_21">
      <!-- −0.5 -->
      <g transform="translate(157.532487 322.182437)scale(0.1 -0.1)">
       <use xlink:href="#DejaVuSans-8722"/>
       <use x="83.789062" xlink:href="#DejaVuSans-48"/>
       <use x="147.412109" xlink:href="#DejaVuSans-46"/>
       <use x="179.199219" xlink:href="#DejaVuSans-53"/>
      </g>
     </g>
    </g>
    <g id="xtick_13">
     <g id="line2d_20">
      <g>
       <use style="stroke:#000000;stroke-width:0.8;" x="238.988311" xlink:href="#m75944b9aa3" y="307.584"/>
      </g>
     </g>
     <g id="text_22">
      <!-- 0.0 -->
      <g transform="translate(231.036748 322.182437)scale(0.1 -0.1)">
       <use xlink:href="#DejaVuSans-48"/>
       <use x="63.623047" xlink:href="#DejaVuSans-46"/>
       <use x="95.410156" xlink:href="#DejaVuSans-48"/>
      </g>
     </g>
    </g>
    <g id="xtick_14">
     <g id="line2d_21">
      <g>
       <use style="stroke:#000000;stroke-width:0.8;" x="308.302728" xlink:href="#m75944b9aa3" y="307.584"/>
      </g>
     </g>
     <g id="text_23">
      <!-- 0.5 -->
      <g transform="translate(300.351165 322.182437)scale(0.1 -0.1)">
       <use xlink:href="#DejaVuSans-48"/>
       <use x="63.623047" xlink:href="#DejaVuSans-46"/>
       <use x="95.410156" xlink:href="#DejaVuSans-53"/>
      </g>
     </g>
    </g>
    <g id="xtick_15">
     <g id="line2d_22">
      <g>
       <use style="stroke:#000000;stroke-width:0.8;" x="377.617145" xlink:href="#m75944b9aa3" y="307.584"/>
      </g>
     </g>
     <g id="text_24">
      <!-- 1.0 -->
      <g transform="translate(369.665582 322.182437)scale(0.1 -0.1)">
       <use xlink:href="#DejaVuSans-49"/>
       <use x="63.623047" xlink:href="#DejaVuSans-46"/>
       <use x="95.410156" xlink:href="#DejaVuSans-48"/>
      </g>
     </g>
    </g>
    <g id="text_25">
     <!-- Position -->
     <defs>
      <path d="M 19.671875 64.796875 
L 19.671875 37.40625 
L 32.078125 37.40625 
Q 38.96875 37.40625 42.71875 40.96875 
Q 46.484375 44.53125 46.484375 51.125 
Q 46.484375 57.671875 42.71875 61.234375 
Q 38.96875 64.796875 32.078125 64.796875 
z
M 9.8125 72.90625 
L 32.078125 72.90625 
Q 44.34375 72.90625 50.609375 67.359375 
Q 56.890625 61.8125 56.890625 51.125 
Q 56.890625 40.328125 50.609375 34.8125 
Q 44.34375 29.296875 32.078125 29.296875 
L 19.671875 29.296875 
L 19.671875 0 
L 9.8125 0 
z
" id="DejaVuSans-80"/>
      <path d="M 30.609375 48.390625 
Q 23.390625 48.390625 19.1875 42.75 
Q 14.984375 37.109375 14.984375 27.296875 
Q 14.984375 17.484375 19.15625 11.84375 
Q 23.34375 6.203125 30.609375 6.203125 
Q 37.796875 6.203125 41.984375 11.859375 
Q 46.1875 17.53125 46.1875 27.296875 
Q 46.1875 37.015625 41.984375 42.703125 
Q 37.796875 48.390625 30.609375 48.390625 
z
M 30.609375 56 
Q 42.328125 56 49.015625 48.375 
Q 55.71875 40.765625 55.71875 27.296875 
Q 55.71875 13.875 49.015625 6.21875 
Q 42.328125 -1.421875 30.609375 -1.421875 
Q 18.84375 -1.421875 12.171875 6.21875 
Q 5.515625 13.875 5.515625 27.296875 
Q 5.515625 40.765625 12.171875 48.375 
Q 18.84375 56 30.609375 56 
z
" id="DejaVuSans-111"/>
     </defs>
     <g transform="translate(216.517031 335.860562)scale(0.1 -0.1)">
      <use xlink:href="#DejaVuSans-80"/>
      <use x="60.255859" xlink:href="#DejaVuSans-111"/>
      <use x="121.4375" xlink:href="#DejaVuSans-115"/>
      <use x="173.537109" xlink:href="#DejaVuSans-105"/>
      <use x="201.320312" xlink:href="#DejaVuSans-116"/>
      <use x="240.529297" xlink:href="#DejaVuSans-105"/>
      <use x="268.3125" xlink:href="#DejaVuSans-111"/>
      <use x="329.494141" xlink:href="#DejaVuSans-110"/>
     </g>
    </g>
   </g>
   <g id="matplotlib.axis_6">
    <g id="ytick_6">
     <g id="line2d_23">
      <g>
       <use style="stroke:#000000;stroke-width:0.8;" x="57.6" xlink:href="#m4b0333fd15" y="307.584"/>
      </g>
     </g>
     <g id="text_26">
      <!-- 0 -->
      <g transform="translate(44.2375 311.383219)scale(0.1 -0.1)">
       <use xlink:href="#DejaVuSans-48"/>
      </g>
     </g>
    </g>
    <g id="ytick_7">
     <g id="line2d_24">
      <g>
       <use style="stroke:#000000;stroke-width:0.8;" x="57.6" xlink:href="#m4b0333fd15" y="270.714545"/>
      </g>
     </g>
     <g id="text_27">
      <!-- 1 -->
      <g transform="translate(44.2375 274.513764)scale(0.1 -0.1)">
       <use xlink:href="#DejaVuSans-49"/>
      </g>
     </g>
    </g>
    <g id="text_28">
     <!-- Density -->
     <g transform="translate(38.157812 293.328594)rotate(-90)scale(0.1 -0.1)">
      <use xlink:href="#DejaVuSans-68"/>
      <use x="77.001953" xlink:href="#DejaVuSans-101"/>
      <use x="138.525391" xlink:href="#DejaVuSans-110"/>
      <use x="201.904297" xlink:href="#DejaVuSans-115"/>
      <use x="254.003906" xlink:href="#DejaVuSans-105"/>
      <use x="281.787109" xlink:href="#DejaVuSans-116"/>
      <use x="320.996094" xlink:href="#DejaVuSans-121"/>
     </g>
    </g>
   </g>
   <g id="line2d_25">
    <path clip-path="url(#p59c434272f)" d="M 73.832727 307.580712 
L 77.112066 307.576835 
L 80.391405 307.569095 
L 83.670744 307.554384 
L 86.950083 307.527733 
L 90.229421 307.481671 
L 93.50876 307.405627 
L 96.788099 307.285547 
L 100.067438 307.103878 
L 103.346777 306.840065 
L 106.626116 306.471596 
L 109.905455 305.975575 
L 113.184793 305.33071 
L 116.464132 304.519669 
L 119.743471 303.531741 
L 123.02281 302.365778 
L 126.302149 301.033205 
L 129.581488 299.560522 
L 132.860826 297.990284 
L 136.140165 296.379253 
L 139.419504 294.792706 
L 142.698843 293.29484 
L 145.978182 291.936876 
L 149.257521 290.746026 
L 152.53686 289.719282 
L 155.816198 288.825168 
L 159.095537 288.014146 
L 162.374876 287.23521 
L 165.654215 286.453507 
L 168.933554 285.663065 
L 172.212893 284.890203 
L 175.492231 284.186325 
L 178.77157 283.612354 
L 182.050909 283.219529 
L 185.330248 283.032118 
L 188.609587 283.03664 
L 191.888926 283.180115 
L 195.168264 283.377349 
L 198.447603 283.524944 
L 201.726942 283.518292 
L 205.006281 283.267561 
L 208.28562 282.709877 
L 211.564959 281.816934 
L 214.844298 280.599213 
L 218.123636 279.108611 
L 221.402975 277.440083 
L 224.682314 275.730397 
L 227.961653 274.150096 
L 231.240992 272.88506 
L 234.520331 272.107409 
L 237.799669 271.940785 
L 241.079008 272.429646 
L 244.358347 273.523206 
L 247.637686 275.081083 
L 250.917025 276.900633 
L 254.196364 278.758535 
L 257.475702 280.454666 
L 260.755041 281.846401 
L 264.03438 282.865808 
L 267.313719 283.518373 
L 270.593058 283.867338 
L 273.872397 284.010555 
L 277.151736 284.056648 
L 280.431074 284.105162 
L 283.710413 284.232766 
L 286.989752 284.485647 
L 290.269091 284.877376 
L 293.54843 285.391555 
L 296.827769 285.988662 
L 300.107107 286.616388 
L 303.386446 287.222056 
L 306.665785 287.764985 
L 309.945124 288.226295 
L 313.224463 288.613976 
L 316.503802 288.962162 
L 319.78314 289.324934 
L 323.062479 289.76626 
L 326.341818 290.34835 
L 329.621157 291.120715 
L 332.900496 292.111704 
L 336.179835 293.323558 
L 339.459174 294.731394 
L 342.738512 296.286037 
L 346.017851 297.920289 
L 349.29719 299.557788 
L 352.576529 301.12314 
L 355.855868 302.551579 
L 359.135207 303.796356 
L 362.414545 304.832519 
L 365.693884 305.656661 
L 368.973223 306.283214 
L 372.252562 306.738682 
L 375.531901 307.055391 
L 378.81124 307.266109 
L 382.090579 307.400279 
L 385.369917 307.482038 
L 388.649256 307.529708 
L 391.928595 307.556291 
L 395.207934 307.570459 
L 398.487273 307.577672 
" style="fill:none;stroke:#8b0000;stroke-linecap:square;stroke-width:4;"/>
   </g>
   <g id="patch_167">
    <path d="M 57.6 307.584 
L 57.6 241.056 
" style="fill:none;stroke:#000000;stroke-linecap:square;stroke-linejoin:miter;stroke-width:0.8;"/>
   </g>
   <g id="patch_168">
    <path d="M 414.72 307.584 
L 414.72 241.056 
" style="fill:none;stroke:#000000;stroke-linecap:square;stroke-linejoin:miter;stroke-width:0.8;"/>
   </g>
   <g id="patch_169">
    <path d="M 57.6 307.584 
L 414.72 307.584 
" style="fill:none;stroke:#000000;stroke-linecap:square;stroke-linejoin:miter;stroke-width:0.8;"/>
   </g>
   <g id="patch_170">
    <path d="M 57.6 241.056 
L 414.72 241.056 
" style="fill:none;stroke:#000000;stroke-linecap:square;stroke-linejoin:miter;stroke-width:0.8;"/>
   </g>
   <g id="legend_3">
    <g id="patch_171">
     <path d="M 370.471563 263.734125 
L 407.72 263.734125 
Q 409.72 263.734125 409.72 261.734125 
L 409.72 248.056 
Q 409.72 246.056 407.72 246.056 
L 370.471563 246.056 
Q 368.471563 246.056 368.471563 248.056 
L 368.471563 261.734125 
Q 368.471563 263.734125 370.471563 263.734125 
z
" style="fill:#ffffff;opacity:0.8;stroke:#cccccc;stroke-linejoin:miter;"/>
    </g>
    <g id="patch_172">
     <path d="M 372.471563 257.654437 
L 392.471563 257.654437 
L 392.471563 250.654437 
L 372.471563 250.654437 
z
" style="fill:#8b0000;opacity:0.4;stroke:#000000;stroke-linejoin:miter;"/>
    </g>
    <g id="text_29">
     <!-- z -->
     <defs>
      <path d="M 5.515625 54.6875 
L 48.1875 54.6875 
L 48.1875 46.484375 
L 14.40625 7.171875 
L 48.1875 7.171875 
L 48.1875 0 
L 4.296875 0 
L 4.296875 8.203125 
L 38.09375 47.515625 
L 5.515625 47.515625 
z
" id="DejaVuSans-122"/>
     </defs>
     <g transform="translate(400.471563 257.654437)scale(0.1 -0.1)">
      <use xlink:href="#DejaVuSans-122"/>
     </g>
    </g>
   </g>
  </g>
  <g id="text_30">
   <!-- Motif 4 Zr 1202 Histogram -->
   <defs>
    <path d="M 9.8125 72.90625 
L 24.515625 72.90625 
L 43.109375 23.296875 
L 61.8125 72.90625 
L 76.515625 72.90625 
L 76.515625 0 
L 66.890625 0 
L 66.890625 64.015625 
L 48.09375 14.015625 
L 38.1875 14.015625 
L 19.390625 64.015625 
L 19.390625 0 
L 9.8125 0 
z
" id="DejaVuSans-77"/>
    <path d="M 37.109375 75.984375 
L 37.109375 68.5 
L 28.515625 68.5 
Q 23.6875 68.5 21.796875 66.546875 
Q 19.921875 64.59375 19.921875 59.515625 
L 19.921875 54.6875 
L 34.71875 54.6875 
L 34.71875 47.703125 
L 19.921875 47.703125 
L 19.921875 0 
L 10.890625 0 
L 10.890625 47.703125 
L 2.296875 47.703125 
L 2.296875 54.6875 
L 10.890625 54.6875 
L 10.890625 58.5 
Q 10.890625 67.625 15.140625 71.796875 
Q 19.390625 75.984375 28.609375 75.984375 
z
" id="DejaVuSans-102"/>
    <path id="DejaVuSans-32"/>
    <path d="M 37.796875 64.3125 
L 12.890625 25.390625 
L 37.796875 25.390625 
z
M 35.203125 72.90625 
L 47.609375 72.90625 
L 47.609375 25.390625 
L 58.015625 25.390625 
L 58.015625 17.1875 
L 47.609375 17.1875 
L 47.609375 0 
L 37.796875 0 
L 37.796875 17.1875 
L 4.890625 17.1875 
L 4.890625 26.703125 
z
" id="DejaVuSans-52"/>
    <path d="M 5.609375 72.90625 
L 62.890625 72.90625 
L 62.890625 65.375 
L 16.796875 8.296875 
L 64.015625 8.296875 
L 64.015625 0 
L 4.5 0 
L 4.5 7.515625 
L 50.59375 64.59375 
L 5.609375 64.59375 
z
" id="DejaVuSans-90"/>
    <path d="M 41.109375 46.296875 
Q 39.59375 47.171875 37.8125 47.578125 
Q 36.03125 48 33.890625 48 
Q 26.265625 48 22.1875 43.046875 
Q 18.109375 38.09375 18.109375 28.8125 
L 18.109375 0 
L 9.078125 0 
L 9.078125 54.6875 
L 18.109375 54.6875 
L 18.109375 46.1875 
Q 20.953125 51.171875 25.484375 53.578125 
Q 30.03125 56 36.53125 56 
Q 37.453125 56 38.578125 55.875 
Q 39.703125 55.765625 41.0625 55.515625 
z
" id="DejaVuSans-114"/>
    <path d="M 9.8125 72.90625 
L 19.671875 72.90625 
L 19.671875 43.015625 
L 55.515625 43.015625 
L 55.515625 72.90625 
L 65.375 72.90625 
L 65.375 0 
L 55.515625 0 
L 55.515625 34.71875 
L 19.671875 34.71875 
L 19.671875 0 
L 9.8125 0 
z
" id="DejaVuSans-72"/>
    <path d="M 45.40625 27.984375 
Q 45.40625 37.75 41.375 43.109375 
Q 37.359375 48.484375 30.078125 48.484375 
Q 22.859375 48.484375 18.828125 43.109375 
Q 14.796875 37.75 14.796875 27.984375 
Q 14.796875 18.265625 18.828125 12.890625 
Q 22.859375 7.515625 30.078125 7.515625 
Q 37.359375 7.515625 41.375 12.890625 
Q 45.40625 18.265625 45.40625 27.984375 
z
M 54.390625 6.78125 
Q 54.390625 -7.171875 48.1875 -13.984375 
Q 42 -20.796875 29.203125 -20.796875 
Q 24.46875 -20.796875 20.265625 -20.09375 
Q 16.0625 -19.390625 12.109375 -17.921875 
L 12.109375 -9.1875 
Q 16.0625 -11.328125 19.921875 -12.34375 
Q 23.78125 -13.375 27.78125 -13.375 
Q 36.625 -13.375 41.015625 -8.765625 
Q 45.40625 -4.15625 45.40625 5.171875 
L 45.40625 9.625 
Q 42.625 4.78125 38.28125 2.390625 
Q 33.9375 0 27.875 0 
Q 17.828125 0 11.671875 7.65625 
Q 5.515625 15.328125 5.515625 27.984375 
Q 5.515625 40.671875 11.671875 48.328125 
Q 17.828125 56 27.875 56 
Q 33.9375 56 38.28125 53.609375 
Q 42.625 51.21875 45.40625 46.390625 
L 45.40625 54.6875 
L 54.390625 54.6875 
z
" id="DejaVuSans-103"/>
    <path d="M 34.28125 27.484375 
Q 23.390625 27.484375 19.1875 25 
Q 14.984375 22.515625 14.984375 16.5 
Q 14.984375 11.71875 18.140625 8.90625 
Q 21.296875 6.109375 26.703125 6.109375 
Q 34.1875 6.109375 38.703125 11.40625 
Q 43.21875 16.703125 43.21875 25.484375 
L 43.21875 27.484375 
z
M 52.203125 31.203125 
L 52.203125 0 
L 43.21875 0 
L 43.21875 8.296875 
Q 40.140625 3.328125 35.546875 0.953125 
Q 30.953125 -1.421875 24.3125 -1.421875 
Q 15.921875 -1.421875 10.953125 3.296875 
Q 6 8.015625 6 15.921875 
Q 6 25.140625 12.171875 29.828125 
Q 18.359375 34.515625 30.609375 34.515625 
L 43.21875 34.515625 
L 43.21875 35.40625 
Q 43.21875 41.609375 39.140625 45 
Q 35.0625 48.390625 27.6875 48.390625 
Q 23 48.390625 18.546875 47.265625 
Q 14.109375 46.140625 10.015625 43.890625 
L 10.015625 52.203125 
Q 14.9375 54.109375 19.578125 55.046875 
Q 24.21875 56 28.609375 56 
Q 40.484375 56 46.34375 49.84375 
Q 52.203125 43.703125 52.203125 31.203125 
z
" id="DejaVuSans-97"/>
    <path d="M 52 44.1875 
Q 55.375 50.25 60.0625 53.125 
Q 64.75 56 71.09375 56 
Q 79.640625 56 84.28125 50.015625 
Q 88.921875 44.046875 88.921875 33.015625 
L 88.921875 0 
L 79.890625 0 
L 79.890625 32.71875 
Q 79.890625 40.578125 77.09375 44.375 
Q 74.3125 48.1875 68.609375 48.1875 
Q 61.625 48.1875 57.5625 43.546875 
Q 53.515625 38.921875 53.515625 30.90625 
L 53.515625 0 
L 44.484375 0 
L 44.484375 32.71875 
Q 44.484375 40.625 41.703125 44.40625 
Q 38.921875 48.1875 33.109375 48.1875 
Q 26.21875 48.1875 22.15625 43.53125 
Q 18.109375 38.875 18.109375 30.90625 
L 18.109375 0 
L 9.078125 0 
L 9.078125 54.6875 
L 18.109375 54.6875 
L 18.109375 46.1875 
Q 21.1875 51.21875 25.484375 53.609375 
Q 29.78125 56 35.6875 56 
Q 41.65625 56 45.828125 52.96875 
Q 50 49.953125 52 44.1875 
z
" id="DejaVuSans-109"/>
   </defs>
   <g transform="translate(151.004063 16.030125)scale(0.12 -0.12)">
    <use xlink:href="#DejaVuSans-77"/>
    <use x="86.279297" xlink:href="#DejaVuSans-111"/>
    <use x="147.460938" xlink:href="#DejaVuSans-116"/>
    <use x="186.669922" xlink:href="#DejaVuSans-105"/>
    <use x="214.453125" xlink:href="#DejaVuSans-102"/>
    <use x="249.658203" xlink:href="#DejaVuSans-32"/>
    <use x="281.445312" xlink:href="#DejaVuSans-52"/>
    <use x="345.068359" xlink:href="#DejaVuSans-32"/>
    <use x="376.855469" xlink:href="#DejaVuSans-90"/>
    <use x="445.361328" xlink:href="#DejaVuSans-114"/>
    <use x="486.474609" xlink:href="#DejaVuSans-32"/>
    <use x="518.261719" xlink:href="#DejaVuSans-49"/>
    <use x="581.884766" xlink:href="#DejaVuSans-50"/>
    <use x="645.507812" xlink:href="#DejaVuSans-48"/>
    <use x="709.130859" xlink:href="#DejaVuSans-50"/>
    <use x="772.753906" xlink:href="#DejaVuSans-32"/>
    <use x="804.541016" xlink:href="#DejaVuSans-72"/>
    <use x="879.736328" xlink:href="#DejaVuSans-105"/>
    <use x="907.519531" xlink:href="#DejaVuSans-115"/>
    <use x="959.619141" xlink:href="#DejaVuSans-116"/>
    <use x="998.828125" xlink:href="#DejaVuSans-111"/>
    <use x="1060.009766" xlink:href="#DejaVuSans-103"/>
    <use x="1123.486328" xlink:href="#DejaVuSans-114"/>
    <use x="1164.599609" xlink:href="#DejaVuSans-97"/>
    <use x="1225.878906" xlink:href="#DejaVuSans-109"/>
   </g>
  </g>
 </g>
 <defs>
  <clipPath id="pd938f5fb0a">
   <rect height="66.528" width="357.12" x="57.6" y="41.472"/>
  </clipPath>
  <clipPath id="p8a3fb454b4">
   <rect height="66.528" width="357.12" x="57.6" y="141.264"/>
  </clipPath>
  <clipPath id="p59c434272f">
   <rect height="66.528" width="357.12" x="57.6" y="241.056"/>
  </clipPath>
 </defs>
</svg>
