<?xml version="1.0" encoding="utf-8" standalone="no"?>
<!DOCTYPE svg PUBLIC "-//W3C//DTD SVG 1.1//EN"
  "http://www.w3.org/Graphics/SVG/1.1/DTD/svg11.dtd">
<!-- Created with matplotlib (https://matplotlib.org/) -->
<svg height="345.6pt" version="1.1" viewBox="0 0 460.8 345.6" width="460.8pt" xmlns="http://www.w3.org/2000/svg" xmlns:xlink="http://www.w3.org/1999/xlink">
 <defs>
  <style type="text/css">
*{stroke-linecap:butt;stroke-linejoin:round;}
  </style>
 </defs>
 <g id="figure_1">
  <g id="patch_1">
   <path d="M 0 345.6 
L 460.8 345.6 
L 460.8 0 
L 0 0 
z
" style="fill:#ffffff;"/>
  </g>
  <g id="axes_1">
   <g id="patch_2">
    <path d="M 57.6 108 
L 414.72 108 
L 414.72 41.472 
L 57.6 41.472 
z
" style="fill:#ffffff;"/>
   </g>
   <g id="patch_3">
    <path clip-path="url(#pf183b2b8cf)" d="M 123.149729 108 
L 127.67014 108 
L 127.67014 103.126154 
L 123.149729 103.126154 
z
" style="fill:#00008b;opacity:0.4;stroke:#000000;stroke-linejoin:miter;"/>
   </g>
   <g id="patch_4">
    <path clip-path="url(#pf183b2b8cf)" d="M 127.67014 108 
L 132.190551 108 
L 132.190551 100.689231 
L 127.67014 100.689231 
z
" style="fill:#00008b;opacity:0.4;stroke:#000000;stroke-linejoin:miter;"/>
   </g>
   <g id="patch_5">
    <path clip-path="url(#pf183b2b8cf)" d="M 132.190551 108 
L 136.710962 108 
L 136.710962 100.689231 
L 132.190551 100.689231 
z
" style="fill:#00008b;opacity:0.4;stroke:#000000;stroke-linejoin:miter;"/>
   </g>
   <g id="patch_6">
    <path clip-path="url(#pf183b2b8cf)" d="M 136.710962 108 
L 141.231372 108 
L 141.231372 103.126154 
L 136.710962 103.126154 
z
" style="fill:#00008b;opacity:0.4;stroke:#000000;stroke-linejoin:miter;"/>
   </g>
   <g id="patch_7">
    <path clip-path="url(#pf183b2b8cf)" d="M 141.231372 108 
L 145.751783 108 
L 145.751783 83.630769 
L 141.231372 83.630769 
z
" style="fill:#00008b;opacity:0.4;stroke:#000000;stroke-linejoin:miter;"/>
   </g>
   <g id="patch_8">
    <path clip-path="url(#pf183b2b8cf)" d="M 145.751783 108 
L 150.272194 108 
L 150.272194 78.756923 
L 145.751783 78.756923 
z
" style="fill:#00008b;opacity:0.4;stroke:#000000;stroke-linejoin:miter;"/>
   </g>
   <g id="patch_9">
    <path clip-path="url(#pf183b2b8cf)" d="M 150.272194 108 
L 154.792605 108 
L 154.792605 73.883077 
L 150.272194 73.883077 
z
" style="fill:#00008b;opacity:0.4;stroke:#000000;stroke-linejoin:miter;"/>
   </g>
   <g id="patch_10">
    <path clip-path="url(#pf183b2b8cf)" d="M 154.792605 108 
L 159.313016 108 
L 159.313016 71.446154 
L 154.792605 71.446154 
z
" style="fill:#00008b;opacity:0.4;stroke:#000000;stroke-linejoin:miter;"/>
   </g>
   <g id="patch_11">
    <path clip-path="url(#pf183b2b8cf)" d="M 159.313016 108 
L 163.833427 108 
L 163.833427 86.067692 
L 159.313016 86.067692 
z
" style="fill:#00008b;opacity:0.4;stroke:#000000;stroke-linejoin:miter;"/>
   </g>
   <g id="patch_12">
    <path clip-path="url(#pf183b2b8cf)" d="M 163.833427 108 
L 168.353837 108 
L 168.353837 71.446154 
L 163.833427 71.446154 
z
" style="fill:#00008b;opacity:0.4;stroke:#000000;stroke-linejoin:miter;"/>
   </g>
   <g id="patch_13">
    <path clip-path="url(#pf183b2b8cf)" d="M 168.353837 108 
L 172.874248 108 
L 172.874248 90.941538 
L 168.353837 90.941538 
z
" style="fill:#00008b;opacity:0.4;stroke:#000000;stroke-linejoin:miter;"/>
   </g>
   <g id="patch_14">
    <path clip-path="url(#pf183b2b8cf)" d="M 172.874248 108 
L 177.394659 108 
L 177.394659 81.193846 
L 172.874248 81.193846 
z
" style="fill:#00008b;opacity:0.4;stroke:#000000;stroke-linejoin:miter;"/>
   </g>
   <g id="patch_15">
    <path clip-path="url(#pf183b2b8cf)" d="M 177.394659 108 
L 181.91507 108 
L 181.91507 83.630769 
L 177.394659 83.630769 
z
" style="fill:#00008b;opacity:0.4;stroke:#000000;stroke-linejoin:miter;"/>
   </g>
   <g id="patch_16">
    <path clip-path="url(#pf183b2b8cf)" d="M 181.91507 108 
L 186.435481 108 
L 186.435481 78.756923 
L 181.91507 78.756923 
z
" style="fill:#00008b;opacity:0.4;stroke:#000000;stroke-linejoin:miter;"/>
   </g>
   <g id="patch_17">
    <path clip-path="url(#pf183b2b8cf)" d="M 186.435481 108 
L 190.955892 108 
L 190.955892 83.630769 
L 186.435481 83.630769 
z
" style="fill:#00008b;opacity:0.4;stroke:#000000;stroke-linejoin:miter;"/>
   </g>
   <g id="patch_18">
    <path clip-path="url(#pf183b2b8cf)" d="M 190.955892 108 
L 195.476302 108 
L 195.476302 83.630769 
L 190.955892 83.630769 
z
" style="fill:#00008b;opacity:0.4;stroke:#000000;stroke-linejoin:miter;"/>
   </g>
   <g id="patch_19">
    <path clip-path="url(#pf183b2b8cf)" d="M 195.476302 108 
L 199.996713 108 
L 199.996713 83.630769 
L 195.476302 83.630769 
z
" style="fill:#00008b;opacity:0.4;stroke:#000000;stroke-linejoin:miter;"/>
   </g>
   <g id="patch_20">
    <path clip-path="url(#pf183b2b8cf)" d="M 199.996713 108 
L 204.517124 108 
L 204.517124 73.883077 
L 199.996713 73.883077 
z
" style="fill:#00008b;opacity:0.4;stroke:#000000;stroke-linejoin:miter;"/>
   </g>
   <g id="patch_21">
    <path clip-path="url(#pf183b2b8cf)" d="M 204.517124 108 
L 209.037535 108 
L 209.037535 95.815385 
L 204.517124 95.815385 
z
" style="fill:#00008b;opacity:0.4;stroke:#000000;stroke-linejoin:miter;"/>
   </g>
   <g id="patch_22">
    <path clip-path="url(#pf183b2b8cf)" d="M 209.037535 108 
L 213.557946 108 
L 213.557946 83.630769 
L 209.037535 83.630769 
z
" style="fill:#00008b;opacity:0.4;stroke:#000000;stroke-linejoin:miter;"/>
   </g>
   <g id="patch_23">
    <path clip-path="url(#pf183b2b8cf)" d="M 213.557946 108 
L 218.078357 108 
L 218.078357 66.572308 
L 213.557946 66.572308 
z
" style="fill:#00008b;opacity:0.4;stroke:#000000;stroke-linejoin:miter;"/>
   </g>
   <g id="patch_24">
    <path clip-path="url(#pf183b2b8cf)" d="M 218.078357 108 
L 222.598767 108 
L 222.598767 81.193846 
L 218.078357 81.193846 
z
" style="fill:#00008b;opacity:0.4;stroke:#000000;stroke-linejoin:miter;"/>
   </g>
   <g id="patch_25">
    <path clip-path="url(#pf183b2b8cf)" d="M 222.598767 108 
L 227.119178 108 
L 227.119178 83.630769 
L 222.598767 83.630769 
z
" style="fill:#00008b;opacity:0.4;stroke:#000000;stroke-linejoin:miter;"/>
   </g>
   <g id="patch_26">
    <path clip-path="url(#pf183b2b8cf)" d="M 227.119178 108 
L 231.639589 108 
L 231.639589 49.513846 
L 227.119178 49.513846 
z
" style="fill:#00008b;opacity:0.4;stroke:#000000;stroke-linejoin:miter;"/>
   </g>
   <g id="patch_27">
    <path clip-path="url(#pf183b2b8cf)" d="M 231.639589 108 
L 236.16 108 
L 236.16 76.32 
L 231.639589 76.32 
z
" style="fill:#00008b;opacity:0.4;stroke:#000000;stroke-linejoin:miter;"/>
   </g>
   <g id="patch_28">
    <path clip-path="url(#pf183b2b8cf)" d="M 236.16 108 
L 240.680411 108 
L 240.680411 44.64 
L 236.16 44.64 
z
" style="fill:#00008b;opacity:0.4;stroke:#000000;stroke-linejoin:miter;"/>
   </g>
   <g id="patch_29">
    <path clip-path="url(#pf183b2b8cf)" d="M 240.680411 108 
L 245.200822 108 
L 245.200822 69.009231 
L 240.680411 69.009231 
z
" style="fill:#00008b;opacity:0.4;stroke:#000000;stroke-linejoin:miter;"/>
   </g>
   <g id="patch_30">
    <path clip-path="url(#pf183b2b8cf)" d="M 245.200822 108 
L 249.721233 108 
L 249.721233 83.630769 
L 245.200822 83.630769 
z
" style="fill:#00008b;opacity:0.4;stroke:#000000;stroke-linejoin:miter;"/>
   </g>
   <g id="patch_31">
    <path clip-path="url(#pf183b2b8cf)" d="M 249.721233 108 
L 254.241643 108 
L 254.241643 78.756923 
L 249.721233 78.756923 
z
" style="fill:#00008b;opacity:0.4;stroke:#000000;stroke-linejoin:miter;"/>
   </g>
   <g id="patch_32">
    <path clip-path="url(#pf183b2b8cf)" d="M 254.241643 108 
L 258.762054 108 
L 258.762054 86.067692 
L 254.241643 86.067692 
z
" style="fill:#00008b;opacity:0.4;stroke:#000000;stroke-linejoin:miter;"/>
   </g>
   <g id="patch_33">
    <path clip-path="url(#pf183b2b8cf)" d="M 258.762054 108 
L 263.282465 108 
L 263.282465 71.446154 
L 258.762054 71.446154 
z
" style="fill:#00008b;opacity:0.4;stroke:#000000;stroke-linejoin:miter;"/>
   </g>
   <g id="patch_34">
    <path clip-path="url(#pf183b2b8cf)" d="M 263.282465 108 
L 267.802876 108 
L 267.802876 76.32 
L 263.282465 76.32 
z
" style="fill:#00008b;opacity:0.4;stroke:#000000;stroke-linejoin:miter;"/>
   </g>
   <g id="patch_35">
    <path clip-path="url(#pf183b2b8cf)" d="M 267.802876 108 
L 272.323287 108 
L 272.323287 73.883077 
L 267.802876 73.883077 
z
" style="fill:#00008b;opacity:0.4;stroke:#000000;stroke-linejoin:miter;"/>
   </g>
   <g id="patch_36">
    <path clip-path="url(#pf183b2b8cf)" d="M 272.323287 108 
L 276.843698 108 
L 276.843698 59.261538 
L 272.323287 59.261538 
z
" style="fill:#00008b;opacity:0.4;stroke:#000000;stroke-linejoin:miter;"/>
   </g>
   <g id="patch_37">
    <path clip-path="url(#pf183b2b8cf)" d="M 276.843698 108 
L 281.364108 108 
L 281.364108 61.698462 
L 276.843698 61.698462 
z
" style="fill:#00008b;opacity:0.4;stroke:#000000;stroke-linejoin:miter;"/>
   </g>
   <g id="patch_38">
    <path clip-path="url(#pf183b2b8cf)" d="M 281.364108 108 
L 285.884519 108 
L 285.884519 95.815385 
L 281.364108 95.815385 
z
" style="fill:#00008b;opacity:0.4;stroke:#000000;stroke-linejoin:miter;"/>
   </g>
   <g id="patch_39">
    <path clip-path="url(#pf183b2b8cf)" d="M 285.884519 108 
L 290.40493 108 
L 290.40493 83.630769 
L 285.884519 83.630769 
z
" style="fill:#00008b;opacity:0.4;stroke:#000000;stroke-linejoin:miter;"/>
   </g>
   <g id="patch_40">
    <path clip-path="url(#pf183b2b8cf)" d="M 290.40493 108 
L 294.925341 108 
L 294.925341 86.067692 
L 290.40493 86.067692 
z
" style="fill:#00008b;opacity:0.4;stroke:#000000;stroke-linejoin:miter;"/>
   </g>
   <g id="patch_41">
    <path clip-path="url(#pf183b2b8cf)" d="M 294.925341 108 
L 299.445752 108 
L 299.445752 93.378462 
L 294.925341 93.378462 
z
" style="fill:#00008b;opacity:0.4;stroke:#000000;stroke-linejoin:miter;"/>
   </g>
   <g id="patch_42">
    <path clip-path="url(#pf183b2b8cf)" d="M 299.445752 108 
L 303.966163 108 
L 303.966163 76.32 
L 299.445752 76.32 
z
" style="fill:#00008b;opacity:0.4;stroke:#000000;stroke-linejoin:miter;"/>
   </g>
   <g id="patch_43">
    <path clip-path="url(#pf183b2b8cf)" d="M 303.966163 108 
L 308.486573 108 
L 308.486573 93.378462 
L 303.966163 93.378462 
z
" style="fill:#00008b;opacity:0.4;stroke:#000000;stroke-linejoin:miter;"/>
   </g>
   <g id="patch_44">
    <path clip-path="url(#pf183b2b8cf)" d="M 308.486573 108 
L 313.006984 108 
L 313.006984 83.630769 
L 308.486573 83.630769 
z
" style="fill:#00008b;opacity:0.4;stroke:#000000;stroke-linejoin:miter;"/>
   </g>
   <g id="patch_45">
    <path clip-path="url(#pf183b2b8cf)" d="M 313.006984 108 
L 317.527395 108 
L 317.527395 83.630769 
L 313.006984 83.630769 
z
" style="fill:#00008b;opacity:0.4;stroke:#000000;stroke-linejoin:miter;"/>
   </g>
   <g id="patch_46">
    <path clip-path="url(#pf183b2b8cf)" d="M 317.527395 108 
L 322.047806 108 
L 322.047806 76.32 
L 317.527395 76.32 
z
" style="fill:#00008b;opacity:0.4;stroke:#000000;stroke-linejoin:miter;"/>
   </g>
   <g id="patch_47">
    <path clip-path="url(#pf183b2b8cf)" d="M 322.047806 108 
L 326.568217 108 
L 326.568217 71.446154 
L 322.047806 71.446154 
z
" style="fill:#00008b;opacity:0.4;stroke:#000000;stroke-linejoin:miter;"/>
   </g>
   <g id="patch_48">
    <path clip-path="url(#pf183b2b8cf)" d="M 326.568217 108 
L 331.088628 108 
L 331.088628 71.446154 
L 326.568217 71.446154 
z
" style="fill:#00008b;opacity:0.4;stroke:#000000;stroke-linejoin:miter;"/>
   </g>
   <g id="patch_49">
    <path clip-path="url(#pf183b2b8cf)" d="M 331.088628 108 
L 335.609038 108 
L 335.609038 73.883077 
L 331.088628 73.883077 
z
" style="fill:#00008b;opacity:0.4;stroke:#000000;stroke-linejoin:miter;"/>
   </g>
   <g id="patch_50">
    <path clip-path="url(#pf183b2b8cf)" d="M 335.609038 108 
L 340.129449 108 
L 340.129449 73.883077 
L 335.609038 73.883077 
z
" style="fill:#00008b;opacity:0.4;stroke:#000000;stroke-linejoin:miter;"/>
   </g>
   <g id="patch_51">
    <path clip-path="url(#pf183b2b8cf)" d="M 340.129449 108 
L 344.64986 108 
L 344.64986 103.126154 
L 340.129449 103.126154 
z
" style="fill:#00008b;opacity:0.4;stroke:#000000;stroke-linejoin:miter;"/>
   </g>
   <g id="patch_52">
    <path clip-path="url(#pf183b2b8cf)" d="M 344.64986 108 
L 349.170271 108 
L 349.170271 103.126154 
L 344.64986 103.126154 
z
" style="fill:#00008b;opacity:0.4;stroke:#000000;stroke-linejoin:miter;"/>
   </g>
   <g id="matplotlib.axis_1">
    <g id="xtick_1">
     <g id="line2d_1">
      <defs>
       <path d="M 0 0 
L 0 3.5 
" id="m10f4a8b9ce" style="stroke:#000000;stroke-width:0.8;"/>
      </defs>
      <g>
       <use style="stroke:#000000;stroke-width:0.8;" x="103.200474" xlink:href="#m10f4a8b9ce" y="108"/>
      </g>
     </g>
     <g id="text_1">
      <!-- −1.0 -->
      <defs>
       <path d="M 10.59375 35.5 
L 73.1875 35.5 
L 73.1875 27.203125 
L 10.59375 27.203125 
z
" id="DejaVuSans-8722"/>
       <path d="M 12.40625 8.296875 
L 28.515625 8.296875 
L 28.515625 63.921875 
L 10.984375 60.40625 
L 10.984375 69.390625 
L 28.421875 72.90625 
L 38.28125 72.90625 
L 38.28125 8.296875 
L 54.390625 8.296875 
L 54.390625 0 
L 12.40625 0 
z
" id="DejaVuSans-49"/>
       <path d="M 10.6875 12.40625 
L 21 12.40625 
L 21 0 
L 10.6875 0 
z
" id="DejaVuSans-46"/>
       <path d="M 31.78125 66.40625 
Q 24.171875 66.40625 20.328125 58.90625 
Q 16.5 51.421875 16.5 36.375 
Q 16.5 21.390625 20.328125 13.890625 
Q 24.171875 6.390625 31.78125 6.390625 
Q 39.453125 6.390625 43.28125 13.890625 
Q 47.125 21.390625 47.125 36.375 
Q 47.125 51.421875 43.28125 58.90625 
Q 39.453125 66.40625 31.78125 66.40625 
z
M 31.78125 74.21875 
Q 44.046875 74.21875 50.515625 64.515625 
Q 56.984375 54.828125 56.984375 36.375 
Q 56.984375 17.96875 50.515625 8.265625 
Q 44.046875 -1.421875 31.78125 -1.421875 
Q 19.53125 -1.421875 13.0625 8.265625 
Q 6.59375 17.96875 6.59375 36.375 
Q 6.59375 54.828125 13.0625 64.515625 
Q 19.53125 74.21875 31.78125 74.21875 
z
" id="DejaVuSans-48"/>
      </defs>
      <g transform="translate(91.059067 122.598437)scale(0.1 -0.1)">
       <use xlink:href="#DejaVuSans-8722"/>
       <use x="83.789062" xlink:href="#DejaVuSans-49"/>
       <use x="147.412109" xlink:href="#DejaVuSans-46"/>
       <use x="179.199219" xlink:href="#DejaVuSans-48"/>
      </g>
     </g>
    </g>
    <g id="xtick_2">
     <g id="line2d_2">
      <g>
       <use style="stroke:#000000;stroke-width:0.8;" x="171.696462" xlink:href="#m10f4a8b9ce" y="108"/>
      </g>
     </g>
     <g id="text_2">
      <!-- −0.5 -->
      <defs>
       <path d="M 10.796875 72.90625 
L 49.515625 72.90625 
L 49.515625 64.59375 
L 19.828125 64.59375 
L 19.828125 46.734375 
Q 21.96875 47.46875 24.109375 47.828125 
Q 26.265625 48.1875 28.421875 48.1875 
Q 40.625 48.1875 47.75 41.5 
Q 54.890625 34.8125 54.890625 23.390625 
Q 54.890625 11.625 47.5625 5.09375 
Q 40.234375 -1.421875 26.90625 -1.421875 
Q 22.3125 -1.421875 17.546875 -0.640625 
Q 12.796875 0.140625 7.71875 1.703125 
L 7.71875 11.625 
Q 12.109375 9.234375 16.796875 8.0625 
Q 21.484375 6.890625 26.703125 6.890625 
Q 35.15625 6.890625 40.078125 11.328125 
Q 45.015625 15.765625 45.015625 23.390625 
Q 45.015625 31 40.078125 35.4375 
Q 35.15625 39.890625 26.703125 39.890625 
Q 22.75 39.890625 18.8125 39.015625 
Q 14.890625 38.140625 10.796875 36.28125 
z
" id="DejaVuSans-53"/>
      </defs>
      <g transform="translate(159.555056 122.598437)scale(0.1 -0.1)">
       <use xlink:href="#DejaVuSans-8722"/>
       <use x="83.789062" xlink:href="#DejaVuSans-48"/>
       <use x="147.412109" xlink:href="#DejaVuSans-46"/>
       <use x="179.199219" xlink:href="#DejaVuSans-53"/>
      </g>
     </g>
    </g>
    <g id="xtick_3">
     <g id="line2d_3">
      <g>
       <use style="stroke:#000000;stroke-width:0.8;" x="240.192451" xlink:href="#m10f4a8b9ce" y="108"/>
      </g>
     </g>
     <g id="text_3">
      <!-- 0.0 -->
      <g transform="translate(232.240888 122.598437)scale(0.1 -0.1)">
       <use xlink:href="#DejaVuSans-48"/>
       <use x="63.623047" xlink:href="#DejaVuSans-46"/>
       <use x="95.410156" xlink:href="#DejaVuSans-48"/>
      </g>
     </g>
    </g>
    <g id="xtick_4">
     <g id="line2d_4">
      <g>
       <use style="stroke:#000000;stroke-width:0.8;" x="308.68844" xlink:href="#m10f4a8b9ce" y="108"/>
      </g>
     </g>
     <g id="text_4">
      <!-- 0.5 -->
      <g transform="translate(300.736877 122.598437)scale(0.1 -0.1)">
       <use xlink:href="#DejaVuSans-48"/>
       <use x="63.623047" xlink:href="#DejaVuSans-46"/>
       <use x="95.410156" xlink:href="#DejaVuSans-53"/>
      </g>
     </g>
    </g>
    <g id="xtick_5">
     <g id="line2d_5">
      <g>
       <use style="stroke:#000000;stroke-width:0.8;" x="377.184428" xlink:href="#m10f4a8b9ce" y="108"/>
      </g>
     </g>
     <g id="text_5">
      <!-- 1.0 -->
      <g transform="translate(369.232866 122.598437)scale(0.1 -0.1)">
       <use xlink:href="#DejaVuSans-49"/>
       <use x="63.623047" xlink:href="#DejaVuSans-46"/>
       <use x="95.410156" xlink:href="#DejaVuSans-48"/>
      </g>
     </g>
    </g>
   </g>
   <g id="matplotlib.axis_2">
    <g id="ytick_1">
     <g id="line2d_6">
      <defs>
       <path d="M 0 0 
L -3.5 0 
" id="m551fd4dfe7" style="stroke:#000000;stroke-width:0.8;"/>
      </defs>
      <g>
       <use style="stroke:#000000;stroke-width:0.8;" x="57.6" xlink:href="#m551fd4dfe7" y="108"/>
      </g>
     </g>
     <g id="text_6">
      <!-- 0.0 -->
      <g transform="translate(34.696875 111.799219)scale(0.1 -0.1)">
       <use xlink:href="#DejaVuSans-48"/>
       <use x="63.623047" xlink:href="#DejaVuSans-46"/>
       <use x="95.410156" xlink:href="#DejaVuSans-48"/>
      </g>
     </g>
    </g>
    <g id="ytick_2">
     <g id="line2d_7">
      <g>
       <use style="stroke:#000000;stroke-width:0.8;" x="57.6" xlink:href="#m551fd4dfe7" y="85.605066"/>
      </g>
     </g>
     <g id="text_7">
      <!-- 0.5 -->
      <g transform="translate(34.696875 89.404284)scale(0.1 -0.1)">
       <use xlink:href="#DejaVuSans-48"/>
       <use x="63.623047" xlink:href="#DejaVuSans-46"/>
       <use x="95.410156" xlink:href="#DejaVuSans-53"/>
      </g>
     </g>
    </g>
    <g id="ytick_3">
     <g id="line2d_8">
      <g>
       <use style="stroke:#000000;stroke-width:0.8;" x="57.6" xlink:href="#m551fd4dfe7" y="63.210131"/>
      </g>
     </g>
     <g id="text_8">
      <!-- 1.0 -->
      <g transform="translate(34.696875 67.00935)scale(0.1 -0.1)">
       <use xlink:href="#DejaVuSans-49"/>
       <use x="63.623047" xlink:href="#DejaVuSans-46"/>
       <use x="95.410156" xlink:href="#DejaVuSans-48"/>
      </g>
     </g>
    </g>
    <g id="text_9">
     <!-- Density -->
     <defs>
      <path d="M 19.671875 64.796875 
L 19.671875 8.109375 
L 31.59375 8.109375 
Q 46.6875 8.109375 53.6875 14.9375 
Q 60.6875 21.78125 60.6875 36.53125 
Q 60.6875 51.171875 53.6875 57.984375 
Q 46.6875 64.796875 31.59375 64.796875 
z
M 9.8125 72.90625 
L 30.078125 72.90625 
Q 51.265625 72.90625 61.171875 64.09375 
Q 71.09375 55.28125 71.09375 36.53125 
Q 71.09375 17.671875 61.125 8.828125 
Q 51.171875 0 30.078125 0 
L 9.8125 0 
z
" id="DejaVuSans-68"/>
      <path d="M 56.203125 29.59375 
L 56.203125 25.203125 
L 14.890625 25.203125 
Q 15.484375 15.921875 20.484375 11.0625 
Q 25.484375 6.203125 34.421875 6.203125 
Q 39.59375 6.203125 44.453125 7.46875 
Q 49.3125 8.734375 54.109375 11.28125 
L 54.109375 2.78125 
Q 49.265625 0.734375 44.1875 -0.34375 
Q 39.109375 -1.421875 33.890625 -1.421875 
Q 20.796875 -1.421875 13.15625 6.1875 
Q 5.515625 13.8125 5.515625 26.8125 
Q 5.515625 40.234375 12.765625 48.109375 
Q 20.015625 56 32.328125 56 
Q 43.359375 56 49.78125 48.890625 
Q 56.203125 41.796875 56.203125 29.59375 
z
M 47.21875 32.234375 
Q 47.125 39.59375 43.09375 43.984375 
Q 39.0625 48.390625 32.421875 48.390625 
Q 24.90625 48.390625 20.390625 44.140625 
Q 15.875 39.890625 15.1875 32.171875 
z
" id="DejaVuSans-101"/>
      <path d="M 54.890625 33.015625 
L 54.890625 0 
L 45.90625 0 
L 45.90625 32.71875 
Q 45.90625 40.484375 42.875 44.328125 
Q 39.84375 48.1875 33.796875 48.1875 
Q 26.515625 48.1875 22.3125 43.546875 
Q 18.109375 38.921875 18.109375 30.90625 
L 18.109375 0 
L 9.078125 0 
L 9.078125 54.6875 
L 18.109375 54.6875 
L 18.109375 46.1875 
Q 21.34375 51.125 25.703125 53.5625 
Q 30.078125 56 35.796875 56 
Q 45.21875 56 50.046875 50.171875 
Q 54.890625 44.34375 54.890625 33.015625 
z
" id="DejaVuSans-110"/>
      <path d="M 44.28125 53.078125 
L 44.28125 44.578125 
Q 40.484375 46.53125 36.375 47.5 
Q 32.28125 48.484375 27.875 48.484375 
Q 21.1875 48.484375 17.84375 46.4375 
Q 14.5 44.390625 14.5 40.28125 
Q 14.5 37.15625 16.890625 35.375 
Q 19.28125 33.59375 26.515625 31.984375 
L 29.59375 31.296875 
Q 39.15625 29.25 43.1875 25.515625 
Q 47.21875 21.78125 47.21875 15.09375 
Q 47.21875 7.46875 41.1875 3.015625 
Q 35.15625 -1.421875 24.609375 -1.421875 
Q 20.21875 -1.421875 15.453125 -0.5625 
Q 10.6875 0.296875 5.421875 2 
L 5.421875 11.28125 
Q 10.40625 8.6875 15.234375 7.390625 
Q 20.0625 6.109375 24.8125 6.109375 
Q 31.15625 6.109375 34.5625 8.28125 
Q 37.984375 10.453125 37.984375 14.40625 
Q 37.984375 18.0625 35.515625 20.015625 
Q 33.0625 21.96875 24.703125 23.78125 
L 21.578125 24.515625 
Q 13.234375 26.265625 9.515625 29.90625 
Q 5.8125 33.546875 5.8125 39.890625 
Q 5.8125 47.609375 11.28125 51.796875 
Q 16.75 56 26.8125 56 
Q 31.78125 56 36.171875 55.265625 
Q 40.578125 54.546875 44.28125 53.078125 
z
" id="DejaVuSans-115"/>
      <path d="M 9.421875 54.6875 
L 18.40625 54.6875 
L 18.40625 0 
L 9.421875 0 
z
M 9.421875 75.984375 
L 18.40625 75.984375 
L 18.40625 64.59375 
L 9.421875 64.59375 
z
" id="DejaVuSans-105"/>
      <path d="M 18.3125 70.21875 
L 18.3125 54.6875 
L 36.8125 54.6875 
L 36.8125 47.703125 
L 18.3125 47.703125 
L 18.3125 18.015625 
Q 18.3125 11.328125 20.140625 9.421875 
Q 21.96875 7.515625 27.59375 7.515625 
L 36.8125 7.515625 
L 36.8125 0 
L 27.59375 0 
Q 17.1875 0 13.234375 3.875 
Q 9.28125 7.765625 9.28125 18.015625 
L 9.28125 47.703125 
L 2.6875 47.703125 
L 2.6875 54.6875 
L 9.28125 54.6875 
L 9.28125 70.21875 
z
" id="DejaVuSans-116"/>
      <path d="M 32.171875 -5.078125 
Q 28.375 -14.84375 24.75 -17.8125 
Q 21.140625 -20.796875 15.09375 -20.796875 
L 7.90625 -20.796875 
L 7.90625 -13.28125 
L 13.1875 -13.28125 
Q 16.890625 -13.28125 18.9375 -11.515625 
Q 21 -9.765625 23.484375 -3.21875 
L 25.09375 0.875 
L 2.984375 54.6875 
L 12.5 54.6875 
L 29.59375 11.921875 
L 46.6875 54.6875 
L 56.203125 54.6875 
z
" id="DejaVuSans-121"/>
     </defs>
     <g transform="translate(28.617187 93.744594)rotate(-90)scale(0.1 -0.1)">
      <use xlink:href="#DejaVuSans-68"/>
      <use x="77.001953" xlink:href="#DejaVuSans-101"/>
      <use x="138.525391" xlink:href="#DejaVuSans-110"/>
      <use x="201.904297" xlink:href="#DejaVuSans-115"/>
      <use x="254.003906" xlink:href="#DejaVuSans-105"/>
      <use x="281.787109" xlink:href="#DejaVuSans-116"/>
      <use x="320.996094" xlink:href="#DejaVuSans-121"/>
     </g>
    </g>
   </g>
   <g id="line2d_9">
    <path clip-path="url(#pf183b2b8cf)" d="M 73.832727 107.990353 
L 77.112066 107.981847 
L 80.391405 107.966964 
L 83.670744 107.941796 
L 86.950083 107.900638 
L 90.229421 107.835463 
L 93.50876 107.735418 
L 96.788099 107.586363 
L 100.067438 107.370564 
L 103.346777 107.066627 
L 106.626116 106.649823 
L 109.905455 106.092948 
L 113.184793 105.367909 
L 116.464132 104.448179 
L 119.743471 103.312155 
L 123.02281 101.947251 
L 126.302149 100.354269 
L 129.581488 98.55125 
L 132.860826 96.575837 
L 136.140165 94.485143 
L 139.419504 92.352498 
L 142.698843 90.261031 
L 145.978182 88.294837 
L 149.257521 86.52921 
L 152.53686 85.021754 
L 155.816198 83.806139 
L 159.095537 82.889663 
L 162.374876 82.254898 
L 165.654215 81.864747 
L 168.933554 81.669539 
L 172.212893 81.6145 
L 175.492231 81.646059 
L 178.77157 81.716007 
L 182.050909 81.783189 
L 185.330248 81.813092 
L 188.609587 81.776181 
L 191.888926 81.646067 
L 195.168264 81.39852 
L 198.447603 81.012027 
L 201.726942 80.470117 
L 205.006281 79.765098 
L 208.28562 78.902381 
L 211.564959 77.904161 
L 214.844298 76.811181 
L 218.123636 75.68147 
L 221.402975 74.585499 
L 224.682314 73.59801 
L 227.961653 72.78762 
L 231.240992 72.20613 
L 234.520331 71.87986 
L 237.799669 71.805195 
L 241.079008 71.949805 
L 244.358347 72.2597 
L 247.637686 72.670895 
L 250.917025 73.123127 
L 254.196364 73.572446 
L 257.475702 73.999592 
L 260.755041 74.412063 
L 264.03438 74.839354 
L 267.313719 75.322579 
L 270.593058 75.901148 
L 273.872397 76.599863 
L 277.151736 77.419627 
L 280.431074 78.333928 
L 283.710413 79.291702 
L 286.989752 80.225656 
L 290.269091 81.063948 
L 293.54843 81.742675 
L 296.827769 82.216872 
L 300.107107 82.46842 
L 303.386446 82.510166 
L 306.665785 82.386183 
L 309.945124 82.168492 
L 313.224463 81.950622 
L 316.503802 81.838396 
L 319.78314 81.938473 
L 323.062479 82.345583 
L 326.341818 83.129918 
L 329.621157 84.326628 
L 332.900496 85.92944 
L 336.179835 87.889979 
L 339.459174 90.123313 
L 342.738512 92.518987 
L 346.017851 94.955566 
L 349.29719 97.315954 
L 352.576529 99.500732 
L 355.855868 101.437357 
L 359.135207 103.084163 
L 362.414545 104.429317 
L 365.693884 105.485868 
L 368.973223 106.284532 
L 372.252562 106.865956 
L 375.531901 107.27383 
L 378.81124 107.549675 
L 382.090579 107.729594 
L 385.369917 107.842808 
L 388.649256 107.911552 
L 391.928595 107.951837 
L 395.207934 107.974625 
L 398.487273 107.987068 
" style="fill:none;stroke:#00008b;stroke-linecap:square;stroke-width:4;"/>
   </g>
   <g id="patch_53">
    <path d="M 57.6 108 
L 57.6 41.472 
" style="fill:none;stroke:#000000;stroke-linecap:square;stroke-linejoin:miter;stroke-width:0.8;"/>
   </g>
   <g id="patch_54">
    <path d="M 414.72 108 
L 414.72 41.472 
" style="fill:none;stroke:#000000;stroke-linecap:square;stroke-linejoin:miter;stroke-width:0.8;"/>
   </g>
   <g id="patch_55">
    <path d="M 57.6 108 
L 414.72 108 
" style="fill:none;stroke:#000000;stroke-linecap:square;stroke-linejoin:miter;stroke-width:0.8;"/>
   </g>
   <g id="patch_56">
    <path d="M 57.6 41.472 
L 414.72 41.472 
" style="fill:none;stroke:#000000;stroke-linecap:square;stroke-linejoin:miter;stroke-width:0.8;"/>
   </g>
   <g id="legend_1">
    <g id="patch_57">
     <path d="M 369.80125 64.150125 
L 407.72 64.150125 
Q 409.72 64.150125 409.72 62.150125 
L 409.72 48.472 
Q 409.72 46.472 407.72 46.472 
L 369.80125 46.472 
Q 367.80125 46.472 367.80125 48.472 
L 367.80125 62.150125 
Q 367.80125 64.150125 369.80125 64.150125 
z
" style="fill:#ffffff;opacity:0.8;stroke:#cccccc;stroke-linejoin:miter;"/>
    </g>
    <g id="patch_58">
     <path d="M 371.80125 58.070438 
L 391.80125 58.070438 
L 391.80125 51.070438 
L 371.80125 51.070438 
z
" style="fill:#00008b;opacity:0.4;stroke:#000000;stroke-linejoin:miter;"/>
    </g>
    <g id="text_10">
     <!-- x -->
     <defs>
      <path d="M 54.890625 54.6875 
L 35.109375 28.078125 
L 55.90625 0 
L 45.3125 0 
L 29.390625 21.484375 
L 13.484375 0 
L 2.875 0 
L 24.125 28.609375 
L 4.6875 54.6875 
L 15.28125 54.6875 
L 29.78125 35.203125 
L 44.28125 54.6875 
z
" id="DejaVuSans-120"/>
     </defs>
     <g transform="translate(399.80125 58.070438)scale(0.1 -0.1)">
      <use xlink:href="#DejaVuSans-120"/>
     </g>
    </g>
   </g>
  </g>
  <g id="axes_2">
   <g id="patch_59">
    <path d="M 57.6 207.792 
L 414.72 207.792 
L 414.72 141.264 
L 57.6 141.264 
z
" style="fill:#ffffff;"/>
   </g>
   <g id="patch_60">
    <path clip-path="url(#p4dc423e830)" d="M 121.031337 207.792 
L 125.636483 207.792 
L 125.636483 205.529143 
L 121.031337 205.529143 
z
" style="fill:#006400;opacity:0.4;stroke:#000000;stroke-linejoin:miter;"/>
   </g>
   <g id="patch_61">
    <path clip-path="url(#p4dc423e830)" d="M 125.636483 207.792 
L 130.24163 207.792 
L 130.24163 205.529143 
L 125.636483 205.529143 
z
" style="fill:#006400;opacity:0.4;stroke:#000000;stroke-linejoin:miter;"/>
   </g>
   <g id="patch_62">
    <path clip-path="url(#p4dc423e830)" d="M 130.24163 207.792 
L 134.846776 207.792 
L 134.846776 205.529143 
L 130.24163 205.529143 
z
" style="fill:#006400;opacity:0.4;stroke:#000000;stroke-linejoin:miter;"/>
   </g>
   <g id="patch_63">
    <path clip-path="url(#p4dc423e830)" d="M 134.846776 207.792 
L 139.451923 207.792 
L 139.451923 191.952 
L 134.846776 191.952 
z
" style="fill:#006400;opacity:0.4;stroke:#000000;stroke-linejoin:miter;"/>
   </g>
   <g id="patch_64">
    <path clip-path="url(#p4dc423e830)" d="M 139.451923 207.792 
L 144.05707 207.792 
L 144.05707 182.900571 
L 139.451923 182.900571 
z
" style="fill:#006400;opacity:0.4;stroke:#000000;stroke-linejoin:miter;"/>
   </g>
   <g id="patch_65">
    <path clip-path="url(#p4dc423e830)" d="M 144.05707 207.792 
L 148.662216 207.792 
L 148.662216 191.952 
L 144.05707 191.952 
z
" style="fill:#006400;opacity:0.4;stroke:#000000;stroke-linejoin:miter;"/>
   </g>
   <g id="patch_66">
    <path clip-path="url(#p4dc423e830)" d="M 148.662216 207.792 
L 153.267363 207.792 
L 153.267363 182.900571 
L 148.662216 182.900571 
z
" style="fill:#006400;opacity:0.4;stroke:#000000;stroke-linejoin:miter;"/>
   </g>
   <g id="patch_67">
    <path clip-path="url(#p4dc423e830)" d="M 153.267363 207.792 
L 157.872509 207.792 
L 157.872509 176.112 
L 153.267363 176.112 
z
" style="fill:#006400;opacity:0.4;stroke:#000000;stroke-linejoin:miter;"/>
   </g>
   <g id="patch_68">
    <path clip-path="url(#p4dc423e830)" d="M 157.872509 207.792 
L 162.477656 207.792 
L 162.477656 180.637714 
L 157.872509 180.637714 
z
" style="fill:#006400;opacity:0.4;stroke:#000000;stroke-linejoin:miter;"/>
   </g>
   <g id="patch_69">
    <path clip-path="url(#p4dc423e830)" d="M 162.477656 207.792 
L 167.082802 207.792 
L 167.082802 171.586286 
L 162.477656 171.586286 
z
" style="fill:#006400;opacity:0.4;stroke:#000000;stroke-linejoin:miter;"/>
   </g>
   <g id="patch_70">
    <path clip-path="url(#p4dc423e830)" d="M 167.082802 207.792 
L 171.687949 207.792 
L 171.687949 182.900571 
L 167.082802 182.900571 
z
" style="fill:#006400;opacity:0.4;stroke:#000000;stroke-linejoin:miter;"/>
   </g>
   <g id="patch_71">
    <path clip-path="url(#p4dc423e830)" d="M 171.687949 207.792 
L 176.293095 207.792 
L 176.293095 160.272 
L 171.687949 160.272 
z
" style="fill:#006400;opacity:0.4;stroke:#000000;stroke-linejoin:miter;"/>
   </g>
   <g id="patch_72">
    <path clip-path="url(#p4dc423e830)" d="M 176.293095 207.792 
L 180.898242 207.792 
L 180.898242 189.689143 
L 176.293095 189.689143 
z
" style="fill:#006400;opacity:0.4;stroke:#000000;stroke-linejoin:miter;"/>
   </g>
   <g id="patch_73">
    <path clip-path="url(#p4dc423e830)" d="M 180.898242 207.792 
L 185.503388 207.792 
L 185.503388 180.637714 
L 180.898242 180.637714 
z
" style="fill:#006400;opacity:0.4;stroke:#000000;stroke-linejoin:miter;"/>
   </g>
   <g id="patch_74">
    <path clip-path="url(#p4dc423e830)" d="M 185.503388 207.792 
L 190.108535 207.792 
L 190.108535 176.112 
L 185.503388 176.112 
z
" style="fill:#006400;opacity:0.4;stroke:#000000;stroke-linejoin:miter;"/>
   </g>
   <g id="patch_75">
    <path clip-path="url(#p4dc423e830)" d="M 190.108535 207.792 
L 194.713681 207.792 
L 194.713681 178.374857 
L 190.108535 178.374857 
z
" style="fill:#006400;opacity:0.4;stroke:#000000;stroke-linejoin:miter;"/>
   </g>
   <g id="patch_76">
    <path clip-path="url(#p4dc423e830)" d="M 194.713681 207.792 
L 199.318828 207.792 
L 199.318828 185.163429 
L 194.713681 185.163429 
z
" style="fill:#006400;opacity:0.4;stroke:#000000;stroke-linejoin:miter;"/>
   </g>
   <g id="patch_77">
    <path clip-path="url(#p4dc423e830)" d="M 199.318828 207.792 
L 203.923974 207.792 
L 203.923974 167.060571 
L 199.318828 167.060571 
z
" style="fill:#006400;opacity:0.4;stroke:#000000;stroke-linejoin:miter;"/>
   </g>
   <g id="patch_78">
    <path clip-path="url(#p4dc423e830)" d="M 203.923974 207.792 
L 208.529121 207.792 
L 208.529121 169.323429 
L 203.923974 169.323429 
z
" style="fill:#006400;opacity:0.4;stroke:#000000;stroke-linejoin:miter;"/>
   </g>
   <g id="patch_79">
    <path clip-path="url(#p4dc423e830)" d="M 208.529121 207.792 
L 213.134267 207.792 
L 213.134267 151.220571 
L 208.529121 151.220571 
z
" style="fill:#006400;opacity:0.4;stroke:#000000;stroke-linejoin:miter;"/>
   </g>
   <g id="patch_80">
    <path clip-path="url(#p4dc423e830)" d="M 213.134267 207.792 
L 217.739414 207.792 
L 217.739414 173.849143 
L 213.134267 173.849143 
z
" style="fill:#006400;opacity:0.4;stroke:#000000;stroke-linejoin:miter;"/>
   </g>
   <g id="patch_81">
    <path clip-path="url(#p4dc423e830)" d="M 217.739414 207.792 
L 222.34456 207.792 
L 222.34456 185.163429 
L 217.739414 185.163429 
z
" style="fill:#006400;opacity:0.4;stroke:#000000;stroke-linejoin:miter;"/>
   </g>
   <g id="patch_82">
    <path clip-path="url(#p4dc423e830)" d="M 222.34456 207.792 
L 226.949707 207.792 
L 226.949707 194.214857 
L 222.34456 194.214857 
z
" style="fill:#006400;opacity:0.4;stroke:#000000;stroke-linejoin:miter;"/>
   </g>
   <g id="patch_83">
    <path clip-path="url(#p4dc423e830)" d="M 226.949707 207.792 
L 231.554853 207.792 
L 231.554853 191.952 
L 226.949707 191.952 
z
" style="fill:#006400;opacity:0.4;stroke:#000000;stroke-linejoin:miter;"/>
   </g>
   <g id="patch_84">
    <path clip-path="url(#p4dc423e830)" d="M 231.554853 207.792 
L 236.16 207.792 
L 236.16 189.689143 
L 231.554853 189.689143 
z
" style="fill:#006400;opacity:0.4;stroke:#000000;stroke-linejoin:miter;"/>
   </g>
   <g id="patch_85">
    <path clip-path="url(#p4dc423e830)" d="M 236.16 207.792 
L 240.765147 207.792 
L 240.765147 185.163429 
L 236.16 185.163429 
z
" style="fill:#006400;opacity:0.4;stroke:#000000;stroke-linejoin:miter;"/>
   </g>
   <g id="patch_86">
    <path clip-path="url(#p4dc423e830)" d="M 240.765147 207.792 
L 245.370293 207.792 
L 245.370293 180.637714 
L 240.765147 180.637714 
z
" style="fill:#006400;opacity:0.4;stroke:#000000;stroke-linejoin:miter;"/>
   </g>
   <g id="patch_87">
    <path clip-path="url(#p4dc423e830)" d="M 245.370293 207.792 
L 249.97544 207.792 
L 249.97544 189.689143 
L 245.370293 189.689143 
z
" style="fill:#006400;opacity:0.4;stroke:#000000;stroke-linejoin:miter;"/>
   </g>
   <g id="patch_88">
    <path clip-path="url(#p4dc423e830)" d="M 249.97544 207.792 
L 254.580586 207.792 
L 254.580586 162.534857 
L 249.97544 162.534857 
z
" style="fill:#006400;opacity:0.4;stroke:#000000;stroke-linejoin:miter;"/>
   </g>
   <g id="patch_89">
    <path clip-path="url(#p4dc423e830)" d="M 254.580586 207.792 
L 259.185733 207.792 
L 259.185733 185.163429 
L 254.580586 185.163429 
z
" style="fill:#006400;opacity:0.4;stroke:#000000;stroke-linejoin:miter;"/>
   </g>
   <g id="patch_90">
    <path clip-path="url(#p4dc423e830)" d="M 259.185733 207.792 
L 263.790879 207.792 
L 263.790879 180.637714 
L 259.185733 180.637714 
z
" style="fill:#006400;opacity:0.4;stroke:#000000;stroke-linejoin:miter;"/>
   </g>
   <g id="patch_91">
    <path clip-path="url(#p4dc423e830)" d="M 263.790879 207.792 
L 268.396026 207.792 
L 268.396026 144.432 
L 263.790879 144.432 
z
" style="fill:#006400;opacity:0.4;stroke:#000000;stroke-linejoin:miter;"/>
   </g>
   <g id="patch_92">
    <path clip-path="url(#p4dc423e830)" d="M 268.396026 207.792 
L 273.001172 207.792 
L 273.001172 169.323429 
L 268.396026 169.323429 
z
" style="fill:#006400;opacity:0.4;stroke:#000000;stroke-linejoin:miter;"/>
   </g>
   <g id="patch_93">
    <path clip-path="url(#p4dc423e830)" d="M 273.001172 207.792 
L 277.606319 207.792 
L 277.606319 171.586286 
L 273.001172 171.586286 
z
" style="fill:#006400;opacity:0.4;stroke:#000000;stroke-linejoin:miter;"/>
   </g>
   <g id="patch_94">
    <path clip-path="url(#p4dc423e830)" d="M 277.606319 207.792 
L 282.211465 207.792 
L 282.211465 178.374857 
L 277.606319 178.374857 
z
" style="fill:#006400;opacity:0.4;stroke:#000000;stroke-linejoin:miter;"/>
   </g>
   <g id="patch_95">
    <path clip-path="url(#p4dc423e830)" d="M 282.211465 207.792 
L 286.816612 207.792 
L 286.816612 182.900571 
L 282.211465 182.900571 
z
" style="fill:#006400;opacity:0.4;stroke:#000000;stroke-linejoin:miter;"/>
   </g>
   <g id="patch_96">
    <path clip-path="url(#p4dc423e830)" d="M 286.816612 207.792 
L 291.421758 207.792 
L 291.421758 169.323429 
L 286.816612 169.323429 
z
" style="fill:#006400;opacity:0.4;stroke:#000000;stroke-linejoin:miter;"/>
   </g>
   <g id="patch_97">
    <path clip-path="url(#p4dc423e830)" d="M 291.421758 207.792 
L 296.026905 207.792 
L 296.026905 167.060571 
L 291.421758 167.060571 
z
" style="fill:#006400;opacity:0.4;stroke:#000000;stroke-linejoin:miter;"/>
   </g>
   <g id="patch_98">
    <path clip-path="url(#p4dc423e830)" d="M 296.026905 207.792 
L 300.632051 207.792 
L 300.632051 182.900571 
L 296.026905 182.900571 
z
" style="fill:#006400;opacity:0.4;stroke:#000000;stroke-linejoin:miter;"/>
   </g>
   <g id="patch_99">
    <path clip-path="url(#p4dc423e830)" d="M 300.632051 207.792 
L 305.237198 207.792 
L 305.237198 173.849143 
L 300.632051 173.849143 
z
" style="fill:#006400;opacity:0.4;stroke:#000000;stroke-linejoin:miter;"/>
   </g>
   <g id="patch_100">
    <path clip-path="url(#p4dc423e830)" d="M 305.237198 207.792 
L 309.842344 207.792 
L 309.842344 185.163429 
L 305.237198 185.163429 
z
" style="fill:#006400;opacity:0.4;stroke:#000000;stroke-linejoin:miter;"/>
   </g>
   <g id="patch_101">
    <path clip-path="url(#p4dc423e830)" d="M 309.842344 207.792 
L 314.447491 207.792 
L 314.447491 187.426286 
L 309.842344 187.426286 
z
" style="fill:#006400;opacity:0.4;stroke:#000000;stroke-linejoin:miter;"/>
   </g>
   <g id="patch_102">
    <path clip-path="url(#p4dc423e830)" d="M 314.447491 207.792 
L 319.052637 207.792 
L 319.052637 185.163429 
L 314.447491 185.163429 
z
" style="fill:#006400;opacity:0.4;stroke:#000000;stroke-linejoin:miter;"/>
   </g>
   <g id="patch_103">
    <path clip-path="url(#p4dc423e830)" d="M 319.052637 207.792 
L 323.657784 207.792 
L 323.657784 189.689143 
L 319.052637 189.689143 
z
" style="fill:#006400;opacity:0.4;stroke:#000000;stroke-linejoin:miter;"/>
   </g>
   <g id="patch_104">
    <path clip-path="url(#p4dc423e830)" d="M 323.657784 207.792 
L 328.26293 207.792 
L 328.26293 187.426286 
L 323.657784 187.426286 
z
" style="fill:#006400;opacity:0.4;stroke:#000000;stroke-linejoin:miter;"/>
   </g>
   <g id="patch_105">
    <path clip-path="url(#p4dc423e830)" d="M 328.26293 207.792 
L 332.868077 207.792 
L 332.868077 182.900571 
L 328.26293 182.900571 
z
" style="fill:#006400;opacity:0.4;stroke:#000000;stroke-linejoin:miter;"/>
   </g>
   <g id="patch_106">
    <path clip-path="url(#p4dc423e830)" d="M 332.868077 207.792 
L 337.473224 207.792 
L 337.473224 198.740571 
L 332.868077 198.740571 
z
" style="fill:#006400;opacity:0.4;stroke:#000000;stroke-linejoin:miter;"/>
   </g>
   <g id="patch_107">
    <path clip-path="url(#p4dc423e830)" d="M 337.473224 207.792 
L 342.07837 207.792 
L 342.07837 205.529143 
L 337.473224 205.529143 
z
" style="fill:#006400;opacity:0.4;stroke:#000000;stroke-linejoin:miter;"/>
   </g>
   <g id="patch_108">
    <path clip-path="url(#p4dc423e830)" d="M 342.07837 207.792 
L 346.683517 207.792 
L 346.683517 207.792 
L 342.07837 207.792 
z
" style="fill:#006400;opacity:0.4;stroke:#000000;stroke-linejoin:miter;"/>
   </g>
   <g id="patch_109">
    <path clip-path="url(#p4dc423e830)" d="M 346.683517 207.792 
L 351.288663 207.792 
L 351.288663 205.529143 
L 346.683517 205.529143 
z
" style="fill:#006400;opacity:0.4;stroke:#000000;stroke-linejoin:miter;"/>
   </g>
   <g id="matplotlib.axis_3">
    <g id="xtick_6">
     <g id="line2d_10">
      <g>
       <use style="stroke:#000000;stroke-width:0.8;" x="97.084071" xlink:href="#m10f4a8b9ce" y="207.792"/>
      </g>
     </g>
     <g id="text_11">
      <!-- −1.0 -->
      <g transform="translate(84.942665 222.390437)scale(0.1 -0.1)">
       <use xlink:href="#DejaVuSans-8722"/>
       <use x="83.789062" xlink:href="#DejaVuSans-49"/>
       <use x="147.412109" xlink:href="#DejaVuSans-46"/>
       <use x="179.199219" xlink:href="#DejaVuSans-48"/>
      </g>
     </g>
    </g>
    <g id="xtick_7">
     <g id="line2d_11">
      <g>
       <use style="stroke:#000000;stroke-width:0.8;" x="166.189853" xlink:href="#m10f4a8b9ce" y="207.792"/>
      </g>
     </g>
     <g id="text_12">
      <!-- −0.5 -->
      <g transform="translate(154.048447 222.390437)scale(0.1 -0.1)">
       <use xlink:href="#DejaVuSans-8722"/>
       <use x="83.789062" xlink:href="#DejaVuSans-48"/>
       <use x="147.412109" xlink:href="#DejaVuSans-46"/>
       <use x="179.199219" xlink:href="#DejaVuSans-53"/>
      </g>
     </g>
    </g>
    <g id="xtick_8">
     <g id="line2d_12">
      <g>
       <use style="stroke:#000000;stroke-width:0.8;" x="235.295635" xlink:href="#m10f4a8b9ce" y="207.792"/>
      </g>
     </g>
     <g id="text_13">
      <!-- 0.0 -->
      <g transform="translate(227.344073 222.390437)scale(0.1 -0.1)">
       <use xlink:href="#DejaVuSans-48"/>
       <use x="63.623047" xlink:href="#DejaVuSans-46"/>
       <use x="95.410156" xlink:href="#DejaVuSans-48"/>
      </g>
     </g>
    </g>
    <g id="xtick_9">
     <g id="line2d_13">
      <g>
       <use style="stroke:#000000;stroke-width:0.8;" x="304.401417" xlink:href="#m10f4a8b9ce" y="207.792"/>
      </g>
     </g>
     <g id="text_14">
      <!-- 0.5 -->
      <g transform="translate(296.449855 222.390437)scale(0.1 -0.1)">
       <use xlink:href="#DejaVuSans-48"/>
       <use x="63.623047" xlink:href="#DejaVuSans-46"/>
       <use x="95.410156" xlink:href="#DejaVuSans-53"/>
      </g>
     </g>
    </g>
    <g id="xtick_10">
     <g id="line2d_14">
      <g>
       <use style="stroke:#000000;stroke-width:0.8;" x="373.507199" xlink:href="#m10f4a8b9ce" y="207.792"/>
      </g>
     </g>
     <g id="text_15">
      <!-- 1.0 -->
      <g transform="translate(365.555637 222.390437)scale(0.1 -0.1)">
       <use xlink:href="#DejaVuSans-49"/>
       <use x="63.623047" xlink:href="#DejaVuSans-46"/>
       <use x="95.410156" xlink:href="#DejaVuSans-48"/>
      </g>
     </g>
    </g>
   </g>
   <g id="matplotlib.axis_4">
    <g id="ytick_4">
     <g id="line2d_15">
      <g>
       <use style="stroke:#000000;stroke-width:0.8;" x="57.6" xlink:href="#m551fd4dfe7" y="207.792"/>
      </g>
     </g>
     <g id="text_16">
      <!-- 0 -->
      <g transform="translate(44.2375 211.591219)scale(0.1 -0.1)">
       <use xlink:href="#DejaVuSans-48"/>
      </g>
     </g>
    </g>
    <g id="ytick_5">
     <g id="line2d_16">
      <g>
       <use style="stroke:#000000;stroke-width:0.8;" x="57.6" xlink:href="#m551fd4dfe7" y="165.795664"/>
      </g>
     </g>
     <g id="text_17">
      <!-- 1 -->
      <g transform="translate(44.2375 169.594883)scale(0.1 -0.1)">
       <use xlink:href="#DejaVuSans-49"/>
      </g>
     </g>
    </g>
    <g id="text_18">
     <!-- Density -->
     <g transform="translate(38.157812 193.536594)rotate(-90)scale(0.1 -0.1)">
      <use xlink:href="#DejaVuSans-68"/>
      <use x="77.001953" xlink:href="#DejaVuSans-101"/>
      <use x="138.525391" xlink:href="#DejaVuSans-110"/>
      <use x="201.904297" xlink:href="#DejaVuSans-115"/>
      <use x="254.003906" xlink:href="#DejaVuSans-105"/>
      <use x="281.787109" xlink:href="#DejaVuSans-116"/>
      <use x="320.996094" xlink:href="#DejaVuSans-121"/>
     </g>
    </g>
   </g>
   <g id="line2d_17">
    <path clip-path="url(#p4dc423e830)" d="M 73.832727 207.787124 
L 77.112066 207.782407 
L 80.391405 207.773736 
L 83.670744 207.758316 
L 86.950083 207.731765 
L 90.229421 207.687467 
L 93.50876 207.615813 
L 96.788099 207.503412 
L 100.067438 207.332402 
L 103.346777 207.080096 
L 106.626116 206.719214 
L 109.905455 206.219004 
L 113.184793 205.547428 
L 116.464132 204.674451 
L 119.743471 203.576141 
L 123.02281 202.239051 
L 126.302149 200.664065 
L 129.581488 198.868882 
L 132.860826 196.888479 
L 136.140165 194.773294 
L 139.419504 192.585334 
L 142.698843 190.392893 
L 145.978182 188.264696 
L 149.257521 186.264315 
L 152.53686 184.445364 
L 155.816198 182.847716 
L 159.095537 181.494741 
L 162.374876 180.391566 
L 165.654215 179.524545 
L 168.933554 178.862332 
L 172.212893 178.35906 
L 175.492231 177.959963 
L 178.77157 177.609278 
L 182.050909 177.259656 
L 185.330248 176.881574 
L 188.609587 176.470833 
L 191.888926 176.052099 
L 195.168264 175.676917 
L 198.447603 175.415571 
L 201.726942 175.343569 
L 205.006281 175.524968 
L 208.28562 175.995957 
L 211.564959 176.752539 
L 214.844298 177.745491 
L 218.123636 178.884242 
L 221.402975 180.04907 
L 224.682314 181.109005 
L 227.961653 181.941492 
L 231.240992 182.449758 
L 234.520331 182.574803 
L 237.799669 182.300605 
L 241.079008 181.652801 
L 244.358347 180.692352 
L 247.637686 179.506138 
L 250.917025 178.196215 
L 254.196364 176.868981 
L 257.475702 175.624987 
L 260.755041 174.549961 
L 264.03438 173.707739 
L 267.313719 173.135993 
L 270.593058 172.845616 
L 273.872397 172.824167 
L 277.151736 173.042883 
L 280.431074 173.465743 
L 283.710413 174.058351 
L 286.989752 174.794391 
L 290.269091 175.658147 
L 293.54843 176.642949 
L 296.827769 177.746755 
L 300.107107 178.967008 
L 303.386446 180.296908 
L 306.665785 181.724462 
L 309.945124 183.234374 
L 313.224463 184.811579 
L 316.503802 186.444544 
L 319.78314 188.126594 
L 323.062479 189.854386 
L 326.341818 191.623897 
L 329.621157 193.425399 
L 332.900496 195.239378 
L 336.179835 197.035108 
L 339.459174 198.772659 
L 342.738512 200.407921 
L 346.017851 201.89923 
L 349.29719 203.213756 
L 352.576529 204.331985 
L 355.855868 205.2494 
L 359.135207 205.975318 
L 362.414545 206.529618 
L 365.693884 206.938478 
L 368.973223 207.230177 
L 372.252562 207.431764 
L 375.531901 207.56691 
L 378.81124 207.654917 
L 382.090579 207.710643 
L 385.369917 207.744972 
L 388.649256 207.765546 
L 391.928595 207.777537 
L 395.207934 207.784325 
L 398.487273 207.788053 
" style="fill:none;stroke:#006400;stroke-linecap:square;stroke-width:4;"/>
   </g>
   <g id="patch_110">
    <path d="M 57.6 207.792 
L 57.6 141.264 
" style="fill:none;stroke:#000000;stroke-linecap:square;stroke-linejoin:miter;stroke-width:0.8;"/>
   </g>
   <g id="patch_111">
    <path d="M 414.72 207.792 
L 414.72 141.264 
" style="fill:none;stroke:#000000;stroke-linecap:square;stroke-linejoin:miter;stroke-width:0.8;"/>
   </g>
   <g id="patch_112">
    <path d="M 57.6 207.792 
L 414.72 207.792 
" style="fill:none;stroke:#000000;stroke-linecap:square;stroke-linejoin:miter;stroke-width:0.8;"/>
   </g>
   <g id="patch_113">
    <path d="M 57.6 141.264 
L 414.72 141.264 
" style="fill:none;stroke:#000000;stroke-linecap:square;stroke-linejoin:miter;stroke-width:0.8;"/>
   </g>
   <g id="legend_2">
    <g id="patch_114">
     <path d="M 369.80125 163.942125 
L 407.72 163.942125 
Q 409.72 163.942125 409.72 161.942125 
L 409.72 148.264 
Q 409.72 146.264 407.72 146.264 
L 369.80125 146.264 
Q 367.80125 146.264 367.80125 148.264 
L 367.80125 161.942125 
Q 367.80125 163.942125 369.80125 163.942125 
z
" style="fill:#ffffff;opacity:0.8;stroke:#cccccc;stroke-linejoin:miter;"/>
    </g>
    <g id="patch_115">
     <path d="M 371.80125 157.862437 
L 391.80125 157.862437 
L 391.80125 150.862437 
L 371.80125 150.862437 
z
" style="fill:#006400;opacity:0.4;stroke:#000000;stroke-linejoin:miter;"/>
    </g>
    <g id="text_19">
     <!-- y -->
     <g transform="translate(399.80125 157.862437)scale(0.1 -0.1)">
      <use xlink:href="#DejaVuSans-121"/>
     </g>
    </g>
   </g>
  </g>
  <g id="axes_3">
   <g id="patch_116">
    <path d="M 57.6 307.584 
L 414.72 307.584 
L 414.72 241.056 
L 57.6 241.056 
z
" style="fill:#ffffff;"/>
   </g>
   <g id="patch_117">
    <path clip-path="url(#p4b959f0b30)" d="M 123.13961 307.584 
L 127.660426 307.584 
L 127.660426 290.525538 
L 123.13961 290.525538 
z
" style="fill:#8b0000;opacity:0.4;stroke:#000000;stroke-linejoin:miter;"/>
   </g>
   <g id="patch_118">
    <path clip-path="url(#p4b959f0b30)" d="M 127.660426 307.584 
L 132.181242 307.584 
L 132.181242 300.273231 
L 127.660426 300.273231 
z
" style="fill:#8b0000;opacity:0.4;stroke:#000000;stroke-linejoin:miter;"/>
   </g>
   <g id="patch_119">
    <path clip-path="url(#p4b959f0b30)" d="M 132.181242 307.584 
L 136.702057 307.584 
L 136.702057 292.962462 
L 132.181242 292.962462 
z
" style="fill:#8b0000;opacity:0.4;stroke:#000000;stroke-linejoin:miter;"/>
   </g>
   <g id="patch_120">
    <path clip-path="url(#p4b959f0b30)" d="M 136.702057 307.584 
L 141.222873 307.584 
L 141.222873 268.593231 
L 136.702057 268.593231 
z
" style="fill:#8b0000;opacity:0.4;stroke:#000000;stroke-linejoin:miter;"/>
   </g>
   <g id="patch_121">
    <path clip-path="url(#p4b959f0b30)" d="M 141.222873 307.584 
L 145.743688 307.584 
L 145.743688 273.467077 
L 141.222873 273.467077 
z
" style="fill:#8b0000;opacity:0.4;stroke:#000000;stroke-linejoin:miter;"/>
   </g>
   <g id="patch_122">
    <path clip-path="url(#p4b959f0b30)" d="M 145.743688 307.584 
L 150.264504 307.584 
L 150.264504 285.651692 
L 145.743688 285.651692 
z
" style="fill:#8b0000;opacity:0.4;stroke:#000000;stroke-linejoin:miter;"/>
   </g>
   <g id="patch_123">
    <path clip-path="url(#p4b959f0b30)" d="M 150.264504 307.584 
L 154.78532 307.584 
L 154.78532 278.340923 
L 150.264504 278.340923 
z
" style="fill:#8b0000;opacity:0.4;stroke:#000000;stroke-linejoin:miter;"/>
   </g>
   <g id="patch_124">
    <path clip-path="url(#p4b959f0b30)" d="M 154.78532 307.584 
L 159.306135 307.584 
L 159.306135 283.214769 
L 154.78532 283.214769 
z
" style="fill:#8b0000;opacity:0.4;stroke:#000000;stroke-linejoin:miter;"/>
   </g>
   <g id="patch_125">
    <path clip-path="url(#p4b959f0b30)" d="M 159.306135 307.584 
L 163.826951 307.584 
L 163.826951 268.593231 
L 159.306135 268.593231 
z
" style="fill:#8b0000;opacity:0.4;stroke:#000000;stroke-linejoin:miter;"/>
   </g>
   <g id="patch_126">
    <path clip-path="url(#p4b959f0b30)" d="M 163.826951 307.584 
L 168.347766 307.584 
L 168.347766 280.777846 
L 163.826951 280.777846 
z
" style="fill:#8b0000;opacity:0.4;stroke:#000000;stroke-linejoin:miter;"/>
   </g>
   <g id="patch_127">
    <path clip-path="url(#p4b959f0b30)" d="M 168.347766 307.584 
L 172.868582 307.584 
L 172.868582 280.777846 
L 168.347766 280.777846 
z
" style="fill:#8b0000;opacity:0.4;stroke:#000000;stroke-linejoin:miter;"/>
   </g>
   <g id="patch_128">
    <path clip-path="url(#p4b959f0b30)" d="M 172.868582 307.584 
L 177.389397 307.584 
L 177.389397 280.777846 
L 172.868582 280.777846 
z
" style="fill:#8b0000;opacity:0.4;stroke:#000000;stroke-linejoin:miter;"/>
   </g>
   <g id="patch_129">
    <path clip-path="url(#p4b959f0b30)" d="M 177.389397 307.584 
L 181.910213 307.584 
L 181.910213 297.836308 
L 177.389397 297.836308 
z
" style="fill:#8b0000;opacity:0.4;stroke:#000000;stroke-linejoin:miter;"/>
   </g>
   <g id="patch_130">
    <path clip-path="url(#p4b959f0b30)" d="M 181.910213 307.584 
L 186.431029 307.584 
L 186.431029 275.904 
L 181.910213 275.904 
z
" style="fill:#8b0000;opacity:0.4;stroke:#000000;stroke-linejoin:miter;"/>
   </g>
   <g id="patch_131">
    <path clip-path="url(#p4b959f0b30)" d="M 186.431029 307.584 
L 190.951844 307.584 
L 190.951844 295.399385 
L 186.431029 295.399385 
z
" style="fill:#8b0000;opacity:0.4;stroke:#000000;stroke-linejoin:miter;"/>
   </g>
   <g id="patch_132">
    <path clip-path="url(#p4b959f0b30)" d="M 190.951844 307.584 
L 195.47266 307.584 
L 195.47266 283.214769 
L 190.951844 283.214769 
z
" style="fill:#8b0000;opacity:0.4;stroke:#000000;stroke-linejoin:miter;"/>
   </g>
   <g id="patch_133">
    <path clip-path="url(#p4b959f0b30)" d="M 195.47266 307.584 
L 199.993475 307.584 
L 199.993475 271.030154 
L 195.47266 271.030154 
z
" style="fill:#8b0000;opacity:0.4;stroke:#000000;stroke-linejoin:miter;"/>
   </g>
   <g id="patch_134">
    <path clip-path="url(#p4b959f0b30)" d="M 199.993475 307.584 
L 204.514291 307.584 
L 204.514291 263.719385 
L 199.993475 263.719385 
z
" style="fill:#8b0000;opacity:0.4;stroke:#000000;stroke-linejoin:miter;"/>
   </g>
   <g id="patch_135">
    <path clip-path="url(#p4b959f0b30)" d="M 204.514291 307.584 
L 209.035107 307.584 
L 209.035107 263.719385 
L 204.514291 263.719385 
z
" style="fill:#8b0000;opacity:0.4;stroke:#000000;stroke-linejoin:miter;"/>
   </g>
   <g id="patch_136">
    <path clip-path="url(#p4b959f0b30)" d="M 209.035107 307.584 
L 213.555922 307.584 
L 213.555922 244.224 
L 209.035107 244.224 
z
" style="fill:#8b0000;opacity:0.4;stroke:#000000;stroke-linejoin:miter;"/>
   </g>
   <g id="patch_137">
    <path clip-path="url(#p4b959f0b30)" d="M 213.555922 307.584 
L 218.076738 307.584 
L 218.076738 283.214769 
L 213.555922 283.214769 
z
" style="fill:#8b0000;opacity:0.4;stroke:#000000;stroke-linejoin:miter;"/>
   </g>
   <g id="patch_138">
    <path clip-path="url(#p4b959f0b30)" d="M 218.076738 307.584 
L 222.597553 307.584 
L 222.597553 258.845538 
L 218.076738 258.845538 
z
" style="fill:#8b0000;opacity:0.4;stroke:#000000;stroke-linejoin:miter;"/>
   </g>
   <g id="patch_139">
    <path clip-path="url(#p4b959f0b30)" d="M 222.597553 307.584 
L 227.118369 307.584 
L 227.118369 280.777846 
L 222.597553 280.777846 
z
" style="fill:#8b0000;opacity:0.4;stroke:#000000;stroke-linejoin:miter;"/>
   </g>
   <g id="patch_140">
    <path clip-path="url(#p4b959f0b30)" d="M 227.118369 307.584 
L 231.639184 307.584 
L 231.639184 292.962462 
L 227.118369 292.962462 
z
" style="fill:#8b0000;opacity:0.4;stroke:#000000;stroke-linejoin:miter;"/>
   </g>
   <g id="patch_141">
    <path clip-path="url(#p4b959f0b30)" d="M 231.639184 307.584 
L 236.16 307.584 
L 236.16 273.467077 
L 231.639184 273.467077 
z
" style="fill:#8b0000;opacity:0.4;stroke:#000000;stroke-linejoin:miter;"/>
   </g>
   <g id="patch_142">
    <path clip-path="url(#p4b959f0b30)" d="M 236.16 307.584 
L 240.680816 307.584 
L 240.680816 278.340923 
L 236.16 278.340923 
z
" style="fill:#8b0000;opacity:0.4;stroke:#000000;stroke-linejoin:miter;"/>
   </g>
   <g id="patch_143">
    <path clip-path="url(#p4b959f0b30)" d="M 240.680816 307.584 
L 245.201631 307.584 
L 245.201631 278.340923 
L 240.680816 278.340923 
z
" style="fill:#8b0000;opacity:0.4;stroke:#000000;stroke-linejoin:miter;"/>
   </g>
   <g id="patch_144">
    <path clip-path="url(#p4b959f0b30)" d="M 245.201631 307.584 
L 249.722447 307.584 
L 249.722447 273.467077 
L 245.201631 273.467077 
z
" style="fill:#8b0000;opacity:0.4;stroke:#000000;stroke-linejoin:miter;"/>
   </g>
   <g id="patch_145">
    <path clip-path="url(#p4b959f0b30)" d="M 249.722447 307.584 
L 254.243262 307.584 
L 254.243262 263.719385 
L 249.722447 263.719385 
z
" style="fill:#8b0000;opacity:0.4;stroke:#000000;stroke-linejoin:miter;"/>
   </g>
   <g id="patch_146">
    <path clip-path="url(#p4b959f0b30)" d="M 254.243262 307.584 
L 258.764078 307.584 
L 258.764078 261.282462 
L 254.243262 261.282462 
z
" style="fill:#8b0000;opacity:0.4;stroke:#000000;stroke-linejoin:miter;"/>
   </g>
   <g id="patch_147">
    <path clip-path="url(#p4b959f0b30)" d="M 258.764078 307.584 
L 263.284893 307.584 
L 263.284893 266.156308 
L 258.764078 266.156308 
z
" style="fill:#8b0000;opacity:0.4;stroke:#000000;stroke-linejoin:miter;"/>
   </g>
   <g id="patch_148">
    <path clip-path="url(#p4b959f0b30)" d="M 263.284893 307.584 
L 267.805709 307.584 
L 267.805709 275.904 
L 263.284893 275.904 
z
" style="fill:#8b0000;opacity:0.4;stroke:#000000;stroke-linejoin:miter;"/>
   </g>
   <g id="patch_149">
    <path clip-path="url(#p4b959f0b30)" d="M 267.805709 307.584 
L 272.326525 307.584 
L 272.326525 280.777846 
L 267.805709 280.777846 
z
" style="fill:#8b0000;opacity:0.4;stroke:#000000;stroke-linejoin:miter;"/>
   </g>
   <g id="patch_150">
    <path clip-path="url(#p4b959f0b30)" d="M 272.326525 307.584 
L 276.84734 307.584 
L 276.84734 283.214769 
L 272.326525 283.214769 
z
" style="fill:#8b0000;opacity:0.4;stroke:#000000;stroke-linejoin:miter;"/>
   </g>
   <g id="patch_151">
    <path clip-path="url(#p4b959f0b30)" d="M 276.84734 307.584 
L 281.368156 307.584 
L 281.368156 302.710154 
L 276.84734 302.710154 
z
" style="fill:#8b0000;opacity:0.4;stroke:#000000;stroke-linejoin:miter;"/>
   </g>
   <g id="patch_152">
    <path clip-path="url(#p4b959f0b30)" d="M 281.368156 307.584 
L 285.888971 307.584 
L 285.888971 292.962462 
L 281.368156 292.962462 
z
" style="fill:#8b0000;opacity:0.4;stroke:#000000;stroke-linejoin:miter;"/>
   </g>
   <g id="patch_153">
    <path clip-path="url(#p4b959f0b30)" d="M 285.888971 307.584 
L 290.409787 307.584 
L 290.409787 273.467077 
L 285.888971 273.467077 
z
" style="fill:#8b0000;opacity:0.4;stroke:#000000;stroke-linejoin:miter;"/>
   </g>
   <g id="patch_154">
    <path clip-path="url(#p4b959f0b30)" d="M 290.409787 307.584 
L 294.930603 307.584 
L 294.930603 285.651692 
L 290.409787 285.651692 
z
" style="fill:#8b0000;opacity:0.4;stroke:#000000;stroke-linejoin:miter;"/>
   </g>
   <g id="patch_155">
    <path clip-path="url(#p4b959f0b30)" d="M 294.930603 307.584 
L 299.451418 307.584 
L 299.451418 292.962462 
L 294.930603 292.962462 
z
" style="fill:#8b0000;opacity:0.4;stroke:#000000;stroke-linejoin:miter;"/>
   </g>
   <g id="patch_156">
    <path clip-path="url(#p4b959f0b30)" d="M 299.451418 307.584 
L 303.972234 307.584 
L 303.972234 268.593231 
L 299.451418 268.593231 
z
" style="fill:#8b0000;opacity:0.4;stroke:#000000;stroke-linejoin:miter;"/>
   </g>
   <g id="patch_157">
    <path clip-path="url(#p4b959f0b30)" d="M 303.972234 307.584 
L 308.493049 307.584 
L 308.493049 278.340923 
L 303.972234 278.340923 
z
" style="fill:#8b0000;opacity:0.4;stroke:#000000;stroke-linejoin:miter;"/>
   </g>
   <g id="patch_158">
    <path clip-path="url(#p4b959f0b30)" d="M 308.493049 307.584 
L 313.013865 307.584 
L 313.013865 278.340923 
L 308.493049 278.340923 
z
" style="fill:#8b0000;opacity:0.4;stroke:#000000;stroke-linejoin:miter;"/>
   </g>
   <g id="patch_159">
    <path clip-path="url(#p4b959f0b30)" d="M 313.013865 307.584 
L 317.53468 307.584 
L 317.53468 280.777846 
L 313.013865 280.777846 
z
" style="fill:#8b0000;opacity:0.4;stroke:#000000;stroke-linejoin:miter;"/>
   </g>
   <g id="patch_160">
    <path clip-path="url(#p4b959f0b30)" d="M 317.53468 307.584 
L 322.055496 307.584 
L 322.055496 278.340923 
L 317.53468 278.340923 
z
" style="fill:#8b0000;opacity:0.4;stroke:#000000;stroke-linejoin:miter;"/>
   </g>
   <g id="patch_161">
    <path clip-path="url(#p4b959f0b30)" d="M 322.055496 307.584 
L 326.576312 307.584 
L 326.576312 275.904 
L 322.055496 275.904 
z
" style="fill:#8b0000;opacity:0.4;stroke:#000000;stroke-linejoin:miter;"/>
   </g>
   <g id="patch_162">
    <path clip-path="url(#p4b959f0b30)" d="M 326.576312 307.584 
L 331.097127 307.584 
L 331.097127 288.088615 
L 326.576312 288.088615 
z
" style="fill:#8b0000;opacity:0.4;stroke:#000000;stroke-linejoin:miter;"/>
   </g>
   <g id="patch_163">
    <path clip-path="url(#p4b959f0b30)" d="M 331.097127 307.584 
L 335.617943 307.584 
L 335.617943 300.273231 
L 331.097127 300.273231 
z
" style="fill:#8b0000;opacity:0.4;stroke:#000000;stroke-linejoin:miter;"/>
   </g>
   <g id="patch_164">
    <path clip-path="url(#p4b959f0b30)" d="M 335.617943 307.584 
L 340.138758 307.584 
L 340.138758 288.088615 
L 335.617943 288.088615 
z
" style="fill:#8b0000;opacity:0.4;stroke:#000000;stroke-linejoin:miter;"/>
   </g>
   <g id="patch_165">
    <path clip-path="url(#p4b959f0b30)" d="M 340.138758 307.584 
L 344.659574 307.584 
L 344.659574 302.710154 
L 340.138758 302.710154 
z
" style="fill:#8b0000;opacity:0.4;stroke:#000000;stroke-linejoin:miter;"/>
   </g>
   <g id="patch_166">
    <path clip-path="url(#p4b959f0b30)" d="M 344.659574 307.584 
L 349.18039 307.584 
L 349.18039 305.147077 
L 344.659574 305.147077 
z
" style="fill:#8b0000;opacity:0.4;stroke:#000000;stroke-linejoin:miter;"/>
   </g>
   <g id="matplotlib.axis_5">
    <g id="xtick_11">
     <g id="line2d_18">
      <g>
       <use style="stroke:#000000;stroke-width:0.8;" x="98.297396" xlink:href="#m10f4a8b9ce" y="307.584"/>
      </g>
     </g>
     <g id="text_20">
      <!-- −1.0 -->
      <g transform="translate(86.15599 322.182437)scale(0.1 -0.1)">
       <use xlink:href="#DejaVuSans-8722"/>
       <use x="83.789062" xlink:href="#DejaVuSans-49"/>
       <use x="147.412109" xlink:href="#DejaVuSans-46"/>
       <use x="179.199219" xlink:href="#DejaVuSans-48"/>
      </g>
     </g>
    </g>
    <g id="xtick_12">
     <g id="line2d_19">
      <g>
       <use style="stroke:#000000;stroke-width:0.8;" x="165.205885" xlink:href="#m10f4a8b9ce" y="307.584"/>
      </g>
     </g>
     <g id="text_21">
      <!-- −0.5 -->
      <g transform="translate(153.064479 322.182437)scale(0.1 -0.1)">
       <use xlink:href="#DejaVuSans-8722"/>
       <use x="83.789062" xlink:href="#DejaVuSans-48"/>
       <use x="147.412109" xlink:href="#DejaVuSans-46"/>
       <use x="179.199219" xlink:href="#DejaVuSans-53"/>
      </g>
     </g>
    </g>
    <g id="xtick_13">
     <g id="line2d_20">
      <g>
       <use style="stroke:#000000;stroke-width:0.8;" x="232.114374" xlink:href="#m10f4a8b9ce" y="307.584"/>
      </g>
     </g>
     <g id="text_22">
      <!-- 0.0 -->
      <g transform="translate(224.162812 322.182437)scale(0.1 -0.1)">
       <use xlink:href="#DejaVuSans-48"/>
       <use x="63.623047" xlink:href="#DejaVuSans-46"/>
       <use x="95.410156" xlink:href="#DejaVuSans-48"/>
      </g>
     </g>
    </g>
    <g id="xtick_14">
     <g id="line2d_21">
      <g>
       <use style="stroke:#000000;stroke-width:0.8;" x="299.022863" xlink:href="#m10f4a8b9ce" y="307.584"/>
      </g>
     </g>
     <g id="text_23">
      <!-- 0.5 -->
      <g transform="translate(291.0713 322.182437)scale(0.1 -0.1)">
       <use xlink:href="#DejaVuSans-48"/>
       <use x="63.623047" xlink:href="#DejaVuSans-46"/>
       <use x="95.410156" xlink:href="#DejaVuSans-53"/>
      </g>
     </g>
    </g>
    <g id="xtick_15">
     <g id="line2d_22">
      <g>
       <use style="stroke:#000000;stroke-width:0.8;" x="365.931352" xlink:href="#m10f4a8b9ce" y="307.584"/>
      </g>
     </g>
     <g id="text_24">
      <!-- 1.0 -->
      <g transform="translate(357.979789 322.182437)scale(0.1 -0.1)">
       <use xlink:href="#DejaVuSans-49"/>
       <use x="63.623047" xlink:href="#DejaVuSans-46"/>
       <use x="95.410156" xlink:href="#DejaVuSans-48"/>
      </g>
     </g>
    </g>
    <g id="text_25">
     <!-- Position -->
     <defs>
      <path d="M 19.671875 64.796875 
L 19.671875 37.40625 
L 32.078125 37.40625 
Q 38.96875 37.40625 42.71875 40.96875 
Q 46.484375 44.53125 46.484375 51.125 
Q 46.484375 57.671875 42.71875 61.234375 
Q 38.96875 64.796875 32.078125 64.796875 
z
M 9.8125 72.90625 
L 32.078125 72.90625 
Q 44.34375 72.90625 50.609375 67.359375 
Q 56.890625 61.8125 56.890625 51.125 
Q 56.890625 40.328125 50.609375 34.8125 
Q 44.34375 29.296875 32.078125 29.296875 
L 19.671875 29.296875 
L 19.671875 0 
L 9.8125 0 
z
" id="DejaVuSans-80"/>
      <path d="M 30.609375 48.390625 
Q 23.390625 48.390625 19.1875 42.75 
Q 14.984375 37.109375 14.984375 27.296875 
Q 14.984375 17.484375 19.15625 11.84375 
Q 23.34375 6.203125 30.609375 6.203125 
Q 37.796875 6.203125 41.984375 11.859375 
Q 46.1875 17.53125 46.1875 27.296875 
Q 46.1875 37.015625 41.984375 42.703125 
Q 37.796875 48.390625 30.609375 48.390625 
z
M 30.609375 56 
Q 42.328125 56 49.015625 48.375 
Q 55.71875 40.765625 55.71875 27.296875 
Q 55.71875 13.875 49.015625 6.21875 
Q 42.328125 -1.421875 30.609375 -1.421875 
Q 18.84375 -1.421875 12.171875 6.21875 
Q 5.515625 13.875 5.515625 27.296875 
Q 5.515625 40.765625 12.171875 48.375 
Q 18.84375 56 30.609375 56 
z
" id="DejaVuSans-111"/>
     </defs>
     <g transform="translate(216.517031 335.860562)scale(0.1 -0.1)">
      <use xlink:href="#DejaVuSans-80"/>
      <use x="60.255859" xlink:href="#DejaVuSans-111"/>
      <use x="121.4375" xlink:href="#DejaVuSans-115"/>
      <use x="173.537109" xlink:href="#DejaVuSans-105"/>
      <use x="201.320312" xlink:href="#DejaVuSans-116"/>
      <use x="240.529297" xlink:href="#DejaVuSans-105"/>
      <use x="268.3125" xlink:href="#DejaVuSans-111"/>
      <use x="329.494141" xlink:href="#DejaVuSans-110"/>
     </g>
    </g>
   </g>
   <g id="matplotlib.axis_6">
    <g id="ytick_6">
     <g id="line2d_23">
      <g>
       <use style="stroke:#000000;stroke-width:0.8;" x="57.6" xlink:href="#m551fd4dfe7" y="307.584"/>
      </g>
     </g>
     <g id="text_26">
      <!-- 0.0 -->
      <g transform="translate(34.696875 311.383219)scale(0.1 -0.1)">
       <use xlink:href="#DejaVuSans-48"/>
       <use x="63.623047" xlink:href="#DejaVuSans-46"/>
       <use x="95.410156" xlink:href="#DejaVuSans-48"/>
      </g>
     </g>
    </g>
    <g id="ytick_7">
     <g id="line2d_24">
      <g>
       <use style="stroke:#000000;stroke-width:0.8;" x="57.6" xlink:href="#m551fd4dfe7" y="284.655661"/>
      </g>
     </g>
     <g id="text_27">
      <!-- 0.5 -->
      <g transform="translate(34.696875 288.45488)scale(0.1 -0.1)">
       <use xlink:href="#DejaVuSans-48"/>
       <use x="63.623047" xlink:href="#DejaVuSans-46"/>
       <use x="95.410156" xlink:href="#DejaVuSans-53"/>
      </g>
     </g>
    </g>
    <g id="ytick_8">
     <g id="line2d_25">
      <g>
       <use style="stroke:#000000;stroke-width:0.8;" x="57.6" xlink:href="#m551fd4dfe7" y="261.727322"/>
      </g>
     </g>
     <g id="text_28">
      <!-- 1.0 -->
      <g transform="translate(34.696875 265.526541)scale(0.1 -0.1)">
       <use xlink:href="#DejaVuSans-49"/>
       <use x="63.623047" xlink:href="#DejaVuSans-46"/>
       <use x="95.410156" xlink:href="#DejaVuSans-48"/>
      </g>
     </g>
    </g>
    <g id="text_29">
     <!-- Density -->
     <g transform="translate(28.617187 293.328594)rotate(-90)scale(0.1 -0.1)">
      <use xlink:href="#DejaVuSans-68"/>
      <use x="77.001953" xlink:href="#DejaVuSans-101"/>
      <use x="138.525391" xlink:href="#DejaVuSans-110"/>
      <use x="201.904297" xlink:href="#DejaVuSans-115"/>
      <use x="254.003906" xlink:href="#DejaVuSans-105"/>
      <use x="281.787109" xlink:href="#DejaVuSans-116"/>
      <use x="320.996094" xlink:href="#DejaVuSans-121"/>
     </g>
    </g>
   </g>
   <g id="line2d_26">
    <path clip-path="url(#p4b959f0b30)" d="M 73.832727 307.560509 
L 77.112066 307.539936 
L 80.391405 307.504169 
L 83.670744 307.444229 
L 86.950083 307.347355 
L 90.229421 307.196296 
L 93.50876 306.96892 
L 96.788099 306.638394 
L 100.067438 306.174179 
L 103.346777 305.544012 
L 106.626116 304.716917 
L 109.905455 303.667091 
L 113.184793 302.378264 
L 116.464132 300.847941 
L 119.743471 299.090768 
L 123.02281 297.140262 
L 126.302149 295.048335 
L 129.581488 292.882335 
L 132.860826 290.719835 
L 136.140165 288.641812 
L 139.419504 286.7252 
L 142.698843 285.035881 
L 145.978182 283.622985 
L 149.257521 282.514998 
L 152.53686 281.717759 
L 155.816198 281.21413 
L 159.095537 280.965065 
L 162.374876 280.911941 
L 165.654215 280.980252 
L 168.933554 281.08493 
L 172.212893 281.137474 
L 175.492231 281.054759 
L 178.77157 280.768823 
L 182.050909 280.236415 
L 185.330248 279.446627 
L 188.609587 278.42491 
L 191.888926 277.232089 
L 195.168264 275.957775 
L 198.447603 274.708613 
L 201.726942 273.592924 
L 205.006281 272.704212 
L 208.28562 272.106491 
L 211.564959 271.824247 
L 214.844298 271.839107 
L 218.123636 272.094012 
L 221.402975 272.504225 
L 224.682314 272.973133 
L 227.961653 273.409839 
L 231.240992 273.745273 
L 234.520331 273.943849 
L 237.799669 274.0087 
L 241.079008 273.97973 
L 244.358347 273.925056 
L 247.637686 273.927555 
L 250.917025 274.068982 
L 254.196364 274.414476 
L 257.475702 275.000105 
L 260.755041 275.825573 
L 264.03438 276.853293 
L 267.313719 278.013879 
L 270.593058 279.216998 
L 273.872397 280.365484 
L 277.151736 281.370127 
L 280.431074 282.162497 
L 283.710413 282.703761 
L 286.989752 282.988432 
L 290.269091 283.043113 
L 293.54843 282.921255 
L 296.827769 282.695473 
L 300.107107 282.449022 
L 303.386446 282.267616 
L 306.665785 282.232261 
L 309.945124 282.413227 
L 313.224463 282.865069 
L 316.503802 283.622626 
L 319.78314 284.698163 
L 323.062479 286.080034 
L 326.341818 287.733345 
L 329.621157 289.602897 
L 332.900496 291.61833 
L 336.179835 293.700912 
L 339.459174 295.771087 
L 342.738512 297.755679 
L 346.017851 299.59379 
L 349.29719 301.240697 
L 352.576529 302.66947 
L 355.855868 303.870427 
L 359.135207 304.848864 
L 362.414545 305.621661 
L 365.693884 306.213415 
L 368.973223 306.652673 
L 372.252562 306.968696 
L 375.531901 307.188997 
L 378.81124 307.337756 
L 382.090579 307.435019 
L 385.369917 307.496574 
L 388.649256 307.534266 
L 391.928595 307.556589 
L 395.207934 307.56937 
L 398.487273 307.576442 
" style="fill:none;stroke:#8b0000;stroke-linecap:square;stroke-width:4;"/>
   </g>
   <g id="patch_167">
    <path d="M 57.6 307.584 
L 57.6 241.056 
" style="fill:none;stroke:#000000;stroke-linecap:square;stroke-linejoin:miter;stroke-width:0.8;"/>
   </g>
   <g id="patch_168">
    <path d="M 414.72 307.584 
L 414.72 241.056 
" style="fill:none;stroke:#000000;stroke-linecap:square;stroke-linejoin:miter;stroke-width:0.8;"/>
   </g>
   <g id="patch_169">
    <path d="M 57.6 307.584 
L 414.72 307.584 
" style="fill:none;stroke:#000000;stroke-linecap:square;stroke-linejoin:miter;stroke-width:0.8;"/>
   </g>
   <g id="patch_170">
    <path d="M 57.6 241.056 
L 414.72 241.056 
" style="fill:none;stroke:#000000;stroke-linecap:square;stroke-linejoin:miter;stroke-width:0.8;"/>
   </g>
   <g id="legend_3">
    <g id="patch_171">
     <path d="M 370.471563 263.734125 
L 407.72 263.734125 
Q 409.72 263.734125 409.72 261.734125 
L 409.72 248.056 
Q 409.72 246.056 407.72 246.056 
L 370.471563 246.056 
Q 368.471563 246.056 368.471563 248.056 
L 368.471563 261.734125 
Q 368.471563 263.734125 370.471563 263.734125 
z
" style="fill:#ffffff;opacity:0.8;stroke:#cccccc;stroke-linejoin:miter;"/>
    </g>
    <g id="patch_172">
     <path d="M 372.471563 257.654437 
L 392.471563 257.654437 
L 392.471563 250.654437 
L 372.471563 250.654437 
z
" style="fill:#8b0000;opacity:0.4;stroke:#000000;stroke-linejoin:miter;"/>
    </g>
    <g id="text_30">
     <!-- z -->
     <defs>
      <path d="M 5.515625 54.6875 
L 48.1875 54.6875 
L 48.1875 46.484375 
L 14.40625 7.171875 
L 48.1875 7.171875 
L 48.1875 0 
L 4.296875 0 
L 4.296875 8.203125 
L 38.09375 47.515625 
L 5.515625 47.515625 
z
" id="DejaVuSans-122"/>
     </defs>
     <g transform="translate(400.471563 257.654437)scale(0.1 -0.1)">
      <use xlink:href="#DejaVuSans-122"/>
     </g>
    </g>
   </g>
  </g>
  <g id="text_31">
   <!-- Motif 6 Zr 557 Histogram -->
   <defs>
    <path d="M 9.8125 72.90625 
L 24.515625 72.90625 
L 43.109375 23.296875 
L 61.8125 72.90625 
L 76.515625 72.90625 
L 76.515625 0 
L 66.890625 0 
L 66.890625 64.015625 
L 48.09375 14.015625 
L 38.1875 14.015625 
L 19.390625 64.015625 
L 19.390625 0 
L 9.8125 0 
z
" id="DejaVuSans-77"/>
    <path d="M 37.109375 75.984375 
L 37.109375 68.5 
L 28.515625 68.5 
Q 23.6875 68.5 21.796875 66.546875 
Q 19.921875 64.59375 19.921875 59.515625 
L 19.921875 54.6875 
L 34.71875 54.6875 
L 34.71875 47.703125 
L 19.921875 47.703125 
L 19.921875 0 
L 10.890625 0 
L 10.890625 47.703125 
L 2.296875 47.703125 
L 2.296875 54.6875 
L 10.890625 54.6875 
L 10.890625 58.5 
Q 10.890625 67.625 15.140625 71.796875 
Q 19.390625 75.984375 28.609375 75.984375 
z
" id="DejaVuSans-102"/>
    <path id="DejaVuSans-32"/>
    <path d="M 33.015625 40.375 
Q 26.375 40.375 22.484375 35.828125 
Q 18.609375 31.296875 18.609375 23.390625 
Q 18.609375 15.53125 22.484375 10.953125 
Q 26.375 6.390625 33.015625 6.390625 
Q 39.65625 6.390625 43.53125 10.953125 
Q 47.40625 15.53125 47.40625 23.390625 
Q 47.40625 31.296875 43.53125 35.828125 
Q 39.65625 40.375 33.015625 40.375 
z
M 52.59375 71.296875 
L 52.59375 62.3125 
Q 48.875 64.0625 45.09375 64.984375 
Q 41.3125 65.921875 37.59375 65.921875 
Q 27.828125 65.921875 22.671875 59.328125 
Q 17.53125 52.734375 16.796875 39.40625 
Q 19.671875 43.65625 24.015625 45.921875 
Q 28.375 48.1875 33.59375 48.1875 
Q 44.578125 48.1875 50.953125 41.515625 
Q 57.328125 34.859375 57.328125 23.390625 
Q 57.328125 12.15625 50.6875 5.359375 
Q 44.046875 -1.421875 33.015625 -1.421875 
Q 20.359375 -1.421875 13.671875 8.265625 
Q 6.984375 17.96875 6.984375 36.375 
Q 6.984375 53.65625 15.1875 63.9375 
Q 23.390625 74.21875 37.203125 74.21875 
Q 40.921875 74.21875 44.703125 73.484375 
Q 48.484375 72.75 52.59375 71.296875 
z
" id="DejaVuSans-54"/>
    <path d="M 5.609375 72.90625 
L 62.890625 72.90625 
L 62.890625 65.375 
L 16.796875 8.296875 
L 64.015625 8.296875 
L 64.015625 0 
L 4.5 0 
L 4.5 7.515625 
L 50.59375 64.59375 
L 5.609375 64.59375 
z
" id="DejaVuSans-90"/>
    <path d="M 41.109375 46.296875 
Q 39.59375 47.171875 37.8125 47.578125 
Q 36.03125 48 33.890625 48 
Q 26.265625 48 22.1875 43.046875 
Q 18.109375 38.09375 18.109375 28.8125 
L 18.109375 0 
L 9.078125 0 
L 9.078125 54.6875 
L 18.109375 54.6875 
L 18.109375 46.1875 
Q 20.953125 51.171875 25.484375 53.578125 
Q 30.03125 56 36.53125 56 
Q 37.453125 56 38.578125 55.875 
Q 39.703125 55.765625 41.0625 55.515625 
z
" id="DejaVuSans-114"/>
    <path d="M 8.203125 72.90625 
L 55.078125 72.90625 
L 55.078125 68.703125 
L 28.609375 0 
L 18.3125 0 
L 43.21875 64.59375 
L 8.203125 64.59375 
z
" id="DejaVuSans-55"/>
    <path d="M 9.8125 72.90625 
L 19.671875 72.90625 
L 19.671875 43.015625 
L 55.515625 43.015625 
L 55.515625 72.90625 
L 65.375 72.90625 
L 65.375 0 
L 55.515625 0 
L 55.515625 34.71875 
L 19.671875 34.71875 
L 19.671875 0 
L 9.8125 0 
z
" id="DejaVuSans-72"/>
    <path d="M 45.40625 27.984375 
Q 45.40625 37.75 41.375 43.109375 
Q 37.359375 48.484375 30.078125 48.484375 
Q 22.859375 48.484375 18.828125 43.109375 
Q 14.796875 37.75 14.796875 27.984375 
Q 14.796875 18.265625 18.828125 12.890625 
Q 22.859375 7.515625 30.078125 7.515625 
Q 37.359375 7.515625 41.375 12.890625 
Q 45.40625 18.265625 45.40625 27.984375 
z
M 54.390625 6.78125 
Q 54.390625 -7.171875 48.1875 -13.984375 
Q 42 -20.796875 29.203125 -20.796875 
Q 24.46875 -20.796875 20.265625 -20.09375 
Q 16.0625 -19.390625 12.109375 -17.921875 
L 12.109375 -9.1875 
Q 16.0625 -11.328125 19.921875 -12.34375 
Q 23.78125 -13.375 27.78125 -13.375 
Q 36.625 -13.375 41.015625 -8.765625 
Q 45.40625 -4.15625 45.40625 5.171875 
L 45.40625 9.625 
Q 42.625 4.78125 38.28125 2.390625 
Q 33.9375 0 27.875 0 
Q 17.828125 0 11.671875 7.65625 
Q 5.515625 15.328125 5.515625 27.984375 
Q 5.515625 40.671875 11.671875 48.328125 
Q 17.828125 56 27.875 56 
Q 33.9375 56 38.28125 53.609375 
Q 42.625 51.21875 45.40625 46.390625 
L 45.40625 54.6875 
L 54.390625 54.6875 
z
" id="DejaVuSans-103"/>
    <path d="M 34.28125 27.484375 
Q 23.390625 27.484375 19.1875 25 
Q 14.984375 22.515625 14.984375 16.5 
Q 14.984375 11.71875 18.140625 8.90625 
Q 21.296875 6.109375 26.703125 6.109375 
Q 34.1875 6.109375 38.703125 11.40625 
Q 43.21875 16.703125 43.21875 25.484375 
L 43.21875 27.484375 
z
M 52.203125 31.203125 
L 52.203125 0 
L 43.21875 0 
L 43.21875 8.296875 
Q 40.140625 3.328125 35.546875 0.953125 
Q 30.953125 -1.421875 24.3125 -1.421875 
Q 15.921875 -1.421875 10.953125 3.296875 
Q 6 8.015625 6 15.921875 
Q 6 25.140625 12.171875 29.828125 
Q 18.359375 34.515625 30.609375 34.515625 
L 43.21875 34.515625 
L 43.21875 35.40625 
Q 43.21875 41.609375 39.140625 45 
Q 35.0625 48.390625 27.6875 48.390625 
Q 23 48.390625 18.546875 47.265625 
Q 14.109375 46.140625 10.015625 43.890625 
L 10.015625 52.203125 
Q 14.9375 54.109375 19.578125 55.046875 
Q 24.21875 56 28.609375 56 
Q 40.484375 56 46.34375 49.84375 
Q 52.203125 43.703125 52.203125 31.203125 
z
" id="DejaVuSans-97"/>
    <path d="M 52 44.1875 
Q 55.375 50.25 60.0625 53.125 
Q 64.75 56 71.09375 56 
Q 79.640625 56 84.28125 50.015625 
Q 88.921875 44.046875 88.921875 33.015625 
L 88.921875 0 
L 79.890625 0 
L 79.890625 32.71875 
Q 79.890625 40.578125 77.09375 44.375 
Q 74.3125 48.1875 68.609375 48.1875 
Q 61.625 48.1875 57.5625 43.546875 
Q 53.515625 38.921875 53.515625 30.90625 
L 53.515625 0 
L 44.484375 0 
L 44.484375 32.71875 
Q 44.484375 40.625 41.703125 44.40625 
Q 38.921875 48.1875 33.109375 48.1875 
Q 26.21875 48.1875 22.15625 43.53125 
Q 18.109375 38.875 18.109375 30.90625 
L 18.109375 0 
L 9.078125 0 
L 9.078125 54.6875 
L 18.109375 54.6875 
L 18.109375 46.1875 
Q 21.1875 51.21875 25.484375 53.609375 
Q 29.78125 56 35.6875 56 
Q 41.65625 56 45.828125 52.96875 
Q 50 49.953125 52 44.1875 
z
" id="DejaVuSans-109"/>
   </defs>
   <g transform="translate(154.821563 16.030125)scale(0.12 -0.12)">
    <use xlink:href="#DejaVuSans-77"/>
    <use x="86.279297" xlink:href="#DejaVuSans-111"/>
    <use x="147.460938" xlink:href="#DejaVuSans-116"/>
    <use x="186.669922" xlink:href="#DejaVuSans-105"/>
    <use x="214.453125" xlink:href="#DejaVuSans-102"/>
    <use x="249.658203" xlink:href="#DejaVuSans-32"/>
    <use x="281.445312" xlink:href="#DejaVuSans-54"/>
    <use x="345.068359" xlink:href="#DejaVuSans-32"/>
    <use x="376.855469" xlink:href="#DejaVuSans-90"/>
    <use x="445.361328" xlink:href="#DejaVuSans-114"/>
    <use x="486.474609" xlink:href="#DejaVuSans-32"/>
    <use x="518.261719" xlink:href="#DejaVuSans-53"/>
    <use x="581.884766" xlink:href="#DejaVuSans-53"/>
    <use x="645.507812" xlink:href="#DejaVuSans-55"/>
    <use x="709.130859" xlink:href="#DejaVuSans-32"/>
    <use x="740.917969" xlink:href="#DejaVuSans-72"/>
    <use x="816.113281" xlink:href="#DejaVuSans-105"/>
    <use x="843.896484" xlink:href="#DejaVuSans-115"/>
    <use x="895.996094" xlink:href="#DejaVuSans-116"/>
    <use x="935.205078" xlink:href="#DejaVuSans-111"/>
    <use x="996.386719" xlink:href="#DejaVuSans-103"/>
    <use x="1059.863281" xlink:href="#DejaVuSans-114"/>
    <use x="1100.976562" xlink:href="#DejaVuSans-97"/>
    <use x="1162.255859" xlink:href="#DejaVuSans-109"/>
   </g>
  </g>
 </g>
 <defs>
  <clipPath id="pf183b2b8cf">
   <rect height="66.528" width="357.12" x="57.6" y="41.472"/>
  </clipPath>
  <clipPath id="p4dc423e830">
   <rect height="66.528" width="357.12" x="57.6" y="141.264"/>
  </clipPath>
  <clipPath id="p4b959f0b30">
   <rect height="66.528" width="357.12" x="57.6" y="241.056"/>
  </clipPath>
 </defs>
</svg>
