<?xml version="1.0" encoding="utf-8" standalone="no"?>
<!DOCTYPE svg PUBLIC "-//W3C//DTD SVG 1.1//EN"
  "http://www.w3.org/Graphics/SVG/1.1/DTD/svg11.dtd">
<!-- Created with matplotlib (https://matplotlib.org/) -->
<svg height="345.6pt" version="1.1" viewBox="0 0 460.8 345.6" width="460.8pt" xmlns="http://www.w3.org/2000/svg" xmlns:xlink="http://www.w3.org/1999/xlink">
 <defs>
  <style type="text/css">
*{stroke-linecap:butt;stroke-linejoin:round;}
  </style>
 </defs>
 <g id="figure_1">
  <g id="patch_1">
   <path d="M 0 345.6 
L 460.8 345.6 
L 460.8 0 
L 0 0 
z
" style="fill:#ffffff;"/>
  </g>
  <g id="axes_1">
   <g id="patch_2">
    <path d="M 57.6 108 
L 414.72 108 
L 414.72 41.472 
L 57.6 41.472 
z
" style="fill:#ffffff;"/>
   </g>
   <g id="patch_3">
    <path clip-path="url(#p6b8b69fcde)" d="M 117.582628 108 
L 122.325723 108 
L 122.325723 103.776 
L 117.582628 103.776 
z
" style="fill:#00008b;opacity:0.4;stroke:#000000;stroke-linejoin:miter;"/>
   </g>
   <g id="patch_4">
    <path clip-path="url(#p6b8b69fcde)" d="M 122.325723 108 
L 127.068818 108 
L 127.068818 105.184 
L 122.325723 105.184 
z
" style="fill:#00008b;opacity:0.4;stroke:#000000;stroke-linejoin:miter;"/>
   </g>
   <g id="patch_5">
    <path clip-path="url(#p6b8b69fcde)" d="M 127.068818 108 
L 131.811912 108 
L 131.811912 86.88 
L 127.068818 86.88 
z
" style="fill:#00008b;opacity:0.4;stroke:#000000;stroke-linejoin:miter;"/>
   </g>
   <g id="patch_6">
    <path clip-path="url(#p6b8b69fcde)" d="M 131.811912 108 
L 136.555007 108 
L 136.555007 93.92 
L 131.811912 93.92 
z
" style="fill:#00008b;opacity:0.4;stroke:#000000;stroke-linejoin:miter;"/>
   </g>
   <g id="patch_7">
    <path clip-path="url(#p6b8b69fcde)" d="M 136.555007 108 
L 141.298102 108 
L 141.298102 89.696 
L 136.555007 89.696 
z
" style="fill:#00008b;opacity:0.4;stroke:#000000;stroke-linejoin:miter;"/>
   </g>
   <g id="patch_8">
    <path clip-path="url(#p6b8b69fcde)" d="M 141.298102 108 
L 146.041197 108 
L 146.041197 88.288 
L 141.298102 88.288 
z
" style="fill:#00008b;opacity:0.4;stroke:#000000;stroke-linejoin:miter;"/>
   </g>
   <g id="patch_9">
    <path clip-path="url(#p6b8b69fcde)" d="M 146.041197 108 
L 150.784292 108 
L 150.784292 99.552 
L 146.041197 99.552 
z
" style="fill:#00008b;opacity:0.4;stroke:#000000;stroke-linejoin:miter;"/>
   </g>
   <g id="patch_10">
    <path clip-path="url(#p6b8b69fcde)" d="M 150.784292 108 
L 155.527387 108 
L 155.527387 75.616 
L 150.784292 75.616 
z
" style="fill:#00008b;opacity:0.4;stroke:#000000;stroke-linejoin:miter;"/>
   </g>
   <g id="patch_11">
    <path clip-path="url(#p6b8b69fcde)" d="M 155.527387 108 
L 160.270482 108 
L 160.270482 81.248 
L 155.527387 81.248 
z
" style="fill:#00008b;opacity:0.4;stroke:#000000;stroke-linejoin:miter;"/>
   </g>
   <g id="patch_12">
    <path clip-path="url(#p6b8b69fcde)" d="M 160.270482 108 
L 165.013577 108 
L 165.013577 84.064 
L 160.270482 84.064 
z
" style="fill:#00008b;opacity:0.4;stroke:#000000;stroke-linejoin:miter;"/>
   </g>
   <g id="patch_13">
    <path clip-path="url(#p6b8b69fcde)" d="M 165.013577 108 
L 169.756672 108 
L 169.756672 89.696 
L 165.013577 89.696 
z
" style="fill:#00008b;opacity:0.4;stroke:#000000;stroke-linejoin:miter;"/>
   </g>
   <g id="patch_14">
    <path clip-path="url(#p6b8b69fcde)" d="M 169.756672 108 
L 174.499766 108 
L 174.499766 65.76 
L 169.756672 65.76 
z
" style="fill:#00008b;opacity:0.4;stroke:#000000;stroke-linejoin:miter;"/>
   </g>
   <g id="patch_15">
    <path clip-path="url(#p6b8b69fcde)" d="M 174.499766 108 
L 179.242861 108 
L 179.242861 58.72 
L 174.499766 58.72 
z
" style="fill:#00008b;opacity:0.4;stroke:#000000;stroke-linejoin:miter;"/>
   </g>
   <g id="patch_16">
    <path clip-path="url(#p6b8b69fcde)" d="M 179.242861 108 
L 183.985956 108 
L 183.985956 82.656 
L 179.242861 82.656 
z
" style="fill:#00008b;opacity:0.4;stroke:#000000;stroke-linejoin:miter;"/>
   </g>
   <g id="patch_17">
    <path clip-path="url(#p6b8b69fcde)" d="M 183.985956 108 
L 188.729051 108 
L 188.729051 78.432 
L 183.985956 78.432 
z
" style="fill:#00008b;opacity:0.4;stroke:#000000;stroke-linejoin:miter;"/>
   </g>
   <g id="patch_18">
    <path clip-path="url(#p6b8b69fcde)" d="M 188.729051 108 
L 193.472146 108 
L 193.472146 81.248 
L 188.729051 81.248 
z
" style="fill:#00008b;opacity:0.4;stroke:#000000;stroke-linejoin:miter;"/>
   </g>
   <g id="patch_19">
    <path clip-path="url(#p6b8b69fcde)" d="M 193.472146 108 
L 198.215241 108 
L 198.215241 88.288 
L 193.472146 88.288 
z
" style="fill:#00008b;opacity:0.4;stroke:#000000;stroke-linejoin:miter;"/>
   </g>
   <g id="patch_20">
    <path clip-path="url(#p6b8b69fcde)" d="M 198.215241 108 
L 202.958336 108 
L 202.958336 91.104 
L 198.215241 91.104 
z
" style="fill:#00008b;opacity:0.4;stroke:#000000;stroke-linejoin:miter;"/>
   </g>
   <g id="patch_21">
    <path clip-path="url(#p6b8b69fcde)" d="M 202.958336 108 
L 207.701431 108 
L 207.701431 85.472 
L 202.958336 85.472 
z
" style="fill:#00008b;opacity:0.4;stroke:#000000;stroke-linejoin:miter;"/>
   </g>
   <g id="patch_22">
    <path clip-path="url(#p6b8b69fcde)" d="M 207.701431 108 
L 212.444526 108 
L 212.444526 81.248 
L 207.701431 81.248 
z
" style="fill:#00008b;opacity:0.4;stroke:#000000;stroke-linejoin:miter;"/>
   </g>
   <g id="patch_23">
    <path clip-path="url(#p6b8b69fcde)" d="M 212.444526 108 
L 217.18762 108 
L 217.18762 86.88 
L 212.444526 86.88 
z
" style="fill:#00008b;opacity:0.4;stroke:#000000;stroke-linejoin:miter;"/>
   </g>
   <g id="patch_24">
    <path clip-path="url(#p6b8b69fcde)" d="M 217.18762 108 
L 221.930715 108 
L 221.930715 78.432 
L 217.18762 78.432 
z
" style="fill:#00008b;opacity:0.4;stroke:#000000;stroke-linejoin:miter;"/>
   </g>
   <g id="patch_25">
    <path clip-path="url(#p6b8b69fcde)" d="M 221.930715 108 
L 226.67381 108 
L 226.67381 65.76 
L 221.930715 65.76 
z
" style="fill:#00008b;opacity:0.4;stroke:#000000;stroke-linejoin:miter;"/>
   </g>
   <g id="patch_26">
    <path clip-path="url(#p6b8b69fcde)" d="M 226.67381 108 
L 231.416905 108 
L 231.416905 68.576 
L 226.67381 68.576 
z
" style="fill:#00008b;opacity:0.4;stroke:#000000;stroke-linejoin:miter;"/>
   </g>
   <g id="patch_27">
    <path clip-path="url(#p6b8b69fcde)" d="M 231.416905 108 
L 236.16 108 
L 236.16 44.64 
L 231.416905 44.64 
z
" style="fill:#00008b;opacity:0.4;stroke:#000000;stroke-linejoin:miter;"/>
   </g>
   <g id="patch_28">
    <path clip-path="url(#p6b8b69fcde)" d="M 236.16 108 
L 240.903095 108 
L 240.903095 50.272 
L 236.16 50.272 
z
" style="fill:#00008b;opacity:0.4;stroke:#000000;stroke-linejoin:miter;"/>
   </g>
   <g id="patch_29">
    <path clip-path="url(#p6b8b69fcde)" d="M 240.903095 108 
L 245.64619 108 
L 245.64619 68.576 
L 240.903095 68.576 
z
" style="fill:#00008b;opacity:0.4;stroke:#000000;stroke-linejoin:miter;"/>
   </g>
   <g id="patch_30">
    <path clip-path="url(#p6b8b69fcde)" d="M 245.64619 108 
L 250.389285 108 
L 250.389285 69.984 
L 245.64619 69.984 
z
" style="fill:#00008b;opacity:0.4;stroke:#000000;stroke-linejoin:miter;"/>
   </g>
   <g id="patch_31">
    <path clip-path="url(#p6b8b69fcde)" d="M 250.389285 108 
L 255.13238 108 
L 255.13238 88.288 
L 250.389285 88.288 
z
" style="fill:#00008b;opacity:0.4;stroke:#000000;stroke-linejoin:miter;"/>
   </g>
   <g id="patch_32">
    <path clip-path="url(#p6b8b69fcde)" d="M 255.13238 108 
L 259.875474 108 
L 259.875474 75.616 
L 255.13238 75.616 
z
" style="fill:#00008b;opacity:0.4;stroke:#000000;stroke-linejoin:miter;"/>
   </g>
   <g id="patch_33">
    <path clip-path="url(#p6b8b69fcde)" d="M 259.875474 108 
L 264.618569 108 
L 264.618569 88.288 
L 259.875474 88.288 
z
" style="fill:#00008b;opacity:0.4;stroke:#000000;stroke-linejoin:miter;"/>
   </g>
   <g id="patch_34">
    <path clip-path="url(#p6b8b69fcde)" d="M 264.618569 108 
L 269.361664 108 
L 269.361664 68.576 
L 264.618569 68.576 
z
" style="fill:#00008b;opacity:0.4;stroke:#000000;stroke-linejoin:miter;"/>
   </g>
   <g id="patch_35">
    <path clip-path="url(#p6b8b69fcde)" d="M 269.361664 108 
L 274.104759 108 
L 274.104759 93.92 
L 269.361664 93.92 
z
" style="fill:#00008b;opacity:0.4;stroke:#000000;stroke-linejoin:miter;"/>
   </g>
   <g id="patch_36">
    <path clip-path="url(#p6b8b69fcde)" d="M 274.104759 108 
L 278.847854 108 
L 278.847854 89.696 
L 274.104759 89.696 
z
" style="fill:#00008b;opacity:0.4;stroke:#000000;stroke-linejoin:miter;"/>
   </g>
   <g id="patch_37">
    <path clip-path="url(#p6b8b69fcde)" d="M 278.847854 108 
L 283.590949 108 
L 283.590949 84.064 
L 278.847854 84.064 
z
" style="fill:#00008b;opacity:0.4;stroke:#000000;stroke-linejoin:miter;"/>
   </g>
   <g id="patch_38">
    <path clip-path="url(#p6b8b69fcde)" d="M 283.590949 108 
L 288.334044 108 
L 288.334044 71.392 
L 283.590949 71.392 
z
" style="fill:#00008b;opacity:0.4;stroke:#000000;stroke-linejoin:miter;"/>
   </g>
   <g id="patch_39">
    <path clip-path="url(#p6b8b69fcde)" d="M 288.334044 108 
L 293.077139 108 
L 293.077139 79.84 
L 288.334044 79.84 
z
" style="fill:#00008b;opacity:0.4;stroke:#000000;stroke-linejoin:miter;"/>
   </g>
   <g id="patch_40">
    <path clip-path="url(#p6b8b69fcde)" d="M 293.077139 108 
L 297.820234 108 
L 297.820234 78.432 
L 293.077139 78.432 
z
" style="fill:#00008b;opacity:0.4;stroke:#000000;stroke-linejoin:miter;"/>
   </g>
   <g id="patch_41">
    <path clip-path="url(#p6b8b69fcde)" d="M 297.820234 108 
L 302.563328 108 
L 302.563328 91.104 
L 297.820234 91.104 
z
" style="fill:#00008b;opacity:0.4;stroke:#000000;stroke-linejoin:miter;"/>
   </g>
   <g id="patch_42">
    <path clip-path="url(#p6b8b69fcde)" d="M 302.563328 108 
L 307.306423 108 
L 307.306423 82.656 
L 302.563328 82.656 
z
" style="fill:#00008b;opacity:0.4;stroke:#000000;stroke-linejoin:miter;"/>
   </g>
   <g id="patch_43">
    <path clip-path="url(#p6b8b69fcde)" d="M 307.306423 108 
L 312.049518 108 
L 312.049518 81.248 
L 307.306423 81.248 
z
" style="fill:#00008b;opacity:0.4;stroke:#000000;stroke-linejoin:miter;"/>
   </g>
   <g id="patch_44">
    <path clip-path="url(#p6b8b69fcde)" d="M 312.049518 108 
L 316.792613 108 
L 316.792613 71.392 
L 312.049518 71.392 
z
" style="fill:#00008b;opacity:0.4;stroke:#000000;stroke-linejoin:miter;"/>
   </g>
   <g id="patch_45">
    <path clip-path="url(#p6b8b69fcde)" d="M 316.792613 108 
L 321.535708 108 
L 321.535708 79.84 
L 316.792613 79.84 
z
" style="fill:#00008b;opacity:0.4;stroke:#000000;stroke-linejoin:miter;"/>
   </g>
   <g id="patch_46">
    <path clip-path="url(#p6b8b69fcde)" d="M 321.535708 108 
L 326.278803 108 
L 326.278803 86.88 
L 321.535708 86.88 
z
" style="fill:#00008b;opacity:0.4;stroke:#000000;stroke-linejoin:miter;"/>
   </g>
   <g id="patch_47">
    <path clip-path="url(#p6b8b69fcde)" d="M 326.278803 108 
L 331.021898 108 
L 331.021898 93.92 
L 326.278803 93.92 
z
" style="fill:#00008b;opacity:0.4;stroke:#000000;stroke-linejoin:miter;"/>
   </g>
   <g id="patch_48">
    <path clip-path="url(#p6b8b69fcde)" d="M 331.021898 108 
L 335.764993 108 
L 335.764993 96.736 
L 331.021898 96.736 
z
" style="fill:#00008b;opacity:0.4;stroke:#000000;stroke-linejoin:miter;"/>
   </g>
   <g id="patch_49">
    <path clip-path="url(#p6b8b69fcde)" d="M 335.764993 108 
L 340.508088 108 
L 340.508088 95.328 
L 335.764993 95.328 
z
" style="fill:#00008b;opacity:0.4;stroke:#000000;stroke-linejoin:miter;"/>
   </g>
   <g id="patch_50">
    <path clip-path="url(#p6b8b69fcde)" d="M 340.508088 108 
L 345.251182 108 
L 345.251182 103.776 
L 340.508088 103.776 
z
" style="fill:#00008b;opacity:0.4;stroke:#000000;stroke-linejoin:miter;"/>
   </g>
   <g id="patch_51">
    <path clip-path="url(#p6b8b69fcde)" d="M 345.251182 108 
L 349.994277 108 
L 349.994277 103.776 
L 345.251182 103.776 
z
" style="fill:#00008b;opacity:0.4;stroke:#000000;stroke-linejoin:miter;"/>
   </g>
   <g id="patch_52">
    <path clip-path="url(#p6b8b69fcde)" d="M 349.994277 108 
L 354.737372 108 
L 354.737372 106.592 
L 349.994277 106.592 
z
" style="fill:#00008b;opacity:0.4;stroke:#000000;stroke-linejoin:miter;"/>
   </g>
   <g id="matplotlib.axis_1">
    <g id="xtick_1">
     <g id="line2d_1">
      <defs>
       <path d="M 0 0 
L 0 3.5 
" id="mc5fb35e8c7" style="stroke:#000000;stroke-width:0.8;"/>
      </defs>
      <g>
       <use style="stroke:#000000;stroke-width:0.8;" x="94.286773" xlink:href="#mc5fb35e8c7" y="108"/>
      </g>
     </g>
     <g id="text_1">
      <!-- −1.0 -->
      <defs>
       <path d="M 10.59375 35.5 
L 73.1875 35.5 
L 73.1875 27.203125 
L 10.59375 27.203125 
z
" id="DejaVuSans-8722"/>
       <path d="M 12.40625 8.296875 
L 28.515625 8.296875 
L 28.515625 63.921875 
L 10.984375 60.40625 
L 10.984375 69.390625 
L 28.421875 72.90625 
L 38.28125 72.90625 
L 38.28125 8.296875 
L 54.390625 8.296875 
L 54.390625 0 
L 12.40625 0 
z
" id="DejaVuSans-49"/>
       <path d="M 10.6875 12.40625 
L 21 12.40625 
L 21 0 
L 10.6875 0 
z
" id="DejaVuSans-46"/>
       <path d="M 31.78125 66.40625 
Q 24.171875 66.40625 20.328125 58.90625 
Q 16.5 51.421875 16.5 36.375 
Q 16.5 21.390625 20.328125 13.890625 
Q 24.171875 6.390625 31.78125 6.390625 
Q 39.453125 6.390625 43.28125 13.890625 
Q 47.125 21.390625 47.125 36.375 
Q 47.125 51.421875 43.28125 58.90625 
Q 39.453125 66.40625 31.78125 66.40625 
z
M 31.78125 74.21875 
Q 44.046875 74.21875 50.515625 64.515625 
Q 56.984375 54.828125 56.984375 36.375 
Q 56.984375 17.96875 50.515625 8.265625 
Q 44.046875 -1.421875 31.78125 -1.421875 
Q 19.53125 -1.421875 13.0625 8.265625 
Q 6.59375 17.96875 6.59375 36.375 
Q 6.59375 54.828125 13.0625 64.515625 
Q 19.53125 74.21875 31.78125 74.21875 
z
" id="DejaVuSans-48"/>
      </defs>
      <g transform="translate(82.145367 122.598437)scale(0.1 -0.1)">
       <use xlink:href="#DejaVuSans-8722"/>
       <use x="83.789062" xlink:href="#DejaVuSans-49"/>
       <use x="147.412109" xlink:href="#DejaVuSans-46"/>
       <use x="179.199219" xlink:href="#DejaVuSans-48"/>
      </g>
     </g>
    </g>
    <g id="xtick_2">
     <g id="line2d_2">
      <g>
       <use style="stroke:#000000;stroke-width:0.8;" x="163.925195" xlink:href="#mc5fb35e8c7" y="108"/>
      </g>
     </g>
     <g id="text_2">
      <!-- −0.5 -->
      <defs>
       <path d="M 10.796875 72.90625 
L 49.515625 72.90625 
L 49.515625 64.59375 
L 19.828125 64.59375 
L 19.828125 46.734375 
Q 21.96875 47.46875 24.109375 47.828125 
Q 26.265625 48.1875 28.421875 48.1875 
Q 40.625 48.1875 47.75 41.5 
Q 54.890625 34.8125 54.890625 23.390625 
Q 54.890625 11.625 47.5625 5.09375 
Q 40.234375 -1.421875 26.90625 -1.421875 
Q 22.3125 -1.421875 17.546875 -0.640625 
Q 12.796875 0.140625 7.71875 1.703125 
L 7.71875 11.625 
Q 12.109375 9.234375 16.796875 8.0625 
Q 21.484375 6.890625 26.703125 6.890625 
Q 35.15625 6.890625 40.078125 11.328125 
Q 45.015625 15.765625 45.015625 23.390625 
Q 45.015625 31 40.078125 35.4375 
Q 35.15625 39.890625 26.703125 39.890625 
Q 22.75 39.890625 18.8125 39.015625 
Q 14.890625 38.140625 10.796875 36.28125 
z
" id="DejaVuSans-53"/>
      </defs>
      <g transform="translate(151.783789 122.598437)scale(0.1 -0.1)">
       <use xlink:href="#DejaVuSans-8722"/>
       <use x="83.789062" xlink:href="#DejaVuSans-48"/>
       <use x="147.412109" xlink:href="#DejaVuSans-46"/>
       <use x="179.199219" xlink:href="#DejaVuSans-53"/>
      </g>
     </g>
    </g>
    <g id="xtick_3">
     <g id="line2d_3">
      <g>
       <use style="stroke:#000000;stroke-width:0.8;" x="233.563617" xlink:href="#mc5fb35e8c7" y="108"/>
      </g>
     </g>
     <g id="text_3">
      <!-- 0.0 -->
      <g transform="translate(225.612054 122.598437)scale(0.1 -0.1)">
       <use xlink:href="#DejaVuSans-48"/>
       <use x="63.623047" xlink:href="#DejaVuSans-46"/>
       <use x="95.410156" xlink:href="#DejaVuSans-48"/>
      </g>
     </g>
    </g>
    <g id="xtick_4">
     <g id="line2d_4">
      <g>
       <use style="stroke:#000000;stroke-width:0.8;" x="303.202039" xlink:href="#mc5fb35e8c7" y="108"/>
      </g>
     </g>
     <g id="text_4">
      <!-- 0.5 -->
      <g transform="translate(295.250476 122.598437)scale(0.1 -0.1)">
       <use xlink:href="#DejaVuSans-48"/>
       <use x="63.623047" xlink:href="#DejaVuSans-46"/>
       <use x="95.410156" xlink:href="#DejaVuSans-53"/>
      </g>
     </g>
    </g>
    <g id="xtick_5">
     <g id="line2d_5">
      <g>
       <use style="stroke:#000000;stroke-width:0.8;" x="372.840461" xlink:href="#mc5fb35e8c7" y="108"/>
      </g>
     </g>
     <g id="text_5">
      <!-- 1.0 -->
      <g transform="translate(364.888898 122.598437)scale(0.1 -0.1)">
       <use xlink:href="#DejaVuSans-49"/>
       <use x="63.623047" xlink:href="#DejaVuSans-46"/>
       <use x="95.410156" xlink:href="#DejaVuSans-48"/>
      </g>
     </g>
    </g>
   </g>
   <g id="matplotlib.axis_2">
    <g id="ytick_1">
     <g id="line2d_6">
      <defs>
       <path d="M 0 0 
L -3.5 0 
" id="m99f50da0b5" style="stroke:#000000;stroke-width:0.8;"/>
      </defs>
      <g>
       <use style="stroke:#000000;stroke-width:0.8;" x="57.6" xlink:href="#m99f50da0b5" y="108"/>
      </g>
     </g>
     <g id="text_6">
      <!-- 0 -->
      <g transform="translate(44.2375 111.799219)scale(0.1 -0.1)">
       <use xlink:href="#DejaVuSans-48"/>
      </g>
     </g>
    </g>
    <g id="ytick_2">
     <g id="line2d_7">
      <g>
       <use style="stroke:#000000;stroke-width:0.8;" x="57.6" xlink:href="#m99f50da0b5" y="65.612499"/>
      </g>
     </g>
     <g id="text_7">
      <!-- 1 -->
      <g transform="translate(44.2375 69.411717)scale(0.1 -0.1)">
       <use xlink:href="#DejaVuSans-49"/>
      </g>
     </g>
    </g>
    <g id="text_8">
     <!-- Density -->
     <defs>
      <path d="M 19.671875 64.796875 
L 19.671875 8.109375 
L 31.59375 8.109375 
Q 46.6875 8.109375 53.6875 14.9375 
Q 60.6875 21.78125 60.6875 36.53125 
Q 60.6875 51.171875 53.6875 57.984375 
Q 46.6875 64.796875 31.59375 64.796875 
z
M 9.8125 72.90625 
L 30.078125 72.90625 
Q 51.265625 72.90625 61.171875 64.09375 
Q 71.09375 55.28125 71.09375 36.53125 
Q 71.09375 17.671875 61.125 8.828125 
Q 51.171875 0 30.078125 0 
L 9.8125 0 
z
" id="DejaVuSans-68"/>
      <path d="M 56.203125 29.59375 
L 56.203125 25.203125 
L 14.890625 25.203125 
Q 15.484375 15.921875 20.484375 11.0625 
Q 25.484375 6.203125 34.421875 6.203125 
Q 39.59375 6.203125 44.453125 7.46875 
Q 49.3125 8.734375 54.109375 11.28125 
L 54.109375 2.78125 
Q 49.265625 0.734375 44.1875 -0.34375 
Q 39.109375 -1.421875 33.890625 -1.421875 
Q 20.796875 -1.421875 13.15625 6.1875 
Q 5.515625 13.8125 5.515625 26.8125 
Q 5.515625 40.234375 12.765625 48.109375 
Q 20.015625 56 32.328125 56 
Q 43.359375 56 49.78125 48.890625 
Q 56.203125 41.796875 56.203125 29.59375 
z
M 47.21875 32.234375 
Q 47.125 39.59375 43.09375 43.984375 
Q 39.0625 48.390625 32.421875 48.390625 
Q 24.90625 48.390625 20.390625 44.140625 
Q 15.875 39.890625 15.1875 32.171875 
z
" id="DejaVuSans-101"/>
      <path d="M 54.890625 33.015625 
L 54.890625 0 
L 45.90625 0 
L 45.90625 32.71875 
Q 45.90625 40.484375 42.875 44.328125 
Q 39.84375 48.1875 33.796875 48.1875 
Q 26.515625 48.1875 22.3125 43.546875 
Q 18.109375 38.921875 18.109375 30.90625 
L 18.109375 0 
L 9.078125 0 
L 9.078125 54.6875 
L 18.109375 54.6875 
L 18.109375 46.1875 
Q 21.34375 51.125 25.703125 53.5625 
Q 30.078125 56 35.796875 56 
Q 45.21875 56 50.046875 50.171875 
Q 54.890625 44.34375 54.890625 33.015625 
z
" id="DejaVuSans-110"/>
      <path d="M 44.28125 53.078125 
L 44.28125 44.578125 
Q 40.484375 46.53125 36.375 47.5 
Q 32.28125 48.484375 27.875 48.484375 
Q 21.1875 48.484375 17.84375 46.4375 
Q 14.5 44.390625 14.5 40.28125 
Q 14.5 37.15625 16.890625 35.375 
Q 19.28125 33.59375 26.515625 31.984375 
L 29.59375 31.296875 
Q 39.15625 29.25 43.1875 25.515625 
Q 47.21875 21.78125 47.21875 15.09375 
Q 47.21875 7.46875 41.1875 3.015625 
Q 35.15625 -1.421875 24.609375 -1.421875 
Q 20.21875 -1.421875 15.453125 -0.5625 
Q 10.6875 0.296875 5.421875 2 
L 5.421875 11.28125 
Q 10.40625 8.6875 15.234375 7.390625 
Q 20.0625 6.109375 24.8125 6.109375 
Q 31.15625 6.109375 34.5625 8.28125 
Q 37.984375 10.453125 37.984375 14.40625 
Q 37.984375 18.0625 35.515625 20.015625 
Q 33.0625 21.96875 24.703125 23.78125 
L 21.578125 24.515625 
Q 13.234375 26.265625 9.515625 29.90625 
Q 5.8125 33.546875 5.8125 39.890625 
Q 5.8125 47.609375 11.28125 51.796875 
Q 16.75 56 26.8125 56 
Q 31.78125 56 36.171875 55.265625 
Q 40.578125 54.546875 44.28125 53.078125 
z
" id="DejaVuSans-115"/>
      <path d="M 9.421875 54.6875 
L 18.40625 54.6875 
L 18.40625 0 
L 9.421875 0 
z
M 9.421875 75.984375 
L 18.40625 75.984375 
L 18.40625 64.59375 
L 9.421875 64.59375 
z
" id="DejaVuSans-105"/>
      <path d="M 18.3125 70.21875 
L 18.3125 54.6875 
L 36.8125 54.6875 
L 36.8125 47.703125 
L 18.3125 47.703125 
L 18.3125 18.015625 
Q 18.3125 11.328125 20.140625 9.421875 
Q 21.96875 7.515625 27.59375 7.515625 
L 36.8125 7.515625 
L 36.8125 0 
L 27.59375 0 
Q 17.1875 0 13.234375 3.875 
Q 9.28125 7.765625 9.28125 18.015625 
L 9.28125 47.703125 
L 2.6875 47.703125 
L 2.6875 54.6875 
L 9.28125 54.6875 
L 9.28125 70.21875 
z
" id="DejaVuSans-116"/>
      <path d="M 32.171875 -5.078125 
Q 28.375 -14.84375 24.75 -17.8125 
Q 21.140625 -20.796875 15.09375 -20.796875 
L 7.90625 -20.796875 
L 7.90625 -13.28125 
L 13.1875 -13.28125 
Q 16.890625 -13.28125 18.9375 -11.515625 
Q 21 -9.765625 23.484375 -3.21875 
L 25.09375 0.875 
L 2.984375 54.6875 
L 12.5 54.6875 
L 29.59375 11.921875 
L 46.6875 54.6875 
L 56.203125 54.6875 
z
" id="DejaVuSans-121"/>
     </defs>
     <g transform="translate(38.157812 93.744594)rotate(-90)scale(0.1 -0.1)">
      <use xlink:href="#DejaVuSans-68"/>
      <use x="77.001953" xlink:href="#DejaVuSans-101"/>
      <use x="138.525391" xlink:href="#DejaVuSans-110"/>
      <use x="201.904297" xlink:href="#DejaVuSans-115"/>
      <use x="254.003906" xlink:href="#DejaVuSans-105"/>
      <use x="281.787109" xlink:href="#DejaVuSans-116"/>
      <use x="320.996094" xlink:href="#DejaVuSans-121"/>
     </g>
    </g>
   </g>
   <g id="line2d_8">
    <path clip-path="url(#p6b8b69fcde)" d="M 73.832727 107.992095 
L 77.112066 107.983732 
L 80.391405 107.967862 
L 83.670744 107.939 
L 86.950083 107.888647 
L 90.229421 107.804335 
L 93.50876 107.668779 
L 96.788099 107.45946 
L 100.067438 107.149007 
L 103.346777 106.706784 
L 106.626116 106.101919 
L 109.905455 105.307682 
L 113.184793 104.306652 
L 116.464132 103.095583 
L 119.743471 101.68861 
L 123.02281 100.117515 
L 126.302149 98.428399 
L 129.581488 96.675103 
L 132.860826 94.910763 
L 136.140165 93.179549 
L 139.419504 91.510657 
L 142.698843 89.916044 
L 145.978182 88.392381 
L 149.257521 86.926807 
L 152.53686 85.505307 
L 155.816198 84.122079 
L 159.095537 82.787848 
L 162.374876 81.534898 
L 165.654215 80.416659 
L 168.933554 79.500618 
L 172.212893 78.854946 
L 175.492231 78.531406 
L 178.77157 78.548813 
L 182.050909 78.881758 
L 185.330248 79.458108 
L 188.609587 80.16624 
L 191.888926 80.870166 
L 195.168264 81.428672 
L 198.447603 81.714147 
L 201.726942 81.627754 
L 205.006281 81.109513 
L 208.28562 80.143597 
L 211.564959 78.760116 
L 214.844298 77.034445 
L 218.123636 75.084081 
L 221.402975 73.06187 
L 224.682314 71.143979 
L 227.961653 69.511843 
L 231.240992 68.329301 
L 234.520331 67.71863 
L 237.799669 67.74081 
L 241.079008 68.385336 
L 244.358347 69.572719 
L 247.637686 71.169313 
L 250.917025 73.010576 
L 254.196364 74.926774 
L 257.475702 76.765287 
L 260.755041 78.405754 
L 264.03438 79.767236 
L 267.313719 80.808916 
L 270.593058 81.526777 
L 273.872397 81.948119 
L 277.151736 82.124591 
L 280.431074 82.12361 
L 283.710413 82.01826 
L 286.989752 81.876915 
L 290.269091 81.75495 
L 293.54843 81.691125 
L 296.827769 81.709981 
L 300.107107 81.829234 
L 303.386446 82.068886 
L 306.665785 82.457701 
L 309.945124 83.033649 
L 313.224463 83.837471 
L 316.503802 84.901576 
L 319.78314 86.238538 
L 323.062479 87.833656 
L 326.341818 89.644218 
L 329.621157 91.60545 
L 332.900496 93.640731 
L 336.179835 95.672604 
L 339.459174 97.631667 
L 342.738512 99.46188 
L 346.017851 101.122444 
L 349.29719 102.587382 
L 352.576529 103.844069 
L 355.855868 104.89152 
L 359.135207 105.738645 
L 362.414545 106.402349 
L 365.693884 106.9053 
L 368.973223 107.273421 
L 372.252562 107.533356 
L 375.531901 107.710267 
L 378.81124 107.826239 
L 382.090579 107.899422 
L 385.369917 107.943854 
L 388.649256 107.969797 
L 391.928595 107.984356 
L 395.207934 107.992205 
L 398.487273 107.996266 
" style="fill:none;stroke:#00008b;stroke-linecap:square;stroke-width:4;"/>
   </g>
   <g id="patch_53">
    <path d="M 57.6 108 
L 57.6 41.472 
" style="fill:none;stroke:#000000;stroke-linecap:square;stroke-linejoin:miter;stroke-width:0.8;"/>
   </g>
   <g id="patch_54">
    <path d="M 414.72 108 
L 414.72 41.472 
" style="fill:none;stroke:#000000;stroke-linecap:square;stroke-linejoin:miter;stroke-width:0.8;"/>
   </g>
   <g id="patch_55">
    <path d="M 57.6 108 
L 414.72 108 
" style="fill:none;stroke:#000000;stroke-linecap:square;stroke-linejoin:miter;stroke-width:0.8;"/>
   </g>
   <g id="patch_56">
    <path d="M 57.6 41.472 
L 414.72 41.472 
" style="fill:none;stroke:#000000;stroke-linecap:square;stroke-linejoin:miter;stroke-width:0.8;"/>
   </g>
   <g id="legend_1">
    <g id="patch_57">
     <path d="M 369.80125 64.150125 
L 407.72 64.150125 
Q 409.72 64.150125 409.72 62.150125 
L 409.72 48.472 
Q 409.72 46.472 407.72 46.472 
L 369.80125 46.472 
Q 367.80125 46.472 367.80125 48.472 
L 367.80125 62.150125 
Q 367.80125 64.150125 369.80125 64.150125 
z
" style="fill:#ffffff;opacity:0.8;stroke:#cccccc;stroke-linejoin:miter;"/>
    </g>
    <g id="patch_58">
     <path d="M 371.80125 58.070438 
L 391.80125 58.070438 
L 391.80125 51.070438 
L 371.80125 51.070438 
z
" style="fill:#00008b;opacity:0.4;stroke:#000000;stroke-linejoin:miter;"/>
    </g>
    <g id="text_9">
     <!-- x -->
     <defs>
      <path d="M 54.890625 54.6875 
L 35.109375 28.078125 
L 55.90625 0 
L 45.3125 0 
L 29.390625 21.484375 
L 13.484375 0 
L 2.875 0 
L 24.125 28.609375 
L 4.6875 54.6875 
L 15.28125 54.6875 
L 29.78125 35.203125 
L 44.28125 54.6875 
z
" id="DejaVuSans-120"/>
     </defs>
     <g transform="translate(399.80125 58.070438)scale(0.1 -0.1)">
      <use xlink:href="#DejaVuSans-120"/>
     </g>
    </g>
   </g>
  </g>
  <g id="axes_2">
   <g id="patch_59">
    <path d="M 57.6 207.792 
L 414.72 207.792 
L 414.72 141.264 
L 57.6 141.264 
z
" style="fill:#ffffff;"/>
   </g>
   <g id="patch_60">
    <path clip-path="url(#p10b45391a2)" d="M 116.568338 207.792 
L 121.352005 207.792 
L 121.352005 204.542769 
L 116.568338 204.542769 
z
" style="fill:#006400;opacity:0.4;stroke:#000000;stroke-linejoin:miter;"/>
   </g>
   <g id="patch_61">
    <path clip-path="url(#p10b45391a2)" d="M 121.352005 207.792 
L 126.135671 207.792 
L 126.135671 204.542769 
L 121.352005 204.542769 
z
" style="fill:#006400;opacity:0.4;stroke:#000000;stroke-linejoin:miter;"/>
   </g>
   <g id="patch_62">
    <path clip-path="url(#p10b45391a2)" d="M 126.135671 207.792 
L 130.919338 207.792 
L 130.919338 201.293538 
L 126.135671 201.293538 
z
" style="fill:#006400;opacity:0.4;stroke:#000000;stroke-linejoin:miter;"/>
   </g>
   <g id="patch_63">
    <path clip-path="url(#p10b45391a2)" d="M 130.919338 207.792 
L 135.703004 207.792 
L 135.703004 181.798154 
L 130.919338 181.798154 
z
" style="fill:#006400;opacity:0.4;stroke:#000000;stroke-linejoin:miter;"/>
   </g>
   <g id="patch_64">
    <path clip-path="url(#p10b45391a2)" d="M 135.703004 207.792 
L 140.486671 207.792 
L 140.486671 199.668923 
L 135.703004 199.668923 
z
" style="fill:#006400;opacity:0.4;stroke:#000000;stroke-linejoin:miter;"/>
   </g>
   <g id="patch_65">
    <path clip-path="url(#p10b45391a2)" d="M 140.486671 207.792 
L 145.270337 207.792 
L 145.270337 201.293538 
L 140.486671 201.293538 
z
" style="fill:#006400;opacity:0.4;stroke:#000000;stroke-linejoin:miter;"/>
   </g>
   <g id="patch_66">
    <path clip-path="url(#p10b45391a2)" d="M 145.270337 207.792 
L 150.054004 207.792 
L 150.054004 189.921231 
L 145.270337 189.921231 
z
" style="fill:#006400;opacity:0.4;stroke:#000000;stroke-linejoin:miter;"/>
   </g>
   <g id="patch_67">
    <path clip-path="url(#p10b45391a2)" d="M 150.054004 207.792 
L 154.83767 207.792 
L 154.83767 186.672 
L 150.054004 186.672 
z
" style="fill:#006400;opacity:0.4;stroke:#000000;stroke-linejoin:miter;"/>
   </g>
   <g id="patch_68">
    <path clip-path="url(#p10b45391a2)" d="M 154.83767 207.792 
L 159.621337 207.792 
L 159.621337 186.672 
L 154.83767 186.672 
z
" style="fill:#006400;opacity:0.4;stroke:#000000;stroke-linejoin:miter;"/>
   </g>
   <g id="patch_69">
    <path clip-path="url(#p10b45391a2)" d="M 159.621337 207.792 
L 164.405003 207.792 
L 164.405003 176.924308 
L 159.621337 176.924308 
z
" style="fill:#006400;opacity:0.4;stroke:#000000;stroke-linejoin:miter;"/>
   </g>
   <g id="patch_70">
    <path clip-path="url(#p10b45391a2)" d="M 164.405003 207.792 
L 169.188669 207.792 
L 169.188669 170.425846 
L 164.405003 170.425846 
z
" style="fill:#006400;opacity:0.4;stroke:#000000;stroke-linejoin:miter;"/>
   </g>
   <g id="patch_71">
    <path clip-path="url(#p10b45391a2)" d="M 169.188669 207.792 
L 173.972336 207.792 
L 173.972336 175.299692 
L 169.188669 175.299692 
z
" style="fill:#006400;opacity:0.4;stroke:#000000;stroke-linejoin:miter;"/>
   </g>
   <g id="patch_72">
    <path clip-path="url(#p10b45391a2)" d="M 173.972336 207.792 
L 178.756002 207.792 
L 178.756002 170.425846 
L 173.972336 170.425846 
z
" style="fill:#006400;opacity:0.4;stroke:#000000;stroke-linejoin:miter;"/>
   </g>
   <g id="patch_73">
    <path clip-path="url(#p10b45391a2)" d="M 178.756002 207.792 
L 183.539669 207.792 
L 183.539669 170.425846 
L 178.756002 170.425846 
z
" style="fill:#006400;opacity:0.4;stroke:#000000;stroke-linejoin:miter;"/>
   </g>
   <g id="patch_74">
    <path clip-path="url(#p10b45391a2)" d="M 183.539669 207.792 
L 188.323335 207.792 
L 188.323335 167.176615 
L 183.539669 167.176615 
z
" style="fill:#006400;opacity:0.4;stroke:#000000;stroke-linejoin:miter;"/>
   </g>
   <g id="patch_75">
    <path clip-path="url(#p10b45391a2)" d="M 188.323335 207.792 
L 193.107002 207.792 
L 193.107002 173.675077 
L 188.323335 173.675077 
z
" style="fill:#006400;opacity:0.4;stroke:#000000;stroke-linejoin:miter;"/>
   </g>
   <g id="patch_76">
    <path clip-path="url(#p10b45391a2)" d="M 193.107002 207.792 
L 197.890668 207.792 
L 197.890668 168.801231 
L 193.107002 168.801231 
z
" style="fill:#006400;opacity:0.4;stroke:#000000;stroke-linejoin:miter;"/>
   </g>
   <g id="patch_77">
    <path clip-path="url(#p10b45391a2)" d="M 197.890668 207.792 
L 202.674335 207.792 
L 202.674335 172.050462 
L 197.890668 172.050462 
z
" style="fill:#006400;opacity:0.4;stroke:#000000;stroke-linejoin:miter;"/>
   </g>
   <g id="patch_78">
    <path clip-path="url(#p10b45391a2)" d="M 202.674335 207.792 
L 207.458001 207.792 
L 207.458001 175.299692 
L 202.674335 175.299692 
z
" style="fill:#006400;opacity:0.4;stroke:#000000;stroke-linejoin:miter;"/>
   </g>
   <g id="patch_79">
    <path clip-path="url(#p10b45391a2)" d="M 207.458001 207.792 
L 212.241668 207.792 
L 212.241668 175.299692 
L 207.458001 175.299692 
z
" style="fill:#006400;opacity:0.4;stroke:#000000;stroke-linejoin:miter;"/>
   </g>
   <g id="patch_80">
    <path clip-path="url(#p10b45391a2)" d="M 212.241668 207.792 
L 217.025334 207.792 
L 217.025334 183.422769 
L 212.241668 183.422769 
z
" style="fill:#006400;opacity:0.4;stroke:#000000;stroke-linejoin:miter;"/>
   </g>
   <g id="patch_81">
    <path clip-path="url(#p10b45391a2)" d="M 217.025334 207.792 
L 221.809001 207.792 
L 221.809001 170.425846 
L 217.025334 170.425846 
z
" style="fill:#006400;opacity:0.4;stroke:#000000;stroke-linejoin:miter;"/>
   </g>
   <g id="patch_82">
    <path clip-path="url(#p10b45391a2)" d="M 221.809001 207.792 
L 226.592667 207.792 
L 226.592667 176.924308 
L 221.809001 176.924308 
z
" style="fill:#006400;opacity:0.4;stroke:#000000;stroke-linejoin:miter;"/>
   </g>
   <g id="patch_83">
    <path clip-path="url(#p10b45391a2)" d="M 226.592667 207.792 
L 231.376334 207.792 
L 231.376334 162.302769 
L 226.592667 162.302769 
z
" style="fill:#006400;opacity:0.4;stroke:#000000;stroke-linejoin:miter;"/>
   </g>
   <g id="patch_84">
    <path clip-path="url(#p10b45391a2)" d="M 231.376334 207.792 
L 236.16 207.792 
L 236.16 152.555077 
L 231.376334 152.555077 
z
" style="fill:#006400;opacity:0.4;stroke:#000000;stroke-linejoin:miter;"/>
   </g>
   <g id="patch_85">
    <path clip-path="url(#p10b45391a2)" d="M 236.16 207.792 
L 240.943666 207.792 
L 240.943666 154.179692 
L 236.16 154.179692 
z
" style="fill:#006400;opacity:0.4;stroke:#000000;stroke-linejoin:miter;"/>
   </g>
   <g id="patch_86">
    <path clip-path="url(#p10b45391a2)" d="M 240.943666 207.792 
L 245.727333 207.792 
L 245.727333 144.432 
L 240.943666 144.432 
z
" style="fill:#006400;opacity:0.4;stroke:#000000;stroke-linejoin:miter;"/>
   </g>
   <g id="patch_87">
    <path clip-path="url(#p10b45391a2)" d="M 245.727333 207.792 
L 250.510999 207.792 
L 250.510999 157.428923 
L 245.727333 157.428923 
z
" style="fill:#006400;opacity:0.4;stroke:#000000;stroke-linejoin:miter;"/>
   </g>
   <g id="patch_88">
    <path clip-path="url(#p10b45391a2)" d="M 250.510999 207.792 
L 255.294666 207.792 
L 255.294666 168.801231 
L 250.510999 168.801231 
z
" style="fill:#006400;opacity:0.4;stroke:#000000;stroke-linejoin:miter;"/>
   </g>
   <g id="patch_89">
    <path clip-path="url(#p10b45391a2)" d="M 255.294666 207.792 
L 260.078332 207.792 
L 260.078332 176.924308 
L 255.294666 176.924308 
z
" style="fill:#006400;opacity:0.4;stroke:#000000;stroke-linejoin:miter;"/>
   </g>
   <g id="patch_90">
    <path clip-path="url(#p10b45391a2)" d="M 260.078332 207.792 
L 264.861999 207.792 
L 264.861999 178.548923 
L 260.078332 178.548923 
z
" style="fill:#006400;opacity:0.4;stroke:#000000;stroke-linejoin:miter;"/>
   </g>
   <g id="patch_91">
    <path clip-path="url(#p10b45391a2)" d="M 264.861999 207.792 
L 269.645665 207.792 
L 269.645665 191.545846 
L 264.861999 191.545846 
z
" style="fill:#006400;opacity:0.4;stroke:#000000;stroke-linejoin:miter;"/>
   </g>
   <g id="patch_92">
    <path clip-path="url(#p10b45391a2)" d="M 269.645665 207.792 
L 274.429332 207.792 
L 274.429332 176.924308 
L 269.645665 176.924308 
z
" style="fill:#006400;opacity:0.4;stroke:#000000;stroke-linejoin:miter;"/>
   </g>
   <g id="patch_93">
    <path clip-path="url(#p10b45391a2)" d="M 274.429332 207.792 
L 279.212998 207.792 
L 279.212998 175.299692 
L 274.429332 175.299692 
z
" style="fill:#006400;opacity:0.4;stroke:#000000;stroke-linejoin:miter;"/>
   </g>
   <g id="patch_94">
    <path clip-path="url(#p10b45391a2)" d="M 279.212998 207.792 
L 283.996665 207.792 
L 283.996665 167.176615 
L 279.212998 167.176615 
z
" style="fill:#006400;opacity:0.4;stroke:#000000;stroke-linejoin:miter;"/>
   </g>
   <g id="patch_95">
    <path clip-path="url(#p10b45391a2)" d="M 283.996665 207.792 
L 288.780331 207.792 
L 288.780331 159.053538 
L 283.996665 159.053538 
z
" style="fill:#006400;opacity:0.4;stroke:#000000;stroke-linejoin:miter;"/>
   </g>
   <g id="patch_96">
    <path clip-path="url(#p10b45391a2)" d="M 288.780331 207.792 
L 293.563998 207.792 
L 293.563998 173.675077 
L 288.780331 173.675077 
z
" style="fill:#006400;opacity:0.4;stroke:#000000;stroke-linejoin:miter;"/>
   </g>
   <g id="patch_97">
    <path clip-path="url(#p10b45391a2)" d="M 293.563998 207.792 
L 298.347664 207.792 
L 298.347664 181.798154 
L 293.563998 181.798154 
z
" style="fill:#006400;opacity:0.4;stroke:#000000;stroke-linejoin:miter;"/>
   </g>
   <g id="patch_98">
    <path clip-path="url(#p10b45391a2)" d="M 298.347664 207.792 
L 303.131331 207.792 
L 303.131331 183.422769 
L 298.347664 183.422769 
z
" style="fill:#006400;opacity:0.4;stroke:#000000;stroke-linejoin:miter;"/>
   </g>
   <g id="patch_99">
    <path clip-path="url(#p10b45391a2)" d="M 303.131331 207.792 
L 307.914997 207.792 
L 307.914997 167.176615 
L 303.131331 167.176615 
z
" style="fill:#006400;opacity:0.4;stroke:#000000;stroke-linejoin:miter;"/>
   </g>
   <g id="patch_100">
    <path clip-path="url(#p10b45391a2)" d="M 307.914997 207.792 
L 312.698663 207.792 
L 312.698663 163.927385 
L 307.914997 163.927385 
z
" style="fill:#006400;opacity:0.4;stroke:#000000;stroke-linejoin:miter;"/>
   </g>
   <g id="patch_101">
    <path clip-path="url(#p10b45391a2)" d="M 312.698663 207.792 
L 317.48233 207.792 
L 317.48233 175.299692 
L 312.698663 175.299692 
z
" style="fill:#006400;opacity:0.4;stroke:#000000;stroke-linejoin:miter;"/>
   </g>
   <g id="patch_102">
    <path clip-path="url(#p10b45391a2)" d="M 317.48233 207.792 
L 322.265996 207.792 
L 322.265996 186.672 
L 317.48233 186.672 
z
" style="fill:#006400;opacity:0.4;stroke:#000000;stroke-linejoin:miter;"/>
   </g>
   <g id="patch_103">
    <path clip-path="url(#p10b45391a2)" d="M 322.265996 207.792 
L 327.049663 207.792 
L 327.049663 196.419692 
L 322.265996 196.419692 
z
" style="fill:#006400;opacity:0.4;stroke:#000000;stroke-linejoin:miter;"/>
   </g>
   <g id="patch_104">
    <path clip-path="url(#p10b45391a2)" d="M 327.049663 207.792 
L 331.833329 207.792 
L 331.833329 193.170462 
L 327.049663 193.170462 
z
" style="fill:#006400;opacity:0.4;stroke:#000000;stroke-linejoin:miter;"/>
   </g>
   <g id="patch_105">
    <path clip-path="url(#p10b45391a2)" d="M 331.833329 207.792 
L 336.616996 207.792 
L 336.616996 196.419692 
L 331.833329 196.419692 
z
" style="fill:#006400;opacity:0.4;stroke:#000000;stroke-linejoin:miter;"/>
   </g>
   <g id="patch_106">
    <path clip-path="url(#p10b45391a2)" d="M 336.616996 207.792 
L 341.400662 207.792 
L 341.400662 196.419692 
L 336.616996 196.419692 
z
" style="fill:#006400;opacity:0.4;stroke:#000000;stroke-linejoin:miter;"/>
   </g>
   <g id="patch_107">
    <path clip-path="url(#p10b45391a2)" d="M 341.400662 207.792 
L 346.184329 207.792 
L 346.184329 193.170462 
L 341.400662 193.170462 
z
" style="fill:#006400;opacity:0.4;stroke:#000000;stroke-linejoin:miter;"/>
   </g>
   <g id="patch_108">
    <path clip-path="url(#p10b45391a2)" d="M 346.184329 207.792 
L 350.967995 207.792 
L 350.967995 193.170462 
L 346.184329 193.170462 
z
" style="fill:#006400;opacity:0.4;stroke:#000000;stroke-linejoin:miter;"/>
   </g>
   <g id="patch_109">
    <path clip-path="url(#p10b45391a2)" d="M 350.967995 207.792 
L 355.751662 207.792 
L 355.751662 204.542769 
L 350.967995 204.542769 
z
" style="fill:#006400;opacity:0.4;stroke:#000000;stroke-linejoin:miter;"/>
   </g>
   <g id="matplotlib.axis_3">
    <g id="xtick_6">
     <g id="line2d_9">
      <g>
       <use style="stroke:#000000;stroke-width:0.8;" x="100.639285" xlink:href="#mc5fb35e8c7" y="207.792"/>
      </g>
     </g>
     <g id="text_10">
      <!-- −1.0 -->
      <g transform="translate(88.497879 222.390437)scale(0.1 -0.1)">
       <use xlink:href="#DejaVuSans-8722"/>
       <use x="83.789062" xlink:href="#DejaVuSans-49"/>
       <use x="147.412109" xlink:href="#DejaVuSans-46"/>
       <use x="179.199219" xlink:href="#DejaVuSans-48"/>
      </g>
     </g>
    </g>
    <g id="xtick_7">
     <g id="line2d_10">
      <g>
       <use style="stroke:#000000;stroke-width:0.8;" x="169.092149" xlink:href="#mc5fb35e8c7" y="207.792"/>
      </g>
     </g>
     <g id="text_11">
      <!-- −0.5 -->
      <g transform="translate(156.950742 222.390437)scale(0.1 -0.1)">
       <use xlink:href="#DejaVuSans-8722"/>
       <use x="83.789062" xlink:href="#DejaVuSans-48"/>
       <use x="147.412109" xlink:href="#DejaVuSans-46"/>
       <use x="179.199219" xlink:href="#DejaVuSans-53"/>
      </g>
     </g>
    </g>
    <g id="xtick_8">
     <g id="line2d_11">
      <g>
       <use style="stroke:#000000;stroke-width:0.8;" x="237.545012" xlink:href="#mc5fb35e8c7" y="207.792"/>
      </g>
     </g>
     <g id="text_12">
      <!-- 0.0 -->
      <g transform="translate(229.593449 222.390437)scale(0.1 -0.1)">
       <use xlink:href="#DejaVuSans-48"/>
       <use x="63.623047" xlink:href="#DejaVuSans-46"/>
       <use x="95.410156" xlink:href="#DejaVuSans-48"/>
      </g>
     </g>
    </g>
    <g id="xtick_9">
     <g id="line2d_12">
      <g>
       <use style="stroke:#000000;stroke-width:0.8;" x="305.997875" xlink:href="#mc5fb35e8c7" y="207.792"/>
      </g>
     </g>
     <g id="text_13">
      <!-- 0.5 -->
      <g transform="translate(298.046312 222.390437)scale(0.1 -0.1)">
       <use xlink:href="#DejaVuSans-48"/>
       <use x="63.623047" xlink:href="#DejaVuSans-46"/>
       <use x="95.410156" xlink:href="#DejaVuSans-53"/>
      </g>
     </g>
    </g>
    <g id="xtick_10">
     <g id="line2d_13">
      <g>
       <use style="stroke:#000000;stroke-width:0.8;" x="374.450738" xlink:href="#mc5fb35e8c7" y="207.792"/>
      </g>
     </g>
     <g id="text_14">
      <!-- 1.0 -->
      <g transform="translate(366.499176 222.390437)scale(0.1 -0.1)">
       <use xlink:href="#DejaVuSans-49"/>
       <use x="63.623047" xlink:href="#DejaVuSans-46"/>
       <use x="95.410156" xlink:href="#DejaVuSans-48"/>
      </g>
     </g>
    </g>
   </g>
   <g id="matplotlib.axis_4">
    <g id="ytick_3">
     <g id="line2d_14">
      <g>
       <use style="stroke:#000000;stroke-width:0.8;" x="57.6" xlink:href="#m99f50da0b5" y="207.792"/>
      </g>
     </g>
     <g id="text_15">
      <!-- 0.0 -->
      <g transform="translate(34.696875 211.591219)scale(0.1 -0.1)">
       <use xlink:href="#DejaVuSans-48"/>
       <use x="63.623047" xlink:href="#DejaVuSans-46"/>
       <use x="95.410156" xlink:href="#DejaVuSans-48"/>
      </g>
     </g>
    </g>
    <g id="ytick_4">
     <g id="line2d_15">
      <g>
       <use style="stroke:#000000;stroke-width:0.8;" x="57.6" xlink:href="#m99f50da0b5" y="182.701339"/>
      </g>
     </g>
     <g id="text_16">
      <!-- 0.5 -->
      <g transform="translate(34.696875 186.500557)scale(0.1 -0.1)">
       <use xlink:href="#DejaVuSans-48"/>
       <use x="63.623047" xlink:href="#DejaVuSans-46"/>
       <use x="95.410156" xlink:href="#DejaVuSans-53"/>
      </g>
     </g>
    </g>
    <g id="ytick_5">
     <g id="line2d_16">
      <g>
       <use style="stroke:#000000;stroke-width:0.8;" x="57.6" xlink:href="#m99f50da0b5" y="157.610677"/>
      </g>
     </g>
     <g id="text_17">
      <!-- 1.0 -->
      <g transform="translate(34.696875 161.409896)scale(0.1 -0.1)">
       <use xlink:href="#DejaVuSans-49"/>
       <use x="63.623047" xlink:href="#DejaVuSans-46"/>
       <use x="95.410156" xlink:href="#DejaVuSans-48"/>
      </g>
     </g>
    </g>
    <g id="text_18">
     <!-- Density -->
     <g transform="translate(28.617187 193.536594)rotate(-90)scale(0.1 -0.1)">
      <use xlink:href="#DejaVuSans-68"/>
      <use x="77.001953" xlink:href="#DejaVuSans-101"/>
      <use x="138.525391" xlink:href="#DejaVuSans-110"/>
      <use x="201.904297" xlink:href="#DejaVuSans-115"/>
      <use x="254.003906" xlink:href="#DejaVuSans-105"/>
      <use x="281.787109" xlink:href="#DejaVuSans-116"/>
      <use x="320.996094" xlink:href="#DejaVuSans-121"/>
     </g>
    </g>
   </g>
   <g id="line2d_17">
    <path clip-path="url(#p10b45391a2)" d="M 73.832727 207.78452 
L 77.112066 207.776543 
L 80.391405 207.761421 
L 83.670744 207.73402 
L 86.950083 207.686525 
L 90.229421 207.607706 
L 93.50876 207.482399 
L 96.788099 207.291469 
L 100.067438 207.012572 
L 103.346777 206.621982 
L 106.626116 206.097517 
L 109.905455 205.422246 
L 113.184793 204.588189 
L 116.464132 203.598836 
L 119.743471 202.469277 
L 123.02281 201.223171 
L 126.302149 199.886825 
L 129.581488 198.481839 
L 132.860826 197.018739 
L 136.140165 195.494096 
L 139.419504 193.892684 
L 142.698843 192.194455 
L 145.978182 190.384315 
L 149.257521 188.461511 
L 152.53686 186.445583 
L 155.816198 184.377063 
L 159.095537 182.312957 
L 162.374876 180.31869 
L 165.654215 178.459049 
L 168.933554 176.790484 
L 172.212893 175.356163 
L 175.492231 174.183962 
L 178.77157 173.286508 
L 182.050909 172.662009 
L 185.330248 172.294708 
L 188.609587 172.154482 
L 191.888926 172.195851 
L 195.168264 172.35731 
L 198.447603 172.562159 
L 201.726942 172.721922 
L 205.006281 172.743035 
L 208.28562 172.536894 
L 211.564959 172.032659 
L 214.844298 171.191341 
L 218.123636 170.018848 
L 221.402975 168.574846 
L 224.682314 166.97408 
L 227.961653 165.377537 
L 231.240992 163.972769 
L 234.520331 162.94553 
L 237.799669 162.44773 
L 241.079008 162.568522 
L 244.358347 163.315305 
L 247.637686 164.609409 
L 250.917025 166.297885 
L 254.196364 168.179125 
L 257.475702 170.03713 
L 260.755041 171.677553 
L 264.03438 172.958485 
L 267.313719 173.810107 
L 270.593058 174.239554 
L 273.872397 174.320477 
L 277.151736 174.170298 
L 280.431074 173.921291 
L 283.710413 173.693359 
L 286.989752 173.575745 
L 290.269091 173.621868 
L 293.54843 173.856679 
L 296.827769 174.291399 
L 300.107107 174.937939 
L 303.386446 175.816088 
L 306.665785 176.950262 
L 309.945124 178.35767 
L 313.224463 180.033804 
L 316.503802 181.942442 
L 319.78314 184.015406 
L 323.062479 186.163112 
L 326.341818 188.292544 
L 329.621157 190.326447 
L 332.900496 192.217329 
L 336.179835 193.952076 
L 339.459174 195.546515 
L 342.738512 197.032657 
L 346.017851 198.443421 
L 349.29719 199.799872 
L 352.576529 201.104503 
L 355.855868 202.341681 
L 359.135207 203.483955 
L 362.414545 204.501274 
L 365.693884 205.369823 
L 368.973223 206.077931 
L 372.252562 206.627945 
L 375.531901 207.034432 
L 378.81124 207.320069 
L 382.090579 207.510843 
L 385.369917 207.631931 
L 388.649256 207.704965 
L 391.928595 207.746827 
L 395.207934 207.76963 
L 398.487273 207.781434 
" style="fill:none;stroke:#006400;stroke-linecap:square;stroke-width:4;"/>
   </g>
   <g id="patch_110">
    <path d="M 57.6 207.792 
L 57.6 141.264 
" style="fill:none;stroke:#000000;stroke-linecap:square;stroke-linejoin:miter;stroke-width:0.8;"/>
   </g>
   <g id="patch_111">
    <path d="M 414.72 207.792 
L 414.72 141.264 
" style="fill:none;stroke:#000000;stroke-linecap:square;stroke-linejoin:miter;stroke-width:0.8;"/>
   </g>
   <g id="patch_112">
    <path d="M 57.6 207.792 
L 414.72 207.792 
" style="fill:none;stroke:#000000;stroke-linecap:square;stroke-linejoin:miter;stroke-width:0.8;"/>
   </g>
   <g id="patch_113">
    <path d="M 57.6 141.264 
L 414.72 141.264 
" style="fill:none;stroke:#000000;stroke-linecap:square;stroke-linejoin:miter;stroke-width:0.8;"/>
   </g>
   <g id="legend_2">
    <g id="patch_114">
     <path d="M 369.80125 163.942125 
L 407.72 163.942125 
Q 409.72 163.942125 409.72 161.942125 
L 409.72 148.264 
Q 409.72 146.264 407.72 146.264 
L 369.80125 146.264 
Q 367.80125 146.264 367.80125 148.264 
L 367.80125 161.942125 
Q 367.80125 163.942125 369.80125 163.942125 
z
" style="fill:#ffffff;opacity:0.8;stroke:#cccccc;stroke-linejoin:miter;"/>
    </g>
    <g id="patch_115">
     <path d="M 371.80125 157.862437 
L 391.80125 157.862437 
L 391.80125 150.862437 
L 371.80125 150.862437 
z
" style="fill:#006400;opacity:0.4;stroke:#000000;stroke-linejoin:miter;"/>
    </g>
    <g id="text_19">
     <!-- y -->
     <g transform="translate(399.80125 157.862437)scale(0.1 -0.1)">
      <use xlink:href="#DejaVuSans-121"/>
     </g>
    </g>
   </g>
  </g>
  <g id="axes_3">
   <g id="patch_116">
    <path d="M 57.6 307.584 
L 414.72 307.584 
L 414.72 241.056 
L 57.6 241.056 
z
" style="fill:#ffffff;"/>
   </g>
   <g id="patch_117">
    <path clip-path="url(#p6768ef0c92)" d="M 119.43736 307.584 
L 124.106265 307.584 
L 124.106265 303.7824 
L 119.43736 303.7824 
z
" style="fill:#8b0000;opacity:0.4;stroke:#000000;stroke-linejoin:miter;"/>
   </g>
   <g id="patch_118">
    <path clip-path="url(#p6768ef0c92)" d="M 124.106265 307.584 
L 128.775171 307.584 
L 128.775171 307.584 
L 124.106265 307.584 
z
" style="fill:#8b0000;opacity:0.4;stroke:#000000;stroke-linejoin:miter;"/>
   </g>
   <g id="patch_119">
    <path clip-path="url(#p6768ef0c92)" d="M 128.775171 307.584 
L 133.444077 307.584 
L 133.444077 294.912 
L 128.775171 294.912 
z
" style="fill:#8b0000;opacity:0.4;stroke:#000000;stroke-linejoin:miter;"/>
   </g>
   <g id="patch_120">
    <path clip-path="url(#p6768ef0c92)" d="M 133.444077 307.584 
L 138.112982 307.584 
L 138.112982 289.8432 
L 133.444077 289.8432 
z
" style="fill:#8b0000;opacity:0.4;stroke:#000000;stroke-linejoin:miter;"/>
   </g>
   <g id="patch_121">
    <path clip-path="url(#p6768ef0c92)" d="M 138.112982 307.584 
L 142.781888 307.584 
L 142.781888 299.9808 
L 138.112982 299.9808 
z
" style="fill:#8b0000;opacity:0.4;stroke:#000000;stroke-linejoin:miter;"/>
   </g>
   <g id="patch_122">
    <path clip-path="url(#p6768ef0c92)" d="M 142.781888 307.584 
L 147.450794 307.584 
L 147.450794 279.7056 
L 142.781888 279.7056 
z
" style="fill:#8b0000;opacity:0.4;stroke:#000000;stroke-linejoin:miter;"/>
   </g>
   <g id="patch_123">
    <path clip-path="url(#p6768ef0c92)" d="M 147.450794 307.584 
L 152.119699 307.584 
L 152.119699 292.3776 
L 147.450794 292.3776 
z
" style="fill:#8b0000;opacity:0.4;stroke:#000000;stroke-linejoin:miter;"/>
   </g>
   <g id="patch_124">
    <path clip-path="url(#p6768ef0c92)" d="M 152.119699 307.584 
L 156.788605 307.584 
L 156.788605 278.4384 
L 152.119699 278.4384 
z
" style="fill:#8b0000;opacity:0.4;stroke:#000000;stroke-linejoin:miter;"/>
   </g>
   <g id="patch_125">
    <path clip-path="url(#p6768ef0c92)" d="M 156.788605 307.584 
L 161.45751 307.584 
L 161.45751 282.24 
L 156.788605 282.24 
z
" style="fill:#8b0000;opacity:0.4;stroke:#000000;stroke-linejoin:miter;"/>
   </g>
   <g id="patch_126">
    <path clip-path="url(#p6768ef0c92)" d="M 161.45751 307.584 
L 166.126416 307.584 
L 166.126416 275.904 
L 161.45751 275.904 
z
" style="fill:#8b0000;opacity:0.4;stroke:#000000;stroke-linejoin:miter;"/>
   </g>
   <g id="patch_127">
    <path clip-path="url(#p6768ef0c92)" d="M 166.126416 307.584 
L 170.795322 307.584 
L 170.795322 267.0336 
L 166.126416 267.0336 
z
" style="fill:#8b0000;opacity:0.4;stroke:#000000;stroke-linejoin:miter;"/>
   </g>
   <g id="patch_128">
    <path clip-path="url(#p6768ef0c92)" d="M 170.795322 307.584 
L 175.464227 307.584 
L 175.464227 280.9728 
L 170.795322 280.9728 
z
" style="fill:#8b0000;opacity:0.4;stroke:#000000;stroke-linejoin:miter;"/>
   </g>
   <g id="patch_129">
    <path clip-path="url(#p6768ef0c92)" d="M 175.464227 307.584 
L 180.133133 307.584 
L 180.133133 296.1792 
L 175.464227 296.1792 
z
" style="fill:#8b0000;opacity:0.4;stroke:#000000;stroke-linejoin:miter;"/>
   </g>
   <g id="patch_130">
    <path clip-path="url(#p6768ef0c92)" d="M 180.133133 307.584 
L 184.802038 307.584 
L 184.802038 292.3776 
L 180.133133 292.3776 
z
" style="fill:#8b0000;opacity:0.4;stroke:#000000;stroke-linejoin:miter;"/>
   </g>
   <g id="patch_131">
    <path clip-path="url(#p6768ef0c92)" d="M 184.802038 307.584 
L 189.470944 307.584 
L 189.470944 291.1104 
L 184.802038 291.1104 
z
" style="fill:#8b0000;opacity:0.4;stroke:#000000;stroke-linejoin:miter;"/>
   </g>
   <g id="patch_132">
    <path clip-path="url(#p6768ef0c92)" d="M 189.470944 307.584 
L 194.13985 307.584 
L 194.13985 293.6448 
L 189.470944 293.6448 
z
" style="fill:#8b0000;opacity:0.4;stroke:#000000;stroke-linejoin:miter;"/>
   </g>
   <g id="patch_133">
    <path clip-path="url(#p6768ef0c92)" d="M 194.13985 307.584 
L 198.808755 307.584 
L 198.808755 288.576 
L 194.13985 288.576 
z
" style="fill:#8b0000;opacity:0.4;stroke:#000000;stroke-linejoin:miter;"/>
   </g>
   <g id="patch_134">
    <path clip-path="url(#p6768ef0c92)" d="M 198.808755 307.584 
L 203.477661 307.584 
L 203.477661 294.912 
L 198.808755 294.912 
z
" style="fill:#8b0000;opacity:0.4;stroke:#000000;stroke-linejoin:miter;"/>
   </g>
   <g id="patch_135">
    <path clip-path="url(#p6768ef0c92)" d="M 203.477661 307.584 
L 208.146566 307.584 
L 208.146566 280.9728 
L 203.477661 280.9728 
z
" style="fill:#8b0000;opacity:0.4;stroke:#000000;stroke-linejoin:miter;"/>
   </g>
   <g id="patch_136">
    <path clip-path="url(#p6768ef0c92)" d="M 208.146566 307.584 
L 212.815472 307.584 
L 212.815472 284.7744 
L 208.146566 284.7744 
z
" style="fill:#8b0000;opacity:0.4;stroke:#000000;stroke-linejoin:miter;"/>
   </g>
   <g id="patch_137">
    <path clip-path="url(#p6768ef0c92)" d="M 212.815472 307.584 
L 217.484378 307.584 
L 217.484378 286.0416 
L 212.815472 286.0416 
z
" style="fill:#8b0000;opacity:0.4;stroke:#000000;stroke-linejoin:miter;"/>
   </g>
   <g id="patch_138">
    <path clip-path="url(#p6768ef0c92)" d="M 217.484378 307.584 
L 222.153283 307.584 
L 222.153283 278.4384 
L 217.484378 278.4384 
z
" style="fill:#8b0000;opacity:0.4;stroke:#000000;stroke-linejoin:miter;"/>
   </g>
   <g id="patch_139">
    <path clip-path="url(#p6768ef0c92)" d="M 222.153283 307.584 
L 226.822189 307.584 
L 226.822189 287.3088 
L 222.153283 287.3088 
z
" style="fill:#8b0000;opacity:0.4;stroke:#000000;stroke-linejoin:miter;"/>
   </g>
   <g id="patch_140">
    <path clip-path="url(#p6768ef0c92)" d="M 226.822189 307.584 
L 231.491094 307.584 
L 231.491094 272.1024 
L 226.822189 272.1024 
z
" style="fill:#8b0000;opacity:0.4;stroke:#000000;stroke-linejoin:miter;"/>
   </g>
   <g id="patch_141">
    <path clip-path="url(#p6768ef0c92)" d="M 231.491094 307.584 
L 236.16 307.584 
L 236.16 268.3008 
L 231.491094 268.3008 
z
" style="fill:#8b0000;opacity:0.4;stroke:#000000;stroke-linejoin:miter;"/>
   </g>
   <g id="patch_142">
    <path clip-path="url(#p6768ef0c92)" d="M 236.16 307.584 
L 240.828906 307.584 
L 240.828906 244.224 
L 236.16 244.224 
z
" style="fill:#8b0000;opacity:0.4;stroke:#000000;stroke-linejoin:miter;"/>
   </g>
   <g id="patch_143">
    <path clip-path="url(#p6768ef0c92)" d="M 240.828906 307.584 
L 245.497811 307.584 
L 245.497811 258.1632 
L 240.828906 258.1632 
z
" style="fill:#8b0000;opacity:0.4;stroke:#000000;stroke-linejoin:miter;"/>
   </g>
   <g id="patch_144">
    <path clip-path="url(#p6768ef0c92)" d="M 245.497811 307.584 
L 250.166717 307.584 
L 250.166717 279.7056 
L 245.497811 279.7056 
z
" style="fill:#8b0000;opacity:0.4;stroke:#000000;stroke-linejoin:miter;"/>
   </g>
   <g id="patch_145">
    <path clip-path="url(#p6768ef0c92)" d="M 250.166717 307.584 
L 254.835622 307.584 
L 254.835622 278.4384 
L 250.166717 278.4384 
z
" style="fill:#8b0000;opacity:0.4;stroke:#000000;stroke-linejoin:miter;"/>
   </g>
   <g id="patch_146">
    <path clip-path="url(#p6768ef0c92)" d="M 254.835622 307.584 
L 259.504528 307.584 
L 259.504528 270.8352 
L 254.835622 270.8352 
z
" style="fill:#8b0000;opacity:0.4;stroke:#000000;stroke-linejoin:miter;"/>
   </g>
   <g id="patch_147">
    <path clip-path="url(#p6768ef0c92)" d="M 259.504528 307.584 
L 264.173434 307.584 
L 264.173434 278.4384 
L 259.504528 278.4384 
z
" style="fill:#8b0000;opacity:0.4;stroke:#000000;stroke-linejoin:miter;"/>
   </g>
   <g id="patch_148">
    <path clip-path="url(#p6768ef0c92)" d="M 264.173434 307.584 
L 268.842339 307.584 
L 268.842339 289.8432 
L 264.173434 289.8432 
z
" style="fill:#8b0000;opacity:0.4;stroke:#000000;stroke-linejoin:miter;"/>
   </g>
   <g id="patch_149">
    <path clip-path="url(#p6768ef0c92)" d="M 268.842339 307.584 
L 273.511245 307.584 
L 273.511245 287.3088 
L 268.842339 287.3088 
z
" style="fill:#8b0000;opacity:0.4;stroke:#000000;stroke-linejoin:miter;"/>
   </g>
   <g id="patch_150">
    <path clip-path="url(#p6768ef0c92)" d="M 273.511245 307.584 
L 278.18015 307.584 
L 278.18015 296.1792 
L 273.511245 296.1792 
z
" style="fill:#8b0000;opacity:0.4;stroke:#000000;stroke-linejoin:miter;"/>
   </g>
   <g id="patch_151">
    <path clip-path="url(#p6768ef0c92)" d="M 278.18015 307.584 
L 282.849056 307.584 
L 282.849056 291.1104 
L 278.18015 291.1104 
z
" style="fill:#8b0000;opacity:0.4;stroke:#000000;stroke-linejoin:miter;"/>
   </g>
   <g id="patch_152">
    <path clip-path="url(#p6768ef0c92)" d="M 282.849056 307.584 
L 287.517962 307.584 
L 287.517962 297.4464 
L 282.849056 297.4464 
z
" style="fill:#8b0000;opacity:0.4;stroke:#000000;stroke-linejoin:miter;"/>
   </g>
   <g id="patch_153">
    <path clip-path="url(#p6768ef0c92)" d="M 287.517962 307.584 
L 292.186867 307.584 
L 292.186867 284.7744 
L 287.517962 284.7744 
z
" style="fill:#8b0000;opacity:0.4;stroke:#000000;stroke-linejoin:miter;"/>
   </g>
   <g id="patch_154">
    <path clip-path="url(#p6768ef0c92)" d="M 292.186867 307.584 
L 296.855773 307.584 
L 296.855773 283.5072 
L 292.186867 283.5072 
z
" style="fill:#8b0000;opacity:0.4;stroke:#000000;stroke-linejoin:miter;"/>
   </g>
   <g id="patch_155">
    <path clip-path="url(#p6768ef0c92)" d="M 296.855773 307.584 
L 301.524678 307.584 
L 301.524678 294.912 
L 296.855773 294.912 
z
" style="fill:#8b0000;opacity:0.4;stroke:#000000;stroke-linejoin:miter;"/>
   </g>
   <g id="patch_156">
    <path clip-path="url(#p6768ef0c92)" d="M 301.524678 307.584 
L 306.193584 307.584 
L 306.193584 286.0416 
L 301.524678 286.0416 
z
" style="fill:#8b0000;opacity:0.4;stroke:#000000;stroke-linejoin:miter;"/>
   </g>
   <g id="patch_157">
    <path clip-path="url(#p6768ef0c92)" d="M 306.193584 307.584 
L 310.86249 307.584 
L 310.86249 283.5072 
L 306.193584 283.5072 
z
" style="fill:#8b0000;opacity:0.4;stroke:#000000;stroke-linejoin:miter;"/>
   </g>
   <g id="patch_158">
    <path clip-path="url(#p6768ef0c92)" d="M 310.86249 307.584 
L 315.531395 307.584 
L 315.531395 275.904 
L 310.86249 275.904 
z
" style="fill:#8b0000;opacity:0.4;stroke:#000000;stroke-linejoin:miter;"/>
   </g>
   <g id="patch_159">
    <path clip-path="url(#p6768ef0c92)" d="M 315.531395 307.584 
L 320.200301 307.584 
L 320.200301 274.6368 
L 315.531395 274.6368 
z
" style="fill:#8b0000;opacity:0.4;stroke:#000000;stroke-linejoin:miter;"/>
   </g>
   <g id="patch_160">
    <path clip-path="url(#p6768ef0c92)" d="M 320.200301 307.584 
L 324.869206 307.584 
L 324.869206 275.904 
L 320.200301 275.904 
z
" style="fill:#8b0000;opacity:0.4;stroke:#000000;stroke-linejoin:miter;"/>
   </g>
   <g id="patch_161">
    <path clip-path="url(#p6768ef0c92)" d="M 324.869206 307.584 
L 329.538112 307.584 
L 329.538112 284.7744 
L 324.869206 284.7744 
z
" style="fill:#8b0000;opacity:0.4;stroke:#000000;stroke-linejoin:miter;"/>
   </g>
   <g id="patch_162">
    <path clip-path="url(#p6768ef0c92)" d="M 329.538112 307.584 
L 334.207018 307.584 
L 334.207018 284.7744 
L 329.538112 284.7744 
z
" style="fill:#8b0000;opacity:0.4;stroke:#000000;stroke-linejoin:miter;"/>
   </g>
   <g id="patch_163">
    <path clip-path="url(#p6768ef0c92)" d="M 334.207018 307.584 
L 338.875923 307.584 
L 338.875923 286.0416 
L 334.207018 286.0416 
z
" style="fill:#8b0000;opacity:0.4;stroke:#000000;stroke-linejoin:miter;"/>
   </g>
   <g id="patch_164">
    <path clip-path="url(#p6768ef0c92)" d="M 338.875923 307.584 
L 343.544829 307.584 
L 343.544829 302.5152 
L 338.875923 302.5152 
z
" style="fill:#8b0000;opacity:0.4;stroke:#000000;stroke-linejoin:miter;"/>
   </g>
   <g id="patch_165">
    <path clip-path="url(#p6768ef0c92)" d="M 343.544829 307.584 
L 348.213735 307.584 
L 348.213735 297.4464 
L 343.544829 297.4464 
z
" style="fill:#8b0000;opacity:0.4;stroke:#000000;stroke-linejoin:miter;"/>
   </g>
   <g id="patch_166">
    <path clip-path="url(#p6768ef0c92)" d="M 348.213735 307.584 
L 352.88264 307.584 
L 352.88264 305.0496 
L 348.213735 305.0496 
z
" style="fill:#8b0000;opacity:0.4;stroke:#000000;stroke-linejoin:miter;"/>
   </g>
   <g id="matplotlib.axis_5">
    <g id="xtick_11">
     <g id="line2d_18">
      <g>
       <use style="stroke:#000000;stroke-width:0.8;" x="99.466205" xlink:href="#mc5fb35e8c7" y="307.584"/>
      </g>
     </g>
     <g id="text_20">
      <!-- −1.0 -->
      <g transform="translate(87.324798 322.182437)scale(0.1 -0.1)">
       <use xlink:href="#DejaVuSans-8722"/>
       <use x="83.789062" xlink:href="#DejaVuSans-49"/>
       <use x="147.412109" xlink:href="#DejaVuSans-46"/>
       <use x="179.199219" xlink:href="#DejaVuSans-48"/>
      </g>
     </g>
    </g>
    <g id="xtick_12">
     <g id="line2d_19">
      <g>
       <use style="stroke:#000000;stroke-width:0.8;" x="168.876691" xlink:href="#mc5fb35e8c7" y="307.584"/>
      </g>
     </g>
     <g id="text_21">
      <!-- −0.5 -->
      <g transform="translate(156.735285 322.182437)scale(0.1 -0.1)">
       <use xlink:href="#DejaVuSans-8722"/>
       <use x="83.789062" xlink:href="#DejaVuSans-48"/>
       <use x="147.412109" xlink:href="#DejaVuSans-46"/>
       <use x="179.199219" xlink:href="#DejaVuSans-53"/>
      </g>
     </g>
    </g>
    <g id="xtick_13">
     <g id="line2d_20">
      <g>
       <use style="stroke:#000000;stroke-width:0.8;" x="238.287177" xlink:href="#mc5fb35e8c7" y="307.584"/>
      </g>
     </g>
     <g id="text_22">
      <!-- 0.0 -->
      <g transform="translate(230.335615 322.182437)scale(0.1 -0.1)">
       <use xlink:href="#DejaVuSans-48"/>
       <use x="63.623047" xlink:href="#DejaVuSans-46"/>
       <use x="95.410156" xlink:href="#DejaVuSans-48"/>
      </g>
     </g>
    </g>
    <g id="xtick_14">
     <g id="line2d_21">
      <g>
       <use style="stroke:#000000;stroke-width:0.8;" x="307.697664" xlink:href="#mc5fb35e8c7" y="307.584"/>
      </g>
     </g>
     <g id="text_23">
      <!-- 0.5 -->
      <g transform="translate(299.746101 322.182437)scale(0.1 -0.1)">
       <use xlink:href="#DejaVuSans-48"/>
       <use x="63.623047" xlink:href="#DejaVuSans-46"/>
       <use x="95.410156" xlink:href="#DejaVuSans-53"/>
      </g>
     </g>
    </g>
    <g id="xtick_15">
     <g id="line2d_22">
      <g>
       <use style="stroke:#000000;stroke-width:0.8;" x="377.10815" xlink:href="#mc5fb35e8c7" y="307.584"/>
      </g>
     </g>
     <g id="text_24">
      <!-- 1.0 -->
      <g transform="translate(369.156587 322.182437)scale(0.1 -0.1)">
       <use xlink:href="#DejaVuSans-49"/>
       <use x="63.623047" xlink:href="#DejaVuSans-46"/>
       <use x="95.410156" xlink:href="#DejaVuSans-48"/>
      </g>
     </g>
    </g>
    <g id="text_25">
     <!-- Position -->
     <defs>
      <path d="M 19.671875 64.796875 
L 19.671875 37.40625 
L 32.078125 37.40625 
Q 38.96875 37.40625 42.71875 40.96875 
Q 46.484375 44.53125 46.484375 51.125 
Q 46.484375 57.671875 42.71875 61.234375 
Q 38.96875 64.796875 32.078125 64.796875 
z
M 9.8125 72.90625 
L 32.078125 72.90625 
Q 44.34375 72.90625 50.609375 67.359375 
Q 56.890625 61.8125 56.890625 51.125 
Q 56.890625 40.328125 50.609375 34.8125 
Q 44.34375 29.296875 32.078125 29.296875 
L 19.671875 29.296875 
L 19.671875 0 
L 9.8125 0 
z
" id="DejaVuSans-80"/>
      <path d="M 30.609375 48.390625 
Q 23.390625 48.390625 19.1875 42.75 
Q 14.984375 37.109375 14.984375 27.296875 
Q 14.984375 17.484375 19.15625 11.84375 
Q 23.34375 6.203125 30.609375 6.203125 
Q 37.796875 6.203125 41.984375 11.859375 
Q 46.1875 17.53125 46.1875 27.296875 
Q 46.1875 37.015625 41.984375 42.703125 
Q 37.796875 48.390625 30.609375 48.390625 
z
M 30.609375 56 
Q 42.328125 56 49.015625 48.375 
Q 55.71875 40.765625 55.71875 27.296875 
Q 55.71875 13.875 49.015625 6.21875 
Q 42.328125 -1.421875 30.609375 -1.421875 
Q 18.84375 -1.421875 12.171875 6.21875 
Q 5.515625 13.875 5.515625 27.296875 
Q 5.515625 40.765625 12.171875 48.375 
Q 18.84375 56 30.609375 56 
z
" id="DejaVuSans-111"/>
     </defs>
     <g transform="translate(216.517031 335.860562)scale(0.1 -0.1)">
      <use xlink:href="#DejaVuSans-80"/>
      <use x="60.255859" xlink:href="#DejaVuSans-111"/>
      <use x="121.4375" xlink:href="#DejaVuSans-115"/>
      <use x="173.537109" xlink:href="#DejaVuSans-105"/>
      <use x="201.320312" xlink:href="#DejaVuSans-116"/>
      <use x="240.529297" xlink:href="#DejaVuSans-105"/>
      <use x="268.3125" xlink:href="#DejaVuSans-111"/>
      <use x="329.494141" xlink:href="#DejaVuSans-110"/>
     </g>
    </g>
   </g>
   <g id="matplotlib.axis_6">
    <g id="ytick_6">
     <g id="line2d_23">
      <g>
       <use style="stroke:#000000;stroke-width:0.8;" x="57.6" xlink:href="#m99f50da0b5" y="307.584"/>
      </g>
     </g>
     <g id="text_26">
      <!-- 0 -->
      <g transform="translate(44.2375 311.383219)scale(0.1 -0.1)">
       <use xlink:href="#DejaVuSans-48"/>
      </g>
     </g>
    </g>
    <g id="ytick_7">
     <g id="line2d_24">
      <g>
       <use style="stroke:#000000;stroke-width:0.8;" x="57.6" xlink:href="#m99f50da0b5" y="269.908637"/>
      </g>
     </g>
     <g id="text_27">
      <!-- 1 -->
      <g transform="translate(44.2375 273.707856)scale(0.1 -0.1)">
       <use xlink:href="#DejaVuSans-49"/>
      </g>
     </g>
    </g>
    <g id="text_28">
     <!-- Density -->
     <g transform="translate(38.157812 293.328594)rotate(-90)scale(0.1 -0.1)">
      <use xlink:href="#DejaVuSans-68"/>
      <use x="77.001953" xlink:href="#DejaVuSans-101"/>
      <use x="138.525391" xlink:href="#DejaVuSans-110"/>
      <use x="201.904297" xlink:href="#DejaVuSans-115"/>
      <use x="254.003906" xlink:href="#DejaVuSans-105"/>
      <use x="281.787109" xlink:href="#DejaVuSans-116"/>
      <use x="320.996094" xlink:href="#DejaVuSans-121"/>
     </g>
    </g>
   </g>
   <g id="line2d_25">
    <path clip-path="url(#p6768ef0c92)" d="M 73.832727 307.578356 
L 77.112066 307.572503 
L 80.391405 307.561446 
L 83.670744 307.541362 
L 86.950083 307.506271 
L 90.229421 307.447268 
L 93.50876 307.351773 
L 96.788099 307.202952 
L 100.067438 306.97958 
L 103.346777 306.656602 
L 106.626116 306.206592 
L 109.905455 305.60219 
L 113.184793 304.819307 
L 116.464132 303.840673 
L 119.743471 302.659034 
L 123.02281 301.279343 
L 126.302149 299.719416 
L 129.581488 298.009005 
L 132.860826 296.187672 
L 136.140165 294.302254 
L 139.419504 292.404726 
L 142.698843 290.550958 
L 145.978182 288.800181 
L 149.257521 287.214343 
L 152.53686 285.85611 
L 155.816198 284.784485 
L 159.095537 284.047777 
L 162.374876 283.674876 
L 165.654215 283.666861 
L 168.933554 283.99156 
L 172.212893 284.583297 
L 175.492231 285.348804 
L 178.77157 286.178558 
L 182.050909 286.961132 
L 185.330248 287.597274 
L 188.609587 288.010557 
L 191.888926 288.15253 
L 195.168264 288.001927 
L 198.447603 287.559136 
L 201.726942 286.838316 
L 205.006281 285.859983 
L 208.28562 284.646587 
L 211.564959 283.222555 
L 214.844298 281.618742 
L 218.123636 279.879649 
L 221.402975 278.070418 
L 224.682314 276.280217 
L 227.961653 274.619317 
L 231.240992 273.208979 
L 234.520331 272.165718 
L 237.799669 271.583548 
L 241.079008 271.518802 
L 244.358347 271.981431 
L 247.637686 272.934645 
L 250.917025 274.302209 
L 254.196364 275.980652 
L 257.475702 277.852857 
L 260.755041 279.800084 
L 264.03438 281.710952 
L 267.313719 283.487373 
L 270.593058 285.048324 
L 273.872397 286.332372 
L 277.151736 287.299341 
L 280.431074 287.930967 
L 283.710413 288.230165 
L 286.989752 288.218887 
L 290.269091 287.935041 
L 293.54843 287.429335 
L 296.827769 286.762828 
L 300.107107 286.005388 
L 303.386446 285.234517 
L 306.665785 284.533523 
L 309.945124 283.987985 
L 313.224463 283.680083 
L 316.503802 283.681233 
L 319.78314 284.04425 
L 323.062479 284.796629 
L 326.341818 285.936392 
L 329.621157 287.431374 
L 332.900496 289.222145 
L 336.179835 291.228088 
L 339.459174 293.355729 
L 342.738512 295.508146 
L 346.017851 297.594197 
L 349.29719 299.536412 
L 352.576529 301.27661 
L 355.855868 302.778684 
L 359.135207 304.028486 
L 362.414545 305.031203 
L 365.693884 305.806978 
L 368.973223 306.385701 
L 372.252562 306.801886 
L 375.531901 307.090318 
L 378.81124 307.282879 
L 382.090579 307.406661 
L 385.369917 307.483238 
L 388.649256 307.528806 
L 391.928595 307.554874 
L 395.207934 307.569204 
L 398.487273 307.576769 
" style="fill:none;stroke:#8b0000;stroke-linecap:square;stroke-width:4;"/>
   </g>
   <g id="patch_167">
    <path d="M 57.6 307.584 
L 57.6 241.056 
" style="fill:none;stroke:#000000;stroke-linecap:square;stroke-linejoin:miter;stroke-width:0.8;"/>
   </g>
   <g id="patch_168">
    <path d="M 414.72 307.584 
L 414.72 241.056 
" style="fill:none;stroke:#000000;stroke-linecap:square;stroke-linejoin:miter;stroke-width:0.8;"/>
   </g>
   <g id="patch_169">
    <path d="M 57.6 307.584 
L 414.72 307.584 
" style="fill:none;stroke:#000000;stroke-linecap:square;stroke-linejoin:miter;stroke-width:0.8;"/>
   </g>
   <g id="patch_170">
    <path d="M 57.6 241.056 
L 414.72 241.056 
" style="fill:none;stroke:#000000;stroke-linecap:square;stroke-linejoin:miter;stroke-width:0.8;"/>
   </g>
   <g id="legend_3">
    <g id="patch_171">
     <path d="M 370.471563 263.734125 
L 407.72 263.734125 
Q 409.72 263.734125 409.72 261.734125 
L 409.72 248.056 
Q 409.72 246.056 407.72 246.056 
L 370.471563 246.056 
Q 368.471563 246.056 368.471563 248.056 
L 368.471563 261.734125 
Q 368.471563 263.734125 370.471563 263.734125 
z
" style="fill:#ffffff;opacity:0.8;stroke:#cccccc;stroke-linejoin:miter;"/>
    </g>
    <g id="patch_172">
     <path d="M 372.471563 257.654437 
L 392.471563 257.654437 
L 392.471563 250.654437 
L 372.471563 250.654437 
z
" style="fill:#8b0000;opacity:0.4;stroke:#000000;stroke-linejoin:miter;"/>
    </g>
    <g id="text_29">
     <!-- z -->
     <defs>
      <path d="M 5.515625 54.6875 
L 48.1875 54.6875 
L 48.1875 46.484375 
L 14.40625 7.171875 
L 48.1875 7.171875 
L 48.1875 0 
L 4.296875 0 
L 4.296875 8.203125 
L 38.09375 47.515625 
L 5.515625 47.515625 
z
" id="DejaVuSans-122"/>
     </defs>
     <g transform="translate(400.471563 257.654437)scale(0.1 -0.1)">
      <use xlink:href="#DejaVuSans-122"/>
     </g>
    </g>
   </g>
  </g>
  <g id="text_30">
   <!-- Motif 7 Histogram -->
   <defs>
    <path d="M 9.8125 72.90625 
L 24.515625 72.90625 
L 43.109375 23.296875 
L 61.8125 72.90625 
L 76.515625 72.90625 
L 76.515625 0 
L 66.890625 0 
L 66.890625 64.015625 
L 48.09375 14.015625 
L 38.1875 14.015625 
L 19.390625 64.015625 
L 19.390625 0 
L 9.8125 0 
z
" id="DejaVuSans-77"/>
    <path d="M 37.109375 75.984375 
L 37.109375 68.5 
L 28.515625 68.5 
Q 23.6875 68.5 21.796875 66.546875 
Q 19.921875 64.59375 19.921875 59.515625 
L 19.921875 54.6875 
L 34.71875 54.6875 
L 34.71875 47.703125 
L 19.921875 47.703125 
L 19.921875 0 
L 10.890625 0 
L 10.890625 47.703125 
L 2.296875 47.703125 
L 2.296875 54.6875 
L 10.890625 54.6875 
L 10.890625 58.5 
Q 10.890625 67.625 15.140625 71.796875 
Q 19.390625 75.984375 28.609375 75.984375 
z
" id="DejaVuSans-102"/>
    <path id="DejaVuSans-32"/>
    <path d="M 8.203125 72.90625 
L 55.078125 72.90625 
L 55.078125 68.703125 
L 28.609375 0 
L 18.3125 0 
L 43.21875 64.59375 
L 8.203125 64.59375 
z
" id="DejaVuSans-55"/>
    <path d="M 9.8125 72.90625 
L 19.671875 72.90625 
L 19.671875 43.015625 
L 55.515625 43.015625 
L 55.515625 72.90625 
L 65.375 72.90625 
L 65.375 0 
L 55.515625 0 
L 55.515625 34.71875 
L 19.671875 34.71875 
L 19.671875 0 
L 9.8125 0 
z
" id="DejaVuSans-72"/>
    <path d="M 45.40625 27.984375 
Q 45.40625 37.75 41.375 43.109375 
Q 37.359375 48.484375 30.078125 48.484375 
Q 22.859375 48.484375 18.828125 43.109375 
Q 14.796875 37.75 14.796875 27.984375 
Q 14.796875 18.265625 18.828125 12.890625 
Q 22.859375 7.515625 30.078125 7.515625 
Q 37.359375 7.515625 41.375 12.890625 
Q 45.40625 18.265625 45.40625 27.984375 
z
M 54.390625 6.78125 
Q 54.390625 -7.171875 48.1875 -13.984375 
Q 42 -20.796875 29.203125 -20.796875 
Q 24.46875 -20.796875 20.265625 -20.09375 
Q 16.0625 -19.390625 12.109375 -17.921875 
L 12.109375 -9.1875 
Q 16.0625 -11.328125 19.921875 -12.34375 
Q 23.78125 -13.375 27.78125 -13.375 
Q 36.625 -13.375 41.015625 -8.765625 
Q 45.40625 -4.15625 45.40625 5.171875 
L 45.40625 9.625 
Q 42.625 4.78125 38.28125 2.390625 
Q 33.9375 0 27.875 0 
Q 17.828125 0 11.671875 7.65625 
Q 5.515625 15.328125 5.515625 27.984375 
Q 5.515625 40.671875 11.671875 48.328125 
Q 17.828125 56 27.875 56 
Q 33.9375 56 38.28125 53.609375 
Q 42.625 51.21875 45.40625 46.390625 
L 45.40625 54.6875 
L 54.390625 54.6875 
z
" id="DejaVuSans-103"/>
    <path d="M 41.109375 46.296875 
Q 39.59375 47.171875 37.8125 47.578125 
Q 36.03125 48 33.890625 48 
Q 26.265625 48 22.1875 43.046875 
Q 18.109375 38.09375 18.109375 28.8125 
L 18.109375 0 
L 9.078125 0 
L 9.078125 54.6875 
L 18.109375 54.6875 
L 18.109375 46.1875 
Q 20.953125 51.171875 25.484375 53.578125 
Q 30.03125 56 36.53125 56 
Q 37.453125 56 38.578125 55.875 
Q 39.703125 55.765625 41.0625 55.515625 
z
" id="DejaVuSans-114"/>
    <path d="M 34.28125 27.484375 
Q 23.390625 27.484375 19.1875 25 
Q 14.984375 22.515625 14.984375 16.5 
Q 14.984375 11.71875 18.140625 8.90625 
Q 21.296875 6.109375 26.703125 6.109375 
Q 34.1875 6.109375 38.703125 11.40625 
Q 43.21875 16.703125 43.21875 25.484375 
L 43.21875 27.484375 
z
M 52.203125 31.203125 
L 52.203125 0 
L 43.21875 0 
L 43.21875 8.296875 
Q 40.140625 3.328125 35.546875 0.953125 
Q 30.953125 -1.421875 24.3125 -1.421875 
Q 15.921875 -1.421875 10.953125 3.296875 
Q 6 8.015625 6 15.921875 
Q 6 25.140625 12.171875 29.828125 
Q 18.359375 34.515625 30.609375 34.515625 
L 43.21875 34.515625 
L 43.21875 35.40625 
Q 43.21875 41.609375 39.140625 45 
Q 35.0625 48.390625 27.6875 48.390625 
Q 23 48.390625 18.546875 47.265625 
Q 14.109375 46.140625 10.015625 43.890625 
L 10.015625 52.203125 
Q 14.9375 54.109375 19.578125 55.046875 
Q 24.21875 56 28.609375 56 
Q 40.484375 56 46.34375 49.84375 
Q 52.203125 43.703125 52.203125 31.203125 
z
" id="DejaVuSans-97"/>
    <path d="M 52 44.1875 
Q 55.375 50.25 60.0625 53.125 
Q 64.75 56 71.09375 56 
Q 79.640625 56 84.28125 50.015625 
Q 88.921875 44.046875 88.921875 33.015625 
L 88.921875 0 
L 79.890625 0 
L 79.890625 32.71875 
Q 79.890625 40.578125 77.09375 44.375 
Q 74.3125 48.1875 68.609375 48.1875 
Q 61.625 48.1875 57.5625 43.546875 
Q 53.515625 38.921875 53.515625 30.90625 
L 53.515625 0 
L 44.484375 0 
L 44.484375 32.71875 
Q 44.484375 40.625 41.703125 44.40625 
Q 38.921875 48.1875 33.109375 48.1875 
Q 26.21875 48.1875 22.15625 43.53125 
Q 18.109375 38.875 18.109375 30.90625 
L 18.109375 0 
L 9.078125 0 
L 9.078125 54.6875 
L 18.109375 54.6875 
L 18.109375 46.1875 
Q 21.1875 51.21875 25.484375 53.609375 
Q 29.78125 56 35.6875 56 
Q 41.65625 56 45.828125 52.96875 
Q 50 49.953125 52 44.1875 
z
" id="DejaVuSans-109"/>
   </defs>
   <g transform="translate(176.664375 16.030125)scale(0.12 -0.12)">
    <use xlink:href="#DejaVuSans-77"/>
    <use x="86.279297" xlink:href="#DejaVuSans-111"/>
    <use x="147.460938" xlink:href="#DejaVuSans-116"/>
    <use x="186.669922" xlink:href="#DejaVuSans-105"/>
    <use x="214.453125" xlink:href="#DejaVuSans-102"/>
    <use x="249.658203" xlink:href="#DejaVuSans-32"/>
    <use x="281.445312" xlink:href="#DejaVuSans-55"/>
    <use x="345.068359" xlink:href="#DejaVuSans-32"/>
    <use x="376.855469" xlink:href="#DejaVuSans-72"/>
    <use x="452.050781" xlink:href="#DejaVuSans-105"/>
    <use x="479.833984" xlink:href="#DejaVuSans-115"/>
    <use x="531.933594" xlink:href="#DejaVuSans-116"/>
    <use x="571.142578" xlink:href="#DejaVuSans-111"/>
    <use x="632.324219" xlink:href="#DejaVuSans-103"/>
    <use x="695.800781" xlink:href="#DejaVuSans-114"/>
    <use x="736.914062" xlink:href="#DejaVuSans-97"/>
    <use x="798.193359" xlink:href="#DejaVuSans-109"/>
   </g>
  </g>
 </g>
 <defs>
  <clipPath id="p6b8b69fcde">
   <rect height="66.528" width="357.12" x="57.6" y="41.472"/>
  </clipPath>
  <clipPath id="p10b45391a2">
   <rect height="66.528" width="357.12" x="57.6" y="141.264"/>
  </clipPath>
  <clipPath id="p6768ef0c92">
   <rect height="66.528" width="357.12" x="57.6" y="241.056"/>
  </clipPath>
 </defs>
</svg>
