<?xml version="1.0" encoding="utf-8" standalone="no"?>
<!DOCTYPE svg PUBLIC "-//W3C//DTD SVG 1.1//EN"
  "http://www.w3.org/Graphics/SVG/1.1/DTD/svg11.dtd">
<!-- Created with matplotlib (https://matplotlib.org/) -->
<svg height="345.6pt" version="1.1" viewBox="0 0 460.8 345.6" width="460.8pt" xmlns="http://www.w3.org/2000/svg" xmlns:xlink="http://www.w3.org/1999/xlink">
 <defs>
  <style type="text/css">
*{stroke-linecap:butt;stroke-linejoin:round;}
  </style>
 </defs>
 <g id="figure_1">
  <g id="patch_1">
   <path d="M 0 345.6 
L 460.8 345.6 
L 460.8 0 
L 0 0 
z
" style="fill:#ffffff;"/>
  </g>
  <g id="axes_1">
   <g id="patch_2">
    <path d="M 57.6 108 
L 414.72 108 
L 414.72 41.472 
L 57.6 41.472 
z
" style="fill:#ffffff;"/>
   </g>
   <g id="patch_3">
    <path clip-path="url(#p599d570e39)" d="M 112.884984 108 
L 117.815984 108 
L 117.815984 106.651915 
L 112.884984 106.651915 
z
" style="fill:#00008b;opacity:0.4;stroke:#000000;stroke-linejoin:miter;"/>
   </g>
   <g id="patch_4">
    <path clip-path="url(#p599d570e39)" d="M 117.815984 108 
L 122.746985 108 
L 122.746985 107.325957 
L 117.815984 107.325957 
z
" style="fill:#00008b;opacity:0.4;stroke:#000000;stroke-linejoin:miter;"/>
   </g>
   <g id="patch_5">
    <path clip-path="url(#p599d570e39)" d="M 122.746985 108 
L 127.677986 108 
L 127.677986 103.955745 
L 122.746985 103.955745 
z
" style="fill:#00008b;opacity:0.4;stroke:#000000;stroke-linejoin:miter;"/>
   </g>
   <g id="patch_6">
    <path clip-path="url(#p599d570e39)" d="M 127.677986 108 
L 132.608986 108 
L 132.608986 99.237447 
L 127.677986 99.237447 
z
" style="fill:#00008b;opacity:0.4;stroke:#000000;stroke-linejoin:miter;"/>
   </g>
   <g id="patch_7">
    <path clip-path="url(#p599d570e39)" d="M 132.608986 108 
L 137.539987 108 
L 137.539987 87.778723 
L 132.608986 87.778723 
z
" style="fill:#00008b;opacity:0.4;stroke:#000000;stroke-linejoin:miter;"/>
   </g>
   <g id="patch_8">
    <path clip-path="url(#p599d570e39)" d="M 137.539987 108 
L 142.470988 108 
L 142.470988 84.408511 
L 137.539987 84.408511 
z
" style="fill:#00008b;opacity:0.4;stroke:#000000;stroke-linejoin:miter;"/>
   </g>
   <g id="patch_9">
    <path clip-path="url(#p599d570e39)" d="M 142.470988 108 
L 147.401988 108 
L 147.401988 87.778723 
L 142.470988 87.778723 
z
" style="fill:#00008b;opacity:0.4;stroke:#000000;stroke-linejoin:miter;"/>
   </g>
   <g id="patch_10">
    <path clip-path="url(#p599d570e39)" d="M 147.401988 108 
L 152.332989 108 
L 152.332989 80.364255 
L 147.401988 80.364255 
z
" style="fill:#00008b;opacity:0.4;stroke:#000000;stroke-linejoin:miter;"/>
   </g>
   <g id="patch_11">
    <path clip-path="url(#p599d570e39)" d="M 152.332989 108 
L 157.26399 108 
L 157.26399 76.994043 
L 152.332989 76.994043 
z
" style="fill:#00008b;opacity:0.4;stroke:#000000;stroke-linejoin:miter;"/>
   </g>
   <g id="patch_12">
    <path clip-path="url(#p599d570e39)" d="M 157.26399 108 
L 162.19499 108 
L 162.19499 82.386383 
L 157.26399 82.386383 
z
" style="fill:#00008b;opacity:0.4;stroke:#000000;stroke-linejoin:miter;"/>
   </g>
   <g id="patch_13">
    <path clip-path="url(#p599d570e39)" d="M 162.19499 108 
L 167.125991 108 
L 167.125991 81.71234 
L 162.19499 81.71234 
z
" style="fill:#00008b;opacity:0.4;stroke:#000000;stroke-linejoin:miter;"/>
   </g>
   <g id="patch_14">
    <path clip-path="url(#p599d570e39)" d="M 167.125991 108 
L 172.056992 108 
L 172.056992 87.104681 
L 167.125991 87.104681 
z
" style="fill:#00008b;opacity:0.4;stroke:#000000;stroke-linejoin:miter;"/>
   </g>
   <g id="patch_15">
    <path clip-path="url(#p599d570e39)" d="M 172.056992 108 
L 176.987992 108 
L 176.987992 95.867234 
L 172.056992 95.867234 
z
" style="fill:#00008b;opacity:0.4;stroke:#000000;stroke-linejoin:miter;"/>
   </g>
   <g id="patch_16">
    <path clip-path="url(#p599d570e39)" d="M 176.987992 108 
L 181.918993 108 
L 181.918993 91.822979 
L 176.987992 91.822979 
z
" style="fill:#00008b;opacity:0.4;stroke:#000000;stroke-linejoin:miter;"/>
   </g>
   <g id="patch_17">
    <path clip-path="url(#p599d570e39)" d="M 181.918993 108 
L 186.849993 108 
L 186.849993 95.193191 
L 181.918993 95.193191 
z
" style="fill:#00008b;opacity:0.4;stroke:#000000;stroke-linejoin:miter;"/>
   </g>
   <g id="patch_18">
    <path clip-path="url(#p599d570e39)" d="M 186.849993 108 
L 191.780994 108 
L 191.780994 95.193191 
L 186.849993 95.193191 
z
" style="fill:#00008b;opacity:0.4;stroke:#000000;stroke-linejoin:miter;"/>
   </g>
   <g id="patch_19">
    <path clip-path="url(#p599d570e39)" d="M 191.780994 108 
L 196.711995 108 
L 196.711995 83.734468 
L 191.780994 83.734468 
z
" style="fill:#00008b;opacity:0.4;stroke:#000000;stroke-linejoin:miter;"/>
   </g>
   <g id="patch_20">
    <path clip-path="url(#p599d570e39)" d="M 196.711995 108 
L 201.642995 108 
L 201.642995 81.71234 
L 196.711995 81.71234 
z
" style="fill:#00008b;opacity:0.4;stroke:#000000;stroke-linejoin:miter;"/>
   </g>
   <g id="patch_21">
    <path clip-path="url(#p599d570e39)" d="M 201.642995 108 
L 206.573996 108 
L 206.573996 79.690213 
L 201.642995 79.690213 
z
" style="fill:#00008b;opacity:0.4;stroke:#000000;stroke-linejoin:miter;"/>
   </g>
   <g id="patch_22">
    <path clip-path="url(#p599d570e39)" d="M 206.573996 108 
L 211.504997 108 
L 211.504997 83.734468 
L 206.573996 83.734468 
z
" style="fill:#00008b;opacity:0.4;stroke:#000000;stroke-linejoin:miter;"/>
   </g>
   <g id="patch_23">
    <path clip-path="url(#p599d570e39)" d="M 211.504997 108 
L 216.435997 108 
L 216.435997 85.082553 
L 211.504997 85.082553 
z
" style="fill:#00008b;opacity:0.4;stroke:#000000;stroke-linejoin:miter;"/>
   </g>
   <g id="patch_24">
    <path clip-path="url(#p599d570e39)" d="M 216.435997 108 
L 221.366998 108 
L 221.366998 73.62383 
L 216.435997 73.62383 
z
" style="fill:#00008b;opacity:0.4;stroke:#000000;stroke-linejoin:miter;"/>
   </g>
   <g id="patch_25">
    <path clip-path="url(#p599d570e39)" d="M 221.366998 108 
L 226.297999 108 
L 226.297999 72.275745 
L 221.366998 72.275745 
z
" style="fill:#00008b;opacity:0.4;stroke:#000000;stroke-linejoin:miter;"/>
   </g>
   <g id="patch_26">
    <path clip-path="url(#p599d570e39)" d="M 226.297999 108 
L 231.228999 108 
L 231.228999 61.491064 
L 226.297999 61.491064 
z
" style="fill:#00008b;opacity:0.4;stroke:#000000;stroke-linejoin:miter;"/>
   </g>
   <g id="patch_27">
    <path clip-path="url(#p599d570e39)" d="M 231.228999 108 
L 236.16 108 
L 236.16 63.513191 
L 231.228999 63.513191 
z
" style="fill:#00008b;opacity:0.4;stroke:#000000;stroke-linejoin:miter;"/>
   </g>
   <g id="patch_28">
    <path clip-path="url(#p599d570e39)" d="M 236.16 108 
L 241.091001 108 
L 241.091001 52.054468 
L 236.16 52.054468 
z
" style="fill:#00008b;opacity:0.4;stroke:#000000;stroke-linejoin:miter;"/>
   </g>
   <g id="patch_29">
    <path clip-path="url(#p599d570e39)" d="M 241.091001 108 
L 246.022001 108 
L 246.022001 44.64 
L 241.091001 44.64 
z
" style="fill:#00008b;opacity:0.4;stroke:#000000;stroke-linejoin:miter;"/>
   </g>
   <g id="patch_30">
    <path clip-path="url(#p599d570e39)" d="M 246.022001 108 
L 250.953002 108 
L 250.953002 77.668085 
L 246.022001 77.668085 
z
" style="fill:#00008b;opacity:0.4;stroke:#000000;stroke-linejoin:miter;"/>
   </g>
   <g id="patch_31">
    <path clip-path="url(#p599d570e39)" d="M 250.953002 108 
L 255.884003 108 
L 255.884003 73.62383 
L 250.953002 73.62383 
z
" style="fill:#00008b;opacity:0.4;stroke:#000000;stroke-linejoin:miter;"/>
   </g>
   <g id="patch_32">
    <path clip-path="url(#p599d570e39)" d="M 255.884003 108 
L 260.815003 108 
L 260.815003 79.01617 
L 255.884003 79.01617 
z
" style="fill:#00008b;opacity:0.4;stroke:#000000;stroke-linejoin:miter;"/>
   </g>
   <g id="patch_33">
    <path clip-path="url(#p599d570e39)" d="M 260.815003 108 
L 265.746004 108 
L 265.746004 71.601702 
L 260.815003 71.601702 
z
" style="fill:#00008b;opacity:0.4;stroke:#000000;stroke-linejoin:miter;"/>
   </g>
   <g id="patch_34">
    <path clip-path="url(#p599d570e39)" d="M 265.746004 108 
L 270.677005 108 
L 270.677005 62.839149 
L 265.746004 62.839149 
z
" style="fill:#00008b;opacity:0.4;stroke:#000000;stroke-linejoin:miter;"/>
   </g>
   <g id="patch_35">
    <path clip-path="url(#p599d570e39)" d="M 270.677005 108 
L 275.608005 108 
L 275.608005 84.408511 
L 270.677005 84.408511 
z
" style="fill:#00008b;opacity:0.4;stroke:#000000;stroke-linejoin:miter;"/>
   </g>
   <g id="patch_36">
    <path clip-path="url(#p599d570e39)" d="M 275.608005 108 
L 280.539006 108 
L 280.539006 83.734468 
L 275.608005 83.734468 
z
" style="fill:#00008b;opacity:0.4;stroke:#000000;stroke-linejoin:miter;"/>
   </g>
   <g id="patch_37">
    <path clip-path="url(#p599d570e39)" d="M 280.539006 108 
L 285.470007 108 
L 285.470007 75.645957 
L 280.539006 75.645957 
z
" style="fill:#00008b;opacity:0.4;stroke:#000000;stroke-linejoin:miter;"/>
   </g>
   <g id="patch_38">
    <path clip-path="url(#p599d570e39)" d="M 285.470007 108 
L 290.401007 108 
L 290.401007 87.778723 
L 285.470007 87.778723 
z
" style="fill:#00008b;opacity:0.4;stroke:#000000;stroke-linejoin:miter;"/>
   </g>
   <g id="patch_39">
    <path clip-path="url(#p599d570e39)" d="M 290.401007 108 
L 295.332008 108 
L 295.332008 89.800851 
L 290.401007 89.800851 
z
" style="fill:#00008b;opacity:0.4;stroke:#000000;stroke-linejoin:miter;"/>
   </g>
   <g id="patch_40">
    <path clip-path="url(#p599d570e39)" d="M 295.332008 108 
L 300.263008 108 
L 300.263008 91.148936 
L 295.332008 91.148936 
z
" style="fill:#00008b;opacity:0.4;stroke:#000000;stroke-linejoin:miter;"/>
   </g>
   <g id="patch_41">
    <path clip-path="url(#p599d570e39)" d="M 300.263008 108 
L 305.194009 108 
L 305.194009 84.408511 
L 300.263008 84.408511 
z
" style="fill:#00008b;opacity:0.4;stroke:#000000;stroke-linejoin:miter;"/>
   </g>
   <g id="patch_42">
    <path clip-path="url(#p599d570e39)" d="M 305.194009 108 
L 310.12501 108 
L 310.12501 85.756596 
L 305.194009 85.756596 
z
" style="fill:#00008b;opacity:0.4;stroke:#000000;stroke-linejoin:miter;"/>
   </g>
   <g id="patch_43">
    <path clip-path="url(#p599d570e39)" d="M 310.12501 108 
L 315.05601 108 
L 315.05601 84.408511 
L 310.12501 84.408511 
z
" style="fill:#00008b;opacity:0.4;stroke:#000000;stroke-linejoin:miter;"/>
   </g>
   <g id="patch_44">
    <path clip-path="url(#p599d570e39)" d="M 315.05601 108 
L 319.987011 108 
L 319.987011 86.430638 
L 315.05601 86.430638 
z
" style="fill:#00008b;opacity:0.4;stroke:#000000;stroke-linejoin:miter;"/>
   </g>
   <g id="patch_45">
    <path clip-path="url(#p599d570e39)" d="M 319.987011 108 
L 324.918012 108 
L 324.918012 73.62383 
L 319.987011 73.62383 
z
" style="fill:#00008b;opacity:0.4;stroke:#000000;stroke-linejoin:miter;"/>
   </g>
   <g id="patch_46">
    <path clip-path="url(#p599d570e39)" d="M 324.918012 108 
L 329.849012 108 
L 329.849012 88.452766 
L 324.918012 88.452766 
z
" style="fill:#00008b;opacity:0.4;stroke:#000000;stroke-linejoin:miter;"/>
   </g>
   <g id="patch_47">
    <path clip-path="url(#p599d570e39)" d="M 329.849012 108 
L 334.780013 108 
L 334.780013 86.430638 
L 329.849012 86.430638 
z
" style="fill:#00008b;opacity:0.4;stroke:#000000;stroke-linejoin:miter;"/>
   </g>
   <g id="patch_48">
    <path clip-path="url(#p599d570e39)" d="M 334.780013 108 
L 339.711014 108 
L 339.711014 82.386383 
L 334.780013 82.386383 
z
" style="fill:#00008b;opacity:0.4;stroke:#000000;stroke-linejoin:miter;"/>
   </g>
   <g id="patch_49">
    <path clip-path="url(#p599d570e39)" d="M 339.711014 108 
L 344.642014 108 
L 344.642014 95.867234 
L 339.711014 95.867234 
z
" style="fill:#00008b;opacity:0.4;stroke:#000000;stroke-linejoin:miter;"/>
   </g>
   <g id="patch_50">
    <path clip-path="url(#p599d570e39)" d="M 344.642014 108 
L 349.573015 108 
L 349.573015 94.519149 
L 344.642014 94.519149 
z
" style="fill:#00008b;opacity:0.4;stroke:#000000;stroke-linejoin:miter;"/>
   </g>
   <g id="patch_51">
    <path clip-path="url(#p599d570e39)" d="M 349.573015 108 
L 354.504016 108 
L 354.504016 100.585532 
L 349.573015 100.585532 
z
" style="fill:#00008b;opacity:0.4;stroke:#000000;stroke-linejoin:miter;"/>
   </g>
   <g id="patch_52">
    <path clip-path="url(#p599d570e39)" d="M 354.504016 108 
L 359.435016 108 
L 359.435016 103.955745 
L 354.504016 103.955745 
z
" style="fill:#00008b;opacity:0.4;stroke:#000000;stroke-linejoin:miter;"/>
   </g>
   <g id="matplotlib.axis_1">
    <g id="xtick_1">
     <g id="line2d_1">
      <defs>
       <path d="M 0 0 
L 0 3.5 
" id="m158460b4f2" style="stroke:#000000;stroke-width:0.8;"/>
      </defs>
      <g>
       <use style="stroke:#000000;stroke-width:0.8;" x="93.021739" xlink:href="#m158460b4f2" y="108"/>
      </g>
     </g>
     <g id="text_1">
      <!-- −1.0 -->
      <defs>
       <path d="M 10.59375 35.5 
L 73.1875 35.5 
L 73.1875 27.203125 
L 10.59375 27.203125 
z
" id="DejaVuSans-8722"/>
       <path d="M 12.40625 8.296875 
L 28.515625 8.296875 
L 28.515625 63.921875 
L 10.984375 60.40625 
L 10.984375 69.390625 
L 28.421875 72.90625 
L 38.28125 72.90625 
L 38.28125 8.296875 
L 54.390625 8.296875 
L 54.390625 0 
L 12.40625 0 
z
" id="DejaVuSans-49"/>
       <path d="M 10.6875 12.40625 
L 21 12.40625 
L 21 0 
L 10.6875 0 
z
" id="DejaVuSans-46"/>
       <path d="M 31.78125 66.40625 
Q 24.171875 66.40625 20.328125 58.90625 
Q 16.5 51.421875 16.5 36.375 
Q 16.5 21.390625 20.328125 13.890625 
Q 24.171875 6.390625 31.78125 6.390625 
Q 39.453125 6.390625 43.28125 13.890625 
Q 47.125 21.390625 47.125 36.375 
Q 47.125 51.421875 43.28125 58.90625 
Q 39.453125 66.40625 31.78125 66.40625 
z
M 31.78125 74.21875 
Q 44.046875 74.21875 50.515625 64.515625 
Q 56.984375 54.828125 56.984375 36.375 
Q 56.984375 17.96875 50.515625 8.265625 
Q 44.046875 -1.421875 31.78125 -1.421875 
Q 19.53125 -1.421875 13.0625 8.265625 
Q 6.59375 17.96875 6.59375 36.375 
Q 6.59375 54.828125 13.0625 64.515625 
Q 19.53125 74.21875 31.78125 74.21875 
z
" id="DejaVuSans-48"/>
      </defs>
      <g transform="translate(80.880333 122.598437)scale(0.1 -0.1)">
       <use xlink:href="#DejaVuSans-8722"/>
       <use x="83.789062" xlink:href="#DejaVuSans-49"/>
       <use x="147.412109" xlink:href="#DejaVuSans-46"/>
       <use x="179.199219" xlink:href="#DejaVuSans-48"/>
      </g>
     </g>
    </g>
    <g id="xtick_2">
     <g id="line2d_2">
      <g>
       <use style="stroke:#000000;stroke-width:0.8;" x="166.506245" xlink:href="#m158460b4f2" y="108"/>
      </g>
     </g>
     <g id="text_2">
      <!-- −0.5 -->
      <defs>
       <path d="M 10.796875 72.90625 
L 49.515625 72.90625 
L 49.515625 64.59375 
L 19.828125 64.59375 
L 19.828125 46.734375 
Q 21.96875 47.46875 24.109375 47.828125 
Q 26.265625 48.1875 28.421875 48.1875 
Q 40.625 48.1875 47.75 41.5 
Q 54.890625 34.8125 54.890625 23.390625 
Q 54.890625 11.625 47.5625 5.09375 
Q 40.234375 -1.421875 26.90625 -1.421875 
Q 22.3125 -1.421875 17.546875 -0.640625 
Q 12.796875 0.140625 7.71875 1.703125 
L 7.71875 11.625 
Q 12.109375 9.234375 16.796875 8.0625 
Q 21.484375 6.890625 26.703125 6.890625 
Q 35.15625 6.890625 40.078125 11.328125 
Q 45.015625 15.765625 45.015625 23.390625 
Q 45.015625 31 40.078125 35.4375 
Q 35.15625 39.890625 26.703125 39.890625 
Q 22.75 39.890625 18.8125 39.015625 
Q 14.890625 38.140625 10.796875 36.28125 
z
" id="DejaVuSans-53"/>
      </defs>
      <g transform="translate(154.364839 122.598437)scale(0.1 -0.1)">
       <use xlink:href="#DejaVuSans-8722"/>
       <use x="83.789062" xlink:href="#DejaVuSans-48"/>
       <use x="147.412109" xlink:href="#DejaVuSans-46"/>
       <use x="179.199219" xlink:href="#DejaVuSans-53"/>
      </g>
     </g>
    </g>
    <g id="xtick_3">
     <g id="line2d_3">
      <g>
       <use style="stroke:#000000;stroke-width:0.8;" x="239.990752" xlink:href="#m158460b4f2" y="108"/>
      </g>
     </g>
     <g id="text_3">
      <!-- 0.0 -->
      <g transform="translate(232.039189 122.598437)scale(0.1 -0.1)">
       <use xlink:href="#DejaVuSans-48"/>
       <use x="63.623047" xlink:href="#DejaVuSans-46"/>
       <use x="95.410156" xlink:href="#DejaVuSans-48"/>
      </g>
     </g>
    </g>
    <g id="xtick_4">
     <g id="line2d_4">
      <g>
       <use style="stroke:#000000;stroke-width:0.8;" x="313.475258" xlink:href="#m158460b4f2" y="108"/>
      </g>
     </g>
     <g id="text_4">
      <!-- 0.5 -->
      <g transform="translate(305.523695 122.598437)scale(0.1 -0.1)">
       <use xlink:href="#DejaVuSans-48"/>
       <use x="63.623047" xlink:href="#DejaVuSans-46"/>
       <use x="95.410156" xlink:href="#DejaVuSans-53"/>
      </g>
     </g>
    </g>
    <g id="xtick_5">
     <g id="line2d_5">
      <g>
       <use style="stroke:#000000;stroke-width:0.8;" x="386.959764" xlink:href="#m158460b4f2" y="108"/>
      </g>
     </g>
     <g id="text_5">
      <!-- 1.0 -->
      <g transform="translate(379.008201 122.598437)scale(0.1 -0.1)">
       <use xlink:href="#DejaVuSans-49"/>
       <use x="63.623047" xlink:href="#DejaVuSans-46"/>
       <use x="95.410156" xlink:href="#DejaVuSans-48"/>
      </g>
     </g>
    </g>
   </g>
   <g id="matplotlib.axis_2">
    <g id="ytick_1">
     <g id="line2d_6">
      <defs>
       <path d="M 0 0 
L -3.5 0 
" id="m439e240607" style="stroke:#000000;stroke-width:0.8;"/>
      </defs>
      <g>
       <use style="stroke:#000000;stroke-width:0.8;" x="57.6" xlink:href="#m439e240607" y="108"/>
      </g>
     </g>
     <g id="text_6">
      <!-- 0 -->
      <g transform="translate(44.2375 111.799219)scale(0.1 -0.1)">
       <use xlink:href="#DejaVuSans-48"/>
      </g>
     </g>
    </g>
    <g id="ytick_2">
     <g id="line2d_7">
      <g>
       <use style="stroke:#000000;stroke-width:0.8;" x="57.6" xlink:href="#m439e240607" y="67.383459"/>
      </g>
     </g>
     <g id="text_7">
      <!-- 1 -->
      <g transform="translate(44.2375 71.182678)scale(0.1 -0.1)">
       <use xlink:href="#DejaVuSans-49"/>
      </g>
     </g>
    </g>
    <g id="text_8">
     <!-- Density -->
     <defs>
      <path d="M 19.671875 64.796875 
L 19.671875 8.109375 
L 31.59375 8.109375 
Q 46.6875 8.109375 53.6875 14.9375 
Q 60.6875 21.78125 60.6875 36.53125 
Q 60.6875 51.171875 53.6875 57.984375 
Q 46.6875 64.796875 31.59375 64.796875 
z
M 9.8125 72.90625 
L 30.078125 72.90625 
Q 51.265625 72.90625 61.171875 64.09375 
Q 71.09375 55.28125 71.09375 36.53125 
Q 71.09375 17.671875 61.125 8.828125 
Q 51.171875 0 30.078125 0 
L 9.8125 0 
z
" id="DejaVuSans-68"/>
      <path d="M 56.203125 29.59375 
L 56.203125 25.203125 
L 14.890625 25.203125 
Q 15.484375 15.921875 20.484375 11.0625 
Q 25.484375 6.203125 34.421875 6.203125 
Q 39.59375 6.203125 44.453125 7.46875 
Q 49.3125 8.734375 54.109375 11.28125 
L 54.109375 2.78125 
Q 49.265625 0.734375 44.1875 -0.34375 
Q 39.109375 -1.421875 33.890625 -1.421875 
Q 20.796875 -1.421875 13.15625 6.1875 
Q 5.515625 13.8125 5.515625 26.8125 
Q 5.515625 40.234375 12.765625 48.109375 
Q 20.015625 56 32.328125 56 
Q 43.359375 56 49.78125 48.890625 
Q 56.203125 41.796875 56.203125 29.59375 
z
M 47.21875 32.234375 
Q 47.125 39.59375 43.09375 43.984375 
Q 39.0625 48.390625 32.421875 48.390625 
Q 24.90625 48.390625 20.390625 44.140625 
Q 15.875 39.890625 15.1875 32.171875 
z
" id="DejaVuSans-101"/>
      <path d="M 54.890625 33.015625 
L 54.890625 0 
L 45.90625 0 
L 45.90625 32.71875 
Q 45.90625 40.484375 42.875 44.328125 
Q 39.84375 48.1875 33.796875 48.1875 
Q 26.515625 48.1875 22.3125 43.546875 
Q 18.109375 38.921875 18.109375 30.90625 
L 18.109375 0 
L 9.078125 0 
L 9.078125 54.6875 
L 18.109375 54.6875 
L 18.109375 46.1875 
Q 21.34375 51.125 25.703125 53.5625 
Q 30.078125 56 35.796875 56 
Q 45.21875 56 50.046875 50.171875 
Q 54.890625 44.34375 54.890625 33.015625 
z
" id="DejaVuSans-110"/>
      <path d="M 44.28125 53.078125 
L 44.28125 44.578125 
Q 40.484375 46.53125 36.375 47.5 
Q 32.28125 48.484375 27.875 48.484375 
Q 21.1875 48.484375 17.84375 46.4375 
Q 14.5 44.390625 14.5 40.28125 
Q 14.5 37.15625 16.890625 35.375 
Q 19.28125 33.59375 26.515625 31.984375 
L 29.59375 31.296875 
Q 39.15625 29.25 43.1875 25.515625 
Q 47.21875 21.78125 47.21875 15.09375 
Q 47.21875 7.46875 41.1875 3.015625 
Q 35.15625 -1.421875 24.609375 -1.421875 
Q 20.21875 -1.421875 15.453125 -0.5625 
Q 10.6875 0.296875 5.421875 2 
L 5.421875 11.28125 
Q 10.40625 8.6875 15.234375 7.390625 
Q 20.0625 6.109375 24.8125 6.109375 
Q 31.15625 6.109375 34.5625 8.28125 
Q 37.984375 10.453125 37.984375 14.40625 
Q 37.984375 18.0625 35.515625 20.015625 
Q 33.0625 21.96875 24.703125 23.78125 
L 21.578125 24.515625 
Q 13.234375 26.265625 9.515625 29.90625 
Q 5.8125 33.546875 5.8125 39.890625 
Q 5.8125 47.609375 11.28125 51.796875 
Q 16.75 56 26.8125 56 
Q 31.78125 56 36.171875 55.265625 
Q 40.578125 54.546875 44.28125 53.078125 
z
" id="DejaVuSans-115"/>
      <path d="M 9.421875 54.6875 
L 18.40625 54.6875 
L 18.40625 0 
L 9.421875 0 
z
M 9.421875 75.984375 
L 18.40625 75.984375 
L 18.40625 64.59375 
L 9.421875 64.59375 
z
" id="DejaVuSans-105"/>
      <path d="M 18.3125 70.21875 
L 18.3125 54.6875 
L 36.8125 54.6875 
L 36.8125 47.703125 
L 18.3125 47.703125 
L 18.3125 18.015625 
Q 18.3125 11.328125 20.140625 9.421875 
Q 21.96875 7.515625 27.59375 7.515625 
L 36.8125 7.515625 
L 36.8125 0 
L 27.59375 0 
Q 17.1875 0 13.234375 3.875 
Q 9.28125 7.765625 9.28125 18.015625 
L 9.28125 47.703125 
L 2.6875 47.703125 
L 2.6875 54.6875 
L 9.28125 54.6875 
L 9.28125 70.21875 
z
" id="DejaVuSans-116"/>
      <path d="M 32.171875 -5.078125 
Q 28.375 -14.84375 24.75 -17.8125 
Q 21.140625 -20.796875 15.09375 -20.796875 
L 7.90625 -20.796875 
L 7.90625 -13.28125 
L 13.1875 -13.28125 
Q 16.890625 -13.28125 18.9375 -11.515625 
Q 21 -9.765625 23.484375 -3.21875 
L 25.09375 0.875 
L 2.984375 54.6875 
L 12.5 54.6875 
L 29.59375 11.921875 
L 46.6875 54.6875 
L 56.203125 54.6875 
z
" id="DejaVuSans-121"/>
     </defs>
     <g transform="translate(38.157812 93.744594)rotate(-90)scale(0.1 -0.1)">
      <use xlink:href="#DejaVuSans-68"/>
      <use x="77.001953" xlink:href="#DejaVuSans-101"/>
      <use x="138.525391" xlink:href="#DejaVuSans-110"/>
      <use x="201.904297" xlink:href="#DejaVuSans-115"/>
      <use x="254.003906" xlink:href="#DejaVuSans-105"/>
      <use x="281.787109" xlink:href="#DejaVuSans-116"/>
      <use x="320.996094" xlink:href="#DejaVuSans-121"/>
     </g>
    </g>
   </g>
   <g id="line2d_8">
    <path clip-path="url(#p599d570e39)" d="M 73.832727 107.997804 
L 77.112066 107.995053 
L 80.391405 107.989376 
L 83.670744 107.978199 
L 86.950083 107.957132 
L 90.229421 107.919007 
L 93.50876 107.8526 
L 96.788099 107.741075 
L 100.067438 107.560349 
L 103.346777 107.277843 
L 106.626116 106.85237 
L 109.905455 106.23612 
L 113.184793 105.379567 
L 116.464132 104.239476 
L 119.743471 102.789077 
L 123.02281 101.028238 
L 126.302149 98.990736 
L 129.581488 96.746012 
L 132.860826 94.394309 
L 136.140165 92.056111 
L 139.419504 89.858569 
L 142.698843 87.92202 
L 145.978182 86.348812 
L 149.257521 85.214944 
L 152.53686 84.563772 
L 155.816198 84.400886 
L 159.095537 84.690324 
L 162.374876 85.353592 
L 165.654215 86.273661 
L 168.933554 87.305395 
L 172.212893 88.292149 
L 175.492231 89.086169 
L 178.77157 89.568868 
L 182.050909 89.666622 
L 185.330248 89.358371 
L 188.609587 88.672905 
L 191.888926 87.675888 
L 195.168264 86.449221 
L 198.447603 85.067757 
L 201.726942 83.579885 
L 205.006281 81.998124 
L 208.28562 80.303284 
L 211.564959 78.461473 
L 214.844298 76.448918 
L 218.123636 74.276813 
L 221.402975 72.008256 
L 224.682314 69.761464 
L 227.961653 67.697036 
L 231.240992 65.99113 
L 234.520331 64.800307 
L 237.799669 64.226948 
L 241.079008 64.29531 
L 244.358347 64.946402 
L 247.637686 66.054426 
L 250.917025 67.460188 
L 254.196364 69.010453 
L 257.475702 70.590126 
L 260.755041 72.137454 
L 264.03438 73.639676 
L 267.313719 75.114158 
L 270.593058 76.584414 
L 273.872397 78.060228 
L 277.151736 79.527341 
L 280.431074 80.947527 
L 283.710413 82.266446 
L 286.989752 83.425446 
L 290.269091 84.373787 
L 293.54843 85.078677 
L 296.827769 85.531514 
L 300.107107 85.749651 
L 303.386446 85.77398 
L 306.665785 85.663514 
L 309.945124 85.488525 
L 313.224463 85.323713 
L 316.503802 85.242289 
L 319.78314 85.311339 
L 323.062479 85.588353 
L 326.341818 86.11858 
L 329.621157 86.932719 
L 332.900496 88.04445 
L 336.179835 89.447692 
L 339.459174 91.114136 
L 342.738512 92.992255 
L 346.017851 95.009246 
L 349.29719 97.076818 
L 352.576529 99.100595 
L 355.855868 100.991575 
L 359.135207 102.677213 
L 362.414545 104.109587 
L 365.693884 105.268892 
L 368.973223 106.161824 
L 372.252562 106.815799 
L 375.531901 107.270875 
L 378.81124 107.571529 
L 382.090579 107.759985 
L 385.369917 107.871987 
L 388.649256 107.935062 
L 391.928595 107.968701 
L 395.207934 107.98568 
L 398.487273 107.993786 
" style="fill:none;stroke:#00008b;stroke-linecap:square;stroke-width:4;"/>
   </g>
   <g id="patch_53">
    <path d="M 57.6 108 
L 57.6 41.472 
" style="fill:none;stroke:#000000;stroke-linecap:square;stroke-linejoin:miter;stroke-width:0.8;"/>
   </g>
   <g id="patch_54">
    <path d="M 414.72 108 
L 414.72 41.472 
" style="fill:none;stroke:#000000;stroke-linecap:square;stroke-linejoin:miter;stroke-width:0.8;"/>
   </g>
   <g id="patch_55">
    <path d="M 57.6 108 
L 414.72 108 
" style="fill:none;stroke:#000000;stroke-linecap:square;stroke-linejoin:miter;stroke-width:0.8;"/>
   </g>
   <g id="patch_56">
    <path d="M 57.6 41.472 
L 414.72 41.472 
" style="fill:none;stroke:#000000;stroke-linecap:square;stroke-linejoin:miter;stroke-width:0.8;"/>
   </g>
   <g id="legend_1">
    <g id="patch_57">
     <path d="M 369.80125 64.150125 
L 407.72 64.150125 
Q 409.72 64.150125 409.72 62.150125 
L 409.72 48.472 
Q 409.72 46.472 407.72 46.472 
L 369.80125 46.472 
Q 367.80125 46.472 367.80125 48.472 
L 367.80125 62.150125 
Q 367.80125 64.150125 369.80125 64.150125 
z
" style="fill:#ffffff;opacity:0.8;stroke:#cccccc;stroke-linejoin:miter;"/>
    </g>
    <g id="patch_58">
     <path d="M 371.80125 58.070438 
L 391.80125 58.070438 
L 391.80125 51.070438 
L 371.80125 51.070438 
z
" style="fill:#00008b;opacity:0.4;stroke:#000000;stroke-linejoin:miter;"/>
    </g>
    <g id="text_9">
     <!-- x -->
     <defs>
      <path d="M 54.890625 54.6875 
L 35.109375 28.078125 
L 55.90625 0 
L 45.3125 0 
L 29.390625 21.484375 
L 13.484375 0 
L 2.875 0 
L 24.125 28.609375 
L 4.6875 54.6875 
L 15.28125 54.6875 
L 29.78125 35.203125 
L 44.28125 54.6875 
z
" id="DejaVuSans-120"/>
     </defs>
     <g transform="translate(399.80125 58.070438)scale(0.1 -0.1)">
      <use xlink:href="#DejaVuSans-120"/>
     </g>
    </g>
   </g>
  </g>
  <g id="axes_2">
   <g id="patch_59">
    <path d="M 57.6 207.792 
L 414.72 207.792 
L 414.72 141.264 
L 57.6 141.264 
z
" style="fill:#ffffff;"/>
   </g>
   <g id="patch_60">
    <path clip-path="url(#p64be589820)" d="M 112.701222 207.792 
L 117.639573 207.792 
L 117.639573 203.76 
L 112.701222 203.76 
z
" style="fill:#006400;opacity:0.4;stroke:#000000;stroke-linejoin:miter;"/>
   </g>
   <g id="patch_61">
    <path clip-path="url(#p64be589820)" d="M 117.639573 207.792 
L 122.577924 207.792 
L 122.577924 195.696 
L 117.639573 195.696 
z
" style="fill:#006400;opacity:0.4;stroke:#000000;stroke-linejoin:miter;"/>
   </g>
   <g id="patch_62">
    <path clip-path="url(#p64be589820)" d="M 122.577924 207.792 
L 127.516276 207.792 
L 127.516276 196.848 
L 122.577924 196.848 
z
" style="fill:#006400;opacity:0.4;stroke:#000000;stroke-linejoin:miter;"/>
   </g>
   <g id="patch_63">
    <path clip-path="url(#p64be589820)" d="M 127.516276 207.792 
L 132.454627 207.792 
L 132.454627 192.24 
L 127.516276 192.24 
z
" style="fill:#006400;opacity:0.4;stroke:#000000;stroke-linejoin:miter;"/>
   </g>
   <g id="patch_64">
    <path clip-path="url(#p64be589820)" d="M 132.454627 207.792 
L 137.392978 207.792 
L 137.392978 198 
L 132.454627 198 
z
" style="fill:#006400;opacity:0.4;stroke:#000000;stroke-linejoin:miter;"/>
   </g>
   <g id="patch_65">
    <path clip-path="url(#p64be589820)" d="M 137.392978 207.792 
L 142.331329 207.792 
L 142.331329 188.208 
L 137.392978 188.208 
z
" style="fill:#006400;opacity:0.4;stroke:#000000;stroke-linejoin:miter;"/>
   </g>
   <g id="patch_66">
    <path clip-path="url(#p64be589820)" d="M 142.331329 207.792 
L 147.26968 207.792 
L 147.26968 178.992 
L 142.331329 178.992 
z
" style="fill:#006400;opacity:0.4;stroke:#000000;stroke-linejoin:miter;"/>
   </g>
   <g id="patch_67">
    <path clip-path="url(#p64be589820)" d="M 147.26968 207.792 
L 152.208031 207.792 
L 152.208031 186.48 
L 147.26968 186.48 
z
" style="fill:#006400;opacity:0.4;stroke:#000000;stroke-linejoin:miter;"/>
   </g>
   <g id="patch_68">
    <path clip-path="url(#p64be589820)" d="M 152.208031 207.792 
L 157.146382 207.792 
L 157.146382 184.176 
L 152.208031 184.176 
z
" style="fill:#006400;opacity:0.4;stroke:#000000;stroke-linejoin:miter;"/>
   </g>
   <g id="patch_69">
    <path clip-path="url(#p64be589820)" d="M 157.146382 207.792 
L 162.084733 207.792 
L 162.084733 190.512 
L 157.146382 190.512 
z
" style="fill:#006400;opacity:0.4;stroke:#000000;stroke-linejoin:miter;"/>
   </g>
   <g id="patch_70">
    <path clip-path="url(#p64be589820)" d="M 162.084733 207.792 
L 167.023084 207.792 
L 167.023084 190.512 
L 162.084733 190.512 
z
" style="fill:#006400;opacity:0.4;stroke:#000000;stroke-linejoin:miter;"/>
   </g>
   <g id="patch_71">
    <path clip-path="url(#p64be589820)" d="M 167.023084 207.792 
L 171.961436 207.792 
L 171.961436 194.544 
L 167.023084 194.544 
z
" style="fill:#006400;opacity:0.4;stroke:#000000;stroke-linejoin:miter;"/>
   </g>
   <g id="patch_72">
    <path clip-path="url(#p64be589820)" d="M 171.961436 207.792 
L 176.899787 207.792 
L 176.899787 191.664 
L 171.961436 191.664 
z
" style="fill:#006400;opacity:0.4;stroke:#000000;stroke-linejoin:miter;"/>
   </g>
   <g id="patch_73">
    <path clip-path="url(#p64be589820)" d="M 176.899787 207.792 
L 181.838138 207.792 
L 181.838138 184.176 
L 176.899787 184.176 
z
" style="fill:#006400;opacity:0.4;stroke:#000000;stroke-linejoin:miter;"/>
   </g>
   <g id="patch_74">
    <path clip-path="url(#p64be589820)" d="M 181.838138 207.792 
L 186.776489 207.792 
L 186.776489 183.024 
L 181.838138 183.024 
z
" style="fill:#006400;opacity:0.4;stroke:#000000;stroke-linejoin:miter;"/>
   </g>
   <g id="patch_75">
    <path clip-path="url(#p64be589820)" d="M 186.776489 207.792 
L 191.71484 207.792 
L 191.71484 193.968 
L 186.776489 193.968 
z
" style="fill:#006400;opacity:0.4;stroke:#000000;stroke-linejoin:miter;"/>
   </g>
   <g id="patch_76">
    <path clip-path="url(#p64be589820)" d="M 191.71484 207.792 
L 196.653191 207.792 
L 196.653191 195.12 
L 191.71484 195.12 
z
" style="fill:#006400;opacity:0.4;stroke:#000000;stroke-linejoin:miter;"/>
   </g>
   <g id="patch_77">
    <path clip-path="url(#p64be589820)" d="M 196.653191 207.792 
L 201.591542 207.792 
L 201.591542 183.024 
L 196.653191 183.024 
z
" style="fill:#006400;opacity:0.4;stroke:#000000;stroke-linejoin:miter;"/>
   </g>
   <g id="patch_78">
    <path clip-path="url(#p64be589820)" d="M 201.591542 207.792 
L 206.529893 207.792 
L 206.529893 181.872 
L 201.591542 181.872 
z
" style="fill:#006400;opacity:0.4;stroke:#000000;stroke-linejoin:miter;"/>
   </g>
   <g id="patch_79">
    <path clip-path="url(#p64be589820)" d="M 206.529893 207.792 
L 211.468244 207.792 
L 211.468244 180.72 
L 206.529893 180.72 
z
" style="fill:#006400;opacity:0.4;stroke:#000000;stroke-linejoin:miter;"/>
   </g>
   <g id="patch_80">
    <path clip-path="url(#p64be589820)" d="M 211.468244 207.792 
L 216.406596 207.792 
L 216.406596 187.056 
L 211.468244 187.056 
z
" style="fill:#006400;opacity:0.4;stroke:#000000;stroke-linejoin:miter;"/>
   </g>
   <g id="patch_81">
    <path clip-path="url(#p64be589820)" d="M 216.406596 207.792 
L 221.344947 207.792 
L 221.344947 176.112 
L 216.406596 176.112 
z
" style="fill:#006400;opacity:0.4;stroke:#000000;stroke-linejoin:miter;"/>
   </g>
   <g id="patch_82">
    <path clip-path="url(#p64be589820)" d="M 221.344947 207.792 
L 226.283298 207.792 
L 226.283298 166.896 
L 221.344947 166.896 
z
" style="fill:#006400;opacity:0.4;stroke:#000000;stroke-linejoin:miter;"/>
   </g>
   <g id="patch_83">
    <path clip-path="url(#p64be589820)" d="M 226.283298 207.792 
L 231.221649 207.792 
L 231.221649 147.312 
L 226.283298 147.312 
z
" style="fill:#006400;opacity:0.4;stroke:#000000;stroke-linejoin:miter;"/>
   </g>
   <g id="patch_84">
    <path clip-path="url(#p64be589820)" d="M 231.221649 207.792 
L 236.16 207.792 
L 236.16 144.432 
L 231.221649 144.432 
z
" style="fill:#006400;opacity:0.4;stroke:#000000;stroke-linejoin:miter;"/>
   </g>
   <g id="patch_85">
    <path clip-path="url(#p64be589820)" d="M 236.16 207.792 
L 241.098351 207.792 
L 241.098351 168.048 
L 236.16 168.048 
z
" style="fill:#006400;opacity:0.4;stroke:#000000;stroke-linejoin:miter;"/>
   </g>
   <g id="patch_86">
    <path clip-path="url(#p64be589820)" d="M 241.098351 207.792 
L 246.036702 207.792 
L 246.036702 170.928 
L 241.098351 170.928 
z
" style="fill:#006400;opacity:0.4;stroke:#000000;stroke-linejoin:miter;"/>
   </g>
   <g id="patch_87">
    <path clip-path="url(#p64be589820)" d="M 246.036702 207.792 
L 250.975053 207.792 
L 250.975053 183.024 
L 246.036702 183.024 
z
" style="fill:#006400;opacity:0.4;stroke:#000000;stroke-linejoin:miter;"/>
   </g>
   <g id="patch_88">
    <path clip-path="url(#p64be589820)" d="M 250.975053 207.792 
L 255.913404 207.792 
L 255.913404 184.176 
L 250.975053 184.176 
z
" style="fill:#006400;opacity:0.4;stroke:#000000;stroke-linejoin:miter;"/>
   </g>
   <g id="patch_89">
    <path clip-path="url(#p64be589820)" d="M 255.913404 207.792 
L 260.851756 207.792 
L 260.851756 189.36 
L 255.913404 189.36 
z
" style="fill:#006400;opacity:0.4;stroke:#000000;stroke-linejoin:miter;"/>
   </g>
   <g id="patch_90">
    <path clip-path="url(#p64be589820)" d="M 260.851756 207.792 
L 265.790107 207.792 
L 265.790107 189.36 
L 260.851756 189.36 
z
" style="fill:#006400;opacity:0.4;stroke:#000000;stroke-linejoin:miter;"/>
   </g>
   <g id="patch_91">
    <path clip-path="url(#p64be589820)" d="M 265.790107 207.792 
L 270.728458 207.792 
L 270.728458 193.968 
L 265.790107 193.968 
z
" style="fill:#006400;opacity:0.4;stroke:#000000;stroke-linejoin:miter;"/>
   </g>
   <g id="patch_92">
    <path clip-path="url(#p64be589820)" d="M 270.728458 207.792 
L 275.666809 207.792 
L 275.666809 191.088 
L 270.728458 191.088 
z
" style="fill:#006400;opacity:0.4;stroke:#000000;stroke-linejoin:miter;"/>
   </g>
   <g id="patch_93">
    <path clip-path="url(#p64be589820)" d="M 275.666809 207.792 
L 280.60516 207.792 
L 280.60516 186.48 
L 275.666809 186.48 
z
" style="fill:#006400;opacity:0.4;stroke:#000000;stroke-linejoin:miter;"/>
   </g>
   <g id="patch_94">
    <path clip-path="url(#p64be589820)" d="M 280.60516 207.792 
L 285.543511 207.792 
L 285.543511 189.936 
L 280.60516 189.936 
z
" style="fill:#006400;opacity:0.4;stroke:#000000;stroke-linejoin:miter;"/>
   </g>
   <g id="patch_95">
    <path clip-path="url(#p64be589820)" d="M 285.543511 207.792 
L 290.481862 207.792 
L 290.481862 191.664 
L 285.543511 191.664 
z
" style="fill:#006400;opacity:0.4;stroke:#000000;stroke-linejoin:miter;"/>
   </g>
   <g id="patch_96">
    <path clip-path="url(#p64be589820)" d="M 290.481862 207.792 
L 295.420213 207.792 
L 295.420213 182.448 
L 290.481862 182.448 
z
" style="fill:#006400;opacity:0.4;stroke:#000000;stroke-linejoin:miter;"/>
   </g>
   <g id="patch_97">
    <path clip-path="url(#p64be589820)" d="M 295.420213 207.792 
L 300.358564 207.792 
L 300.358564 192.24 
L 295.420213 192.24 
z
" style="fill:#006400;opacity:0.4;stroke:#000000;stroke-linejoin:miter;"/>
   </g>
   <g id="patch_98">
    <path clip-path="url(#p64be589820)" d="M 300.358564 207.792 
L 305.296916 207.792 
L 305.296916 193.392 
L 300.358564 193.392 
z
" style="fill:#006400;opacity:0.4;stroke:#000000;stroke-linejoin:miter;"/>
   </g>
   <g id="patch_99">
    <path clip-path="url(#p64be589820)" d="M 305.296916 207.792 
L 310.235267 207.792 
L 310.235267 181.872 
L 305.296916 181.872 
z
" style="fill:#006400;opacity:0.4;stroke:#000000;stroke-linejoin:miter;"/>
   </g>
   <g id="patch_100">
    <path clip-path="url(#p64be589820)" d="M 310.235267 207.792 
L 315.173618 207.792 
L 315.173618 183.6 
L 310.235267 183.6 
z
" style="fill:#006400;opacity:0.4;stroke:#000000;stroke-linejoin:miter;"/>
   </g>
   <g id="patch_101">
    <path clip-path="url(#p64be589820)" d="M 315.173618 207.792 
L 320.111969 207.792 
L 320.111969 180.72 
L 315.173618 180.72 
z
" style="fill:#006400;opacity:0.4;stroke:#000000;stroke-linejoin:miter;"/>
   </g>
   <g id="patch_102">
    <path clip-path="url(#p64be589820)" d="M 320.111969 207.792 
L 325.05032 207.792 
L 325.05032 184.752 
L 320.111969 184.752 
z
" style="fill:#006400;opacity:0.4;stroke:#000000;stroke-linejoin:miter;"/>
   </g>
   <g id="patch_103">
    <path clip-path="url(#p64be589820)" d="M 325.05032 207.792 
L 329.988671 207.792 
L 329.988671 184.752 
L 325.05032 184.752 
z
" style="fill:#006400;opacity:0.4;stroke:#000000;stroke-linejoin:miter;"/>
   </g>
   <g id="patch_104">
    <path clip-path="url(#p64be589820)" d="M 329.988671 207.792 
L 334.927022 207.792 
L 334.927022 195.696 
L 329.988671 195.696 
z
" style="fill:#006400;opacity:0.4;stroke:#000000;stroke-linejoin:miter;"/>
   </g>
   <g id="patch_105">
    <path clip-path="url(#p64be589820)" d="M 334.927022 207.792 
L 339.865373 207.792 
L 339.865373 200.88 
L 334.927022 200.88 
z
" style="fill:#006400;opacity:0.4;stroke:#000000;stroke-linejoin:miter;"/>
   </g>
   <g id="patch_106">
    <path clip-path="url(#p64be589820)" d="M 339.865373 207.792 
L 344.803724 207.792 
L 344.803724 202.608 
L 339.865373 202.608 
z
" style="fill:#006400;opacity:0.4;stroke:#000000;stroke-linejoin:miter;"/>
   </g>
   <g id="patch_107">
    <path clip-path="url(#p64be589820)" d="M 344.803724 207.792 
L 349.742076 207.792 
L 349.742076 204.336 
L 344.803724 204.336 
z
" style="fill:#006400;opacity:0.4;stroke:#000000;stroke-linejoin:miter;"/>
   </g>
   <g id="patch_108">
    <path clip-path="url(#p64be589820)" d="M 349.742076 207.792 
L 354.680427 207.792 
L 354.680427 207.216 
L 349.742076 207.216 
z
" style="fill:#006400;opacity:0.4;stroke:#000000;stroke-linejoin:miter;"/>
   </g>
   <g id="patch_109">
    <path clip-path="url(#p64be589820)" d="M 354.680427 207.792 
L 359.618778 207.792 
L 359.618778 207.216 
L 354.680427 207.216 
z
" style="fill:#006400;opacity:0.4;stroke:#000000;stroke-linejoin:miter;"/>
   </g>
   <g id="matplotlib.axis_3">
    <g id="xtick_6">
     <g id="line2d_9">
      <g>
       <use style="stroke:#000000;stroke-width:0.8;" x="85.549975" xlink:href="#m158460b4f2" y="207.792"/>
      </g>
     </g>
     <g id="text_10">
      <!-- −1.0 -->
      <g transform="translate(73.408569 222.390437)scale(0.1 -0.1)">
       <use xlink:href="#DejaVuSans-8722"/>
       <use x="83.789062" xlink:href="#DejaVuSans-49"/>
       <use x="147.412109" xlink:href="#DejaVuSans-46"/>
       <use x="179.199219" xlink:href="#DejaVuSans-48"/>
      </g>
     </g>
    </g>
    <g id="xtick_7">
     <g id="line2d_10">
      <g>
       <use style="stroke:#000000;stroke-width:0.8;" x="158.480331" xlink:href="#m158460b4f2" y="207.792"/>
      </g>
     </g>
     <g id="text_11">
      <!-- −0.5 -->
      <g transform="translate(146.338925 222.390437)scale(0.1 -0.1)">
       <use xlink:href="#DejaVuSans-8722"/>
       <use x="83.789062" xlink:href="#DejaVuSans-48"/>
       <use x="147.412109" xlink:href="#DejaVuSans-46"/>
       <use x="179.199219" xlink:href="#DejaVuSans-53"/>
      </g>
     </g>
    </g>
    <g id="xtick_8">
     <g id="line2d_11">
      <g>
       <use style="stroke:#000000;stroke-width:0.8;" x="231.410687" xlink:href="#m158460b4f2" y="207.792"/>
      </g>
     </g>
     <g id="text_12">
      <!-- 0.0 -->
      <g transform="translate(223.459124 222.390437)scale(0.1 -0.1)">
       <use xlink:href="#DejaVuSans-48"/>
       <use x="63.623047" xlink:href="#DejaVuSans-46"/>
       <use x="95.410156" xlink:href="#DejaVuSans-48"/>
      </g>
     </g>
    </g>
    <g id="xtick_9">
     <g id="line2d_12">
      <g>
       <use style="stroke:#000000;stroke-width:0.8;" x="304.341043" xlink:href="#m158460b4f2" y="207.792"/>
      </g>
     </g>
     <g id="text_13">
      <!-- 0.5 -->
      <g transform="translate(296.389481 222.390437)scale(0.1 -0.1)">
       <use xlink:href="#DejaVuSans-48"/>
       <use x="63.623047" xlink:href="#DejaVuSans-46"/>
       <use x="95.410156" xlink:href="#DejaVuSans-53"/>
      </g>
     </g>
    </g>
    <g id="xtick_10">
     <g id="line2d_13">
      <g>
       <use style="stroke:#000000;stroke-width:0.8;" x="377.271399" xlink:href="#m158460b4f2" y="207.792"/>
      </g>
     </g>
     <g id="text_14">
      <!-- 1.0 -->
      <g transform="translate(369.319837 222.390437)scale(0.1 -0.1)">
       <use xlink:href="#DejaVuSans-49"/>
       <use x="63.623047" xlink:href="#DejaVuSans-46"/>
       <use x="95.410156" xlink:href="#DejaVuSans-48"/>
      </g>
     </g>
    </g>
   </g>
   <g id="matplotlib.axis_4">
    <g id="ytick_3">
     <g id="line2d_14">
      <g>
       <use style="stroke:#000000;stroke-width:0.8;" x="57.6" xlink:href="#m439e240607" y="207.792"/>
      </g>
     </g>
     <g id="text_15">
      <!-- 0 -->
      <g transform="translate(44.2375 211.591219)scale(0.1 -0.1)">
       <use xlink:href="#DejaVuSans-48"/>
      </g>
     </g>
    </g>
    <g id="ytick_4">
     <g id="line2d_15">
      <g>
       <use style="stroke:#000000;stroke-width:0.8;" x="57.6" xlink:href="#m439e240607" y="172.767459"/>
      </g>
     </g>
     <g id="text_16">
      <!-- 1 -->
      <g transform="translate(44.2375 176.566678)scale(0.1 -0.1)">
       <use xlink:href="#DejaVuSans-49"/>
      </g>
     </g>
    </g>
    <g id="text_17">
     <!-- Density -->
     <g transform="translate(38.157812 193.536594)rotate(-90)scale(0.1 -0.1)">
      <use xlink:href="#DejaVuSans-68"/>
      <use x="77.001953" xlink:href="#DejaVuSans-101"/>
      <use x="138.525391" xlink:href="#DejaVuSans-110"/>
      <use x="201.904297" xlink:href="#DejaVuSans-115"/>
      <use x="254.003906" xlink:href="#DejaVuSans-105"/>
      <use x="281.787109" xlink:href="#DejaVuSans-116"/>
      <use x="320.996094" xlink:href="#DejaVuSans-121"/>
     </g>
    </g>
   </g>
   <g id="line2d_16">
    <path clip-path="url(#p64be589820)" d="M 73.832727 207.783596 
L 77.112066 207.772592 
L 80.391405 207.749703 
L 83.670744 207.704952 
L 86.950083 207.622698 
L 90.229421 207.48052 
L 93.50876 207.249293 
L 96.788099 206.895229 
L 100.067438 206.384237 
L 103.346777 205.688111 
L 106.626116 204.791013 
L 109.905455 203.694068 
L 113.184793 202.416142 
L 116.464132 200.990279 
L 119.743471 199.45725 
L 123.02281 197.859289 
L 126.302149 196.237185 
L 129.581488 194.632092 
L 132.860826 193.090488 
L 136.140165 191.66819 
L 139.419504 190.428932 
L 142.698843 189.435304 
L 145.978182 188.733856 
L 149.257521 188.339789 
L 152.53686 188.227889 
L 155.816198 188.334333 
L 159.095537 188.569719 
L 162.374876 188.839139 
L 165.654215 189.062441 
L 168.933554 189.187955 
L 172.212893 189.195719 
L 175.492231 189.090271 
L 178.77157 188.886824 
L 182.050909 188.59658 
L 185.330248 188.216436 
L 188.609587 187.725655 
L 191.888926 187.08869 
L 195.168264 186.26106 
L 198.447603 185.195332 
L 201.726942 183.846614 
L 205.006281 182.17974 
L 208.28562 180.181216 
L 211.564959 177.876694 
L 214.844298 175.349952 
L 218.123636 172.754938 
L 221.402975 170.311409 
L 224.682314 168.278784 
L 227.961653 166.910905 
L 231.240992 166.40298 
L 234.520331 166.846755 
L 237.799669 168.20841 
L 241.079008 170.336065 
L 244.358347 172.993595 
L 247.637686 175.909069 
L 250.917025 178.822961 
L 254.196364 181.523971 
L 257.475702 183.866818 
L 260.755041 185.773314 
L 264.03438 187.22251 
L 267.313719 188.236566 
L 270.593058 188.867031 
L 273.872397 189.183144 
L 277.151736 189.261587 
L 280.431074 189.176599 
L 283.710413 188.990492 
L 286.989752 188.746293 
L 290.269091 188.465257 
L 293.54843 188.151328 
L 296.827769 187.802387 
L 300.107107 187.425119 
L 303.386446 187.048272 
L 306.665785 186.729006 
L 309.945124 186.549274 
L 313.224463 186.60269 
L 316.503802 186.975576 
L 319.78314 187.727608 
L 323.062479 188.877333 
L 326.341818 190.39616 
L 329.621157 192.212009 
L 332.900496 194.221266 
L 336.179835 196.305749 
L 339.459174 198.350438 
L 342.738512 200.25807 
L 346.017851 201.958182 
L 349.29719 203.410058 
L 352.576529 204.600677 
L 355.855868 205.539464 
L 359.135207 206.251672 
L 362.414545 206.771721 
L 365.693884 207.137331 
L 368.973223 207.384947 
L 372.252562 207.546654 
L 375.531901 207.648612 
L 378.81124 207.71076 
L 382.090579 207.747417 
L 385.369917 207.768342 
L 388.649256 207.779892 
L 391.928595 207.786041 
L 395.207934 207.78919 
L 398.487273 207.790734 
" style="fill:none;stroke:#006400;stroke-linecap:square;stroke-width:4;"/>
   </g>
   <g id="patch_110">
    <path d="M 57.6 207.792 
L 57.6 141.264 
" style="fill:none;stroke:#000000;stroke-linecap:square;stroke-linejoin:miter;stroke-width:0.8;"/>
   </g>
   <g id="patch_111">
    <path d="M 414.72 207.792 
L 414.72 141.264 
" style="fill:none;stroke:#000000;stroke-linecap:square;stroke-linejoin:miter;stroke-width:0.8;"/>
   </g>
   <g id="patch_112">
    <path d="M 57.6 207.792 
L 414.72 207.792 
" style="fill:none;stroke:#000000;stroke-linecap:square;stroke-linejoin:miter;stroke-width:0.8;"/>
   </g>
   <g id="patch_113">
    <path d="M 57.6 141.264 
L 414.72 141.264 
" style="fill:none;stroke:#000000;stroke-linecap:square;stroke-linejoin:miter;stroke-width:0.8;"/>
   </g>
   <g id="legend_2">
    <g id="patch_114">
     <path d="M 369.80125 163.942125 
L 407.72 163.942125 
Q 409.72 163.942125 409.72 161.942125 
L 409.72 148.264 
Q 409.72 146.264 407.72 146.264 
L 369.80125 146.264 
Q 367.80125 146.264 367.80125 148.264 
L 367.80125 161.942125 
Q 367.80125 163.942125 369.80125 163.942125 
z
" style="fill:#ffffff;opacity:0.8;stroke:#cccccc;stroke-linejoin:miter;"/>
    </g>
    <g id="patch_115">
     <path d="M 371.80125 157.862437 
L 391.80125 157.862437 
L 391.80125 150.862437 
L 371.80125 150.862437 
z
" style="fill:#006400;opacity:0.4;stroke:#000000;stroke-linejoin:miter;"/>
    </g>
    <g id="text_18">
     <!-- y -->
     <g transform="translate(399.80125 157.862437)scale(0.1 -0.1)">
      <use xlink:href="#DejaVuSans-121"/>
     </g>
    </g>
   </g>
  </g>
  <g id="axes_3">
   <g id="patch_116">
    <path d="M 57.6 307.584 
L 414.72 307.584 
L 414.72 241.056 
L 57.6 241.056 
z
" style="fill:#ffffff;"/>
   </g>
   <g id="patch_117">
    <path clip-path="url(#p368ec2bd8f)" d="M 112.097151 307.584 
L 117.059665 307.584 
L 117.059665 304.566857 
L 112.097151 304.566857 
z
" style="fill:#8b0000;opacity:0.4;stroke:#000000;stroke-linejoin:miter;"/>
   </g>
   <g id="patch_118">
    <path clip-path="url(#p368ec2bd8f)" d="M 117.059665 307.584 
L 122.022179 307.584 
L 122.022179 301.549714 
L 117.059665 301.549714 
z
" style="fill:#8b0000;opacity:0.4;stroke:#000000;stroke-linejoin:miter;"/>
   </g>
   <g id="patch_119">
    <path clip-path="url(#p368ec2bd8f)" d="M 122.022179 307.584 
L 126.984693 307.584 
L 126.984693 303.058286 
L 122.022179 303.058286 
z
" style="fill:#8b0000;opacity:0.4;stroke:#000000;stroke-linejoin:miter;"/>
   </g>
   <g id="patch_120">
    <path clip-path="url(#p368ec2bd8f)" d="M 126.984693 307.584 
L 131.947207 307.584 
L 131.947207 287.972571 
L 126.984693 287.972571 
z
" style="fill:#8b0000;opacity:0.4;stroke:#000000;stroke-linejoin:miter;"/>
   </g>
   <g id="patch_121">
    <path clip-path="url(#p368ec2bd8f)" d="M 131.947207 307.584 
L 136.909721 307.584 
L 136.909721 290.989714 
L 131.947207 290.989714 
z
" style="fill:#8b0000;opacity:0.4;stroke:#000000;stroke-linejoin:miter;"/>
   </g>
   <g id="patch_122">
    <path clip-path="url(#p368ec2bd8f)" d="M 136.909721 307.584 
L 141.872235 307.584 
L 141.872235 290.989714 
L 136.909721 290.989714 
z
" style="fill:#8b0000;opacity:0.4;stroke:#000000;stroke-linejoin:miter;"/>
   </g>
   <g id="patch_123">
    <path clip-path="url(#p368ec2bd8f)" d="M 141.872235 307.584 
L 146.834749 307.584 
L 146.834749 287.972571 
L 141.872235 287.972571 
z
" style="fill:#8b0000;opacity:0.4;stroke:#000000;stroke-linejoin:miter;"/>
   </g>
   <g id="patch_124">
    <path clip-path="url(#p368ec2bd8f)" d="M 146.834749 307.584 
L 151.797263 307.584 
L 151.797263 284.201143 
L 146.834749 284.201143 
z
" style="fill:#8b0000;opacity:0.4;stroke:#000000;stroke-linejoin:miter;"/>
   </g>
   <g id="patch_125">
    <path clip-path="url(#p368ec2bd8f)" d="M 151.797263 307.584 
L 156.759777 307.584 
L 156.759777 287.218286 
L 151.797263 287.218286 
z
" style="fill:#8b0000;opacity:0.4;stroke:#000000;stroke-linejoin:miter;"/>
   </g>
   <g id="patch_126">
    <path clip-path="url(#p368ec2bd8f)" d="M 156.759777 307.584 
L 161.722291 307.584 
L 161.722291 287.218286 
L 156.759777 287.218286 
z
" style="fill:#8b0000;opacity:0.4;stroke:#000000;stroke-linejoin:miter;"/>
   </g>
   <g id="patch_127">
    <path clip-path="url(#p368ec2bd8f)" d="M 161.722291 307.584 
L 166.684805 307.584 
L 166.684805 274.395429 
L 161.722291 274.395429 
z
" style="fill:#8b0000;opacity:0.4;stroke:#000000;stroke-linejoin:miter;"/>
   </g>
   <g id="patch_128">
    <path clip-path="url(#p368ec2bd8f)" d="M 166.684805 307.584 
L 171.647319 307.584 
L 171.647319 281.938286 
L 166.684805 281.938286 
z
" style="fill:#8b0000;opacity:0.4;stroke:#000000;stroke-linejoin:miter;"/>
   </g>
   <g id="patch_129">
    <path clip-path="url(#p368ec2bd8f)" d="M 171.647319 307.584 
L 176.609833 307.584 
L 176.609833 258.555429 
L 171.647319 258.555429 
z
" style="fill:#8b0000;opacity:0.4;stroke:#000000;stroke-linejoin:miter;"/>
   </g>
   <g id="patch_130">
    <path clip-path="url(#p368ec2bd8f)" d="M 176.609833 307.584 
L 181.572347 307.584 
L 181.572347 255.538286 
L 176.609833 255.538286 
z
" style="fill:#8b0000;opacity:0.4;stroke:#000000;stroke-linejoin:miter;"/>
   </g>
   <g id="patch_131">
    <path clip-path="url(#p368ec2bd8f)" d="M 181.572347 307.584 
L 186.534861 307.584 
L 186.534861 276.658286 
L 181.572347 276.658286 
z
" style="fill:#8b0000;opacity:0.4;stroke:#000000;stroke-linejoin:miter;"/>
   </g>
   <g id="patch_132">
    <path clip-path="url(#p368ec2bd8f)" d="M 186.534861 307.584 
L 191.497375 307.584 
L 191.497375 287.218286 
L 186.534861 287.218286 
z
" style="fill:#8b0000;opacity:0.4;stroke:#000000;stroke-linejoin:miter;"/>
   </g>
   <g id="patch_133">
    <path clip-path="url(#p368ec2bd8f)" d="M 191.497375 307.584 
L 196.459888 307.584 
L 196.459888 284.955429 
L 191.497375 284.955429 
z
" style="fill:#8b0000;opacity:0.4;stroke:#000000;stroke-linejoin:miter;"/>
   </g>
   <g id="patch_134">
    <path clip-path="url(#p368ec2bd8f)" d="M 196.459888 307.584 
L 201.422402 307.584 
L 201.422402 277.412571 
L 196.459888 277.412571 
z
" style="fill:#8b0000;opacity:0.4;stroke:#000000;stroke-linejoin:miter;"/>
   </g>
   <g id="patch_135">
    <path clip-path="url(#p368ec2bd8f)" d="M 201.422402 307.584 
L 206.384916 307.584 
L 206.384916 281.938286 
L 201.422402 281.938286 
z
" style="fill:#8b0000;opacity:0.4;stroke:#000000;stroke-linejoin:miter;"/>
   </g>
   <g id="patch_136">
    <path clip-path="url(#p368ec2bd8f)" d="M 206.384916 307.584 
L 211.34743 307.584 
L 211.34743 272.886857 
L 206.384916 272.886857 
z
" style="fill:#8b0000;opacity:0.4;stroke:#000000;stroke-linejoin:miter;"/>
   </g>
   <g id="patch_137">
    <path clip-path="url(#p368ec2bd8f)" d="M 211.34743 307.584 
L 216.309944 307.584 
L 216.309944 273.641143 
L 211.34743 273.641143 
z
" style="fill:#8b0000;opacity:0.4;stroke:#000000;stroke-linejoin:miter;"/>
   </g>
   <g id="patch_138">
    <path clip-path="url(#p368ec2bd8f)" d="M 216.309944 307.584 
L 221.272458 307.584 
L 221.272458 273.641143 
L 216.309944 273.641143 
z
" style="fill:#8b0000;opacity:0.4;stroke:#000000;stroke-linejoin:miter;"/>
   </g>
   <g id="patch_139">
    <path clip-path="url(#p368ec2bd8f)" d="M 221.272458 307.584 
L 226.234972 307.584 
L 226.234972 274.395429 
L 221.272458 274.395429 
z
" style="fill:#8b0000;opacity:0.4;stroke:#000000;stroke-linejoin:miter;"/>
   </g>
   <g id="patch_140">
    <path clip-path="url(#p368ec2bd8f)" d="M 226.234972 307.584 
L 231.197486 307.584 
L 231.197486 266.852571 
L 226.234972 266.852571 
z
" style="fill:#8b0000;opacity:0.4;stroke:#000000;stroke-linejoin:miter;"/>
   </g>
   <g id="patch_141">
    <path clip-path="url(#p368ec2bd8f)" d="M 231.197486 307.584 
L 236.16 307.584 
L 236.16 244.224 
L 231.197486 244.224 
z
" style="fill:#8b0000;opacity:0.4;stroke:#000000;stroke-linejoin:miter;"/>
   </g>
   <g id="patch_142">
    <path clip-path="url(#p368ec2bd8f)" d="M 236.16 307.584 
L 241.122514 307.584 
L 241.122514 244.978286 
L 236.16 244.978286 
z
" style="fill:#8b0000;opacity:0.4;stroke:#000000;stroke-linejoin:miter;"/>
   </g>
   <g id="patch_143">
    <path clip-path="url(#p368ec2bd8f)" d="M 241.122514 307.584 
L 246.085028 307.584 
L 246.085028 247.995429 
L 241.122514 247.995429 
z
" style="fill:#8b0000;opacity:0.4;stroke:#000000;stroke-linejoin:miter;"/>
   </g>
   <g id="patch_144">
    <path clip-path="url(#p368ec2bd8f)" d="M 246.085028 307.584 
L 251.047542 307.584 
L 251.047542 273.641143 
L 246.085028 273.641143 
z
" style="fill:#8b0000;opacity:0.4;stroke:#000000;stroke-linejoin:miter;"/>
   </g>
   <g id="patch_145">
    <path clip-path="url(#p368ec2bd8f)" d="M 251.047542 307.584 
L 256.010056 307.584 
L 256.010056 280.429714 
L 251.047542 280.429714 
z
" style="fill:#8b0000;opacity:0.4;stroke:#000000;stroke-linejoin:miter;"/>
   </g>
   <g id="patch_146">
    <path clip-path="url(#p368ec2bd8f)" d="M 256.010056 307.584 
L 260.97257 307.584 
L 260.97257 264.589714 
L 256.010056 264.589714 
z
" style="fill:#8b0000;opacity:0.4;stroke:#000000;stroke-linejoin:miter;"/>
   </g>
   <g id="patch_147">
    <path clip-path="url(#p368ec2bd8f)" d="M 260.97257 307.584 
L 265.935084 307.584 
L 265.935084 284.201143 
L 260.97257 284.201143 
z
" style="fill:#8b0000;opacity:0.4;stroke:#000000;stroke-linejoin:miter;"/>
   </g>
   <g id="patch_148">
    <path clip-path="url(#p368ec2bd8f)" d="M 265.935084 307.584 
L 270.897598 307.584 
L 270.897598 286.464 
L 265.935084 286.464 
z
" style="fill:#8b0000;opacity:0.4;stroke:#000000;stroke-linejoin:miter;"/>
   </g>
   <g id="patch_149">
    <path clip-path="url(#p368ec2bd8f)" d="M 270.897598 307.584 
L 275.860112 307.584 
L 275.860112 268.361143 
L 270.897598 268.361143 
z
" style="fill:#8b0000;opacity:0.4;stroke:#000000;stroke-linejoin:miter;"/>
   </g>
   <g id="patch_150">
    <path clip-path="url(#p368ec2bd8f)" d="M 275.860112 307.584 
L 280.822625 307.584 
L 280.822625 275.149714 
L 275.860112 275.149714 
z
" style="fill:#8b0000;opacity:0.4;stroke:#000000;stroke-linejoin:miter;"/>
   </g>
   <g id="patch_151">
    <path clip-path="url(#p368ec2bd8f)" d="M 280.822625 307.584 
L 285.785139 307.584 
L 285.785139 274.395429 
L 280.822625 274.395429 
z
" style="fill:#8b0000;opacity:0.4;stroke:#000000;stroke-linejoin:miter;"/>
   </g>
   <g id="patch_152">
    <path clip-path="url(#p368ec2bd8f)" d="M 285.785139 307.584 
L 290.747653 307.584 
L 290.747653 283.446857 
L 285.785139 283.446857 
z
" style="fill:#8b0000;opacity:0.4;stroke:#000000;stroke-linejoin:miter;"/>
   </g>
   <g id="patch_153">
    <path clip-path="url(#p368ec2bd8f)" d="M 290.747653 307.584 
L 295.710167 307.584 
L 295.710167 272.132571 
L 290.747653 272.132571 
z
" style="fill:#8b0000;opacity:0.4;stroke:#000000;stroke-linejoin:miter;"/>
   </g>
   <g id="patch_154">
    <path clip-path="url(#p368ec2bd8f)" d="M 295.710167 307.584 
L 300.672681 307.584 
L 300.672681 279.675429 
L 295.710167 279.675429 
z
" style="fill:#8b0000;opacity:0.4;stroke:#000000;stroke-linejoin:miter;"/>
   </g>
   <g id="patch_155">
    <path clip-path="url(#p368ec2bd8f)" d="M 300.672681 307.584 
L 305.635195 307.584 
L 305.635195 275.904 
L 300.672681 275.904 
z
" style="fill:#8b0000;opacity:0.4;stroke:#000000;stroke-linejoin:miter;"/>
   </g>
   <g id="patch_156">
    <path clip-path="url(#p368ec2bd8f)" d="M 305.635195 307.584 
L 310.597709 307.584 
L 310.597709 269.115429 
L 305.635195 269.115429 
z
" style="fill:#8b0000;opacity:0.4;stroke:#000000;stroke-linejoin:miter;"/>
   </g>
   <g id="patch_157">
    <path clip-path="url(#p368ec2bd8f)" d="M 310.597709 307.584 
L 315.560223 307.584 
L 315.560223 288.726857 
L 310.597709 288.726857 
z
" style="fill:#8b0000;opacity:0.4;stroke:#000000;stroke-linejoin:miter;"/>
   </g>
   <g id="patch_158">
    <path clip-path="url(#p368ec2bd8f)" d="M 315.560223 307.584 
L 320.522737 307.584 
L 320.522737 284.955429 
L 315.560223 284.955429 
z
" style="fill:#8b0000;opacity:0.4;stroke:#000000;stroke-linejoin:miter;"/>
   </g>
   <g id="patch_159">
    <path clip-path="url(#p368ec2bd8f)" d="M 320.522737 307.584 
L 325.485251 307.584 
L 325.485251 289.481143 
L 320.522737 289.481143 
z
" style="fill:#8b0000;opacity:0.4;stroke:#000000;stroke-linejoin:miter;"/>
   </g>
   <g id="patch_160">
    <path clip-path="url(#p368ec2bd8f)" d="M 325.485251 307.584 
L 330.447765 307.584 
L 330.447765 296.269714 
L 325.485251 296.269714 
z
" style="fill:#8b0000;opacity:0.4;stroke:#000000;stroke-linejoin:miter;"/>
   </g>
   <g id="patch_161">
    <path clip-path="url(#p368ec2bd8f)" d="M 330.447765 307.584 
L 335.410279 307.584 
L 335.410279 289.481143 
L 330.447765 289.481143 
z
" style="fill:#8b0000;opacity:0.4;stroke:#000000;stroke-linejoin:miter;"/>
   </g>
   <g id="patch_162">
    <path clip-path="url(#p368ec2bd8f)" d="M 335.410279 307.584 
L 340.372793 307.584 
L 340.372793 281.938286 
L 335.410279 281.938286 
z
" style="fill:#8b0000;opacity:0.4;stroke:#000000;stroke-linejoin:miter;"/>
   </g>
   <g id="patch_163">
    <path clip-path="url(#p368ec2bd8f)" d="M 340.372793 307.584 
L 345.335307 307.584 
L 345.335307 293.252571 
L 340.372793 293.252571 
z
" style="fill:#8b0000;opacity:0.4;stroke:#000000;stroke-linejoin:miter;"/>
   </g>
   <g id="patch_164">
    <path clip-path="url(#p368ec2bd8f)" d="M 345.335307 307.584 
L 350.297821 307.584 
L 350.297821 303.058286 
L 345.335307 303.058286 
z
" style="fill:#8b0000;opacity:0.4;stroke:#000000;stroke-linejoin:miter;"/>
   </g>
   <g id="patch_165">
    <path clip-path="url(#p368ec2bd8f)" d="M 350.297821 307.584 
L 355.260335 307.584 
L 355.260335 300.041143 
L 350.297821 300.041143 
z
" style="fill:#8b0000;opacity:0.4;stroke:#000000;stroke-linejoin:miter;"/>
   </g>
   <g id="patch_166">
    <path clip-path="url(#p368ec2bd8f)" d="M 355.260335 307.584 
L 360.222849 307.584 
L 360.222849 306.829714 
L 355.260335 306.829714 
z
" style="fill:#8b0000;opacity:0.4;stroke:#000000;stroke-linejoin:miter;"/>
   </g>
   <g id="matplotlib.axis_5">
    <g id="xtick_11">
     <g id="line2d_17">
      <g>
       <use style="stroke:#000000;stroke-width:0.8;" x="94.571905" xlink:href="#m158460b4f2" y="307.584"/>
      </g>
     </g>
     <g id="text_19">
      <!-- −1.0 -->
      <g transform="translate(82.430499 322.182437)scale(0.1 -0.1)">
       <use xlink:href="#DejaVuSans-8722"/>
       <use x="83.789062" xlink:href="#DejaVuSans-49"/>
       <use x="147.412109" xlink:href="#DejaVuSans-46"/>
       <use x="179.199219" xlink:href="#DejaVuSans-48"/>
      </g>
     </g>
    </g>
    <g id="xtick_12">
     <g id="line2d_18">
      <g>
       <use style="stroke:#000000;stroke-width:0.8;" x="165.345242" xlink:href="#m158460b4f2" y="307.584"/>
      </g>
     </g>
     <g id="text_20">
      <!-- −0.5 -->
      <g transform="translate(153.203836 322.182437)scale(0.1 -0.1)">
       <use xlink:href="#DejaVuSans-8722"/>
       <use x="83.789062" xlink:href="#DejaVuSans-48"/>
       <use x="147.412109" xlink:href="#DejaVuSans-46"/>
       <use x="179.199219" xlink:href="#DejaVuSans-53"/>
      </g>
     </g>
    </g>
    <g id="xtick_13">
     <g id="line2d_19">
      <g>
       <use style="stroke:#000000;stroke-width:0.8;" x="236.118579" xlink:href="#m158460b4f2" y="307.584"/>
      </g>
     </g>
     <g id="text_21">
      <!-- 0.0 -->
      <g transform="translate(228.167017 322.182437)scale(0.1 -0.1)">
       <use xlink:href="#DejaVuSans-48"/>
       <use x="63.623047" xlink:href="#DejaVuSans-46"/>
       <use x="95.410156" xlink:href="#DejaVuSans-48"/>
      </g>
     </g>
    </g>
    <g id="xtick_14">
     <g id="line2d_20">
      <g>
       <use style="stroke:#000000;stroke-width:0.8;" x="306.891916" xlink:href="#m158460b4f2" y="307.584"/>
      </g>
     </g>
     <g id="text_22">
      <!-- 0.5 -->
      <g transform="translate(298.940354 322.182437)scale(0.1 -0.1)">
       <use xlink:href="#DejaVuSans-48"/>
       <use x="63.623047" xlink:href="#DejaVuSans-46"/>
       <use x="95.410156" xlink:href="#DejaVuSans-53"/>
      </g>
     </g>
    </g>
    <g id="xtick_15">
     <g id="line2d_21">
      <g>
       <use style="stroke:#000000;stroke-width:0.8;" x="377.665253" xlink:href="#m158460b4f2" y="307.584"/>
      </g>
     </g>
     <g id="text_23">
      <!-- 1.0 -->
      <g transform="translate(369.713691 322.182437)scale(0.1 -0.1)">
       <use xlink:href="#DejaVuSans-49"/>
       <use x="63.623047" xlink:href="#DejaVuSans-46"/>
       <use x="95.410156" xlink:href="#DejaVuSans-48"/>
      </g>
     </g>
    </g>
    <g id="text_24">
     <!-- Position -->
     <defs>
      <path d="M 19.671875 64.796875 
L 19.671875 37.40625 
L 32.078125 37.40625 
Q 38.96875 37.40625 42.71875 40.96875 
Q 46.484375 44.53125 46.484375 51.125 
Q 46.484375 57.671875 42.71875 61.234375 
Q 38.96875 64.796875 32.078125 64.796875 
z
M 9.8125 72.90625 
L 32.078125 72.90625 
Q 44.34375 72.90625 50.609375 67.359375 
Q 56.890625 61.8125 56.890625 51.125 
Q 56.890625 40.328125 50.609375 34.8125 
Q 44.34375 29.296875 32.078125 29.296875 
L 19.671875 29.296875 
L 19.671875 0 
L 9.8125 0 
z
" id="DejaVuSans-80"/>
      <path d="M 30.609375 48.390625 
Q 23.390625 48.390625 19.1875 42.75 
Q 14.984375 37.109375 14.984375 27.296875 
Q 14.984375 17.484375 19.15625 11.84375 
Q 23.34375 6.203125 30.609375 6.203125 
Q 37.796875 6.203125 41.984375 11.859375 
Q 46.1875 17.53125 46.1875 27.296875 
Q 46.1875 37.015625 41.984375 42.703125 
Q 37.796875 48.390625 30.609375 48.390625 
z
M 30.609375 56 
Q 42.328125 56 49.015625 48.375 
Q 55.71875 40.765625 55.71875 27.296875 
Q 55.71875 13.875 49.015625 6.21875 
Q 42.328125 -1.421875 30.609375 -1.421875 
Q 18.84375 -1.421875 12.171875 6.21875 
Q 5.515625 13.875 5.515625 27.296875 
Q 5.515625 40.765625 12.171875 48.375 
Q 18.84375 56 30.609375 56 
z
" id="DejaVuSans-111"/>
     </defs>
     <g transform="translate(216.517031 335.860562)scale(0.1 -0.1)">
      <use xlink:href="#DejaVuSans-80"/>
      <use x="60.255859" xlink:href="#DejaVuSans-111"/>
      <use x="121.4375" xlink:href="#DejaVuSans-115"/>
      <use x="173.537109" xlink:href="#DejaVuSans-105"/>
      <use x="201.320312" xlink:href="#DejaVuSans-116"/>
      <use x="240.529297" xlink:href="#DejaVuSans-105"/>
      <use x="268.3125" xlink:href="#DejaVuSans-111"/>
      <use x="329.494141" xlink:href="#DejaVuSans-110"/>
     </g>
    </g>
   </g>
   <g id="matplotlib.axis_6">
    <g id="ytick_5">
     <g id="line2d_22">
      <g>
       <use style="stroke:#000000;stroke-width:0.8;" x="57.6" xlink:href="#m439e240607" y="307.584"/>
      </g>
     </g>
     <g id="text_25">
      <!-- 0.0 -->
      <g transform="translate(34.696875 311.383219)scale(0.1 -0.1)">
       <use xlink:href="#DejaVuSans-48"/>
       <use x="63.623047" xlink:href="#DejaVuSans-46"/>
       <use x="95.410156" xlink:href="#DejaVuSans-48"/>
      </g>
     </g>
    </g>
    <g id="ytick_6">
     <g id="line2d_23">
      <g>
       <use style="stroke:#000000;stroke-width:0.8;" x="57.6" xlink:href="#m439e240607" y="283.836697"/>
      </g>
     </g>
     <g id="text_26">
      <!-- 0.5 -->
      <g transform="translate(34.696875 287.635916)scale(0.1 -0.1)">
       <use xlink:href="#DejaVuSans-48"/>
       <use x="63.623047" xlink:href="#DejaVuSans-46"/>
       <use x="95.410156" xlink:href="#DejaVuSans-53"/>
      </g>
     </g>
    </g>
    <g id="ytick_7">
     <g id="line2d_24">
      <g>
       <use style="stroke:#000000;stroke-width:0.8;" x="57.6" xlink:href="#m439e240607" y="260.089394"/>
      </g>
     </g>
     <g id="text_27">
      <!-- 1.0 -->
      <g transform="translate(34.696875 263.888613)scale(0.1 -0.1)">
       <use xlink:href="#DejaVuSans-49"/>
       <use x="63.623047" xlink:href="#DejaVuSans-46"/>
       <use x="95.410156" xlink:href="#DejaVuSans-48"/>
      </g>
     </g>
    </g>
    <g id="text_28">
     <!-- Density -->
     <g transform="translate(28.617187 293.328594)rotate(-90)scale(0.1 -0.1)">
      <use xlink:href="#DejaVuSans-68"/>
      <use x="77.001953" xlink:href="#DejaVuSans-101"/>
      <use x="138.525391" xlink:href="#DejaVuSans-110"/>
      <use x="201.904297" xlink:href="#DejaVuSans-115"/>
      <use x="254.003906" xlink:href="#DejaVuSans-105"/>
      <use x="281.787109" xlink:href="#DejaVuSans-116"/>
      <use x="320.996094" xlink:href="#DejaVuSans-121"/>
     </g>
    </g>
   </g>
   <g id="line2d_25">
    <path clip-path="url(#p368ec2bd8f)" d="M 73.832727 307.57859 
L 77.112066 307.571524 
L 80.391405 307.556812 
L 83.670744 307.527928 
L 86.950083 307.474401 
L 90.229421 307.380619 
L 93.50876 307.225019 
L 96.788099 306.980083 
L 100.067438 306.613569 
L 103.346777 306.091248 
L 106.626116 305.38113 
L 109.905455 304.458839 
L 113.184793 303.313394 
L 116.464132 301.952228 
L 119.743471 300.403975 
L 123.02281 298.717528 
L 126.302149 296.956469 
L 129.581488 295.189127 
L 132.860826 293.475976 
L 136.140165 291.857198 
L 139.419504 290.343547 
L 142.698843 288.913097 
L 145.978182 287.515418 
L 149.257521 286.08356 
L 152.53686 284.552814 
L 155.816198 282.883461 
L 159.095537 281.082446 
L 162.374876 279.217075 
L 165.654215 277.413785 
L 168.933554 275.838005 
L 172.212893 274.657089 
L 175.492231 273.995378 
L 178.77157 273.895418 
L 182.050909 274.299184 
L 185.330248 275.05698 
L 188.609587 275.961602 
L 191.888926 276.795839 
L 195.168264 277.37686 
L 198.447603 277.583524 
L 201.726942 277.360626 
L 205.006281 276.703816 
L 208.28562 275.636127 
L 211.564959 274.189256 
L 214.844298 272.399411 
L 218.123636 270.319988 
L 221.402975 268.044455 
L 224.682314 265.725955 
L 227.961653 263.578904 
L 231.240992 261.853813 
L 234.520331 260.788035 
L 237.799669 260.547257 
L 241.079008 261.178895 
L 244.358347 262.595451 
L 247.637686 264.594247 
L 250.917025 266.905704 
L 254.196364 269.252599 
L 257.475702 271.40167 
L 260.755041 273.195575 
L 264.03438 274.562545 
L 267.313719 275.507972 
L 270.593058 276.094681 
L 273.872397 276.418 
L 277.151736 276.580696 
L 280.431074 276.672451 
L 283.710413 276.758204 
L 286.989752 276.877707 
L 290.269091 277.054955 
L 293.54843 277.312046 
L 296.827769 277.679966 
L 300.107107 278.200164 
L 303.386446 278.915297 
L 306.665785 279.853132 
L 309.945124 281.011496 
L 313.224463 282.352345 
L 316.503802 283.809282 
L 319.78314 285.306774 
L 323.062479 286.783894 
L 326.341818 288.213055 
L 329.621157 289.606057 
L 332.900496 291.004982 
L 336.179835 292.461678 
L 339.459174 294.014055 
L 342.738512 295.6683 
L 346.017851 297.393082 
L 349.29719 299.126609 
L 352.576529 300.792452 
L 355.855868 302.3176 
L 359.135207 303.646803 
L 362.414545 304.749963 
L 365.693884 305.622462 
L 368.973223 306.28041 
L 372.252562 306.753488 
L 375.531901 307.077647 
L 378.81124 307.289109 
L 382.090579 307.420258 
L 385.369917 307.49747 
L 388.649256 307.540554 
L 391.928595 307.563307 
L 395.207934 307.574663 
L 398.487273 307.580013 
" style="fill:none;stroke:#8b0000;stroke-linecap:square;stroke-width:4;"/>
   </g>
   <g id="patch_167">
    <path d="M 57.6 307.584 
L 57.6 241.056 
" style="fill:none;stroke:#000000;stroke-linecap:square;stroke-linejoin:miter;stroke-width:0.8;"/>
   </g>
   <g id="patch_168">
    <path d="M 414.72 307.584 
L 414.72 241.056 
" style="fill:none;stroke:#000000;stroke-linecap:square;stroke-linejoin:miter;stroke-width:0.8;"/>
   </g>
   <g id="patch_169">
    <path d="M 57.6 307.584 
L 414.72 307.584 
" style="fill:none;stroke:#000000;stroke-linecap:square;stroke-linejoin:miter;stroke-width:0.8;"/>
   </g>
   <g id="patch_170">
    <path d="M 57.6 241.056 
L 414.72 241.056 
" style="fill:none;stroke:#000000;stroke-linecap:square;stroke-linejoin:miter;stroke-width:0.8;"/>
   </g>
   <g id="legend_3">
    <g id="patch_171">
     <path d="M 370.471563 263.734125 
L 407.72 263.734125 
Q 409.72 263.734125 409.72 261.734125 
L 409.72 248.056 
Q 409.72 246.056 407.72 246.056 
L 370.471563 246.056 
Q 368.471563 246.056 368.471563 248.056 
L 368.471563 261.734125 
Q 368.471563 263.734125 370.471563 263.734125 
z
" style="fill:#ffffff;opacity:0.8;stroke:#cccccc;stroke-linejoin:miter;"/>
    </g>
    <g id="patch_172">
     <path d="M 372.471563 257.654437 
L 392.471563 257.654437 
L 392.471563 250.654437 
L 372.471563 250.654437 
z
" style="fill:#8b0000;opacity:0.4;stroke:#000000;stroke-linejoin:miter;"/>
    </g>
    <g id="text_29">
     <!-- z -->
     <defs>
      <path d="M 5.515625 54.6875 
L 48.1875 54.6875 
L 48.1875 46.484375 
L 14.40625 7.171875 
L 48.1875 7.171875 
L 48.1875 0 
L 4.296875 0 
L 4.296875 8.203125 
L 38.09375 47.515625 
L 5.515625 47.515625 
z
" id="DejaVuSans-122"/>
     </defs>
     <g transform="translate(400.471563 257.654437)scale(0.1 -0.1)">
      <use xlink:href="#DejaVuSans-122"/>
     </g>
    </g>
   </g>
  </g>
  <g id="text_30">
   <!-- Motif 1 Cu 1796 Histogram -->
   <defs>
    <path d="M 9.8125 72.90625 
L 24.515625 72.90625 
L 43.109375 23.296875 
L 61.8125 72.90625 
L 76.515625 72.90625 
L 76.515625 0 
L 66.890625 0 
L 66.890625 64.015625 
L 48.09375 14.015625 
L 38.1875 14.015625 
L 19.390625 64.015625 
L 19.390625 0 
L 9.8125 0 
z
" id="DejaVuSans-77"/>
    <path d="M 37.109375 75.984375 
L 37.109375 68.5 
L 28.515625 68.5 
Q 23.6875 68.5 21.796875 66.546875 
Q 19.921875 64.59375 19.921875 59.515625 
L 19.921875 54.6875 
L 34.71875 54.6875 
L 34.71875 47.703125 
L 19.921875 47.703125 
L 19.921875 0 
L 10.890625 0 
L 10.890625 47.703125 
L 2.296875 47.703125 
L 2.296875 54.6875 
L 10.890625 54.6875 
L 10.890625 58.5 
Q 10.890625 67.625 15.140625 71.796875 
Q 19.390625 75.984375 28.609375 75.984375 
z
" id="DejaVuSans-102"/>
    <path id="DejaVuSans-32"/>
    <path d="M 64.40625 67.28125 
L 64.40625 56.890625 
Q 59.421875 61.53125 53.78125 63.8125 
Q 48.140625 66.109375 41.796875 66.109375 
Q 29.296875 66.109375 22.65625 58.46875 
Q 16.015625 50.828125 16.015625 36.375 
Q 16.015625 21.96875 22.65625 14.328125 
Q 29.296875 6.6875 41.796875 6.6875 
Q 48.140625 6.6875 53.78125 8.984375 
Q 59.421875 11.28125 64.40625 15.921875 
L 64.40625 5.609375 
Q 59.234375 2.09375 53.4375 0.328125 
Q 47.65625 -1.421875 41.21875 -1.421875 
Q 24.65625 -1.421875 15.125 8.703125 
Q 5.609375 18.84375 5.609375 36.375 
Q 5.609375 53.953125 15.125 64.078125 
Q 24.65625 74.21875 41.21875 74.21875 
Q 47.75 74.21875 53.53125 72.484375 
Q 59.328125 70.75 64.40625 67.28125 
z
" id="DejaVuSans-67"/>
    <path d="M 8.5 21.578125 
L 8.5 54.6875 
L 17.484375 54.6875 
L 17.484375 21.921875 
Q 17.484375 14.15625 20.5 10.265625 
Q 23.53125 6.390625 29.59375 6.390625 
Q 36.859375 6.390625 41.078125 11.03125 
Q 45.3125 15.671875 45.3125 23.6875 
L 45.3125 54.6875 
L 54.296875 54.6875 
L 54.296875 0 
L 45.3125 0 
L 45.3125 8.40625 
Q 42.046875 3.421875 37.71875 1 
Q 33.40625 -1.421875 27.6875 -1.421875 
Q 18.265625 -1.421875 13.375 4.4375 
Q 8.5 10.296875 8.5 21.578125 
z
M 31.109375 56 
z
" id="DejaVuSans-117"/>
    <path d="M 8.203125 72.90625 
L 55.078125 72.90625 
L 55.078125 68.703125 
L 28.609375 0 
L 18.3125 0 
L 43.21875 64.59375 
L 8.203125 64.59375 
z
" id="DejaVuSans-55"/>
    <path d="M 10.984375 1.515625 
L 10.984375 10.5 
Q 14.703125 8.734375 18.5 7.8125 
Q 22.3125 6.890625 25.984375 6.890625 
Q 35.75 6.890625 40.890625 13.453125 
Q 46.046875 20.015625 46.78125 33.40625 
Q 43.953125 29.203125 39.59375 26.953125 
Q 35.25 24.703125 29.984375 24.703125 
Q 19.046875 24.703125 12.671875 31.3125 
Q 6.296875 37.9375 6.296875 49.421875 
Q 6.296875 60.640625 12.9375 67.421875 
Q 19.578125 74.21875 30.609375 74.21875 
Q 43.265625 74.21875 49.921875 64.515625 
Q 56.59375 54.828125 56.59375 36.375 
Q 56.59375 19.140625 48.40625 8.859375 
Q 40.234375 -1.421875 26.421875 -1.421875 
Q 22.703125 -1.421875 18.890625 -0.6875 
Q 15.09375 0.046875 10.984375 1.515625 
z
M 30.609375 32.421875 
Q 37.25 32.421875 41.125 36.953125 
Q 45.015625 41.5 45.015625 49.421875 
Q 45.015625 57.28125 41.125 61.84375 
Q 37.25 66.40625 30.609375 66.40625 
Q 23.96875 66.40625 20.09375 61.84375 
Q 16.21875 57.28125 16.21875 49.421875 
Q 16.21875 41.5 20.09375 36.953125 
Q 23.96875 32.421875 30.609375 32.421875 
z
" id="DejaVuSans-57"/>
    <path d="M 33.015625 40.375 
Q 26.375 40.375 22.484375 35.828125 
Q 18.609375 31.296875 18.609375 23.390625 
Q 18.609375 15.53125 22.484375 10.953125 
Q 26.375 6.390625 33.015625 6.390625 
Q 39.65625 6.390625 43.53125 10.953125 
Q 47.40625 15.53125 47.40625 23.390625 
Q 47.40625 31.296875 43.53125 35.828125 
Q 39.65625 40.375 33.015625 40.375 
z
M 52.59375 71.296875 
L 52.59375 62.3125 
Q 48.875 64.0625 45.09375 64.984375 
Q 41.3125 65.921875 37.59375 65.921875 
Q 27.828125 65.921875 22.671875 59.328125 
Q 17.53125 52.734375 16.796875 39.40625 
Q 19.671875 43.65625 24.015625 45.921875 
Q 28.375 48.1875 33.59375 48.1875 
Q 44.578125 48.1875 50.953125 41.515625 
Q 57.328125 34.859375 57.328125 23.390625 
Q 57.328125 12.15625 50.6875 5.359375 
Q 44.046875 -1.421875 33.015625 -1.421875 
Q 20.359375 -1.421875 13.671875 8.265625 
Q 6.984375 17.96875 6.984375 36.375 
Q 6.984375 53.65625 15.1875 63.9375 
Q 23.390625 74.21875 37.203125 74.21875 
Q 40.921875 74.21875 44.703125 73.484375 
Q 48.484375 72.75 52.59375 71.296875 
z
" id="DejaVuSans-54"/>
    <path d="M 9.8125 72.90625 
L 19.671875 72.90625 
L 19.671875 43.015625 
L 55.515625 43.015625 
L 55.515625 72.90625 
L 65.375 72.90625 
L 65.375 0 
L 55.515625 0 
L 55.515625 34.71875 
L 19.671875 34.71875 
L 19.671875 0 
L 9.8125 0 
z
" id="DejaVuSans-72"/>
    <path d="M 45.40625 27.984375 
Q 45.40625 37.75 41.375 43.109375 
Q 37.359375 48.484375 30.078125 48.484375 
Q 22.859375 48.484375 18.828125 43.109375 
Q 14.796875 37.75 14.796875 27.984375 
Q 14.796875 18.265625 18.828125 12.890625 
Q 22.859375 7.515625 30.078125 7.515625 
Q 37.359375 7.515625 41.375 12.890625 
Q 45.40625 18.265625 45.40625 27.984375 
z
M 54.390625 6.78125 
Q 54.390625 -7.171875 48.1875 -13.984375 
Q 42 -20.796875 29.203125 -20.796875 
Q 24.46875 -20.796875 20.265625 -20.09375 
Q 16.0625 -19.390625 12.109375 -17.921875 
L 12.109375 -9.1875 
Q 16.0625 -11.328125 19.921875 -12.34375 
Q 23.78125 -13.375 27.78125 -13.375 
Q 36.625 -13.375 41.015625 -8.765625 
Q 45.40625 -4.15625 45.40625 5.171875 
L 45.40625 9.625 
Q 42.625 4.78125 38.28125 2.390625 
Q 33.9375 0 27.875 0 
Q 17.828125 0 11.671875 7.65625 
Q 5.515625 15.328125 5.515625 27.984375 
Q 5.515625 40.671875 11.671875 48.328125 
Q 17.828125 56 27.875 56 
Q 33.9375 56 38.28125 53.609375 
Q 42.625 51.21875 45.40625 46.390625 
L 45.40625 54.6875 
L 54.390625 54.6875 
z
" id="DejaVuSans-103"/>
    <path d="M 41.109375 46.296875 
Q 39.59375 47.171875 37.8125 47.578125 
Q 36.03125 48 33.890625 48 
Q 26.265625 48 22.1875 43.046875 
Q 18.109375 38.09375 18.109375 28.8125 
L 18.109375 0 
L 9.078125 0 
L 9.078125 54.6875 
L 18.109375 54.6875 
L 18.109375 46.1875 
Q 20.953125 51.171875 25.484375 53.578125 
Q 30.03125 56 36.53125 56 
Q 37.453125 56 38.578125 55.875 
Q 39.703125 55.765625 41.0625 55.515625 
z
" id="DejaVuSans-114"/>
    <path d="M 34.28125 27.484375 
Q 23.390625 27.484375 19.1875 25 
Q 14.984375 22.515625 14.984375 16.5 
Q 14.984375 11.71875 18.140625 8.90625 
Q 21.296875 6.109375 26.703125 6.109375 
Q 34.1875 6.109375 38.703125 11.40625 
Q 43.21875 16.703125 43.21875 25.484375 
L 43.21875 27.484375 
z
M 52.203125 31.203125 
L 52.203125 0 
L 43.21875 0 
L 43.21875 8.296875 
Q 40.140625 3.328125 35.546875 0.953125 
Q 30.953125 -1.421875 24.3125 -1.421875 
Q 15.921875 -1.421875 10.953125 3.296875 
Q 6 8.015625 6 15.921875 
Q 6 25.140625 12.171875 29.828125 
Q 18.359375 34.515625 30.609375 34.515625 
L 43.21875 34.515625 
L 43.21875 35.40625 
Q 43.21875 41.609375 39.140625 45 
Q 35.0625 48.390625 27.6875 48.390625 
Q 23 48.390625 18.546875 47.265625 
Q 14.109375 46.140625 10.015625 43.890625 
L 10.015625 52.203125 
Q 14.9375 54.109375 19.578125 55.046875 
Q 24.21875 56 28.609375 56 
Q 40.484375 56 46.34375 49.84375 
Q 52.203125 43.703125 52.203125 31.203125 
z
" id="DejaVuSans-97"/>
    <path d="M 52 44.1875 
Q 55.375 50.25 60.0625 53.125 
Q 64.75 56 71.09375 56 
Q 79.640625 56 84.28125 50.015625 
Q 88.921875 44.046875 88.921875 33.015625 
L 88.921875 0 
L 79.890625 0 
L 79.890625 32.71875 
Q 79.890625 40.578125 77.09375 44.375 
Q 74.3125 48.1875 68.609375 48.1875 
Q 61.625 48.1875 57.5625 43.546875 
Q 53.515625 38.921875 53.515625 30.90625 
L 53.515625 0 
L 44.484375 0 
L 44.484375 32.71875 
Q 44.484375 40.625 41.703125 44.40625 
Q 38.921875 48.1875 33.109375 48.1875 
Q 26.21875 48.1875 22.15625 43.53125 
Q 18.109375 38.875 18.109375 30.90625 
L 18.109375 0 
L 9.078125 0 
L 9.078125 54.6875 
L 18.109375 54.6875 
L 18.109375 46.1875 
Q 21.1875 51.21875 25.484375 53.609375 
Q 29.78125 56 35.6875 56 
Q 41.65625 56 45.828125 52.96875 
Q 50 49.953125 52 44.1875 
z
" id="DejaVuSans-109"/>
   </defs>
   <g transform="translate(149.588437 16.030125)scale(0.12 -0.12)">
    <use xlink:href="#DejaVuSans-77"/>
    <use x="86.279297" xlink:href="#DejaVuSans-111"/>
    <use x="147.460938" xlink:href="#DejaVuSans-116"/>
    <use x="186.669922" xlink:href="#DejaVuSans-105"/>
    <use x="214.453125" xlink:href="#DejaVuSans-102"/>
    <use x="249.658203" xlink:href="#DejaVuSans-32"/>
    <use x="281.445312" xlink:href="#DejaVuSans-49"/>
    <use x="345.068359" xlink:href="#DejaVuSans-32"/>
    <use x="376.855469" xlink:href="#DejaVuSans-67"/>
    <use x="446.679688" xlink:href="#DejaVuSans-117"/>
    <use x="510.058594" xlink:href="#DejaVuSans-32"/>
    <use x="541.845703" xlink:href="#DejaVuSans-49"/>
    <use x="605.46875" xlink:href="#DejaVuSans-55"/>
    <use x="669.091797" xlink:href="#DejaVuSans-57"/>
    <use x="732.714844" xlink:href="#DejaVuSans-54"/>
    <use x="796.337891" xlink:href="#DejaVuSans-32"/>
    <use x="828.125" xlink:href="#DejaVuSans-72"/>
    <use x="903.320312" xlink:href="#DejaVuSans-105"/>
    <use x="931.103516" xlink:href="#DejaVuSans-115"/>
    <use x="983.203125" xlink:href="#DejaVuSans-116"/>
    <use x="1022.412109" xlink:href="#DejaVuSans-111"/>
    <use x="1083.59375" xlink:href="#DejaVuSans-103"/>
    <use x="1147.070312" xlink:href="#DejaVuSans-114"/>
    <use x="1188.183594" xlink:href="#DejaVuSans-97"/>
    <use x="1249.462891" xlink:href="#DejaVuSans-109"/>
   </g>
  </g>
 </g>
 <defs>
  <clipPath id="p599d570e39">
   <rect height="66.528" width="357.12" x="57.6" y="41.472"/>
  </clipPath>
  <clipPath id="p64be589820">
   <rect height="66.528" width="357.12" x="57.6" y="141.264"/>
  </clipPath>
  <clipPath id="p368ec2bd8f">
   <rect height="66.528" width="357.12" x="57.6" y="241.056"/>
  </clipPath>
 </defs>
</svg>
