<?xml version="1.0" encoding="utf-8" standalone="no"?>
<!DOCTYPE svg PUBLIC "-//W3C//DTD SVG 1.1//EN"
  "http://www.w3.org/Graphics/SVG/1.1/DTD/svg11.dtd">
<!-- Created with matplotlib (https://matplotlib.org/) -->
<svg height="345.6pt" version="1.1" viewBox="0 0 460.8 345.6" width="460.8pt" xmlns="http://www.w3.org/2000/svg" xmlns:xlink="http://www.w3.org/1999/xlink">
 <defs>
  <style type="text/css">
*{stroke-linecap:butt;stroke-linejoin:round;}
  </style>
 </defs>
 <g id="figure_1">
  <g id="patch_1">
   <path d="M 0 345.6 
L 460.8 345.6 
L 460.8 0 
L 0 0 
z
" style="fill:#ffffff;"/>
  </g>
  <g id="axes_1">
   <g id="patch_2">
    <path d="M 57.6 108 
L 414.72 108 
L 414.72 41.472 
L 57.6 41.472 
z
" style="fill:#ffffff;"/>
   </g>
   <g id="patch_3">
    <path clip-path="url(#p24d3be76d9)" d="M 116.320162 108 
L 121.113755 108 
L 121.113755 91.190204 
L 116.320162 91.190204 
z
" style="fill:#00008b;opacity:0.4;stroke:#000000;stroke-linejoin:miter;"/>
   </g>
   <g id="patch_4">
    <path clip-path="url(#p24d3be76d9)" d="M 121.113755 108 
L 125.907349 108 
L 125.907349 105.413878 
L 121.113755 105.413878 
z
" style="fill:#00008b;opacity:0.4;stroke:#000000;stroke-linejoin:miter;"/>
   </g>
   <g id="patch_5">
    <path clip-path="url(#p24d3be76d9)" d="M 125.907349 108 
L 130.700942 108 
L 130.700942 95.069388 
L 125.907349 95.069388 
z
" style="fill:#00008b;opacity:0.4;stroke:#000000;stroke-linejoin:miter;"/>
   </g>
   <g id="patch_6">
    <path clip-path="url(#p24d3be76d9)" d="M 130.700942 108 
L 135.494536 108 
L 135.494536 83.431837 
L 130.700942 83.431837 
z
" style="fill:#00008b;opacity:0.4;stroke:#000000;stroke-linejoin:miter;"/>
   </g>
   <g id="patch_7">
    <path clip-path="url(#p24d3be76d9)" d="M 135.494536 108 
L 140.288129 108 
L 140.288129 79.552653 
L 135.494536 79.552653 
z
" style="fill:#00008b;opacity:0.4;stroke:#000000;stroke-linejoin:miter;"/>
   </g>
   <g id="patch_8">
    <path clip-path="url(#p24d3be76d9)" d="M 140.288129 108 
L 145.081723 108 
L 145.081723 80.845714 
L 140.288129 80.845714 
z
" style="fill:#00008b;opacity:0.4;stroke:#000000;stroke-linejoin:miter;"/>
   </g>
   <g id="patch_9">
    <path clip-path="url(#p24d3be76d9)" d="M 145.081723 108 
L 149.875316 108 
L 149.875316 88.604082 
L 145.081723 88.604082 
z
" style="fill:#00008b;opacity:0.4;stroke:#000000;stroke-linejoin:miter;"/>
   </g>
   <g id="patch_10">
    <path clip-path="url(#p24d3be76d9)" d="M 149.875316 108 
L 154.66891 108 
L 154.66891 91.190204 
L 149.875316 91.190204 
z
" style="fill:#00008b;opacity:0.4;stroke:#000000;stroke-linejoin:miter;"/>
   </g>
   <g id="patch_11">
    <path clip-path="url(#p24d3be76d9)" d="M 154.66891 108 
L 159.462503 108 
L 159.462503 84.724898 
L 154.66891 84.724898 
z
" style="fill:#00008b;opacity:0.4;stroke:#000000;stroke-linejoin:miter;"/>
   </g>
   <g id="patch_12">
    <path clip-path="url(#p24d3be76d9)" d="M 159.462503 108 
L 164.256097 108 
L 164.256097 86.017959 
L 159.462503 86.017959 
z
" style="fill:#00008b;opacity:0.4;stroke:#000000;stroke-linejoin:miter;"/>
   </g>
   <g id="patch_13">
    <path clip-path="url(#p24d3be76d9)" d="M 164.256097 108 
L 169.049691 108 
L 169.049691 91.190204 
L 164.256097 91.190204 
z
" style="fill:#00008b;opacity:0.4;stroke:#000000;stroke-linejoin:miter;"/>
   </g>
   <g id="patch_14">
    <path clip-path="url(#p24d3be76d9)" d="M 169.049691 108 
L 173.843284 108 
L 173.843284 79.552653 
L 169.049691 79.552653 
z
" style="fill:#00008b;opacity:0.4;stroke:#000000;stroke-linejoin:miter;"/>
   </g>
   <g id="patch_15">
    <path clip-path="url(#p24d3be76d9)" d="M 173.843284 108 
L 178.636878 108 
L 178.636878 78.259592 
L 173.843284 78.259592 
z
" style="fill:#00008b;opacity:0.4;stroke:#000000;stroke-linejoin:miter;"/>
   </g>
   <g id="patch_16">
    <path clip-path="url(#p24d3be76d9)" d="M 178.636878 108 
L 183.430471 108 
L 183.430471 44.64 
L 178.636878 44.64 
z
" style="fill:#00008b;opacity:0.4;stroke:#000000;stroke-linejoin:miter;"/>
   </g>
   <g id="patch_17">
    <path clip-path="url(#p24d3be76d9)" d="M 183.430471 108 
L 188.224065 108 
L 188.224065 62.742857 
L 183.430471 62.742857 
z
" style="fill:#00008b;opacity:0.4;stroke:#000000;stroke-linejoin:miter;"/>
   </g>
   <g id="patch_18">
    <path clip-path="url(#p24d3be76d9)" d="M 188.224065 108 
L 193.017658 108 
L 193.017658 60.156735 
L 188.224065 60.156735 
z
" style="fill:#00008b;opacity:0.4;stroke:#000000;stroke-linejoin:miter;"/>
   </g>
   <g id="patch_19">
    <path clip-path="url(#p24d3be76d9)" d="M 193.017658 108 
L 197.811252 108 
L 197.811252 47.226122 
L 193.017658 47.226122 
z
" style="fill:#00008b;opacity:0.4;stroke:#000000;stroke-linejoin:miter;"/>
   </g>
   <g id="patch_20">
    <path clip-path="url(#p24d3be76d9)" d="M 197.811252 108 
L 202.604845 108 
L 202.604845 88.604082 
L 197.811252 88.604082 
z
" style="fill:#00008b;opacity:0.4;stroke:#000000;stroke-linejoin:miter;"/>
   </g>
   <g id="patch_21">
    <path clip-path="url(#p24d3be76d9)" d="M 202.604845 108 
L 207.398439 108 
L 207.398439 91.190204 
L 202.604845 91.190204 
z
" style="fill:#00008b;opacity:0.4;stroke:#000000;stroke-linejoin:miter;"/>
   </g>
   <g id="patch_22">
    <path clip-path="url(#p24d3be76d9)" d="M 207.398439 108 
L 212.192032 108 
L 212.192032 82.138776 
L 207.398439 82.138776 
z
" style="fill:#00008b;opacity:0.4;stroke:#000000;stroke-linejoin:miter;"/>
   </g>
   <g id="patch_23">
    <path clip-path="url(#p24d3be76d9)" d="M 212.192032 108 
L 216.985626 108 
L 216.985626 76.966531 
L 212.192032 76.966531 
z
" style="fill:#00008b;opacity:0.4;stroke:#000000;stroke-linejoin:miter;"/>
   </g>
   <g id="patch_24">
    <path clip-path="url(#p24d3be76d9)" d="M 216.985626 108 
L 221.779219 108 
L 221.779219 79.552653 
L 216.985626 79.552653 
z
" style="fill:#00008b;opacity:0.4;stroke:#000000;stroke-linejoin:miter;"/>
   </g>
   <g id="patch_25">
    <path clip-path="url(#p24d3be76d9)" d="M 221.779219 108 
L 226.572813 108 
L 226.572813 78.259592 
L 221.779219 78.259592 
z
" style="fill:#00008b;opacity:0.4;stroke:#000000;stroke-linejoin:miter;"/>
   </g>
   <g id="patch_26">
    <path clip-path="url(#p24d3be76d9)" d="M 226.572813 108 
L 231.366406 108 
L 231.366406 65.32898 
L 226.572813 65.32898 
z
" style="fill:#00008b;opacity:0.4;stroke:#000000;stroke-linejoin:miter;"/>
   </g>
   <g id="patch_27">
    <path clip-path="url(#p24d3be76d9)" d="M 231.366406 108 
L 236.16 108 
L 236.16 58.863673 
L 231.366406 58.863673 
z
" style="fill:#00008b;opacity:0.4;stroke:#000000;stroke-linejoin:miter;"/>
   </g>
   <g id="patch_28">
    <path clip-path="url(#p24d3be76d9)" d="M 236.16 108 
L 240.953594 108 
L 240.953594 49.812245 
L 236.16 49.812245 
z
" style="fill:#00008b;opacity:0.4;stroke:#000000;stroke-linejoin:miter;"/>
   </g>
   <g id="patch_29">
    <path clip-path="url(#p24d3be76d9)" d="M 240.953594 108 
L 245.747187 108 
L 245.747187 53.691429 
L 240.953594 53.691429 
z
" style="fill:#00008b;opacity:0.4;stroke:#000000;stroke-linejoin:miter;"/>
   </g>
   <g id="patch_30">
    <path clip-path="url(#p24d3be76d9)" d="M 245.747187 108 
L 250.540781 108 
L 250.540781 76.966531 
L 245.747187 76.966531 
z
" style="fill:#00008b;opacity:0.4;stroke:#000000;stroke-linejoin:miter;"/>
   </g>
   <g id="patch_31">
    <path clip-path="url(#p24d3be76d9)" d="M 250.540781 108 
L 255.334374 108 
L 255.334374 52.398367 
L 250.540781 52.398367 
z
" style="fill:#00008b;opacity:0.4;stroke:#000000;stroke-linejoin:miter;"/>
   </g>
   <g id="patch_32">
    <path clip-path="url(#p24d3be76d9)" d="M 255.334374 108 
L 260.127968 108 
L 260.127968 65.32898 
L 255.334374 65.32898 
z
" style="fill:#00008b;opacity:0.4;stroke:#000000;stroke-linejoin:miter;"/>
   </g>
   <g id="patch_33">
    <path clip-path="url(#p24d3be76d9)" d="M 260.127968 108 
L 264.921561 108 
L 264.921561 83.431837 
L 260.127968 83.431837 
z
" style="fill:#00008b;opacity:0.4;stroke:#000000;stroke-linejoin:miter;"/>
   </g>
   <g id="patch_34">
    <path clip-path="url(#p24d3be76d9)" d="M 264.921561 108 
L 269.715155 108 
L 269.715155 78.259592 
L 264.921561 78.259592 
z
" style="fill:#00008b;opacity:0.4;stroke:#000000;stroke-linejoin:miter;"/>
   </g>
   <g id="patch_35">
    <path clip-path="url(#p24d3be76d9)" d="M 269.715155 108 
L 274.508748 108 
L 274.508748 75.673469 
L 269.715155 75.673469 
z
" style="fill:#00008b;opacity:0.4;stroke:#000000;stroke-linejoin:miter;"/>
   </g>
   <g id="patch_36">
    <path clip-path="url(#p24d3be76d9)" d="M 274.508748 108 
L 279.302342 108 
L 279.302342 56.277551 
L 274.508748 56.277551 
z
" style="fill:#00008b;opacity:0.4;stroke:#000000;stroke-linejoin:miter;"/>
   </g>
   <g id="patch_37">
    <path clip-path="url(#p24d3be76d9)" d="M 279.302342 108 
L 284.095935 108 
L 284.095935 52.398367 
L 279.302342 52.398367 
z
" style="fill:#00008b;opacity:0.4;stroke:#000000;stroke-linejoin:miter;"/>
   </g>
   <g id="patch_38">
    <path clip-path="url(#p24d3be76d9)" d="M 284.095935 108 
L 288.889529 108 
L 288.889529 73.087347 
L 284.095935 73.087347 
z
" style="fill:#00008b;opacity:0.4;stroke:#000000;stroke-linejoin:miter;"/>
   </g>
   <g id="patch_39">
    <path clip-path="url(#p24d3be76d9)" d="M 288.889529 108 
L 293.683122 108 
L 293.683122 56.277551 
L 288.889529 56.277551 
z
" style="fill:#00008b;opacity:0.4;stroke:#000000;stroke-linejoin:miter;"/>
   </g>
   <g id="patch_40">
    <path clip-path="url(#p24d3be76d9)" d="M 293.683122 108 
L 298.476716 108 
L 298.476716 82.138776 
L 293.683122 82.138776 
z
" style="fill:#00008b;opacity:0.4;stroke:#000000;stroke-linejoin:miter;"/>
   </g>
   <g id="patch_41">
    <path clip-path="url(#p24d3be76d9)" d="M 298.476716 108 
L 303.270309 108 
L 303.270309 74.380408 
L 298.476716 74.380408 
z
" style="fill:#00008b;opacity:0.4;stroke:#000000;stroke-linejoin:miter;"/>
   </g>
   <g id="patch_42">
    <path clip-path="url(#p24d3be76d9)" d="M 303.270309 108 
L 308.063903 108 
L 308.063903 86.017959 
L 303.270309 86.017959 
z
" style="fill:#00008b;opacity:0.4;stroke:#000000;stroke-linejoin:miter;"/>
   </g>
   <g id="patch_43">
    <path clip-path="url(#p24d3be76d9)" d="M 308.063903 108 
L 312.857497 108 
L 312.857497 82.138776 
L 308.063903 82.138776 
z
" style="fill:#00008b;opacity:0.4;stroke:#000000;stroke-linejoin:miter;"/>
   </g>
   <g id="patch_44">
    <path clip-path="url(#p24d3be76d9)" d="M 312.857497 108 
L 317.65109 108 
L 317.65109 86.017959 
L 312.857497 86.017959 
z
" style="fill:#00008b;opacity:0.4;stroke:#000000;stroke-linejoin:miter;"/>
   </g>
   <g id="patch_45">
    <path clip-path="url(#p24d3be76d9)" d="M 317.65109 108 
L 322.444684 108 
L 322.444684 84.724898 
L 317.65109 84.724898 
z
" style="fill:#00008b;opacity:0.4;stroke:#000000;stroke-linejoin:miter;"/>
   </g>
   <g id="patch_46">
    <path clip-path="url(#p24d3be76d9)" d="M 322.444684 108 
L 327.238277 108 
L 327.238277 64.035918 
L 322.444684 64.035918 
z
" style="fill:#00008b;opacity:0.4;stroke:#000000;stroke-linejoin:miter;"/>
   </g>
   <g id="patch_47">
    <path clip-path="url(#p24d3be76d9)" d="M 327.238277 108 
L 332.031871 108 
L 332.031871 89.897143 
L 327.238277 89.897143 
z
" style="fill:#00008b;opacity:0.4;stroke:#000000;stroke-linejoin:miter;"/>
   </g>
   <g id="patch_48">
    <path clip-path="url(#p24d3be76d9)" d="M 332.031871 108 
L 336.825464 108 
L 336.825464 89.897143 
L 332.031871 89.897143 
z
" style="fill:#00008b;opacity:0.4;stroke:#000000;stroke-linejoin:miter;"/>
   </g>
   <g id="patch_49">
    <path clip-path="url(#p24d3be76d9)" d="M 336.825464 108 
L 341.619058 108 
L 341.619058 98.948571 
L 336.825464 98.948571 
z
" style="fill:#00008b;opacity:0.4;stroke:#000000;stroke-linejoin:miter;"/>
   </g>
   <g id="patch_50">
    <path clip-path="url(#p24d3be76d9)" d="M 341.619058 108 
L 346.412651 108 
L 346.412651 98.948571 
L 341.619058 98.948571 
z
" style="fill:#00008b;opacity:0.4;stroke:#000000;stroke-linejoin:miter;"/>
   </g>
   <g id="patch_51">
    <path clip-path="url(#p24d3be76d9)" d="M 346.412651 108 
L 351.206245 108 
L 351.206245 88.604082 
L 346.412651 88.604082 
z
" style="fill:#00008b;opacity:0.4;stroke:#000000;stroke-linejoin:miter;"/>
   </g>
   <g id="patch_52">
    <path clip-path="url(#p24d3be76d9)" d="M 351.206245 108 
L 355.999838 108 
L 355.999838 101.534694 
L 351.206245 101.534694 
z
" style="fill:#00008b;opacity:0.4;stroke:#000000;stroke-linejoin:miter;"/>
   </g>
   <g id="matplotlib.axis_1">
    <g id="xtick_1">
     <g id="line2d_1">
      <defs>
       <path d="M 0 0 
L 0 3.5 
" id="m85a5361a76" style="stroke:#000000;stroke-width:0.8;"/>
      </defs>
      <g>
       <use style="stroke:#000000;stroke-width:0.8;" x="100.887694" xlink:href="#m85a5361a76" y="108"/>
      </g>
     </g>
     <g id="text_1">
      <!-- −1.0 -->
      <defs>
       <path d="M 10.59375 35.5 
L 73.1875 35.5 
L 73.1875 27.203125 
L 10.59375 27.203125 
z
" id="DejaVuSans-8722"/>
       <path d="M 12.40625 8.296875 
L 28.515625 8.296875 
L 28.515625 63.921875 
L 10.984375 60.40625 
L 10.984375 69.390625 
L 28.421875 72.90625 
L 38.28125 72.90625 
L 38.28125 8.296875 
L 54.390625 8.296875 
L 54.390625 0 
L 12.40625 0 
z
" id="DejaVuSans-49"/>
       <path d="M 10.6875 12.40625 
L 21 12.40625 
L 21 0 
L 10.6875 0 
z
" id="DejaVuSans-46"/>
       <path d="M 31.78125 66.40625 
Q 24.171875 66.40625 20.328125 58.90625 
Q 16.5 51.421875 16.5 36.375 
Q 16.5 21.390625 20.328125 13.890625 
Q 24.171875 6.390625 31.78125 6.390625 
Q 39.453125 6.390625 43.28125 13.890625 
Q 47.125 21.390625 47.125 36.375 
Q 47.125 51.421875 43.28125 58.90625 
Q 39.453125 66.40625 31.78125 66.40625 
z
M 31.78125 74.21875 
Q 44.046875 74.21875 50.515625 64.515625 
Q 56.984375 54.828125 56.984375 36.375 
Q 56.984375 17.96875 50.515625 8.265625 
Q 44.046875 -1.421875 31.78125 -1.421875 
Q 19.53125 -1.421875 13.0625 8.265625 
Q 6.59375 17.96875 6.59375 36.375 
Q 6.59375 54.828125 13.0625 64.515625 
Q 19.53125 74.21875 31.78125 74.21875 
z
" id="DejaVuSans-48"/>
      </defs>
      <g transform="translate(88.746288 122.598437)scale(0.1 -0.1)">
       <use xlink:href="#DejaVuSans-8722"/>
       <use x="83.789062" xlink:href="#DejaVuSans-49"/>
       <use x="147.412109" xlink:href="#DejaVuSans-46"/>
       <use x="179.199219" xlink:href="#DejaVuSans-48"/>
      </g>
     </g>
    </g>
    <g id="xtick_2">
     <g id="line2d_2">
      <g>
       <use style="stroke:#000000;stroke-width:0.8;" x="168.817796" xlink:href="#m85a5361a76" y="108"/>
      </g>
     </g>
     <g id="text_2">
      <!-- −0.5 -->
      <defs>
       <path d="M 10.796875 72.90625 
L 49.515625 72.90625 
L 49.515625 64.59375 
L 19.828125 64.59375 
L 19.828125 46.734375 
Q 21.96875 47.46875 24.109375 47.828125 
Q 26.265625 48.1875 28.421875 48.1875 
Q 40.625 48.1875 47.75 41.5 
Q 54.890625 34.8125 54.890625 23.390625 
Q 54.890625 11.625 47.5625 5.09375 
Q 40.234375 -1.421875 26.90625 -1.421875 
Q 22.3125 -1.421875 17.546875 -0.640625 
Q 12.796875 0.140625 7.71875 1.703125 
L 7.71875 11.625 
Q 12.109375 9.234375 16.796875 8.0625 
Q 21.484375 6.890625 26.703125 6.890625 
Q 35.15625 6.890625 40.078125 11.328125 
Q 45.015625 15.765625 45.015625 23.390625 
Q 45.015625 31 40.078125 35.4375 
Q 35.15625 39.890625 26.703125 39.890625 
Q 22.75 39.890625 18.8125 39.015625 
Q 14.890625 38.140625 10.796875 36.28125 
z
" id="DejaVuSans-53"/>
      </defs>
      <g transform="translate(156.67639 122.598437)scale(0.1 -0.1)">
       <use xlink:href="#DejaVuSans-8722"/>
       <use x="83.789062" xlink:href="#DejaVuSans-48"/>
       <use x="147.412109" xlink:href="#DejaVuSans-46"/>
       <use x="179.199219" xlink:href="#DejaVuSans-53"/>
      </g>
     </g>
    </g>
    <g id="xtick_3">
     <g id="line2d_3">
      <g>
       <use style="stroke:#000000;stroke-width:0.8;" x="236.747898" xlink:href="#m85a5361a76" y="108"/>
      </g>
     </g>
     <g id="text_3">
      <!-- 0.0 -->
      <g transform="translate(228.796336 122.598437)scale(0.1 -0.1)">
       <use xlink:href="#DejaVuSans-48"/>
       <use x="63.623047" xlink:href="#DejaVuSans-46"/>
       <use x="95.410156" xlink:href="#DejaVuSans-48"/>
      </g>
     </g>
    </g>
    <g id="xtick_4">
     <g id="line2d_4">
      <g>
       <use style="stroke:#000000;stroke-width:0.8;" x="304.678" xlink:href="#m85a5361a76" y="108"/>
      </g>
     </g>
     <g id="text_4">
      <!-- 0.5 -->
      <g transform="translate(296.726438 122.598437)scale(0.1 -0.1)">
       <use xlink:href="#DejaVuSans-48"/>
       <use x="63.623047" xlink:href="#DejaVuSans-46"/>
       <use x="95.410156" xlink:href="#DejaVuSans-53"/>
      </g>
     </g>
    </g>
    <g id="xtick_5">
     <g id="line2d_5">
      <g>
       <use style="stroke:#000000;stroke-width:0.8;" x="372.608102" xlink:href="#m85a5361a76" y="108"/>
      </g>
     </g>
     <g id="text_5">
      <!-- 1.0 -->
      <g transform="translate(364.65654 122.598437)scale(0.1 -0.1)">
       <use xlink:href="#DejaVuSans-49"/>
       <use x="63.623047" xlink:href="#DejaVuSans-46"/>
       <use x="95.410156" xlink:href="#DejaVuSans-48"/>
      </g>
     </g>
    </g>
   </g>
   <g id="matplotlib.axis_2">
    <g id="ytick_1">
     <g id="line2d_6">
      <defs>
       <path d="M 0 0 
L -3.5 0 
" id="ma969f51ae7" style="stroke:#000000;stroke-width:0.8;"/>
      </defs>
      <g>
       <use style="stroke:#000000;stroke-width:0.8;" x="57.6" xlink:href="#ma969f51ae7" y="108"/>
      </g>
     </g>
     <g id="text_6">
      <!-- 0.0 -->
      <g transform="translate(34.696875 111.799219)scale(0.1 -0.1)">
       <use xlink:href="#DejaVuSans-48"/>
       <use x="63.623047" xlink:href="#DejaVuSans-46"/>
       <use x="95.410156" xlink:href="#DejaVuSans-48"/>
      </g>
     </g>
    </g>
    <g id="ytick_2">
     <g id="line2d_7">
      <g>
       <use style="stroke:#000000;stroke-width:0.8;" x="57.6" xlink:href="#ma969f51ae7" y="81.036547"/>
      </g>
     </g>
     <g id="text_7">
      <!-- 0.5 -->
      <g transform="translate(34.696875 84.835766)scale(0.1 -0.1)">
       <use xlink:href="#DejaVuSans-48"/>
       <use x="63.623047" xlink:href="#DejaVuSans-46"/>
       <use x="95.410156" xlink:href="#DejaVuSans-53"/>
      </g>
     </g>
    </g>
    <g id="ytick_3">
     <g id="line2d_8">
      <g>
       <use style="stroke:#000000;stroke-width:0.8;" x="57.6" xlink:href="#ma969f51ae7" y="54.073094"/>
      </g>
     </g>
     <g id="text_8">
      <!-- 1.0 -->
      <g transform="translate(34.696875 57.872312)scale(0.1 -0.1)">
       <use xlink:href="#DejaVuSans-49"/>
       <use x="63.623047" xlink:href="#DejaVuSans-46"/>
       <use x="95.410156" xlink:href="#DejaVuSans-48"/>
      </g>
     </g>
    </g>
    <g id="text_9">
     <!-- Density -->
     <defs>
      <path d="M 19.671875 64.796875 
L 19.671875 8.109375 
L 31.59375 8.109375 
Q 46.6875 8.109375 53.6875 14.9375 
Q 60.6875 21.78125 60.6875 36.53125 
Q 60.6875 51.171875 53.6875 57.984375 
Q 46.6875 64.796875 31.59375 64.796875 
z
M 9.8125 72.90625 
L 30.078125 72.90625 
Q 51.265625 72.90625 61.171875 64.09375 
Q 71.09375 55.28125 71.09375 36.53125 
Q 71.09375 17.671875 61.125 8.828125 
Q 51.171875 0 30.078125 0 
L 9.8125 0 
z
" id="DejaVuSans-68"/>
      <path d="M 56.203125 29.59375 
L 56.203125 25.203125 
L 14.890625 25.203125 
Q 15.484375 15.921875 20.484375 11.0625 
Q 25.484375 6.203125 34.421875 6.203125 
Q 39.59375 6.203125 44.453125 7.46875 
Q 49.3125 8.734375 54.109375 11.28125 
L 54.109375 2.78125 
Q 49.265625 0.734375 44.1875 -0.34375 
Q 39.109375 -1.421875 33.890625 -1.421875 
Q 20.796875 -1.421875 13.15625 6.1875 
Q 5.515625 13.8125 5.515625 26.8125 
Q 5.515625 40.234375 12.765625 48.109375 
Q 20.015625 56 32.328125 56 
Q 43.359375 56 49.78125 48.890625 
Q 56.203125 41.796875 56.203125 29.59375 
z
M 47.21875 32.234375 
Q 47.125 39.59375 43.09375 43.984375 
Q 39.0625 48.390625 32.421875 48.390625 
Q 24.90625 48.390625 20.390625 44.140625 
Q 15.875 39.890625 15.1875 32.171875 
z
" id="DejaVuSans-101"/>
      <path d="M 54.890625 33.015625 
L 54.890625 0 
L 45.90625 0 
L 45.90625 32.71875 
Q 45.90625 40.484375 42.875 44.328125 
Q 39.84375 48.1875 33.796875 48.1875 
Q 26.515625 48.1875 22.3125 43.546875 
Q 18.109375 38.921875 18.109375 30.90625 
L 18.109375 0 
L 9.078125 0 
L 9.078125 54.6875 
L 18.109375 54.6875 
L 18.109375 46.1875 
Q 21.34375 51.125 25.703125 53.5625 
Q 30.078125 56 35.796875 56 
Q 45.21875 56 50.046875 50.171875 
Q 54.890625 44.34375 54.890625 33.015625 
z
" id="DejaVuSans-110"/>
      <path d="M 44.28125 53.078125 
L 44.28125 44.578125 
Q 40.484375 46.53125 36.375 47.5 
Q 32.28125 48.484375 27.875 48.484375 
Q 21.1875 48.484375 17.84375 46.4375 
Q 14.5 44.390625 14.5 40.28125 
Q 14.5 37.15625 16.890625 35.375 
Q 19.28125 33.59375 26.515625 31.984375 
L 29.59375 31.296875 
Q 39.15625 29.25 43.1875 25.515625 
Q 47.21875 21.78125 47.21875 15.09375 
Q 47.21875 7.46875 41.1875 3.015625 
Q 35.15625 -1.421875 24.609375 -1.421875 
Q 20.21875 -1.421875 15.453125 -0.5625 
Q 10.6875 0.296875 5.421875 2 
L 5.421875 11.28125 
Q 10.40625 8.6875 15.234375 7.390625 
Q 20.0625 6.109375 24.8125 6.109375 
Q 31.15625 6.109375 34.5625 8.28125 
Q 37.984375 10.453125 37.984375 14.40625 
Q 37.984375 18.0625 35.515625 20.015625 
Q 33.0625 21.96875 24.703125 23.78125 
L 21.578125 24.515625 
Q 13.234375 26.265625 9.515625 29.90625 
Q 5.8125 33.546875 5.8125 39.890625 
Q 5.8125 47.609375 11.28125 51.796875 
Q 16.75 56 26.8125 56 
Q 31.78125 56 36.171875 55.265625 
Q 40.578125 54.546875 44.28125 53.078125 
z
" id="DejaVuSans-115"/>
      <path d="M 9.421875 54.6875 
L 18.40625 54.6875 
L 18.40625 0 
L 9.421875 0 
z
M 9.421875 75.984375 
L 18.40625 75.984375 
L 18.40625 64.59375 
L 9.421875 64.59375 
z
" id="DejaVuSans-105"/>
      <path d="M 18.3125 70.21875 
L 18.3125 54.6875 
L 36.8125 54.6875 
L 36.8125 47.703125 
L 18.3125 47.703125 
L 18.3125 18.015625 
Q 18.3125 11.328125 20.140625 9.421875 
Q 21.96875 7.515625 27.59375 7.515625 
L 36.8125 7.515625 
L 36.8125 0 
L 27.59375 0 
Q 17.1875 0 13.234375 3.875 
Q 9.28125 7.765625 9.28125 18.015625 
L 9.28125 47.703125 
L 2.6875 47.703125 
L 2.6875 54.6875 
L 9.28125 54.6875 
L 9.28125 70.21875 
z
" id="DejaVuSans-116"/>
      <path d="M 32.171875 -5.078125 
Q 28.375 -14.84375 24.75 -17.8125 
Q 21.140625 -20.796875 15.09375 -20.796875 
L 7.90625 -20.796875 
L 7.90625 -13.28125 
L 13.1875 -13.28125 
Q 16.890625 -13.28125 18.9375 -11.515625 
Q 21 -9.765625 23.484375 -3.21875 
L 25.09375 0.875 
L 2.984375 54.6875 
L 12.5 54.6875 
L 29.59375 11.921875 
L 46.6875 54.6875 
L 56.203125 54.6875 
z
" id="DejaVuSans-121"/>
     </defs>
     <g transform="translate(28.617187 93.744594)rotate(-90)scale(0.1 -0.1)">
      <use xlink:href="#DejaVuSans-68"/>
      <use x="77.001953" xlink:href="#DejaVuSans-101"/>
      <use x="138.525391" xlink:href="#DejaVuSans-110"/>
      <use x="201.904297" xlink:href="#DejaVuSans-115"/>
      <use x="254.003906" xlink:href="#DejaVuSans-105"/>
      <use x="281.787109" xlink:href="#DejaVuSans-116"/>
      <use x="320.996094" xlink:href="#DejaVuSans-121"/>
     </g>
    </g>
   </g>
   <g id="line2d_9">
    <path clip-path="url(#p24d3be76d9)" d="M 73.832727 107.982235 
L 77.112066 107.963228 
L 80.391405 107.927438 
L 83.670744 107.863375 
L 86.950083 107.754282 
L 90.229421 107.577381 
L 93.50876 107.303942 
L 96.788099 106.900562 
L 100.067438 106.331903 
L 103.346777 105.564822 
L 106.626116 104.573511 
L 109.905455 103.344993 
L 113.184793 101.88415 
L 116.464132 100.21737 
L 119.743471 98.393863 
L 123.02281 96.483706 
L 126.302149 94.571879 
L 129.581488 92.748171 
L 132.860826 91.093833 
L 136.140165 89.667092 
L 139.419504 88.490594 
L 142.698843 87.543927 
L 145.978182 86.763535 
L 149.257521 86.050667 
L 152.53686 85.286324 
L 155.816198 84.350925 
L 159.095537 83.145878 
L 162.374876 81.61409 
L 165.654215 79.756337 
L 168.933554 77.640242 
L 172.212893 75.398713 
L 175.492231 73.215741 
L 178.77157 71.299741 
L 182.050909 69.847859 
L 185.330248 69.007823 
L 188.609587 68.84582 
L 191.888926 69.328413 
L 195.168264 70.323665 
L 198.447603 71.621926 
L 201.726942 72.971763 
L 205.006281 74.122787 
L 208.28562 74.865957 
L 211.564959 75.063518 
L 214.844298 74.664263 
L 218.123636 73.703824 
L 221.402975 72.292614 
L 224.682314 70.59541 
L 227.961653 68.806328 
L 231.240992 67.122286 
L 234.520331 65.717521 
L 237.799669 64.721672 
L 241.079008 64.204048 
L 244.358347 64.166362 
L 247.637686 64.545303 
L 250.917025 65.224945 
L 254.196364 66.057454 
L 257.475702 66.889231 
L 260.755041 67.588512 
L 264.03438 68.069665 
L 267.313719 68.309291 
L 270.593058 68.350109 
L 273.872397 68.290844 
L 277.151736 68.263626 
L 280.431074 68.403823 
L 283.710413 68.819599 
L 286.989752 69.568767 
L 290.269091 70.648505 
L 293.54843 71.99992 
L 296.827769 73.525446 
L 300.107107 75.113911 
L 303.386446 76.666622 
L 306.665785 78.118137 
L 309.945124 79.447205 
L 313.224463 80.676109 
L 316.503802 81.859556 
L 319.78314 83.066818 
L 323.062479 84.362333 
L 326.341818 85.790048 
L 329.621157 87.365256 
L 332.900496 89.07507 
L 336.179835 90.885738 
L 339.459174 92.753011 
L 342.738512 94.631425 
L 346.017851 96.479735 
L 349.29719 98.262049 
L 352.576529 99.946299 
L 355.855868 101.502566 
L 359.135207 102.903202 
L 362.414545 104.125202 
L 365.693884 105.153823 
L 368.973223 105.985655 
L 372.252562 106.629685 
L 375.531901 107.105795 
L 378.81124 107.44121 
L 382.090579 107.666073 
L 385.369917 107.809387 
L 388.649256 107.896164 
L 391.928595 107.946061 
L 395.207934 107.973297 
L 398.487273 107.987408 
" style="fill:none;stroke:#00008b;stroke-linecap:square;stroke-width:4;"/>
   </g>
   <g id="patch_53">
    <path d="M 57.6 108 
L 57.6 41.472 
" style="fill:none;stroke:#000000;stroke-linecap:square;stroke-linejoin:miter;stroke-width:0.8;"/>
   </g>
   <g id="patch_54">
    <path d="M 414.72 108 
L 414.72 41.472 
" style="fill:none;stroke:#000000;stroke-linecap:square;stroke-linejoin:miter;stroke-width:0.8;"/>
   </g>
   <g id="patch_55">
    <path d="M 57.6 108 
L 414.72 108 
" style="fill:none;stroke:#000000;stroke-linecap:square;stroke-linejoin:miter;stroke-width:0.8;"/>
   </g>
   <g id="patch_56">
    <path d="M 57.6 41.472 
L 414.72 41.472 
" style="fill:none;stroke:#000000;stroke-linecap:square;stroke-linejoin:miter;stroke-width:0.8;"/>
   </g>
   <g id="legend_1">
    <g id="patch_57">
     <path d="M 369.80125 64.150125 
L 407.72 64.150125 
Q 409.72 64.150125 409.72 62.150125 
L 409.72 48.472 
Q 409.72 46.472 407.72 46.472 
L 369.80125 46.472 
Q 367.80125 46.472 367.80125 48.472 
L 367.80125 62.150125 
Q 367.80125 64.150125 369.80125 64.150125 
z
" style="fill:#ffffff;opacity:0.8;stroke:#cccccc;stroke-linejoin:miter;"/>
    </g>
    <g id="patch_58">
     <path d="M 371.80125 58.070438 
L 391.80125 58.070438 
L 391.80125 51.070438 
L 371.80125 51.070438 
z
" style="fill:#00008b;opacity:0.4;stroke:#000000;stroke-linejoin:miter;"/>
    </g>
    <g id="text_10">
     <!-- x -->
     <defs>
      <path d="M 54.890625 54.6875 
L 35.109375 28.078125 
L 55.90625 0 
L 45.3125 0 
L 29.390625 21.484375 
L 13.484375 0 
L 2.875 0 
L 24.125 28.609375 
L 4.6875 54.6875 
L 15.28125 54.6875 
L 29.78125 35.203125 
L 44.28125 54.6875 
z
" id="DejaVuSans-120"/>
     </defs>
     <g transform="translate(399.80125 58.070438)scale(0.1 -0.1)">
      <use xlink:href="#DejaVuSans-120"/>
     </g>
    </g>
   </g>
  </g>
  <g id="axes_2">
   <g id="patch_59">
    <path d="M 57.6 207.792 
L 414.72 207.792 
L 414.72 141.264 
L 57.6 141.264 
z
" style="fill:#ffffff;"/>
   </g>
   <g id="patch_60">
    <path clip-path="url(#p6f36570709)" d="M 116.162429 207.792 
L 120.962332 207.792 
L 120.962332 204.774857 
L 116.162429 204.774857 
z
" style="fill:#006400;opacity:0.4;stroke:#000000;stroke-linejoin:miter;"/>
   </g>
   <g id="patch_61">
    <path clip-path="url(#p6f36570709)" d="M 120.962332 207.792 
L 125.762235 207.792 
L 125.762235 200.752 
L 120.962332 200.752 
z
" style="fill:#006400;opacity:0.4;stroke:#000000;stroke-linejoin:miter;"/>
   </g>
   <g id="patch_62">
    <path clip-path="url(#p6f36570709)" d="M 125.762235 207.792 
L 130.562138 207.792 
L 130.562138 202.763429 
L 125.762235 202.763429 
z
" style="fill:#006400;opacity:0.4;stroke:#000000;stroke-linejoin:miter;"/>
   </g>
   <g id="patch_63">
    <path clip-path="url(#p6f36570709)" d="M 130.562138 207.792 
L 135.362041 207.792 
L 135.362041 187.677714 
L 130.562138 187.677714 
z
" style="fill:#006400;opacity:0.4;stroke:#000000;stroke-linejoin:miter;"/>
   </g>
   <g id="patch_64">
    <path clip-path="url(#p6f36570709)" d="M 135.362041 207.792 
L 140.161943 207.792 
L 140.161943 194.717714 
L 135.362041 194.717714 
z
" style="fill:#006400;opacity:0.4;stroke:#000000;stroke-linejoin:miter;"/>
   </g>
   <g id="patch_65">
    <path clip-path="url(#p6f36570709)" d="M 140.161943 207.792 
L 144.961846 207.792 
L 144.961846 187.677714 
L 140.161943 187.677714 
z
" style="fill:#006400;opacity:0.4;stroke:#000000;stroke-linejoin:miter;"/>
   </g>
   <g id="patch_66">
    <path clip-path="url(#p6f36570709)" d="M 144.961846 207.792 
L 149.761749 207.792 
L 149.761749 185.666286 
L 144.961846 185.666286 
z
" style="fill:#006400;opacity:0.4;stroke:#000000;stroke-linejoin:miter;"/>
   </g>
   <g id="patch_67">
    <path clip-path="url(#p6f36570709)" d="M 149.761749 207.792 
L 154.561652 207.792 
L 154.561652 178.626286 
L 149.761749 178.626286 
z
" style="fill:#006400;opacity:0.4;stroke:#000000;stroke-linejoin:miter;"/>
   </g>
   <g id="patch_68">
    <path clip-path="url(#p6f36570709)" d="M 154.561652 207.792 
L 159.361555 207.792 
L 159.361555 180.637714 
L 154.561652 180.637714 
z
" style="fill:#006400;opacity:0.4;stroke:#000000;stroke-linejoin:miter;"/>
   </g>
   <g id="patch_69">
    <path clip-path="url(#p6f36570709)" d="M 159.361555 207.792 
L 164.161458 207.792 
L 164.161458 185.666286 
L 159.361555 185.666286 
z
" style="fill:#006400;opacity:0.4;stroke:#000000;stroke-linejoin:miter;"/>
   </g>
   <g id="patch_70">
    <path clip-path="url(#p6f36570709)" d="M 164.161458 207.792 
L 168.96136 207.792 
L 168.96136 180.637714 
L 164.161458 180.637714 
z
" style="fill:#006400;opacity:0.4;stroke:#000000;stroke-linejoin:miter;"/>
   </g>
   <g id="patch_71">
    <path clip-path="url(#p6f36570709)" d="M 168.96136 207.792 
L 173.761263 207.792 
L 173.761263 187.677714 
L 168.96136 187.677714 
z
" style="fill:#006400;opacity:0.4;stroke:#000000;stroke-linejoin:miter;"/>
   </g>
   <g id="patch_72">
    <path clip-path="url(#p6f36570709)" d="M 173.761263 207.792 
L 178.561166 207.792 
L 178.561166 185.666286 
L 173.761263 185.666286 
z
" style="fill:#006400;opacity:0.4;stroke:#000000;stroke-linejoin:miter;"/>
   </g>
   <g id="patch_73">
    <path clip-path="url(#p6f36570709)" d="M 178.561166 207.792 
L 183.361069 207.792 
L 183.361069 182.649143 
L 178.561166 182.649143 
z
" style="fill:#006400;opacity:0.4;stroke:#000000;stroke-linejoin:miter;"/>
   </g>
   <g id="patch_74">
    <path clip-path="url(#p6f36570709)" d="M 183.361069 207.792 
L 188.160972 207.792 
L 188.160972 179.632 
L 183.361069 179.632 
z
" style="fill:#006400;opacity:0.4;stroke:#000000;stroke-linejoin:miter;"/>
   </g>
   <g id="patch_75">
    <path clip-path="url(#p6f36570709)" d="M 188.160972 207.792 
L 192.960875 207.792 
L 192.960875 192.706286 
L 188.160972 192.706286 
z
" style="fill:#006400;opacity:0.4;stroke:#000000;stroke-linejoin:miter;"/>
   </g>
   <g id="patch_76">
    <path clip-path="url(#p6f36570709)" d="M 192.960875 207.792 
L 197.760777 207.792 
L 197.760777 185.666286 
L 192.960875 185.666286 
z
" style="fill:#006400;opacity:0.4;stroke:#000000;stroke-linejoin:miter;"/>
   </g>
   <g id="patch_77">
    <path clip-path="url(#p6f36570709)" d="M 197.760777 207.792 
L 202.56068 207.792 
L 202.56068 192.706286 
L 197.760777 192.706286 
z
" style="fill:#006400;opacity:0.4;stroke:#000000;stroke-linejoin:miter;"/>
   </g>
   <g id="patch_78">
    <path clip-path="url(#p6f36570709)" d="M 202.56068 207.792 
L 207.360583 207.792 
L 207.360583 186.672 
L 202.56068 186.672 
z
" style="fill:#006400;opacity:0.4;stroke:#000000;stroke-linejoin:miter;"/>
   </g>
   <g id="patch_79">
    <path clip-path="url(#p6f36570709)" d="M 207.360583 207.792 
L 212.160486 207.792 
L 212.160486 180.637714 
L 207.360583 180.637714 
z
" style="fill:#006400;opacity:0.4;stroke:#000000;stroke-linejoin:miter;"/>
   </g>
   <g id="patch_80">
    <path clip-path="url(#p6f36570709)" d="M 212.160486 207.792 
L 216.960389 207.792 
L 216.960389 180.637714 
L 212.160486 180.637714 
z
" style="fill:#006400;opacity:0.4;stroke:#000000;stroke-linejoin:miter;"/>
   </g>
   <g id="patch_81">
    <path clip-path="url(#p6f36570709)" d="M 216.960389 207.792 
L 221.760292 207.792 
L 221.760292 178.626286 
L 216.960389 178.626286 
z
" style="fill:#006400;opacity:0.4;stroke:#000000;stroke-linejoin:miter;"/>
   </g>
   <g id="patch_82">
    <path clip-path="url(#p6f36570709)" d="M 221.760292 207.792 
L 226.560194 207.792 
L 226.560194 163.540571 
L 221.760292 163.540571 
z
" style="fill:#006400;opacity:0.4;stroke:#000000;stroke-linejoin:miter;"/>
   </g>
   <g id="patch_83">
    <path clip-path="url(#p6f36570709)" d="M 226.560194 207.792 
L 231.360097 207.792 
L 231.360097 173.597714 
L 226.560194 173.597714 
z
" style="fill:#006400;opacity:0.4;stroke:#000000;stroke-linejoin:miter;"/>
   </g>
   <g id="patch_84">
    <path clip-path="url(#p6f36570709)" d="M 231.360097 207.792 
L 236.16 207.792 
L 236.16 161.529143 
L 231.360097 161.529143 
z
" style="fill:#006400;opacity:0.4;stroke:#000000;stroke-linejoin:miter;"/>
   </g>
   <g id="patch_85">
    <path clip-path="url(#p6f36570709)" d="M 236.16 207.792 
L 240.959903 207.792 
L 240.959903 144.432 
L 236.16 144.432 
z
" style="fill:#006400;opacity:0.4;stroke:#000000;stroke-linejoin:miter;"/>
   </g>
   <g id="patch_86">
    <path clip-path="url(#p6f36570709)" d="M 240.959903 207.792 
L 245.759806 207.792 
L 245.759806 162.534857 
L 240.959903 162.534857 
z
" style="fill:#006400;opacity:0.4;stroke:#000000;stroke-linejoin:miter;"/>
   </g>
   <g id="patch_87">
    <path clip-path="url(#p6f36570709)" d="M 245.759806 207.792 
L 250.559708 207.792 
L 250.559708 166.557714 
L 245.759806 166.557714 
z
" style="fill:#006400;opacity:0.4;stroke:#000000;stroke-linejoin:miter;"/>
   </g>
   <g id="patch_88">
    <path clip-path="url(#p6f36570709)" d="M 250.559708 207.792 
L 255.359611 207.792 
L 255.359611 166.557714 
L 250.559708 166.557714 
z
" style="fill:#006400;opacity:0.4;stroke:#000000;stroke-linejoin:miter;"/>
   </g>
   <g id="patch_89">
    <path clip-path="url(#p6f36570709)" d="M 255.359611 207.792 
L 260.159514 207.792 
L 260.159514 190.694857 
L 255.359611 190.694857 
z
" style="fill:#006400;opacity:0.4;stroke:#000000;stroke-linejoin:miter;"/>
   </g>
   <g id="patch_90">
    <path clip-path="url(#p6f36570709)" d="M 260.159514 207.792 
L 264.959417 207.792 
L 264.959417 187.677714 
L 260.159514 187.677714 
z
" style="fill:#006400;opacity:0.4;stroke:#000000;stroke-linejoin:miter;"/>
   </g>
   <g id="patch_91">
    <path clip-path="url(#p6f36570709)" d="M 264.959417 207.792 
L 269.75932 207.792 
L 269.75932 186.672 
L 264.959417 186.672 
z
" style="fill:#006400;opacity:0.4;stroke:#000000;stroke-linejoin:miter;"/>
   </g>
   <g id="patch_92">
    <path clip-path="url(#p6f36570709)" d="M 269.75932 207.792 
L 274.559223 207.792 
L 274.559223 185.666286 
L 269.75932 185.666286 
z
" style="fill:#006400;opacity:0.4;stroke:#000000;stroke-linejoin:miter;"/>
   </g>
   <g id="patch_93">
    <path clip-path="url(#p6f36570709)" d="M 274.559223 207.792 
L 279.359125 207.792 
L 279.359125 186.672 
L 274.559223 186.672 
z
" style="fill:#006400;opacity:0.4;stroke:#000000;stroke-linejoin:miter;"/>
   </g>
   <g id="patch_94">
    <path clip-path="url(#p6f36570709)" d="M 279.359125 207.792 
L 284.159028 207.792 
L 284.159028 182.649143 
L 279.359125 182.649143 
z
" style="fill:#006400;opacity:0.4;stroke:#000000;stroke-linejoin:miter;"/>
   </g>
   <g id="patch_95">
    <path clip-path="url(#p6f36570709)" d="M 284.159028 207.792 
L 288.958931 207.792 
L 288.958931 177.620571 
L 284.159028 177.620571 
z
" style="fill:#006400;opacity:0.4;stroke:#000000;stroke-linejoin:miter;"/>
   </g>
   <g id="patch_96">
    <path clip-path="url(#p6f36570709)" d="M 288.958931 207.792 
L 293.758834 207.792 
L 293.758834 187.677714 
L 288.958931 187.677714 
z
" style="fill:#006400;opacity:0.4;stroke:#000000;stroke-linejoin:miter;"/>
   </g>
   <g id="patch_97">
    <path clip-path="url(#p6f36570709)" d="M 293.758834 207.792 
L 298.558737 207.792 
L 298.558737 173.597714 
L 293.758834 173.597714 
z
" style="fill:#006400;opacity:0.4;stroke:#000000;stroke-linejoin:miter;"/>
   </g>
   <g id="patch_98">
    <path clip-path="url(#p6f36570709)" d="M 298.558737 207.792 
L 303.35864 207.792 
L 303.35864 187.677714 
L 298.558737 187.677714 
z
" style="fill:#006400;opacity:0.4;stroke:#000000;stroke-linejoin:miter;"/>
   </g>
   <g id="patch_99">
    <path clip-path="url(#p6f36570709)" d="M 303.35864 207.792 
L 308.158542 207.792 
L 308.158542 186.672 
L 303.35864 186.672 
z
" style="fill:#006400;opacity:0.4;stroke:#000000;stroke-linejoin:miter;"/>
   </g>
   <g id="patch_100">
    <path clip-path="url(#p6f36570709)" d="M 308.158542 207.792 
L 312.958445 207.792 
L 312.958445 180.637714 
L 308.158542 180.637714 
z
" style="fill:#006400;opacity:0.4;stroke:#000000;stroke-linejoin:miter;"/>
   </g>
   <g id="patch_101">
    <path clip-path="url(#p6f36570709)" d="M 312.958445 207.792 
L 317.758348 207.792 
L 317.758348 183.654857 
L 312.958445 183.654857 
z
" style="fill:#006400;opacity:0.4;stroke:#000000;stroke-linejoin:miter;"/>
   </g>
   <g id="patch_102">
    <path clip-path="url(#p6f36570709)" d="M 317.758348 207.792 
L 322.558251 207.792 
L 322.558251 184.660571 
L 317.758348 184.660571 
z
" style="fill:#006400;opacity:0.4;stroke:#000000;stroke-linejoin:miter;"/>
   </g>
   <g id="patch_103">
    <path clip-path="url(#p6f36570709)" d="M 322.558251 207.792 
L 327.358154 207.792 
L 327.358154 183.654857 
L 322.558251 183.654857 
z
" style="fill:#006400;opacity:0.4;stroke:#000000;stroke-linejoin:miter;"/>
   </g>
   <g id="patch_104">
    <path clip-path="url(#p6f36570709)" d="M 327.358154 207.792 
L 332.158057 207.792 
L 332.158057 182.649143 
L 327.358154 182.649143 
z
" style="fill:#006400;opacity:0.4;stroke:#000000;stroke-linejoin:miter;"/>
   </g>
   <g id="patch_105">
    <path clip-path="url(#p6f36570709)" d="M 332.158057 207.792 
L 336.957959 207.792 
L 336.957959 186.672 
L 332.158057 186.672 
z
" style="fill:#006400;opacity:0.4;stroke:#000000;stroke-linejoin:miter;"/>
   </g>
   <g id="patch_106">
    <path clip-path="url(#p6f36570709)" d="M 336.957959 207.792 
L 341.757862 207.792 
L 341.757862 194.717714 
L 336.957959 194.717714 
z
" style="fill:#006400;opacity:0.4;stroke:#000000;stroke-linejoin:miter;"/>
   </g>
   <g id="patch_107">
    <path clip-path="url(#p6f36570709)" d="M 341.757862 207.792 
L 346.557765 207.792 
L 346.557765 198.740571 
L 341.757862 198.740571 
z
" style="fill:#006400;opacity:0.4;stroke:#000000;stroke-linejoin:miter;"/>
   </g>
   <g id="patch_108">
    <path clip-path="url(#p6f36570709)" d="M 346.557765 207.792 
L 351.357668 207.792 
L 351.357668 206.786286 
L 346.557765 206.786286 
z
" style="fill:#006400;opacity:0.4;stroke:#000000;stroke-linejoin:miter;"/>
   </g>
   <g id="patch_109">
    <path clip-path="url(#p6f36570709)" d="M 351.357668 207.792 
L 356.157571 207.792 
L 356.157571 203.769143 
L 351.357668 203.769143 
z
" style="fill:#006400;opacity:0.4;stroke:#000000;stroke-linejoin:miter;"/>
   </g>
   <g id="matplotlib.axis_3">
    <g id="xtick_6">
     <g id="line2d_10">
      <g>
       <use style="stroke:#000000;stroke-width:0.8;" x="92.576139" xlink:href="#m85a5361a76" y="207.792"/>
      </g>
     </g>
     <g id="text_11">
      <!-- −1.0 -->
      <g transform="translate(80.434733 222.390437)scale(0.1 -0.1)">
       <use xlink:href="#DejaVuSans-8722"/>
       <use x="83.789062" xlink:href="#DejaVuSans-49"/>
       <use x="147.412109" xlink:href="#DejaVuSans-46"/>
       <use x="179.199219" xlink:href="#DejaVuSans-48"/>
      </g>
     </g>
    </g>
    <g id="xtick_7">
     <g id="line2d_11">
      <g>
       <use style="stroke:#000000;stroke-width:0.8;" x="165.332145" xlink:href="#m85a5361a76" y="207.792"/>
      </g>
     </g>
     <g id="text_12">
      <!-- −0.5 -->
      <g transform="translate(153.190739 222.390437)scale(0.1 -0.1)">
       <use xlink:href="#DejaVuSans-8722"/>
       <use x="83.789062" xlink:href="#DejaVuSans-48"/>
       <use x="147.412109" xlink:href="#DejaVuSans-46"/>
       <use x="179.199219" xlink:href="#DejaVuSans-53"/>
      </g>
     </g>
    </g>
    <g id="xtick_8">
     <g id="line2d_12">
      <g>
       <use style="stroke:#000000;stroke-width:0.8;" x="238.088151" xlink:href="#m85a5361a76" y="207.792"/>
      </g>
     </g>
     <g id="text_13">
      <!-- 0.0 -->
      <g transform="translate(230.136589 222.390437)scale(0.1 -0.1)">
       <use xlink:href="#DejaVuSans-48"/>
       <use x="63.623047" xlink:href="#DejaVuSans-46"/>
       <use x="95.410156" xlink:href="#DejaVuSans-48"/>
      </g>
     </g>
    </g>
    <g id="xtick_9">
     <g id="line2d_13">
      <g>
       <use style="stroke:#000000;stroke-width:0.8;" x="310.844157" xlink:href="#m85a5361a76" y="207.792"/>
      </g>
     </g>
     <g id="text_14">
      <!-- 0.5 -->
      <g transform="translate(302.892595 222.390437)scale(0.1 -0.1)">
       <use xlink:href="#DejaVuSans-48"/>
       <use x="63.623047" xlink:href="#DejaVuSans-46"/>
       <use x="95.410156" xlink:href="#DejaVuSans-53"/>
      </g>
     </g>
    </g>
    <g id="xtick_10">
     <g id="line2d_14">
      <g>
       <use style="stroke:#000000;stroke-width:0.8;" x="383.600163" xlink:href="#m85a5361a76" y="207.792"/>
      </g>
     </g>
     <g id="text_15">
      <!-- 1.0 -->
      <g transform="translate(375.648601 222.390437)scale(0.1 -0.1)">
       <use xlink:href="#DejaVuSans-49"/>
       <use x="63.623047" xlink:href="#DejaVuSans-46"/>
       <use x="95.410156" xlink:href="#DejaVuSans-48"/>
      </g>
     </g>
    </g>
   </g>
   <g id="matplotlib.axis_4">
    <g id="ytick_4">
     <g id="line2d_15">
      <g>
       <use style="stroke:#000000;stroke-width:0.8;" x="57.6" xlink:href="#ma969f51ae7" y="207.792"/>
      </g>
     </g>
     <g id="text_16">
      <!-- 0 -->
      <g transform="translate(44.2375 211.591219)scale(0.1 -0.1)">
       <use xlink:href="#DejaVuSans-48"/>
      </g>
     </g>
    </g>
    <g id="ytick_5">
     <g id="line2d_16">
      <g>
       <use style="stroke:#000000;stroke-width:0.8;" x="57.6" xlink:href="#ma969f51ae7" y="168.579395"/>
      </g>
     </g>
     <g id="text_17">
      <!-- 1 -->
      <g transform="translate(44.2375 172.378614)scale(0.1 -0.1)">
       <use xlink:href="#DejaVuSans-49"/>
      </g>
     </g>
    </g>
    <g id="text_18">
     <!-- Density -->
     <g transform="translate(38.157812 193.536594)rotate(-90)scale(0.1 -0.1)">
      <use xlink:href="#DejaVuSans-68"/>
      <use x="77.001953" xlink:href="#DejaVuSans-101"/>
      <use x="138.525391" xlink:href="#DejaVuSans-110"/>
      <use x="201.904297" xlink:href="#DejaVuSans-115"/>
      <use x="254.003906" xlink:href="#DejaVuSans-105"/>
      <use x="281.787109" xlink:href="#DejaVuSans-116"/>
      <use x="320.996094" xlink:href="#DejaVuSans-121"/>
     </g>
    </g>
   </g>
   <g id="line2d_17">
    <path clip-path="url(#p6f36570709)" d="M 73.832727 207.784882 
L 77.112066 207.776941 
L 80.391405 207.76156 
L 83.670744 207.733158 
L 86.950083 207.683122 
L 90.229421 207.598944 
L 93.50876 207.46359 
L 96.788099 207.255366 
L 100.067438 206.94858 
L 103.346777 206.51519 
L 106.626116 205.927434 
L 109.905455 205.16116 
L 113.184793 204.199355 
L 116.464132 203.035195 
L 119.743471 201.674045 
L 123.02281 200.134095 
L 126.302149 198.445719 
L 129.581488 196.649946 
L 132.860826 194.796531 
L 136.140165 192.94183 
L 139.419504 191.146291 
L 142.698843 189.471058 
L 145.978182 187.973231 
L 149.257521 186.699971 
L 152.53686 185.682446 
L 155.816198 184.931355 
L 159.095537 184.435759 
L 162.374876 184.166146 
L 165.654215 184.081129 
L 168.933554 184.135708 
L 172.212893 184.288209 
L 175.492231 184.5034 
L 178.77157 184.750855 
L 182.050909 184.999652 
L 185.330248 185.212166 
L 188.609587 185.34012 
L 191.888926 185.325126 
L 195.168264 185.104026 
L 198.447603 184.617494 
L 201.726942 183.819416 
L 205.006281 182.684857 
L 208.28562 181.215604 
L 211.564959 179.44344 
L 214.844298 177.431779 
L 218.123636 175.275778 
L 221.402975 173.100006 
L 224.682314 171.052037 
L 227.961653 169.290546 
L 231.240992 167.967952 
L 234.520331 167.209691 
L 237.799669 167.094117 
L 241.079008 167.637723 
L 244.358347 168.789607 
L 247.637686 170.437002 
L 250.917025 172.421024 
L 254.196364 174.559464 
L 257.475702 176.672053 
L 260.755041 178.603487 
L 264.03438 180.24036 
L 267.313719 181.519784 
L 270.593058 182.429328 
L 273.872397 182.999597 
L 277.151736 183.29193 
L 280.431074 183.384126 
L 283.710413 183.356802 
L 286.989752 183.28229 
L 290.269091 183.217138 
L 293.54843 183.198649 
L 296.827769 183.245376 
L 300.107107 183.361139 
L 303.386446 183.541685 
L 306.665785 183.782637 
L 309.945124 184.087006 
L 313.224463 184.470477 
L 316.503802 184.962967 
L 319.78314 185.605687 
L 323.062479 186.443928 
L 326.341818 187.516855 
L 329.621157 188.846509 
L 332.900496 190.428758 
L 336.179835 192.228768 
L 339.459174 194.182622 
L 342.738512 196.20516 
L 346.017851 198.202341 
L 349.29719 200.085152 
L 352.576529 201.781726 
L 355.855868 203.245059 
L 359.135207 204.455206 
L 362.414545 205.416463 
L 365.693884 206.15121 
L 368.973223 206.692554 
L 372.252562 207.077545 
L 375.531901 207.342068 
L 378.81124 207.517709 
L 382.090579 207.630368 
L 385.369917 207.700097 
L 388.649256 207.741675 
L 391.928595 207.765513 
L 395.207934 207.778627 
L 398.487273 207.785535 
" style="fill:none;stroke:#006400;stroke-linecap:square;stroke-width:4;"/>
   </g>
   <g id="patch_110">
    <path d="M 57.6 207.792 
L 57.6 141.264 
" style="fill:none;stroke:#000000;stroke-linecap:square;stroke-linejoin:miter;stroke-width:0.8;"/>
   </g>
   <g id="patch_111">
    <path d="M 414.72 207.792 
L 414.72 141.264 
" style="fill:none;stroke:#000000;stroke-linecap:square;stroke-linejoin:miter;stroke-width:0.8;"/>
   </g>
   <g id="patch_112">
    <path d="M 57.6 207.792 
L 414.72 207.792 
" style="fill:none;stroke:#000000;stroke-linecap:square;stroke-linejoin:miter;stroke-width:0.8;"/>
   </g>
   <g id="patch_113">
    <path d="M 57.6 141.264 
L 414.72 141.264 
" style="fill:none;stroke:#000000;stroke-linecap:square;stroke-linejoin:miter;stroke-width:0.8;"/>
   </g>
   <g id="legend_2">
    <g id="patch_114">
     <path d="M 369.80125 163.942125 
L 407.72 163.942125 
Q 409.72 163.942125 409.72 161.942125 
L 409.72 148.264 
Q 409.72 146.264 407.72 146.264 
L 369.80125 146.264 
Q 367.80125 146.264 367.80125 148.264 
L 367.80125 161.942125 
Q 367.80125 163.942125 369.80125 163.942125 
z
" style="fill:#ffffff;opacity:0.8;stroke:#cccccc;stroke-linejoin:miter;"/>
    </g>
    <g id="patch_115">
     <path d="M 371.80125 157.862437 
L 391.80125 157.862437 
L 391.80125 150.862437 
L 371.80125 150.862437 
z
" style="fill:#006400;opacity:0.4;stroke:#000000;stroke-linejoin:miter;"/>
    </g>
    <g id="text_19">
     <!-- y -->
     <g transform="translate(399.80125 157.862437)scale(0.1 -0.1)">
      <use xlink:href="#DejaVuSans-121"/>
     </g>
    </g>
   </g>
  </g>
  <g id="axes_3">
   <g id="patch_116">
    <path d="M 57.6 307.584 
L 414.72 307.584 
L 414.72 241.056 
L 57.6 241.056 
z
" style="fill:#ffffff;"/>
   </g>
   <g id="patch_117">
    <path clip-path="url(#p94bec711d9)" d="M 116.242136 307.584 
L 121.038851 307.584 
L 121.038851 306.761143 
L 116.242136 306.761143 
z
" style="fill:#8b0000;opacity:0.4;stroke:#000000;stroke-linejoin:miter;"/>
   </g>
   <g id="patch_118">
    <path clip-path="url(#p94bec711d9)" d="M 121.038851 307.584 
L 125.835566 307.584 
L 125.835566 307.584 
L 121.038851 307.584 
z
" style="fill:#8b0000;opacity:0.4;stroke:#000000;stroke-linejoin:miter;"/>
   </g>
   <g id="patch_119">
    <path clip-path="url(#p94bec711d9)" d="M 125.835566 307.584 
L 130.63228 307.584 
L 130.63228 306.761143 
L 125.835566 306.761143 
z
" style="fill:#8b0000;opacity:0.4;stroke:#000000;stroke-linejoin:miter;"/>
   </g>
   <g id="patch_120">
    <path clip-path="url(#p94bec711d9)" d="M 130.63228 307.584 
L 135.428995 307.584 
L 135.428995 303.469714 
L 130.63228 303.469714 
z
" style="fill:#8b0000;opacity:0.4;stroke:#000000;stroke-linejoin:miter;"/>
   </g>
   <g id="patch_121">
    <path clip-path="url(#p94bec711d9)" d="M 135.428995 307.584 
L 140.225709 307.584 
L 140.225709 296.064 
L 135.428995 296.064 
z
" style="fill:#8b0000;opacity:0.4;stroke:#000000;stroke-linejoin:miter;"/>
   </g>
   <g id="patch_122">
    <path clip-path="url(#p94bec711d9)" d="M 140.225709 307.584 
L 145.022424 307.584 
L 145.022424 290.304 
L 140.225709 290.304 
z
" style="fill:#8b0000;opacity:0.4;stroke:#000000;stroke-linejoin:miter;"/>
   </g>
   <g id="patch_123">
    <path clip-path="url(#p94bec711d9)" d="M 145.022424 307.584 
L 149.819138 307.584 
L 149.819138 292.772571 
L 145.022424 292.772571 
z
" style="fill:#8b0000;opacity:0.4;stroke:#000000;stroke-linejoin:miter;"/>
   </g>
   <g id="patch_124">
    <path clip-path="url(#p94bec711d9)" d="M 149.819138 307.584 
L 154.615853 307.584 
L 154.615853 282.075429 
L 149.819138 282.075429 
z
" style="fill:#8b0000;opacity:0.4;stroke:#000000;stroke-linejoin:miter;"/>
   </g>
   <g id="patch_125">
    <path clip-path="url(#p94bec711d9)" d="M 154.615853 307.584 
L 159.412567 307.584 
L 159.412567 283.721143 
L 154.615853 283.721143 
z
" style="fill:#8b0000;opacity:0.4;stroke:#000000;stroke-linejoin:miter;"/>
   </g>
   <g id="patch_126">
    <path clip-path="url(#p94bec711d9)" d="M 159.412567 307.584 
L 164.209282 307.584 
L 164.209282 277.138286 
L 159.412567 277.138286 
z
" style="fill:#8b0000;opacity:0.4;stroke:#000000;stroke-linejoin:miter;"/>
   </g>
   <g id="patch_127">
    <path clip-path="url(#p94bec711d9)" d="M 164.209282 307.584 
L 169.005996 307.584 
L 169.005996 277.961143 
L 164.209282 277.961143 
z
" style="fill:#8b0000;opacity:0.4;stroke:#000000;stroke-linejoin:miter;"/>
   </g>
   <g id="patch_128">
    <path clip-path="url(#p94bec711d9)" d="M 169.005996 307.584 
L 173.802711 307.584 
L 173.802711 282.075429 
L 169.005996 282.075429 
z
" style="fill:#8b0000;opacity:0.4;stroke:#000000;stroke-linejoin:miter;"/>
   </g>
   <g id="patch_129">
    <path clip-path="url(#p94bec711d9)" d="M 173.802711 307.584 
L 178.599426 307.584 
L 178.599426 287.012571 
L 173.802711 287.012571 
z
" style="fill:#8b0000;opacity:0.4;stroke:#000000;stroke-linejoin:miter;"/>
   </g>
   <g id="patch_130">
    <path clip-path="url(#p94bec711d9)" d="M 178.599426 307.584 
L 183.39614 307.584 
L 183.39614 290.304 
L 178.599426 290.304 
z
" style="fill:#8b0000;opacity:0.4;stroke:#000000;stroke-linejoin:miter;"/>
   </g>
   <g id="patch_131">
    <path clip-path="url(#p94bec711d9)" d="M 183.39614 307.584 
L 188.192855 307.584 
L 188.192855 287.012571 
L 183.39614 287.012571 
z
" style="fill:#8b0000;opacity:0.4;stroke:#000000;stroke-linejoin:miter;"/>
   </g>
   <g id="patch_132">
    <path clip-path="url(#p94bec711d9)" d="M 188.192855 307.584 
L 192.989569 307.584 
L 192.989569 295.241143 
L 188.192855 295.241143 
z
" style="fill:#8b0000;opacity:0.4;stroke:#000000;stroke-linejoin:miter;"/>
   </g>
   <g id="patch_133">
    <path clip-path="url(#p94bec711d9)" d="M 192.989569 307.584 
L 197.786284 307.584 
L 197.786284 302.646857 
L 192.989569 302.646857 
z
" style="fill:#8b0000;opacity:0.4;stroke:#000000;stroke-linejoin:miter;"/>
   </g>
   <g id="patch_134">
    <path clip-path="url(#p94bec711d9)" d="M 197.786284 307.584 
L 202.582998 307.584 
L 202.582998 298.532571 
L 197.786284 298.532571 
z
" style="fill:#8b0000;opacity:0.4;stroke:#000000;stroke-linejoin:miter;"/>
   </g>
   <g id="patch_135">
    <path clip-path="url(#p94bec711d9)" d="M 202.582998 307.584 
L 207.379713 307.584 
L 207.379713 296.886857 
L 202.582998 296.886857 
z
" style="fill:#8b0000;opacity:0.4;stroke:#000000;stroke-linejoin:miter;"/>
   </g>
   <g id="patch_136">
    <path clip-path="url(#p94bec711d9)" d="M 207.379713 307.584 
L 212.176427 307.584 
L 212.176427 287.835429 
L 207.379713 287.835429 
z
" style="fill:#8b0000;opacity:0.4;stroke:#000000;stroke-linejoin:miter;"/>
   </g>
   <g id="patch_137">
    <path clip-path="url(#p94bec711d9)" d="M 212.176427 307.584 
L 216.973142 307.584 
L 216.973142 298.532571 
L 212.176427 298.532571 
z
" style="fill:#8b0000;opacity:0.4;stroke:#000000;stroke-linejoin:miter;"/>
   </g>
   <g id="patch_138">
    <path clip-path="url(#p94bec711d9)" d="M 216.973142 307.584 
L 221.769856 307.584 
L 221.769856 293.595429 
L 216.973142 293.595429 
z
" style="fill:#8b0000;opacity:0.4;stroke:#000000;stroke-linejoin:miter;"/>
   </g>
   <g id="patch_139">
    <path clip-path="url(#p94bec711d9)" d="M 221.769856 307.584 
L 226.566571 307.584 
L 226.566571 292.772571 
L 221.769856 292.772571 
z
" style="fill:#8b0000;opacity:0.4;stroke:#000000;stroke-linejoin:miter;"/>
   </g>
   <g id="patch_140">
    <path clip-path="url(#p94bec711d9)" d="M 226.566571 307.584 
L 231.363285 307.584 
L 231.363285 275.492571 
L 226.566571 275.492571 
z
" style="fill:#8b0000;opacity:0.4;stroke:#000000;stroke-linejoin:miter;"/>
   </g>
   <g id="patch_141">
    <path clip-path="url(#p94bec711d9)" d="M 231.363285 307.584 
L 236.16 307.584 
L 236.16 246.692571 
L 231.363285 246.692571 
z
" style="fill:#8b0000;opacity:0.4;stroke:#000000;stroke-linejoin:miter;"/>
   </g>
   <g id="patch_142">
    <path clip-path="url(#p94bec711d9)" d="M 236.16 307.584 
L 240.956715 307.584 
L 240.956715 249.984 
L 236.16 249.984 
z
" style="fill:#8b0000;opacity:0.4;stroke:#000000;stroke-linejoin:miter;"/>
   </g>
   <g id="patch_143">
    <path clip-path="url(#p94bec711d9)" d="M 240.956715 307.584 
L 245.753429 307.584 
L 245.753429 244.224 
L 240.956715 244.224 
z
" style="fill:#8b0000;opacity:0.4;stroke:#000000;stroke-linejoin:miter;"/>
   </g>
   <g id="patch_144">
    <path clip-path="url(#p94bec711d9)" d="M 245.753429 307.584 
L 250.550144 307.584 
L 250.550144 263.149714 
L 245.753429 263.149714 
z
" style="fill:#8b0000;opacity:0.4;stroke:#000000;stroke-linejoin:miter;"/>
   </g>
   <g id="patch_145">
    <path clip-path="url(#p94bec711d9)" d="M 250.550144 307.584 
L 255.346858 307.584 
L 255.346858 282.898286 
L 250.550144 282.898286 
z
" style="fill:#8b0000;opacity:0.4;stroke:#000000;stroke-linejoin:miter;"/>
   </g>
   <g id="patch_146">
    <path clip-path="url(#p94bec711d9)" d="M 255.346858 307.584 
L 260.143573 307.584 
L 260.143573 287.012571 
L 255.346858 287.012571 
z
" style="fill:#8b0000;opacity:0.4;stroke:#000000;stroke-linejoin:miter;"/>
   </g>
   <g id="patch_147">
    <path clip-path="url(#p94bec711d9)" d="M 260.143573 307.584 
L 264.940287 307.584 
L 264.940287 277.138286 
L 260.143573 277.138286 
z
" style="fill:#8b0000;opacity:0.4;stroke:#000000;stroke-linejoin:miter;"/>
   </g>
   <g id="patch_148">
    <path clip-path="url(#p94bec711d9)" d="M 264.940287 307.584 
L 269.737002 307.584 
L 269.737002 286.189714 
L 264.940287 286.189714 
z
" style="fill:#8b0000;opacity:0.4;stroke:#000000;stroke-linejoin:miter;"/>
   </g>
   <g id="patch_149">
    <path clip-path="url(#p94bec711d9)" d="M 269.737002 307.584 
L 274.533716 307.584 
L 274.533716 301.824 
L 269.737002 301.824 
z
" style="fill:#8b0000;opacity:0.4;stroke:#000000;stroke-linejoin:miter;"/>
   </g>
   <g id="patch_150">
    <path clip-path="url(#p94bec711d9)" d="M 274.533716 307.584 
L 279.330431 307.584 
L 279.330431 293.595429 
L 274.533716 293.595429 
z
" style="fill:#8b0000;opacity:0.4;stroke:#000000;stroke-linejoin:miter;"/>
   </g>
   <g id="patch_151">
    <path clip-path="url(#p94bec711d9)" d="M 279.330431 307.584 
L 284.127145 307.584 
L 284.127145 297.709714 
L 279.330431 297.709714 
z
" style="fill:#8b0000;opacity:0.4;stroke:#000000;stroke-linejoin:miter;"/>
   </g>
   <g id="patch_152">
    <path clip-path="url(#p94bec711d9)" d="M 284.127145 307.584 
L 288.92386 307.584 
L 288.92386 298.532571 
L 284.127145 298.532571 
z
" style="fill:#8b0000;opacity:0.4;stroke:#000000;stroke-linejoin:miter;"/>
   </g>
   <g id="patch_153">
    <path clip-path="url(#p94bec711d9)" d="M 288.92386 307.584 
L 293.720574 307.584 
L 293.720574 296.886857 
L 288.92386 296.886857 
z
" style="fill:#8b0000;opacity:0.4;stroke:#000000;stroke-linejoin:miter;"/>
   </g>
   <g id="patch_154">
    <path clip-path="url(#p94bec711d9)" d="M 293.720574 307.584 
L 298.517289 307.584 
L 298.517289 296.886857 
L 293.720574 296.886857 
z
" style="fill:#8b0000;opacity:0.4;stroke:#000000;stroke-linejoin:miter;"/>
   </g>
   <g id="patch_155">
    <path clip-path="url(#p94bec711d9)" d="M 298.517289 307.584 
L 303.314004 307.584 
L 303.314004 291.126857 
L 298.517289 291.126857 
z
" style="fill:#8b0000;opacity:0.4;stroke:#000000;stroke-linejoin:miter;"/>
   </g>
   <g id="patch_156">
    <path clip-path="url(#p94bec711d9)" d="M 303.314004 307.584 
L 308.110718 307.584 
L 308.110718 284.544 
L 303.314004 284.544 
z
" style="fill:#8b0000;opacity:0.4;stroke:#000000;stroke-linejoin:miter;"/>
   </g>
   <g id="patch_157">
    <path clip-path="url(#p94bec711d9)" d="M 308.110718 307.584 
L 312.907433 307.584 
L 312.907433 280.429714 
L 308.110718 280.429714 
z
" style="fill:#8b0000;opacity:0.4;stroke:#000000;stroke-linejoin:miter;"/>
   </g>
   <g id="patch_158">
    <path clip-path="url(#p94bec711d9)" d="M 312.907433 307.584 
L 317.704147 307.584 
L 317.704147 287.012571 
L 312.907433 287.012571 
z
" style="fill:#8b0000;opacity:0.4;stroke:#000000;stroke-linejoin:miter;"/>
   </g>
   <g id="patch_159">
    <path clip-path="url(#p94bec711d9)" d="M 317.704147 307.584 
L 322.500862 307.584 
L 322.500862 286.189714 
L 317.704147 286.189714 
z
" style="fill:#8b0000;opacity:0.4;stroke:#000000;stroke-linejoin:miter;"/>
   </g>
   <g id="patch_160">
    <path clip-path="url(#p94bec711d9)" d="M 322.500862 307.584 
L 327.297576 307.584 
L 327.297576 277.961143 
L 322.500862 277.961143 
z
" style="fill:#8b0000;opacity:0.4;stroke:#000000;stroke-linejoin:miter;"/>
   </g>
   <g id="patch_161">
    <path clip-path="url(#p94bec711d9)" d="M 327.297576 307.584 
L 332.094291 307.584 
L 332.094291 278.784 
L 327.297576 278.784 
z
" style="fill:#8b0000;opacity:0.4;stroke:#000000;stroke-linejoin:miter;"/>
   </g>
   <g id="patch_162">
    <path clip-path="url(#p94bec711d9)" d="M 332.094291 307.584 
L 336.891005 307.584 
L 336.891005 283.721143 
L 332.094291 283.721143 
z
" style="fill:#8b0000;opacity:0.4;stroke:#000000;stroke-linejoin:miter;"/>
   </g>
   <g id="patch_163">
    <path clip-path="url(#p94bec711d9)" d="M 336.891005 307.584 
L 341.68772 307.584 
L 341.68772 290.304 
L 336.891005 290.304 
z
" style="fill:#8b0000;opacity:0.4;stroke:#000000;stroke-linejoin:miter;"/>
   </g>
   <g id="patch_164">
    <path clip-path="url(#p94bec711d9)" d="M 341.68772 307.584 
L 346.484434 307.584 
L 346.484434 297.709714 
L 341.68772 297.709714 
z
" style="fill:#8b0000;opacity:0.4;stroke:#000000;stroke-linejoin:miter;"/>
   </g>
   <g id="patch_165">
    <path clip-path="url(#p94bec711d9)" d="M 346.484434 307.584 
L 351.281149 307.584 
L 351.281149 306.761143 
L 346.484434 306.761143 
z
" style="fill:#8b0000;opacity:0.4;stroke:#000000;stroke-linejoin:miter;"/>
   </g>
   <g id="patch_166">
    <path clip-path="url(#p94bec711d9)" d="M 351.281149 307.584 
L 356.077864 307.584 
L 356.077864 306.761143 
L 351.281149 306.761143 
z
" style="fill:#8b0000;opacity:0.4;stroke:#000000;stroke-linejoin:miter;"/>
   </g>
   <g id="matplotlib.axis_5">
    <g id="xtick_11">
     <g id="line2d_18">
      <g>
       <use style="stroke:#000000;stroke-width:0.8;" x="98.481802" xlink:href="#m85a5361a76" y="307.584"/>
      </g>
     </g>
     <g id="text_20">
      <!-- −1.0 -->
      <g transform="translate(86.340396 322.182437)scale(0.1 -0.1)">
       <use xlink:href="#DejaVuSans-8722"/>
       <use x="83.789062" xlink:href="#DejaVuSans-49"/>
       <use x="147.412109" xlink:href="#DejaVuSans-46"/>
       <use x="179.199219" xlink:href="#DejaVuSans-48"/>
      </g>
     </g>
    </g>
    <g id="xtick_12">
     <g id="line2d_19">
      <g>
       <use style="stroke:#000000;stroke-width:0.8;" x="169.754842" xlink:href="#m85a5361a76" y="307.584"/>
      </g>
     </g>
     <g id="text_21">
      <!-- −0.5 -->
      <g transform="translate(157.613436 322.182437)scale(0.1 -0.1)">
       <use xlink:href="#DejaVuSans-8722"/>
       <use x="83.789062" xlink:href="#DejaVuSans-48"/>
       <use x="147.412109" xlink:href="#DejaVuSans-46"/>
       <use x="179.199219" xlink:href="#DejaVuSans-53"/>
      </g>
     </g>
    </g>
    <g id="xtick_13">
     <g id="line2d_20">
      <g>
       <use style="stroke:#000000;stroke-width:0.8;" x="241.027882" xlink:href="#m85a5361a76" y="307.584"/>
      </g>
     </g>
     <g id="text_22">
      <!-- 0.0 -->
      <g transform="translate(233.076319 322.182437)scale(0.1 -0.1)">
       <use xlink:href="#DejaVuSans-48"/>
       <use x="63.623047" xlink:href="#DejaVuSans-46"/>
       <use x="95.410156" xlink:href="#DejaVuSans-48"/>
      </g>
     </g>
    </g>
    <g id="xtick_14">
     <g id="line2d_21">
      <g>
       <use style="stroke:#000000;stroke-width:0.8;" x="312.300921" xlink:href="#m85a5361a76" y="307.584"/>
      </g>
     </g>
     <g id="text_23">
      <!-- 0.5 -->
      <g transform="translate(304.349359 322.182437)scale(0.1 -0.1)">
       <use xlink:href="#DejaVuSans-48"/>
       <use x="63.623047" xlink:href="#DejaVuSans-46"/>
       <use x="95.410156" xlink:href="#DejaVuSans-53"/>
      </g>
     </g>
    </g>
    <g id="xtick_15">
     <g id="line2d_22">
      <g>
       <use style="stroke:#000000;stroke-width:0.8;" x="383.573961" xlink:href="#m85a5361a76" y="307.584"/>
      </g>
     </g>
     <g id="text_24">
      <!-- 1.0 -->
      <g transform="translate(375.622399 322.182437)scale(0.1 -0.1)">
       <use xlink:href="#DejaVuSans-49"/>
       <use x="63.623047" xlink:href="#DejaVuSans-46"/>
       <use x="95.410156" xlink:href="#DejaVuSans-48"/>
      </g>
     </g>
    </g>
    <g id="text_25">
     <!-- Position -->
     <defs>
      <path d="M 19.671875 64.796875 
L 19.671875 37.40625 
L 32.078125 37.40625 
Q 38.96875 37.40625 42.71875 40.96875 
Q 46.484375 44.53125 46.484375 51.125 
Q 46.484375 57.671875 42.71875 61.234375 
Q 38.96875 64.796875 32.078125 64.796875 
z
M 9.8125 72.90625 
L 32.078125 72.90625 
Q 44.34375 72.90625 50.609375 67.359375 
Q 56.890625 61.8125 56.890625 51.125 
Q 56.890625 40.328125 50.609375 34.8125 
Q 44.34375 29.296875 32.078125 29.296875 
L 19.671875 29.296875 
L 19.671875 0 
L 9.8125 0 
z
" id="DejaVuSans-80"/>
      <path d="M 30.609375 48.390625 
Q 23.390625 48.390625 19.1875 42.75 
Q 14.984375 37.109375 14.984375 27.296875 
Q 14.984375 17.484375 19.15625 11.84375 
Q 23.34375 6.203125 30.609375 6.203125 
Q 37.796875 6.203125 41.984375 11.859375 
Q 46.1875 17.53125 46.1875 27.296875 
Q 46.1875 37.015625 41.984375 42.703125 
Q 37.796875 48.390625 30.609375 48.390625 
z
M 30.609375 56 
Q 42.328125 56 49.015625 48.375 
Q 55.71875 40.765625 55.71875 27.296875 
Q 55.71875 13.875 49.015625 6.21875 
Q 42.328125 -1.421875 30.609375 -1.421875 
Q 18.84375 -1.421875 12.171875 6.21875 
Q 5.515625 13.875 5.515625 27.296875 
Q 5.515625 40.765625 12.171875 48.375 
Q 18.84375 56 30.609375 56 
z
" id="DejaVuSans-111"/>
     </defs>
     <g transform="translate(216.517031 335.860562)scale(0.1 -0.1)">
      <use xlink:href="#DejaVuSans-80"/>
      <use x="60.255859" xlink:href="#DejaVuSans-111"/>
      <use x="121.4375" xlink:href="#DejaVuSans-115"/>
      <use x="173.537109" xlink:href="#DejaVuSans-105"/>
      <use x="201.320312" xlink:href="#DejaVuSans-116"/>
      <use x="240.529297" xlink:href="#DejaVuSans-105"/>
      <use x="268.3125" xlink:href="#DejaVuSans-111"/>
      <use x="329.494141" xlink:href="#DejaVuSans-110"/>
     </g>
    </g>
   </g>
   <g id="matplotlib.axis_6">
    <g id="ytick_6">
     <g id="line2d_23">
      <g>
       <use style="stroke:#000000;stroke-width:0.8;" x="57.6" xlink:href="#ma969f51ae7" y="307.584"/>
      </g>
     </g>
     <g id="text_26">
      <!-- 0 -->
      <g transform="translate(44.2375 311.383219)scale(0.1 -0.1)">
       <use xlink:href="#DejaVuSans-48"/>
      </g>
     </g>
    </g>
    <g id="ytick_7">
     <g id="line2d_24">
      <g>
       <use style="stroke:#000000;stroke-width:0.8;" x="57.6" xlink:href="#ma969f51ae7" y="274.855167"/>
      </g>
     </g>
     <g id="text_27">
      <!-- 1 -->
      <g transform="translate(44.2375 278.654386)scale(0.1 -0.1)">
       <use xlink:href="#DejaVuSans-49"/>
      </g>
     </g>
    </g>
    <g id="ytick_8">
     <g id="line2d_25">
      <g>
       <use style="stroke:#000000;stroke-width:0.8;" x="57.6" xlink:href="#ma969f51ae7" y="242.126335"/>
      </g>
     </g>
     <g id="text_28">
      <!-- 2 -->
      <defs>
       <path d="M 19.1875 8.296875 
L 53.609375 8.296875 
L 53.609375 0 
L 7.328125 0 
L 7.328125 8.296875 
Q 12.9375 14.109375 22.625 23.890625 
Q 32.328125 33.6875 34.8125 36.53125 
Q 39.546875 41.84375 41.421875 45.53125 
Q 43.3125 49.21875 43.3125 52.78125 
Q 43.3125 58.59375 39.234375 62.25 
Q 35.15625 65.921875 28.609375 65.921875 
Q 23.96875 65.921875 18.8125 64.3125 
Q 13.671875 62.703125 7.8125 59.421875 
L 7.8125 69.390625 
Q 13.765625 71.78125 18.9375 73 
Q 24.125 74.21875 28.421875 74.21875 
Q 39.75 74.21875 46.484375 68.546875 
Q 53.21875 62.890625 53.21875 53.421875 
Q 53.21875 48.921875 51.53125 44.890625 
Q 49.859375 40.875 45.40625 35.40625 
Q 44.1875 33.984375 37.640625 27.21875 
Q 31.109375 20.453125 19.1875 8.296875 
z
" id="DejaVuSans-50"/>
      </defs>
      <g transform="translate(44.2375 245.925553)scale(0.1 -0.1)">
       <use xlink:href="#DejaVuSans-50"/>
      </g>
     </g>
    </g>
    <g id="text_29">
     <!-- Density -->
     <g transform="translate(38.157812 293.328594)rotate(-90)scale(0.1 -0.1)">
      <use xlink:href="#DejaVuSans-68"/>
      <use x="77.001953" xlink:href="#DejaVuSans-101"/>
      <use x="138.525391" xlink:href="#DejaVuSans-110"/>
      <use x="201.904297" xlink:href="#DejaVuSans-115"/>
      <use x="254.003906" xlink:href="#DejaVuSans-105"/>
      <use x="281.787109" xlink:href="#DejaVuSans-116"/>
      <use x="320.996094" xlink:href="#DejaVuSans-121"/>
     </g>
    </g>
   </g>
   <g id="line2d_26">
    <path clip-path="url(#p94bec711d9)" d="M 73.832727 307.582559 
L 77.112066 307.58105 
L 80.391405 307.578192 
L 83.670744 307.572963 
L 86.950083 307.563672 
L 90.229421 307.547561 
L 93.50876 307.52021 
L 96.788099 307.474665 
L 100.067438 307.400309 
L 103.346777 307.281579 
L 106.626116 307.096817 
L 109.905455 306.817746 
L 113.184793 306.410146 
L 116.464132 305.836223 
L 119.743471 305.058832 
L 123.02281 304.047154 
L 126.302149 302.782861 
L 129.581488 301.265471 
L 132.860826 299.515698 
L 136.140165 297.576127 
L 139.419504 295.509298 
L 142.698843 293.393872 
L 145.978182 291.319687 
L 149.257521 289.382185 
L 152.53686 287.676199 
L 155.816198 286.288789 
L 159.095537 285.291168 
L 162.374876 284.730463 
L 165.654215 284.622872 
L 168.933554 284.950055 
L 172.212893 285.659991 
L 175.492231 286.672367 
L 178.77157 287.88726 
L 182.050909 289.195052 
L 185.330248 290.485602 
L 188.609587 291.655258 
L 191.888926 292.61114 
L 195.168264 293.272698 
L 198.447603 293.57104 
L 201.726942 293.446994 
L 205.006281 292.849601 
L 208.28562 291.737391 
L 211.564959 290.084693 
L 214.844298 287.893854 
L 218.123636 285.211569 
L 221.402975 282.14441 
L 224.682314 278.866698 
L 227.961653 275.614305 
L 231.240992 272.661459 
L 234.520331 270.283085 
L 237.799669 268.710716 
L 241.079008 268.093189 
L 244.358347 268.472675 
L 247.637686 269.782092 
L 250.917025 271.863443 
L 254.196364 274.500522 
L 257.475702 277.456198 
L 260.755041 280.504911 
L 264.03438 283.454501 
L 267.313719 286.156014 
L 270.593058 288.503876 
L 273.872397 290.430557 
L 277.151736 291.89959 
L 280.431074 292.899495 
L 283.710413 293.439535 
L 286.989752 293.547164 
L 290.269091 293.266427 
L 293.54843 292.656425 
L 296.827769 291.789143 
L 300.107107 290.74634 
L 303.386446 289.615744 
L 306.665785 288.487292 
L 309.945124 287.450138 
L 313.224463 286.590663 
L 316.503802 285.990802 
L 319.78314 285.725293 
L 323.062479 285.856536 
L 326.341818 286.426795 
L 329.621157 287.449113 
L 332.900496 288.899742 
L 336.179835 290.71529 
L 339.459174 292.796767 
L 342.738512 295.02073 
L 346.017851 297.255468 
L 349.29719 299.378585 
L 352.576529 301.292046 
L 355.855868 302.931609 
L 359.135207 304.26937 
L 362.414545 305.309946 
L 365.693884 306.082293 
L 368.973223 306.629735 
L 372.252562 307.00056 
L 375.531901 307.240786 
L 378.81124 307.389726 
L 382.090579 307.47817 
L 385.369917 307.528511 
L 388.649256 307.555994 
L 391.928595 307.570394 
L 395.207934 307.577638 
L 398.487273 307.581138 
" style="fill:none;stroke:#8b0000;stroke-linecap:square;stroke-width:4;"/>
   </g>
   <g id="patch_167">
    <path d="M 57.6 307.584 
L 57.6 241.056 
" style="fill:none;stroke:#000000;stroke-linecap:square;stroke-linejoin:miter;stroke-width:0.8;"/>
   </g>
   <g id="patch_168">
    <path d="M 414.72 307.584 
L 414.72 241.056 
" style="fill:none;stroke:#000000;stroke-linecap:square;stroke-linejoin:miter;stroke-width:0.8;"/>
   </g>
   <g id="patch_169">
    <path d="M 57.6 307.584 
L 414.72 307.584 
" style="fill:none;stroke:#000000;stroke-linecap:square;stroke-linejoin:miter;stroke-width:0.8;"/>
   </g>
   <g id="patch_170">
    <path d="M 57.6 241.056 
L 414.72 241.056 
" style="fill:none;stroke:#000000;stroke-linecap:square;stroke-linejoin:miter;stroke-width:0.8;"/>
   </g>
   <g id="legend_3">
    <g id="patch_171">
     <path d="M 370.471563 263.734125 
L 407.72 263.734125 
Q 409.72 263.734125 409.72 261.734125 
L 409.72 248.056 
Q 409.72 246.056 407.72 246.056 
L 370.471563 246.056 
Q 368.471563 246.056 368.471563 248.056 
L 368.471563 261.734125 
Q 368.471563 263.734125 370.471563 263.734125 
z
" style="fill:#ffffff;opacity:0.8;stroke:#cccccc;stroke-linejoin:miter;"/>
    </g>
    <g id="patch_172">
     <path d="M 372.471563 257.654437 
L 392.471563 257.654437 
L 392.471563 250.654437 
L 372.471563 250.654437 
z
" style="fill:#8b0000;opacity:0.4;stroke:#000000;stroke-linejoin:miter;"/>
    </g>
    <g id="text_30">
     <!-- z -->
     <defs>
      <path d="M 5.515625 54.6875 
L 48.1875 54.6875 
L 48.1875 46.484375 
L 14.40625 7.171875 
L 48.1875 7.171875 
L 48.1875 0 
L 4.296875 0 
L 4.296875 8.203125 
L 38.09375 47.515625 
L 5.515625 47.515625 
z
" id="DejaVuSans-122"/>
     </defs>
     <g transform="translate(400.471563 257.654437)scale(0.1 -0.1)">
      <use xlink:href="#DejaVuSans-122"/>
     </g>
    </g>
   </g>
  </g>
  <g id="text_31">
   <!-- Motif 2 Zr 1182 Histogram -->
   <defs>
    <path d="M 9.8125 72.90625 
L 24.515625 72.90625 
L 43.109375 23.296875 
L 61.8125 72.90625 
L 76.515625 72.90625 
L 76.515625 0 
L 66.890625 0 
L 66.890625 64.015625 
L 48.09375 14.015625 
L 38.1875 14.015625 
L 19.390625 64.015625 
L 19.390625 0 
L 9.8125 0 
z
" id="DejaVuSans-77"/>
    <path d="M 37.109375 75.984375 
L 37.109375 68.5 
L 28.515625 68.5 
Q 23.6875 68.5 21.796875 66.546875 
Q 19.921875 64.59375 19.921875 59.515625 
L 19.921875 54.6875 
L 34.71875 54.6875 
L 34.71875 47.703125 
L 19.921875 47.703125 
L 19.921875 0 
L 10.890625 0 
L 10.890625 47.703125 
L 2.296875 47.703125 
L 2.296875 54.6875 
L 10.890625 54.6875 
L 10.890625 58.5 
Q 10.890625 67.625 15.140625 71.796875 
Q 19.390625 75.984375 28.609375 75.984375 
z
" id="DejaVuSans-102"/>
    <path id="DejaVuSans-32"/>
    <path d="M 5.609375 72.90625 
L 62.890625 72.90625 
L 62.890625 65.375 
L 16.796875 8.296875 
L 64.015625 8.296875 
L 64.015625 0 
L 4.5 0 
L 4.5 7.515625 
L 50.59375 64.59375 
L 5.609375 64.59375 
z
" id="DejaVuSans-90"/>
    <path d="M 41.109375 46.296875 
Q 39.59375 47.171875 37.8125 47.578125 
Q 36.03125 48 33.890625 48 
Q 26.265625 48 22.1875 43.046875 
Q 18.109375 38.09375 18.109375 28.8125 
L 18.109375 0 
L 9.078125 0 
L 9.078125 54.6875 
L 18.109375 54.6875 
L 18.109375 46.1875 
Q 20.953125 51.171875 25.484375 53.578125 
Q 30.03125 56 36.53125 56 
Q 37.453125 56 38.578125 55.875 
Q 39.703125 55.765625 41.0625 55.515625 
z
" id="DejaVuSans-114"/>
    <path d="M 31.78125 34.625 
Q 24.75 34.625 20.71875 30.859375 
Q 16.703125 27.09375 16.703125 20.515625 
Q 16.703125 13.921875 20.71875 10.15625 
Q 24.75 6.390625 31.78125 6.390625 
Q 38.8125 6.390625 42.859375 10.171875 
Q 46.921875 13.96875 46.921875 20.515625 
Q 46.921875 27.09375 42.890625 30.859375 
Q 38.875 34.625 31.78125 34.625 
z
M 21.921875 38.8125 
Q 15.578125 40.375 12.03125 44.71875 
Q 8.5 49.078125 8.5 55.328125 
Q 8.5 64.0625 14.71875 69.140625 
Q 20.953125 74.21875 31.78125 74.21875 
Q 42.671875 74.21875 48.875 69.140625 
Q 55.078125 64.0625 55.078125 55.328125 
Q 55.078125 49.078125 51.53125 44.71875 
Q 48 40.375 41.703125 38.8125 
Q 48.828125 37.15625 52.796875 32.3125 
Q 56.78125 27.484375 56.78125 20.515625 
Q 56.78125 9.90625 50.3125 4.234375 
Q 43.84375 -1.421875 31.78125 -1.421875 
Q 19.734375 -1.421875 13.25 4.234375 
Q 6.78125 9.90625 6.78125 20.515625 
Q 6.78125 27.484375 10.78125 32.3125 
Q 14.796875 37.15625 21.921875 38.8125 
z
M 18.3125 54.390625 
Q 18.3125 48.734375 21.84375 45.5625 
Q 25.390625 42.390625 31.78125 42.390625 
Q 38.140625 42.390625 41.71875 45.5625 
Q 45.3125 48.734375 45.3125 54.390625 
Q 45.3125 60.0625 41.71875 63.234375 
Q 38.140625 66.40625 31.78125 66.40625 
Q 25.390625 66.40625 21.84375 63.234375 
Q 18.3125 60.0625 18.3125 54.390625 
z
" id="DejaVuSans-56"/>
    <path d="M 9.8125 72.90625 
L 19.671875 72.90625 
L 19.671875 43.015625 
L 55.515625 43.015625 
L 55.515625 72.90625 
L 65.375 72.90625 
L 65.375 0 
L 55.515625 0 
L 55.515625 34.71875 
L 19.671875 34.71875 
L 19.671875 0 
L 9.8125 0 
z
" id="DejaVuSans-72"/>
    <path d="M 45.40625 27.984375 
Q 45.40625 37.75 41.375 43.109375 
Q 37.359375 48.484375 30.078125 48.484375 
Q 22.859375 48.484375 18.828125 43.109375 
Q 14.796875 37.75 14.796875 27.984375 
Q 14.796875 18.265625 18.828125 12.890625 
Q 22.859375 7.515625 30.078125 7.515625 
Q 37.359375 7.515625 41.375 12.890625 
Q 45.40625 18.265625 45.40625 27.984375 
z
M 54.390625 6.78125 
Q 54.390625 -7.171875 48.1875 -13.984375 
Q 42 -20.796875 29.203125 -20.796875 
Q 24.46875 -20.796875 20.265625 -20.09375 
Q 16.0625 -19.390625 12.109375 -17.921875 
L 12.109375 -9.1875 
Q 16.0625 -11.328125 19.921875 -12.34375 
Q 23.78125 -13.375 27.78125 -13.375 
Q 36.625 -13.375 41.015625 -8.765625 
Q 45.40625 -4.15625 45.40625 5.171875 
L 45.40625 9.625 
Q 42.625 4.78125 38.28125 2.390625 
Q 33.9375 0 27.875 0 
Q 17.828125 0 11.671875 7.65625 
Q 5.515625 15.328125 5.515625 27.984375 
Q 5.515625 40.671875 11.671875 48.328125 
Q 17.828125 56 27.875 56 
Q 33.9375 56 38.28125 53.609375 
Q 42.625 51.21875 45.40625 46.390625 
L 45.40625 54.6875 
L 54.390625 54.6875 
z
" id="DejaVuSans-103"/>
    <path d="M 34.28125 27.484375 
Q 23.390625 27.484375 19.1875 25 
Q 14.984375 22.515625 14.984375 16.5 
Q 14.984375 11.71875 18.140625 8.90625 
Q 21.296875 6.109375 26.703125 6.109375 
Q 34.1875 6.109375 38.703125 11.40625 
Q 43.21875 16.703125 43.21875 25.484375 
L 43.21875 27.484375 
z
M 52.203125 31.203125 
L 52.203125 0 
L 43.21875 0 
L 43.21875 8.296875 
Q 40.140625 3.328125 35.546875 0.953125 
Q 30.953125 -1.421875 24.3125 -1.421875 
Q 15.921875 -1.421875 10.953125 3.296875 
Q 6 8.015625 6 15.921875 
Q 6 25.140625 12.171875 29.828125 
Q 18.359375 34.515625 30.609375 34.515625 
L 43.21875 34.515625 
L 43.21875 35.40625 
Q 43.21875 41.609375 39.140625 45 
Q 35.0625 48.390625 27.6875 48.390625 
Q 23 48.390625 18.546875 47.265625 
Q 14.109375 46.140625 10.015625 43.890625 
L 10.015625 52.203125 
Q 14.9375 54.109375 19.578125 55.046875 
Q 24.21875 56 28.609375 56 
Q 40.484375 56 46.34375 49.84375 
Q 52.203125 43.703125 52.203125 31.203125 
z
" id="DejaVuSans-97"/>
    <path d="M 52 44.1875 
Q 55.375 50.25 60.0625 53.125 
Q 64.75 56 71.09375 56 
Q 79.640625 56 84.28125 50.015625 
Q 88.921875 44.046875 88.921875 33.015625 
L 88.921875 0 
L 79.890625 0 
L 79.890625 32.71875 
Q 79.890625 40.578125 77.09375 44.375 
Q 74.3125 48.1875 68.609375 48.1875 
Q 61.625 48.1875 57.5625 43.546875 
Q 53.515625 38.921875 53.515625 30.90625 
L 53.515625 0 
L 44.484375 0 
L 44.484375 32.71875 
Q 44.484375 40.625 41.703125 44.40625 
Q 38.921875 48.1875 33.109375 48.1875 
Q 26.21875 48.1875 22.15625 43.53125 
Q 18.109375 38.875 18.109375 30.90625 
L 18.109375 0 
L 9.078125 0 
L 9.078125 54.6875 
L 18.109375 54.6875 
L 18.109375 46.1875 
Q 21.1875 51.21875 25.484375 53.609375 
Q 29.78125 56 35.6875 56 
Q 41.65625 56 45.828125 52.96875 
Q 50 49.953125 52 44.1875 
z
" id="DejaVuSans-109"/>
   </defs>
   <g transform="translate(151.004063 16.030125)scale(0.12 -0.12)">
    <use xlink:href="#DejaVuSans-77"/>
    <use x="86.279297" xlink:href="#DejaVuSans-111"/>
    <use x="147.460938" xlink:href="#DejaVuSans-116"/>
    <use x="186.669922" xlink:href="#DejaVuSans-105"/>
    <use x="214.453125" xlink:href="#DejaVuSans-102"/>
    <use x="249.658203" xlink:href="#DejaVuSans-32"/>
    <use x="281.445312" xlink:href="#DejaVuSans-50"/>
    <use x="345.068359" xlink:href="#DejaVuSans-32"/>
    <use x="376.855469" xlink:href="#DejaVuSans-90"/>
    <use x="445.361328" xlink:href="#DejaVuSans-114"/>
    <use x="486.474609" xlink:href="#DejaVuSans-32"/>
    <use x="518.261719" xlink:href="#DejaVuSans-49"/>
    <use x="581.884766" xlink:href="#DejaVuSans-49"/>
    <use x="645.507812" xlink:href="#DejaVuSans-56"/>
    <use x="709.130859" xlink:href="#DejaVuSans-50"/>
    <use x="772.753906" xlink:href="#DejaVuSans-32"/>
    <use x="804.541016" xlink:href="#DejaVuSans-72"/>
    <use x="879.736328" xlink:href="#DejaVuSans-105"/>
    <use x="907.519531" xlink:href="#DejaVuSans-115"/>
    <use x="959.619141" xlink:href="#DejaVuSans-116"/>
    <use x="998.828125" xlink:href="#DejaVuSans-111"/>
    <use x="1060.009766" xlink:href="#DejaVuSans-103"/>
    <use x="1123.486328" xlink:href="#DejaVuSans-114"/>
    <use x="1164.599609" xlink:href="#DejaVuSans-97"/>
    <use x="1225.878906" xlink:href="#DejaVuSans-109"/>
   </g>
  </g>
 </g>
 <defs>
  <clipPath id="p24d3be76d9">
   <rect height="66.528" width="357.12" x="57.6" y="41.472"/>
  </clipPath>
  <clipPath id="p6f36570709">
   <rect height="66.528" width="357.12" x="57.6" y="141.264"/>
  </clipPath>
  <clipPath id="p94bec711d9">
   <rect height="66.528" width="357.12" x="57.6" y="241.056"/>
  </clipPath>
 </defs>
</svg>
