<?xml version="1.0" encoding="utf-8" standalone="no"?>
<!DOCTYPE svg PUBLIC "-//W3C//DTD SVG 1.1//EN"
  "http://www.w3.org/Graphics/SVG/1.1/DTD/svg11.dtd">
<!-- Created with matplotlib (https://matplotlib.org/) -->
<svg height="345.6pt" version="1.1" viewBox="0 0 460.8 345.6" width="460.8pt" xmlns="http://www.w3.org/2000/svg" xmlns:xlink="http://www.w3.org/1999/xlink">
 <defs>
  <style type="text/css">
*{stroke-linecap:butt;stroke-linejoin:round;}
  </style>
 </defs>
 <g id="figure_1">
  <g id="patch_1">
   <path d="M 0 345.6 
L 460.8 345.6 
L 460.8 0 
L 0 0 
z
" style="fill:#ffffff;"/>
  </g>
  <g id="axes_1">
   <g id="patch_2">
    <path d="M 57.6 108 
L 414.72 108 
L 414.72 41.472 
L 57.6 41.472 
z
" style="fill:#ffffff;"/>
   </g>
   <g id="patch_3">
    <path clip-path="url(#p6b81a0da1e)" d="M 108.968028 108 
L 114.055707 108 
L 114.055707 106.202553 
L 108.968028 106.202553 
z
" style="fill:#00008b;opacity:0.4;stroke:#000000;stroke-linejoin:miter;"/>
   </g>
   <g id="patch_4">
    <path clip-path="url(#p6b81a0da1e)" d="M 114.055707 108 
L 119.143385 108 
L 119.143385 105.753191 
L 114.055707 105.753191 
z
" style="fill:#00008b;opacity:0.4;stroke:#000000;stroke-linejoin:miter;"/>
   </g>
   <g id="patch_5">
    <path clip-path="url(#p6b81a0da1e)" d="M 119.143385 108 
L 124.231064 108 
L 124.231064 103.506383 
L 119.143385 103.506383 
z
" style="fill:#00008b;opacity:0.4;stroke:#000000;stroke-linejoin:miter;"/>
   </g>
   <g id="patch_6">
    <path clip-path="url(#p6b81a0da1e)" d="M 124.231064 108 
L 129.318743 108 
L 129.318743 96.765957 
L 124.231064 96.765957 
z
" style="fill:#00008b;opacity:0.4;stroke:#000000;stroke-linejoin:miter;"/>
   </g>
   <g id="patch_7">
    <path clip-path="url(#p6b81a0da1e)" d="M 129.318743 108 
L 134.406422 108 
L 134.406422 96.316596 
L 129.318743 96.316596 
z
" style="fill:#00008b;opacity:0.4;stroke:#000000;stroke-linejoin:miter;"/>
   </g>
   <g id="patch_8">
    <path clip-path="url(#p6b81a0da1e)" d="M 134.406422 108 
L 139.494101 108 
L 139.494101 89.126809 
L 134.406422 89.126809 
z
" style="fill:#00008b;opacity:0.4;stroke:#000000;stroke-linejoin:miter;"/>
   </g>
   <g id="patch_9">
    <path clip-path="url(#p6b81a0da1e)" d="M 139.494101 108 
L 144.58178 108 
L 144.58178 84.18383 
L 139.494101 84.18383 
z
" style="fill:#00008b;opacity:0.4;stroke:#000000;stroke-linejoin:miter;"/>
   </g>
   <g id="patch_10">
    <path clip-path="url(#p6b81a0da1e)" d="M 144.58178 108 
L 149.669459 108 
L 149.669459 77.443404 
L 144.58178 77.443404 
z
" style="fill:#00008b;opacity:0.4;stroke:#000000;stroke-linejoin:miter;"/>
   </g>
   <g id="patch_11">
    <path clip-path="url(#p6b81a0da1e)" d="M 149.669459 108 
L 154.757138 108 
L 154.757138 75.196596 
L 149.669459 75.196596 
z
" style="fill:#00008b;opacity:0.4;stroke:#000000;stroke-linejoin:miter;"/>
   </g>
   <g id="patch_12">
    <path clip-path="url(#p6b81a0da1e)" d="M 154.757138 108 
L 159.844817 108 
L 159.844817 76.994043 
L 154.757138 76.994043 
z
" style="fill:#00008b;opacity:0.4;stroke:#000000;stroke-linejoin:miter;"/>
   </g>
   <g id="patch_13">
    <path clip-path="url(#p6b81a0da1e)" d="M 159.844817 108 
L 164.932495 108 
L 164.932495 74.747234 
L 159.844817 74.747234 
z
" style="fill:#00008b;opacity:0.4;stroke:#000000;stroke-linejoin:miter;"/>
   </g>
   <g id="patch_14">
    <path clip-path="url(#p6b81a0da1e)" d="M 164.932495 108 
L 170.020174 108 
L 170.020174 61.266383 
L 164.932495 61.266383 
z
" style="fill:#00008b;opacity:0.4;stroke:#000000;stroke-linejoin:miter;"/>
   </g>
   <g id="patch_15">
    <path clip-path="url(#p6b81a0da1e)" d="M 170.020174 108 
L 175.107853 108 
L 175.107853 69.354894 
L 170.020174 69.354894 
z
" style="fill:#00008b;opacity:0.4;stroke:#000000;stroke-linejoin:miter;"/>
   </g>
   <g id="patch_16">
    <path clip-path="url(#p6b81a0da1e)" d="M 175.107853 108 
L 180.195532 108 
L 180.195532 72.949787 
L 175.107853 72.949787 
z
" style="fill:#00008b;opacity:0.4;stroke:#000000;stroke-linejoin:miter;"/>
   </g>
   <g id="patch_17">
    <path clip-path="url(#p6b81a0da1e)" d="M 180.195532 108 
L 185.283211 108 
L 185.283211 72.949787 
L 180.195532 72.949787 
z
" style="fill:#00008b;opacity:0.4;stroke:#000000;stroke-linejoin:miter;"/>
   </g>
   <g id="patch_18">
    <path clip-path="url(#p6b81a0da1e)" d="M 185.283211 108 
L 190.37089 108 
L 190.37089 69.354894 
L 185.283211 69.354894 
z
" style="fill:#00008b;opacity:0.4;stroke:#000000;stroke-linejoin:miter;"/>
   </g>
   <g id="patch_19">
    <path clip-path="url(#p6b81a0da1e)" d="M 190.37089 108 
L 195.458569 108 
L 195.458569 72.500426 
L 190.37089 72.500426 
z
" style="fill:#00008b;opacity:0.4;stroke:#000000;stroke-linejoin:miter;"/>
   </g>
   <g id="patch_20">
    <path clip-path="url(#p6b81a0da1e)" d="M 195.458569 108 
L 200.546248 108 
L 200.546248 75.196596 
L 195.458569 75.196596 
z
" style="fill:#00008b;opacity:0.4;stroke:#000000;stroke-linejoin:miter;"/>
   </g>
   <g id="patch_21">
    <path clip-path="url(#p6b81a0da1e)" d="M 200.546248 108 
L 205.633927 108 
L 205.633927 70.253617 
L 200.546248 70.253617 
z
" style="fill:#00008b;opacity:0.4;stroke:#000000;stroke-linejoin:miter;"/>
   </g>
   <g id="patch_22">
    <path clip-path="url(#p6b81a0da1e)" d="M 205.633927 108 
L 210.721606 108 
L 210.721606 72.500426 
L 205.633927 72.500426 
z
" style="fill:#00008b;opacity:0.4;stroke:#000000;stroke-linejoin:miter;"/>
   </g>
   <g id="patch_23">
    <path clip-path="url(#p6b81a0da1e)" d="M 210.721606 108 
L 215.809284 108 
L 215.809284 79.690213 
L 210.721606 79.690213 
z
" style="fill:#00008b;opacity:0.4;stroke:#000000;stroke-linejoin:miter;"/>
   </g>
   <g id="patch_24">
    <path clip-path="url(#p6b81a0da1e)" d="M 215.809284 108 
L 220.896963 108 
L 220.896963 75.645957 
L 215.809284 75.645957 
z
" style="fill:#00008b;opacity:0.4;stroke:#000000;stroke-linejoin:miter;"/>
   </g>
   <g id="patch_25">
    <path clip-path="url(#p6b81a0da1e)" d="M 220.896963 108 
L 225.984642 108 
L 225.984642 69.804255 
L 220.896963 69.804255 
z
" style="fill:#00008b;opacity:0.4;stroke:#000000;stroke-linejoin:miter;"/>
   </g>
   <g id="patch_26">
    <path clip-path="url(#p6b81a0da1e)" d="M 225.984642 108 
L 231.072321 108 
L 231.072321 71.601702 
L 225.984642 71.601702 
z
" style="fill:#00008b;opacity:0.4;stroke:#000000;stroke-linejoin:miter;"/>
   </g>
   <g id="patch_27">
    <path clip-path="url(#p6b81a0da1e)" d="M 231.072321 108 
L 236.16 108 
L 236.16 44.64 
L 231.072321 44.64 
z
" style="fill:#00008b;opacity:0.4;stroke:#000000;stroke-linejoin:miter;"/>
   </g>
   <g id="patch_28">
    <path clip-path="url(#p6b81a0da1e)" d="M 236.16 108 
L 241.247679 108 
L 241.247679 45.538723 
L 236.16 45.538723 
z
" style="fill:#00008b;opacity:0.4;stroke:#000000;stroke-linejoin:miter;"/>
   </g>
   <g id="patch_29">
    <path clip-path="url(#p6b81a0da1e)" d="M 241.247679 108 
L 246.335358 108 
L 246.335358 56.772766 
L 241.247679 56.772766 
z
" style="fill:#00008b;opacity:0.4;stroke:#000000;stroke-linejoin:miter;"/>
   </g>
   <g id="patch_30">
    <path clip-path="url(#p6b81a0da1e)" d="M 246.335358 108 
L 251.423037 108 
L 251.423037 72.051064 
L 246.335358 72.051064 
z
" style="fill:#00008b;opacity:0.4;stroke:#000000;stroke-linejoin:miter;"/>
   </g>
   <g id="patch_31">
    <path clip-path="url(#p6b81a0da1e)" d="M 251.423037 108 
L 256.510716 108 
L 256.510716 71.601702 
L 251.423037 71.601702 
z
" style="fill:#00008b;opacity:0.4;stroke:#000000;stroke-linejoin:miter;"/>
   </g>
   <g id="patch_32">
    <path clip-path="url(#p6b81a0da1e)" d="M 256.510716 108 
L 261.598394 108 
L 261.598394 75.196596 
L 256.510716 75.196596 
z
" style="fill:#00008b;opacity:0.4;stroke:#000000;stroke-linejoin:miter;"/>
   </g>
   <g id="patch_33">
    <path clip-path="url(#p6b81a0da1e)" d="M 261.598394 108 
L 266.686073 108 
L 266.686073 68.45617 
L 261.598394 68.45617 
z
" style="fill:#00008b;opacity:0.4;stroke:#000000;stroke-linejoin:miter;"/>
   </g>
   <g id="patch_34">
    <path clip-path="url(#p6b81a0da1e)" d="M 266.686073 108 
L 271.773752 108 
L 271.773752 72.500426 
L 266.686073 72.500426 
z
" style="fill:#00008b;opacity:0.4;stroke:#000000;stroke-linejoin:miter;"/>
   </g>
   <g id="patch_35">
    <path clip-path="url(#p6b81a0da1e)" d="M 271.773752 108 
L 276.861431 108 
L 276.861431 67.557447 
L 271.773752 67.557447 
z
" style="fill:#00008b;opacity:0.4;stroke:#000000;stroke-linejoin:miter;"/>
   </g>
   <g id="patch_36">
    <path clip-path="url(#p6b81a0da1e)" d="M 276.861431 108 
L 281.94911 108 
L 281.94911 72.500426 
L 276.861431 72.500426 
z
" style="fill:#00008b;opacity:0.4;stroke:#000000;stroke-linejoin:miter;"/>
   </g>
   <g id="patch_37">
    <path clip-path="url(#p6b81a0da1e)" d="M 281.94911 108 
L 287.036789 108 
L 287.036789 82.835745 
L 281.94911 82.835745 
z
" style="fill:#00008b;opacity:0.4;stroke:#000000;stroke-linejoin:miter;"/>
   </g>
   <g id="patch_38">
    <path clip-path="url(#p6b81a0da1e)" d="M 287.036789 108 
L 292.124468 108 
L 292.124468 74.747234 
L 287.036789 74.747234 
z
" style="fill:#00008b;opacity:0.4;stroke:#000000;stroke-linejoin:miter;"/>
   </g>
   <g id="patch_39">
    <path clip-path="url(#p6b81a0da1e)" d="M 292.124468 108 
L 297.212147 108 
L 297.212147 63.962553 
L 292.124468 63.962553 
z
" style="fill:#00008b;opacity:0.4;stroke:#000000;stroke-linejoin:miter;"/>
   </g>
   <g id="patch_40">
    <path clip-path="url(#p6b81a0da1e)" d="M 297.212147 108 
L 302.299826 108 
L 302.299826 68.45617 
L 297.212147 68.45617 
z
" style="fill:#00008b;opacity:0.4;stroke:#000000;stroke-linejoin:miter;"/>
   </g>
   <g id="patch_41">
    <path clip-path="url(#p6b81a0da1e)" d="M 302.299826 108 
L 307.387505 108 
L 307.387505 68.006809 
L 302.299826 68.006809 
z
" style="fill:#00008b;opacity:0.4;stroke:#000000;stroke-linejoin:miter;"/>
   </g>
   <g id="patch_42">
    <path clip-path="url(#p6b81a0da1e)" d="M 307.387505 108 
L 312.475183 108 
L 312.475183 69.354894 
L 307.387505 69.354894 
z
" style="fill:#00008b;opacity:0.4;stroke:#000000;stroke-linejoin:miter;"/>
   </g>
   <g id="patch_43">
    <path clip-path="url(#p6b81a0da1e)" d="M 312.475183 108 
L 317.562862 108 
L 317.562862 76.994043 
L 312.475183 76.994043 
z
" style="fill:#00008b;opacity:0.4;stroke:#000000;stroke-linejoin:miter;"/>
   </g>
   <g id="patch_44">
    <path clip-path="url(#p6b81a0da1e)" d="M 317.562862 108 
L 322.650541 108 
L 322.650541 74.747234 
L 317.562862 74.747234 
z
" style="fill:#00008b;opacity:0.4;stroke:#000000;stroke-linejoin:miter;"/>
   </g>
   <g id="patch_45">
    <path clip-path="url(#p6b81a0da1e)" d="M 322.650541 108 
L 327.73822 108 
L 327.73822 80.139574 
L 322.650541 80.139574 
z
" style="fill:#00008b;opacity:0.4;stroke:#000000;stroke-linejoin:miter;"/>
   </g>
   <g id="patch_46">
    <path clip-path="url(#p6b81a0da1e)" d="M 327.73822 108 
L 332.825899 108 
L 332.825899 84.18383 
L 327.73822 84.18383 
z
" style="fill:#00008b;opacity:0.4;stroke:#000000;stroke-linejoin:miter;"/>
   </g>
   <g id="patch_47">
    <path clip-path="url(#p6b81a0da1e)" d="M 332.825899 108 
L 337.913578 108 
L 337.913578 78.791489 
L 332.825899 78.791489 
z
" style="fill:#00008b;opacity:0.4;stroke:#000000;stroke-linejoin:miter;"/>
   </g>
   <g id="patch_48">
    <path clip-path="url(#p6b81a0da1e)" d="M 337.913578 108 
L 343.001257 108 
L 343.001257 90.025532 
L 337.913578 90.025532 
z
" style="fill:#00008b;opacity:0.4;stroke:#000000;stroke-linejoin:miter;"/>
   </g>
   <g id="patch_49">
    <path clip-path="url(#p6b81a0da1e)" d="M 343.001257 108 
L 348.088936 108 
L 348.088936 94.069787 
L 343.001257 94.069787 
z
" style="fill:#00008b;opacity:0.4;stroke:#000000;stroke-linejoin:miter;"/>
   </g>
   <g id="patch_50">
    <path clip-path="url(#p6b81a0da1e)" d="M 348.088936 108 
L 353.176615 108 
L 353.176615 97.215319 
L 348.088936 97.215319 
z
" style="fill:#00008b;opacity:0.4;stroke:#000000;stroke-linejoin:miter;"/>
   </g>
   <g id="patch_51">
    <path clip-path="url(#p6b81a0da1e)" d="M 353.176615 108 
L 358.264293 108 
L 358.264293 101.259574 
L 353.176615 101.259574 
z
" style="fill:#00008b;opacity:0.4;stroke:#000000;stroke-linejoin:miter;"/>
   </g>
   <g id="patch_52">
    <path clip-path="url(#p6b81a0da1e)" d="M 358.264293 108 
L 363.351972 108 
L 363.351972 105.753191 
L 358.264293 105.753191 
z
" style="fill:#00008b;opacity:0.4;stroke:#000000;stroke-linejoin:miter;"/>
   </g>
   <g id="matplotlib.axis_1">
    <g id="xtick_1">
     <g id="line2d_1">
      <defs>
       <path d="M 0 0 
L 0 3.5 
" id="m2473a41f77" style="stroke:#000000;stroke-width:0.8;"/>
      </defs>
      <g>
       <use style="stroke:#000000;stroke-width:0.8;" x="90.379685" xlink:href="#m2473a41f77" y="108"/>
      </g>
     </g>
     <g id="text_1">
      <!-- −1.0 -->
      <defs>
       <path d="M 10.59375 35.5 
L 73.1875 35.5 
L 73.1875 27.203125 
L 10.59375 27.203125 
z
" id="DejaVuSans-8722"/>
       <path d="M 12.40625 8.296875 
L 28.515625 8.296875 
L 28.515625 63.921875 
L 10.984375 60.40625 
L 10.984375 69.390625 
L 28.421875 72.90625 
L 38.28125 72.90625 
L 38.28125 8.296875 
L 54.390625 8.296875 
L 54.390625 0 
L 12.40625 0 
z
" id="DejaVuSans-49"/>
       <path d="M 10.6875 12.40625 
L 21 12.40625 
L 21 0 
L 10.6875 0 
z
" id="DejaVuSans-46"/>
       <path d="M 31.78125 66.40625 
Q 24.171875 66.40625 20.328125 58.90625 
Q 16.5 51.421875 16.5 36.375 
Q 16.5 21.390625 20.328125 13.890625 
Q 24.171875 6.390625 31.78125 6.390625 
Q 39.453125 6.390625 43.28125 13.890625 
Q 47.125 21.390625 47.125 36.375 
Q 47.125 51.421875 43.28125 58.90625 
Q 39.453125 66.40625 31.78125 66.40625 
z
M 31.78125 74.21875 
Q 44.046875 74.21875 50.515625 64.515625 
Q 56.984375 54.828125 56.984375 36.375 
Q 56.984375 17.96875 50.515625 8.265625 
Q 44.046875 -1.421875 31.78125 -1.421875 
Q 19.53125 -1.421875 13.0625 8.265625 
Q 6.59375 17.96875 6.59375 36.375 
Q 6.59375 54.828125 13.0625 64.515625 
Q 19.53125 74.21875 31.78125 74.21875 
z
" id="DejaVuSans-48"/>
      </defs>
      <g transform="translate(78.238278 122.598437)scale(0.1 -0.1)">
       <use xlink:href="#DejaVuSans-8722"/>
       <use x="83.789062" xlink:href="#DejaVuSans-49"/>
       <use x="147.412109" xlink:href="#DejaVuSans-46"/>
       <use x="179.199219" xlink:href="#DejaVuSans-48"/>
      </g>
     </g>
    </g>
    <g id="xtick_2">
     <g id="line2d_2">
      <g>
       <use style="stroke:#000000;stroke-width:0.8;" x="164.389848" xlink:href="#m2473a41f77" y="108"/>
      </g>
     </g>
     <g id="text_2">
      <!-- −0.5 -->
      <defs>
       <path d="M 10.796875 72.90625 
L 49.515625 72.90625 
L 49.515625 64.59375 
L 19.828125 64.59375 
L 19.828125 46.734375 
Q 21.96875 47.46875 24.109375 47.828125 
Q 26.265625 48.1875 28.421875 48.1875 
Q 40.625 48.1875 47.75 41.5 
Q 54.890625 34.8125 54.890625 23.390625 
Q 54.890625 11.625 47.5625 5.09375 
Q 40.234375 -1.421875 26.90625 -1.421875 
Q 22.3125 -1.421875 17.546875 -0.640625 
Q 12.796875 0.140625 7.71875 1.703125 
L 7.71875 11.625 
Q 12.109375 9.234375 16.796875 8.0625 
Q 21.484375 6.890625 26.703125 6.890625 
Q 35.15625 6.890625 40.078125 11.328125 
Q 45.015625 15.765625 45.015625 23.390625 
Q 45.015625 31 40.078125 35.4375 
Q 35.15625 39.890625 26.703125 39.890625 
Q 22.75 39.890625 18.8125 39.015625 
Q 14.890625 38.140625 10.796875 36.28125 
z
" id="DejaVuSans-53"/>
      </defs>
      <g transform="translate(152.248442 122.598437)scale(0.1 -0.1)">
       <use xlink:href="#DejaVuSans-8722"/>
       <use x="83.789062" xlink:href="#DejaVuSans-48"/>
       <use x="147.412109" xlink:href="#DejaVuSans-46"/>
       <use x="179.199219" xlink:href="#DejaVuSans-53"/>
      </g>
     </g>
    </g>
    <g id="xtick_3">
     <g id="line2d_3">
      <g>
       <use style="stroke:#000000;stroke-width:0.8;" x="238.400012" xlink:href="#m2473a41f77" y="108"/>
      </g>
     </g>
     <g id="text_3">
      <!-- 0.0 -->
      <g transform="translate(230.448449 122.598437)scale(0.1 -0.1)">
       <use xlink:href="#DejaVuSans-48"/>
       <use x="63.623047" xlink:href="#DejaVuSans-46"/>
       <use x="95.410156" xlink:href="#DejaVuSans-48"/>
      </g>
     </g>
    </g>
    <g id="xtick_4">
     <g id="line2d_4">
      <g>
       <use style="stroke:#000000;stroke-width:0.8;" x="312.410176" xlink:href="#m2473a41f77" y="108"/>
      </g>
     </g>
     <g id="text_4">
      <!-- 0.5 -->
      <g transform="translate(304.458613 122.598437)scale(0.1 -0.1)">
       <use xlink:href="#DejaVuSans-48"/>
       <use x="63.623047" xlink:href="#DejaVuSans-46"/>
       <use x="95.410156" xlink:href="#DejaVuSans-53"/>
      </g>
     </g>
    </g>
    <g id="xtick_5">
     <g id="line2d_5">
      <g>
       <use style="stroke:#000000;stroke-width:0.8;" x="386.420339" xlink:href="#m2473a41f77" y="108"/>
      </g>
     </g>
     <g id="text_5">
      <!-- 1.0 -->
      <g transform="translate(378.468777 122.598437)scale(0.1 -0.1)">
       <use xlink:href="#DejaVuSans-49"/>
       <use x="63.623047" xlink:href="#DejaVuSans-46"/>
       <use x="95.410156" xlink:href="#DejaVuSans-48"/>
      </g>
     </g>
    </g>
   </g>
   <g id="matplotlib.axis_2">
    <g id="ytick_1">
     <g id="line2d_6">
      <defs>
       <path d="M 0 0 
L -3.5 0 
" id="md1d8a34b4f" style="stroke:#000000;stroke-width:0.8;"/>
      </defs>
      <g>
       <use style="stroke:#000000;stroke-width:0.8;" x="57.6" xlink:href="#md1d8a34b4f" y="108"/>
      </g>
     </g>
     <g id="text_6">
      <!-- 0.0 -->
      <g transform="translate(34.696875 111.799219)scale(0.1 -0.1)">
       <use xlink:href="#DejaVuSans-48"/>
       <use x="63.623047" xlink:href="#DejaVuSans-46"/>
       <use x="95.410156" xlink:href="#DejaVuSans-48"/>
      </g>
     </g>
    </g>
    <g id="ytick_2">
     <g id="line2d_7">
      <g>
       <use style="stroke:#000000;stroke-width:0.8;" x="57.6" xlink:href="#md1d8a34b4f" y="81.820335"/>
      </g>
     </g>
     <g id="text_7">
      <!-- 0.5 -->
      <g transform="translate(34.696875 85.619553)scale(0.1 -0.1)">
       <use xlink:href="#DejaVuSans-48"/>
       <use x="63.623047" xlink:href="#DejaVuSans-46"/>
       <use x="95.410156" xlink:href="#DejaVuSans-53"/>
      </g>
     </g>
    </g>
    <g id="ytick_3">
     <g id="line2d_8">
      <g>
       <use style="stroke:#000000;stroke-width:0.8;" x="57.6" xlink:href="#md1d8a34b4f" y="55.640669"/>
      </g>
     </g>
     <g id="text_8">
      <!-- 1.0 -->
      <g transform="translate(34.696875 59.439888)scale(0.1 -0.1)">
       <use xlink:href="#DejaVuSans-49"/>
       <use x="63.623047" xlink:href="#DejaVuSans-46"/>
       <use x="95.410156" xlink:href="#DejaVuSans-48"/>
      </g>
     </g>
    </g>
    <g id="text_9">
     <!-- Density -->
     <defs>
      <path d="M 19.671875 64.796875 
L 19.671875 8.109375 
L 31.59375 8.109375 
Q 46.6875 8.109375 53.6875 14.9375 
Q 60.6875 21.78125 60.6875 36.53125 
Q 60.6875 51.171875 53.6875 57.984375 
Q 46.6875 64.796875 31.59375 64.796875 
z
M 9.8125 72.90625 
L 30.078125 72.90625 
Q 51.265625 72.90625 61.171875 64.09375 
Q 71.09375 55.28125 71.09375 36.53125 
Q 71.09375 17.671875 61.125 8.828125 
Q 51.171875 0 30.078125 0 
L 9.8125 0 
z
" id="DejaVuSans-68"/>
      <path d="M 56.203125 29.59375 
L 56.203125 25.203125 
L 14.890625 25.203125 
Q 15.484375 15.921875 20.484375 11.0625 
Q 25.484375 6.203125 34.421875 6.203125 
Q 39.59375 6.203125 44.453125 7.46875 
Q 49.3125 8.734375 54.109375 11.28125 
L 54.109375 2.78125 
Q 49.265625 0.734375 44.1875 -0.34375 
Q 39.109375 -1.421875 33.890625 -1.421875 
Q 20.796875 -1.421875 13.15625 6.1875 
Q 5.515625 13.8125 5.515625 26.8125 
Q 5.515625 40.234375 12.765625 48.109375 
Q 20.015625 56 32.328125 56 
Q 43.359375 56 49.78125 48.890625 
Q 56.203125 41.796875 56.203125 29.59375 
z
M 47.21875 32.234375 
Q 47.125 39.59375 43.09375 43.984375 
Q 39.0625 48.390625 32.421875 48.390625 
Q 24.90625 48.390625 20.390625 44.140625 
Q 15.875 39.890625 15.1875 32.171875 
z
" id="DejaVuSans-101"/>
      <path d="M 54.890625 33.015625 
L 54.890625 0 
L 45.90625 0 
L 45.90625 32.71875 
Q 45.90625 40.484375 42.875 44.328125 
Q 39.84375 48.1875 33.796875 48.1875 
Q 26.515625 48.1875 22.3125 43.546875 
Q 18.109375 38.921875 18.109375 30.90625 
L 18.109375 0 
L 9.078125 0 
L 9.078125 54.6875 
L 18.109375 54.6875 
L 18.109375 46.1875 
Q 21.34375 51.125 25.703125 53.5625 
Q 30.078125 56 35.796875 56 
Q 45.21875 56 50.046875 50.171875 
Q 54.890625 44.34375 54.890625 33.015625 
z
" id="DejaVuSans-110"/>
      <path d="M 44.28125 53.078125 
L 44.28125 44.578125 
Q 40.484375 46.53125 36.375 47.5 
Q 32.28125 48.484375 27.875 48.484375 
Q 21.1875 48.484375 17.84375 46.4375 
Q 14.5 44.390625 14.5 40.28125 
Q 14.5 37.15625 16.890625 35.375 
Q 19.28125 33.59375 26.515625 31.984375 
L 29.59375 31.296875 
Q 39.15625 29.25 43.1875 25.515625 
Q 47.21875 21.78125 47.21875 15.09375 
Q 47.21875 7.46875 41.1875 3.015625 
Q 35.15625 -1.421875 24.609375 -1.421875 
Q 20.21875 -1.421875 15.453125 -0.5625 
Q 10.6875 0.296875 5.421875 2 
L 5.421875 11.28125 
Q 10.40625 8.6875 15.234375 7.390625 
Q 20.0625 6.109375 24.8125 6.109375 
Q 31.15625 6.109375 34.5625 8.28125 
Q 37.984375 10.453125 37.984375 14.40625 
Q 37.984375 18.0625 35.515625 20.015625 
Q 33.0625 21.96875 24.703125 23.78125 
L 21.578125 24.515625 
Q 13.234375 26.265625 9.515625 29.90625 
Q 5.8125 33.546875 5.8125 39.890625 
Q 5.8125 47.609375 11.28125 51.796875 
Q 16.75 56 26.8125 56 
Q 31.78125 56 36.171875 55.265625 
Q 40.578125 54.546875 44.28125 53.078125 
z
" id="DejaVuSans-115"/>
      <path d="M 9.421875 54.6875 
L 18.40625 54.6875 
L 18.40625 0 
L 9.421875 0 
z
M 9.421875 75.984375 
L 18.40625 75.984375 
L 18.40625 64.59375 
L 9.421875 64.59375 
z
" id="DejaVuSans-105"/>
      <path d="M 18.3125 70.21875 
L 18.3125 54.6875 
L 36.8125 54.6875 
L 36.8125 47.703125 
L 18.3125 47.703125 
L 18.3125 18.015625 
Q 18.3125 11.328125 20.140625 9.421875 
Q 21.96875 7.515625 27.59375 7.515625 
L 36.8125 7.515625 
L 36.8125 0 
L 27.59375 0 
Q 17.1875 0 13.234375 3.875 
Q 9.28125 7.765625 9.28125 18.015625 
L 9.28125 47.703125 
L 2.6875 47.703125 
L 2.6875 54.6875 
L 9.28125 54.6875 
L 9.28125 70.21875 
z
" id="DejaVuSans-116"/>
      <path d="M 32.171875 -5.078125 
Q 28.375 -14.84375 24.75 -17.8125 
Q 21.140625 -20.796875 15.09375 -20.796875 
L 7.90625 -20.796875 
L 7.90625 -13.28125 
L 13.1875 -13.28125 
Q 16.890625 -13.28125 18.9375 -11.515625 
Q 21 -9.765625 23.484375 -3.21875 
L 25.09375 0.875 
L 2.984375 54.6875 
L 12.5 54.6875 
L 29.59375 11.921875 
L 46.6875 54.6875 
L 56.203125 54.6875 
z
" id="DejaVuSans-121"/>
     </defs>
     <g transform="translate(28.617187 93.744594)rotate(-90)scale(0.1 -0.1)">
      <use xlink:href="#DejaVuSans-68"/>
      <use x="77.001953" xlink:href="#DejaVuSans-101"/>
      <use x="138.525391" xlink:href="#DejaVuSans-110"/>
      <use x="201.904297" xlink:href="#DejaVuSans-115"/>
      <use x="254.003906" xlink:href="#DejaVuSans-105"/>
      <use x="281.787109" xlink:href="#DejaVuSans-116"/>
      <use x="320.996094" xlink:href="#DejaVuSans-121"/>
     </g>
    </g>
   </g>
   <g id="line2d_9">
    <path clip-path="url(#p6b81a0da1e)" d="M 73.832727 107.996922 
L 77.112066 107.992601 
L 80.391405 107.98331 
L 83.670744 107.964572 
L 86.950083 107.92899 
L 90.229421 107.865115 
L 93.50876 107.756269 
L 96.788099 107.579531 
L 100.067438 107.305208 
L 103.346777 106.897258 
L 106.626116 106.315164 
L 109.905455 105.51753 
L 113.184793 104.467147 
L 116.464132 103.136574 
L 119.743471 101.512982 
L 123.02281 99.601267 
L 126.302149 97.425269 
L 129.581488 95.027459 
L 132.860826 92.467316 
L 136.140165 89.817762 
L 139.419504 87.158651 
L 142.698843 84.56728 
L 145.978182 82.108265 
L 149.257521 79.827105 
L 152.53686 77.751362 
L 155.816198 75.899649 
L 159.095537 74.293422 
L 162.374876 72.963554 
L 165.654215 71.945747 
L 168.933554 71.265558 
L 172.212893 70.920863 
L 175.492231 70.872186 
L 178.77157 71.047318 
L 182.050909 71.358762 
L 185.330248 71.725813 
L 188.609587 72.091263 
L 191.888926 72.426026 
L 195.168264 72.720595 
L 198.447603 72.9673 
L 201.726942 73.140301 
L 205.006281 73.181238 
L 208.28562 72.997601 
L 211.564959 72.478132 
L 214.844298 71.524679 
L 218.123636 70.093692 
L 221.402975 68.234768 
L 224.682314 66.110703 
L 227.961653 63.985863 
L 231.240992 62.178405 
L 234.520331 60.985403 
L 237.799669 60.603253 
L 241.079008 61.071736 
L 244.358347 62.263889 
L 247.637686 63.926598 
L 250.917025 65.756614 
L 254.196364 67.483376 
L 257.475702 68.929777 
L 260.755041 70.033495 
L 264.03438 70.828096 
L 267.313719 71.397411 
L 270.593058 71.823954 
L 273.872397 72.151362 
L 277.151736 72.37345 
L 280.431074 72.451228 
L 283.710413 72.347872 
L 286.989752 72.064358 
L 290.269091 71.658775 
L 293.54843 71.240561 
L 296.827769 70.94315 
L 300.107107 70.888152 
L 303.386446 71.156293 
L 306.665785 71.774571 
L 309.945124 72.720423 
L 313.224463 73.937407 
L 316.503802 75.355478 
L 319.78314 76.910598 
L 323.062479 78.560131 
L 326.341818 80.290929 
L 329.621157 82.117433 
L 332.900496 84.069368 
L 336.179835 86.172684 
L 339.459174 88.430967 
L 342.738512 90.814842 
L 346.017851 93.263053 
L 349.29719 95.693412 
L 352.576529 98.017998 
L 355.855868 100.156981 
L 359.135207 102.048091 
L 362.414545 103.651651 
L 365.693884 104.952275 
L 368.973223 105.957955 
L 372.252562 106.696571 
L 375.531901 107.209992 
L 378.81124 107.546667 
L 382.090579 107.754356 
L 385.369917 107.8746 
L 388.649256 107.939811 
L 391.928595 107.972885 
L 395.207934 107.988553 
L 398.487273 107.995478 
" style="fill:none;stroke:#00008b;stroke-linecap:square;stroke-width:4;"/>
   </g>
   <g id="patch_53">
    <path d="M 57.6 108 
L 57.6 41.472 
" style="fill:none;stroke:#000000;stroke-linecap:square;stroke-linejoin:miter;stroke-width:0.8;"/>
   </g>
   <g id="patch_54">
    <path d="M 414.72 108 
L 414.72 41.472 
" style="fill:none;stroke:#000000;stroke-linecap:square;stroke-linejoin:miter;stroke-width:0.8;"/>
   </g>
   <g id="patch_55">
    <path d="M 57.6 108 
L 414.72 108 
" style="fill:none;stroke:#000000;stroke-linecap:square;stroke-linejoin:miter;stroke-width:0.8;"/>
   </g>
   <g id="patch_56">
    <path d="M 57.6 41.472 
L 414.72 41.472 
" style="fill:none;stroke:#000000;stroke-linecap:square;stroke-linejoin:miter;stroke-width:0.8;"/>
   </g>
   <g id="legend_1">
    <g id="patch_57">
     <path d="M 369.80125 64.150125 
L 407.72 64.150125 
Q 409.72 64.150125 409.72 62.150125 
L 409.72 48.472 
Q 409.72 46.472 407.72 46.472 
L 369.80125 46.472 
Q 367.80125 46.472 367.80125 48.472 
L 367.80125 62.150125 
Q 367.80125 64.150125 369.80125 64.150125 
z
" style="fill:#ffffff;opacity:0.8;stroke:#cccccc;stroke-linejoin:miter;"/>
    </g>
    <g id="patch_58">
     <path d="M 371.80125 58.070438 
L 391.80125 58.070438 
L 391.80125 51.070438 
L 371.80125 51.070438 
z
" style="fill:#00008b;opacity:0.4;stroke:#000000;stroke-linejoin:miter;"/>
    </g>
    <g id="text_10">
     <!-- x -->
     <defs>
      <path d="M 54.890625 54.6875 
L 35.109375 28.078125 
L 55.90625 0 
L 45.3125 0 
L 29.390625 21.484375 
L 13.484375 0 
L 2.875 0 
L 24.125 28.609375 
L 4.6875 54.6875 
L 15.28125 54.6875 
L 29.78125 35.203125 
L 44.28125 54.6875 
z
" id="DejaVuSans-120"/>
     </defs>
     <g transform="translate(399.80125 58.070438)scale(0.1 -0.1)">
      <use xlink:href="#DejaVuSans-120"/>
     </g>
    </g>
   </g>
  </g>
  <g id="axes_2">
   <g id="patch_59">
    <path d="M 57.6 207.792 
L 414.72 207.792 
L 414.72 141.264 
L 57.6 141.264 
z
" style="fill:#ffffff;"/>
   </g>
   <g id="patch_60">
    <path clip-path="url(#p2025ba8278)" d="M 109.1847 207.792 
L 114.263712 207.792 
L 114.263712 206.85101 
L 109.1847 206.85101 
z
" style="fill:#006400;opacity:0.4;stroke:#000000;stroke-linejoin:miter;"/>
   </g>
   <g id="patch_61">
    <path clip-path="url(#p2025ba8278)" d="M 114.263712 207.792 
L 119.342724 207.792 
L 119.342724 205.91002 
L 114.263712 205.91002 
z
" style="fill:#006400;opacity:0.4;stroke:#000000;stroke-linejoin:miter;"/>
   </g>
   <g id="patch_62">
    <path clip-path="url(#p2025ba8278)" d="M 119.342724 207.792 
L 124.421736 207.792 
L 124.421736 200.891406 
L 119.342724 200.891406 
z
" style="fill:#006400;opacity:0.4;stroke:#000000;stroke-linejoin:miter;"/>
   </g>
   <g id="patch_63">
    <path clip-path="url(#p2025ba8278)" d="M 124.421736 207.792 
L 129.500748 207.792 
L 129.500748 200.891406 
L 124.421736 200.891406 
z
" style="fill:#006400;opacity:0.4;stroke:#000000;stroke-linejoin:miter;"/>
   </g>
   <g id="patch_64">
    <path clip-path="url(#p2025ba8278)" d="M 129.500748 207.792 
L 134.57976 207.792 
L 134.57976 195.872792 
L 129.500748 195.872792 
z
" style="fill:#006400;opacity:0.4;stroke:#000000;stroke-linejoin:miter;"/>
   </g>
   <g id="patch_65">
    <path clip-path="url(#p2025ba8278)" d="M 134.57976 207.792 
L 139.658772 207.792 
L 139.658772 189.913188 
L 134.57976 189.913188 
z
" style="fill:#006400;opacity:0.4;stroke:#000000;stroke-linejoin:miter;"/>
   </g>
   <g id="patch_66">
    <path clip-path="url(#p2025ba8278)" d="M 139.658772 207.792 
L 144.737784 207.792 
L 144.737784 184.267248 
L 139.658772 184.267248 
z
" style="fill:#006400;opacity:0.4;stroke:#000000;stroke-linejoin:miter;"/>
   </g>
   <g id="patch_67">
    <path clip-path="url(#p2025ba8278)" d="M 144.737784 207.792 
L 149.816796 207.792 
L 149.816796 176.739327 
L 144.737784 176.739327 
z
" style="fill:#006400;opacity:0.4;stroke:#000000;stroke-linejoin:miter;"/>
   </g>
   <g id="patch_68">
    <path clip-path="url(#p2025ba8278)" d="M 149.816796 207.792 
L 154.895808 207.792 
L 154.895808 167.643089 
L 149.816796 167.643089 
z
" style="fill:#006400;opacity:0.4;stroke:#000000;stroke-linejoin:miter;"/>
   </g>
   <g id="patch_69">
    <path clip-path="url(#p2025ba8278)" d="M 154.895808 207.792 
L 159.97482 207.792 
L 159.97482 182.698931 
L 154.895808 182.698931 
z
" style="fill:#006400;opacity:0.4;stroke:#000000;stroke-linejoin:miter;"/>
   </g>
   <g id="patch_70">
    <path clip-path="url(#p2025ba8278)" d="M 159.97482 207.792 
L 165.053832 207.792 
L 165.053832 175.798337 
L 159.97482 175.798337 
z
" style="fill:#006400;opacity:0.4;stroke:#000000;stroke-linejoin:miter;"/>
   </g>
   <g id="patch_71">
    <path clip-path="url(#p2025ba8278)" d="M 165.053832 207.792 
L 170.132844 207.792 
L 170.132844 172.661703 
L 165.053832 172.661703 
z
" style="fill:#006400;opacity:0.4;stroke:#000000;stroke-linejoin:miter;"/>
   </g>
   <g id="patch_72">
    <path clip-path="url(#p2025ba8278)" d="M 170.132844 207.792 
L 175.211856 207.792 
L 175.211856 181.444277 
L 170.132844 181.444277 
z
" style="fill:#006400;opacity:0.4;stroke:#000000;stroke-linejoin:miter;"/>
   </g>
   <g id="patch_73">
    <path clip-path="url(#p2025ba8278)" d="M 175.211856 207.792 
L 180.290868 207.792 
L 180.290868 185.208238 
L 175.211856 185.208238 
z
" style="fill:#006400;opacity:0.4;stroke:#000000;stroke-linejoin:miter;"/>
   </g>
   <g id="patch_74">
    <path clip-path="url(#p2025ba8278)" d="M 180.290868 207.792 
L 185.36988 207.792 
L 185.36988 193.677149 
L 180.290868 193.677149 
z
" style="fill:#006400;opacity:0.4;stroke:#000000;stroke-linejoin:miter;"/>
   </g>
   <g id="patch_75">
    <path clip-path="url(#p2025ba8278)" d="M 185.36988 207.792 
L 190.448892 207.792 
L 190.448892 197.441109 
L 185.36988 197.441109 
z
" style="fill:#006400;opacity:0.4;stroke:#000000;stroke-linejoin:miter;"/>
   </g>
   <g id="patch_76">
    <path clip-path="url(#p2025ba8278)" d="M 190.448892 207.792 
L 195.527904 207.792 
L 195.527904 199.323089 
L 190.448892 199.323089 
z
" style="fill:#006400;opacity:0.4;stroke:#000000;stroke-linejoin:miter;"/>
   </g>
   <g id="patch_77">
    <path clip-path="url(#p2025ba8278)" d="M 195.527904 207.792 
L 200.606916 207.792 
L 200.606916 199.950416 
L 195.527904 199.950416 
z
" style="fill:#006400;opacity:0.4;stroke:#000000;stroke-linejoin:miter;"/>
   </g>
   <g id="patch_78">
    <path clip-path="url(#p2025ba8278)" d="M 200.606916 207.792 
L 205.685928 207.792 
L 205.685928 202.146059 
L 200.606916 202.146059 
z
" style="fill:#006400;opacity:0.4;stroke:#000000;stroke-linejoin:miter;"/>
   </g>
   <g id="patch_79">
    <path clip-path="url(#p2025ba8278)" d="M 205.685928 207.792 
L 210.76494 207.792 
L 210.76494 190.226851 
L 205.685928 190.226851 
z
" style="fill:#006400;opacity:0.4;stroke:#000000;stroke-linejoin:miter;"/>
   </g>
   <g id="patch_80">
    <path clip-path="url(#p2025ba8278)" d="M 210.76494 207.792 
L 215.843952 207.792 
L 215.843952 189.599525 
L 210.76494 189.599525 
z
" style="fill:#006400;opacity:0.4;stroke:#000000;stroke-linejoin:miter;"/>
   </g>
   <g id="patch_81">
    <path clip-path="url(#p2025ba8278)" d="M 215.843952 207.792 
L 220.922964 207.792 
L 220.922964 172.661703 
L 215.843952 172.661703 
z
" style="fill:#006400;opacity:0.4;stroke:#000000;stroke-linejoin:miter;"/>
   </g>
   <g id="patch_82">
    <path clip-path="url(#p2025ba8278)" d="M 220.922964 207.792 
L 226.001976 207.792 
L 226.001976 162.938139 
L 220.922964 162.938139 
z
" style="fill:#006400;opacity:0.4;stroke:#000000;stroke-linejoin:miter;"/>
   </g>
   <g id="patch_83">
    <path clip-path="url(#p2025ba8278)" d="M 226.001976 207.792 
L 231.080988 207.792 
L 231.080988 144.432 
L 226.001976 144.432 
z
" style="fill:#006400;opacity:0.4;stroke:#000000;stroke-linejoin:miter;"/>
   </g>
   <g id="patch_84">
    <path clip-path="url(#p2025ba8278)" d="M 231.080988 207.792 
L 236.16 207.792 
L 236.16 151.332594 
L 231.080988 151.332594 
z
" style="fill:#006400;opacity:0.4;stroke:#000000;stroke-linejoin:miter;"/>
   </g>
   <g id="patch_85">
    <path clip-path="url(#p2025ba8278)" d="M 236.16 207.792 
L 241.239012 207.792 
L 241.239012 152.273584 
L 236.16 152.273584 
z
" style="fill:#006400;opacity:0.4;stroke:#000000;stroke-linejoin:miter;"/>
   </g>
   <g id="patch_86">
    <path clip-path="url(#p2025ba8278)" d="M 241.239012 207.792 
L 246.318024 207.792 
L 246.318024 168.270416 
L 241.239012 168.270416 
z
" style="fill:#006400;opacity:0.4;stroke:#000000;stroke-linejoin:miter;"/>
   </g>
   <g id="patch_87">
    <path clip-path="url(#p2025ba8278)" d="M 246.318024 207.792 
L 251.397036 207.792 
L 251.397036 176.425663 
L 246.318024 176.425663 
z
" style="fill:#006400;opacity:0.4;stroke:#000000;stroke-linejoin:miter;"/>
   </g>
   <g id="patch_88">
    <path clip-path="url(#p2025ba8278)" d="M 251.397036 207.792 
L 256.476048 207.792 
L 256.476048 186.462891 
L 251.397036 186.462891 
z
" style="fill:#006400;opacity:0.4;stroke:#000000;stroke-linejoin:miter;"/>
   </g>
   <g id="patch_89">
    <path clip-path="url(#p2025ba8278)" d="M 256.476048 207.792 
L 261.55506 207.792 
L 261.55506 191.167842 
L 256.476048 191.167842 
z
" style="fill:#006400;opacity:0.4;stroke:#000000;stroke-linejoin:miter;"/>
   </g>
   <g id="patch_90">
    <path clip-path="url(#p2025ba8278)" d="M 261.55506 207.792 
L 266.634072 207.792 
L 266.634072 194.304475 
L 261.55506 194.304475 
z
" style="fill:#006400;opacity:0.4;stroke:#000000;stroke-linejoin:miter;"/>
   </g>
   <g id="patch_91">
    <path clip-path="url(#p2025ba8278)" d="M 266.634072 207.792 
L 271.713084 207.792 
L 271.713084 196.186455 
L 266.634072 196.186455 
z
" style="fill:#006400;opacity:0.4;stroke:#000000;stroke-linejoin:miter;"/>
   </g>
   <g id="patch_92">
    <path clip-path="url(#p2025ba8278)" d="M 271.713084 207.792 
L 276.792096 207.792 
L 276.792096 197.441109 
L 271.713084 197.441109 
z
" style="fill:#006400;opacity:0.4;stroke:#000000;stroke-linejoin:miter;"/>
   </g>
   <g id="patch_93">
    <path clip-path="url(#p2025ba8278)" d="M 276.792096 207.792 
L 281.871108 207.792 
L 281.871108 195.559129 
L 276.792096 195.559129 
z
" style="fill:#006400;opacity:0.4;stroke:#000000;stroke-linejoin:miter;"/>
   </g>
   <g id="patch_94">
    <path clip-path="url(#p2025ba8278)" d="M 281.871108 207.792 
L 286.95012 207.792 
L 286.95012 191.167842 
L 281.871108 191.167842 
z
" style="fill:#006400;opacity:0.4;stroke:#000000;stroke-linejoin:miter;"/>
   </g>
   <g id="patch_95">
    <path clip-path="url(#p2025ba8278)" d="M 286.95012 207.792 
L 292.029132 207.792 
L 292.029132 187.403881 
L 286.95012 187.403881 
z
" style="fill:#006400;opacity:0.4;stroke:#000000;stroke-linejoin:miter;"/>
   </g>
   <g id="patch_96">
    <path clip-path="url(#p2025ba8278)" d="M 292.029132 207.792 
L 297.108144 207.792 
L 297.108144 188.658535 
L 292.029132 188.658535 
z
" style="fill:#006400;opacity:0.4;stroke:#000000;stroke-linejoin:miter;"/>
   </g>
   <g id="patch_97">
    <path clip-path="url(#p2025ba8278)" d="M 297.108144 207.792 
L 302.187156 207.792 
L 302.187156 172.34804 
L 297.108144 172.34804 
z
" style="fill:#006400;opacity:0.4;stroke:#000000;stroke-linejoin:miter;"/>
   </g>
   <g id="patch_98">
    <path clip-path="url(#p2025ba8278)" d="M 302.187156 207.792 
L 307.266168 207.792 
L 307.266168 177.366653 
L 302.187156 177.366653 
z
" style="fill:#006400;opacity:0.4;stroke:#000000;stroke-linejoin:miter;"/>
   </g>
   <g id="patch_99">
    <path clip-path="url(#p2025ba8278)" d="M 307.266168 207.792 
L 312.34518 207.792 
L 312.34518 173.602693 
L 307.266168 173.602693 
z
" style="fill:#006400;opacity:0.4;stroke:#000000;stroke-linejoin:miter;"/>
   </g>
   <g id="patch_100">
    <path clip-path="url(#p2025ba8278)" d="M 312.34518 207.792 
L 317.424192 207.792 
L 317.424192 171.40705 
L 312.34518 171.40705 
z
" style="fill:#006400;opacity:0.4;stroke:#000000;stroke-linejoin:miter;"/>
   </g>
   <g id="patch_101">
    <path clip-path="url(#p2025ba8278)" d="M 317.424192 207.792 
L 322.503204 207.792 
L 322.503204 178.93497 
L 317.424192 178.93497 
z
" style="fill:#006400;opacity:0.4;stroke:#000000;stroke-linejoin:miter;"/>
   </g>
   <g id="patch_102">
    <path clip-path="url(#p2025ba8278)" d="M 322.503204 207.792 
L 327.582216 207.792 
L 327.582216 184.894574 
L 322.503204 184.894574 
z
" style="fill:#006400;opacity:0.4;stroke:#000000;stroke-linejoin:miter;"/>
   </g>
   <g id="patch_103">
    <path clip-path="url(#p2025ba8278)" d="M 327.582216 207.792 
L 332.661228 207.792 
L 332.661228 189.599525 
L 327.582216 189.599525 
z
" style="fill:#006400;opacity:0.4;stroke:#000000;stroke-linejoin:miter;"/>
   </g>
   <g id="patch_104">
    <path clip-path="url(#p2025ba8278)" d="M 332.661228 207.792 
L 337.74024 207.792 
L 337.74024 196.186455 
L 332.661228 196.186455 
z
" style="fill:#006400;opacity:0.4;stroke:#000000;stroke-linejoin:miter;"/>
   </g>
   <g id="patch_105">
    <path clip-path="url(#p2025ba8278)" d="M 337.74024 207.792 
L 342.819252 207.792 
L 342.819252 201.518733 
L 337.74024 201.518733 
z
" style="fill:#006400;opacity:0.4;stroke:#000000;stroke-linejoin:miter;"/>
   </g>
   <g id="patch_106">
    <path clip-path="url(#p2025ba8278)" d="M 342.819252 207.792 
L 347.898264 207.792 
L 347.898264 202.773386 
L 342.819252 202.773386 
z
" style="fill:#006400;opacity:0.4;stroke:#000000;stroke-linejoin:miter;"/>
   </g>
   <g id="patch_107">
    <path clip-path="url(#p2025ba8278)" d="M 347.898264 207.792 
L 352.977276 207.792 
L 352.977276 206.85101 
L 347.898264 206.85101 
z
" style="fill:#006400;opacity:0.4;stroke:#000000;stroke-linejoin:miter;"/>
   </g>
   <g id="patch_108">
    <path clip-path="url(#p2025ba8278)" d="M 352.977276 207.792 
L 358.056288 207.792 
L 358.056288 207.478337 
L 352.977276 207.478337 
z
" style="fill:#006400;opacity:0.4;stroke:#000000;stroke-linejoin:miter;"/>
   </g>
   <g id="patch_109">
    <path clip-path="url(#p2025ba8278)" d="M 358.056288 207.792 
L 363.1353 207.792 
L 363.1353 207.478337 
L 358.056288 207.478337 
z
" style="fill:#006400;opacity:0.4;stroke:#000000;stroke-linejoin:miter;"/>
   </g>
   <g id="matplotlib.axis_3">
    <g id="xtick_6">
     <g id="line2d_10">
      <g>
       <use style="stroke:#000000;stroke-width:0.8;" x="84.82077" xlink:href="#m2473a41f77" y="207.792"/>
      </g>
     </g>
     <g id="text_11">
      <!-- −1.0 -->
      <g transform="translate(72.679364 222.390437)scale(0.1 -0.1)">
       <use xlink:href="#DejaVuSans-8722"/>
       <use x="83.789062" xlink:href="#DejaVuSans-49"/>
       <use x="147.412109" xlink:href="#DejaVuSans-46"/>
       <use x="179.199219" xlink:href="#DejaVuSans-48"/>
      </g>
     </g>
    </g>
    <g id="xtick_7">
     <g id="line2d_11">
      <g>
       <use style="stroke:#000000;stroke-width:0.8;" x="159.044099" xlink:href="#m2473a41f77" y="207.792"/>
      </g>
     </g>
     <g id="text_12">
      <!-- −0.5 -->
      <g transform="translate(146.902693 222.390437)scale(0.1 -0.1)">
       <use xlink:href="#DejaVuSans-8722"/>
       <use x="83.789062" xlink:href="#DejaVuSans-48"/>
       <use x="147.412109" xlink:href="#DejaVuSans-46"/>
       <use x="179.199219" xlink:href="#DejaVuSans-53"/>
      </g>
     </g>
    </g>
    <g id="xtick_8">
     <g id="line2d_12">
      <g>
       <use style="stroke:#000000;stroke-width:0.8;" x="233.267428" xlink:href="#m2473a41f77" y="207.792"/>
      </g>
     </g>
     <g id="text_13">
      <!-- 0.0 -->
      <g transform="translate(225.315866 222.390437)scale(0.1 -0.1)">
       <use xlink:href="#DejaVuSans-48"/>
       <use x="63.623047" xlink:href="#DejaVuSans-46"/>
       <use x="95.410156" xlink:href="#DejaVuSans-48"/>
      </g>
     </g>
    </g>
    <g id="xtick_9">
     <g id="line2d_13">
      <g>
       <use style="stroke:#000000;stroke-width:0.8;" x="307.490757" xlink:href="#m2473a41f77" y="207.792"/>
      </g>
     </g>
     <g id="text_14">
      <!-- 0.5 -->
      <g transform="translate(299.539194 222.390437)scale(0.1 -0.1)">
       <use xlink:href="#DejaVuSans-48"/>
       <use x="63.623047" xlink:href="#DejaVuSans-46"/>
       <use x="95.410156" xlink:href="#DejaVuSans-53"/>
      </g>
     </g>
    </g>
    <g id="xtick_10">
     <g id="line2d_14">
      <g>
       <use style="stroke:#000000;stroke-width:0.8;" x="381.714086" xlink:href="#m2473a41f77" y="207.792"/>
      </g>
     </g>
     <g id="text_15">
      <!-- 1.0 -->
      <g transform="translate(373.762523 222.390437)scale(0.1 -0.1)">
       <use xlink:href="#DejaVuSans-49"/>
       <use x="63.623047" xlink:href="#DejaVuSans-46"/>
       <use x="95.410156" xlink:href="#DejaVuSans-48"/>
      </g>
     </g>
    </g>
   </g>
   <g id="matplotlib.axis_4">
    <g id="ytick_4">
     <g id="line2d_15">
      <g>
       <use style="stroke:#000000;stroke-width:0.8;" x="57.6" xlink:href="#md1d8a34b4f" y="207.792"/>
      </g>
     </g>
     <g id="text_16">
      <!-- 0 -->
      <g transform="translate(44.2375 211.591219)scale(0.1 -0.1)">
       <use xlink:href="#DejaVuSans-48"/>
      </g>
     </g>
    </g>
    <g id="ytick_5">
     <g id="line2d_16">
      <g>
       <use style="stroke:#000000;stroke-width:0.8;" x="57.6" xlink:href="#md1d8a34b4f" y="171.411194"/>
      </g>
     </g>
     <g id="text_17">
      <!-- 1 -->
      <g transform="translate(44.2375 175.210413)scale(0.1 -0.1)">
       <use xlink:href="#DejaVuSans-49"/>
      </g>
     </g>
    </g>
    <g id="text_18">
     <!-- Density -->
     <g transform="translate(38.157812 193.536594)rotate(-90)scale(0.1 -0.1)">
      <use xlink:href="#DejaVuSans-68"/>
      <use x="77.001953" xlink:href="#DejaVuSans-101"/>
      <use x="138.525391" xlink:href="#DejaVuSans-110"/>
      <use x="201.904297" xlink:href="#DejaVuSans-115"/>
      <use x="254.003906" xlink:href="#DejaVuSans-105"/>
      <use x="281.787109" xlink:href="#DejaVuSans-116"/>
      <use x="320.996094" xlink:href="#DejaVuSans-121"/>
     </g>
    </g>
   </g>
   <g id="line2d_17">
    <path clip-path="url(#p2025ba8278)" d="M 73.832727 207.789738 
L 77.112066 207.786468 
L 80.391405 207.779269 
L 83.670744 207.76436 
L 86.950083 207.735244 
L 90.229421 207.681499 
L 93.50876 207.587526 
L 96.788099 207.431571 
L 100.067438 207.185451 
L 103.346777 206.815349 
L 106.626116 206.283773 
L 109.905455 205.552391 
L 113.184793 204.585077 
L 116.464132 203.350666 
L 119.743471 201.825528 
L 123.02281 199.996894 
L 126.302149 197.868091 
L 129.581488 195.465921 
L 132.860826 192.848436 
L 136.140165 190.109476 
L 139.419504 187.375852 
L 142.698843 184.795019 
L 145.978182 182.515052 
L 149.257521 180.662887 
L 152.53686 179.328526 
L 155.816198 178.560473 
L 159.095537 178.371951 
L 162.374876 178.751639 
L 165.654215 179.670823 
L 168.933554 181.082201 
L 172.212893 182.911865 
L 175.492231 185.050803 
L 178.77157 187.352551 
L 182.050909 189.639889 
L 185.330248 191.718708 
L 188.609587 193.394549 
L 191.888926 194.48772 
L 195.168264 194.845376 
L 198.447603 194.351417 
L 201.726942 192.936396 
L 205.006281 190.589329 
L 208.28562 187.371601 
L 211.564959 183.430446 
L 214.844298 179.006544 
L 218.123636 174.42842 
L 221.402975 170.087455 
L 224.682314 166.392189 
L 227.961653 163.708393 
L 231.240992 162.298679 
L 234.520331 162.278246 
L 237.799669 163.599568 
L 241.079008 166.069544 
L 244.358347 169.392224 
L 247.637686 173.223322 
L 250.917025 177.221924 
L 254.196364 181.089039 
L 257.475702 184.589058 
L 260.755041 187.555651 
L 264.03438 189.886661 
L 267.313719 191.533353 
L 270.593058 192.488562 
L 273.872397 192.776718 
L 277.151736 192.446858 
L 280.431074 191.568318 
L 283.710413 190.228275 
L 286.989752 188.530553 
L 290.269091 186.59544 
L 293.54843 184.559827 
L 296.827769 182.576008 
L 300.107107 180.806758 
L 303.386446 179.414844 
L 306.665785 178.547043 
L 309.945124 178.315217 
L 313.224463 178.778985 
L 316.503802 179.934982 
L 319.78314 181.716356 
L 323.062479 184.003206 
L 326.341818 186.641368 
L 329.621157 189.464648 
L 332.900496 192.315276 
L 336.179835 195.058853 
L 339.459174 197.592375 
L 342.738512 199.846064 
L 346.017851 201.780948 
L 349.29719 203.384425 
L 352.576529 204.66542 
L 355.855868 205.64975 
L 359.135207 206.375495 
L 362.414545 206.887962 
L 365.693884 207.234333 
L 368.973223 207.458708 
L 372.252562 207.598468 
L 375.531901 207.682583 
L 378.81124 207.731747 
L 382.090579 207.759754 
L 385.369917 207.775305 
L 388.649256 207.783692 
L 391.928595 207.788053 
L 395.207934 207.790222 
L 398.487273 207.791245 
" style="fill:none;stroke:#006400;stroke-linecap:square;stroke-width:4;"/>
   </g>
   <g id="patch_110">
    <path d="M 57.6 207.792 
L 57.6 141.264 
" style="fill:none;stroke:#000000;stroke-linecap:square;stroke-linejoin:miter;stroke-width:0.8;"/>
   </g>
   <g id="patch_111">
    <path d="M 414.72 207.792 
L 414.72 141.264 
" style="fill:none;stroke:#000000;stroke-linecap:square;stroke-linejoin:miter;stroke-width:0.8;"/>
   </g>
   <g id="patch_112">
    <path d="M 57.6 207.792 
L 414.72 207.792 
" style="fill:none;stroke:#000000;stroke-linecap:square;stroke-linejoin:miter;stroke-width:0.8;"/>
   </g>
   <g id="patch_113">
    <path d="M 57.6 141.264 
L 414.72 141.264 
" style="fill:none;stroke:#000000;stroke-linecap:square;stroke-linejoin:miter;stroke-width:0.8;"/>
   </g>
   <g id="legend_2">
    <g id="patch_114">
     <path d="M 369.80125 163.942125 
L 407.72 163.942125 
Q 409.72 163.942125 409.72 161.942125 
L 409.72 148.264 
Q 409.72 146.264 407.72 146.264 
L 369.80125 146.264 
Q 367.80125 146.264 367.80125 148.264 
L 367.80125 161.942125 
Q 367.80125 163.942125 369.80125 163.942125 
z
" style="fill:#ffffff;opacity:0.8;stroke:#cccccc;stroke-linejoin:miter;"/>
    </g>
    <g id="patch_115">
     <path d="M 371.80125 157.862437 
L 391.80125 157.862437 
L 391.80125 150.862437 
L 371.80125 150.862437 
z
" style="fill:#006400;opacity:0.4;stroke:#000000;stroke-linejoin:miter;"/>
    </g>
    <g id="text_19">
     <!-- y -->
     <g transform="translate(399.80125 157.862437)scale(0.1 -0.1)">
      <use xlink:href="#DejaVuSans-121"/>
     </g>
    </g>
   </g>
  </g>
  <g id="axes_3">
   <g id="patch_116">
    <path d="M 57.6 307.584 
L 414.72 307.584 
L 414.72 241.056 
L 57.6 241.056 
z
" style="fill:#ffffff;"/>
   </g>
   <g id="patch_117">
    <path clip-path="url(#p8bb6dc86a1)" d="M 109.219847 307.584 
L 114.297453 307.584 
L 114.297453 305.959385 
L 109.219847 305.959385 
z
" style="fill:#8b0000;opacity:0.4;stroke:#000000;stroke-linejoin:miter;"/>
   </g>
   <g id="patch_118">
    <path clip-path="url(#p8bb6dc86a1)" d="M 114.297453 307.584 
L 119.37506 307.584 
L 119.37506 301.491692 
L 114.297453 301.491692 
z
" style="fill:#8b0000;opacity:0.4;stroke:#000000;stroke-linejoin:miter;"/>
   </g>
   <g id="patch_119">
    <path clip-path="url(#p8bb6dc86a1)" d="M 119.37506 307.584 
L 124.452666 307.584 
L 124.452666 300.273231 
L 119.37506 300.273231 
z
" style="fill:#8b0000;opacity:0.4;stroke:#000000;stroke-linejoin:miter;"/>
   </g>
   <g id="patch_120">
    <path clip-path="url(#p8bb6dc86a1)" d="M 124.452666 307.584 
L 129.530272 307.584 
L 129.530272 294.587077 
L 124.452666 294.587077 
z
" style="fill:#8b0000;opacity:0.4;stroke:#000000;stroke-linejoin:miter;"/>
   </g>
   <g id="patch_121">
    <path clip-path="url(#p8bb6dc86a1)" d="M 129.530272 307.584 
L 134.607878 307.584 
L 134.607878 292.556308 
L 129.530272 292.556308 
z
" style="fill:#8b0000;opacity:0.4;stroke:#000000;stroke-linejoin:miter;"/>
   </g>
   <g id="patch_122">
    <path clip-path="url(#p8bb6dc86a1)" d="M 134.607878 307.584 
L 139.685484 307.584 
L 139.685484 284.433231 
L 134.607878 284.433231 
z
" style="fill:#8b0000;opacity:0.4;stroke:#000000;stroke-linejoin:miter;"/>
   </g>
   <g id="patch_123">
    <path clip-path="url(#p8bb6dc86a1)" d="M 139.685484 307.584 
L 144.76309 307.584 
L 144.76309 273.467077 
L 139.685484 273.467077 
z
" style="fill:#8b0000;opacity:0.4;stroke:#000000;stroke-linejoin:miter;"/>
   </g>
   <g id="patch_124">
    <path clip-path="url(#p8bb6dc86a1)" d="M 144.76309 307.584 
L 149.840696 307.584 
L 149.840696 278.340923 
L 144.76309 278.340923 
z
" style="fill:#8b0000;opacity:0.4;stroke:#000000;stroke-linejoin:miter;"/>
   </g>
   <g id="patch_125">
    <path clip-path="url(#p8bb6dc86a1)" d="M 149.840696 307.584 
L 154.918302 307.584 
L 154.918302 284.433231 
L 149.840696 284.433231 
z
" style="fill:#8b0000;opacity:0.4;stroke:#000000;stroke-linejoin:miter;"/>
   </g>
   <g id="patch_126">
    <path clip-path="url(#p8bb6dc86a1)" d="M 154.918302 307.584 
L 159.995908 307.584 
L 159.995908 288.088615 
L 154.918302 288.088615 
z
" style="fill:#8b0000;opacity:0.4;stroke:#000000;stroke-linejoin:miter;"/>
   </g>
   <g id="patch_127">
    <path clip-path="url(#p8bb6dc86a1)" d="M 159.995908 307.584 
L 165.073515 307.584 
L 165.073515 279.965538 
L 159.995908 279.965538 
z
" style="fill:#8b0000;opacity:0.4;stroke:#000000;stroke-linejoin:miter;"/>
   </g>
   <g id="patch_128">
    <path clip-path="url(#p8bb6dc86a1)" d="M 165.073515 307.584 
L 170.151121 307.584 
L 170.151121 271.436308 
L 165.073515 271.436308 
z
" style="fill:#8b0000;opacity:0.4;stroke:#000000;stroke-linejoin:miter;"/>
   </g>
   <g id="patch_129">
    <path clip-path="url(#p8bb6dc86a1)" d="M 170.151121 307.584 
L 175.228727 307.584 
L 175.228727 275.497846 
L 170.151121 275.497846 
z
" style="fill:#8b0000;opacity:0.4;stroke:#000000;stroke-linejoin:miter;"/>
   </g>
   <g id="patch_130">
    <path clip-path="url(#p8bb6dc86a1)" d="M 175.228727 307.584 
L 180.306333 307.584 
L 180.306333 267.374769 
L 175.228727 267.374769 
z
" style="fill:#8b0000;opacity:0.4;stroke:#000000;stroke-linejoin:miter;"/>
   </g>
   <g id="patch_131">
    <path clip-path="url(#p8bb6dc86a1)" d="M 180.306333 307.584 
L 185.383939 307.584 
L 185.383939 269.811692 
L 180.306333 269.811692 
z
" style="fill:#8b0000;opacity:0.4;stroke:#000000;stroke-linejoin:miter;"/>
   </g>
   <g id="patch_132">
    <path clip-path="url(#p8bb6dc86a1)" d="M 185.383939 307.584 
L 190.461545 307.584 
L 190.461545 271.030154 
L 185.383939 271.030154 
z
" style="fill:#8b0000;opacity:0.4;stroke:#000000;stroke-linejoin:miter;"/>
   </g>
   <g id="patch_133">
    <path clip-path="url(#p8bb6dc86a1)" d="M 190.461545 307.584 
L 195.539151 307.584 
L 195.539151 284.433231 
L 190.461545 284.433231 
z
" style="fill:#8b0000;opacity:0.4;stroke:#000000;stroke-linejoin:miter;"/>
   </g>
   <g id="patch_134">
    <path clip-path="url(#p8bb6dc86a1)" d="M 195.539151 307.584 
L 200.616757 307.584 
L 200.616757 283.620923 
L 195.539151 283.620923 
z
" style="fill:#8b0000;opacity:0.4;stroke:#000000;stroke-linejoin:miter;"/>
   </g>
   <g id="patch_135">
    <path clip-path="url(#p8bb6dc86a1)" d="M 200.616757 307.584 
L 205.694363 307.584 
L 205.694363 277.528615 
L 200.616757 277.528615 
z
" style="fill:#8b0000;opacity:0.4;stroke:#000000;stroke-linejoin:miter;"/>
   </g>
   <g id="patch_136">
    <path clip-path="url(#p8bb6dc86a1)" d="M 205.694363 307.584 
L 210.771969 307.584 
L 210.771969 281.590154 
L 205.694363 281.590154 
z
" style="fill:#8b0000;opacity:0.4;stroke:#000000;stroke-linejoin:miter;"/>
   </g>
   <g id="patch_137">
    <path clip-path="url(#p8bb6dc86a1)" d="M 210.771969 307.584 
L 215.849576 307.584 
L 215.849576 267.374769 
L 210.771969 267.374769 
z
" style="fill:#8b0000;opacity:0.4;stroke:#000000;stroke-linejoin:miter;"/>
   </g>
   <g id="patch_138">
    <path clip-path="url(#p8bb6dc86a1)" d="M 215.849576 307.584 
L 220.927182 307.584 
L 220.927182 272.654769 
L 215.849576 272.654769 
z
" style="fill:#8b0000;opacity:0.4;stroke:#000000;stroke-linejoin:miter;"/>
   </g>
   <g id="patch_139">
    <path clip-path="url(#p8bb6dc86a1)" d="M 220.927182 307.584 
L 226.004788 307.584 
L 226.004788 272.248615 
L 220.927182 272.248615 
z
" style="fill:#8b0000;opacity:0.4;stroke:#000000;stroke-linejoin:miter;"/>
   </g>
   <g id="patch_140">
    <path clip-path="url(#p8bb6dc86a1)" d="M 226.004788 307.584 
L 231.082394 307.584 
L 231.082394 270.624 
L 226.004788 270.624 
z
" style="fill:#8b0000;opacity:0.4;stroke:#000000;stroke-linejoin:miter;"/>
   </g>
   <g id="patch_141">
    <path clip-path="url(#p8bb6dc86a1)" d="M 231.082394 307.584 
L 236.16 307.584 
L 236.16 244.224 
L 231.082394 244.224 
z
" style="fill:#8b0000;opacity:0.4;stroke:#000000;stroke-linejoin:miter;"/>
   </g>
   <g id="patch_142">
    <path clip-path="url(#p8bb6dc86a1)" d="M 236.16 307.584 
L 241.237606 307.584 
L 241.237606 261.282462 
L 236.16 261.282462 
z
" style="fill:#8b0000;opacity:0.4;stroke:#000000;stroke-linejoin:miter;"/>
   </g>
   <g id="patch_143">
    <path clip-path="url(#p8bb6dc86a1)" d="M 241.237606 307.584 
L 246.315212 307.584 
L 246.315212 266.156308 
L 241.237606 266.156308 
z
" style="fill:#8b0000;opacity:0.4;stroke:#000000;stroke-linejoin:miter;"/>
   </g>
   <g id="patch_144">
    <path clip-path="url(#p8bb6dc86a1)" d="M 246.315212 307.584 
L 251.392818 307.584 
L 251.392818 268.187077 
L 246.315212 268.187077 
z
" style="fill:#8b0000;opacity:0.4;stroke:#000000;stroke-linejoin:miter;"/>
   </g>
   <g id="patch_145">
    <path clip-path="url(#p8bb6dc86a1)" d="M 251.392818 307.584 
L 256.470424 307.584 
L 256.470424 278.340923 
L 251.392818 278.340923 
z
" style="fill:#8b0000;opacity:0.4;stroke:#000000;stroke-linejoin:miter;"/>
   </g>
   <g id="patch_146">
    <path clip-path="url(#p8bb6dc86a1)" d="M 256.470424 307.584 
L 261.548031 307.584 
L 261.548031 278.340923 
L 256.470424 278.340923 
z
" style="fill:#8b0000;opacity:0.4;stroke:#000000;stroke-linejoin:miter;"/>
   </g>
   <g id="patch_147">
    <path clip-path="url(#p8bb6dc86a1)" d="M 261.548031 307.584 
L 266.625637 307.584 
L 266.625637 267.780923 
L 261.548031 267.780923 
z
" style="fill:#8b0000;opacity:0.4;stroke:#000000;stroke-linejoin:miter;"/>
   </g>
   <g id="patch_148">
    <path clip-path="url(#p8bb6dc86a1)" d="M 266.625637 307.584 
L 271.703243 307.584 
L 271.703243 283.620923 
L 266.625637 283.620923 
z
" style="fill:#8b0000;opacity:0.4;stroke:#000000;stroke-linejoin:miter;"/>
   </g>
   <g id="patch_149">
    <path clip-path="url(#p8bb6dc86a1)" d="M 271.703243 307.584 
L 276.780849 307.584 
L 276.780849 275.497846 
L 271.703243 275.497846 
z
" style="fill:#8b0000;opacity:0.4;stroke:#000000;stroke-linejoin:miter;"/>
   </g>
   <g id="patch_150">
    <path clip-path="url(#p8bb6dc86a1)" d="M 276.780849 307.584 
L 281.858455 307.584 
L 281.858455 270.217846 
L 276.780849 270.217846 
z
" style="fill:#8b0000;opacity:0.4;stroke:#000000;stroke-linejoin:miter;"/>
   </g>
   <g id="patch_151">
    <path clip-path="url(#p8bb6dc86a1)" d="M 281.858455 307.584 
L 286.936061 307.584 
L 286.936061 275.091692 
L 281.858455 275.091692 
z
" style="fill:#8b0000;opacity:0.4;stroke:#000000;stroke-linejoin:miter;"/>
   </g>
   <g id="patch_152">
    <path clip-path="url(#p8bb6dc86a1)" d="M 286.936061 307.584 
L 292.013667 307.584 
L 292.013667 277.528615 
L 286.936061 277.528615 
z
" style="fill:#8b0000;opacity:0.4;stroke:#000000;stroke-linejoin:miter;"/>
   </g>
   <g id="patch_153">
    <path clip-path="url(#p8bb6dc86a1)" d="M 292.013667 307.584 
L 297.091273 307.584 
L 297.091273 268.187077 
L 292.013667 268.187077 
z
" style="fill:#8b0000;opacity:0.4;stroke:#000000;stroke-linejoin:miter;"/>
   </g>
   <g id="patch_154">
    <path clip-path="url(#p8bb6dc86a1)" d="M 297.091273 307.584 
L 302.168879 307.584 
L 302.168879 279.965538 
L 297.091273 279.965538 
z
" style="fill:#8b0000;opacity:0.4;stroke:#000000;stroke-linejoin:miter;"/>
   </g>
   <g id="patch_155">
    <path clip-path="url(#p8bb6dc86a1)" d="M 302.168879 307.584 
L 307.246485 307.584 
L 307.246485 276.310154 
L 302.168879 276.310154 
z
" style="fill:#8b0000;opacity:0.4;stroke:#000000;stroke-linejoin:miter;"/>
   </g>
   <g id="patch_156">
    <path clip-path="url(#p8bb6dc86a1)" d="M 307.246485 307.584 
L 312.324092 307.584 
L 312.324092 284.839385 
L 307.246485 284.839385 
z
" style="fill:#8b0000;opacity:0.4;stroke:#000000;stroke-linejoin:miter;"/>
   </g>
   <g id="patch_157">
    <path clip-path="url(#p8bb6dc86a1)" d="M 312.324092 307.584 
L 317.401698 307.584 
L 317.401698 277.528615 
L 312.324092 277.528615 
z
" style="fill:#8b0000;opacity:0.4;stroke:#000000;stroke-linejoin:miter;"/>
   </g>
   <g id="patch_158">
    <path clip-path="url(#p8bb6dc86a1)" d="M 317.401698 307.584 
L 322.479304 307.584 
L 322.479304 284.433231 
L 317.401698 284.433231 
z
" style="fill:#8b0000;opacity:0.4;stroke:#000000;stroke-linejoin:miter;"/>
   </g>
   <g id="patch_159">
    <path clip-path="url(#p8bb6dc86a1)" d="M 322.479304 307.584 
L 327.55691 307.584 
L 327.55691 267.780923 
L 322.479304 267.780923 
z
" style="fill:#8b0000;opacity:0.4;stroke:#000000;stroke-linejoin:miter;"/>
   </g>
   <g id="patch_160">
    <path clip-path="url(#p8bb6dc86a1)" d="M 327.55691 307.584 
L 332.634516 307.584 
L 332.634516 284.839385 
L 327.55691 284.839385 
z
" style="fill:#8b0000;opacity:0.4;stroke:#000000;stroke-linejoin:miter;"/>
   </g>
   <g id="patch_161">
    <path clip-path="url(#p8bb6dc86a1)" d="M 332.634516 307.584 
L 337.712122 307.584 
L 337.712122 284.027077 
L 332.634516 284.027077 
z
" style="fill:#8b0000;opacity:0.4;stroke:#000000;stroke-linejoin:miter;"/>
   </g>
   <g id="patch_162">
    <path clip-path="url(#p8bb6dc86a1)" d="M 337.712122 307.584 
L 342.789728 307.584 
L 342.789728 288.088615 
L 337.712122 288.088615 
z
" style="fill:#8b0000;opacity:0.4;stroke:#000000;stroke-linejoin:miter;"/>
   </g>
   <g id="patch_163">
    <path clip-path="url(#p8bb6dc86a1)" d="M 342.789728 307.584 
L 347.867334 307.584 
L 347.867334 296.211692 
L 342.789728 296.211692 
z
" style="fill:#8b0000;opacity:0.4;stroke:#000000;stroke-linejoin:miter;"/>
   </g>
   <g id="patch_164">
    <path clip-path="url(#p8bb6dc86a1)" d="M 347.867334 307.584 
L 352.94494 307.584 
L 352.94494 301.897846 
L 347.867334 301.897846 
z
" style="fill:#8b0000;opacity:0.4;stroke:#000000;stroke-linejoin:miter;"/>
   </g>
   <g id="patch_165">
    <path clip-path="url(#p8bb6dc86a1)" d="M 352.94494 307.584 
L 358.022547 307.584 
L 358.022547 305.959385 
L 352.94494 305.959385 
z
" style="fill:#8b0000;opacity:0.4;stroke:#000000;stroke-linejoin:miter;"/>
   </g>
   <g id="patch_166">
    <path clip-path="url(#p8bb6dc86a1)" d="M 358.022547 307.584 
L 363.100153 307.584 
L 363.100153 307.177846 
L 358.022547 307.177846 
z
" style="fill:#8b0000;opacity:0.4;stroke:#000000;stroke-linejoin:miter;"/>
   </g>
   <g id="matplotlib.axis_5">
    <g id="xtick_11">
     <g id="line2d_18">
      <g>
       <use style="stroke:#000000;stroke-width:0.8;" x="93.884206" xlink:href="#m2473a41f77" y="307.584"/>
      </g>
     </g>
     <g id="text_20">
      <!-- −1.0 -->
      <g transform="translate(81.742799 322.182437)scale(0.1 -0.1)">
       <use xlink:href="#DejaVuSans-8722"/>
       <use x="83.789062" xlink:href="#DejaVuSans-49"/>
       <use x="147.412109" xlink:href="#DejaVuSans-46"/>
       <use x="179.199219" xlink:href="#DejaVuSans-48"/>
      </g>
     </g>
    </g>
    <g id="xtick_12">
     <g id="line2d_19">
      <g>
       <use style="stroke:#000000;stroke-width:0.8;" x="164.755318" xlink:href="#m2473a41f77" y="307.584"/>
      </g>
     </g>
     <g id="text_21">
      <!-- −0.5 -->
      <g transform="translate(152.613911 322.182437)scale(0.1 -0.1)">
       <use xlink:href="#DejaVuSans-8722"/>
       <use x="83.789062" xlink:href="#DejaVuSans-48"/>
       <use x="147.412109" xlink:href="#DejaVuSans-46"/>
       <use x="179.199219" xlink:href="#DejaVuSans-53"/>
      </g>
     </g>
    </g>
    <g id="xtick_13">
     <g id="line2d_20">
      <g>
       <use style="stroke:#000000;stroke-width:0.8;" x="235.626429" xlink:href="#m2473a41f77" y="307.584"/>
      </g>
     </g>
     <g id="text_22">
      <!-- 0.0 -->
      <g transform="translate(227.674867 322.182437)scale(0.1 -0.1)">
       <use xlink:href="#DejaVuSans-48"/>
       <use x="63.623047" xlink:href="#DejaVuSans-46"/>
       <use x="95.410156" xlink:href="#DejaVuSans-48"/>
      </g>
     </g>
    </g>
    <g id="xtick_14">
     <g id="line2d_21">
      <g>
       <use style="stroke:#000000;stroke-width:0.8;" x="306.497541" xlink:href="#m2473a41f77" y="307.584"/>
      </g>
     </g>
     <g id="text_23">
      <!-- 0.5 -->
      <g transform="translate(298.545979 322.182437)scale(0.1 -0.1)">
       <use xlink:href="#DejaVuSans-48"/>
       <use x="63.623047" xlink:href="#DejaVuSans-46"/>
       <use x="95.410156" xlink:href="#DejaVuSans-53"/>
      </g>
     </g>
    </g>
    <g id="xtick_15">
     <g id="line2d_22">
      <g>
       <use style="stroke:#000000;stroke-width:0.8;" x="377.368653" xlink:href="#m2473a41f77" y="307.584"/>
      </g>
     </g>
     <g id="text_24">
      <!-- 1.0 -->
      <g transform="translate(369.417091 322.182437)scale(0.1 -0.1)">
       <use xlink:href="#DejaVuSans-49"/>
       <use x="63.623047" xlink:href="#DejaVuSans-46"/>
       <use x="95.410156" xlink:href="#DejaVuSans-48"/>
      </g>
     </g>
    </g>
    <g id="text_25">
     <!-- Position -->
     <defs>
      <path d="M 19.671875 64.796875 
L 19.671875 37.40625 
L 32.078125 37.40625 
Q 38.96875 37.40625 42.71875 40.96875 
Q 46.484375 44.53125 46.484375 51.125 
Q 46.484375 57.671875 42.71875 61.234375 
Q 38.96875 64.796875 32.078125 64.796875 
z
M 9.8125 72.90625 
L 32.078125 72.90625 
Q 44.34375 72.90625 50.609375 67.359375 
Q 56.890625 61.8125 56.890625 51.125 
Q 56.890625 40.328125 50.609375 34.8125 
Q 44.34375 29.296875 32.078125 29.296875 
L 19.671875 29.296875 
L 19.671875 0 
L 9.8125 0 
z
" id="DejaVuSans-80"/>
      <path d="M 30.609375 48.390625 
Q 23.390625 48.390625 19.1875 42.75 
Q 14.984375 37.109375 14.984375 27.296875 
Q 14.984375 17.484375 19.15625 11.84375 
Q 23.34375 6.203125 30.609375 6.203125 
Q 37.796875 6.203125 41.984375 11.859375 
Q 46.1875 17.53125 46.1875 27.296875 
Q 46.1875 37.015625 41.984375 42.703125 
Q 37.796875 48.390625 30.609375 48.390625 
z
M 30.609375 56 
Q 42.328125 56 49.015625 48.375 
Q 55.71875 40.765625 55.71875 27.296875 
Q 55.71875 13.875 49.015625 6.21875 
Q 42.328125 -1.421875 30.609375 -1.421875 
Q 18.84375 -1.421875 12.171875 6.21875 
Q 5.515625 13.875 5.515625 27.296875 
Q 5.515625 40.765625 12.171875 48.375 
Q 18.84375 56 30.609375 56 
z
" id="DejaVuSans-111"/>
     </defs>
     <g transform="translate(216.517031 335.860562)scale(0.1 -0.1)">
      <use xlink:href="#DejaVuSans-80"/>
      <use x="60.255859" xlink:href="#DejaVuSans-111"/>
      <use x="121.4375" xlink:href="#DejaVuSans-115"/>
      <use x="173.537109" xlink:href="#DejaVuSans-105"/>
      <use x="201.320312" xlink:href="#DejaVuSans-116"/>
      <use x="240.529297" xlink:href="#DejaVuSans-105"/>
      <use x="268.3125" xlink:href="#DejaVuSans-111"/>
      <use x="329.494141" xlink:href="#DejaVuSans-110"/>
     </g>
    </g>
   </g>
   <g id="matplotlib.axis_6">
    <g id="ytick_6">
     <g id="line2d_23">
      <g>
       <use style="stroke:#000000;stroke-width:0.8;" x="57.6" xlink:href="#md1d8a34b4f" y="307.584"/>
      </g>
     </g>
     <g id="text_26">
      <!-- 0.0 -->
      <g transform="translate(34.696875 311.383219)scale(0.1 -0.1)">
       <use xlink:href="#DejaVuSans-48"/>
       <use x="63.623047" xlink:href="#DejaVuSans-46"/>
       <use x="95.410156" xlink:href="#DejaVuSans-48"/>
      </g>
     </g>
    </g>
    <g id="ytick_7">
     <g id="line2d_24">
      <g>
       <use style="stroke:#000000;stroke-width:0.8;" x="57.6" xlink:href="#md1d8a34b4f" y="282.922469"/>
      </g>
     </g>
     <g id="text_27">
      <!-- 0.5 -->
      <g transform="translate(34.696875 286.721688)scale(0.1 -0.1)">
       <use xlink:href="#DejaVuSans-48"/>
       <use x="63.623047" xlink:href="#DejaVuSans-46"/>
       <use x="95.410156" xlink:href="#DejaVuSans-53"/>
      </g>
     </g>
    </g>
    <g id="ytick_8">
     <g id="line2d_25">
      <g>
       <use style="stroke:#000000;stroke-width:0.8;" x="57.6" xlink:href="#md1d8a34b4f" y="258.260938"/>
      </g>
     </g>
     <g id="text_28">
      <!-- 1.0 -->
      <g transform="translate(34.696875 262.060156)scale(0.1 -0.1)">
       <use xlink:href="#DejaVuSans-49"/>
       <use x="63.623047" xlink:href="#DejaVuSans-46"/>
       <use x="95.410156" xlink:href="#DejaVuSans-48"/>
      </g>
     </g>
    </g>
    <g id="text_29">
     <!-- Density -->
     <g transform="translate(28.617187 293.328594)rotate(-90)scale(0.1 -0.1)">
      <use xlink:href="#DejaVuSans-68"/>
      <use x="77.001953" xlink:href="#DejaVuSans-101"/>
      <use x="138.525391" xlink:href="#DejaVuSans-110"/>
      <use x="201.904297" xlink:href="#DejaVuSans-115"/>
      <use x="254.003906" xlink:href="#DejaVuSans-105"/>
      <use x="281.787109" xlink:href="#DejaVuSans-116"/>
      <use x="320.996094" xlink:href="#DejaVuSans-121"/>
     </g>
    </g>
   </g>
   <g id="line2d_26">
    <path clip-path="url(#p8bb6dc86a1)" d="M 73.832727 307.580044 
L 77.112066 307.574208 
L 80.391405 307.561251 
L 83.670744 307.53432 
L 86.950083 307.481834 
L 90.229421 307.385779 
L 93.50876 307.220402 
L 96.788099 306.951987 
L 100.067438 306.540292 
L 103.346777 305.941856 
L 106.626116 305.114761 
L 109.905455 304.023973 
L 113.184793 302.646345 
L 116.464132 300.97497 
L 119.743471 299.02333 
L 123.02281 296.829836 
L 126.302149 294.462243 
L 129.581488 292.019236 
L 132.860826 289.624714 
L 136.140165 287.410973 
L 139.419504 285.491252 
L 142.698843 283.928732 
L 145.978182 282.714337 
L 149.257521 281.765447 
L 152.53686 280.950321 
L 155.816198 280.131564 
L 159.095537 279.212592 
L 162.374876 278.16931 
L 165.654215 277.056206 
L 168.933554 275.987186 
L 172.212893 275.100514 
L 175.492231 274.519916 
L 178.77157 274.321457 
L 182.050909 274.511919 
L 185.330248 275.022045 
L 188.609587 275.716646 
L 191.888926 276.420966 
L 195.168264 276.95779 
L 198.447603 277.184789 
L 201.726942 277.020076 
L 205.006281 276.44794 
L 208.28562 275.50508 
L 211.564959 274.256403 
L 214.844298 272.774177 
L 218.123636 271.132043 
L 221.402975 269.416249 
L 224.682314 267.744627 
L 227.961653 266.276028 
L 231.240992 265.195312 
L 234.520331 264.67179 
L 237.799669 264.805642 
L 241.079008 265.586754 
L 244.358347 266.887037 
L 247.637686 268.491889 
L 250.917025 270.158219 
L 254.196364 271.675332 
L 257.475702 272.906436 
L 260.755041 273.800067 
L 264.03438 274.375187 
L 267.313719 274.693186 
L 270.593058 274.831042 
L 273.872397 274.864029 
L 277.151736 274.858772 
L 280.431074 274.87255 
L 283.710413 274.953942 
L 286.989752 275.141575 
L 290.269091 275.459922 
L 293.54843 275.913117 
L 296.827769 276.479651 
L 300.107107 277.112266 
L 303.386446 277.746973 
L 306.665785 278.321879 
L 309.945124 278.801376 
L 313.224463 279.196933 
L 316.503802 279.575138 
L 319.78314 280.047813 
L 323.062479 280.746221 
L 326.341818 281.787955 
L 329.621157 283.247596 
L 332.900496 285.139617 
L 336.179835 287.416248 
L 339.459174 289.977651 
L 342.738512 292.689389 
L 346.017851 295.402786 
L 349.29719 297.975279 
L 352.576529 300.288583 
L 355.855868 302.262156 
L 359.135207 303.859465 
L 362.414545 305.085889 
L 365.693884 305.979434 
L 368.973223 306.597516 
L 372.252562 307.00372 
L 375.531901 307.257554 
L 378.81124 307.408474 
L 382.090579 307.493877 
L 385.369917 307.53987 
L 388.649256 307.563426 
L 391.928595 307.574885 
L 395.207934 307.580172 
L 398.487273 307.582479 
" style="fill:none;stroke:#8b0000;stroke-linecap:square;stroke-width:4;"/>
   </g>
   <g id="patch_167">
    <path d="M 57.6 307.584 
L 57.6 241.056 
" style="fill:none;stroke:#000000;stroke-linecap:square;stroke-linejoin:miter;stroke-width:0.8;"/>
   </g>
   <g id="patch_168">
    <path d="M 414.72 307.584 
L 414.72 241.056 
" style="fill:none;stroke:#000000;stroke-linecap:square;stroke-linejoin:miter;stroke-width:0.8;"/>
   </g>
   <g id="patch_169">
    <path d="M 57.6 307.584 
L 414.72 307.584 
" style="fill:none;stroke:#000000;stroke-linecap:square;stroke-linejoin:miter;stroke-width:0.8;"/>
   </g>
   <g id="patch_170">
    <path d="M 57.6 241.056 
L 414.72 241.056 
" style="fill:none;stroke:#000000;stroke-linecap:square;stroke-linejoin:miter;stroke-width:0.8;"/>
   </g>
   <g id="legend_3">
    <g id="patch_171">
     <path d="M 370.471563 263.734125 
L 407.72 263.734125 
Q 409.72 263.734125 409.72 261.734125 
L 409.72 248.056 
Q 409.72 246.056 407.72 246.056 
L 370.471563 246.056 
Q 368.471563 246.056 368.471563 248.056 
L 368.471563 261.734125 
Q 368.471563 263.734125 370.471563 263.734125 
z
" style="fill:#ffffff;opacity:0.8;stroke:#cccccc;stroke-linejoin:miter;"/>
    </g>
    <g id="patch_172">
     <path d="M 372.471563 257.654437 
L 392.471563 257.654437 
L 392.471563 250.654437 
L 372.471563 250.654437 
z
" style="fill:#8b0000;opacity:0.4;stroke:#000000;stroke-linejoin:miter;"/>
    </g>
    <g id="text_30">
     <!-- z -->
     <defs>
      <path d="M 5.515625 54.6875 
L 48.1875 54.6875 
L 48.1875 46.484375 
L 14.40625 7.171875 
L 48.1875 7.171875 
L 48.1875 0 
L 4.296875 0 
L 4.296875 8.203125 
L 38.09375 47.515625 
L 5.515625 47.515625 
z
" id="DejaVuSans-122"/>
     </defs>
     <g transform="translate(400.471563 257.654437)scale(0.1 -0.1)">
      <use xlink:href="#DejaVuSans-122"/>
     </g>
    </g>
   </g>
  </g>
  <g id="text_31">
   <!-- Motif 4 Histogram -->
   <defs>
    <path d="M 9.8125 72.90625 
L 24.515625 72.90625 
L 43.109375 23.296875 
L 61.8125 72.90625 
L 76.515625 72.90625 
L 76.515625 0 
L 66.890625 0 
L 66.890625 64.015625 
L 48.09375 14.015625 
L 38.1875 14.015625 
L 19.390625 64.015625 
L 19.390625 0 
L 9.8125 0 
z
" id="DejaVuSans-77"/>
    <path d="M 37.109375 75.984375 
L 37.109375 68.5 
L 28.515625 68.5 
Q 23.6875 68.5 21.796875 66.546875 
Q 19.921875 64.59375 19.921875 59.515625 
L 19.921875 54.6875 
L 34.71875 54.6875 
L 34.71875 47.703125 
L 19.921875 47.703125 
L 19.921875 0 
L 10.890625 0 
L 10.890625 47.703125 
L 2.296875 47.703125 
L 2.296875 54.6875 
L 10.890625 54.6875 
L 10.890625 58.5 
Q 10.890625 67.625 15.140625 71.796875 
Q 19.390625 75.984375 28.609375 75.984375 
z
" id="DejaVuSans-102"/>
    <path id="DejaVuSans-32"/>
    <path d="M 37.796875 64.3125 
L 12.890625 25.390625 
L 37.796875 25.390625 
z
M 35.203125 72.90625 
L 47.609375 72.90625 
L 47.609375 25.390625 
L 58.015625 25.390625 
L 58.015625 17.1875 
L 47.609375 17.1875 
L 47.609375 0 
L 37.796875 0 
L 37.796875 17.1875 
L 4.890625 17.1875 
L 4.890625 26.703125 
z
" id="DejaVuSans-52"/>
    <path d="M 9.8125 72.90625 
L 19.671875 72.90625 
L 19.671875 43.015625 
L 55.515625 43.015625 
L 55.515625 72.90625 
L 65.375 72.90625 
L 65.375 0 
L 55.515625 0 
L 55.515625 34.71875 
L 19.671875 34.71875 
L 19.671875 0 
L 9.8125 0 
z
" id="DejaVuSans-72"/>
    <path d="M 45.40625 27.984375 
Q 45.40625 37.75 41.375 43.109375 
Q 37.359375 48.484375 30.078125 48.484375 
Q 22.859375 48.484375 18.828125 43.109375 
Q 14.796875 37.75 14.796875 27.984375 
Q 14.796875 18.265625 18.828125 12.890625 
Q 22.859375 7.515625 30.078125 7.515625 
Q 37.359375 7.515625 41.375 12.890625 
Q 45.40625 18.265625 45.40625 27.984375 
z
M 54.390625 6.78125 
Q 54.390625 -7.171875 48.1875 -13.984375 
Q 42 -20.796875 29.203125 -20.796875 
Q 24.46875 -20.796875 20.265625 -20.09375 
Q 16.0625 -19.390625 12.109375 -17.921875 
L 12.109375 -9.1875 
Q 16.0625 -11.328125 19.921875 -12.34375 
Q 23.78125 -13.375 27.78125 -13.375 
Q 36.625 -13.375 41.015625 -8.765625 
Q 45.40625 -4.15625 45.40625 5.171875 
L 45.40625 9.625 
Q 42.625 4.78125 38.28125 2.390625 
Q 33.9375 0 27.875 0 
Q 17.828125 0 11.671875 7.65625 
Q 5.515625 15.328125 5.515625 27.984375 
Q 5.515625 40.671875 11.671875 48.328125 
Q 17.828125 56 27.875 56 
Q 33.9375 56 38.28125 53.609375 
Q 42.625 51.21875 45.40625 46.390625 
L 45.40625 54.6875 
L 54.390625 54.6875 
z
" id="DejaVuSans-103"/>
    <path d="M 41.109375 46.296875 
Q 39.59375 47.171875 37.8125 47.578125 
Q 36.03125 48 33.890625 48 
Q 26.265625 48 22.1875 43.046875 
Q 18.109375 38.09375 18.109375 28.8125 
L 18.109375 0 
L 9.078125 0 
L 9.078125 54.6875 
L 18.109375 54.6875 
L 18.109375 46.1875 
Q 20.953125 51.171875 25.484375 53.578125 
Q 30.03125 56 36.53125 56 
Q 37.453125 56 38.578125 55.875 
Q 39.703125 55.765625 41.0625 55.515625 
z
" id="DejaVuSans-114"/>
    <path d="M 34.28125 27.484375 
Q 23.390625 27.484375 19.1875 25 
Q 14.984375 22.515625 14.984375 16.5 
Q 14.984375 11.71875 18.140625 8.90625 
Q 21.296875 6.109375 26.703125 6.109375 
Q 34.1875 6.109375 38.703125 11.40625 
Q 43.21875 16.703125 43.21875 25.484375 
L 43.21875 27.484375 
z
M 52.203125 31.203125 
L 52.203125 0 
L 43.21875 0 
L 43.21875 8.296875 
Q 40.140625 3.328125 35.546875 0.953125 
Q 30.953125 -1.421875 24.3125 -1.421875 
Q 15.921875 -1.421875 10.953125 3.296875 
Q 6 8.015625 6 15.921875 
Q 6 25.140625 12.171875 29.828125 
Q 18.359375 34.515625 30.609375 34.515625 
L 43.21875 34.515625 
L 43.21875 35.40625 
Q 43.21875 41.609375 39.140625 45 
Q 35.0625 48.390625 27.6875 48.390625 
Q 23 48.390625 18.546875 47.265625 
Q 14.109375 46.140625 10.015625 43.890625 
L 10.015625 52.203125 
Q 14.9375 54.109375 19.578125 55.046875 
Q 24.21875 56 28.609375 56 
Q 40.484375 56 46.34375 49.84375 
Q 52.203125 43.703125 52.203125 31.203125 
z
" id="DejaVuSans-97"/>
    <path d="M 52 44.1875 
Q 55.375 50.25 60.0625 53.125 
Q 64.75 56 71.09375 56 
Q 79.640625 56 84.28125 50.015625 
Q 88.921875 44.046875 88.921875 33.015625 
L 88.921875 0 
L 79.890625 0 
L 79.890625 32.71875 
Q 79.890625 40.578125 77.09375 44.375 
Q 74.3125 48.1875 68.609375 48.1875 
Q 61.625 48.1875 57.5625 43.546875 
Q 53.515625 38.921875 53.515625 30.90625 
L 53.515625 0 
L 44.484375 0 
L 44.484375 32.71875 
Q 44.484375 40.625 41.703125 44.40625 
Q 38.921875 48.1875 33.109375 48.1875 
Q 26.21875 48.1875 22.15625 43.53125 
Q 18.109375 38.875 18.109375 30.90625 
L 18.109375 0 
L 9.078125 0 
L 9.078125 54.6875 
L 18.109375 54.6875 
L 18.109375 46.1875 
Q 21.1875 51.21875 25.484375 53.609375 
Q 29.78125 56 35.6875 56 
Q 41.65625 56 45.828125 52.96875 
Q 50 49.953125 52 44.1875 
z
" id="DejaVuSans-109"/>
   </defs>
   <g transform="translate(176.664375 16.030125)scale(0.12 -0.12)">
    <use xlink:href="#DejaVuSans-77"/>
    <use x="86.279297" xlink:href="#DejaVuSans-111"/>
    <use x="147.460938" xlink:href="#DejaVuSans-116"/>
    <use x="186.669922" xlink:href="#DejaVuSans-105"/>
    <use x="214.453125" xlink:href="#DejaVuSans-102"/>
    <use x="249.658203" xlink:href="#DejaVuSans-32"/>
    <use x="281.445312" xlink:href="#DejaVuSans-52"/>
    <use x="345.068359" xlink:href="#DejaVuSans-32"/>
    <use x="376.855469" xlink:href="#DejaVuSans-72"/>
    <use x="452.050781" xlink:href="#DejaVuSans-105"/>
    <use x="479.833984" xlink:href="#DejaVuSans-115"/>
    <use x="531.933594" xlink:href="#DejaVuSans-116"/>
    <use x="571.142578" xlink:href="#DejaVuSans-111"/>
    <use x="632.324219" xlink:href="#DejaVuSans-103"/>
    <use x="695.800781" xlink:href="#DejaVuSans-114"/>
    <use x="736.914062" xlink:href="#DejaVuSans-97"/>
    <use x="798.193359" xlink:href="#DejaVuSans-109"/>
   </g>
  </g>
 </g>
 <defs>
  <clipPath id="p6b81a0da1e">
   <rect height="66.528" width="357.12" x="57.6" y="41.472"/>
  </clipPath>
  <clipPath id="p2025ba8278">
   <rect height="66.528" width="357.12" x="57.6" y="141.264"/>
  </clipPath>
  <clipPath id="p8bb6dc86a1">
   <rect height="66.528" width="357.12" x="57.6" y="241.056"/>
  </clipPath>
 </defs>
</svg>
