<?xml version="1.0" encoding="utf-8" standalone="no"?>
<!DOCTYPE svg PUBLIC "-//W3C//DTD SVG 1.1//EN"
  "http://www.w3.org/Graphics/SVG/1.1/DTD/svg11.dtd">
<!-- Created with matplotlib (https://matplotlib.org/) -->
<svg height="345.6pt" version="1.1" viewBox="0 0 460.8 345.6" width="460.8pt" xmlns="http://www.w3.org/2000/svg" xmlns:xlink="http://www.w3.org/1999/xlink">
 <defs>
  <style type="text/css">
*{stroke-linecap:butt;stroke-linejoin:round;}
  </style>
 </defs>
 <g id="figure_1">
  <g id="patch_1">
   <path d="M 0 345.6 
L 460.8 345.6 
L 460.8 0 
L 0 0 
z
" style="fill:#ffffff;"/>
  </g>
  <g id="axes_1">
   <g id="patch_2">
    <path d="M 57.6 108 
L 414.72 108 
L 414.72 41.472 
L 57.6 41.472 
z
" style="fill:#ffffff;"/>
   </g>
   <g id="patch_3">
    <path clip-path="url(#pbf065433b1)" d="M 116.858344 108 
L 121.63041 108 
L 121.63041 105.852203 
L 116.858344 105.852203 
z
" style="fill:#00008b;opacity:0.4;stroke:#000000;stroke-linejoin:miter;"/>
   </g>
   <g id="patch_4">
    <path clip-path="url(#pbf065433b1)" d="M 121.63041 108 
L 126.402476 108 
L 126.402476 108 
L 121.63041 108 
z
" style="fill:#00008b;opacity:0.4;stroke:#000000;stroke-linejoin:miter;"/>
   </g>
   <g id="patch_5">
    <path clip-path="url(#pbf065433b1)" d="M 126.402476 108 
L 131.174542 108 
L 131.174542 102.630508 
L 126.402476 102.630508 
z
" style="fill:#00008b;opacity:0.4;stroke:#000000;stroke-linejoin:miter;"/>
   </g>
   <g id="patch_6">
    <path clip-path="url(#pbf065433b1)" d="M 131.174542 108 
L 135.946609 108 
L 135.946609 104.778305 
L 131.174542 104.778305 
z
" style="fill:#00008b;opacity:0.4;stroke:#000000;stroke-linejoin:miter;"/>
   </g>
   <g id="patch_7">
    <path clip-path="url(#pbf065433b1)" d="M 135.946609 108 
L 140.718675 108 
L 140.718675 94.039322 
L 135.946609 94.039322 
z
" style="fill:#00008b;opacity:0.4;stroke:#000000;stroke-linejoin:miter;"/>
   </g>
   <g id="patch_8">
    <path clip-path="url(#pbf065433b1)" d="M 140.718675 108 
L 145.490741 108 
L 145.490741 90.817627 
L 140.718675 90.817627 
z
" style="fill:#00008b;opacity:0.4;stroke:#000000;stroke-linejoin:miter;"/>
   </g>
   <g id="patch_9">
    <path clip-path="url(#pbf065433b1)" d="M 145.490741 108 
L 150.262807 108 
L 150.262807 97.261017 
L 145.490741 97.261017 
z
" style="fill:#00008b;opacity:0.4;stroke:#000000;stroke-linejoin:miter;"/>
   </g>
   <g id="patch_10">
    <path clip-path="url(#pbf065433b1)" d="M 150.262807 108 
L 155.034874 108 
L 155.034874 91.891525 
L 150.262807 91.891525 
z
" style="fill:#00008b;opacity:0.4;stroke:#000000;stroke-linejoin:miter;"/>
   </g>
   <g id="patch_11">
    <path clip-path="url(#pbf065433b1)" d="M 155.034874 108 
L 159.80694 108 
L 159.80694 95.11322 
L 155.034874 95.11322 
z
" style="fill:#00008b;opacity:0.4;stroke:#000000;stroke-linejoin:miter;"/>
   </g>
   <g id="patch_12">
    <path clip-path="url(#pbf065433b1)" d="M 159.80694 108 
L 164.579006 108 
L 164.579006 98.334915 
L 159.80694 98.334915 
z
" style="fill:#00008b;opacity:0.4;stroke:#000000;stroke-linejoin:miter;"/>
   </g>
   <g id="patch_13">
    <path clip-path="url(#pbf065433b1)" d="M 164.579006 108 
L 169.351072 108 
L 169.351072 85.448136 
L 164.579006 85.448136 
z
" style="fill:#00008b;opacity:0.4;stroke:#000000;stroke-linejoin:miter;"/>
   </g>
   <g id="patch_14">
    <path clip-path="url(#pbf065433b1)" d="M 169.351072 108 
L 174.123139 108 
L 174.123139 92.965424 
L 169.351072 92.965424 
z
" style="fill:#00008b;opacity:0.4;stroke:#000000;stroke-linejoin:miter;"/>
   </g>
   <g id="patch_15">
    <path clip-path="url(#pbf065433b1)" d="M 174.123139 108 
L 178.895205 108 
L 178.895205 94.039322 
L 174.123139 94.039322 
z
" style="fill:#00008b;opacity:0.4;stroke:#000000;stroke-linejoin:miter;"/>
   </g>
   <g id="patch_16">
    <path clip-path="url(#pbf065433b1)" d="M 178.895205 108 
L 183.667271 108 
L 183.667271 91.891525 
L 178.895205 91.891525 
z
" style="fill:#00008b;opacity:0.4;stroke:#000000;stroke-linejoin:miter;"/>
   </g>
   <g id="patch_17">
    <path clip-path="url(#pbf065433b1)" d="M 183.667271 108 
L 188.439337 108 
L 188.439337 94.039322 
L 183.667271 94.039322 
z
" style="fill:#00008b;opacity:0.4;stroke:#000000;stroke-linejoin:miter;"/>
   </g>
   <g id="patch_18">
    <path clip-path="url(#pbf065433b1)" d="M 188.439337 108 
L 193.211404 108 
L 193.211404 98.334915 
L 188.439337 98.334915 
z
" style="fill:#00008b;opacity:0.4;stroke:#000000;stroke-linejoin:miter;"/>
   </g>
   <g id="patch_19">
    <path clip-path="url(#pbf065433b1)" d="M 193.211404 108 
L 197.98347 108 
L 197.98347 94.039322 
L 193.211404 94.039322 
z
" style="fill:#00008b;opacity:0.4;stroke:#000000;stroke-linejoin:miter;"/>
   </g>
   <g id="patch_20">
    <path clip-path="url(#pbf065433b1)" d="M 197.98347 108 
L 202.755536 108 
L 202.755536 87.595932 
L 197.98347 87.595932 
z
" style="fill:#00008b;opacity:0.4;stroke:#000000;stroke-linejoin:miter;"/>
   </g>
   <g id="patch_21">
    <path clip-path="url(#pbf065433b1)" d="M 202.755536 108 
L 207.527602 108 
L 207.527602 87.595932 
L 202.755536 87.595932 
z
" style="fill:#00008b;opacity:0.4;stroke:#000000;stroke-linejoin:miter;"/>
   </g>
   <g id="patch_22">
    <path clip-path="url(#pbf065433b1)" d="M 207.527602 108 
L 212.299669 108 
L 212.299669 87.595932 
L 207.527602 87.595932 
z
" style="fill:#00008b;opacity:0.4;stroke:#000000;stroke-linejoin:miter;"/>
   </g>
   <g id="patch_23">
    <path clip-path="url(#pbf065433b1)" d="M 212.299669 108 
L 217.071735 108 
L 217.071735 89.743729 
L 212.299669 89.743729 
z
" style="fill:#00008b;opacity:0.4;stroke:#000000;stroke-linejoin:miter;"/>
   </g>
   <g id="patch_24">
    <path clip-path="url(#pbf065433b1)" d="M 217.071735 108 
L 221.843801 108 
L 221.843801 87.595932 
L 217.071735 87.595932 
z
" style="fill:#00008b;opacity:0.4;stroke:#000000;stroke-linejoin:miter;"/>
   </g>
   <g id="patch_25">
    <path clip-path="url(#pbf065433b1)" d="M 221.843801 108 
L 226.615867 108 
L 226.615867 96.187119 
L 221.843801 96.187119 
z
" style="fill:#00008b;opacity:0.4;stroke:#000000;stroke-linejoin:miter;"/>
   </g>
   <g id="patch_26">
    <path clip-path="url(#pbf065433b1)" d="M 226.615867 108 
L 231.387934 108 
L 231.387934 65.044068 
L 226.615867 65.044068 
z
" style="fill:#00008b;opacity:0.4;stroke:#000000;stroke-linejoin:miter;"/>
   </g>
   <g id="patch_27">
    <path clip-path="url(#pbf065433b1)" d="M 231.387934 108 
L 236.16 108 
L 236.16 56.452881 
L 231.387934 56.452881 
z
" style="fill:#00008b;opacity:0.4;stroke:#000000;stroke-linejoin:miter;"/>
   </g>
   <g id="patch_28">
    <path clip-path="url(#pbf065433b1)" d="M 236.16 108 
L 240.932066 108 
L 240.932066 44.64 
L 236.16 44.64 
z
" style="fill:#00008b;opacity:0.4;stroke:#000000;stroke-linejoin:miter;"/>
   </g>
   <g id="patch_29">
    <path clip-path="url(#pbf065433b1)" d="M 240.932066 108 
L 245.704133 108 
L 245.704133 65.044068 
L 240.932066 65.044068 
z
" style="fill:#00008b;opacity:0.4;stroke:#000000;stroke-linejoin:miter;"/>
   </g>
   <g id="patch_30">
    <path clip-path="url(#pbf065433b1)" d="M 245.704133 108 
L 250.476199 108 
L 250.476199 79.004746 
L 245.704133 79.004746 
z
" style="fill:#00008b;opacity:0.4;stroke:#000000;stroke-linejoin:miter;"/>
   </g>
   <g id="patch_31">
    <path clip-path="url(#pbf065433b1)" d="M 250.476199 108 
L 255.248265 108 
L 255.248265 92.965424 
L 250.476199 92.965424 
z
" style="fill:#00008b;opacity:0.4;stroke:#000000;stroke-linejoin:miter;"/>
   </g>
   <g id="patch_32">
    <path clip-path="url(#pbf065433b1)" d="M 255.248265 108 
L 260.020331 108 
L 260.020331 86.522034 
L 255.248265 86.522034 
z
" style="fill:#00008b;opacity:0.4;stroke:#000000;stroke-linejoin:miter;"/>
   </g>
   <g id="patch_33">
    <path clip-path="url(#pbf065433b1)" d="M 260.020331 108 
L 264.792398 108 
L 264.792398 82.226441 
L 260.020331 82.226441 
z
" style="fill:#00008b;opacity:0.4;stroke:#000000;stroke-linejoin:miter;"/>
   </g>
   <g id="patch_34">
    <path clip-path="url(#pbf065433b1)" d="M 264.792398 108 
L 269.564464 108 
L 269.564464 94.039322 
L 264.792398 94.039322 
z
" style="fill:#00008b;opacity:0.4;stroke:#000000;stroke-linejoin:miter;"/>
   </g>
   <g id="patch_35">
    <path clip-path="url(#pbf065433b1)" d="M 269.564464 108 
L 274.33653 108 
L 274.33653 84.374237 
L 269.564464 84.374237 
z
" style="fill:#00008b;opacity:0.4;stroke:#000000;stroke-linejoin:miter;"/>
   </g>
   <g id="patch_36">
    <path clip-path="url(#pbf065433b1)" d="M 274.33653 108 
L 279.108596 108 
L 279.108596 88.669831 
L 274.33653 88.669831 
z
" style="fill:#00008b;opacity:0.4;stroke:#000000;stroke-linejoin:miter;"/>
   </g>
   <g id="patch_37">
    <path clip-path="url(#pbf065433b1)" d="M 279.108596 108 
L 283.880663 108 
L 283.880663 91.891525 
L 279.108596 91.891525 
z
" style="fill:#00008b;opacity:0.4;stroke:#000000;stroke-linejoin:miter;"/>
   </g>
   <g id="patch_38">
    <path clip-path="url(#pbf065433b1)" d="M 283.880663 108 
L 288.652729 108 
L 288.652729 91.891525 
L 283.880663 91.891525 
z
" style="fill:#00008b;opacity:0.4;stroke:#000000;stroke-linejoin:miter;"/>
   </g>
   <g id="patch_39">
    <path clip-path="url(#pbf065433b1)" d="M 288.652729 108 
L 293.424795 108 
L 293.424795 97.261017 
L 288.652729 97.261017 
z
" style="fill:#00008b;opacity:0.4;stroke:#000000;stroke-linejoin:miter;"/>
   </g>
   <g id="patch_40">
    <path clip-path="url(#pbf065433b1)" d="M 293.424795 108 
L 298.196861 108 
L 298.196861 90.817627 
L 293.424795 90.817627 
z
" style="fill:#00008b;opacity:0.4;stroke:#000000;stroke-linejoin:miter;"/>
   </g>
   <g id="patch_41">
    <path clip-path="url(#pbf065433b1)" d="M 298.196861 108 
L 302.968928 108 
L 302.968928 87.595932 
L 298.196861 87.595932 
z
" style="fill:#00008b;opacity:0.4;stroke:#000000;stroke-linejoin:miter;"/>
   </g>
   <g id="patch_42">
    <path clip-path="url(#pbf065433b1)" d="M 302.968928 108 
L 307.740994 108 
L 307.740994 98.334915 
L 302.968928 98.334915 
z
" style="fill:#00008b;opacity:0.4;stroke:#000000;stroke-linejoin:miter;"/>
   </g>
   <g id="patch_43">
    <path clip-path="url(#pbf065433b1)" d="M 307.740994 108 
L 312.51306 108 
L 312.51306 95.11322 
L 307.740994 95.11322 
z
" style="fill:#00008b;opacity:0.4;stroke:#000000;stroke-linejoin:miter;"/>
   </g>
   <g id="patch_44">
    <path clip-path="url(#pbf065433b1)" d="M 312.51306 108 
L 317.285126 108 
L 317.285126 82.226441 
L 312.51306 82.226441 
z
" style="fill:#00008b;opacity:0.4;stroke:#000000;stroke-linejoin:miter;"/>
   </g>
   <g id="patch_45">
    <path clip-path="url(#pbf065433b1)" d="M 317.285126 108 
L 322.057193 108 
L 322.057193 98.334915 
L 317.285126 98.334915 
z
" style="fill:#00008b;opacity:0.4;stroke:#000000;stroke-linejoin:miter;"/>
   </g>
   <g id="patch_46">
    <path clip-path="url(#pbf065433b1)" d="M 322.057193 108 
L 326.829259 108 
L 326.829259 91.891525 
L 322.057193 91.891525 
z
" style="fill:#00008b;opacity:0.4;stroke:#000000;stroke-linejoin:miter;"/>
   </g>
   <g id="patch_47">
    <path clip-path="url(#pbf065433b1)" d="M 326.829259 108 
L 331.601325 108 
L 331.601325 97.261017 
L 326.829259 97.261017 
z
" style="fill:#00008b;opacity:0.4;stroke:#000000;stroke-linejoin:miter;"/>
   </g>
   <g id="patch_48">
    <path clip-path="url(#pbf065433b1)" d="M 331.601325 108 
L 336.373391 108 
L 336.373391 95.11322 
L 331.601325 95.11322 
z
" style="fill:#00008b;opacity:0.4;stroke:#000000;stroke-linejoin:miter;"/>
   </g>
   <g id="patch_49">
    <path clip-path="url(#pbf065433b1)" d="M 336.373391 108 
L 341.145458 108 
L 341.145458 95.11322 
L 336.373391 95.11322 
z
" style="fill:#00008b;opacity:0.4;stroke:#000000;stroke-linejoin:miter;"/>
   </g>
   <g id="patch_50">
    <path clip-path="url(#pbf065433b1)" d="M 341.145458 108 
L 345.917524 108 
L 345.917524 100.482712 
L 341.145458 100.482712 
z
" style="fill:#00008b;opacity:0.4;stroke:#000000;stroke-linejoin:miter;"/>
   </g>
   <g id="patch_51">
    <path clip-path="url(#pbf065433b1)" d="M 345.917524 108 
L 350.68959 108 
L 350.68959 96.187119 
L 345.917524 96.187119 
z
" style="fill:#00008b;opacity:0.4;stroke:#000000;stroke-linejoin:miter;"/>
   </g>
   <g id="patch_52">
    <path clip-path="url(#pbf065433b1)" d="M 350.68959 108 
L 355.461656 108 
L 355.461656 105.852203 
L 350.68959 105.852203 
z
" style="fill:#00008b;opacity:0.4;stroke:#000000;stroke-linejoin:miter;"/>
   </g>
   <g id="matplotlib.axis_1">
    <g id="xtick_1">
     <g id="line2d_1">
      <defs>
       <path d="M 0 0 
L 0 3.5 
" id="m08166b8254" style="stroke:#000000;stroke-width:0.8;"/>
      </defs>
      <g>
       <use style="stroke:#000000;stroke-width:0.8;" x="92.920414" xlink:href="#m08166b8254" y="108"/>
      </g>
     </g>
     <g id="text_1">
      <!-- −1.0 -->
      <defs>
       <path d="M 10.59375 35.5 
L 73.1875 35.5 
L 73.1875 27.203125 
L 10.59375 27.203125 
z
" id="DejaVuSans-8722"/>
       <path d="M 12.40625 8.296875 
L 28.515625 8.296875 
L 28.515625 63.921875 
L 10.984375 60.40625 
L 10.984375 69.390625 
L 28.421875 72.90625 
L 38.28125 72.90625 
L 38.28125 8.296875 
L 54.390625 8.296875 
L 54.390625 0 
L 12.40625 0 
z
" id="DejaVuSans-49"/>
       <path d="M 10.6875 12.40625 
L 21 12.40625 
L 21 0 
L 10.6875 0 
z
" id="DejaVuSans-46"/>
       <path d="M 31.78125 66.40625 
Q 24.171875 66.40625 20.328125 58.90625 
Q 16.5 51.421875 16.5 36.375 
Q 16.5 21.390625 20.328125 13.890625 
Q 24.171875 6.390625 31.78125 6.390625 
Q 39.453125 6.390625 43.28125 13.890625 
Q 47.125 21.390625 47.125 36.375 
Q 47.125 51.421875 43.28125 58.90625 
Q 39.453125 66.40625 31.78125 66.40625 
z
M 31.78125 74.21875 
Q 44.046875 74.21875 50.515625 64.515625 
Q 56.984375 54.828125 56.984375 36.375 
Q 56.984375 17.96875 50.515625 8.265625 
Q 44.046875 -1.421875 31.78125 -1.421875 
Q 19.53125 -1.421875 13.0625 8.265625 
Q 6.59375 17.96875 6.59375 36.375 
Q 6.59375 54.828125 13.0625 64.515625 
Q 19.53125 74.21875 31.78125 74.21875 
z
" id="DejaVuSans-48"/>
      </defs>
      <g transform="translate(80.779008 122.598437)scale(0.1 -0.1)">
       <use xlink:href="#DejaVuSans-8722"/>
       <use x="83.789062" xlink:href="#DejaVuSans-49"/>
       <use x="147.412109" xlink:href="#DejaVuSans-46"/>
       <use x="179.199219" xlink:href="#DejaVuSans-48"/>
      </g>
     </g>
    </g>
    <g id="xtick_2">
     <g id="line2d_2">
      <g>
       <use style="stroke:#000000;stroke-width:0.8;" x="165.369866" xlink:href="#m08166b8254" y="108"/>
      </g>
     </g>
     <g id="text_2">
      <!-- −0.5 -->
      <defs>
       <path d="M 10.796875 72.90625 
L 49.515625 72.90625 
L 49.515625 64.59375 
L 19.828125 64.59375 
L 19.828125 46.734375 
Q 21.96875 47.46875 24.109375 47.828125 
Q 26.265625 48.1875 28.421875 48.1875 
Q 40.625 48.1875 47.75 41.5 
Q 54.890625 34.8125 54.890625 23.390625 
Q 54.890625 11.625 47.5625 5.09375 
Q 40.234375 -1.421875 26.90625 -1.421875 
Q 22.3125 -1.421875 17.546875 -0.640625 
Q 12.796875 0.140625 7.71875 1.703125 
L 7.71875 11.625 
Q 12.109375 9.234375 16.796875 8.0625 
Q 21.484375 6.890625 26.703125 6.890625 
Q 35.15625 6.890625 40.078125 11.328125 
Q 45.015625 15.765625 45.015625 23.390625 
Q 45.015625 31 40.078125 35.4375 
Q 35.15625 39.890625 26.703125 39.890625 
Q 22.75 39.890625 18.8125 39.015625 
Q 14.890625 38.140625 10.796875 36.28125 
z
" id="DejaVuSans-53"/>
      </defs>
      <g transform="translate(153.22846 122.598437)scale(0.1 -0.1)">
       <use xlink:href="#DejaVuSans-8722"/>
       <use x="83.789062" xlink:href="#DejaVuSans-48"/>
       <use x="147.412109" xlink:href="#DejaVuSans-46"/>
       <use x="179.199219" xlink:href="#DejaVuSans-53"/>
      </g>
     </g>
    </g>
    <g id="xtick_3">
     <g id="line2d_3">
      <g>
       <use style="stroke:#000000;stroke-width:0.8;" x="237.819319" xlink:href="#m08166b8254" y="108"/>
      </g>
     </g>
     <g id="text_3">
      <!-- 0.0 -->
      <g transform="translate(229.867756 122.598437)scale(0.1 -0.1)">
       <use xlink:href="#DejaVuSans-48"/>
       <use x="63.623047" xlink:href="#DejaVuSans-46"/>
       <use x="95.410156" xlink:href="#DejaVuSans-48"/>
      </g>
     </g>
    </g>
    <g id="xtick_4">
     <g id="line2d_4">
      <g>
       <use style="stroke:#000000;stroke-width:0.8;" x="310.268771" xlink:href="#m08166b8254" y="108"/>
      </g>
     </g>
     <g id="text_4">
      <!-- 0.5 -->
      <g transform="translate(302.317208 122.598437)scale(0.1 -0.1)">
       <use xlink:href="#DejaVuSans-48"/>
       <use x="63.623047" xlink:href="#DejaVuSans-46"/>
       <use x="95.410156" xlink:href="#DejaVuSans-53"/>
      </g>
     </g>
    </g>
    <g id="xtick_5">
     <g id="line2d_5">
      <g>
       <use style="stroke:#000000;stroke-width:0.8;" x="382.718223" xlink:href="#m08166b8254" y="108"/>
      </g>
     </g>
     <g id="text_5">
      <!-- 1.0 -->
      <g transform="translate(374.766661 122.598437)scale(0.1 -0.1)">
       <use xlink:href="#DejaVuSans-49"/>
       <use x="63.623047" xlink:href="#DejaVuSans-46"/>
       <use x="95.410156" xlink:href="#DejaVuSans-48"/>
      </g>
     </g>
    </g>
   </g>
   <g id="matplotlib.axis_2">
    <g id="ytick_1">
     <g id="line2d_6">
      <defs>
       <path d="M 0 0 
L -3.5 0 
" id="ma460ce0f86" style="stroke:#000000;stroke-width:0.8;"/>
      </defs>
      <g>
       <use style="stroke:#000000;stroke-width:0.8;" x="57.6" xlink:href="#ma460ce0f86" y="108"/>
      </g>
     </g>
     <g id="text_6">
      <!-- 0 -->
      <g transform="translate(44.2375 111.799219)scale(0.1 -0.1)">
       <use xlink:href="#DejaVuSans-48"/>
      </g>
     </g>
    </g>
    <g id="ytick_2">
     <g id="line2d_7">
      <g>
       <use style="stroke:#000000;stroke-width:0.8;" x="57.6" xlink:href="#ma460ce0f86" y="79.352315"/>
      </g>
     </g>
     <g id="text_7">
      <!-- 1 -->
      <g transform="translate(44.2375 83.151533)scale(0.1 -0.1)">
       <use xlink:href="#DejaVuSans-49"/>
      </g>
     </g>
    </g>
    <g id="ytick_3">
     <g id="line2d_8">
      <g>
       <use style="stroke:#000000;stroke-width:0.8;" x="57.6" xlink:href="#ma460ce0f86" y="50.704629"/>
      </g>
     </g>
     <g id="text_8">
      <!-- 2 -->
      <defs>
       <path d="M 19.1875 8.296875 
L 53.609375 8.296875 
L 53.609375 0 
L 7.328125 0 
L 7.328125 8.296875 
Q 12.9375 14.109375 22.625 23.890625 
Q 32.328125 33.6875 34.8125 36.53125 
Q 39.546875 41.84375 41.421875 45.53125 
Q 43.3125 49.21875 43.3125 52.78125 
Q 43.3125 58.59375 39.234375 62.25 
Q 35.15625 65.921875 28.609375 65.921875 
Q 23.96875 65.921875 18.8125 64.3125 
Q 13.671875 62.703125 7.8125 59.421875 
L 7.8125 69.390625 
Q 13.765625 71.78125 18.9375 73 
Q 24.125 74.21875 28.421875 74.21875 
Q 39.75 74.21875 46.484375 68.546875 
Q 53.21875 62.890625 53.21875 53.421875 
Q 53.21875 48.921875 51.53125 44.890625 
Q 49.859375 40.875 45.40625 35.40625 
Q 44.1875 33.984375 37.640625 27.21875 
Q 31.109375 20.453125 19.1875 8.296875 
z
" id="DejaVuSans-50"/>
      </defs>
      <g transform="translate(44.2375 54.503848)scale(0.1 -0.1)">
       <use xlink:href="#DejaVuSans-50"/>
      </g>
     </g>
    </g>
    <g id="text_9">
     <!-- Density -->
     <defs>
      <path d="M 19.671875 64.796875 
L 19.671875 8.109375 
L 31.59375 8.109375 
Q 46.6875 8.109375 53.6875 14.9375 
Q 60.6875 21.78125 60.6875 36.53125 
Q 60.6875 51.171875 53.6875 57.984375 
Q 46.6875 64.796875 31.59375 64.796875 
z
M 9.8125 72.90625 
L 30.078125 72.90625 
Q 51.265625 72.90625 61.171875 64.09375 
Q 71.09375 55.28125 71.09375 36.53125 
Q 71.09375 17.671875 61.125 8.828125 
Q 51.171875 0 30.078125 0 
L 9.8125 0 
z
" id="DejaVuSans-68"/>
      <path d="M 56.203125 29.59375 
L 56.203125 25.203125 
L 14.890625 25.203125 
Q 15.484375 15.921875 20.484375 11.0625 
Q 25.484375 6.203125 34.421875 6.203125 
Q 39.59375 6.203125 44.453125 7.46875 
Q 49.3125 8.734375 54.109375 11.28125 
L 54.109375 2.78125 
Q 49.265625 0.734375 44.1875 -0.34375 
Q 39.109375 -1.421875 33.890625 -1.421875 
Q 20.796875 -1.421875 13.15625 6.1875 
Q 5.515625 13.8125 5.515625 26.8125 
Q 5.515625 40.234375 12.765625 48.109375 
Q 20.015625 56 32.328125 56 
Q 43.359375 56 49.78125 48.890625 
Q 56.203125 41.796875 56.203125 29.59375 
z
M 47.21875 32.234375 
Q 47.125 39.59375 43.09375 43.984375 
Q 39.0625 48.390625 32.421875 48.390625 
Q 24.90625 48.390625 20.390625 44.140625 
Q 15.875 39.890625 15.1875 32.171875 
z
" id="DejaVuSans-101"/>
      <path d="M 54.890625 33.015625 
L 54.890625 0 
L 45.90625 0 
L 45.90625 32.71875 
Q 45.90625 40.484375 42.875 44.328125 
Q 39.84375 48.1875 33.796875 48.1875 
Q 26.515625 48.1875 22.3125 43.546875 
Q 18.109375 38.921875 18.109375 30.90625 
L 18.109375 0 
L 9.078125 0 
L 9.078125 54.6875 
L 18.109375 54.6875 
L 18.109375 46.1875 
Q 21.34375 51.125 25.703125 53.5625 
Q 30.078125 56 35.796875 56 
Q 45.21875 56 50.046875 50.171875 
Q 54.890625 44.34375 54.890625 33.015625 
z
" id="DejaVuSans-110"/>
      <path d="M 44.28125 53.078125 
L 44.28125 44.578125 
Q 40.484375 46.53125 36.375 47.5 
Q 32.28125 48.484375 27.875 48.484375 
Q 21.1875 48.484375 17.84375 46.4375 
Q 14.5 44.390625 14.5 40.28125 
Q 14.5 37.15625 16.890625 35.375 
Q 19.28125 33.59375 26.515625 31.984375 
L 29.59375 31.296875 
Q 39.15625 29.25 43.1875 25.515625 
Q 47.21875 21.78125 47.21875 15.09375 
Q 47.21875 7.46875 41.1875 3.015625 
Q 35.15625 -1.421875 24.609375 -1.421875 
Q 20.21875 -1.421875 15.453125 -0.5625 
Q 10.6875 0.296875 5.421875 2 
L 5.421875 11.28125 
Q 10.40625 8.6875 15.234375 7.390625 
Q 20.0625 6.109375 24.8125 6.109375 
Q 31.15625 6.109375 34.5625 8.28125 
Q 37.984375 10.453125 37.984375 14.40625 
Q 37.984375 18.0625 35.515625 20.015625 
Q 33.0625 21.96875 24.703125 23.78125 
L 21.578125 24.515625 
Q 13.234375 26.265625 9.515625 29.90625 
Q 5.8125 33.546875 5.8125 39.890625 
Q 5.8125 47.609375 11.28125 51.796875 
Q 16.75 56 26.8125 56 
Q 31.78125 56 36.171875 55.265625 
Q 40.578125 54.546875 44.28125 53.078125 
z
" id="DejaVuSans-115"/>
      <path d="M 9.421875 54.6875 
L 18.40625 54.6875 
L 18.40625 0 
L 9.421875 0 
z
M 9.421875 75.984375 
L 18.40625 75.984375 
L 18.40625 64.59375 
L 9.421875 64.59375 
z
" id="DejaVuSans-105"/>
      <path d="M 18.3125 70.21875 
L 18.3125 54.6875 
L 36.8125 54.6875 
L 36.8125 47.703125 
L 18.3125 47.703125 
L 18.3125 18.015625 
Q 18.3125 11.328125 20.140625 9.421875 
Q 21.96875 7.515625 27.59375 7.515625 
L 36.8125 7.515625 
L 36.8125 0 
L 27.59375 0 
Q 17.1875 0 13.234375 3.875 
Q 9.28125 7.765625 9.28125 18.015625 
L 9.28125 47.703125 
L 2.6875 47.703125 
L 2.6875 54.6875 
L 9.28125 54.6875 
L 9.28125 70.21875 
z
" id="DejaVuSans-116"/>
      <path d="M 32.171875 -5.078125 
Q 28.375 -14.84375 24.75 -17.8125 
Q 21.140625 -20.796875 15.09375 -20.796875 
L 7.90625 -20.796875 
L 7.90625 -13.28125 
L 13.1875 -13.28125 
Q 16.890625 -13.28125 18.9375 -11.515625 
Q 21 -9.765625 23.484375 -3.21875 
L 25.09375 0.875 
L 2.984375 54.6875 
L 12.5 54.6875 
L 29.59375 11.921875 
L 46.6875 54.6875 
L 56.203125 54.6875 
z
" id="DejaVuSans-121"/>
     </defs>
     <g transform="translate(38.157812 93.744594)rotate(-90)scale(0.1 -0.1)">
      <use xlink:href="#DejaVuSans-68"/>
      <use x="77.001953" xlink:href="#DejaVuSans-101"/>
      <use x="138.525391" xlink:href="#DejaVuSans-110"/>
      <use x="201.904297" xlink:href="#DejaVuSans-115"/>
      <use x="254.003906" xlink:href="#DejaVuSans-105"/>
      <use x="281.787109" xlink:href="#DejaVuSans-116"/>
      <use x="320.996094" xlink:href="#DejaVuSans-121"/>
     </g>
    </g>
   </g>
   <g id="line2d_9">
    <path clip-path="url(#pbf065433b1)" d="M 73.832727 107.997213 
L 77.112066 107.994244 
L 80.391405 107.988596 
L 83.670744 107.97828 
L 86.950083 107.96016 
L 90.229421 107.929487 
L 93.50876 107.879351 
L 96.788099 107.800102 
L 100.067438 107.678842 
L 103.346777 107.499169 
L 106.626116 107.241456 
L 109.905455 106.883963 
L 113.184793 106.405055 
L 116.464132 105.786559 
L 119.743471 105.017933 
L 123.02281 104.100446 
L 126.302149 103.050228 
L 129.581488 101.898992 
L 132.860826 100.691655 
L 136.140165 99.480877 
L 139.419504 98.31957 
L 142.698843 97.253167 
L 145.978182 96.313696 
L 149.257521 95.51714 
L 152.53686 94.864502 
L 155.816198 94.345725 
L 159.095537 93.944731 
L 162.374876 93.643653 
L 165.654215 93.424895 
L 168.933554 93.270761 
L 172.212893 93.161494 
L 175.492231 93.07323 
L 178.77157 92.977406 
L 182.050909 92.842362 
L 185.330248 92.636822 
L 188.609587 92.333792 
L 191.888926 91.91292 
L 195.168264 91.359777 
L 198.447603 90.661812 
L 201.726942 89.80263 
L 205.006281 88.757857 
L 208.28562 87.496292 
L 211.564959 85.988823 
L 214.844298 84.224652 
L 218.123636 82.230756 
L 221.402975 80.087628 
L 224.682314 77.933729 
L 227.961653 75.953591 
L 231.240992 74.349548 
L 234.520331 73.303119 
L 237.799669 72.93651 
L 241.079008 73.285695 
L 244.358347 74.293287 
L 247.637686 75.823117 
L 250.917025 77.691519 
L 254.196364 79.705471 
L 257.475702 81.696716 
L 260.755041 83.543711 
L 264.03438 85.178324 
L 267.313719 86.579277 
L 270.593058 87.75771 
L 273.872397 88.74104 
L 277.151736 89.559909 
L 280.431074 90.240575 
L 283.710413 90.802664 
L 286.989752 91.260639 
L 290.269091 91.626878 
L 293.54843 91.914634 
L 296.827769 92.139934 
L 300.107107 92.322226 
L 303.386446 92.483963 
L 306.665785 92.64947 
L 309.945124 92.843371 
L 313.224463 93.088823 
L 316.503802 93.405856 
L 319.78314 93.810158 
L 323.062479 94.312518 
L 326.341818 94.918912 
L 329.621157 95.63089 
L 332.900496 96.445806 
L 336.179835 97.356534 
L 339.459174 98.350681 
L 342.738512 99.409663 
L 346.017851 100.508323 
L 349.29719 101.615657 
L 352.576529 102.696957 
L 355.855868 103.717186 
L 359.135207 104.644984 
L 362.414545 105.456407 
L 365.693884 106.137545 
L 368.973223 106.685427 
L 372.252562 107.107105 
L 375.531901 107.417267 
L 378.81124 107.635073 
L 382.090579 107.780974 
L 385.369917 107.874139 
L 388.649256 107.930817 
L 391.928595 107.96365 
L 395.207934 107.981757 
L 398.487273 107.99126 
" style="fill:none;stroke:#00008b;stroke-linecap:square;stroke-width:4;"/>
   </g>
   <g id="patch_53">
    <path d="M 57.6 108 
L 57.6 41.472 
" style="fill:none;stroke:#000000;stroke-linecap:square;stroke-linejoin:miter;stroke-width:0.8;"/>
   </g>
   <g id="patch_54">
    <path d="M 414.72 108 
L 414.72 41.472 
" style="fill:none;stroke:#000000;stroke-linecap:square;stroke-linejoin:miter;stroke-width:0.8;"/>
   </g>
   <g id="patch_55">
    <path d="M 57.6 108 
L 414.72 108 
" style="fill:none;stroke:#000000;stroke-linecap:square;stroke-linejoin:miter;stroke-width:0.8;"/>
   </g>
   <g id="patch_56">
    <path d="M 57.6 41.472 
L 414.72 41.472 
" style="fill:none;stroke:#000000;stroke-linecap:square;stroke-linejoin:miter;stroke-width:0.8;"/>
   </g>
   <g id="legend_1">
    <g id="patch_57">
     <path d="M 369.80125 64.150125 
L 407.72 64.150125 
Q 409.72 64.150125 409.72 62.150125 
L 409.72 48.472 
Q 409.72 46.472 407.72 46.472 
L 369.80125 46.472 
Q 367.80125 46.472 367.80125 48.472 
L 367.80125 62.150125 
Q 367.80125 64.150125 369.80125 64.150125 
z
" style="fill:#ffffff;opacity:0.8;stroke:#cccccc;stroke-linejoin:miter;"/>
    </g>
    <g id="patch_58">
     <path d="M 371.80125 58.070438 
L 391.80125 58.070438 
L 391.80125 51.070438 
L 371.80125 51.070438 
z
" style="fill:#00008b;opacity:0.4;stroke:#000000;stroke-linejoin:miter;"/>
    </g>
    <g id="text_10">
     <!-- x -->
     <defs>
      <path d="M 54.890625 54.6875 
L 35.109375 28.078125 
L 55.90625 0 
L 45.3125 0 
L 29.390625 21.484375 
L 13.484375 0 
L 2.875 0 
L 24.125 28.609375 
L 4.6875 54.6875 
L 15.28125 54.6875 
L 29.78125 35.203125 
L 44.28125 54.6875 
z
" id="DejaVuSans-120"/>
     </defs>
     <g transform="translate(399.80125 58.070438)scale(0.1 -0.1)">
      <use xlink:href="#DejaVuSans-120"/>
     </g>
    </g>
   </g>
  </g>
  <g id="axes_2">
   <g id="patch_59">
    <path d="M 57.6 207.792 
L 414.72 207.792 
L 414.72 141.264 
L 57.6 141.264 
z
" style="fill:#ffffff;"/>
   </g>
   <g id="patch_60">
    <path clip-path="url(#p727c7638c1)" d="M 116.661688 207.792 
L 121.441621 207.792 
L 121.441621 206.573538 
L 116.661688 206.573538 
z
" style="fill:#006400;opacity:0.4;stroke:#000000;stroke-linejoin:miter;"/>
   </g>
   <g id="patch_61">
    <path clip-path="url(#p727c7638c1)" d="M 121.441621 207.792 
L 126.221553 207.792 
L 126.221553 206.573538 
L 121.441621 206.573538 
z
" style="fill:#006400;opacity:0.4;stroke:#000000;stroke-linejoin:miter;"/>
   </g>
   <g id="patch_62">
    <path clip-path="url(#p727c7638c1)" d="M 126.221553 207.792 
L 131.001486 207.792 
L 131.001486 206.573538 
L 126.221553 206.573538 
z
" style="fill:#006400;opacity:0.4;stroke:#000000;stroke-linejoin:miter;"/>
   </g>
   <g id="patch_63">
    <path clip-path="url(#p727c7638c1)" d="M 131.001486 207.792 
L 135.781418 207.792 
L 135.781418 204.136615 
L 131.001486 204.136615 
z
" style="fill:#006400;opacity:0.4;stroke:#000000;stroke-linejoin:miter;"/>
   </g>
   <g id="patch_64">
    <path clip-path="url(#p727c7638c1)" d="M 135.781418 207.792 
L 140.561351 207.792 
L 140.561351 200.481231 
L 135.781418 200.481231 
z
" style="fill:#006400;opacity:0.4;stroke:#000000;stroke-linejoin:miter;"/>
   </g>
   <g id="patch_65">
    <path clip-path="url(#p727c7638c1)" d="M 140.561351 207.792 
L 145.341283 207.792 
L 145.341283 183.422769 
L 140.561351 183.422769 
z
" style="fill:#006400;opacity:0.4;stroke:#000000;stroke-linejoin:miter;"/>
   </g>
   <g id="patch_66">
    <path clip-path="url(#p727c7638c1)" d="M 145.341283 207.792 
L 150.121216 207.792 
L 150.121216 190.733538 
L 145.341283 190.733538 
z
" style="fill:#006400;opacity:0.4;stroke:#000000;stroke-linejoin:miter;"/>
   </g>
   <g id="patch_67">
    <path clip-path="url(#p727c7638c1)" d="M 150.121216 207.792 
L 154.901148 207.792 
L 154.901148 187.078154 
L 150.121216 187.078154 
z
" style="fill:#006400;opacity:0.4;stroke:#000000;stroke-linejoin:miter;"/>
   </g>
   <g id="patch_68">
    <path clip-path="url(#p727c7638c1)" d="M 154.901148 207.792 
L 159.68108 207.792 
L 159.68108 180.985846 
L 154.901148 180.985846 
z
" style="fill:#006400;opacity:0.4;stroke:#000000;stroke-linejoin:miter;"/>
   </g>
   <g id="patch_69">
    <path clip-path="url(#p727c7638c1)" d="M 159.68108 207.792 
L 164.461013 207.792 
L 164.461013 191.952 
L 159.68108 191.952 
z
" style="fill:#006400;opacity:0.4;stroke:#000000;stroke-linejoin:miter;"/>
   </g>
   <g id="patch_70">
    <path clip-path="url(#p727c7638c1)" d="M 164.461013 207.792 
L 169.240945 207.792 
L 169.240945 201.699692 
L 164.461013 201.699692 
z
" style="fill:#006400;opacity:0.4;stroke:#000000;stroke-linejoin:miter;"/>
   </g>
   <g id="patch_71">
    <path clip-path="url(#p727c7638c1)" d="M 169.240945 207.792 
L 174.020878 207.792 
L 174.020878 189.515077 
L 169.240945 189.515077 
z
" style="fill:#006400;opacity:0.4;stroke:#000000;stroke-linejoin:miter;"/>
   </g>
   <g id="patch_72">
    <path clip-path="url(#p727c7638c1)" d="M 174.020878 207.792 
L 178.80081 207.792 
L 178.80081 191.952 
L 174.020878 191.952 
z
" style="fill:#006400;opacity:0.4;stroke:#000000;stroke-linejoin:miter;"/>
   </g>
   <g id="patch_73">
    <path clip-path="url(#p727c7638c1)" d="M 178.80081 207.792 
L 183.580743 207.792 
L 183.580743 195.607385 
L 178.80081 195.607385 
z
" style="fill:#006400;opacity:0.4;stroke:#000000;stroke-linejoin:miter;"/>
   </g>
   <g id="patch_74">
    <path clip-path="url(#p727c7638c1)" d="M 183.580743 207.792 
L 188.360675 207.792 
L 188.360675 194.388923 
L 183.580743 194.388923 
z
" style="fill:#006400;opacity:0.4;stroke:#000000;stroke-linejoin:miter;"/>
   </g>
   <g id="patch_75">
    <path clip-path="url(#p727c7638c1)" d="M 188.360675 207.792 
L 193.140608 207.792 
L 193.140608 177.330462 
L 188.360675 177.330462 
z
" style="fill:#006400;opacity:0.4;stroke:#000000;stroke-linejoin:miter;"/>
   </g>
   <g id="patch_76">
    <path clip-path="url(#p727c7638c1)" d="M 193.140608 207.792 
L 197.92054 207.792 
L 197.92054 183.422769 
L 193.140608 183.422769 
z
" style="fill:#006400;opacity:0.4;stroke:#000000;stroke-linejoin:miter;"/>
   </g>
   <g id="patch_77">
    <path clip-path="url(#p727c7638c1)" d="M 197.92054 207.792 
L 202.700473 207.792 
L 202.700473 198.044308 
L 197.92054 198.044308 
z
" style="fill:#006400;opacity:0.4;stroke:#000000;stroke-linejoin:miter;"/>
   </g>
   <g id="patch_78">
    <path clip-path="url(#p727c7638c1)" d="M 202.700473 207.792 
L 207.480405 207.792 
L 207.480405 190.733538 
L 202.700473 190.733538 
z
" style="fill:#006400;opacity:0.4;stroke:#000000;stroke-linejoin:miter;"/>
   </g>
   <g id="patch_79">
    <path clip-path="url(#p727c7638c1)" d="M 207.480405 207.792 
L 212.260338 207.792 
L 212.260338 187.078154 
L 207.480405 187.078154 
z
" style="fill:#006400;opacity:0.4;stroke:#000000;stroke-linejoin:miter;"/>
   </g>
   <g id="patch_80">
    <path clip-path="url(#p727c7638c1)" d="M 212.260338 207.792 
L 217.04027 207.792 
L 217.04027 188.296615 
L 212.260338 188.296615 
z
" style="fill:#006400;opacity:0.4;stroke:#000000;stroke-linejoin:miter;"/>
   </g>
   <g id="patch_81">
    <path clip-path="url(#p727c7638c1)" d="M 217.04027 207.792 
L 221.820203 207.792 
L 221.820203 189.515077 
L 217.04027 189.515077 
z
" style="fill:#006400;opacity:0.4;stroke:#000000;stroke-linejoin:miter;"/>
   </g>
   <g id="patch_82">
    <path clip-path="url(#p727c7638c1)" d="M 221.820203 207.792 
L 226.600135 207.792 
L 226.600135 190.733538 
L 221.820203 190.733538 
z
" style="fill:#006400;opacity:0.4;stroke:#000000;stroke-linejoin:miter;"/>
   </g>
   <g id="patch_83">
    <path clip-path="url(#p727c7638c1)" d="M 226.600135 207.792 
L 231.380068 207.792 
L 231.380068 179.767385 
L 226.600135 179.767385 
z
" style="fill:#006400;opacity:0.4;stroke:#000000;stroke-linejoin:miter;"/>
   </g>
   <g id="patch_84">
    <path clip-path="url(#p727c7638c1)" d="M 231.380068 207.792 
L 236.16 207.792 
L 236.16 144.432 
L 231.380068 144.432 
z
" style="fill:#006400;opacity:0.4;stroke:#000000;stroke-linejoin:miter;"/>
   </g>
   <g id="patch_85">
    <path clip-path="url(#p727c7638c1)" d="M 236.16 207.792 
L 240.939932 207.792 
L 240.939932 146.868923 
L 236.16 146.868923 
z
" style="fill:#006400;opacity:0.4;stroke:#000000;stroke-linejoin:miter;"/>
   </g>
   <g id="patch_86">
    <path clip-path="url(#p727c7638c1)" d="M 240.939932 207.792 
L 245.719865 207.792 
L 245.719865 154.179692 
L 240.939932 154.179692 
z
" style="fill:#006400;opacity:0.4;stroke:#000000;stroke-linejoin:miter;"/>
   </g>
   <g id="patch_87">
    <path clip-path="url(#p727c7638c1)" d="M 245.719865 207.792 
L 250.499797 207.792 
L 250.499797 166.364308 
L 245.719865 166.364308 
z
" style="fill:#006400;opacity:0.4;stroke:#000000;stroke-linejoin:miter;"/>
   </g>
   <g id="patch_88">
    <path clip-path="url(#p727c7638c1)" d="M 250.499797 207.792 
L 255.27973 207.792 
L 255.27973 166.364308 
L 250.499797 166.364308 
z
" style="fill:#006400;opacity:0.4;stroke:#000000;stroke-linejoin:miter;"/>
   </g>
   <g id="patch_89">
    <path clip-path="url(#p727c7638c1)" d="M 255.27973 207.792 
L 260.059662 207.792 
L 260.059662 190.733538 
L 255.27973 190.733538 
z
" style="fill:#006400;opacity:0.4;stroke:#000000;stroke-linejoin:miter;"/>
   </g>
   <g id="patch_90">
    <path clip-path="url(#p727c7638c1)" d="M 260.059662 207.792 
L 264.839595 207.792 
L 264.839595 191.952 
L 260.059662 191.952 
z
" style="fill:#006400;opacity:0.4;stroke:#000000;stroke-linejoin:miter;"/>
   </g>
   <g id="patch_91">
    <path clip-path="url(#p727c7638c1)" d="M 264.839595 207.792 
L 269.619527 207.792 
L 269.619527 189.515077 
L 264.839595 189.515077 
z
" style="fill:#006400;opacity:0.4;stroke:#000000;stroke-linejoin:miter;"/>
   </g>
   <g id="patch_92">
    <path clip-path="url(#p727c7638c1)" d="M 269.619527 207.792 
L 274.39946 207.792 
L 274.39946 193.170462 
L 269.619527 193.170462 
z
" style="fill:#006400;opacity:0.4;stroke:#000000;stroke-linejoin:miter;"/>
   </g>
   <g id="patch_93">
    <path clip-path="url(#p727c7638c1)" d="M 274.39946 207.792 
L 279.179392 207.792 
L 279.179392 182.204308 
L 274.39946 182.204308 
z
" style="fill:#006400;opacity:0.4;stroke:#000000;stroke-linejoin:miter;"/>
   </g>
   <g id="patch_94">
    <path clip-path="url(#p727c7638c1)" d="M 279.179392 207.792 
L 283.959325 207.792 
L 283.959325 185.859692 
L 279.179392 185.859692 
z
" style="fill:#006400;opacity:0.4;stroke:#000000;stroke-linejoin:miter;"/>
   </g>
   <g id="patch_95">
    <path clip-path="url(#p727c7638c1)" d="M 283.959325 207.792 
L 288.739257 207.792 
L 288.739257 190.733538 
L 283.959325 190.733538 
z
" style="fill:#006400;opacity:0.4;stroke:#000000;stroke-linejoin:miter;"/>
   </g>
   <g id="patch_96">
    <path clip-path="url(#p727c7638c1)" d="M 288.739257 207.792 
L 293.51919 207.792 
L 293.51919 176.112 
L 288.739257 176.112 
z
" style="fill:#006400;opacity:0.4;stroke:#000000;stroke-linejoin:miter;"/>
   </g>
   <g id="patch_97">
    <path clip-path="url(#p727c7638c1)" d="M 293.51919 207.792 
L 298.299122 207.792 
L 298.299122 185.859692 
L 293.51919 185.859692 
z
" style="fill:#006400;opacity:0.4;stroke:#000000;stroke-linejoin:miter;"/>
   </g>
   <g id="patch_98">
    <path clip-path="url(#p727c7638c1)" d="M 298.299122 207.792 
L 303.079055 207.792 
L 303.079055 193.170462 
L 298.299122 193.170462 
z
" style="fill:#006400;opacity:0.4;stroke:#000000;stroke-linejoin:miter;"/>
   </g>
   <g id="patch_99">
    <path clip-path="url(#p727c7638c1)" d="M 303.079055 207.792 
L 307.858987 207.792 
L 307.858987 187.078154 
L 303.079055 187.078154 
z
" style="fill:#006400;opacity:0.4;stroke:#000000;stroke-linejoin:miter;"/>
   </g>
   <g id="patch_100">
    <path clip-path="url(#p727c7638c1)" d="M 307.858987 207.792 
L 312.63892 207.792 
L 312.63892 191.952 
L 307.858987 191.952 
z
" style="fill:#006400;opacity:0.4;stroke:#000000;stroke-linejoin:miter;"/>
   </g>
   <g id="patch_101">
    <path clip-path="url(#p727c7638c1)" d="M 312.63892 207.792 
L 317.418852 207.792 
L 317.418852 190.733538 
L 312.63892 190.733538 
z
" style="fill:#006400;opacity:0.4;stroke:#000000;stroke-linejoin:miter;"/>
   </g>
   <g id="patch_102">
    <path clip-path="url(#p727c7638c1)" d="M 317.418852 207.792 
L 322.198784 207.792 
L 322.198784 179.767385 
L 317.418852 179.767385 
z
" style="fill:#006400;opacity:0.4;stroke:#000000;stroke-linejoin:miter;"/>
   </g>
   <g id="patch_103">
    <path clip-path="url(#p727c7638c1)" d="M 322.198784 207.792 
L 326.978717 207.792 
L 326.978717 193.170462 
L 322.198784 193.170462 
z
" style="fill:#006400;opacity:0.4;stroke:#000000;stroke-linejoin:miter;"/>
   </g>
   <g id="patch_104">
    <path clip-path="url(#p727c7638c1)" d="M 326.978717 207.792 
L 331.758649 207.792 
L 331.758649 185.859692 
L 326.978717 185.859692 
z
" style="fill:#006400;opacity:0.4;stroke:#000000;stroke-linejoin:miter;"/>
   </g>
   <g id="patch_105">
    <path clip-path="url(#p727c7638c1)" d="M 331.758649 207.792 
L 336.538582 207.792 
L 336.538582 191.952 
L 331.758649 191.952 
z
" style="fill:#006400;opacity:0.4;stroke:#000000;stroke-linejoin:miter;"/>
   </g>
   <g id="patch_106">
    <path clip-path="url(#p727c7638c1)" d="M 336.538582 207.792 
L 341.318514 207.792 
L 341.318514 198.044308 
L 336.538582 198.044308 
z
" style="fill:#006400;opacity:0.4;stroke:#000000;stroke-linejoin:miter;"/>
   </g>
   <g id="patch_107">
    <path clip-path="url(#p727c7638c1)" d="M 341.318514 207.792 
L 346.098447 207.792 
L 346.098447 198.044308 
L 341.318514 198.044308 
z
" style="fill:#006400;opacity:0.4;stroke:#000000;stroke-linejoin:miter;"/>
   </g>
   <g id="patch_108">
    <path clip-path="url(#p727c7638c1)" d="M 346.098447 207.792 
L 350.878379 207.792 
L 350.878379 206.573538 
L 346.098447 206.573538 
z
" style="fill:#006400;opacity:0.4;stroke:#000000;stroke-linejoin:miter;"/>
   </g>
   <g id="patch_109">
    <path clip-path="url(#p727c7638c1)" d="M 350.878379 207.792 
L 355.658312 207.792 
L 355.658312 205.355077 
L 350.878379 205.355077 
z
" style="fill:#006400;opacity:0.4;stroke:#000000;stroke-linejoin:miter;"/>
   </g>
   <g id="matplotlib.axis_3">
    <g id="xtick_6">
     <g id="line2d_10">
      <g>
       <use style="stroke:#000000;stroke-width:0.8;" x="94.439649" xlink:href="#m08166b8254" y="207.792"/>
      </g>
     </g>
     <g id="text_11">
      <!-- −1.0 -->
      <g transform="translate(82.298243 222.390437)scale(0.1 -0.1)">
       <use xlink:href="#DejaVuSans-8722"/>
       <use x="83.789062" xlink:href="#DejaVuSans-49"/>
       <use x="147.412109" xlink:href="#DejaVuSans-46"/>
       <use x="179.199219" xlink:href="#DejaVuSans-48"/>
      </g>
     </g>
    </g>
    <g id="xtick_7">
     <g id="line2d_11">
      <g>
       <use style="stroke:#000000;stroke-width:0.8;" x="166.87082" xlink:href="#m08166b8254" y="207.792"/>
      </g>
     </g>
     <g id="text_12">
      <!-- −0.5 -->
      <g transform="translate(154.729414 222.390437)scale(0.1 -0.1)">
       <use xlink:href="#DejaVuSans-8722"/>
       <use x="83.789062" xlink:href="#DejaVuSans-48"/>
       <use x="147.412109" xlink:href="#DejaVuSans-46"/>
       <use x="179.199219" xlink:href="#DejaVuSans-53"/>
      </g>
     </g>
    </g>
    <g id="xtick_8">
     <g id="line2d_12">
      <g>
       <use style="stroke:#000000;stroke-width:0.8;" x="239.301991" xlink:href="#m08166b8254" y="207.792"/>
      </g>
     </g>
     <g id="text_13">
      <!-- 0.0 -->
      <g transform="translate(231.350428 222.390437)scale(0.1 -0.1)">
       <use xlink:href="#DejaVuSans-48"/>
       <use x="63.623047" xlink:href="#DejaVuSans-46"/>
       <use x="95.410156" xlink:href="#DejaVuSans-48"/>
      </g>
     </g>
    </g>
    <g id="xtick_9">
     <g id="line2d_13">
      <g>
       <use style="stroke:#000000;stroke-width:0.8;" x="311.733161" xlink:href="#m08166b8254" y="207.792"/>
      </g>
     </g>
     <g id="text_14">
      <!-- 0.5 -->
      <g transform="translate(303.781599 222.390437)scale(0.1 -0.1)">
       <use xlink:href="#DejaVuSans-48"/>
       <use x="63.623047" xlink:href="#DejaVuSans-46"/>
       <use x="95.410156" xlink:href="#DejaVuSans-53"/>
      </g>
     </g>
    </g>
    <g id="xtick_10">
     <g id="line2d_14">
      <g>
       <use style="stroke:#000000;stroke-width:0.8;" x="384.164332" xlink:href="#m08166b8254" y="207.792"/>
      </g>
     </g>
     <g id="text_15">
      <!-- 1.0 -->
      <g transform="translate(376.21277 222.390437)scale(0.1 -0.1)">
       <use xlink:href="#DejaVuSans-49"/>
       <use x="63.623047" xlink:href="#DejaVuSans-46"/>
       <use x="95.410156" xlink:href="#DejaVuSans-48"/>
      </g>
     </g>
    </g>
   </g>
   <g id="matplotlib.axis_4">
    <g id="ytick_4">
     <g id="line2d_15">
      <g>
       <use style="stroke:#000000;stroke-width:0.8;" x="57.6" xlink:href="#ma460ce0f86" y="207.792"/>
      </g>
     </g>
     <g id="text_16">
      <!-- 0 -->
      <g transform="translate(44.2375 211.591219)scale(0.1 -0.1)">
       <use xlink:href="#DejaVuSans-48"/>
      </g>
     </g>
    </g>
    <g id="ytick_5">
     <g id="line2d_16">
      <g>
       <use style="stroke:#000000;stroke-width:0.8;" x="57.6" xlink:href="#ma460ce0f86" y="175.226099"/>
      </g>
     </g>
     <g id="text_17">
      <!-- 1 -->
      <g transform="translate(44.2375 179.025317)scale(0.1 -0.1)">
       <use xlink:href="#DejaVuSans-49"/>
      </g>
     </g>
    </g>
    <g id="ytick_6">
     <g id="line2d_17">
      <g>
       <use style="stroke:#000000;stroke-width:0.8;" x="57.6" xlink:href="#ma460ce0f86" y="142.660197"/>
      </g>
     </g>
     <g id="text_18">
      <!-- 2 -->
      <g transform="translate(44.2375 146.459416)scale(0.1 -0.1)">
       <use xlink:href="#DejaVuSans-50"/>
      </g>
     </g>
    </g>
    <g id="text_19">
     <!-- Density -->
     <g transform="translate(38.157812 193.536594)rotate(-90)scale(0.1 -0.1)">
      <use xlink:href="#DejaVuSans-68"/>
      <use x="77.001953" xlink:href="#DejaVuSans-101"/>
      <use x="138.525391" xlink:href="#DejaVuSans-110"/>
      <use x="201.904297" xlink:href="#DejaVuSans-115"/>
      <use x="254.003906" xlink:href="#DejaVuSans-105"/>
      <use x="281.787109" xlink:href="#DejaVuSans-116"/>
      <use x="320.996094" xlink:href="#DejaVuSans-121"/>
     </g>
    </g>
   </g>
   <g id="line2d_18">
    <path clip-path="url(#p727c7638c1)" d="M 73.832727 207.7897 
L 77.112066 207.787321 
L 80.391405 207.782866 
L 83.670744 207.774856 
L 86.950083 207.760964 
L 90.229421 207.737642 
L 93.50876 207.699586 
L 96.788099 207.639017 
L 100.067438 207.54477 
L 103.346777 207.401252 
L 106.626116 207.187539 
L 109.905455 206.877031 
L 113.184793 206.438283 
L 116.464132 205.837639 
L 119.743471 205.044033 
L 123.02281 204.035727 
L 126.302149 202.808 
L 129.581488 201.37998 
L 132.860826 199.798472 
L 136.140165 198.136857 
L 139.419504 196.488104 
L 142.698843 194.952436 
L 145.978182 193.621767 
L 149.257521 192.564157 
L 152.53686 191.81189 
L 155.816198 191.356127 
L 159.095537 191.149571 
L 162.374876 191.116714 
L 165.654215 191.169325 
L 168.933554 191.22364 
L 172.212893 191.215351 
L 175.492231 191.109119 
L 178.77157 190.900676 
L 182.050909 190.611362 
L 185.330248 190.276621 
L 188.609587 189.931313 
L 191.888926 189.595316 
L 195.168264 189.262669 
L 198.447603 188.896578 
L 201.726942 188.43126 
L 205.006281 187.780376 
L 208.28562 186.850969 
L 211.564959 185.56145 
L 214.844298 183.861741 
L 218.123636 181.7529 
L 221.402975 179.302404 
L 224.682314 176.650315 
L 227.961653 174.001962 
L 231.240992 171.605071 
L 234.520331 169.713396 
L 237.799669 168.54343 
L 241.079008 168.234002 
L 244.358347 168.818807 
L 247.637686 170.219007 
L 250.917025 172.257756 
L 254.196364 174.692797 
L 257.475702 177.259009 
L 260.755041 179.711118 
L 264.03438 181.857879 
L 267.313719 183.582169 
L 270.593058 184.845396 
L 273.872397 185.678102 
L 277.151736 186.161021 
L 280.431074 186.401672 
L 283.710413 186.51124 
L 286.989752 186.585491 
L 290.269091 186.692176 
L 293.54843 186.866179 
L 296.827769 187.112369 
L 300.107107 187.414799 
L 303.386446 187.749669 
L 306.665785 188.098581 
L 309.945124 188.458674 
L 313.224463 188.847118 
L 316.503802 189.299152 
L 319.78314 189.860639 
L 323.062479 190.577465 
L 326.341818 191.484596 
L 329.621157 192.597334 
L 332.900496 193.906473 
L 336.179835 195.378078 
L 339.459174 196.957638 
L 342.738512 198.577603 
L 346.017851 200.166733 
L 349.29719 201.659458 
L 352.576529 203.003528 
L 355.855868 204.164723 
L 359.135207 205.128144 
L 362.414545 205.896411 
L 365.693884 206.485672 
L 368.973223 206.920646 
L 372.252562 207.22979 
L 375.531901 207.441377 
L 378.81124 207.580827 
L 382.090579 207.669298 
L 385.369917 207.723296 
L 388.649256 207.754975 
L 391.928595 207.77282 
L 395.207934 207.782462 
L 398.487273 207.787452 
" style="fill:none;stroke:#006400;stroke-linecap:square;stroke-width:4;"/>
   </g>
   <g id="patch_110">
    <path d="M 57.6 207.792 
L 57.6 141.264 
" style="fill:none;stroke:#000000;stroke-linecap:square;stroke-linejoin:miter;stroke-width:0.8;"/>
   </g>
   <g id="patch_111">
    <path d="M 414.72 207.792 
L 414.72 141.264 
" style="fill:none;stroke:#000000;stroke-linecap:square;stroke-linejoin:miter;stroke-width:0.8;"/>
   </g>
   <g id="patch_112">
    <path d="M 57.6 207.792 
L 414.72 207.792 
" style="fill:none;stroke:#000000;stroke-linecap:square;stroke-linejoin:miter;stroke-width:0.8;"/>
   </g>
   <g id="patch_113">
    <path d="M 57.6 141.264 
L 414.72 141.264 
" style="fill:none;stroke:#000000;stroke-linecap:square;stroke-linejoin:miter;stroke-width:0.8;"/>
   </g>
   <g id="legend_2">
    <g id="patch_114">
     <path d="M 369.80125 163.942125 
L 407.72 163.942125 
Q 409.72 163.942125 409.72 161.942125 
L 409.72 148.264 
Q 409.72 146.264 407.72 146.264 
L 369.80125 146.264 
Q 367.80125 146.264 367.80125 148.264 
L 367.80125 161.942125 
Q 367.80125 163.942125 369.80125 163.942125 
z
" style="fill:#ffffff;opacity:0.8;stroke:#cccccc;stroke-linejoin:miter;"/>
    </g>
    <g id="patch_115">
     <path d="M 371.80125 157.862437 
L 391.80125 157.862437 
L 391.80125 150.862437 
L 371.80125 150.862437 
z
" style="fill:#006400;opacity:0.4;stroke:#000000;stroke-linejoin:miter;"/>
    </g>
    <g id="text_20">
     <!-- y -->
     <g transform="translate(399.80125 157.862437)scale(0.1 -0.1)">
      <use xlink:href="#DejaVuSans-121"/>
     </g>
    </g>
   </g>
  </g>
  <g id="axes_3">
   <g id="patch_116">
    <path d="M 57.6 307.584 
L 414.72 307.584 
L 414.72 241.056 
L 57.6 241.056 
z
" style="fill:#ffffff;"/>
   </g>
   <g id="patch_117">
    <path clip-path="url(#p05e777f0ab)" d="M 119.324447 307.584 
L 123.997869 307.584 
L 123.997869 301.717333 
L 119.324447 301.717333 
z
" style="fill:#8b0000;opacity:0.4;stroke:#000000;stroke-linejoin:miter;"/>
   </g>
   <g id="patch_118">
    <path clip-path="url(#p05e777f0ab)" d="M 123.997869 307.584 
L 128.671291 307.584 
L 128.671291 300.544 
L 123.997869 300.544 
z
" style="fill:#8b0000;opacity:0.4;stroke:#000000;stroke-linejoin:miter;"/>
   </g>
   <g id="patch_119">
    <path clip-path="url(#p05e777f0ab)" d="M 128.671291 307.584 
L 133.344713 307.584 
L 133.344713 295.850667 
L 128.671291 295.850667 
z
" style="fill:#8b0000;opacity:0.4;stroke:#000000;stroke-linejoin:miter;"/>
   </g>
   <g id="patch_120">
    <path clip-path="url(#p05e777f0ab)" d="M 133.344713 307.584 
L 138.018136 307.584 
L 138.018136 287.637333 
L 133.344713 287.637333 
z
" style="fill:#8b0000;opacity:0.4;stroke:#000000;stroke-linejoin:miter;"/>
   </g>
   <g id="patch_121">
    <path clip-path="url(#p05e777f0ab)" d="M 138.018136 307.584 
L 142.691558 307.584 
L 142.691558 287.637333 
L 138.018136 287.637333 
z
" style="fill:#8b0000;opacity:0.4;stroke:#000000;stroke-linejoin:miter;"/>
   </g>
   <g id="patch_122">
    <path clip-path="url(#p05e777f0ab)" d="M 142.691558 307.584 
L 147.36498 307.584 
L 147.36498 294.677333 
L 142.691558 294.677333 
z
" style="fill:#8b0000;opacity:0.4;stroke:#000000;stroke-linejoin:miter;"/>
   </g>
   <g id="patch_123">
    <path clip-path="url(#p05e777f0ab)" d="M 147.36498 307.584 
L 152.038402 307.584 
L 152.038402 293.504 
L 147.36498 293.504 
z
" style="fill:#8b0000;opacity:0.4;stroke:#000000;stroke-linejoin:miter;"/>
   </g>
   <g id="patch_124">
    <path clip-path="url(#p05e777f0ab)" d="M 152.038402 307.584 
L 156.711824 307.584 
L 156.711824 300.544 
L 152.038402 300.544 
z
" style="fill:#8b0000;opacity:0.4;stroke:#000000;stroke-linejoin:miter;"/>
   </g>
   <g id="patch_125">
    <path clip-path="url(#p05e777f0ab)" d="M 156.711824 307.584 
L 161.385246 307.584 
L 161.385246 295.850667 
L 156.711824 295.850667 
z
" style="fill:#8b0000;opacity:0.4;stroke:#000000;stroke-linejoin:miter;"/>
   </g>
   <g id="patch_126">
    <path clip-path="url(#p05e777f0ab)" d="M 161.385246 307.584 
L 166.058668 307.584 
L 166.058668 297.024 
L 161.385246 297.024 
z
" style="fill:#8b0000;opacity:0.4;stroke:#000000;stroke-linejoin:miter;"/>
   </g>
   <g id="patch_127">
    <path clip-path="url(#p05e777f0ab)" d="M 166.058668 307.584 
L 170.73209 307.584 
L 170.73209 282.944 
L 166.058668 282.944 
z
" style="fill:#8b0000;opacity:0.4;stroke:#000000;stroke-linejoin:miter;"/>
   </g>
   <g id="patch_128">
    <path clip-path="url(#p05e777f0ab)" d="M 170.73209 307.584 
L 175.405512 307.584 
L 175.405512 288.810667 
L 170.73209 288.810667 
z
" style="fill:#8b0000;opacity:0.4;stroke:#000000;stroke-linejoin:miter;"/>
   </g>
   <g id="patch_129">
    <path clip-path="url(#p05e777f0ab)" d="M 175.405512 307.584 
L 180.078935 307.584 
L 180.078935 286.464 
L 175.405512 286.464 
z
" style="fill:#8b0000;opacity:0.4;stroke:#000000;stroke-linejoin:miter;"/>
   </g>
   <g id="patch_130">
    <path clip-path="url(#p05e777f0ab)" d="M 180.078935 307.584 
L 184.752357 307.584 
L 184.752357 294.677333 
L 180.078935 294.677333 
z
" style="fill:#8b0000;opacity:0.4;stroke:#000000;stroke-linejoin:miter;"/>
   </g>
   <g id="patch_131">
    <path clip-path="url(#p05e777f0ab)" d="M 184.752357 307.584 
L 189.425779 307.584 
L 189.425779 291.157333 
L 184.752357 291.157333 
z
" style="fill:#8b0000;opacity:0.4;stroke:#000000;stroke-linejoin:miter;"/>
   </g>
   <g id="patch_132">
    <path clip-path="url(#p05e777f0ab)" d="M 189.425779 307.584 
L 194.099201 307.584 
L 194.099201 282.944 
L 189.425779 282.944 
z
" style="fill:#8b0000;opacity:0.4;stroke:#000000;stroke-linejoin:miter;"/>
   </g>
   <g id="patch_133">
    <path clip-path="url(#p05e777f0ab)" d="M 194.099201 307.584 
L 198.772623 307.584 
L 198.772623 289.984 
L 194.099201 289.984 
z
" style="fill:#8b0000;opacity:0.4;stroke:#000000;stroke-linejoin:miter;"/>
   </g>
   <g id="patch_134">
    <path clip-path="url(#p05e777f0ab)" d="M 198.772623 307.584 
L 203.446045 307.584 
L 203.446045 278.250667 
L 198.772623 278.250667 
z
" style="fill:#8b0000;opacity:0.4;stroke:#000000;stroke-linejoin:miter;"/>
   </g>
   <g id="patch_135">
    <path clip-path="url(#p05e777f0ab)" d="M 203.446045 307.584 
L 208.119467 307.584 
L 208.119467 289.984 
L 203.446045 289.984 
z
" style="fill:#8b0000;opacity:0.4;stroke:#000000;stroke-linejoin:miter;"/>
   </g>
   <g id="patch_136">
    <path clip-path="url(#p05e777f0ab)" d="M 208.119467 307.584 
L 212.792889 307.584 
L 212.792889 288.810667 
L 208.119467 288.810667 
z
" style="fill:#8b0000;opacity:0.4;stroke:#000000;stroke-linejoin:miter;"/>
   </g>
   <g id="patch_137">
    <path clip-path="url(#p05e777f0ab)" d="M 212.792889 307.584 
L 217.466312 307.584 
L 217.466312 277.077333 
L 212.792889 277.077333 
z
" style="fill:#8b0000;opacity:0.4;stroke:#000000;stroke-linejoin:miter;"/>
   </g>
   <g id="patch_138">
    <path clip-path="url(#p05e777f0ab)" d="M 217.466312 307.584 
L 222.139734 307.584 
L 222.139734 288.810667 
L 217.466312 288.810667 
z
" style="fill:#8b0000;opacity:0.4;stroke:#000000;stroke-linejoin:miter;"/>
   </g>
   <g id="patch_139">
    <path clip-path="url(#p05e777f0ab)" d="M 222.139734 307.584 
L 226.813156 307.584 
L 226.813156 281.770667 
L 222.139734 281.770667 
z
" style="fill:#8b0000;opacity:0.4;stroke:#000000;stroke-linejoin:miter;"/>
   </g>
   <g id="patch_140">
    <path clip-path="url(#p05e777f0ab)" d="M 226.813156 307.584 
L 231.486578 307.584 
L 231.486578 288.810667 
L 226.813156 288.810667 
z
" style="fill:#8b0000;opacity:0.4;stroke:#000000;stroke-linejoin:miter;"/>
   </g>
   <g id="patch_141">
    <path clip-path="url(#p05e777f0ab)" d="M 231.486578 307.584 
L 236.16 307.584 
L 236.16 244.224 
L 231.486578 244.224 
z
" style="fill:#8b0000;opacity:0.4;stroke:#000000;stroke-linejoin:miter;"/>
   </g>
   <g id="patch_142">
    <path clip-path="url(#p05e777f0ab)" d="M 236.16 307.584 
L 240.833422 307.584 
L 240.833422 253.610667 
L 236.16 253.610667 
z
" style="fill:#8b0000;opacity:0.4;stroke:#000000;stroke-linejoin:miter;"/>
   </g>
   <g id="patch_143">
    <path clip-path="url(#p05e777f0ab)" d="M 240.833422 307.584 
L 245.506844 307.584 
L 245.506844 266.517333 
L 240.833422 266.517333 
z
" style="fill:#8b0000;opacity:0.4;stroke:#000000;stroke-linejoin:miter;"/>
   </g>
   <g id="patch_144">
    <path clip-path="url(#p05e777f0ab)" d="M 245.506844 307.584 
L 250.180266 307.584 
L 250.180266 292.330667 
L 245.506844 292.330667 
z
" style="fill:#8b0000;opacity:0.4;stroke:#000000;stroke-linejoin:miter;"/>
   </g>
   <g id="patch_145">
    <path clip-path="url(#p05e777f0ab)" d="M 250.180266 307.584 
L 254.853688 307.584 
L 254.853688 293.504 
L 250.180266 293.504 
z
" style="fill:#8b0000;opacity:0.4;stroke:#000000;stroke-linejoin:miter;"/>
   </g>
   <g id="patch_146">
    <path clip-path="url(#p05e777f0ab)" d="M 254.853688 307.584 
L 259.527111 307.584 
L 259.527111 291.157333 
L 254.853688 291.157333 
z
" style="fill:#8b0000;opacity:0.4;stroke:#000000;stroke-linejoin:miter;"/>
   </g>
   <g id="patch_147">
    <path clip-path="url(#p05e777f0ab)" d="M 259.527111 307.584 
L 264.200533 307.584 
L 264.200533 288.810667 
L 259.527111 288.810667 
z
" style="fill:#8b0000;opacity:0.4;stroke:#000000;stroke-linejoin:miter;"/>
   </g>
   <g id="patch_148">
    <path clip-path="url(#p05e777f0ab)" d="M 264.200533 307.584 
L 268.873955 307.584 
L 268.873955 281.770667 
L 264.200533 281.770667 
z
" style="fill:#8b0000;opacity:0.4;stroke:#000000;stroke-linejoin:miter;"/>
   </g>
   <g id="patch_149">
    <path clip-path="url(#p05e777f0ab)" d="M 268.873955 307.584 
L 273.547377 307.584 
L 273.547377 281.770667 
L 268.873955 281.770667 
z
" style="fill:#8b0000;opacity:0.4;stroke:#000000;stroke-linejoin:miter;"/>
   </g>
   <g id="patch_150">
    <path clip-path="url(#p05e777f0ab)" d="M 273.547377 307.584 
L 278.220799 307.584 
L 278.220799 292.330667 
L 273.547377 292.330667 
z
" style="fill:#8b0000;opacity:0.4;stroke:#000000;stroke-linejoin:miter;"/>
   </g>
   <g id="patch_151">
    <path clip-path="url(#p05e777f0ab)" d="M 278.220799 307.584 
L 282.894221 307.584 
L 282.894221 280.597333 
L 278.220799 280.597333 
z
" style="fill:#8b0000;opacity:0.4;stroke:#000000;stroke-linejoin:miter;"/>
   </g>
   <g id="patch_152">
    <path clip-path="url(#p05e777f0ab)" d="M 282.894221 307.584 
L 287.567643 307.584 
L 287.567643 297.024 
L 282.894221 297.024 
z
" style="fill:#8b0000;opacity:0.4;stroke:#000000;stroke-linejoin:miter;"/>
   </g>
   <g id="patch_153">
    <path clip-path="url(#p05e777f0ab)" d="M 287.567643 307.584 
L 292.241065 307.584 
L 292.241065 284.117333 
L 287.567643 284.117333 
z
" style="fill:#8b0000;opacity:0.4;stroke:#000000;stroke-linejoin:miter;"/>
   </g>
   <g id="patch_154">
    <path clip-path="url(#p05e777f0ab)" d="M 292.241065 307.584 
L 296.914488 307.584 
L 296.914488 295.850667 
L 292.241065 295.850667 
z
" style="fill:#8b0000;opacity:0.4;stroke:#000000;stroke-linejoin:miter;"/>
   </g>
   <g id="patch_155">
    <path clip-path="url(#p05e777f0ab)" d="M 296.914488 307.584 
L 301.58791 307.584 
L 301.58791 280.597333 
L 296.914488 280.597333 
z
" style="fill:#8b0000;opacity:0.4;stroke:#000000;stroke-linejoin:miter;"/>
   </g>
   <g id="patch_156">
    <path clip-path="url(#p05e777f0ab)" d="M 301.58791 307.584 
L 306.261332 307.584 
L 306.261332 292.330667 
L 301.58791 292.330667 
z
" style="fill:#8b0000;opacity:0.4;stroke:#000000;stroke-linejoin:miter;"/>
   </g>
   <g id="patch_157">
    <path clip-path="url(#p05e777f0ab)" d="M 306.261332 307.584 
L 310.934754 307.584 
L 310.934754 298.197333 
L 306.261332 298.197333 
z
" style="fill:#8b0000;opacity:0.4;stroke:#000000;stroke-linejoin:miter;"/>
   </g>
   <g id="patch_158">
    <path clip-path="url(#p05e777f0ab)" d="M 310.934754 307.584 
L 315.608176 307.584 
L 315.608176 292.330667 
L 310.934754 292.330667 
z
" style="fill:#8b0000;opacity:0.4;stroke:#000000;stroke-linejoin:miter;"/>
   </g>
   <g id="patch_159">
    <path clip-path="url(#p05e777f0ab)" d="M 315.608176 307.584 
L 320.281598 307.584 
L 320.281598 300.544 
L 315.608176 300.544 
z
" style="fill:#8b0000;opacity:0.4;stroke:#000000;stroke-linejoin:miter;"/>
   </g>
   <g id="patch_160">
    <path clip-path="url(#p05e777f0ab)" d="M 320.281598 307.584 
L 324.95502 307.584 
L 324.95502 293.504 
L 320.281598 293.504 
z
" style="fill:#8b0000;opacity:0.4;stroke:#000000;stroke-linejoin:miter;"/>
   </g>
   <g id="patch_161">
    <path clip-path="url(#p05e777f0ab)" d="M 324.95502 307.584 
L 329.628442 307.584 
L 329.628442 292.330667 
L 324.95502 292.330667 
z
" style="fill:#8b0000;opacity:0.4;stroke:#000000;stroke-linejoin:miter;"/>
   </g>
   <g id="patch_162">
    <path clip-path="url(#p05e777f0ab)" d="M 329.628442 307.584 
L 334.301864 307.584 
L 334.301864 292.330667 
L 329.628442 292.330667 
z
" style="fill:#8b0000;opacity:0.4;stroke:#000000;stroke-linejoin:miter;"/>
   </g>
   <g id="patch_163">
    <path clip-path="url(#p05e777f0ab)" d="M 334.301864 307.584 
L 338.975287 307.584 
L 338.975287 288.810667 
L 334.301864 288.810667 
z
" style="fill:#8b0000;opacity:0.4;stroke:#000000;stroke-linejoin:miter;"/>
   </g>
   <g id="patch_164">
    <path clip-path="url(#p05e777f0ab)" d="M 338.975287 307.584 
L 343.648709 307.584 
L 343.648709 295.850667 
L 338.975287 295.850667 
z
" style="fill:#8b0000;opacity:0.4;stroke:#000000;stroke-linejoin:miter;"/>
   </g>
   <g id="patch_165">
    <path clip-path="url(#p05e777f0ab)" d="M 343.648709 307.584 
L 348.322131 307.584 
L 348.322131 289.984 
L 343.648709 289.984 
z
" style="fill:#8b0000;opacity:0.4;stroke:#000000;stroke-linejoin:miter;"/>
   </g>
   <g id="patch_166">
    <path clip-path="url(#p05e777f0ab)" d="M 348.322131 307.584 
L 352.995553 307.584 
L 352.995553 302.890667 
L 348.322131 302.890667 
z
" style="fill:#8b0000;opacity:0.4;stroke:#000000;stroke-linejoin:miter;"/>
   </g>
   <g id="matplotlib.axis_5">
    <g id="xtick_11">
     <g id="line2d_19">
      <g>
       <use style="stroke:#000000;stroke-width:0.8;" x="96.270831" xlink:href="#m08166b8254" y="307.584"/>
      </g>
     </g>
     <g id="text_21">
      <!-- −1.0 -->
      <g transform="translate(84.129424 322.182437)scale(0.1 -0.1)">
       <use xlink:href="#DejaVuSans-8722"/>
       <use x="83.789062" xlink:href="#DejaVuSans-49"/>
       <use x="147.412109" xlink:href="#DejaVuSans-46"/>
       <use x="179.199219" xlink:href="#DejaVuSans-48"/>
      </g>
     </g>
    </g>
    <g id="xtick_12">
     <g id="line2d_20">
      <g>
       <use style="stroke:#000000;stroke-width:0.8;" x="166.431602" xlink:href="#m08166b8254" y="307.584"/>
      </g>
     </g>
     <g id="text_22">
      <!-- −0.5 -->
      <g transform="translate(154.290196 322.182437)scale(0.1 -0.1)">
       <use xlink:href="#DejaVuSans-8722"/>
       <use x="83.789062" xlink:href="#DejaVuSans-48"/>
       <use x="147.412109" xlink:href="#DejaVuSans-46"/>
       <use x="179.199219" xlink:href="#DejaVuSans-53"/>
      </g>
     </g>
    </g>
    <g id="xtick_13">
     <g id="line2d_21">
      <g>
       <use style="stroke:#000000;stroke-width:0.8;" x="236.592373" xlink:href="#m08166b8254" y="307.584"/>
      </g>
     </g>
     <g id="text_23">
      <!-- 0.0 -->
      <g transform="translate(228.640811 322.182437)scale(0.1 -0.1)">
       <use xlink:href="#DejaVuSans-48"/>
       <use x="63.623047" xlink:href="#DejaVuSans-46"/>
       <use x="95.410156" xlink:href="#DejaVuSans-48"/>
      </g>
     </g>
    </g>
    <g id="xtick_14">
     <g id="line2d_22">
      <g>
       <use style="stroke:#000000;stroke-width:0.8;" x="306.753144" xlink:href="#m08166b8254" y="307.584"/>
      </g>
     </g>
     <g id="text_24">
      <!-- 0.5 -->
      <g transform="translate(298.801582 322.182437)scale(0.1 -0.1)">
       <use xlink:href="#DejaVuSans-48"/>
       <use x="63.623047" xlink:href="#DejaVuSans-46"/>
       <use x="95.410156" xlink:href="#DejaVuSans-53"/>
      </g>
     </g>
    </g>
    <g id="xtick_15">
     <g id="line2d_23">
      <g>
       <use style="stroke:#000000;stroke-width:0.8;" x="376.913916" xlink:href="#m08166b8254" y="307.584"/>
      </g>
     </g>
     <g id="text_25">
      <!-- 1.0 -->
      <g transform="translate(368.962353 322.182437)scale(0.1 -0.1)">
       <use xlink:href="#DejaVuSans-49"/>
       <use x="63.623047" xlink:href="#DejaVuSans-46"/>
       <use x="95.410156" xlink:href="#DejaVuSans-48"/>
      </g>
     </g>
    </g>
    <g id="text_26">
     <!-- Position -->
     <defs>
      <path d="M 19.671875 64.796875 
L 19.671875 37.40625 
L 32.078125 37.40625 
Q 38.96875 37.40625 42.71875 40.96875 
Q 46.484375 44.53125 46.484375 51.125 
Q 46.484375 57.671875 42.71875 61.234375 
Q 38.96875 64.796875 32.078125 64.796875 
z
M 9.8125 72.90625 
L 32.078125 72.90625 
Q 44.34375 72.90625 50.609375 67.359375 
Q 56.890625 61.8125 56.890625 51.125 
Q 56.890625 40.328125 50.609375 34.8125 
Q 44.34375 29.296875 32.078125 29.296875 
L 19.671875 29.296875 
L 19.671875 0 
L 9.8125 0 
z
" id="DejaVuSans-80"/>
      <path d="M 30.609375 48.390625 
Q 23.390625 48.390625 19.1875 42.75 
Q 14.984375 37.109375 14.984375 27.296875 
Q 14.984375 17.484375 19.15625 11.84375 
Q 23.34375 6.203125 30.609375 6.203125 
Q 37.796875 6.203125 41.984375 11.859375 
Q 46.1875 17.53125 46.1875 27.296875 
Q 46.1875 37.015625 41.984375 42.703125 
Q 37.796875 48.390625 30.609375 48.390625 
z
M 30.609375 56 
Q 42.328125 56 49.015625 48.375 
Q 55.71875 40.765625 55.71875 27.296875 
Q 55.71875 13.875 49.015625 6.21875 
Q 42.328125 -1.421875 30.609375 -1.421875 
Q 18.84375 -1.421875 12.171875 6.21875 
Q 5.515625 13.875 5.515625 27.296875 
Q 5.515625 40.765625 12.171875 48.375 
Q 18.84375 56 30.609375 56 
z
" id="DejaVuSans-111"/>
     </defs>
     <g transform="translate(216.517031 335.860562)scale(0.1 -0.1)">
      <use xlink:href="#DejaVuSans-80"/>
      <use x="60.255859" xlink:href="#DejaVuSans-111"/>
      <use x="121.4375" xlink:href="#DejaVuSans-115"/>
      <use x="173.537109" xlink:href="#DejaVuSans-105"/>
      <use x="201.320312" xlink:href="#DejaVuSans-116"/>
      <use x="240.529297" xlink:href="#DejaVuSans-105"/>
      <use x="268.3125" xlink:href="#DejaVuSans-111"/>
      <use x="329.494141" xlink:href="#DejaVuSans-110"/>
     </g>
    </g>
   </g>
   <g id="matplotlib.axis_6">
    <g id="ytick_7">
     <g id="line2d_24">
      <g>
       <use style="stroke:#000000;stroke-width:0.8;" x="57.6" xlink:href="#ma460ce0f86" y="307.584"/>
      </g>
     </g>
     <g id="text_27">
      <!-- 0 -->
      <g transform="translate(44.2375 311.383219)scale(0.1 -0.1)">
       <use xlink:href="#DejaVuSans-48"/>
      </g>
     </g>
    </g>
    <g id="ytick_8">
     <g id="line2d_25">
      <g>
       <use style="stroke:#000000;stroke-width:0.8;" x="57.6" xlink:href="#ma460ce0f86" y="275.930839"/>
      </g>
     </g>
     <g id="text_28">
      <!-- 1 -->
      <g transform="translate(44.2375 279.730058)scale(0.1 -0.1)">
       <use xlink:href="#DejaVuSans-49"/>
      </g>
     </g>
    </g>
    <g id="ytick_9">
     <g id="line2d_26">
      <g>
       <use style="stroke:#000000;stroke-width:0.8;" x="57.6" xlink:href="#ma460ce0f86" y="244.277678"/>
      </g>
     </g>
     <g id="text_29">
      <!-- 2 -->
      <g transform="translate(44.2375 248.076897)scale(0.1 -0.1)">
       <use xlink:href="#DejaVuSans-50"/>
      </g>
     </g>
    </g>
    <g id="text_30">
     <!-- Density -->
     <g transform="translate(38.157812 293.328594)rotate(-90)scale(0.1 -0.1)">
      <use xlink:href="#DejaVuSans-68"/>
      <use x="77.001953" xlink:href="#DejaVuSans-101"/>
      <use x="138.525391" xlink:href="#DejaVuSans-110"/>
      <use x="201.904297" xlink:href="#DejaVuSans-115"/>
      <use x="254.003906" xlink:href="#DejaVuSans-105"/>
      <use x="281.787109" xlink:href="#DejaVuSans-116"/>
      <use x="320.996094" xlink:href="#DejaVuSans-121"/>
     </g>
    </g>
   </g>
   <g id="line2d_27">
    <path clip-path="url(#p05e777f0ab)" d="M 73.832727 307.572793 
L 77.112066 307.561785 
L 80.391405 307.541673 
L 83.670744 307.506427 
L 86.950083 307.447144 
L 90.229421 307.351394 
L 93.50876 307.202841 
L 96.788099 306.981384 
L 100.067438 306.664133 
L 103.346777 306.227449 
L 106.626116 305.650122 
L 109.905455 304.917497 
L 113.184793 304.025984 
L 116.464132 302.98702 
L 119.743471 301.829316 
L 123.02281 300.598242 
L 126.302149 299.351664 
L 129.581488 298.15234 
L 132.860826 297.058041 
L 136.140165 296.111466 
L 139.419504 295.332481 
L 142.698843 294.7149 
L 145.978182 294.228924 
L 149.257521 293.828806 
L 152.53686 293.463757 
L 155.816198 293.089128 
L 159.095537 292.674861 
L 162.374876 292.209179 
L 165.654215 291.697007 
L 168.933554 291.154305 
L 172.212893 290.600596 
L 175.492231 290.052202 
L 178.77157 289.518037 
L 182.050909 288.99853 
L 185.330248 288.486989 
L 188.609587 287.971924 
L 191.888926 287.438848 
L 195.168264 286.87075 
L 198.447603 286.247542 
L 201.726942 285.545696 
L 205.006281 284.739767 
L 208.28562 283.807092 
L 211.564959 282.735911 
L 214.844298 281.53557 
L 218.123636 280.245913 
L 221.402975 278.94209 
L 224.682314 277.731262 
L 227.961653 276.739505 
L 231.240992 276.090158 
L 234.520331 275.878173 
L 237.799669 276.147278 
L 241.079008 276.876972 
L 244.358347 277.983948 
L 247.637686 279.338297 
L 250.917025 280.790185 
L 254.196364 282.199521 
L 257.475702 283.460532 
L 260.755041 284.515346 
L 264.03438 285.354622 
L 267.313719 286.007345 
L 270.593058 286.524689 
L 273.872397 286.963541 
L 277.151736 287.374015 
L 280.431074 287.792908 
L 283.710413 288.242618 
L 286.989752 288.733439 
L 290.269091 289.266747 
L 293.54843 289.837286 
L 296.827769 290.434004 
L 300.107107 291.040104 
L 303.386446 291.633602 
L 306.665785 292.189566 
L 309.945124 292.684477 
L 313.224463 293.102108 
L 316.503802 293.439478 
L 319.78314 293.711043 
L 323.062479 293.949556 
L 326.341818 294.202802 
L 329.621157 294.526467 
L 332.900496 294.974427 
L 336.179835 295.588469 
L 339.459174 296.3897 
L 342.738512 297.373572 
L 346.017851 298.509686 
L 349.29719 299.746415 
L 352.576529 301.019287 
L 355.855868 302.261236 
L 359.135207 303.412461 
L 362.414545 304.427949 
L 365.693884 305.281431 
L 368.973223 305.965545 
L 372.252562 306.488884 
L 375.531901 306.871167 
L 378.81124 307.137915 
L 382.090579 307.315766 
L 385.369917 307.429094 
L 388.649256 307.498119 
L 391.928595 307.538309 
L 395.207934 307.560681 
L 398.487273 307.572586 
" style="fill:none;stroke:#8b0000;stroke-linecap:square;stroke-width:4;"/>
   </g>
   <g id="patch_167">
    <path d="M 57.6 307.584 
L 57.6 241.056 
" style="fill:none;stroke:#000000;stroke-linecap:square;stroke-linejoin:miter;stroke-width:0.8;"/>
   </g>
   <g id="patch_168">
    <path d="M 414.72 307.584 
L 414.72 241.056 
" style="fill:none;stroke:#000000;stroke-linecap:square;stroke-linejoin:miter;stroke-width:0.8;"/>
   </g>
   <g id="patch_169">
    <path d="M 57.6 307.584 
L 414.72 307.584 
" style="fill:none;stroke:#000000;stroke-linecap:square;stroke-linejoin:miter;stroke-width:0.8;"/>
   </g>
   <g id="patch_170">
    <path d="M 57.6 241.056 
L 414.72 241.056 
" style="fill:none;stroke:#000000;stroke-linecap:square;stroke-linejoin:miter;stroke-width:0.8;"/>
   </g>
   <g id="legend_3">
    <g id="patch_171">
     <path d="M 370.471563 263.734125 
L 407.72 263.734125 
Q 409.72 263.734125 409.72 261.734125 
L 409.72 248.056 
Q 409.72 246.056 407.72 246.056 
L 370.471563 246.056 
Q 368.471563 246.056 368.471563 248.056 
L 368.471563 261.734125 
Q 368.471563 263.734125 370.471563 263.734125 
z
" style="fill:#ffffff;opacity:0.8;stroke:#cccccc;stroke-linejoin:miter;"/>
    </g>
    <g id="patch_172">
     <path d="M 372.471563 257.654437 
L 392.471563 257.654437 
L 392.471563 250.654437 
L 372.471563 250.654437 
z
" style="fill:#8b0000;opacity:0.4;stroke:#000000;stroke-linejoin:miter;"/>
    </g>
    <g id="text_31">
     <!-- z -->
     <defs>
      <path d="M 5.515625 54.6875 
L 48.1875 54.6875 
L 48.1875 46.484375 
L 14.40625 7.171875 
L 48.1875 7.171875 
L 48.1875 0 
L 4.296875 0 
L 4.296875 8.203125 
L 38.09375 47.515625 
L 5.515625 47.515625 
z
" id="DejaVuSans-122"/>
     </defs>
     <g transform="translate(400.471563 257.654437)scale(0.1 -0.1)">
      <use xlink:href="#DejaVuSans-122"/>
     </g>
    </g>
   </g>
  </g>
  <g id="text_32">
   <!-- Motif 5 Zr 810 Histogram -->
   <defs>
    <path d="M 9.8125 72.90625 
L 24.515625 72.90625 
L 43.109375 23.296875 
L 61.8125 72.90625 
L 76.515625 72.90625 
L 76.515625 0 
L 66.890625 0 
L 66.890625 64.015625 
L 48.09375 14.015625 
L 38.1875 14.015625 
L 19.390625 64.015625 
L 19.390625 0 
L 9.8125 0 
z
" id="DejaVuSans-77"/>
    <path d="M 37.109375 75.984375 
L 37.109375 68.5 
L 28.515625 68.5 
Q 23.6875 68.5 21.796875 66.546875 
Q 19.921875 64.59375 19.921875 59.515625 
L 19.921875 54.6875 
L 34.71875 54.6875 
L 34.71875 47.703125 
L 19.921875 47.703125 
L 19.921875 0 
L 10.890625 0 
L 10.890625 47.703125 
L 2.296875 47.703125 
L 2.296875 54.6875 
L 10.890625 54.6875 
L 10.890625 58.5 
Q 10.890625 67.625 15.140625 71.796875 
Q 19.390625 75.984375 28.609375 75.984375 
z
" id="DejaVuSans-102"/>
    <path id="DejaVuSans-32"/>
    <path d="M 5.609375 72.90625 
L 62.890625 72.90625 
L 62.890625 65.375 
L 16.796875 8.296875 
L 64.015625 8.296875 
L 64.015625 0 
L 4.5 0 
L 4.5 7.515625 
L 50.59375 64.59375 
L 5.609375 64.59375 
z
" id="DejaVuSans-90"/>
    <path d="M 41.109375 46.296875 
Q 39.59375 47.171875 37.8125 47.578125 
Q 36.03125 48 33.890625 48 
Q 26.265625 48 22.1875 43.046875 
Q 18.109375 38.09375 18.109375 28.8125 
L 18.109375 0 
L 9.078125 0 
L 9.078125 54.6875 
L 18.109375 54.6875 
L 18.109375 46.1875 
Q 20.953125 51.171875 25.484375 53.578125 
Q 30.03125 56 36.53125 56 
Q 37.453125 56 38.578125 55.875 
Q 39.703125 55.765625 41.0625 55.515625 
z
" id="DejaVuSans-114"/>
    <path d="M 31.78125 34.625 
Q 24.75 34.625 20.71875 30.859375 
Q 16.703125 27.09375 16.703125 20.515625 
Q 16.703125 13.921875 20.71875 10.15625 
Q 24.75 6.390625 31.78125 6.390625 
Q 38.8125 6.390625 42.859375 10.171875 
Q 46.921875 13.96875 46.921875 20.515625 
Q 46.921875 27.09375 42.890625 30.859375 
Q 38.875 34.625 31.78125 34.625 
z
M 21.921875 38.8125 
Q 15.578125 40.375 12.03125 44.71875 
Q 8.5 49.078125 8.5 55.328125 
Q 8.5 64.0625 14.71875 69.140625 
Q 20.953125 74.21875 31.78125 74.21875 
Q 42.671875 74.21875 48.875 69.140625 
Q 55.078125 64.0625 55.078125 55.328125 
Q 55.078125 49.078125 51.53125 44.71875 
Q 48 40.375 41.703125 38.8125 
Q 48.828125 37.15625 52.796875 32.3125 
Q 56.78125 27.484375 56.78125 20.515625 
Q 56.78125 9.90625 50.3125 4.234375 
Q 43.84375 -1.421875 31.78125 -1.421875 
Q 19.734375 -1.421875 13.25 4.234375 
Q 6.78125 9.90625 6.78125 20.515625 
Q 6.78125 27.484375 10.78125 32.3125 
Q 14.796875 37.15625 21.921875 38.8125 
z
M 18.3125 54.390625 
Q 18.3125 48.734375 21.84375 45.5625 
Q 25.390625 42.390625 31.78125 42.390625 
Q 38.140625 42.390625 41.71875 45.5625 
Q 45.3125 48.734375 45.3125 54.390625 
Q 45.3125 60.0625 41.71875 63.234375 
Q 38.140625 66.40625 31.78125 66.40625 
Q 25.390625 66.40625 21.84375 63.234375 
Q 18.3125 60.0625 18.3125 54.390625 
z
" id="DejaVuSans-56"/>
    <path d="M 9.8125 72.90625 
L 19.671875 72.90625 
L 19.671875 43.015625 
L 55.515625 43.015625 
L 55.515625 72.90625 
L 65.375 72.90625 
L 65.375 0 
L 55.515625 0 
L 55.515625 34.71875 
L 19.671875 34.71875 
L 19.671875 0 
L 9.8125 0 
z
" id="DejaVuSans-72"/>
    <path d="M 45.40625 27.984375 
Q 45.40625 37.75 41.375 43.109375 
Q 37.359375 48.484375 30.078125 48.484375 
Q 22.859375 48.484375 18.828125 43.109375 
Q 14.796875 37.75 14.796875 27.984375 
Q 14.796875 18.265625 18.828125 12.890625 
Q 22.859375 7.515625 30.078125 7.515625 
Q 37.359375 7.515625 41.375 12.890625 
Q 45.40625 18.265625 45.40625 27.984375 
z
M 54.390625 6.78125 
Q 54.390625 -7.171875 48.1875 -13.984375 
Q 42 -20.796875 29.203125 -20.796875 
Q 24.46875 -20.796875 20.265625 -20.09375 
Q 16.0625 -19.390625 12.109375 -17.921875 
L 12.109375 -9.1875 
Q 16.0625 -11.328125 19.921875 -12.34375 
Q 23.78125 -13.375 27.78125 -13.375 
Q 36.625 -13.375 41.015625 -8.765625 
Q 45.40625 -4.15625 45.40625 5.171875 
L 45.40625 9.625 
Q 42.625 4.78125 38.28125 2.390625 
Q 33.9375 0 27.875 0 
Q 17.828125 0 11.671875 7.65625 
Q 5.515625 15.328125 5.515625 27.984375 
Q 5.515625 40.671875 11.671875 48.328125 
Q 17.828125 56 27.875 56 
Q 33.9375 56 38.28125 53.609375 
Q 42.625 51.21875 45.40625 46.390625 
L 45.40625 54.6875 
L 54.390625 54.6875 
z
" id="DejaVuSans-103"/>
    <path d="M 34.28125 27.484375 
Q 23.390625 27.484375 19.1875 25 
Q 14.984375 22.515625 14.984375 16.5 
Q 14.984375 11.71875 18.140625 8.90625 
Q 21.296875 6.109375 26.703125 6.109375 
Q 34.1875 6.109375 38.703125 11.40625 
Q 43.21875 16.703125 43.21875 25.484375 
L 43.21875 27.484375 
z
M 52.203125 31.203125 
L 52.203125 0 
L 43.21875 0 
L 43.21875 8.296875 
Q 40.140625 3.328125 35.546875 0.953125 
Q 30.953125 -1.421875 24.3125 -1.421875 
Q 15.921875 -1.421875 10.953125 3.296875 
Q 6 8.015625 6 15.921875 
Q 6 25.140625 12.171875 29.828125 
Q 18.359375 34.515625 30.609375 34.515625 
L 43.21875 34.515625 
L 43.21875 35.40625 
Q 43.21875 41.609375 39.140625 45 
Q 35.0625 48.390625 27.6875 48.390625 
Q 23 48.390625 18.546875 47.265625 
Q 14.109375 46.140625 10.015625 43.890625 
L 10.015625 52.203125 
Q 14.9375 54.109375 19.578125 55.046875 
Q 24.21875 56 28.609375 56 
Q 40.484375 56 46.34375 49.84375 
Q 52.203125 43.703125 52.203125 31.203125 
z
" id="DejaVuSans-97"/>
    <path d="M 52 44.1875 
Q 55.375 50.25 60.0625 53.125 
Q 64.75 56 71.09375 56 
Q 79.640625 56 84.28125 50.015625 
Q 88.921875 44.046875 88.921875 33.015625 
L 88.921875 0 
L 79.890625 0 
L 79.890625 32.71875 
Q 79.890625 40.578125 77.09375 44.375 
Q 74.3125 48.1875 68.609375 48.1875 
Q 61.625 48.1875 57.5625 43.546875 
Q 53.515625 38.921875 53.515625 30.90625 
L 53.515625 0 
L 44.484375 0 
L 44.484375 32.71875 
Q 44.484375 40.625 41.703125 44.40625 
Q 38.921875 48.1875 33.109375 48.1875 
Q 26.21875 48.1875 22.15625 43.53125 
Q 18.109375 38.875 18.109375 30.90625 
L 18.109375 0 
L 9.078125 0 
L 9.078125 54.6875 
L 18.109375 54.6875 
L 18.109375 46.1875 
Q 21.1875 51.21875 25.484375 53.609375 
Q 29.78125 56 35.6875 56 
Q 41.65625 56 45.828125 52.96875 
Q 50 49.953125 52 44.1875 
z
" id="DejaVuSans-109"/>
   </defs>
   <g transform="translate(154.821563 16.030125)scale(0.12 -0.12)">
    <use xlink:href="#DejaVuSans-77"/>
    <use x="86.279297" xlink:href="#DejaVuSans-111"/>
    <use x="147.460938" xlink:href="#DejaVuSans-116"/>
    <use x="186.669922" xlink:href="#DejaVuSans-105"/>
    <use x="214.453125" xlink:href="#DejaVuSans-102"/>
    <use x="249.658203" xlink:href="#DejaVuSans-32"/>
    <use x="281.445312" xlink:href="#DejaVuSans-53"/>
    <use x="345.068359" xlink:href="#DejaVuSans-32"/>
    <use x="376.855469" xlink:href="#DejaVuSans-90"/>
    <use x="445.361328" xlink:href="#DejaVuSans-114"/>
    <use x="486.474609" xlink:href="#DejaVuSans-32"/>
    <use x="518.261719" xlink:href="#DejaVuSans-56"/>
    <use x="581.884766" xlink:href="#DejaVuSans-49"/>
    <use x="645.507812" xlink:href="#DejaVuSans-48"/>
    <use x="709.130859" xlink:href="#DejaVuSans-32"/>
    <use x="740.917969" xlink:href="#DejaVuSans-72"/>
    <use x="816.113281" xlink:href="#DejaVuSans-105"/>
    <use x="843.896484" xlink:href="#DejaVuSans-115"/>
    <use x="895.996094" xlink:href="#DejaVuSans-116"/>
    <use x="935.205078" xlink:href="#DejaVuSans-111"/>
    <use x="996.386719" xlink:href="#DejaVuSans-103"/>
    <use x="1059.863281" xlink:href="#DejaVuSans-114"/>
    <use x="1100.976562" xlink:href="#DejaVuSans-97"/>
    <use x="1162.255859" xlink:href="#DejaVuSans-109"/>
   </g>
  </g>
 </g>
 <defs>
  <clipPath id="pbf065433b1">
   <rect height="66.528" width="357.12" x="57.6" y="41.472"/>
  </clipPath>
  <clipPath id="p727c7638c1">
   <rect height="66.528" width="357.12" x="57.6" y="141.264"/>
  </clipPath>
  <clipPath id="p05e777f0ab">
   <rect height="66.528" width="357.12" x="57.6" y="241.056"/>
  </clipPath>
 </defs>
</svg>
