<?xml version="1.0" encoding="utf-8" standalone="no"?>
<!DOCTYPE svg PUBLIC "-//W3C//DTD SVG 1.1//EN"
  "http://www.w3.org/Graphics/SVG/1.1/DTD/svg11.dtd">
<!-- Created with matplotlib (https://matplotlib.org/) -->
<svg height="345.6pt" version="1.1" viewBox="0 0 460.8 345.6" width="460.8pt" xmlns="http://www.w3.org/2000/svg" xmlns:xlink="http://www.w3.org/1999/xlink">
 <defs>
  <style type="text/css">
*{stroke-linecap:butt;stroke-linejoin:round;}
  </style>
 </defs>
 <g id="figure_1">
  <g id="patch_1">
   <path d="M 0 345.6 
L 460.8 345.6 
L 460.8 0 
L 0 0 
z
" style="fill:#ffffff;"/>
  </g>
  <g id="axes_1">
   <g id="patch_2">
    <path d="M 57.6 108 
L 414.72 108 
L 414.72 41.472 
L 57.6 41.472 
z
" style="fill:#ffffff;"/>
   </g>
   <g id="patch_3">
    <path clip-path="url(#p98d49c2e28)" d="M 109.947671 108 
L 114.996164 108 
L 114.996164 104.722759 
L 109.947671 104.722759 
z
" style="fill:#00008b;opacity:0.4;stroke:#000000;stroke-linejoin:miter;"/>
   </g>
   <g id="patch_4">
    <path clip-path="url(#p98d49c2e28)" d="M 114.996164 108 
L 120.044658 108 
L 120.044658 100.89931 
L 114.996164 100.89931 
z
" style="fill:#00008b;opacity:0.4;stroke:#000000;stroke-linejoin:miter;"/>
   </g>
   <g id="patch_5">
    <path clip-path="url(#p98d49c2e28)" d="M 120.044658 108 
L 125.093151 108 
L 125.093151 95.437241 
L 120.044658 95.437241 
z
" style="fill:#00008b;opacity:0.4;stroke:#000000;stroke-linejoin:miter;"/>
   </g>
   <g id="patch_6">
    <path clip-path="url(#p98d49c2e28)" d="M 125.093151 108 
L 130.141644 108 
L 130.141644 86.151724 
L 125.093151 86.151724 
z
" style="fill:#00008b;opacity:0.4;stroke:#000000;stroke-linejoin:miter;"/>
   </g>
   <g id="patch_7">
    <path clip-path="url(#p98d49c2e28)" d="M 130.141644 108 
L 135.190137 108 
L 135.190137 87.244138 
L 130.141644 87.244138 
z
" style="fill:#00008b;opacity:0.4;stroke:#000000;stroke-linejoin:miter;"/>
   </g>
   <g id="patch_8">
    <path clip-path="url(#p98d49c2e28)" d="M 135.190137 108 
L 140.23863 108 
L 140.23863 83.42069 
L 135.190137 83.42069 
z
" style="fill:#00008b;opacity:0.4;stroke:#000000;stroke-linejoin:miter;"/>
   </g>
   <g id="patch_9">
    <path clip-path="url(#p98d49c2e28)" d="M 140.23863 108 
L 145.287123 108 
L 145.287123 94.344828 
L 140.23863 94.344828 
z
" style="fill:#00008b;opacity:0.4;stroke:#000000;stroke-linejoin:miter;"/>
   </g>
   <g id="patch_10">
    <path clip-path="url(#p98d49c2e28)" d="M 145.287123 108 
L 150.335616 108 
L 150.335616 101.445517 
L 145.287123 101.445517 
z
" style="fill:#00008b;opacity:0.4;stroke:#000000;stroke-linejoin:miter;"/>
   </g>
   <g id="patch_11">
    <path clip-path="url(#p98d49c2e28)" d="M 150.335616 108 
L 155.38411 108 
L 155.38411 100.353103 
L 150.335616 100.353103 
z
" style="fill:#00008b;opacity:0.4;stroke:#000000;stroke-linejoin:miter;"/>
   </g>
   <g id="patch_12">
    <path clip-path="url(#p98d49c2e28)" d="M 155.38411 108 
L 160.432603 108 
L 160.432603 86.697931 
L 155.38411 86.697931 
z
" style="fill:#00008b;opacity:0.4;stroke:#000000;stroke-linejoin:miter;"/>
   </g>
   <g id="patch_13">
    <path clip-path="url(#p98d49c2e28)" d="M 160.432603 108 
L 165.481096 108 
L 165.481096 82.874483 
L 160.432603 82.874483 
z
" style="fill:#00008b;opacity:0.4;stroke:#000000;stroke-linejoin:miter;"/>
   </g>
   <g id="patch_14">
    <path clip-path="url(#p98d49c2e28)" d="M 165.481096 108 
L 170.529589 108 
L 170.529589 72.496552 
L 165.481096 72.496552 
z
" style="fill:#00008b;opacity:0.4;stroke:#000000;stroke-linejoin:miter;"/>
   </g>
   <g id="patch_15">
    <path clip-path="url(#p98d49c2e28)" d="M 170.529589 108 
L 175.578082 108 
L 175.578082 65.395862 
L 170.529589 65.395862 
z
" style="fill:#00008b;opacity:0.4;stroke:#000000;stroke-linejoin:miter;"/>
   </g>
   <g id="patch_16">
    <path clip-path="url(#p98d49c2e28)" d="M 175.578082 108 
L 180.626575 108 
L 180.626575 68.673103 
L 175.578082 68.673103 
z
" style="fill:#00008b;opacity:0.4;stroke:#000000;stroke-linejoin:miter;"/>
   </g>
   <g id="patch_17">
    <path clip-path="url(#p98d49c2e28)" d="M 180.626575 108 
L 185.675068 108 
L 185.675068 62.664828 
L 180.626575 62.664828 
z
" style="fill:#00008b;opacity:0.4;stroke:#000000;stroke-linejoin:miter;"/>
   </g>
   <g id="patch_18">
    <path clip-path="url(#p98d49c2e28)" d="M 185.675068 108 
L 190.723562 108 
L 190.723562 65.942069 
L 185.675068 65.942069 
z
" style="fill:#00008b;opacity:0.4;stroke:#000000;stroke-linejoin:miter;"/>
   </g>
   <g id="patch_19">
    <path clip-path="url(#p98d49c2e28)" d="M 190.723562 108 
L 195.772055 108 
L 195.772055 67.58069 
L 190.723562 67.58069 
z
" style="fill:#00008b;opacity:0.4;stroke:#000000;stroke-linejoin:miter;"/>
   </g>
   <g id="patch_20">
    <path clip-path="url(#p98d49c2e28)" d="M 195.772055 108 
L 200.820548 108 
L 200.820548 68.673103 
L 195.772055 68.673103 
z
" style="fill:#00008b;opacity:0.4;stroke:#000000;stroke-linejoin:miter;"/>
   </g>
   <g id="patch_21">
    <path clip-path="url(#p98d49c2e28)" d="M 200.820548 108 
L 205.869041 108 
L 205.869041 70.311724 
L 200.820548 70.311724 
z
" style="fill:#00008b;opacity:0.4;stroke:#000000;stroke-linejoin:miter;"/>
   </g>
   <g id="patch_22">
    <path clip-path="url(#p98d49c2e28)" d="M 205.869041 108 
L 210.917534 108 
L 210.917534 78.504828 
L 205.869041 78.504828 
z
" style="fill:#00008b;opacity:0.4;stroke:#000000;stroke-linejoin:miter;"/>
   </g>
   <g id="patch_23">
    <path clip-path="url(#p98d49c2e28)" d="M 210.917534 108 
L 215.966027 108 
L 215.966027 83.42069 
L 210.917534 83.42069 
z
" style="fill:#00008b;opacity:0.4;stroke:#000000;stroke-linejoin:miter;"/>
   </g>
   <g id="patch_24">
    <path clip-path="url(#p98d49c2e28)" d="M 215.966027 108 
L 221.014521 108 
L 221.014521 79.051034 
L 215.966027 79.051034 
z
" style="fill:#00008b;opacity:0.4;stroke:#000000;stroke-linejoin:miter;"/>
   </g>
   <g id="patch_25">
    <path clip-path="url(#p98d49c2e28)" d="M 221.014521 108 
L 226.063014 108 
L 226.063014 80.689655 
L 221.014521 80.689655 
z
" style="fill:#00008b;opacity:0.4;stroke:#000000;stroke-linejoin:miter;"/>
   </g>
   <g id="patch_26">
    <path clip-path="url(#p98d49c2e28)" d="M 226.063014 108 
L 231.111507 108 
L 231.111507 53.925517 
L 226.063014 53.925517 
z
" style="fill:#00008b;opacity:0.4;stroke:#000000;stroke-linejoin:miter;"/>
   </g>
   <g id="patch_27">
    <path clip-path="url(#p98d49c2e28)" d="M 231.111507 108 
L 236.16 108 
L 236.16 44.64 
L 231.111507 44.64 
z
" style="fill:#00008b;opacity:0.4;stroke:#000000;stroke-linejoin:miter;"/>
   </g>
   <g id="patch_28">
    <path clip-path="url(#p98d49c2e28)" d="M 236.16 108 
L 241.208493 108 
L 241.208493 58.841379 
L 236.16 58.841379 
z
" style="fill:#00008b;opacity:0.4;stroke:#000000;stroke-linejoin:miter;"/>
   </g>
   <g id="patch_29">
    <path clip-path="url(#p98d49c2e28)" d="M 241.208493 108 
L 246.256986 108 
L 246.256986 70.311724 
L 241.208493 70.311724 
z
" style="fill:#00008b;opacity:0.4;stroke:#000000;stroke-linejoin:miter;"/>
   </g>
   <g id="patch_30">
    <path clip-path="url(#p98d49c2e28)" d="M 246.256986 108 
L 251.305479 108 
L 251.305479 76.866207 
L 246.256986 76.866207 
z
" style="fill:#00008b;opacity:0.4;stroke:#000000;stroke-linejoin:miter;"/>
   </g>
   <g id="patch_31">
    <path clip-path="url(#p98d49c2e28)" d="M 251.305479 108 
L 256.353973 108 
L 256.353973 83.42069 
L 251.305479 83.42069 
z
" style="fill:#00008b;opacity:0.4;stroke:#000000;stroke-linejoin:miter;"/>
   </g>
   <g id="patch_32">
    <path clip-path="url(#p98d49c2e28)" d="M 256.353973 108 
L 261.402466 108 
L 261.402466 70.857931 
L 256.353973 70.857931 
z
" style="fill:#00008b;opacity:0.4;stroke:#000000;stroke-linejoin:miter;"/>
   </g>
   <g id="patch_33">
    <path clip-path="url(#p98d49c2e28)" d="M 261.402466 108 
L 266.450959 108 
L 266.450959 60.48 
L 261.402466 60.48 
z
" style="fill:#00008b;opacity:0.4;stroke:#000000;stroke-linejoin:miter;"/>
   </g>
   <g id="patch_34">
    <path clip-path="url(#p98d49c2e28)" d="M 266.450959 108 
L 271.499452 108 
L 271.499452 67.034483 
L 266.450959 67.034483 
z
" style="fill:#00008b;opacity:0.4;stroke:#000000;stroke-linejoin:miter;"/>
   </g>
   <g id="patch_35">
    <path clip-path="url(#p98d49c2e28)" d="M 271.499452 108 
L 276.547945 108 
L 276.547945 61.572414 
L 271.499452 61.572414 
z
" style="fill:#00008b;opacity:0.4;stroke:#000000;stroke-linejoin:miter;"/>
   </g>
   <g id="patch_36">
    <path clip-path="url(#p98d49c2e28)" d="M 276.547945 108 
L 281.596438 108 
L 281.596438 69.765517 
L 276.547945 69.765517 
z
" style="fill:#00008b;opacity:0.4;stroke:#000000;stroke-linejoin:miter;"/>
   </g>
   <g id="patch_37">
    <path clip-path="url(#p98d49c2e28)" d="M 281.596438 108 
L 286.644932 108 
L 286.644932 81.235862 
L 281.596438 81.235862 
z
" style="fill:#00008b;opacity:0.4;stroke:#000000;stroke-linejoin:miter;"/>
   </g>
   <g id="patch_38">
    <path clip-path="url(#p98d49c2e28)" d="M 286.644932 108 
L 291.693425 108 
L 291.693425 71.950345 
L 286.644932 71.950345 
z
" style="fill:#00008b;opacity:0.4;stroke:#000000;stroke-linejoin:miter;"/>
   </g>
   <g id="patch_39">
    <path clip-path="url(#p98d49c2e28)" d="M 291.693425 108 
L 296.741918 108 
L 296.741918 67.58069 
L 291.693425 67.58069 
z
" style="fill:#00008b;opacity:0.4;stroke:#000000;stroke-linejoin:miter;"/>
   </g>
   <g id="patch_40">
    <path clip-path="url(#p98d49c2e28)" d="M 296.741918 108 
L 301.790411 108 
L 301.790411 68.673103 
L 296.741918 68.673103 
z
" style="fill:#00008b;opacity:0.4;stroke:#000000;stroke-linejoin:miter;"/>
   </g>
   <g id="patch_41">
    <path clip-path="url(#p98d49c2e28)" d="M 301.790411 108 
L 306.838904 108 
L 306.838904 79.597241 
L 301.790411 79.597241 
z
" style="fill:#00008b;opacity:0.4;stroke:#000000;stroke-linejoin:miter;"/>
   </g>
   <g id="patch_42">
    <path clip-path="url(#p98d49c2e28)" d="M 306.838904 108 
L 311.887397 108 
L 311.887397 88.882759 
L 306.838904 88.882759 
z
" style="fill:#00008b;opacity:0.4;stroke:#000000;stroke-linejoin:miter;"/>
   </g>
   <g id="patch_43">
    <path clip-path="url(#p98d49c2e28)" d="M 311.887397 108 
L 316.93589 108 
L 316.93589 100.89931 
L 311.887397 100.89931 
z
" style="fill:#00008b;opacity:0.4;stroke:#000000;stroke-linejoin:miter;"/>
   </g>
   <g id="patch_44">
    <path clip-path="url(#p98d49c2e28)" d="M 316.93589 108 
L 321.984384 108 
L 321.984384 99.26069 
L 316.93589 99.26069 
z
" style="fill:#00008b;opacity:0.4;stroke:#000000;stroke-linejoin:miter;"/>
   </g>
   <g id="patch_45">
    <path clip-path="url(#p98d49c2e28)" d="M 321.984384 108 
L 327.032877 108 
L 327.032877 94.891034 
L 321.984384 94.891034 
z
" style="fill:#00008b;opacity:0.4;stroke:#000000;stroke-linejoin:miter;"/>
   </g>
   <g id="patch_46">
    <path clip-path="url(#p98d49c2e28)" d="M 327.032877 108 
L 332.08137 108 
L 332.08137 87.244138 
L 327.032877 87.244138 
z
" style="fill:#00008b;opacity:0.4;stroke:#000000;stroke-linejoin:miter;"/>
   </g>
   <g id="patch_47">
    <path clip-path="url(#p98d49c2e28)" d="M 332.08137 108 
L 337.129863 108 
L 337.129863 80.689655 
L 332.08137 80.689655 
z
" style="fill:#00008b;opacity:0.4;stroke:#000000;stroke-linejoin:miter;"/>
   </g>
   <g id="patch_48">
    <path clip-path="url(#p98d49c2e28)" d="M 337.129863 108 
L 342.178356 108 
L 342.178356 90.521379 
L 337.129863 90.521379 
z
" style="fill:#00008b;opacity:0.4;stroke:#000000;stroke-linejoin:miter;"/>
   </g>
   <g id="patch_49">
    <path clip-path="url(#p98d49c2e28)" d="M 342.178356 108 
L 347.226849 108 
L 347.226849 93.798621 
L 342.178356 93.798621 
z
" style="fill:#00008b;opacity:0.4;stroke:#000000;stroke-linejoin:miter;"/>
   </g>
   <g id="patch_50">
    <path clip-path="url(#p98d49c2e28)" d="M 347.226849 108 
L 352.275342 108 
L 352.275342 97.622069 
L 347.226849 97.622069 
z
" style="fill:#00008b;opacity:0.4;stroke:#000000;stroke-linejoin:miter;"/>
   </g>
   <g id="patch_51">
    <path clip-path="url(#p98d49c2e28)" d="M 352.275342 108 
L 357.323836 108 
L 357.323836 103.630345 
L 352.275342 103.630345 
z
" style="fill:#00008b;opacity:0.4;stroke:#000000;stroke-linejoin:miter;"/>
   </g>
   <g id="patch_52">
    <path clip-path="url(#p98d49c2e28)" d="M 357.323836 108 
L 362.372329 108 
L 362.372329 105.815172 
L 357.323836 105.815172 
z
" style="fill:#00008b;opacity:0.4;stroke:#000000;stroke-linejoin:miter;"/>
   </g>
   <g id="matplotlib.axis_1">
    <g id="xtick_1">
     <g id="line2d_1">
      <defs>
       <path d="M 0 0 
L 0 3.5 
" id="m7c9a92037c" style="stroke:#000000;stroke-width:0.8;"/>
      </defs>
      <g>
       <use style="stroke:#000000;stroke-width:0.8;" x="98.76509" xlink:href="#m7c9a92037c" y="108"/>
      </g>
     </g>
     <g id="text_1">
      <!-- −1.0 -->
      <defs>
       <path d="M 10.59375 35.5 
L 73.1875 35.5 
L 73.1875 27.203125 
L 10.59375 27.203125 
z
" id="DejaVuSans-8722"/>
       <path d="M 12.40625 8.296875 
L 28.515625 8.296875 
L 28.515625 63.921875 
L 10.984375 60.40625 
L 10.984375 69.390625 
L 28.421875 72.90625 
L 38.28125 72.90625 
L 38.28125 8.296875 
L 54.390625 8.296875 
L 54.390625 0 
L 12.40625 0 
z
" id="DejaVuSans-49"/>
       <path d="M 10.6875 12.40625 
L 21 12.40625 
L 21 0 
L 10.6875 0 
z
" id="DejaVuSans-46"/>
       <path d="M 31.78125 66.40625 
Q 24.171875 66.40625 20.328125 58.90625 
Q 16.5 51.421875 16.5 36.375 
Q 16.5 21.390625 20.328125 13.890625 
Q 24.171875 6.390625 31.78125 6.390625 
Q 39.453125 6.390625 43.28125 13.890625 
Q 47.125 21.390625 47.125 36.375 
Q 47.125 51.421875 43.28125 58.90625 
Q 39.453125 66.40625 31.78125 66.40625 
z
M 31.78125 74.21875 
Q 44.046875 74.21875 50.515625 64.515625 
Q 56.984375 54.828125 56.984375 36.375 
Q 56.984375 17.96875 50.515625 8.265625 
Q 44.046875 -1.421875 31.78125 -1.421875 
Q 19.53125 -1.421875 13.0625 8.265625 
Q 6.59375 17.96875 6.59375 36.375 
Q 6.59375 54.828125 13.0625 64.515625 
Q 19.53125 74.21875 31.78125 74.21875 
z
" id="DejaVuSans-48"/>
      </defs>
      <g transform="translate(86.623684 122.598437)scale(0.1 -0.1)">
       <use xlink:href="#DejaVuSans-8722"/>
       <use x="83.789062" xlink:href="#DejaVuSans-49"/>
       <use x="147.412109" xlink:href="#DejaVuSans-46"/>
       <use x="179.199219" xlink:href="#DejaVuSans-48"/>
      </g>
     </g>
    </g>
    <g id="xtick_2">
     <g id="line2d_2">
      <g>
       <use style="stroke:#000000;stroke-width:0.8;" x="166.427711" xlink:href="#m7c9a92037c" y="108"/>
      </g>
     </g>
     <g id="text_2">
      <!-- −0.5 -->
      <defs>
       <path d="M 10.796875 72.90625 
L 49.515625 72.90625 
L 49.515625 64.59375 
L 19.828125 64.59375 
L 19.828125 46.734375 
Q 21.96875 47.46875 24.109375 47.828125 
Q 26.265625 48.1875 28.421875 48.1875 
Q 40.625 48.1875 47.75 41.5 
Q 54.890625 34.8125 54.890625 23.390625 
Q 54.890625 11.625 47.5625 5.09375 
Q 40.234375 -1.421875 26.90625 -1.421875 
Q 22.3125 -1.421875 17.546875 -0.640625 
Q 12.796875 0.140625 7.71875 1.703125 
L 7.71875 11.625 
Q 12.109375 9.234375 16.796875 8.0625 
Q 21.484375 6.890625 26.703125 6.890625 
Q 35.15625 6.890625 40.078125 11.328125 
Q 45.015625 15.765625 45.015625 23.390625 
Q 45.015625 31 40.078125 35.4375 
Q 35.15625 39.890625 26.703125 39.890625 
Q 22.75 39.890625 18.8125 39.015625 
Q 14.890625 38.140625 10.796875 36.28125 
z
" id="DejaVuSans-53"/>
      </defs>
      <g transform="translate(154.286304 122.598437)scale(0.1 -0.1)">
       <use xlink:href="#DejaVuSans-8722"/>
       <use x="83.789062" xlink:href="#DejaVuSans-48"/>
       <use x="147.412109" xlink:href="#DejaVuSans-46"/>
       <use x="179.199219" xlink:href="#DejaVuSans-53"/>
      </g>
     </g>
    </g>
    <g id="xtick_3">
     <g id="line2d_3">
      <g>
       <use style="stroke:#000000;stroke-width:0.8;" x="234.090331" xlink:href="#m7c9a92037c" y="108"/>
      </g>
     </g>
     <g id="text_3">
      <!-- 0.0 -->
      <g transform="translate(226.138768 122.598437)scale(0.1 -0.1)">
       <use xlink:href="#DejaVuSans-48"/>
       <use x="63.623047" xlink:href="#DejaVuSans-46"/>
       <use x="95.410156" xlink:href="#DejaVuSans-48"/>
      </g>
     </g>
    </g>
    <g id="xtick_4">
     <g id="line2d_4">
      <g>
       <use style="stroke:#000000;stroke-width:0.8;" x="301.752951" xlink:href="#m7c9a92037c" y="108"/>
      </g>
     </g>
     <g id="text_4">
      <!-- 0.5 -->
      <g transform="translate(293.801389 122.598437)scale(0.1 -0.1)">
       <use xlink:href="#DejaVuSans-48"/>
       <use x="63.623047" xlink:href="#DejaVuSans-46"/>
       <use x="95.410156" xlink:href="#DejaVuSans-53"/>
      </g>
     </g>
    </g>
    <g id="xtick_5">
     <g id="line2d_5">
      <g>
       <use style="stroke:#000000;stroke-width:0.8;" x="369.415572" xlink:href="#m7c9a92037c" y="108"/>
      </g>
     </g>
     <g id="text_5">
      <!-- 1.0 -->
      <g transform="translate(361.464009 122.598437)scale(0.1 -0.1)">
       <use xlink:href="#DejaVuSans-49"/>
       <use x="63.623047" xlink:href="#DejaVuSans-46"/>
       <use x="95.410156" xlink:href="#DejaVuSans-48"/>
      </g>
     </g>
    </g>
   </g>
   <g id="matplotlib.axis_2">
    <g id="ytick_1">
     <g id="line2d_6">
      <defs>
       <path d="M 0 0 
L -3.5 0 
" id="m8f50b357c1" style="stroke:#000000;stroke-width:0.8;"/>
      </defs>
      <g>
       <use style="stroke:#000000;stroke-width:0.8;" x="57.6" xlink:href="#m8f50b357c1" y="108"/>
      </g>
     </g>
     <g id="text_6">
      <!-- 0.0 -->
      <g transform="translate(34.696875 111.799219)scale(0.1 -0.1)">
       <use xlink:href="#DejaVuSans-48"/>
       <use x="63.623047" xlink:href="#DejaVuSans-46"/>
       <use x="95.410156" xlink:href="#DejaVuSans-48"/>
      </g>
     </g>
    </g>
    <g id="ytick_2">
     <g id="line2d_7">
      <g>
       <use style="stroke:#000000;stroke-width:0.8;" x="57.6" xlink:href="#m8f50b357c1" y="82.202724"/>
      </g>
     </g>
     <g id="text_7">
      <!-- 0.5 -->
      <g transform="translate(34.696875 86.001943)scale(0.1 -0.1)">
       <use xlink:href="#DejaVuSans-48"/>
       <use x="63.623047" xlink:href="#DejaVuSans-46"/>
       <use x="95.410156" xlink:href="#DejaVuSans-53"/>
      </g>
     </g>
    </g>
    <g id="ytick_3">
     <g id="line2d_8">
      <g>
       <use style="stroke:#000000;stroke-width:0.8;" x="57.6" xlink:href="#m8f50b357c1" y="56.405448"/>
      </g>
     </g>
     <g id="text_8">
      <!-- 1.0 -->
      <g transform="translate(34.696875 60.204667)scale(0.1 -0.1)">
       <use xlink:href="#DejaVuSans-49"/>
       <use x="63.623047" xlink:href="#DejaVuSans-46"/>
       <use x="95.410156" xlink:href="#DejaVuSans-48"/>
      </g>
     </g>
    </g>
    <g id="text_9">
     <!-- Density -->
     <defs>
      <path d="M 19.671875 64.796875 
L 19.671875 8.109375 
L 31.59375 8.109375 
Q 46.6875 8.109375 53.6875 14.9375 
Q 60.6875 21.78125 60.6875 36.53125 
Q 60.6875 51.171875 53.6875 57.984375 
Q 46.6875 64.796875 31.59375 64.796875 
z
M 9.8125 72.90625 
L 30.078125 72.90625 
Q 51.265625 72.90625 61.171875 64.09375 
Q 71.09375 55.28125 71.09375 36.53125 
Q 71.09375 17.671875 61.125 8.828125 
Q 51.171875 0 30.078125 0 
L 9.8125 0 
z
" id="DejaVuSans-68"/>
      <path d="M 56.203125 29.59375 
L 56.203125 25.203125 
L 14.890625 25.203125 
Q 15.484375 15.921875 20.484375 11.0625 
Q 25.484375 6.203125 34.421875 6.203125 
Q 39.59375 6.203125 44.453125 7.46875 
Q 49.3125 8.734375 54.109375 11.28125 
L 54.109375 2.78125 
Q 49.265625 0.734375 44.1875 -0.34375 
Q 39.109375 -1.421875 33.890625 -1.421875 
Q 20.796875 -1.421875 13.15625 6.1875 
Q 5.515625 13.8125 5.515625 26.8125 
Q 5.515625 40.234375 12.765625 48.109375 
Q 20.015625 56 32.328125 56 
Q 43.359375 56 49.78125 48.890625 
Q 56.203125 41.796875 56.203125 29.59375 
z
M 47.21875 32.234375 
Q 47.125 39.59375 43.09375 43.984375 
Q 39.0625 48.390625 32.421875 48.390625 
Q 24.90625 48.390625 20.390625 44.140625 
Q 15.875 39.890625 15.1875 32.171875 
z
" id="DejaVuSans-101"/>
      <path d="M 54.890625 33.015625 
L 54.890625 0 
L 45.90625 0 
L 45.90625 32.71875 
Q 45.90625 40.484375 42.875 44.328125 
Q 39.84375 48.1875 33.796875 48.1875 
Q 26.515625 48.1875 22.3125 43.546875 
Q 18.109375 38.921875 18.109375 30.90625 
L 18.109375 0 
L 9.078125 0 
L 9.078125 54.6875 
L 18.109375 54.6875 
L 18.109375 46.1875 
Q 21.34375 51.125 25.703125 53.5625 
Q 30.078125 56 35.796875 56 
Q 45.21875 56 50.046875 50.171875 
Q 54.890625 44.34375 54.890625 33.015625 
z
" id="DejaVuSans-110"/>
      <path d="M 44.28125 53.078125 
L 44.28125 44.578125 
Q 40.484375 46.53125 36.375 47.5 
Q 32.28125 48.484375 27.875 48.484375 
Q 21.1875 48.484375 17.84375 46.4375 
Q 14.5 44.390625 14.5 40.28125 
Q 14.5 37.15625 16.890625 35.375 
Q 19.28125 33.59375 26.515625 31.984375 
L 29.59375 31.296875 
Q 39.15625 29.25 43.1875 25.515625 
Q 47.21875 21.78125 47.21875 15.09375 
Q 47.21875 7.46875 41.1875 3.015625 
Q 35.15625 -1.421875 24.609375 -1.421875 
Q 20.21875 -1.421875 15.453125 -0.5625 
Q 10.6875 0.296875 5.421875 2 
L 5.421875 11.28125 
Q 10.40625 8.6875 15.234375 7.390625 
Q 20.0625 6.109375 24.8125 6.109375 
Q 31.15625 6.109375 34.5625 8.28125 
Q 37.984375 10.453125 37.984375 14.40625 
Q 37.984375 18.0625 35.515625 20.015625 
Q 33.0625 21.96875 24.703125 23.78125 
L 21.578125 24.515625 
Q 13.234375 26.265625 9.515625 29.90625 
Q 5.8125 33.546875 5.8125 39.890625 
Q 5.8125 47.609375 11.28125 51.796875 
Q 16.75 56 26.8125 56 
Q 31.78125 56 36.171875 55.265625 
Q 40.578125 54.546875 44.28125 53.078125 
z
" id="DejaVuSans-115"/>
      <path d="M 9.421875 54.6875 
L 18.40625 54.6875 
L 18.40625 0 
L 9.421875 0 
z
M 9.421875 75.984375 
L 18.40625 75.984375 
L 18.40625 64.59375 
L 9.421875 64.59375 
z
" id="DejaVuSans-105"/>
      <path d="M 18.3125 70.21875 
L 18.3125 54.6875 
L 36.8125 54.6875 
L 36.8125 47.703125 
L 18.3125 47.703125 
L 18.3125 18.015625 
Q 18.3125 11.328125 20.140625 9.421875 
Q 21.96875 7.515625 27.59375 7.515625 
L 36.8125 7.515625 
L 36.8125 0 
L 27.59375 0 
Q 17.1875 0 13.234375 3.875 
Q 9.28125 7.765625 9.28125 18.015625 
L 9.28125 47.703125 
L 2.6875 47.703125 
L 2.6875 54.6875 
L 9.28125 54.6875 
L 9.28125 70.21875 
z
" id="DejaVuSans-116"/>
      <path d="M 32.171875 -5.078125 
Q 28.375 -14.84375 24.75 -17.8125 
Q 21.140625 -20.796875 15.09375 -20.796875 
L 7.90625 -20.796875 
L 7.90625 -13.28125 
L 13.1875 -13.28125 
Q 16.890625 -13.28125 18.9375 -11.515625 
Q 21 -9.765625 23.484375 -3.21875 
L 25.09375 0.875 
L 2.984375 54.6875 
L 12.5 54.6875 
L 29.59375 11.921875 
L 46.6875 54.6875 
L 56.203125 54.6875 
z
" id="DejaVuSans-121"/>
     </defs>
     <g transform="translate(28.617187 93.744594)rotate(-90)scale(0.1 -0.1)">
      <use xlink:href="#DejaVuSans-68"/>
      <use x="77.001953" xlink:href="#DejaVuSans-101"/>
      <use x="138.525391" xlink:href="#DejaVuSans-110"/>
      <use x="201.904297" xlink:href="#DejaVuSans-115"/>
      <use x="254.003906" xlink:href="#DejaVuSans-105"/>
      <use x="281.787109" xlink:href="#DejaVuSans-116"/>
      <use x="320.996094" xlink:href="#DejaVuSans-121"/>
     </g>
    </g>
   </g>
   <g id="line2d_9">
    <path clip-path="url(#p98d49c2e28)" d="M 73.832727 107.994161 
L 77.112066 107.98553 
L 80.391405 107.966351 
L 83.670744 107.926499 
L 86.950083 107.848973 
L 90.229421 107.707636 
L 93.50876 107.465873 
L 96.788099 107.077374 
L 100.067438 106.49019 
L 103.346777 105.65466 
L 106.626116 104.534755 
L 109.905455 103.121162 
L 113.184793 101.443228 
L 116.464132 99.576103 
L 119.743471 97.639275 
L 123.02281 95.783546 
L 126.302149 94.165762 
L 129.581488 92.914315 
L 132.860826 92.092807 
L 136.140165 91.672594 
L 139.419504 91.525028 
L 142.698843 91.439853 
L 145.978182 91.16805 
L 149.257521 90.478561 
L 152.53686 89.212683 
L 155.816198 87.320432 
L 159.095537 84.869595 
L 162.374876 82.027442 
L 165.654215 79.02297 
L 168.933554 76.101438 
L 172.212893 73.482549 
L 175.492231 71.330545 
L 178.77157 69.740452 
L 182.050909 68.740368 
L 185.330248 68.305492 
L 188.609587 68.376301 
L 191.888926 68.872424 
L 195.168264 69.696548 
L 198.447603 70.728647 
L 201.726942 71.817348 
L 205.006281 72.779022 
L 208.28562 73.413819 
L 211.564959 73.541412 
L 214.844298 73.049822 
L 218.123636 71.942037 
L 221.402975 70.360994 
L 224.682314 68.576786 
L 227.961653 66.931317 
L 231.240992 65.751977 
L 234.520331 65.260512 
L 237.799669 65.508817 
L 241.079008 66.365614 
L 244.358347 67.559635 
L 247.637686 68.763947 
L 250.917025 69.691974 
L 254.196364 70.173721 
L 257.475702 70.190195 
L 260.755041 69.859694 
L 264.03438 69.385326 
L 267.313719 68.984224 
L 270.593058 68.822859 
L 273.872397 68.979324 
L 277.151736 69.443168 
L 280.431074 70.149354 
L 283.710413 71.029677 
L 286.989752 72.057964 
L 290.269091 73.268289 
L 293.54843 74.737584 
L 296.827769 76.540355 
L 300.107107 78.695999 
L 303.386446 81.132691 
L 306.665785 83.684587 
L 309.945124 86.125178 
L 313.224463 88.225366 
L 316.503802 89.816111 
L 319.78314 90.834885 
L 323.062479 91.341826 
L 326.341818 91.502138 
L 329.621157 91.541912 
L 332.900496 91.691828 
L 336.179835 92.135283 
L 339.459174 92.974203 
L 342.738512 94.218815 
L 346.017851 95.799788 
L 349.29719 97.595216 
L 352.576529 99.462604 
L 355.855868 101.267386 
L 359.135207 102.902856 
L 362.414545 104.30008 
L 365.693884 105.42891 
L 368.973223 106.292553 
L 372.252562 106.918413 
L 375.531901 107.347769 
L 378.81124 107.626319 
L 382.090579 107.796995 
L 385.369917 107.895624 
L 388.649256 107.9493 
L 391.928595 107.976773 
L 395.207934 107.989979 
L 398.487273 107.995935 
" style="fill:none;stroke:#00008b;stroke-linecap:square;stroke-width:4;"/>
   </g>
   <g id="patch_53">
    <path d="M 57.6 108 
L 57.6 41.472 
" style="fill:none;stroke:#000000;stroke-linecap:square;stroke-linejoin:miter;stroke-width:0.8;"/>
   </g>
   <g id="patch_54">
    <path d="M 414.72 108 
L 414.72 41.472 
" style="fill:none;stroke:#000000;stroke-linecap:square;stroke-linejoin:miter;stroke-width:0.8;"/>
   </g>
   <g id="patch_55">
    <path d="M 57.6 108 
L 414.72 108 
" style="fill:none;stroke:#000000;stroke-linecap:square;stroke-linejoin:miter;stroke-width:0.8;"/>
   </g>
   <g id="patch_56">
    <path d="M 57.6 41.472 
L 414.72 41.472 
" style="fill:none;stroke:#000000;stroke-linecap:square;stroke-linejoin:miter;stroke-width:0.8;"/>
   </g>
   <g id="legend_1">
    <g id="patch_57">
     <path d="M 369.80125 64.150125 
L 407.72 64.150125 
Q 409.72 64.150125 409.72 62.150125 
L 409.72 48.472 
Q 409.72 46.472 407.72 46.472 
L 369.80125 46.472 
Q 367.80125 46.472 367.80125 48.472 
L 367.80125 62.150125 
Q 367.80125 64.150125 369.80125 64.150125 
z
" style="fill:#ffffff;opacity:0.8;stroke:#cccccc;stroke-linejoin:miter;"/>
    </g>
    <g id="patch_58">
     <path d="M 371.80125 58.070438 
L 391.80125 58.070438 
L 391.80125 51.070438 
L 371.80125 51.070438 
z
" style="fill:#00008b;opacity:0.4;stroke:#000000;stroke-linejoin:miter;"/>
    </g>
    <g id="text_10">
     <!-- x -->
     <defs>
      <path d="M 54.890625 54.6875 
L 35.109375 28.078125 
L 55.90625 0 
L 45.3125 0 
L 29.390625 21.484375 
L 13.484375 0 
L 2.875 0 
L 24.125 28.609375 
L 4.6875 54.6875 
L 15.28125 54.6875 
L 29.78125 35.203125 
L 44.28125 54.6875 
z
" id="DejaVuSans-120"/>
     </defs>
     <g transform="translate(399.80125 58.070438)scale(0.1 -0.1)">
      <use xlink:href="#DejaVuSans-120"/>
     </g>
    </g>
   </g>
  </g>
  <g id="axes_2">
   <g id="patch_59">
    <path d="M 57.6 207.792 
L 414.72 207.792 
L 414.72 141.264 
L 57.6 141.264 
z
" style="fill:#ffffff;"/>
   </g>
   <g id="patch_60">
    <path clip-path="url(#p3eaacb50a9)" d="M 109.86541 207.792 
L 114.917194 207.792 
L 114.917194 203.790316 
L 109.86541 203.790316 
z
" style="fill:#006400;opacity:0.4;stroke:#000000;stroke-linejoin:miter;"/>
   </g>
   <g id="patch_61">
    <path clip-path="url(#p3eaacb50a9)" d="M 114.917194 207.792 
L 119.968977 207.792 
L 119.968977 206.458105 
L 114.917194 206.458105 
z
" style="fill:#006400;opacity:0.4;stroke:#000000;stroke-linejoin:miter;"/>
   </g>
   <g id="patch_62">
    <path clip-path="url(#p3eaacb50a9)" d="M 119.968977 207.792 
L 125.020761 207.792 
L 125.020761 195.786947 
L 119.968977 195.786947 
z
" style="fill:#006400;opacity:0.4;stroke:#000000;stroke-linejoin:miter;"/>
   </g>
   <g id="patch_63">
    <path clip-path="url(#p3eaacb50a9)" d="M 125.020761 207.792 
L 130.072545 207.792 
L 130.072545 192.452211 
L 125.020761 192.452211 
z
" style="fill:#006400;opacity:0.4;stroke:#000000;stroke-linejoin:miter;"/>
   </g>
   <g id="patch_64">
    <path clip-path="url(#p3eaacb50a9)" d="M 130.072545 207.792 
L 135.124328 207.792 
L 135.124328 193.786105 
L 130.072545 193.786105 
z
" style="fill:#006400;opacity:0.4;stroke:#000000;stroke-linejoin:miter;"/>
   </g>
   <g id="patch_65">
    <path clip-path="url(#p3eaacb50a9)" d="M 135.124328 207.792 
L 140.176112 207.792 
L 140.176112 191.785263 
L 135.124328 191.785263 
z
" style="fill:#006400;opacity:0.4;stroke:#000000;stroke-linejoin:miter;"/>
   </g>
   <g id="patch_66">
    <path clip-path="url(#p3eaacb50a9)" d="M 140.176112 207.792 
L 145.227895 207.792 
L 145.227895 190.451368 
L 140.176112 190.451368 
z
" style="fill:#006400;opacity:0.4;stroke:#000000;stroke-linejoin:miter;"/>
   </g>
   <g id="patch_67">
    <path clip-path="url(#p3eaacb50a9)" d="M 145.227895 207.792 
L 150.279679 207.792 
L 150.279679 181.781053 
L 145.227895 181.781053 
z
" style="fill:#006400;opacity:0.4;stroke:#000000;stroke-linejoin:miter;"/>
   </g>
   <g id="patch_68">
    <path clip-path="url(#p3eaacb50a9)" d="M 150.279679 207.792 
L 155.331463 207.792 
L 155.331463 173.777684 
L 150.279679 173.777684 
z
" style="fill:#006400;opacity:0.4;stroke:#000000;stroke-linejoin:miter;"/>
   </g>
   <g id="patch_69">
    <path clip-path="url(#p3eaacb50a9)" d="M 155.331463 207.792 
L 160.383246 207.792 
L 160.383246 175.111579 
L 155.331463 175.111579 
z
" style="fill:#006400;opacity:0.4;stroke:#000000;stroke-linejoin:miter;"/>
   </g>
   <g id="patch_70">
    <path clip-path="url(#p3eaacb50a9)" d="M 160.383246 207.792 
L 165.43503 207.792 
L 165.43503 156.437053 
L 160.383246 156.437053 
z
" style="fill:#006400;opacity:0.4;stroke:#000000;stroke-linejoin:miter;"/>
   </g>
   <g id="patch_71">
    <path clip-path="url(#p3eaacb50a9)" d="M 165.43503 207.792 
L 170.486813 207.792 
L 170.486813 165.774316 
L 165.43503 165.774316 
z
" style="fill:#006400;opacity:0.4;stroke:#000000;stroke-linejoin:miter;"/>
   </g>
   <g id="patch_72">
    <path clip-path="url(#p3eaacb50a9)" d="M 170.486813 207.792 
L 175.538597 207.792 
L 175.538597 169.109053 
L 170.486813 169.109053 
z
" style="fill:#006400;opacity:0.4;stroke:#000000;stroke-linejoin:miter;"/>
   </g>
   <g id="patch_73">
    <path clip-path="url(#p3eaacb50a9)" d="M 175.538597 207.792 
L 180.590381 207.792 
L 180.590381 176.445474 
L 175.538597 176.445474 
z
" style="fill:#006400;opacity:0.4;stroke:#000000;stroke-linejoin:miter;"/>
   </g>
   <g id="patch_74">
    <path clip-path="url(#p3eaacb50a9)" d="M 180.590381 207.792 
L 185.642164 207.792 
L 185.642164 172.443789 
L 180.590381 172.443789 
z
" style="fill:#006400;opacity:0.4;stroke:#000000;stroke-linejoin:miter;"/>
   </g>
   <g id="patch_75">
    <path clip-path="url(#p3eaacb50a9)" d="M 185.642164 207.792 
L 190.693948 207.792 
L 190.693948 153.102316 
L 185.642164 153.102316 
z
" style="fill:#006400;opacity:0.4;stroke:#000000;stroke-linejoin:miter;"/>
   </g>
   <g id="patch_76">
    <path clip-path="url(#p3eaacb50a9)" d="M 190.693948 207.792 
L 195.745731 207.792 
L 195.745731 165.107368 
L 190.693948 165.107368 
z
" style="fill:#006400;opacity:0.4;stroke:#000000;stroke-linejoin:miter;"/>
   </g>
   <g id="patch_77">
    <path clip-path="url(#p3eaacb50a9)" d="M 195.745731 207.792 
L 200.797515 207.792 
L 200.797515 155.103158 
L 195.745731 155.103158 
z
" style="fill:#006400;opacity:0.4;stroke:#000000;stroke-linejoin:miter;"/>
   </g>
   <g id="patch_78">
    <path clip-path="url(#p3eaacb50a9)" d="M 200.797515 207.792 
L 205.849298 207.792 
L 205.849298 144.432 
L 200.797515 144.432 
z
" style="fill:#006400;opacity:0.4;stroke:#000000;stroke-linejoin:miter;"/>
   </g>
   <g id="patch_79">
    <path clip-path="url(#p3eaacb50a9)" d="M 205.849298 207.792 
L 210.901082 207.792 
L 210.901082 153.769263 
L 205.849298 153.769263 
z
" style="fill:#006400;opacity:0.4;stroke:#000000;stroke-linejoin:miter;"/>
   </g>
   <g id="patch_80">
    <path clip-path="url(#p3eaacb50a9)" d="M 210.901082 207.792 
L 215.952866 207.792 
L 215.952866 163.773474 
L 210.901082 163.773474 
z
" style="fill:#006400;opacity:0.4;stroke:#000000;stroke-linejoin:miter;"/>
   </g>
   <g id="patch_81">
    <path clip-path="url(#p3eaacb50a9)" d="M 215.952866 207.792 
L 221.004649 207.792 
L 221.004649 168.442105 
L 215.952866 168.442105 
z
" style="fill:#006400;opacity:0.4;stroke:#000000;stroke-linejoin:miter;"/>
   </g>
   <g id="patch_82">
    <path clip-path="url(#p3eaacb50a9)" d="M 221.004649 207.792 
L 226.056433 207.792 
L 226.056433 177.112421 
L 221.004649 177.112421 
z
" style="fill:#006400;opacity:0.4;stroke:#000000;stroke-linejoin:miter;"/>
   </g>
   <g id="patch_83">
    <path clip-path="url(#p3eaacb50a9)" d="M 226.056433 207.792 
L 231.108216 207.792 
L 231.108216 168.442105 
L 226.056433 168.442105 
z
" style="fill:#006400;opacity:0.4;stroke:#000000;stroke-linejoin:miter;"/>
   </g>
   <g id="patch_84">
    <path clip-path="url(#p3eaacb50a9)" d="M 231.108216 207.792 
L 236.16 207.792 
L 236.16 146.432842 
L 231.108216 146.432842 
z
" style="fill:#006400;opacity:0.4;stroke:#000000;stroke-linejoin:miter;"/>
   </g>
   <g id="patch_85">
    <path clip-path="url(#p3eaacb50a9)" d="M 236.16 207.792 
L 241.211784 207.792 
L 241.211784 166.441263 
L 236.16 166.441263 
z
" style="fill:#006400;opacity:0.4;stroke:#000000;stroke-linejoin:miter;"/>
   </g>
   <g id="patch_86">
    <path clip-path="url(#p3eaacb50a9)" d="M 241.211784 207.792 
L 246.263567 207.792 
L 246.263567 163.106526 
L 241.211784 163.106526 
z
" style="fill:#006400;opacity:0.4;stroke:#000000;stroke-linejoin:miter;"/>
   </g>
   <g id="patch_87">
    <path clip-path="url(#p3eaacb50a9)" d="M 246.263567 207.792 
L 251.315351 207.792 
L 251.315351 165.107368 
L 246.263567 165.107368 
z
" style="fill:#006400;opacity:0.4;stroke:#000000;stroke-linejoin:miter;"/>
   </g>
   <g id="patch_88">
    <path clip-path="url(#p3eaacb50a9)" d="M 251.315351 207.792 
L 256.367134 207.792 
L 256.367134 171.776842 
L 251.315351 171.776842 
z
" style="fill:#006400;opacity:0.4;stroke:#000000;stroke-linejoin:miter;"/>
   </g>
   <g id="patch_89">
    <path clip-path="url(#p3eaacb50a9)" d="M 256.367134 207.792 
L 261.418918 207.792 
L 261.418918 164.440421 
L 256.367134 164.440421 
z
" style="fill:#006400;opacity:0.4;stroke:#000000;stroke-linejoin:miter;"/>
   </g>
   <g id="patch_90">
    <path clip-path="url(#p3eaacb50a9)" d="M 261.418918 207.792 
L 266.470702 207.792 
L 266.470702 150.434526 
L 261.418918 150.434526 
z
" style="fill:#006400;opacity:0.4;stroke:#000000;stroke-linejoin:miter;"/>
   </g>
   <g id="patch_91">
    <path clip-path="url(#p3eaacb50a9)" d="M 266.470702 207.792 
L 271.522485 207.792 
L 271.522485 145.765895 
L 266.470702 145.765895 
z
" style="fill:#006400;opacity:0.4;stroke:#000000;stroke-linejoin:miter;"/>
   </g>
   <g id="patch_92">
    <path clip-path="url(#p3eaacb50a9)" d="M 271.522485 207.792 
L 276.574269 207.792 
L 276.574269 161.772632 
L 271.522485 161.772632 
z
" style="fill:#006400;opacity:0.4;stroke:#000000;stroke-linejoin:miter;"/>
   </g>
   <g id="patch_93">
    <path clip-path="url(#p3eaacb50a9)" d="M 276.574269 207.792 
L 281.626052 207.792 
L 281.626052 161.105684 
L 276.574269 161.105684 
z
" style="fill:#006400;opacity:0.4;stroke:#000000;stroke-linejoin:miter;"/>
   </g>
   <g id="patch_94">
    <path clip-path="url(#p3eaacb50a9)" d="M 281.626052 207.792 
L 286.677836 207.792 
L 286.677836 165.107368 
L 281.626052 165.107368 
z
" style="fill:#006400;opacity:0.4;stroke:#000000;stroke-linejoin:miter;"/>
   </g>
   <g id="patch_95">
    <path clip-path="url(#p3eaacb50a9)" d="M 286.677836 207.792 
L 291.729619 207.792 
L 291.729619 169.776 
L 286.677836 169.776 
z
" style="fill:#006400;opacity:0.4;stroke:#000000;stroke-linejoin:miter;"/>
   </g>
   <g id="patch_96">
    <path clip-path="url(#p3eaacb50a9)" d="M 291.729619 207.792 
L 296.781403 207.792 
L 296.781403 165.774316 
L 291.729619 165.774316 
z
" style="fill:#006400;opacity:0.4;stroke:#000000;stroke-linejoin:miter;"/>
   </g>
   <g id="patch_97">
    <path clip-path="url(#p3eaacb50a9)" d="M 296.781403 207.792 
L 301.833187 207.792 
L 301.833187 176.445474 
L 296.781403 176.445474 
z
" style="fill:#006400;opacity:0.4;stroke:#000000;stroke-linejoin:miter;"/>
   </g>
   <g id="patch_98">
    <path clip-path="url(#p3eaacb50a9)" d="M 301.833187 207.792 
L 306.88497 207.792 
L 306.88497 159.104842 
L 301.833187 159.104842 
z
" style="fill:#006400;opacity:0.4;stroke:#000000;stroke-linejoin:miter;"/>
   </g>
   <g id="patch_99">
    <path clip-path="url(#p3eaacb50a9)" d="M 306.88497 207.792 
L 311.936754 207.792 
L 311.936754 181.114105 
L 306.88497 181.114105 
z
" style="fill:#006400;opacity:0.4;stroke:#000000;stroke-linejoin:miter;"/>
   </g>
   <g id="patch_100">
    <path clip-path="url(#p3eaacb50a9)" d="M 311.936754 207.792 
L 316.988537 207.792 
L 316.988537 169.109053 
L 311.936754 169.109053 
z
" style="fill:#006400;opacity:0.4;stroke:#000000;stroke-linejoin:miter;"/>
   </g>
   <g id="patch_101">
    <path clip-path="url(#p3eaacb50a9)" d="M 316.988537 207.792 
L 322.040321 207.792 
L 322.040321 180.447158 
L 316.988537 180.447158 
z
" style="fill:#006400;opacity:0.4;stroke:#000000;stroke-linejoin:miter;"/>
   </g>
   <g id="patch_102">
    <path clip-path="url(#p3eaacb50a9)" d="M 322.040321 207.792 
L 327.092105 207.792 
L 327.092105 183.114947 
L 322.040321 183.114947 
z
" style="fill:#006400;opacity:0.4;stroke:#000000;stroke-linejoin:miter;"/>
   </g>
   <g id="patch_103">
    <path clip-path="url(#p3eaacb50a9)" d="M 327.092105 207.792 
L 332.143888 207.792 
L 332.143888 191.785263 
L 327.092105 191.785263 
z
" style="fill:#006400;opacity:0.4;stroke:#000000;stroke-linejoin:miter;"/>
   </g>
   <g id="patch_104">
    <path clip-path="url(#p3eaacb50a9)" d="M 332.143888 207.792 
L 337.195672 207.792 
L 337.195672 186.449684 
L 332.143888 186.449684 
z
" style="fill:#006400;opacity:0.4;stroke:#000000;stroke-linejoin:miter;"/>
   </g>
   <g id="patch_105">
    <path clip-path="url(#p3eaacb50a9)" d="M 337.195672 207.792 
L 342.247455 207.792 
L 342.247455 189.117474 
L 337.195672 189.117474 
z
" style="fill:#006400;opacity:0.4;stroke:#000000;stroke-linejoin:miter;"/>
   </g>
   <g id="patch_106">
    <path clip-path="url(#p3eaacb50a9)" d="M 342.247455 207.792 
L 347.299239 207.792 
L 347.299239 188.450526 
L 342.247455 188.450526 
z
" style="fill:#006400;opacity:0.4;stroke:#000000;stroke-linejoin:miter;"/>
   </g>
   <g id="patch_107">
    <path clip-path="url(#p3eaacb50a9)" d="M 347.299239 207.792 
L 352.351023 207.792 
L 352.351023 200.455579 
L 347.299239 200.455579 
z
" style="fill:#006400;opacity:0.4;stroke:#000000;stroke-linejoin:miter;"/>
   </g>
   <g id="patch_108">
    <path clip-path="url(#p3eaacb50a9)" d="M 352.351023 207.792 
L 357.402806 207.792 
L 357.402806 201.789474 
L 352.351023 201.789474 
z
" style="fill:#006400;opacity:0.4;stroke:#000000;stroke-linejoin:miter;"/>
   </g>
   <g id="patch_109">
    <path clip-path="url(#p3eaacb50a9)" d="M 357.402806 207.792 
L 362.45459 207.792 
L 362.45459 201.789474 
L 357.402806 201.789474 
z
" style="fill:#006400;opacity:0.4;stroke:#000000;stroke-linejoin:miter;"/>
   </g>
   <g id="matplotlib.axis_3">
    <g id="xtick_6">
     <g id="line2d_10">
      <g>
       <use style="stroke:#000000;stroke-width:0.8;" x="92.224362" xlink:href="#m7c9a92037c" y="207.792"/>
      </g>
     </g>
     <g id="text_11">
      <!-- −1.0 -->
      <g transform="translate(80.082956 222.390437)scale(0.1 -0.1)">
       <use xlink:href="#DejaVuSans-8722"/>
       <use x="83.789062" xlink:href="#DejaVuSans-49"/>
       <use x="147.412109" xlink:href="#DejaVuSans-46"/>
       <use x="179.199219" xlink:href="#DejaVuSans-48"/>
      </g>
     </g>
    </g>
    <g id="xtick_7">
     <g id="line2d_11">
      <g>
       <use style="stroke:#000000;stroke-width:0.8;" x="164.11327" xlink:href="#m7c9a92037c" y="207.792"/>
      </g>
     </g>
     <g id="text_12">
      <!-- −0.5 -->
      <g transform="translate(151.971864 222.390437)scale(0.1 -0.1)">
       <use xlink:href="#DejaVuSans-8722"/>
       <use x="83.789062" xlink:href="#DejaVuSans-48"/>
       <use x="147.412109" xlink:href="#DejaVuSans-46"/>
       <use x="179.199219" xlink:href="#DejaVuSans-53"/>
      </g>
     </g>
    </g>
    <g id="xtick_8">
     <g id="line2d_12">
      <g>
       <use style="stroke:#000000;stroke-width:0.8;" x="236.002178" xlink:href="#m7c9a92037c" y="207.792"/>
      </g>
     </g>
     <g id="text_13">
      <!-- 0.0 -->
      <g transform="translate(228.050616 222.390437)scale(0.1 -0.1)">
       <use xlink:href="#DejaVuSans-48"/>
       <use x="63.623047" xlink:href="#DejaVuSans-46"/>
       <use x="95.410156" xlink:href="#DejaVuSans-48"/>
      </g>
     </g>
    </g>
    <g id="xtick_9">
     <g id="line2d_13">
      <g>
       <use style="stroke:#000000;stroke-width:0.8;" x="307.891087" xlink:href="#m7c9a92037c" y="207.792"/>
      </g>
     </g>
     <g id="text_14">
      <!-- 0.5 -->
      <g transform="translate(299.939524 222.390437)scale(0.1 -0.1)">
       <use xlink:href="#DejaVuSans-48"/>
       <use x="63.623047" xlink:href="#DejaVuSans-46"/>
       <use x="95.410156" xlink:href="#DejaVuSans-53"/>
      </g>
     </g>
    </g>
    <g id="xtick_10">
     <g id="line2d_14">
      <g>
       <use style="stroke:#000000;stroke-width:0.8;" x="379.779995" xlink:href="#m7c9a92037c" y="207.792"/>
      </g>
     </g>
     <g id="text_15">
      <!-- 1.0 -->
      <g transform="translate(371.828432 222.390437)scale(0.1 -0.1)">
       <use xlink:href="#DejaVuSans-49"/>
       <use x="63.623047" xlink:href="#DejaVuSans-46"/>
       <use x="95.410156" xlink:href="#DejaVuSans-48"/>
      </g>
     </g>
    </g>
   </g>
   <g id="matplotlib.axis_4">
    <g id="ytick_4">
     <g id="line2d_15">
      <g>
       <use style="stroke:#000000;stroke-width:0.8;" x="57.6" xlink:href="#m8f50b357c1" y="207.792"/>
      </g>
     </g>
     <g id="text_16">
      <!-- 0.0 -->
      <g transform="translate(34.696875 211.591219)scale(0.1 -0.1)">
       <use xlink:href="#DejaVuSans-48"/>
       <use x="63.623047" xlink:href="#DejaVuSans-46"/>
       <use x="95.410156" xlink:href="#DejaVuSans-48"/>
      </g>
     </g>
    </g>
    <g id="ytick_5">
     <g id="line2d_16">
      <g>
       <use style="stroke:#000000;stroke-width:0.8;" x="57.6" xlink:href="#m8f50b357c1" y="178.124693"/>
      </g>
     </g>
     <g id="text_17">
      <!-- 0.5 -->
      <g transform="translate(34.696875 181.923912)scale(0.1 -0.1)">
       <use xlink:href="#DejaVuSans-48"/>
       <use x="63.623047" xlink:href="#DejaVuSans-46"/>
       <use x="95.410156" xlink:href="#DejaVuSans-53"/>
      </g>
     </g>
    </g>
    <g id="ytick_6">
     <g id="line2d_17">
      <g>
       <use style="stroke:#000000;stroke-width:0.8;" x="57.6" xlink:href="#m8f50b357c1" y="148.457386"/>
      </g>
     </g>
     <g id="text_18">
      <!-- 1.0 -->
      <g transform="translate(34.696875 152.256605)scale(0.1 -0.1)">
       <use xlink:href="#DejaVuSans-49"/>
       <use x="63.623047" xlink:href="#DejaVuSans-46"/>
       <use x="95.410156" xlink:href="#DejaVuSans-48"/>
      </g>
     </g>
    </g>
    <g id="text_19">
     <!-- Density -->
     <g transform="translate(28.617187 193.536594)rotate(-90)scale(0.1 -0.1)">
      <use xlink:href="#DejaVuSans-68"/>
      <use x="77.001953" xlink:href="#DejaVuSans-101"/>
      <use x="138.525391" xlink:href="#DejaVuSans-110"/>
      <use x="201.904297" xlink:href="#DejaVuSans-115"/>
      <use x="254.003906" xlink:href="#DejaVuSans-105"/>
      <use x="281.787109" xlink:href="#DejaVuSans-116"/>
      <use x="320.996094" xlink:href="#DejaVuSans-121"/>
     </g>
    </g>
   </g>
   <g id="line2d_18">
    <path clip-path="url(#p3eaacb50a9)" d="M 73.832727 207.785585 
L 77.112066 207.777023 
L 80.391405 207.759155 
L 83.670744 207.724168 
L 86.950083 207.659698 
L 90.229421 207.547542 
L 93.50876 207.362773 
L 96.788099 207.073753 
L 100.067438 206.643701 
L 103.346777 206.034498 
L 106.626116 205.213041 
L 109.905455 204.15942 
L 113.184793 202.874599 
L 116.464132 201.38388 
L 119.743471 199.732593 
L 123.02281 197.973059 
L 126.302149 196.146274 
L 129.581488 194.265658 
L 132.860826 192.310945 
L 136.140165 190.236618 
L 139.419504 187.993108 
L 142.698843 185.553328 
L 145.978182 182.935046 
L 149.257521 180.211258 
L 152.53686 177.504604 
L 155.816198 174.965822 
L 159.095537 172.739941 
L 162.374876 170.927685 
L 165.654215 169.553162 
L 168.933554 168.550114 
L 172.212893 167.775035 
L 175.492231 167.046119 
L 178.77157 166.196226 
L 182.050909 165.121853 
L 185.330248 163.812291 
L 188.609587 162.352016 
L 191.888926 160.899172 
L 195.168264 159.64855 
L 198.447603 158.787743 
L 201.726942 158.453621 
L 205.006281 158.696118 
L 208.28562 159.457999 
L 211.564959 160.579321 
L 214.844298 161.830674 
L 218.123636 162.969736 
L 221.402975 163.805155 
L 224.682314 164.245828 
L 227.961653 164.316523 
L 231.240992 164.132733 
L 234.520331 163.844145 
L 237.799669 163.569819 
L 241.079008 163.352148 
L 244.358347 163.148591 
L 247.637686 162.863527 
L 250.917025 162.405195 
L 254.196364 161.742269 
L 257.475702 160.935488 
L 260.755041 160.130941 
L 264.03438 159.518043 
L 267.313719 159.269772 
L 270.593058 159.489192 
L 273.872397 160.182076 
L 277.151736 161.263239 
L 280.431074 162.59022 
L 283.710413 164.008916 
L 286.989752 165.394667 
L 290.269091 166.677599 
L 293.54843 167.8488 
L 296.827769 168.950197 
L 300.107107 170.054405 
L 303.386446 171.241351 
L 306.665785 172.577271 
L 309.945124 174.099635 
L 313.224463 175.80969 
L 316.503802 177.673156 
L 319.78314 179.629028 
L 323.062479 181.605517 
L 326.341818 183.540059 
L 329.621157 185.397707 
L 332.900496 187.180842 
L 336.179835 188.925247 
L 339.459174 190.682922 
L 342.738512 192.498172 
L 346.017851 194.386815 
L 349.29719 196.326741 
L 352.576529 198.262458 
L 355.855868 200.120109 
L 359.135207 201.825907 
L 362.414545 203.321401 
L 365.693884 204.572015 
L 368.973223 205.568721 
L 372.252562 206.324703 
L 375.531901 206.869262 
L 378.81124 207.240809 
L 382.090579 207.480216 
L 385.369917 207.625471 
L 388.649256 207.70823 
L 391.928595 207.752401 
L 395.207934 207.774444 
L 398.487273 207.784712 
" style="fill:none;stroke:#006400;stroke-linecap:square;stroke-width:4;"/>
   </g>
   <g id="patch_110">
    <path d="M 57.6 207.792 
L 57.6 141.264 
" style="fill:none;stroke:#000000;stroke-linecap:square;stroke-linejoin:miter;stroke-width:0.8;"/>
   </g>
   <g id="patch_111">
    <path d="M 414.72 207.792 
L 414.72 141.264 
" style="fill:none;stroke:#000000;stroke-linecap:square;stroke-linejoin:miter;stroke-width:0.8;"/>
   </g>
   <g id="patch_112">
    <path d="M 57.6 207.792 
L 414.72 207.792 
" style="fill:none;stroke:#000000;stroke-linecap:square;stroke-linejoin:miter;stroke-width:0.8;"/>
   </g>
   <g id="patch_113">
    <path d="M 57.6 141.264 
L 414.72 141.264 
" style="fill:none;stroke:#000000;stroke-linecap:square;stroke-linejoin:miter;stroke-width:0.8;"/>
   </g>
   <g id="legend_2">
    <g id="patch_114">
     <path d="M 369.80125 163.942125 
L 407.72 163.942125 
Q 409.72 163.942125 409.72 161.942125 
L 409.72 148.264 
Q 409.72 146.264 407.72 146.264 
L 369.80125 146.264 
Q 367.80125 146.264 367.80125 148.264 
L 367.80125 161.942125 
Q 367.80125 163.942125 369.80125 163.942125 
z
" style="fill:#ffffff;opacity:0.8;stroke:#cccccc;stroke-linejoin:miter;"/>
    </g>
    <g id="patch_115">
     <path d="M 371.80125 157.862437 
L 391.80125 157.862437 
L 391.80125 150.862437 
L 371.80125 150.862437 
z
" style="fill:#006400;opacity:0.4;stroke:#000000;stroke-linejoin:miter;"/>
    </g>
    <g id="text_20">
     <!-- y -->
     <g transform="translate(399.80125 157.862437)scale(0.1 -0.1)">
      <use xlink:href="#DejaVuSans-121"/>
     </g>
    </g>
   </g>
  </g>
  <g id="axes_3">
   <g id="patch_116">
    <path d="M 57.6 307.584 
L 414.72 307.584 
L 414.72 241.056 
L 57.6 241.056 
z
" style="fill:#ffffff;"/>
   </g>
   <g id="patch_117">
    <path clip-path="url(#pe9e03ca329)" d="M 110.829708 307.584 
L 115.84292 307.584 
L 115.84292 305.990038 
L 110.829708 305.990038 
z
" style="fill:#8b0000;opacity:0.4;stroke:#000000;stroke-linejoin:miter;"/>
   </g>
   <g id="patch_118">
    <path clip-path="url(#pe9e03ca329)" d="M 115.84292 307.584 
L 120.856131 307.584 
L 120.856131 305.591547 
L 115.84292 305.591547 
z
" style="fill:#8b0000;opacity:0.4;stroke:#000000;stroke-linejoin:miter;"/>
   </g>
   <g id="patch_119">
    <path clip-path="url(#pe9e03ca329)" d="M 120.856131 307.584 
L 125.869343 307.584 
L 125.869343 305.990038 
L 120.856131 305.990038 
z
" style="fill:#8b0000;opacity:0.4;stroke:#000000;stroke-linejoin:miter;"/>
   </g>
   <g id="patch_120">
    <path clip-path="url(#pe9e03ca329)" d="M 125.869343 307.584 
L 130.882555 307.584 
L 130.882555 298.817208 
L 125.869343 298.817208 
z
" style="fill:#8b0000;opacity:0.4;stroke:#000000;stroke-linejoin:miter;"/>
   </g>
   <g id="patch_121">
    <path clip-path="url(#pe9e03ca329)" d="M 130.882555 307.584 
L 135.895766 307.584 
L 135.895766 301.208151 
L 130.882555 301.208151 
z
" style="fill:#8b0000;opacity:0.4;stroke:#000000;stroke-linejoin:miter;"/>
   </g>
   <g id="patch_122">
    <path clip-path="url(#pe9e03ca329)" d="M 135.895766 307.584 
L 140.908978 307.584 
L 140.908978 292.839849 
L 135.895766 292.839849 
z
" style="fill:#8b0000;opacity:0.4;stroke:#000000;stroke-linejoin:miter;"/>
   </g>
   <g id="patch_123">
    <path clip-path="url(#pe9e03ca329)" d="M 140.908978 307.584 
L 145.92219 307.584 
L 145.92219 286.464 
L 140.908978 286.464 
z
" style="fill:#8b0000;opacity:0.4;stroke:#000000;stroke-linejoin:miter;"/>
   </g>
   <g id="patch_124">
    <path clip-path="url(#pe9e03ca329)" d="M 145.92219 307.584 
L 150.935401 307.584 
L 150.935401 281.682113 
L 145.92219 281.682113 
z
" style="fill:#8b0000;opacity:0.4;stroke:#000000;stroke-linejoin:miter;"/>
   </g>
   <g id="patch_125">
    <path clip-path="url(#pe9e03ca329)" d="M 150.935401 307.584 
L 155.948613 307.584 
L 155.948613 280.885132 
L 150.935401 280.885132 
z
" style="fill:#8b0000;opacity:0.4;stroke:#000000;stroke-linejoin:miter;"/>
   </g>
   <g id="patch_126">
    <path clip-path="url(#pe9e03ca329)" d="M 155.948613 307.584 
L 160.961825 307.584 
L 160.961825 277.298717 
L 155.948613 277.298717 
z
" style="fill:#8b0000;opacity:0.4;stroke:#000000;stroke-linejoin:miter;"/>
   </g>
   <g id="patch_127">
    <path clip-path="url(#pe9e03ca329)" d="M 160.961825 307.584 
L 165.975036 307.584 
L 165.975036 274.110792 
L 160.961825 274.110792 
z
" style="fill:#8b0000;opacity:0.4;stroke:#000000;stroke-linejoin:miter;"/>
   </g>
   <g id="patch_128">
    <path clip-path="url(#pe9e03ca329)" d="M 165.975036 307.584 
L 170.988248 307.584 
L 170.988248 287.659472 
L 165.975036 287.659472 
z
" style="fill:#8b0000;opacity:0.4;stroke:#000000;stroke-linejoin:miter;"/>
   </g>
   <g id="patch_129">
    <path clip-path="url(#pe9e03ca329)" d="M 170.988248 307.584 
L 176.00146 307.584 
L 176.00146 287.659472 
L 170.988248 287.659472 
z
" style="fill:#8b0000;opacity:0.4;stroke:#000000;stroke-linejoin:miter;"/>
   </g>
   <g id="patch_130">
    <path clip-path="url(#pe9e03ca329)" d="M 176.00146 307.584 
L 181.014671 307.584 
L 181.014671 283.674566 
L 176.00146 283.674566 
z
" style="fill:#8b0000;opacity:0.4;stroke:#000000;stroke-linejoin:miter;"/>
   </g>
   <g id="patch_131">
    <path clip-path="url(#pe9e03ca329)" d="M 181.014671 307.584 
L 186.027883 307.584 
L 186.027883 289.253434 
L 181.014671 289.253434 
z
" style="fill:#8b0000;opacity:0.4;stroke:#000000;stroke-linejoin:miter;"/>
   </g>
   <g id="patch_132">
    <path clip-path="url(#pe9e03ca329)" d="M 186.027883 307.584 
L 191.041095 307.584 
L 191.041095 292.441358 
L 186.027883 292.441358 
z
" style="fill:#8b0000;opacity:0.4;stroke:#000000;stroke-linejoin:miter;"/>
   </g>
   <g id="patch_133">
    <path clip-path="url(#pe9e03ca329)" d="M 191.041095 307.584 
L 196.054307 307.584 
L 196.054307 294.433811 
L 191.041095 294.433811 
z
" style="fill:#8b0000;opacity:0.4;stroke:#000000;stroke-linejoin:miter;"/>
   </g>
   <g id="patch_134">
    <path clip-path="url(#pe9e03ca329)" d="M 196.054307 307.584 
L 201.067518 307.584 
L 201.067518 290.847396 
L 196.054307 290.847396 
z
" style="fill:#8b0000;opacity:0.4;stroke:#000000;stroke-linejoin:miter;"/>
   </g>
   <g id="patch_135">
    <path clip-path="url(#pe9e03ca329)" d="M 201.067518 307.584 
L 206.08073 307.584 
L 206.08073 293.63683 
L 201.067518 293.63683 
z
" style="fill:#8b0000;opacity:0.4;stroke:#000000;stroke-linejoin:miter;"/>
   </g>
   <g id="patch_136">
    <path clip-path="url(#pe9e03ca329)" d="M 206.08073 307.584 
L 211.093942 307.584 
L 211.093942 290.050415 
L 206.08073 290.050415 
z
" style="fill:#8b0000;opacity:0.4;stroke:#000000;stroke-linejoin:miter;"/>
   </g>
   <g id="patch_137">
    <path clip-path="url(#pe9e03ca329)" d="M 211.093942 307.584 
L 216.107153 307.584 
L 216.107153 289.253434 
L 211.093942 289.253434 
z
" style="fill:#8b0000;opacity:0.4;stroke:#000000;stroke-linejoin:miter;"/>
   </g>
   <g id="patch_138">
    <path clip-path="url(#pe9e03ca329)" d="M 216.107153 307.584 
L 221.120365 307.584 
L 221.120365 285.268528 
L 216.107153 285.268528 
z
" style="fill:#8b0000;opacity:0.4;stroke:#000000;stroke-linejoin:miter;"/>
   </g>
   <g id="patch_139">
    <path clip-path="url(#pe9e03ca329)" d="M 221.120365 307.584 
L 226.133577 307.584 
L 226.133577 280.885132 
L 221.120365 280.885132 
z
" style="fill:#8b0000;opacity:0.4;stroke:#000000;stroke-linejoin:miter;"/>
   </g>
   <g id="patch_140">
    <path clip-path="url(#pe9e03ca329)" d="M 226.133577 307.584 
L 231.146788 307.584 
L 231.146788 272.51683 
L 226.133577 272.51683 
z
" style="fill:#8b0000;opacity:0.4;stroke:#000000;stroke-linejoin:miter;"/>
   </g>
   <g id="patch_141">
    <path clip-path="url(#pe9e03ca329)" d="M 231.146788 307.584 
L 236.16 307.584 
L 236.16 255.381736 
L 231.146788 255.381736 
z
" style="fill:#8b0000;opacity:0.4;stroke:#000000;stroke-linejoin:miter;"/>
   </g>
   <g id="patch_142">
    <path clip-path="url(#pe9e03ca329)" d="M 236.16 307.584 
L 241.173212 307.584 
L 241.173212 244.224 
L 236.16 244.224 
z
" style="fill:#8b0000;opacity:0.4;stroke:#000000;stroke-linejoin:miter;"/>
   </g>
   <g id="patch_143">
    <path clip-path="url(#pe9e03ca329)" d="M 241.173212 307.584 
L 246.186423 307.584 
L 246.186423 260.960604 
L 241.173212 260.960604 
z
" style="fill:#8b0000;opacity:0.4;stroke:#000000;stroke-linejoin:miter;"/>
   </g>
   <g id="patch_144">
    <path clip-path="url(#pe9e03ca329)" d="M 246.186423 307.584 
L 251.199635 307.584 
L 251.199635 279.29117 
L 246.186423 279.29117 
z
" style="fill:#8b0000;opacity:0.4;stroke:#000000;stroke-linejoin:miter;"/>
   </g>
   <g id="patch_145">
    <path clip-path="url(#pe9e03ca329)" d="M 251.199635 307.584 
L 256.212847 307.584 
L 256.212847 280.088151 
L 251.199635 280.088151 
z
" style="fill:#8b0000;opacity:0.4;stroke:#000000;stroke-linejoin:miter;"/>
   </g>
   <g id="patch_146">
    <path clip-path="url(#pe9e03ca329)" d="M 256.212847 307.584 
L 261.226058 307.584 
L 261.226058 280.885132 
L 256.212847 280.885132 
z
" style="fill:#8b0000;opacity:0.4;stroke:#000000;stroke-linejoin:miter;"/>
   </g>
   <g id="patch_147">
    <path clip-path="url(#pe9e03ca329)" d="M 261.226058 307.584 
L 266.23927 307.584 
L 266.23927 286.464 
L 261.226058 286.464 
z
" style="fill:#8b0000;opacity:0.4;stroke:#000000;stroke-linejoin:miter;"/>
   </g>
   <g id="patch_148">
    <path clip-path="url(#pe9e03ca329)" d="M 266.23927 307.584 
L 271.252482 307.584 
L 271.252482 295.230792 
L 266.23927 295.230792 
z
" style="fill:#8b0000;opacity:0.4;stroke:#000000;stroke-linejoin:miter;"/>
   </g>
   <g id="patch_149">
    <path clip-path="url(#pe9e03ca329)" d="M 271.252482 307.584 
L 276.265693 307.584 
L 276.265693 290.050415 
L 271.252482 290.050415 
z
" style="fill:#8b0000;opacity:0.4;stroke:#000000;stroke-linejoin:miter;"/>
   </g>
   <g id="patch_150">
    <path clip-path="url(#pe9e03ca329)" d="M 276.265693 307.584 
L 281.278905 307.584 
L 281.278905 292.042868 
L 276.265693 292.042868 
z
" style="fill:#8b0000;opacity:0.4;stroke:#000000;stroke-linejoin:miter;"/>
   </g>
   <g id="patch_151">
    <path clip-path="url(#pe9e03ca329)" d="M 281.278905 307.584 
L 286.292117 307.584 
L 286.292117 297.223245 
L 281.278905 297.223245 
z
" style="fill:#8b0000;opacity:0.4;stroke:#000000;stroke-linejoin:miter;"/>
   </g>
   <g id="patch_152">
    <path clip-path="url(#pe9e03ca329)" d="M 286.292117 307.584 
L 291.305329 307.584 
L 291.305329 292.839849 
L 286.292117 292.839849 
z
" style="fill:#8b0000;opacity:0.4;stroke:#000000;stroke-linejoin:miter;"/>
   </g>
   <g id="patch_153">
    <path clip-path="url(#pe9e03ca329)" d="M 291.305329 307.584 
L 296.31854 307.584 
L 296.31854 290.448906 
L 291.305329 290.448906 
z
" style="fill:#8b0000;opacity:0.4;stroke:#000000;stroke-linejoin:miter;"/>
   </g>
   <g id="patch_154">
    <path clip-path="url(#pe9e03ca329)" d="M 296.31854 307.584 
L 301.331752 307.584 
L 301.331752 289.253434 
L 296.31854 289.253434 
z
" style="fill:#8b0000;opacity:0.4;stroke:#000000;stroke-linejoin:miter;"/>
   </g>
   <g id="patch_155">
    <path clip-path="url(#pe9e03ca329)" d="M 301.331752 307.584 
L 306.344964 307.584 
L 306.344964 281.682113 
L 301.331752 281.682113 
z
" style="fill:#8b0000;opacity:0.4;stroke:#000000;stroke-linejoin:miter;"/>
   </g>
   <g id="patch_156">
    <path clip-path="url(#pe9e03ca329)" d="M 306.344964 307.584 
L 311.358175 307.584 
L 311.358175 278.095698 
L 306.344964 278.095698 
z
" style="fill:#8b0000;opacity:0.4;stroke:#000000;stroke-linejoin:miter;"/>
   </g>
   <g id="patch_157">
    <path clip-path="url(#pe9e03ca329)" d="M 311.358175 307.584 
L 316.371387 307.584 
L 316.371387 283.276075 
L 311.358175 283.276075 
z
" style="fill:#8b0000;opacity:0.4;stroke:#000000;stroke-linejoin:miter;"/>
   </g>
   <g id="patch_158">
    <path clip-path="url(#pe9e03ca329)" d="M 316.371387 307.584 
L 321.384599 307.584 
L 321.384599 272.915321 
L 316.371387 272.915321 
z
" style="fill:#8b0000;opacity:0.4;stroke:#000000;stroke-linejoin:miter;"/>
   </g>
   <g id="patch_159">
    <path clip-path="url(#pe9e03ca329)" d="M 321.384599 307.584 
L 326.39781 307.584 
L 326.39781 278.892679 
L 321.384599 278.892679 
z
" style="fill:#8b0000;opacity:0.4;stroke:#000000;stroke-linejoin:miter;"/>
   </g>
   <g id="patch_160">
    <path clip-path="url(#pe9e03ca329)" d="M 326.39781 307.584 
L 331.411022 307.584 
L 331.411022 286.862491 
L 326.39781 286.862491 
z
" style="fill:#8b0000;opacity:0.4;stroke:#000000;stroke-linejoin:miter;"/>
   </g>
   <g id="patch_161">
    <path clip-path="url(#pe9e03ca329)" d="M 331.411022 307.584 
L 336.424234 307.584 
L 336.424234 292.042868 
L 331.411022 292.042868 
z
" style="fill:#8b0000;opacity:0.4;stroke:#000000;stroke-linejoin:miter;"/>
   </g>
   <g id="patch_162">
    <path clip-path="url(#pe9e03ca329)" d="M 336.424234 307.584 
L 341.437445 307.584 
L 341.437445 294.035321 
L 336.424234 294.035321 
z
" style="fill:#8b0000;opacity:0.4;stroke:#000000;stroke-linejoin:miter;"/>
   </g>
   <g id="patch_163">
    <path clip-path="url(#pe9e03ca329)" d="M 341.437445 307.584 
L 346.450657 307.584 
L 346.450657 300.41117 
L 341.437445 300.41117 
z
" style="fill:#8b0000;opacity:0.4;stroke:#000000;stroke-linejoin:miter;"/>
   </g>
   <g id="patch_164">
    <path clip-path="url(#pe9e03ca329)" d="M 346.450657 307.584 
L 351.463869 307.584 
L 351.463869 305.990038 
L 346.450657 305.990038 
z
" style="fill:#8b0000;opacity:0.4;stroke:#000000;stroke-linejoin:miter;"/>
   </g>
   <g id="patch_165">
    <path clip-path="url(#pe9e03ca329)" d="M 351.463869 307.584 
L 356.47708 307.584 
L 356.47708 306.388528 
L 351.463869 306.388528 
z
" style="fill:#8b0000;opacity:0.4;stroke:#000000;stroke-linejoin:miter;"/>
   </g>
   <g id="patch_166">
    <path clip-path="url(#pe9e03ca329)" d="M 356.47708 307.584 
L 361.490292 307.584 
L 361.490292 306.787019 
L 356.47708 306.787019 
z
" style="fill:#8b0000;opacity:0.4;stroke:#000000;stroke-linejoin:miter;"/>
   </g>
   <g id="matplotlib.axis_5">
    <g id="xtick_11">
     <g id="line2d_19">
      <g>
       <use style="stroke:#000000;stroke-width:0.8;" x="84.767336" xlink:href="#m7c9a92037c" y="307.584"/>
      </g>
     </g>
     <g id="text_21">
      <!-- −1.0 -->
      <g transform="translate(72.62593 322.182437)scale(0.1 -0.1)">
       <use xlink:href="#DejaVuSans-8722"/>
       <use x="83.789062" xlink:href="#DejaVuSans-49"/>
       <use x="147.412109" xlink:href="#DejaVuSans-46"/>
       <use x="179.199219" xlink:href="#DejaVuSans-48"/>
      </g>
     </g>
    </g>
    <g id="xtick_12">
     <g id="line2d_20">
      <g>
       <use style="stroke:#000000;stroke-width:0.8;" x="160.810301" xlink:href="#m7c9a92037c" y="307.584"/>
      </g>
     </g>
     <g id="text_22">
      <!-- −0.5 -->
      <g transform="translate(148.668895 322.182437)scale(0.1 -0.1)">
       <use xlink:href="#DejaVuSans-8722"/>
       <use x="83.789062" xlink:href="#DejaVuSans-48"/>
       <use x="147.412109" xlink:href="#DejaVuSans-46"/>
       <use x="179.199219" xlink:href="#DejaVuSans-53"/>
      </g>
     </g>
    </g>
    <g id="xtick_13">
     <g id="line2d_21">
      <g>
       <use style="stroke:#000000;stroke-width:0.8;" x="236.853267" xlink:href="#m7c9a92037c" y="307.584"/>
      </g>
     </g>
     <g id="text_23">
      <!-- 0.0 -->
      <g transform="translate(228.901704 322.182437)scale(0.1 -0.1)">
       <use xlink:href="#DejaVuSans-48"/>
       <use x="63.623047" xlink:href="#DejaVuSans-46"/>
       <use x="95.410156" xlink:href="#DejaVuSans-48"/>
      </g>
     </g>
    </g>
    <g id="xtick_14">
     <g id="line2d_22">
      <g>
       <use style="stroke:#000000;stroke-width:0.8;" x="312.896232" xlink:href="#m7c9a92037c" y="307.584"/>
      </g>
     </g>
     <g id="text_24">
      <!-- 0.5 -->
      <g transform="translate(304.944669 322.182437)scale(0.1 -0.1)">
       <use xlink:href="#DejaVuSans-48"/>
       <use x="63.623047" xlink:href="#DejaVuSans-46"/>
       <use x="95.410156" xlink:href="#DejaVuSans-53"/>
      </g>
     </g>
    </g>
    <g id="xtick_15">
     <g id="line2d_23">
      <g>
       <use style="stroke:#000000;stroke-width:0.8;" x="388.939197" xlink:href="#m7c9a92037c" y="307.584"/>
      </g>
     </g>
     <g id="text_25">
      <!-- 1.0 -->
      <g transform="translate(380.987635 322.182437)scale(0.1 -0.1)">
       <use xlink:href="#DejaVuSans-49"/>
       <use x="63.623047" xlink:href="#DejaVuSans-46"/>
       <use x="95.410156" xlink:href="#DejaVuSans-48"/>
      </g>
     </g>
    </g>
    <g id="text_26">
     <!-- Position -->
     <defs>
      <path d="M 19.671875 64.796875 
L 19.671875 37.40625 
L 32.078125 37.40625 
Q 38.96875 37.40625 42.71875 40.96875 
Q 46.484375 44.53125 46.484375 51.125 
Q 46.484375 57.671875 42.71875 61.234375 
Q 38.96875 64.796875 32.078125 64.796875 
z
M 9.8125 72.90625 
L 32.078125 72.90625 
Q 44.34375 72.90625 50.609375 67.359375 
Q 56.890625 61.8125 56.890625 51.125 
Q 56.890625 40.328125 50.609375 34.8125 
Q 44.34375 29.296875 32.078125 29.296875 
L 19.671875 29.296875 
L 19.671875 0 
L 9.8125 0 
z
" id="DejaVuSans-80"/>
      <path d="M 30.609375 48.390625 
Q 23.390625 48.390625 19.1875 42.75 
Q 14.984375 37.109375 14.984375 27.296875 
Q 14.984375 17.484375 19.15625 11.84375 
Q 23.34375 6.203125 30.609375 6.203125 
Q 37.796875 6.203125 41.984375 11.859375 
Q 46.1875 17.53125 46.1875 27.296875 
Q 46.1875 37.015625 41.984375 42.703125 
Q 37.796875 48.390625 30.609375 48.390625 
z
M 30.609375 56 
Q 42.328125 56 49.015625 48.375 
Q 55.71875 40.765625 55.71875 27.296875 
Q 55.71875 13.875 49.015625 6.21875 
Q 42.328125 -1.421875 30.609375 -1.421875 
Q 18.84375 -1.421875 12.171875 6.21875 
Q 5.515625 13.875 5.515625 27.296875 
Q 5.515625 40.765625 12.171875 48.375 
Q 18.84375 56 30.609375 56 
z
" id="DejaVuSans-111"/>
     </defs>
     <g transform="translate(216.517031 335.860562)scale(0.1 -0.1)">
      <use xlink:href="#DejaVuSans-80"/>
      <use x="60.255859" xlink:href="#DejaVuSans-111"/>
      <use x="121.4375" xlink:href="#DejaVuSans-115"/>
      <use x="173.537109" xlink:href="#DejaVuSans-105"/>
      <use x="201.320312" xlink:href="#DejaVuSans-116"/>
      <use x="240.529297" xlink:href="#DejaVuSans-105"/>
      <use x="268.3125" xlink:href="#DejaVuSans-111"/>
      <use x="329.494141" xlink:href="#DejaVuSans-110"/>
     </g>
    </g>
   </g>
   <g id="matplotlib.axis_6">
    <g id="ytick_7">
     <g id="line2d_24">
      <g>
       <use style="stroke:#000000;stroke-width:0.8;" x="57.6" xlink:href="#m8f50b357c1" y="307.584"/>
      </g>
     </g>
     <g id="text_27">
      <!-- 0 -->
      <g transform="translate(44.2375 311.383219)scale(0.1 -0.1)">
       <use xlink:href="#DejaVuSans-48"/>
      </g>
     </g>
    </g>
    <g id="ytick_8">
     <g id="line2d_25">
      <g>
       <use style="stroke:#000000;stroke-width:0.8;" x="57.6" xlink:href="#m8f50b357c1" y="274.325033"/>
      </g>
     </g>
     <g id="text_28">
      <!-- 1 -->
      <g transform="translate(44.2375 278.124252)scale(0.1 -0.1)">
       <use xlink:href="#DejaVuSans-49"/>
      </g>
     </g>
    </g>
    <g id="ytick_9">
     <g id="line2d_26">
      <g>
       <use style="stroke:#000000;stroke-width:0.8;" x="57.6" xlink:href="#m8f50b357c1" y="241.066067"/>
      </g>
     </g>
     <g id="text_29">
      <!-- 2 -->
      <defs>
       <path d="M 19.1875 8.296875 
L 53.609375 8.296875 
L 53.609375 0 
L 7.328125 0 
L 7.328125 8.296875 
Q 12.9375 14.109375 22.625 23.890625 
Q 32.328125 33.6875 34.8125 36.53125 
Q 39.546875 41.84375 41.421875 45.53125 
Q 43.3125 49.21875 43.3125 52.78125 
Q 43.3125 58.59375 39.234375 62.25 
Q 35.15625 65.921875 28.609375 65.921875 
Q 23.96875 65.921875 18.8125 64.3125 
Q 13.671875 62.703125 7.8125 59.421875 
L 7.8125 69.390625 
Q 13.765625 71.78125 18.9375 73 
Q 24.125 74.21875 28.421875 74.21875 
Q 39.75 74.21875 46.484375 68.546875 
Q 53.21875 62.890625 53.21875 53.421875 
Q 53.21875 48.921875 51.53125 44.890625 
Q 49.859375 40.875 45.40625 35.40625 
Q 44.1875 33.984375 37.640625 27.21875 
Q 31.109375 20.453125 19.1875 8.296875 
z
" id="DejaVuSans-50"/>
      </defs>
      <g transform="translate(44.2375 244.865286)scale(0.1 -0.1)">
       <use xlink:href="#DejaVuSans-50"/>
      </g>
     </g>
    </g>
    <g id="text_30">
     <!-- Density -->
     <g transform="translate(38.157812 293.328594)rotate(-90)scale(0.1 -0.1)">
      <use xlink:href="#DejaVuSans-68"/>
      <use x="77.001953" xlink:href="#DejaVuSans-101"/>
      <use x="138.525391" xlink:href="#DejaVuSans-110"/>
      <use x="201.904297" xlink:href="#DejaVuSans-115"/>
      <use x="254.003906" xlink:href="#DejaVuSans-105"/>
      <use x="281.787109" xlink:href="#DejaVuSans-116"/>
      <use x="320.996094" xlink:href="#DejaVuSans-121"/>
     </g>
    </g>
   </g>
   <g id="line2d_27">
    <path clip-path="url(#pe9e03ca329)" d="M 73.832727 307.581572 
L 77.112066 307.578324 
L 80.391405 307.571513 
L 83.670744 307.558101 
L 86.950083 307.533229 
L 90.229421 307.489663 
L 93.50876 307.417292 
L 96.788099 307.302734 
L 100.067438 307.129018 
L 103.346777 306.875264 
L 106.626116 306.516391 
L 109.905455 306.023045 
L 113.184793 305.362254 
L 116.464132 304.499403 
L 119.743471 303.40197 
L 123.02281 302.044983 
L 126.302149 300.417559 
L 129.581488 298.529356 
L 132.860826 296.415609 
L 136.140165 294.139516 
L 139.419504 291.791109 
L 142.698843 289.482179 
L 145.978182 287.337205 
L 149.257521 285.480688 
L 152.53686 284.021911 
L 155.816198 283.039188 
L 159.095537 282.566916 
L 162.374876 282.589357 
L 165.654215 283.044049 
L 168.933554 283.834763 
L 172.212893 284.85004 
L 175.492231 285.980873 
L 178.77157 287.131796 
L 182.050909 288.223339 
L 185.330248 289.188244 
L 188.609587 289.966215 
L 191.888926 290.500961 
L 195.168264 290.740329 
L 198.447603 290.637611 
L 201.726942 290.151871 
L 205.006281 289.247106 
L 208.28562 287.892789 
L 211.564959 286.069751 
L 214.844298 283.784229 
L 218.123636 281.089106 
L 221.402975 278.106028 
L 224.682314 275.037626 
L 227.961653 272.158441 
L 231.240992 269.778659 
L 234.520331 268.185571 
L 237.799669 267.579293 
L 241.079008 268.025121 
L 244.358347 269.440458 
L 247.637686 271.620851 
L 250.917025 274.293952 
L 254.196364 277.180546 
L 257.475702 280.042515 
L 260.755041 282.706815 
L 264.03438 285.066088 
L 267.313719 287.064252 
L 270.593058 288.677156 
L 273.872397 289.895776 
L 277.151736 290.715633 
L 280.431074 291.133326 
L 283.710413 291.149399 
L 286.989752 290.775528 
L 290.269091 290.043053 
L 293.54843 289.009491 
L 296.827769 287.76047 
L 300.107107 286.40632 
L 303.386446 285.074345 
L 306.665785 283.898703 
L 309.945124 283.009451 
L 313.224463 282.52137 
L 316.503802 282.522706 
L 319.78314 283.064526 
L 323.062479 284.152624 
L 326.341818 285.744631 
L 329.621157 287.754241 
L 332.900496 290.062317 
L 336.179835 292.532344 
L 339.459174 295.026648 
L 342.738512 297.420419 
L 346.017851 299.612117 
L 349.29719 301.530067 
L 352.576529 303.135341 
L 355.855868 304.42081 
L 359.135207 305.406325 
L 362.414545 306.130766 
L 365.693884 306.642654 
L 368.973223 306.991494 
L 372.252562 307.221571 
L 375.531901 307.368823 
L 378.81124 307.460343 
L 382.090579 307.51549 
L 385.369917 307.547578 
L 388.649256 307.565509 
L 391.928595 307.575076 
L 395.207934 307.579922 
L 398.487273 307.582241 
" style="fill:none;stroke:#8b0000;stroke-linecap:square;stroke-width:4;"/>
   </g>
   <g id="patch_167">
    <path d="M 57.6 307.584 
L 57.6 241.056 
" style="fill:none;stroke:#000000;stroke-linecap:square;stroke-linejoin:miter;stroke-width:0.8;"/>
   </g>
   <g id="patch_168">
    <path d="M 414.72 307.584 
L 414.72 241.056 
" style="fill:none;stroke:#000000;stroke-linecap:square;stroke-linejoin:miter;stroke-width:0.8;"/>
   </g>
   <g id="patch_169">
    <path d="M 57.6 307.584 
L 414.72 307.584 
" style="fill:none;stroke:#000000;stroke-linecap:square;stroke-linejoin:miter;stroke-width:0.8;"/>
   </g>
   <g id="patch_170">
    <path d="M 57.6 241.056 
L 414.72 241.056 
" style="fill:none;stroke:#000000;stroke-linecap:square;stroke-linejoin:miter;stroke-width:0.8;"/>
   </g>
   <g id="legend_3">
    <g id="patch_171">
     <path d="M 370.471563 263.734125 
L 407.72 263.734125 
Q 409.72 263.734125 409.72 261.734125 
L 409.72 248.056 
Q 409.72 246.056 407.72 246.056 
L 370.471563 246.056 
Q 368.471563 246.056 368.471563 248.056 
L 368.471563 261.734125 
Q 368.471563 263.734125 370.471563 263.734125 
z
" style="fill:#ffffff;opacity:0.8;stroke:#cccccc;stroke-linejoin:miter;"/>
    </g>
    <g id="patch_172">
     <path d="M 372.471563 257.654437 
L 392.471563 257.654437 
L 392.471563 250.654437 
L 372.471563 250.654437 
z
" style="fill:#8b0000;opacity:0.4;stroke:#000000;stroke-linejoin:miter;"/>
    </g>
    <g id="text_31">
     <!-- z -->
     <defs>
      <path d="M 5.515625 54.6875 
L 48.1875 54.6875 
L 48.1875 46.484375 
L 14.40625 7.171875 
L 48.1875 7.171875 
L 48.1875 0 
L 4.296875 0 
L 4.296875 8.203125 
L 38.09375 47.515625 
L 5.515625 47.515625 
z
" id="DejaVuSans-122"/>
     </defs>
     <g transform="translate(400.471563 257.654437)scale(0.1 -0.1)">
      <use xlink:href="#DejaVuSans-122"/>
     </g>
    </g>
   </g>
  </g>
  <g id="text_32">
   <!-- Motif 3 Histogram -->
   <defs>
    <path d="M 9.8125 72.90625 
L 24.515625 72.90625 
L 43.109375 23.296875 
L 61.8125 72.90625 
L 76.515625 72.90625 
L 76.515625 0 
L 66.890625 0 
L 66.890625 64.015625 
L 48.09375 14.015625 
L 38.1875 14.015625 
L 19.390625 64.015625 
L 19.390625 0 
L 9.8125 0 
z
" id="DejaVuSans-77"/>
    <path d="M 37.109375 75.984375 
L 37.109375 68.5 
L 28.515625 68.5 
Q 23.6875 68.5 21.796875 66.546875 
Q 19.921875 64.59375 19.921875 59.515625 
L 19.921875 54.6875 
L 34.71875 54.6875 
L 34.71875 47.703125 
L 19.921875 47.703125 
L 19.921875 0 
L 10.890625 0 
L 10.890625 47.703125 
L 2.296875 47.703125 
L 2.296875 54.6875 
L 10.890625 54.6875 
L 10.890625 58.5 
Q 10.890625 67.625 15.140625 71.796875 
Q 19.390625 75.984375 28.609375 75.984375 
z
" id="DejaVuSans-102"/>
    <path id="DejaVuSans-32"/>
    <path d="M 40.578125 39.3125 
Q 47.65625 37.796875 51.625 33 
Q 55.609375 28.21875 55.609375 21.1875 
Q 55.609375 10.40625 48.1875 4.484375 
Q 40.765625 -1.421875 27.09375 -1.421875 
Q 22.515625 -1.421875 17.65625 -0.515625 
Q 12.796875 0.390625 7.625 2.203125 
L 7.625 11.71875 
Q 11.71875 9.328125 16.59375 8.109375 
Q 21.484375 6.890625 26.8125 6.890625 
Q 36.078125 6.890625 40.9375 10.546875 
Q 45.796875 14.203125 45.796875 21.1875 
Q 45.796875 27.640625 41.28125 31.265625 
Q 36.765625 34.90625 28.71875 34.90625 
L 20.21875 34.90625 
L 20.21875 43.015625 
L 29.109375 43.015625 
Q 36.375 43.015625 40.234375 45.921875 
Q 44.09375 48.828125 44.09375 54.296875 
Q 44.09375 59.90625 40.109375 62.90625 
Q 36.140625 65.921875 28.71875 65.921875 
Q 24.65625 65.921875 20.015625 65.03125 
Q 15.375 64.15625 9.8125 62.3125 
L 9.8125 71.09375 
Q 15.4375 72.65625 20.34375 73.4375 
Q 25.25 74.21875 29.59375 74.21875 
Q 40.828125 74.21875 47.359375 69.109375 
Q 53.90625 64.015625 53.90625 55.328125 
Q 53.90625 49.265625 50.4375 45.09375 
Q 46.96875 40.921875 40.578125 39.3125 
z
" id="DejaVuSans-51"/>
    <path d="M 9.8125 72.90625 
L 19.671875 72.90625 
L 19.671875 43.015625 
L 55.515625 43.015625 
L 55.515625 72.90625 
L 65.375 72.90625 
L 65.375 0 
L 55.515625 0 
L 55.515625 34.71875 
L 19.671875 34.71875 
L 19.671875 0 
L 9.8125 0 
z
" id="DejaVuSans-72"/>
    <path d="M 45.40625 27.984375 
Q 45.40625 37.75 41.375 43.109375 
Q 37.359375 48.484375 30.078125 48.484375 
Q 22.859375 48.484375 18.828125 43.109375 
Q 14.796875 37.75 14.796875 27.984375 
Q 14.796875 18.265625 18.828125 12.890625 
Q 22.859375 7.515625 30.078125 7.515625 
Q 37.359375 7.515625 41.375 12.890625 
Q 45.40625 18.265625 45.40625 27.984375 
z
M 54.390625 6.78125 
Q 54.390625 -7.171875 48.1875 -13.984375 
Q 42 -20.796875 29.203125 -20.796875 
Q 24.46875 -20.796875 20.265625 -20.09375 
Q 16.0625 -19.390625 12.109375 -17.921875 
L 12.109375 -9.1875 
Q 16.0625 -11.328125 19.921875 -12.34375 
Q 23.78125 -13.375 27.78125 -13.375 
Q 36.625 -13.375 41.015625 -8.765625 
Q 45.40625 -4.15625 45.40625 5.171875 
L 45.40625 9.625 
Q 42.625 4.78125 38.28125 2.390625 
Q 33.9375 0 27.875 0 
Q 17.828125 0 11.671875 7.65625 
Q 5.515625 15.328125 5.515625 27.984375 
Q 5.515625 40.671875 11.671875 48.328125 
Q 17.828125 56 27.875 56 
Q 33.9375 56 38.28125 53.609375 
Q 42.625 51.21875 45.40625 46.390625 
L 45.40625 54.6875 
L 54.390625 54.6875 
z
" id="DejaVuSans-103"/>
    <path d="M 41.109375 46.296875 
Q 39.59375 47.171875 37.8125 47.578125 
Q 36.03125 48 33.890625 48 
Q 26.265625 48 22.1875 43.046875 
Q 18.109375 38.09375 18.109375 28.8125 
L 18.109375 0 
L 9.078125 0 
L 9.078125 54.6875 
L 18.109375 54.6875 
L 18.109375 46.1875 
Q 20.953125 51.171875 25.484375 53.578125 
Q 30.03125 56 36.53125 56 
Q 37.453125 56 38.578125 55.875 
Q 39.703125 55.765625 41.0625 55.515625 
z
" id="DejaVuSans-114"/>
    <path d="M 34.28125 27.484375 
Q 23.390625 27.484375 19.1875 25 
Q 14.984375 22.515625 14.984375 16.5 
Q 14.984375 11.71875 18.140625 8.90625 
Q 21.296875 6.109375 26.703125 6.109375 
Q 34.1875 6.109375 38.703125 11.40625 
Q 43.21875 16.703125 43.21875 25.484375 
L 43.21875 27.484375 
z
M 52.203125 31.203125 
L 52.203125 0 
L 43.21875 0 
L 43.21875 8.296875 
Q 40.140625 3.328125 35.546875 0.953125 
Q 30.953125 -1.421875 24.3125 -1.421875 
Q 15.921875 -1.421875 10.953125 3.296875 
Q 6 8.015625 6 15.921875 
Q 6 25.140625 12.171875 29.828125 
Q 18.359375 34.515625 30.609375 34.515625 
L 43.21875 34.515625 
L 43.21875 35.40625 
Q 43.21875 41.609375 39.140625 45 
Q 35.0625 48.390625 27.6875 48.390625 
Q 23 48.390625 18.546875 47.265625 
Q 14.109375 46.140625 10.015625 43.890625 
L 10.015625 52.203125 
Q 14.9375 54.109375 19.578125 55.046875 
Q 24.21875 56 28.609375 56 
Q 40.484375 56 46.34375 49.84375 
Q 52.203125 43.703125 52.203125 31.203125 
z
" id="DejaVuSans-97"/>
    <path d="M 52 44.1875 
Q 55.375 50.25 60.0625 53.125 
Q 64.75 56 71.09375 56 
Q 79.640625 56 84.28125 50.015625 
Q 88.921875 44.046875 88.921875 33.015625 
L 88.921875 0 
L 79.890625 0 
L 79.890625 32.71875 
Q 79.890625 40.578125 77.09375 44.375 
Q 74.3125 48.1875 68.609375 48.1875 
Q 61.625 48.1875 57.5625 43.546875 
Q 53.515625 38.921875 53.515625 30.90625 
L 53.515625 0 
L 44.484375 0 
L 44.484375 32.71875 
Q 44.484375 40.625 41.703125 44.40625 
Q 38.921875 48.1875 33.109375 48.1875 
Q 26.21875 48.1875 22.15625 43.53125 
Q 18.109375 38.875 18.109375 30.90625 
L 18.109375 0 
L 9.078125 0 
L 9.078125 54.6875 
L 18.109375 54.6875 
L 18.109375 46.1875 
Q 21.1875 51.21875 25.484375 53.609375 
Q 29.78125 56 35.6875 56 
Q 41.65625 56 45.828125 52.96875 
Q 50 49.953125 52 44.1875 
z
" id="DejaVuSans-109"/>
   </defs>
   <g transform="translate(176.664375 16.030125)scale(0.12 -0.12)">
    <use xlink:href="#DejaVuSans-77"/>
    <use x="86.279297" xlink:href="#DejaVuSans-111"/>
    <use x="147.460938" xlink:href="#DejaVuSans-116"/>
    <use x="186.669922" xlink:href="#DejaVuSans-105"/>
    <use x="214.453125" xlink:href="#DejaVuSans-102"/>
    <use x="249.658203" xlink:href="#DejaVuSans-32"/>
    <use x="281.445312" xlink:href="#DejaVuSans-51"/>
    <use x="345.068359" xlink:href="#DejaVuSans-32"/>
    <use x="376.855469" xlink:href="#DejaVuSans-72"/>
    <use x="452.050781" xlink:href="#DejaVuSans-105"/>
    <use x="479.833984" xlink:href="#DejaVuSans-115"/>
    <use x="531.933594" xlink:href="#DejaVuSans-116"/>
    <use x="571.142578" xlink:href="#DejaVuSans-111"/>
    <use x="632.324219" xlink:href="#DejaVuSans-103"/>
    <use x="695.800781" xlink:href="#DejaVuSans-114"/>
    <use x="736.914062" xlink:href="#DejaVuSans-97"/>
    <use x="798.193359" xlink:href="#DejaVuSans-109"/>
   </g>
  </g>
 </g>
 <defs>
  <clipPath id="p98d49c2e28">
   <rect height="66.528" width="357.12" x="57.6" y="41.472"/>
  </clipPath>
  <clipPath id="p3eaacb50a9">
   <rect height="66.528" width="357.12" x="57.6" y="141.264"/>
  </clipPath>
  <clipPath id="pe9e03ca329">
   <rect height="66.528" width="357.12" x="57.6" y="241.056"/>
  </clipPath>
 </defs>
</svg>
