<?xml version="1.0" encoding="utf-8" standalone="no"?>
<!DOCTYPE svg PUBLIC "-//W3C//DTD SVG 1.1//EN"
  "http://www.w3.org/Graphics/SVG/1.1/DTD/svg11.dtd">
<!-- Created with matplotlib (https://matplotlib.org/) -->
<svg height="345.6pt" version="1.1" viewBox="0 0 460.8 345.6" width="460.8pt" xmlns="http://www.w3.org/2000/svg" xmlns:xlink="http://www.w3.org/1999/xlink">
 <defs>
  <style type="text/css">
*{stroke-linecap:butt;stroke-linejoin:round;}
  </style>
 </defs>
 <g id="figure_1">
  <g id="patch_1">
   <path d="M 0 345.6 
L 460.8 345.6 
L 460.8 0 
L 0 0 
z
" style="fill:#ffffff;"/>
  </g>
  <g id="axes_1">
   <g id="patch_2">
    <path d="M 57.6 108 
L 414.72 108 
L 414.72 41.472 
L 57.6 41.472 
z
" style="fill:#ffffff;"/>
   </g>
   <g id="patch_3">
    <path clip-path="url(#p06463d0951)" d="M 117.867596 108 
L 122.599292 108 
L 122.599292 106.7328 
L 117.867596 106.7328 
z
" style="fill:#00008b;opacity:0.4;stroke:#000000;stroke-linejoin:miter;"/>
   </g>
   <g id="patch_4">
    <path clip-path="url(#p06463d0951)" d="M 122.599292 108 
L 127.330988 108 
L 127.330988 104.1984 
L 122.599292 104.1984 
z
" style="fill:#00008b;opacity:0.4;stroke:#000000;stroke-linejoin:miter;"/>
   </g>
   <g id="patch_5">
    <path clip-path="url(#p06463d0951)" d="M 127.330988 108 
L 132.062684 108 
L 132.062684 105.4656 
L 127.330988 105.4656 
z
" style="fill:#00008b;opacity:0.4;stroke:#000000;stroke-linejoin:miter;"/>
   </g>
   <g id="patch_6">
    <path clip-path="url(#p06463d0951)" d="M 132.062684 108 
L 136.794381 108 
L 136.794381 94.0608 
L 132.062684 94.0608 
z
" style="fill:#00008b;opacity:0.4;stroke:#000000;stroke-linejoin:miter;"/>
   </g>
   <g id="patch_7">
    <path clip-path="url(#p06463d0951)" d="M 136.794381 108 
L 141.526077 108 
L 141.526077 80.1216 
L 136.794381 80.1216 
z
" style="fill:#00008b;opacity:0.4;stroke:#000000;stroke-linejoin:miter;"/>
   </g>
   <g id="patch_8">
    <path clip-path="url(#p06463d0951)" d="M 141.526077 108 
L 146.257773 108 
L 146.257773 85.1904 
L 141.526077 85.1904 
z
" style="fill:#00008b;opacity:0.4;stroke:#000000;stroke-linejoin:miter;"/>
   </g>
   <g id="patch_9">
    <path clip-path="url(#p06463d0951)" d="M 146.257773 108 
L 150.989469 108 
L 150.989469 69.984 
L 146.257773 69.984 
z
" style="fill:#00008b;opacity:0.4;stroke:#000000;stroke-linejoin:miter;"/>
   </g>
   <g id="patch_10">
    <path clip-path="url(#p06463d0951)" d="M 150.989469 108 
L 155.721165 108 
L 155.721165 92.7936 
L 150.989469 92.7936 
z
" style="fill:#00008b;opacity:0.4;stroke:#000000;stroke-linejoin:miter;"/>
   </g>
   <g id="patch_11">
    <path clip-path="url(#p06463d0951)" d="M 155.721165 108 
L 160.452861 108 
L 160.452861 73.7856 
L 155.721165 73.7856 
z
" style="fill:#00008b;opacity:0.4;stroke:#000000;stroke-linejoin:miter;"/>
   </g>
   <g id="patch_12">
    <path clip-path="url(#p06463d0951)" d="M 160.452861 108 
L 165.184558 108 
L 165.184558 56.0448 
L 160.452861 56.0448 
z
" style="fill:#00008b;opacity:0.4;stroke:#000000;stroke-linejoin:miter;"/>
   </g>
   <g id="patch_13">
    <path clip-path="url(#p06463d0951)" d="M 165.184558 108 
L 169.916254 108 
L 169.916254 64.9152 
L 165.184558 64.9152 
z
" style="fill:#00008b;opacity:0.4;stroke:#000000;stroke-linejoin:miter;"/>
   </g>
   <g id="patch_14">
    <path clip-path="url(#p06463d0951)" d="M 169.916254 108 
L 174.64795 108 
L 174.64795 85.1904 
L 169.916254 85.1904 
z
" style="fill:#00008b;opacity:0.4;stroke:#000000;stroke-linejoin:miter;"/>
   </g>
   <g id="patch_15">
    <path clip-path="url(#p06463d0951)" d="M 174.64795 108 
L 179.379646 108 
L 179.379646 76.32 
L 174.64795 76.32 
z
" style="fill:#00008b;opacity:0.4;stroke:#000000;stroke-linejoin:miter;"/>
   </g>
   <g id="patch_16">
    <path clip-path="url(#p06463d0951)" d="M 179.379646 108 
L 184.111342 108 
L 184.111342 62.3808 
L 179.379646 62.3808 
z
" style="fill:#00008b;opacity:0.4;stroke:#000000;stroke-linejoin:miter;"/>
   </g>
   <g id="patch_17">
    <path clip-path="url(#p06463d0951)" d="M 184.111342 108 
L 188.843038 108 
L 188.843038 94.0608 
L 184.111342 94.0608 
z
" style="fill:#00008b;opacity:0.4;stroke:#000000;stroke-linejoin:miter;"/>
   </g>
   <g id="patch_18">
    <path clip-path="url(#p06463d0951)" d="M 188.843038 108 
L 193.574735 108 
L 193.574735 87.7248 
L 188.843038 87.7248 
z
" style="fill:#00008b;opacity:0.4;stroke:#000000;stroke-linejoin:miter;"/>
   </g>
   <g id="patch_19">
    <path clip-path="url(#p06463d0951)" d="M 193.574735 108 
L 198.306431 108 
L 198.306431 81.3888 
L 193.574735 81.3888 
z
" style="fill:#00008b;opacity:0.4;stroke:#000000;stroke-linejoin:miter;"/>
   </g>
   <g id="patch_20">
    <path clip-path="url(#p06463d0951)" d="M 198.306431 108 
L 203.038127 108 
L 203.038127 87.7248 
L 198.306431 87.7248 
z
" style="fill:#00008b;opacity:0.4;stroke:#000000;stroke-linejoin:miter;"/>
   </g>
   <g id="patch_21">
    <path clip-path="url(#p06463d0951)" d="M 203.038127 108 
L 207.769823 108 
L 207.769823 73.7856 
L 203.038127 73.7856 
z
" style="fill:#00008b;opacity:0.4;stroke:#000000;stroke-linejoin:miter;"/>
   </g>
   <g id="patch_22">
    <path clip-path="url(#p06463d0951)" d="M 207.769823 108 
L 212.501519 108 
L 212.501519 76.32 
L 207.769823 76.32 
z
" style="fill:#00008b;opacity:0.4;stroke:#000000;stroke-linejoin:miter;"/>
   </g>
   <g id="patch_23">
    <path clip-path="url(#p06463d0951)" d="M 212.501519 108 
L 217.233215 108 
L 217.233215 78.8544 
L 212.501519 78.8544 
z
" style="fill:#00008b;opacity:0.4;stroke:#000000;stroke-linejoin:miter;"/>
   </g>
   <g id="patch_24">
    <path clip-path="url(#p06463d0951)" d="M 217.233215 108 
L 221.964912 108 
L 221.964912 53.5104 
L 217.233215 53.5104 
z
" style="fill:#00008b;opacity:0.4;stroke:#000000;stroke-linejoin:miter;"/>
   </g>
   <g id="patch_25">
    <path clip-path="url(#p06463d0951)" d="M 221.964912 108 
L 226.696608 108 
L 226.696608 54.7776 
L 221.964912 54.7776 
z
" style="fill:#00008b;opacity:0.4;stroke:#000000;stroke-linejoin:miter;"/>
   </g>
   <g id="patch_26">
    <path clip-path="url(#p06463d0951)" d="M 226.696608 108 
L 231.428304 108 
L 231.428304 73.7856 
L 226.696608 73.7856 
z
" style="fill:#00008b;opacity:0.4;stroke:#000000;stroke-linejoin:miter;"/>
   </g>
   <g id="patch_27">
    <path clip-path="url(#p06463d0951)" d="M 231.428304 108 
L 236.16 108 
L 236.16 67.4496 
L 231.428304 67.4496 
z
" style="fill:#00008b;opacity:0.4;stroke:#000000;stroke-linejoin:miter;"/>
   </g>
   <g id="patch_28">
    <path clip-path="url(#p06463d0951)" d="M 236.16 108 
L 240.891696 108 
L 240.891696 44.64 
L 236.16 44.64 
z
" style="fill:#00008b;opacity:0.4;stroke:#000000;stroke-linejoin:miter;"/>
   </g>
   <g id="patch_29">
    <path clip-path="url(#p06463d0951)" d="M 240.891696 108 
L 245.623392 108 
L 245.623392 66.1824 
L 240.891696 66.1824 
z
" style="fill:#00008b;opacity:0.4;stroke:#000000;stroke-linejoin:miter;"/>
   </g>
   <g id="patch_30">
    <path clip-path="url(#p06463d0951)" d="M 245.623392 108 
L 250.355088 108 
L 250.355088 86.4576 
L 245.623392 86.4576 
z
" style="fill:#00008b;opacity:0.4;stroke:#000000;stroke-linejoin:miter;"/>
   </g>
   <g id="patch_31">
    <path clip-path="url(#p06463d0951)" d="M 250.355088 108 
L 255.086785 108 
L 255.086785 85.1904 
L 250.355088 85.1904 
z
" style="fill:#00008b;opacity:0.4;stroke:#000000;stroke-linejoin:miter;"/>
   </g>
   <g id="patch_32">
    <path clip-path="url(#p06463d0951)" d="M 255.086785 108 
L 259.818481 108 
L 259.818481 76.32 
L 255.086785 76.32 
z
" style="fill:#00008b;opacity:0.4;stroke:#000000;stroke-linejoin:miter;"/>
   </g>
   <g id="patch_33">
    <path clip-path="url(#p06463d0951)" d="M 259.818481 108 
L 264.550177 108 
L 264.550177 61.1136 
L 259.818481 61.1136 
z
" style="fill:#00008b;opacity:0.4;stroke:#000000;stroke-linejoin:miter;"/>
   </g>
   <g id="patch_34">
    <path clip-path="url(#p06463d0951)" d="M 264.550177 108 
L 269.281873 108 
L 269.281873 71.2512 
L 264.550177 71.2512 
z
" style="fill:#00008b;opacity:0.4;stroke:#000000;stroke-linejoin:miter;"/>
   </g>
   <g id="patch_35">
    <path clip-path="url(#p06463d0951)" d="M 269.281873 108 
L 274.013569 108 
L 274.013569 80.1216 
L 269.281873 80.1216 
z
" style="fill:#00008b;opacity:0.4;stroke:#000000;stroke-linejoin:miter;"/>
   </g>
   <g id="patch_36">
    <path clip-path="url(#p06463d0951)" d="M 274.013569 108 
L 278.745265 108 
L 278.745265 82.656 
L 274.013569 82.656 
z
" style="fill:#00008b;opacity:0.4;stroke:#000000;stroke-linejoin:miter;"/>
   </g>
   <g id="patch_37">
    <path clip-path="url(#p06463d0951)" d="M 278.745265 108 
L 283.476962 108 
L 283.476962 75.0528 
L 278.745265 75.0528 
z
" style="fill:#00008b;opacity:0.4;stroke:#000000;stroke-linejoin:miter;"/>
   </g>
   <g id="patch_38">
    <path clip-path="url(#p06463d0951)" d="M 283.476962 108 
L 288.208658 108 
L 288.208658 86.4576 
L 283.476962 86.4576 
z
" style="fill:#00008b;opacity:0.4;stroke:#000000;stroke-linejoin:miter;"/>
   </g>
   <g id="patch_39">
    <path clip-path="url(#p06463d0951)" d="M 288.208658 108 
L 292.940354 108 
L 292.940354 97.8624 
L 288.208658 97.8624 
z
" style="fill:#00008b;opacity:0.4;stroke:#000000;stroke-linejoin:miter;"/>
   </g>
   <g id="patch_40">
    <path clip-path="url(#p06463d0951)" d="M 292.940354 108 
L 297.67205 108 
L 297.67205 90.2592 
L 292.940354 90.2592 
z
" style="fill:#00008b;opacity:0.4;stroke:#000000;stroke-linejoin:miter;"/>
   </g>
   <g id="patch_41">
    <path clip-path="url(#p06463d0951)" d="M 297.67205 108 
L 302.403746 108 
L 302.403746 86.4576 
L 297.67205 86.4576 
z
" style="fill:#00008b;opacity:0.4;stroke:#000000;stroke-linejoin:miter;"/>
   </g>
   <g id="patch_42">
    <path clip-path="url(#p06463d0951)" d="M 302.403746 108 
L 307.135442 108 
L 307.135442 82.656 
L 302.403746 82.656 
z
" style="fill:#00008b;opacity:0.4;stroke:#000000;stroke-linejoin:miter;"/>
   </g>
   <g id="patch_43">
    <path clip-path="url(#p06463d0951)" d="M 307.135442 108 
L 311.867139 108 
L 311.867139 61.1136 
L 307.135442 61.1136 
z
" style="fill:#00008b;opacity:0.4;stroke:#000000;stroke-linejoin:miter;"/>
   </g>
   <g id="patch_44">
    <path clip-path="url(#p06463d0951)" d="M 311.867139 108 
L 316.598835 108 
L 316.598835 64.9152 
L 311.867139 64.9152 
z
" style="fill:#00008b;opacity:0.4;stroke:#000000;stroke-linejoin:miter;"/>
   </g>
   <g id="patch_45">
    <path clip-path="url(#p06463d0951)" d="M 316.598835 108 
L 321.330531 108 
L 321.330531 69.984 
L 316.598835 69.984 
z
" style="fill:#00008b;opacity:0.4;stroke:#000000;stroke-linejoin:miter;"/>
   </g>
   <g id="patch_46">
    <path clip-path="url(#p06463d0951)" d="M 321.330531 108 
L 326.062227 108 
L 326.062227 69.984 
L 321.330531 69.984 
z
" style="fill:#00008b;opacity:0.4;stroke:#000000;stroke-linejoin:miter;"/>
   </g>
   <g id="patch_47">
    <path clip-path="url(#p06463d0951)" d="M 326.062227 108 
L 330.793923 108 
L 330.793923 82.656 
L 326.062227 82.656 
z
" style="fill:#00008b;opacity:0.4;stroke:#000000;stroke-linejoin:miter;"/>
   </g>
   <g id="patch_48">
    <path clip-path="url(#p06463d0951)" d="M 330.793923 108 
L 335.525619 108 
L 335.525619 76.32 
L 330.793923 76.32 
z
" style="fill:#00008b;opacity:0.4;stroke:#000000;stroke-linejoin:miter;"/>
   </g>
   <g id="patch_49">
    <path clip-path="url(#p06463d0951)" d="M 335.525619 108 
L 340.257316 108 
L 340.257316 76.32 
L 335.525619 76.32 
z
" style="fill:#00008b;opacity:0.4;stroke:#000000;stroke-linejoin:miter;"/>
   </g>
   <g id="patch_50">
    <path clip-path="url(#p06463d0951)" d="M 340.257316 108 
L 344.989012 108 
L 344.989012 87.7248 
L 340.257316 87.7248 
z
" style="fill:#00008b;opacity:0.4;stroke:#000000;stroke-linejoin:miter;"/>
   </g>
   <g id="patch_51">
    <path clip-path="url(#p06463d0951)" d="M 344.989012 108 
L 349.720708 108 
L 349.720708 100.3968 
L 344.989012 100.3968 
z
" style="fill:#00008b;opacity:0.4;stroke:#000000;stroke-linejoin:miter;"/>
   </g>
   <g id="patch_52">
    <path clip-path="url(#p06463d0951)" d="M 349.720708 108 
L 354.452404 108 
L 354.452404 104.1984 
L 349.720708 104.1984 
z
" style="fill:#00008b;opacity:0.4;stroke:#000000;stroke-linejoin:miter;"/>
   </g>
   <g id="matplotlib.axis_1">
    <g id="xtick_1">
     <g id="line2d_1">
      <defs>
       <path d="M 0 0 
L 0 3.5 
" id="m3c2862583b" style="stroke:#000000;stroke-width:0.8;"/>
      </defs>
      <g>
       <use style="stroke:#000000;stroke-width:0.8;" x="96.607882" xlink:href="#m3c2862583b" y="108"/>
      </g>
     </g>
     <g id="text_1">
      <!-- −1.0 -->
      <defs>
       <path d="M 10.59375 35.5 
L 73.1875 35.5 
L 73.1875 27.203125 
L 10.59375 27.203125 
z
" id="DejaVuSans-8722"/>
       <path d="M 12.40625 8.296875 
L 28.515625 8.296875 
L 28.515625 63.921875 
L 10.984375 60.40625 
L 10.984375 69.390625 
L 28.421875 72.90625 
L 38.28125 72.90625 
L 38.28125 8.296875 
L 54.390625 8.296875 
L 54.390625 0 
L 12.40625 0 
z
" id="DejaVuSans-49"/>
       <path d="M 10.6875 12.40625 
L 21 12.40625 
L 21 0 
L 10.6875 0 
z
" id="DejaVuSans-46"/>
       <path d="M 31.78125 66.40625 
Q 24.171875 66.40625 20.328125 58.90625 
Q 16.5 51.421875 16.5 36.375 
Q 16.5 21.390625 20.328125 13.890625 
Q 24.171875 6.390625 31.78125 6.390625 
Q 39.453125 6.390625 43.28125 13.890625 
Q 47.125 21.390625 47.125 36.375 
Q 47.125 51.421875 43.28125 58.90625 
Q 39.453125 66.40625 31.78125 66.40625 
z
M 31.78125 74.21875 
Q 44.046875 74.21875 50.515625 64.515625 
Q 56.984375 54.828125 56.984375 36.375 
Q 56.984375 17.96875 50.515625 8.265625 
Q 44.046875 -1.421875 31.78125 -1.421875 
Q 19.53125 -1.421875 13.0625 8.265625 
Q 6.59375 17.96875 6.59375 36.375 
Q 6.59375 54.828125 13.0625 64.515625 
Q 19.53125 74.21875 31.78125 74.21875 
z
" id="DejaVuSans-48"/>
      </defs>
      <g transform="translate(84.466476 122.598437)scale(0.1 -0.1)">
       <use xlink:href="#DejaVuSans-8722"/>
       <use x="83.789062" xlink:href="#DejaVuSans-49"/>
       <use x="147.412109" xlink:href="#DejaVuSans-46"/>
       <use x="179.199219" xlink:href="#DejaVuSans-48"/>
      </g>
     </g>
    </g>
    <g id="xtick_2">
     <g id="line2d_2">
      <g>
       <use style="stroke:#000000;stroke-width:0.8;" x="168.078609" xlink:href="#m3c2862583b" y="108"/>
      </g>
     </g>
     <g id="text_2">
      <!-- −0.5 -->
      <defs>
       <path d="M 10.796875 72.90625 
L 49.515625 72.90625 
L 49.515625 64.59375 
L 19.828125 64.59375 
L 19.828125 46.734375 
Q 21.96875 47.46875 24.109375 47.828125 
Q 26.265625 48.1875 28.421875 48.1875 
Q 40.625 48.1875 47.75 41.5 
Q 54.890625 34.8125 54.890625 23.390625 
Q 54.890625 11.625 47.5625 5.09375 
Q 40.234375 -1.421875 26.90625 -1.421875 
Q 22.3125 -1.421875 17.546875 -0.640625 
Q 12.796875 0.140625 7.71875 1.703125 
L 7.71875 11.625 
Q 12.109375 9.234375 16.796875 8.0625 
Q 21.484375 6.890625 26.703125 6.890625 
Q 35.15625 6.890625 40.078125 11.328125 
Q 45.015625 15.765625 45.015625 23.390625 
Q 45.015625 31 40.078125 35.4375 
Q 35.15625 39.890625 26.703125 39.890625 
Q 22.75 39.890625 18.8125 39.015625 
Q 14.890625 38.140625 10.796875 36.28125 
z
" id="DejaVuSans-53"/>
      </defs>
      <g transform="translate(155.937203 122.598437)scale(0.1 -0.1)">
       <use xlink:href="#DejaVuSans-8722"/>
       <use x="83.789062" xlink:href="#DejaVuSans-48"/>
       <use x="147.412109" xlink:href="#DejaVuSans-46"/>
       <use x="179.199219" xlink:href="#DejaVuSans-53"/>
      </g>
     </g>
    </g>
    <g id="xtick_3">
     <g id="line2d_3">
      <g>
       <use style="stroke:#000000;stroke-width:0.8;" x="239.549337" xlink:href="#m3c2862583b" y="108"/>
      </g>
     </g>
     <g id="text_3">
      <!-- 0.0 -->
      <g transform="translate(231.597774 122.598437)scale(0.1 -0.1)">
       <use xlink:href="#DejaVuSans-48"/>
       <use x="63.623047" xlink:href="#DejaVuSans-46"/>
       <use x="95.410156" xlink:href="#DejaVuSans-48"/>
      </g>
     </g>
    </g>
    <g id="xtick_4">
     <g id="line2d_4">
      <g>
       <use style="stroke:#000000;stroke-width:0.8;" x="311.020064" xlink:href="#m3c2862583b" y="108"/>
      </g>
     </g>
     <g id="text_4">
      <!-- 0.5 -->
      <g transform="translate(303.068502 122.598437)scale(0.1 -0.1)">
       <use xlink:href="#DejaVuSans-48"/>
       <use x="63.623047" xlink:href="#DejaVuSans-46"/>
       <use x="95.410156" xlink:href="#DejaVuSans-53"/>
      </g>
     </g>
    </g>
    <g id="xtick_5">
     <g id="line2d_5">
      <g>
       <use style="stroke:#000000;stroke-width:0.8;" x="382.490792" xlink:href="#m3c2862583b" y="108"/>
      </g>
     </g>
     <g id="text_5">
      <!-- 1.0 -->
      <g transform="translate(374.539229 122.598437)scale(0.1 -0.1)">
       <use xlink:href="#DejaVuSans-49"/>
       <use x="63.623047" xlink:href="#DejaVuSans-46"/>
       <use x="95.410156" xlink:href="#DejaVuSans-48"/>
      </g>
     </g>
    </g>
   </g>
   <g id="matplotlib.axis_2">
    <g id="ytick_1">
     <g id="line2d_6">
      <defs>
       <path d="M 0 0 
L -3.5 0 
" id="mf225f69f10" style="stroke:#000000;stroke-width:0.8;"/>
      </defs>
      <g>
       <use style="stroke:#000000;stroke-width:0.8;" x="57.6" xlink:href="#mf225f69f10" y="108"/>
      </g>
     </g>
     <g id="text_6">
      <!-- 0.0 -->
      <g transform="translate(34.696875 111.799219)scale(0.1 -0.1)">
       <use xlink:href="#DejaVuSans-48"/>
       <use x="63.623047" xlink:href="#DejaVuSans-46"/>
       <use x="95.410156" xlink:href="#DejaVuSans-48"/>
      </g>
     </g>
    </g>
    <g id="ytick_2">
     <g id="line2d_7">
      <g>
       <use style="stroke:#000000;stroke-width:0.8;" x="57.6" xlink:href="#mf225f69f10" y="84.048103"/>
      </g>
     </g>
     <g id="text_7">
      <!-- 0.5 -->
      <g transform="translate(34.696875 87.847321)scale(0.1 -0.1)">
       <use xlink:href="#DejaVuSans-48"/>
       <use x="63.623047" xlink:href="#DejaVuSans-46"/>
       <use x="95.410156" xlink:href="#DejaVuSans-53"/>
      </g>
     </g>
    </g>
    <g id="ytick_3">
     <g id="line2d_8">
      <g>
       <use style="stroke:#000000;stroke-width:0.8;" x="57.6" xlink:href="#mf225f69f10" y="60.096205"/>
      </g>
     </g>
     <g id="text_8">
      <!-- 1.0 -->
      <g transform="translate(34.696875 63.895424)scale(0.1 -0.1)">
       <use xlink:href="#DejaVuSans-49"/>
       <use x="63.623047" xlink:href="#DejaVuSans-46"/>
       <use x="95.410156" xlink:href="#DejaVuSans-48"/>
      </g>
     </g>
    </g>
    <g id="text_9">
     <!-- Density -->
     <defs>
      <path d="M 19.671875 64.796875 
L 19.671875 8.109375 
L 31.59375 8.109375 
Q 46.6875 8.109375 53.6875 14.9375 
Q 60.6875 21.78125 60.6875 36.53125 
Q 60.6875 51.171875 53.6875 57.984375 
Q 46.6875 64.796875 31.59375 64.796875 
z
M 9.8125 72.90625 
L 30.078125 72.90625 
Q 51.265625 72.90625 61.171875 64.09375 
Q 71.09375 55.28125 71.09375 36.53125 
Q 71.09375 17.671875 61.125 8.828125 
Q 51.171875 0 30.078125 0 
L 9.8125 0 
z
" id="DejaVuSans-68"/>
      <path d="M 56.203125 29.59375 
L 56.203125 25.203125 
L 14.890625 25.203125 
Q 15.484375 15.921875 20.484375 11.0625 
Q 25.484375 6.203125 34.421875 6.203125 
Q 39.59375 6.203125 44.453125 7.46875 
Q 49.3125 8.734375 54.109375 11.28125 
L 54.109375 2.78125 
Q 49.265625 0.734375 44.1875 -0.34375 
Q 39.109375 -1.421875 33.890625 -1.421875 
Q 20.796875 -1.421875 13.15625 6.1875 
Q 5.515625 13.8125 5.515625 26.8125 
Q 5.515625 40.234375 12.765625 48.109375 
Q 20.015625 56 32.328125 56 
Q 43.359375 56 49.78125 48.890625 
Q 56.203125 41.796875 56.203125 29.59375 
z
M 47.21875 32.234375 
Q 47.125 39.59375 43.09375 43.984375 
Q 39.0625 48.390625 32.421875 48.390625 
Q 24.90625 48.390625 20.390625 44.140625 
Q 15.875 39.890625 15.1875 32.171875 
z
" id="DejaVuSans-101"/>
      <path d="M 54.890625 33.015625 
L 54.890625 0 
L 45.90625 0 
L 45.90625 32.71875 
Q 45.90625 40.484375 42.875 44.328125 
Q 39.84375 48.1875 33.796875 48.1875 
Q 26.515625 48.1875 22.3125 43.546875 
Q 18.109375 38.921875 18.109375 30.90625 
L 18.109375 0 
L 9.078125 0 
L 9.078125 54.6875 
L 18.109375 54.6875 
L 18.109375 46.1875 
Q 21.34375 51.125 25.703125 53.5625 
Q 30.078125 56 35.796875 56 
Q 45.21875 56 50.046875 50.171875 
Q 54.890625 44.34375 54.890625 33.015625 
z
" id="DejaVuSans-110"/>
      <path d="M 44.28125 53.078125 
L 44.28125 44.578125 
Q 40.484375 46.53125 36.375 47.5 
Q 32.28125 48.484375 27.875 48.484375 
Q 21.1875 48.484375 17.84375 46.4375 
Q 14.5 44.390625 14.5 40.28125 
Q 14.5 37.15625 16.890625 35.375 
Q 19.28125 33.59375 26.515625 31.984375 
L 29.59375 31.296875 
Q 39.15625 29.25 43.1875 25.515625 
Q 47.21875 21.78125 47.21875 15.09375 
Q 47.21875 7.46875 41.1875 3.015625 
Q 35.15625 -1.421875 24.609375 -1.421875 
Q 20.21875 -1.421875 15.453125 -0.5625 
Q 10.6875 0.296875 5.421875 2 
L 5.421875 11.28125 
Q 10.40625 8.6875 15.234375 7.390625 
Q 20.0625 6.109375 24.8125 6.109375 
Q 31.15625 6.109375 34.5625 8.28125 
Q 37.984375 10.453125 37.984375 14.40625 
Q 37.984375 18.0625 35.515625 20.015625 
Q 33.0625 21.96875 24.703125 23.78125 
L 21.578125 24.515625 
Q 13.234375 26.265625 9.515625 29.90625 
Q 5.8125 33.546875 5.8125 39.890625 
Q 5.8125 47.609375 11.28125 51.796875 
Q 16.75 56 26.8125 56 
Q 31.78125 56 36.171875 55.265625 
Q 40.578125 54.546875 44.28125 53.078125 
z
" id="DejaVuSans-115"/>
      <path d="M 9.421875 54.6875 
L 18.40625 54.6875 
L 18.40625 0 
L 9.421875 0 
z
M 9.421875 75.984375 
L 18.40625 75.984375 
L 18.40625 64.59375 
L 9.421875 64.59375 
z
" id="DejaVuSans-105"/>
      <path d="M 18.3125 70.21875 
L 18.3125 54.6875 
L 36.8125 54.6875 
L 36.8125 47.703125 
L 18.3125 47.703125 
L 18.3125 18.015625 
Q 18.3125 11.328125 20.140625 9.421875 
Q 21.96875 7.515625 27.59375 7.515625 
L 36.8125 7.515625 
L 36.8125 0 
L 27.59375 0 
Q 17.1875 0 13.234375 3.875 
Q 9.28125 7.765625 9.28125 18.015625 
L 9.28125 47.703125 
L 2.6875 47.703125 
L 2.6875 54.6875 
L 9.28125 54.6875 
L 9.28125 70.21875 
z
" id="DejaVuSans-116"/>
      <path d="M 32.171875 -5.078125 
Q 28.375 -14.84375 24.75 -17.8125 
Q 21.140625 -20.796875 15.09375 -20.796875 
L 7.90625 -20.796875 
L 7.90625 -13.28125 
L 13.1875 -13.28125 
Q 16.890625 -13.28125 18.9375 -11.515625 
Q 21 -9.765625 23.484375 -3.21875 
L 25.09375 0.875 
L 2.984375 54.6875 
L 12.5 54.6875 
L 29.59375 11.921875 
L 46.6875 54.6875 
L 56.203125 54.6875 
z
" id="DejaVuSans-121"/>
     </defs>
     <g transform="translate(28.617187 93.744594)rotate(-90)scale(0.1 -0.1)">
      <use xlink:href="#DejaVuSans-68"/>
      <use x="77.001953" xlink:href="#DejaVuSans-101"/>
      <use x="138.525391" xlink:href="#DejaVuSans-110"/>
      <use x="201.904297" xlink:href="#DejaVuSans-115"/>
      <use x="254.003906" xlink:href="#DejaVuSans-105"/>
      <use x="281.787109" xlink:href="#DejaVuSans-116"/>
      <use x="320.996094" xlink:href="#DejaVuSans-121"/>
     </g>
    </g>
   </g>
   <g id="line2d_9">
    <path clip-path="url(#p06463d0951)" d="M 73.832727 107.996265 
L 77.112066 107.992238 
L 80.391405 107.984466 
L 83.670744 107.97002 
L 86.950083 107.944117 
L 90.229421 107.899247 
L 93.50876 107.824076 
L 96.788099 107.702188 
L 100.067438 107.510843 
L 103.346777 107.220074 
L 106.626116 106.792619 
L 109.905455 106.18526 
L 113.184793 105.352092 
L 116.464132 104.249899 
L 119.743471 102.845213 
L 123.02281 101.121904 
L 126.302149 99.087533 
L 129.581488 96.776595 
L 132.860826 94.249371 
L 136.140165 91.586338 
L 139.419504 88.879535 
L 142.698843 86.223274 
L 145.978182 83.706659 
L 149.257521 81.4093 
L 152.53686 79.399991 
L 155.816198 77.736619 
L 159.095537 76.465079 
L 162.374876 75.615724 
L 165.654215 75.197424 
L 168.933554 75.190969 
L 172.212893 75.544424 
L 175.492231 76.172803 
L 178.77157 76.963294 
L 182.050909 77.785682 
L 185.330248 78.506288 
L 188.609587 79.002977 
L 191.888926 79.178729 
L 195.168264 78.971798 
L 198.447603 78.36137 
L 201.726942 77.368494 
L 205.006281 76.052774 
L 208.28562 74.505706 
L 211.564959 72.841582 
L 214.844298 71.186865 
L 218.123636 69.668769 
L 221.402975 68.403721 
L 224.682314 67.486344 
L 227.961653 66.979709 
L 231.240992 66.907891 
L 234.520331 67.25226 
L 237.799669 67.953188 
L 241.079008 68.918476 
L 244.358347 70.038444 
L 247.637686 71.205524 
L 250.917025 72.334054 
L 254.196364 73.37494 
L 257.475702 74.320749 
L 260.755041 75.199511 
L 264.03438 76.059022 
L 267.313719 76.946357 
L 270.593058 77.888441 
L 273.872397 78.878702 
L 277.151736 79.872736 
L 280.431074 80.793437 
L 283.710413 81.544173 
L 286.989752 82.027307 
L 290.269091 82.164699 
L 293.54843 81.916399 
L 296.827769 81.293712 
L 300.107107 80.363513 
L 303.386446 79.242278 
L 306.665785 78.080708 
L 309.945124 77.042316 
L 313.224463 76.280949 
L 316.503802 75.922224 
L 319.78314 76.052214 
L 323.062479 76.714052 
L 326.341818 77.910631 
L 329.621157 79.610287 
L 332.900496 81.752676 
L 336.179835 84.253582 
L 339.459174 87.009183 
L 342.738512 89.901353 
L 346.017851 92.805363 
L 349.29719 95.600147 
L 352.576529 98.179725 
L 355.855868 100.463392 
L 359.135207 102.402257 
L 362.414545 103.980708 
L 365.693884 105.21279 
L 368.973223 106.134847 
L 372.252562 106.796433 
L 375.531901 107.251564 
L 378.81124 107.551764 
L 382.090579 107.74161 
L 385.369917 107.856711 
L 388.649256 107.923605 
L 391.928595 107.960863 
L 395.207934 107.980746 
L 398.487273 107.990909 
" style="fill:none;stroke:#00008b;stroke-linecap:square;stroke-width:4;"/>
   </g>
   <g id="patch_53">
    <path d="M 57.6 108 
L 57.6 41.472 
" style="fill:none;stroke:#000000;stroke-linecap:square;stroke-linejoin:miter;stroke-width:0.8;"/>
   </g>
   <g id="patch_54">
    <path d="M 414.72 108 
L 414.72 41.472 
" style="fill:none;stroke:#000000;stroke-linecap:square;stroke-linejoin:miter;stroke-width:0.8;"/>
   </g>
   <g id="patch_55">
    <path d="M 57.6 108 
L 414.72 108 
" style="fill:none;stroke:#000000;stroke-linecap:square;stroke-linejoin:miter;stroke-width:0.8;"/>
   </g>
   <g id="patch_56">
    <path d="M 57.6 41.472 
L 414.72 41.472 
" style="fill:none;stroke:#000000;stroke-linecap:square;stroke-linejoin:miter;stroke-width:0.8;"/>
   </g>
   <g id="legend_1">
    <g id="patch_57">
     <path d="M 369.80125 64.150125 
L 407.72 64.150125 
Q 409.72 64.150125 409.72 62.150125 
L 409.72 48.472 
Q 409.72 46.472 407.72 46.472 
L 369.80125 46.472 
Q 367.80125 46.472 367.80125 48.472 
L 367.80125 62.150125 
Q 367.80125 64.150125 369.80125 64.150125 
z
" style="fill:#ffffff;opacity:0.8;stroke:#cccccc;stroke-linejoin:miter;"/>
    </g>
    <g id="patch_58">
     <path d="M 371.80125 58.070438 
L 391.80125 58.070438 
L 391.80125 51.070438 
L 371.80125 51.070438 
z
" style="fill:#00008b;opacity:0.4;stroke:#000000;stroke-linejoin:miter;"/>
    </g>
    <g id="text_10">
     <!-- x -->
     <defs>
      <path d="M 54.890625 54.6875 
L 35.109375 28.078125 
L 55.90625 0 
L 45.3125 0 
L 29.390625 21.484375 
L 13.484375 0 
L 2.875 0 
L 24.125 28.609375 
L 4.6875 54.6875 
L 15.28125 54.6875 
L 29.78125 35.203125 
L 44.28125 54.6875 
z
" id="DejaVuSans-120"/>
     </defs>
     <g transform="translate(399.80125 58.070438)scale(0.1 -0.1)">
      <use xlink:href="#DejaVuSans-120"/>
     </g>
    </g>
   </g>
  </g>
  <g id="axes_2">
   <g id="patch_59">
    <path d="M 57.6 207.792 
L 414.72 207.792 
L 414.72 141.264 
L 57.6 141.264 
z
" style="fill:#ffffff;"/>
   </g>
   <g id="patch_60">
    <path clip-path="url(#pd0e1e36068)" d="M 116.516211 207.792 
L 121.301963 207.792 
L 121.301963 204.845023 
L 116.516211 204.845023 
z
" style="fill:#006400;opacity:0.4;stroke:#000000;stroke-linejoin:miter;"/>
   </g>
   <g id="patch_61">
    <path clip-path="url(#pd0e1e36068)" d="M 121.301963 207.792 
L 126.087714 207.792 
L 126.087714 200.424558 
L 121.301963 200.424558 
z
" style="fill:#006400;opacity:0.4;stroke:#000000;stroke-linejoin:miter;"/>
   </g>
   <g id="patch_62">
    <path clip-path="url(#pd0e1e36068)" d="M 126.087714 207.792 
L 130.873466 207.792 
L 130.873466 207.792 
L 126.087714 207.792 
z
" style="fill:#006400;opacity:0.4;stroke:#000000;stroke-linejoin:miter;"/>
   </g>
   <g id="patch_63">
    <path clip-path="url(#pd0e1e36068)" d="M 130.873466 207.792 
L 135.659217 207.792 
L 135.659217 206.318512 
L 130.873466 206.318512 
z
" style="fill:#006400;opacity:0.4;stroke:#000000;stroke-linejoin:miter;"/>
   </g>
   <g id="patch_64">
    <path clip-path="url(#pd0e1e36068)" d="M 135.659217 207.792 
L 140.444969 207.792 
L 140.444969 193.057116 
L 135.659217 193.057116 
z
" style="fill:#006400;opacity:0.4;stroke:#000000;stroke-linejoin:miter;"/>
   </g>
   <g id="patch_65">
    <path clip-path="url(#pd0e1e36068)" d="M 140.444969 207.792 
L 145.230721 207.792 
L 145.230721 182.742698 
L 140.444969 182.742698 
z
" style="fill:#006400;opacity:0.4;stroke:#000000;stroke-linejoin:miter;"/>
   </g>
   <g id="patch_66">
    <path clip-path="url(#pd0e1e36068)" d="M 145.230721 207.792 
L 150.016472 207.792 
L 150.016472 170.954791 
L 145.230721 170.954791 
z
" style="fill:#006400;opacity:0.4;stroke:#000000;stroke-linejoin:miter;"/>
   </g>
   <g id="patch_67">
    <path clip-path="url(#pd0e1e36068)" d="M 150.016472 207.792 
L 154.802224 207.792 
L 154.802224 166.534326 
L 150.016472 166.534326 
z
" style="fill:#006400;opacity:0.4;stroke:#000000;stroke-linejoin:miter;"/>
   </g>
   <g id="patch_68">
    <path clip-path="url(#pd0e1e36068)" d="M 154.802224 207.792 
L 159.587975 207.792 
L 159.587975 168.007814 
L 154.802224 168.007814 
z
" style="fill:#006400;opacity:0.4;stroke:#000000;stroke-linejoin:miter;"/>
   </g>
   <g id="patch_69">
    <path clip-path="url(#pd0e1e36068)" d="M 159.587975 207.792 
L 164.373727 207.792 
L 164.373727 162.11386 
L 159.587975 162.11386 
z
" style="fill:#006400;opacity:0.4;stroke:#000000;stroke-linejoin:miter;"/>
   </g>
   <g id="patch_70">
    <path clip-path="url(#pd0e1e36068)" d="M 164.373727 207.792 
L 169.159478 207.792 
L 169.159478 160.640372 
L 164.373727 160.640372 
z
" style="fill:#006400;opacity:0.4;stroke:#000000;stroke-linejoin:miter;"/>
   </g>
   <g id="patch_71">
    <path clip-path="url(#pd0e1e36068)" d="M 169.159478 207.792 
L 173.94523 207.792 
L 173.94523 175.375256 
L 169.159478 175.375256 
z
" style="fill:#006400;opacity:0.4;stroke:#000000;stroke-linejoin:miter;"/>
   </g>
   <g id="patch_72">
    <path clip-path="url(#pd0e1e36068)" d="M 173.94523 207.792 
L 178.730981 207.792 
L 178.730981 160.640372 
L 173.94523 160.640372 
z
" style="fill:#006400;opacity:0.4;stroke:#000000;stroke-linejoin:miter;"/>
   </g>
   <g id="patch_73">
    <path clip-path="url(#pd0e1e36068)" d="M 178.730981 207.792 
L 183.516733 207.792 
L 183.516733 173.901767 
L 178.730981 173.901767 
z
" style="fill:#006400;opacity:0.4;stroke:#000000;stroke-linejoin:miter;"/>
   </g>
   <g id="patch_74">
    <path clip-path="url(#pd0e1e36068)" d="M 183.516733 207.792 
L 188.302484 207.792 
L 188.302484 166.534326 
L 183.516733 166.534326 
z
" style="fill:#006400;opacity:0.4;stroke:#000000;stroke-linejoin:miter;"/>
   </g>
   <g id="patch_75">
    <path clip-path="url(#pd0e1e36068)" d="M 188.302484 207.792 
L 193.088236 207.792 
L 193.088236 169.481302 
L 188.302484 169.481302 
z
" style="fill:#006400;opacity:0.4;stroke:#000000;stroke-linejoin:miter;"/>
   </g>
   <g id="patch_76">
    <path clip-path="url(#pd0e1e36068)" d="M 193.088236 207.792 
L 197.873988 207.792 
L 197.873988 173.901767 
L 193.088236 173.901767 
z
" style="fill:#006400;opacity:0.4;stroke:#000000;stroke-linejoin:miter;"/>
   </g>
   <g id="patch_77">
    <path clip-path="url(#pd0e1e36068)" d="M 197.873988 207.792 
L 202.659739 207.792 
L 202.659739 170.954791 
L 197.873988 170.954791 
z
" style="fill:#006400;opacity:0.4;stroke:#000000;stroke-linejoin:miter;"/>
   </g>
   <g id="patch_78">
    <path clip-path="url(#pd0e1e36068)" d="M 202.659739 207.792 
L 207.445491 207.792 
L 207.445491 181.269209 
L 202.659739 181.269209 
z
" style="fill:#006400;opacity:0.4;stroke:#000000;stroke-linejoin:miter;"/>
   </g>
   <g id="patch_79">
    <path clip-path="url(#pd0e1e36068)" d="M 207.445491 207.792 
L 212.231242 207.792 
L 212.231242 170.954791 
L 207.445491 170.954791 
z
" style="fill:#006400;opacity:0.4;stroke:#000000;stroke-linejoin:miter;"/>
   </g>
   <g id="patch_80">
    <path clip-path="url(#pd0e1e36068)" d="M 212.231242 207.792 
L 217.016994 207.792 
L 217.016994 181.269209 
L 212.231242 181.269209 
z
" style="fill:#006400;opacity:0.4;stroke:#000000;stroke-linejoin:miter;"/>
   </g>
   <g id="patch_81">
    <path clip-path="url(#pd0e1e36068)" d="M 217.016994 207.792 
L 221.802745 207.792 
L 221.802745 175.375256 
L 217.016994 175.375256 
z
" style="fill:#006400;opacity:0.4;stroke:#000000;stroke-linejoin:miter;"/>
   </g>
   <g id="patch_82">
    <path clip-path="url(#pd0e1e36068)" d="M 221.802745 207.792 
L 226.588497 207.792 
L 226.588497 153.27293 
L 221.802745 153.27293 
z
" style="fill:#006400;opacity:0.4;stroke:#000000;stroke-linejoin:miter;"/>
   </g>
   <g id="patch_83">
    <path clip-path="url(#pd0e1e36068)" d="M 226.588497 207.792 
L 231.374248 207.792 
L 231.374248 175.375256 
L 226.588497 175.375256 
z
" style="fill:#006400;opacity:0.4;stroke:#000000;stroke-linejoin:miter;"/>
   </g>
   <g id="patch_84">
    <path clip-path="url(#pd0e1e36068)" d="M 231.374248 207.792 
L 236.16 207.792 
L 236.16 148.852465 
L 231.374248 148.852465 
z
" style="fill:#006400;opacity:0.4;stroke:#000000;stroke-linejoin:miter;"/>
   </g>
   <g id="patch_85">
    <path clip-path="url(#pd0e1e36068)" d="M 236.16 207.792 
L 240.945752 207.792 
L 240.945752 159.166884 
L 236.16 159.166884 
z
" style="fill:#006400;opacity:0.4;stroke:#000000;stroke-linejoin:miter;"/>
   </g>
   <g id="patch_86">
    <path clip-path="url(#pd0e1e36068)" d="M 240.945752 207.792 
L 245.731503 207.792 
L 245.731503 162.11386 
L 240.945752 162.11386 
z
" style="fill:#006400;opacity:0.4;stroke:#000000;stroke-linejoin:miter;"/>
   </g>
   <g id="patch_87">
    <path clip-path="url(#pd0e1e36068)" d="M 245.731503 207.792 
L 250.517255 207.792 
L 250.517255 144.432 
L 245.731503 144.432 
z
" style="fill:#006400;opacity:0.4;stroke:#000000;stroke-linejoin:miter;"/>
   </g>
   <g id="patch_88">
    <path clip-path="url(#pd0e1e36068)" d="M 250.517255 207.792 
L 255.303006 207.792 
L 255.303006 162.11386 
L 250.517255 162.11386 
z
" style="fill:#006400;opacity:0.4;stroke:#000000;stroke-linejoin:miter;"/>
   </g>
   <g id="patch_89">
    <path clip-path="url(#pd0e1e36068)" d="M 255.303006 207.792 
L 260.088758 207.792 
L 260.088758 154.746419 
L 255.303006 154.746419 
z
" style="fill:#006400;opacity:0.4;stroke:#000000;stroke-linejoin:miter;"/>
   </g>
   <g id="patch_90">
    <path clip-path="url(#pd0e1e36068)" d="M 260.088758 207.792 
L 264.874509 207.792 
L 264.874509 168.007814 
L 260.088758 168.007814 
z
" style="fill:#006400;opacity:0.4;stroke:#000000;stroke-linejoin:miter;"/>
   </g>
   <g id="patch_91">
    <path clip-path="url(#pd0e1e36068)" d="M 264.874509 207.792 
L 269.660261 207.792 
L 269.660261 166.534326 
L 264.874509 166.534326 
z
" style="fill:#006400;opacity:0.4;stroke:#000000;stroke-linejoin:miter;"/>
   </g>
   <g id="patch_92">
    <path clip-path="url(#pd0e1e36068)" d="M 269.660261 207.792 
L 274.446012 207.792 
L 274.446012 176.848744 
L 269.660261 176.848744 
z
" style="fill:#006400;opacity:0.4;stroke:#000000;stroke-linejoin:miter;"/>
   </g>
   <g id="patch_93">
    <path clip-path="url(#pd0e1e36068)" d="M 274.446012 207.792 
L 279.231764 207.792 
L 279.231764 160.640372 
L 274.446012 160.640372 
z
" style="fill:#006400;opacity:0.4;stroke:#000000;stroke-linejoin:miter;"/>
   </g>
   <g id="patch_94">
    <path clip-path="url(#pd0e1e36068)" d="M 279.231764 207.792 
L 284.017516 207.792 
L 284.017516 188.636651 
L 279.231764 188.636651 
z
" style="fill:#006400;opacity:0.4;stroke:#000000;stroke-linejoin:miter;"/>
   </g>
   <g id="patch_95">
    <path clip-path="url(#pd0e1e36068)" d="M 284.017516 207.792 
L 288.803267 207.792 
L 288.803267 168.007814 
L 284.017516 168.007814 
z
" style="fill:#006400;opacity:0.4;stroke:#000000;stroke-linejoin:miter;"/>
   </g>
   <g id="patch_96">
    <path clip-path="url(#pd0e1e36068)" d="M 288.803267 207.792 
L 293.589019 207.792 
L 293.589019 165.060837 
L 288.803267 165.060837 
z
" style="fill:#006400;opacity:0.4;stroke:#000000;stroke-linejoin:miter;"/>
   </g>
   <g id="patch_97">
    <path clip-path="url(#pd0e1e36068)" d="M 293.589019 207.792 
L 298.37477 207.792 
L 298.37477 178.322233 
L 293.589019 178.322233 
z
" style="fill:#006400;opacity:0.4;stroke:#000000;stroke-linejoin:miter;"/>
   </g>
   <g id="patch_98">
    <path clip-path="url(#pd0e1e36068)" d="M 298.37477 207.792 
L 303.160522 207.792 
L 303.160522 165.060837 
L 298.37477 165.060837 
z
" style="fill:#006400;opacity:0.4;stroke:#000000;stroke-linejoin:miter;"/>
   </g>
   <g id="patch_99">
    <path clip-path="url(#pd0e1e36068)" d="M 303.160522 207.792 
L 307.946273 207.792 
L 307.946273 187.163163 
L 303.160522 187.163163 
z
" style="fill:#006400;opacity:0.4;stroke:#000000;stroke-linejoin:miter;"/>
   </g>
   <g id="patch_100">
    <path clip-path="url(#pd0e1e36068)" d="M 307.946273 207.792 
L 312.732025 207.792 
L 312.732025 168.007814 
L 307.946273 168.007814 
z
" style="fill:#006400;opacity:0.4;stroke:#000000;stroke-linejoin:miter;"/>
   </g>
   <g id="patch_101">
    <path clip-path="url(#pd0e1e36068)" d="M 312.732025 207.792 
L 317.517776 207.792 
L 317.517776 154.746419 
L 312.732025 154.746419 
z
" style="fill:#006400;opacity:0.4;stroke:#000000;stroke-linejoin:miter;"/>
   </g>
   <g id="patch_102">
    <path clip-path="url(#pd0e1e36068)" d="M 317.517776 207.792 
L 322.303528 207.792 
L 322.303528 175.375256 
L 317.517776 175.375256 
z
" style="fill:#006400;opacity:0.4;stroke:#000000;stroke-linejoin:miter;"/>
   </g>
   <g id="patch_103">
    <path clip-path="url(#pd0e1e36068)" d="M 322.303528 207.792 
L 327.089279 207.792 
L 327.089279 166.534326 
L 322.303528 166.534326 
z
" style="fill:#006400;opacity:0.4;stroke:#000000;stroke-linejoin:miter;"/>
   </g>
   <g id="patch_104">
    <path clip-path="url(#pd0e1e36068)" d="M 327.089279 207.792 
L 331.875031 207.792 
L 331.875031 179.795721 
L 327.089279 179.795721 
z
" style="fill:#006400;opacity:0.4;stroke:#000000;stroke-linejoin:miter;"/>
   </g>
   <g id="patch_105">
    <path clip-path="url(#pd0e1e36068)" d="M 331.875031 207.792 
L 336.660783 207.792 
L 336.660783 165.060837 
L 331.875031 165.060837 
z
" style="fill:#006400;opacity:0.4;stroke:#000000;stroke-linejoin:miter;"/>
   </g>
   <g id="patch_106">
    <path clip-path="url(#pd0e1e36068)" d="M 336.660783 207.792 
L 341.446534 207.792 
L 341.446534 191.583628 
L 336.660783 191.583628 
z
" style="fill:#006400;opacity:0.4;stroke:#000000;stroke-linejoin:miter;"/>
   </g>
   <g id="patch_107">
    <path clip-path="url(#pd0e1e36068)" d="M 341.446534 207.792 
L 346.232286 207.792 
L 346.232286 200.424558 
L 341.446534 200.424558 
z
" style="fill:#006400;opacity:0.4;stroke:#000000;stroke-linejoin:miter;"/>
   </g>
   <g id="patch_108">
    <path clip-path="url(#pd0e1e36068)" d="M 346.232286 207.792 
L 351.018037 207.792 
L 351.018037 200.424558 
L 346.232286 200.424558 
z
" style="fill:#006400;opacity:0.4;stroke:#000000;stroke-linejoin:miter;"/>
   </g>
   <g id="patch_109">
    <path clip-path="url(#pd0e1e36068)" d="M 351.018037 207.792 
L 355.803789 207.792 
L 355.803789 197.477581 
L 351.018037 197.477581 
z
" style="fill:#006400;opacity:0.4;stroke:#000000;stroke-linejoin:miter;"/>
   </g>
   <g id="matplotlib.axis_3">
    <g id="xtick_6">
     <g id="line2d_10">
      <g>
       <use style="stroke:#000000;stroke-width:0.8;" x="102.270593" xlink:href="#m3c2862583b" y="207.792"/>
      </g>
     </g>
     <g id="text_11">
      <!-- −1.0 -->
      <g transform="translate(90.129187 222.390437)scale(0.1 -0.1)">
       <use xlink:href="#DejaVuSans-8722"/>
       <use x="83.789062" xlink:href="#DejaVuSans-49"/>
       <use x="147.412109" xlink:href="#DejaVuSans-46"/>
       <use x="179.199219" xlink:href="#DejaVuSans-48"/>
      </g>
     </g>
    </g>
    <g id="xtick_7">
     <g id="line2d_11">
      <g>
       <use style="stroke:#000000;stroke-width:0.8;" x="170.857158" xlink:href="#m3c2862583b" y="207.792"/>
      </g>
     </g>
     <g id="text_12">
      <!-- −0.5 -->
      <g transform="translate(158.715752 222.390437)scale(0.1 -0.1)">
       <use xlink:href="#DejaVuSans-8722"/>
       <use x="83.789062" xlink:href="#DejaVuSans-48"/>
       <use x="147.412109" xlink:href="#DejaVuSans-46"/>
       <use x="179.199219" xlink:href="#DejaVuSans-53"/>
      </g>
     </g>
    </g>
    <g id="xtick_8">
     <g id="line2d_12">
      <g>
       <use style="stroke:#000000;stroke-width:0.8;" x="239.443723" xlink:href="#m3c2862583b" y="207.792"/>
      </g>
     </g>
     <g id="text_13">
      <!-- 0.0 -->
      <g transform="translate(231.49216 222.390437)scale(0.1 -0.1)">
       <use xlink:href="#DejaVuSans-48"/>
       <use x="63.623047" xlink:href="#DejaVuSans-46"/>
       <use x="95.410156" xlink:href="#DejaVuSans-48"/>
      </g>
     </g>
    </g>
    <g id="xtick_9">
     <g id="line2d_13">
      <g>
       <use style="stroke:#000000;stroke-width:0.8;" x="308.030288" xlink:href="#m3c2862583b" y="207.792"/>
      </g>
     </g>
     <g id="text_14">
      <!-- 0.5 -->
      <g transform="translate(300.078725 222.390437)scale(0.1 -0.1)">
       <use xlink:href="#DejaVuSans-48"/>
       <use x="63.623047" xlink:href="#DejaVuSans-46"/>
       <use x="95.410156" xlink:href="#DejaVuSans-53"/>
      </g>
     </g>
    </g>
    <g id="xtick_10">
     <g id="line2d_14">
      <g>
       <use style="stroke:#000000;stroke-width:0.8;" x="376.616853" xlink:href="#m3c2862583b" y="207.792"/>
      </g>
     </g>
     <g id="text_15">
      <!-- 1.0 -->
      <g transform="translate(368.66529 222.390437)scale(0.1 -0.1)">
       <use xlink:href="#DejaVuSans-49"/>
       <use x="63.623047" xlink:href="#DejaVuSans-46"/>
       <use x="95.410156" xlink:href="#DejaVuSans-48"/>
      </g>
     </g>
    </g>
   </g>
   <g id="matplotlib.axis_4">
    <g id="ytick_4">
     <g id="line2d_15">
      <g>
       <use style="stroke:#000000;stroke-width:0.8;" x="57.6" xlink:href="#mf225f69f10" y="207.792"/>
      </g>
     </g>
     <g id="text_16">
      <!-- 0.0 -->
      <g transform="translate(34.696875 211.591219)scale(0.1 -0.1)">
       <use xlink:href="#DejaVuSans-48"/>
       <use x="63.623047" xlink:href="#DejaVuSans-46"/>
       <use x="95.410156" xlink:href="#DejaVuSans-48"/>
      </g>
     </g>
    </g>
    <g id="ytick_5">
     <g id="line2d_16">
      <g>
       <use style="stroke:#000000;stroke-width:0.8;" x="57.6" xlink:href="#mf225f69f10" y="178.438228"/>
      </g>
     </g>
     <g id="text_17">
      <!-- 0.5 -->
      <g transform="translate(34.696875 182.237446)scale(0.1 -0.1)">
       <use xlink:href="#DejaVuSans-48"/>
       <use x="63.623047" xlink:href="#DejaVuSans-46"/>
       <use x="95.410156" xlink:href="#DejaVuSans-53"/>
      </g>
     </g>
    </g>
    <g id="ytick_6">
     <g id="line2d_17">
      <g>
       <use style="stroke:#000000;stroke-width:0.8;" x="57.6" xlink:href="#mf225f69f10" y="149.084455"/>
      </g>
     </g>
     <g id="text_18">
      <!-- 1.0 -->
      <g transform="translate(34.696875 152.883674)scale(0.1 -0.1)">
       <use xlink:href="#DejaVuSans-49"/>
       <use x="63.623047" xlink:href="#DejaVuSans-46"/>
       <use x="95.410156" xlink:href="#DejaVuSans-48"/>
      </g>
     </g>
    </g>
    <g id="text_19">
     <!-- Density -->
     <g transform="translate(28.617187 193.536594)rotate(-90)scale(0.1 -0.1)">
      <use xlink:href="#DejaVuSans-68"/>
      <use x="77.001953" xlink:href="#DejaVuSans-101"/>
      <use x="138.525391" xlink:href="#DejaVuSans-110"/>
      <use x="201.904297" xlink:href="#DejaVuSans-115"/>
      <use x="254.003906" xlink:href="#DejaVuSans-105"/>
      <use x="281.787109" xlink:href="#DejaVuSans-116"/>
      <use x="320.996094" xlink:href="#DejaVuSans-121"/>
     </g>
    </g>
   </g>
   <g id="line2d_18">
    <path clip-path="url(#pd0e1e36068)" d="M 73.832727 207.786923 
L 77.112066 207.781403 
L 80.391405 207.770879 
L 83.670744 207.751754 
L 86.950083 207.718574 
L 90.229421 207.663519 
L 93.50876 207.575913 
L 96.788099 207.441783 
L 100.067438 207.2434 
L 103.346777 206.958697 
L 106.626116 206.560459 
L 109.905455 206.015398 
L 113.184793 205.28353 
L 116.464132 204.31867 
L 119.743471 203.07109 
L 123.02281 201.493109 
L 126.302149 199.547661 
L 129.581488 197.218662 
L 132.860826 194.52089 
L 136.140165 191.506513 
L 139.419504 188.265739 
L 142.698843 184.920419 
L 145.978182 181.611226 
L 149.257521 178.480815 
L 152.53686 175.656388 
L 155.816198 173.235244 
L 159.095537 171.276051 
L 162.374876 169.797122 
L 165.654215 168.781272 
L 168.933554 168.185312 
L 172.212893 167.95126 
L 175.492231 168.016282 
L 178.77157 168.319187 
L 182.050909 168.802668 
L 185.330248 169.411941 
L 188.609587 170.091411 
L 191.888926 170.781267 
L 195.168264 171.415637 
L 198.447603 171.923374 
L 201.726942 172.231998 
L 205.006281 172.274711 
L 208.28562 171.999663 
L 211.564959 171.379794 
L 214.844298 170.420807 
L 218.123636 169.164815 
L 221.402975 167.687966 
L 224.682314 166.092066 
L 227.961653 164.491977 
L 231.240992 163.001785 
L 234.520331 161.722789 
L 237.799669 160.735308 
L 241.079008 160.094701 
L 244.358347 159.830645 
L 247.637686 159.948102 
L 250.917025 160.42872 
L 254.196364 161.232315 
L 257.475702 162.298923 
L 260.755041 163.552374 
L 264.03438 164.906091 
L 267.313719 166.271093 
L 270.593058 167.565289 
L 273.872397 168.722342 
L 277.151736 169.698159 
L 280.431074 170.473307 
L 283.710413 171.050658 
L 286.989752 171.448961 
L 290.269091 171.694527 
L 293.54843 171.814163 
L 296.827769 171.832304 
L 300.107107 171.773846 
L 303.386446 171.671756 
L 306.665785 171.576189 
L 309.945124 171.56059 
L 313.224463 171.720784 
L 316.503802 172.165295 
L 319.78314 172.998229 
L 323.062479 174.298781 
L 326.341818 176.102839 
L 329.621157 178.391842 
L 332.900496 181.092048 
L 336.179835 184.084604 
L 339.459174 187.223851 
L 342.738512 190.359291 
L 346.017851 193.355974 
L 349.29719 196.10906 
L 352.576529 198.550425 
L 355.855868 200.647693 
L 359.135207 202.398007 
L 362.414545 203.819573 
L 365.693884 204.943583 
L 368.973223 205.807938 
L 372.252562 206.452989 
L 375.531901 206.91879 
L 378.81124 207.243199 
L 382.090579 207.460401 
L 385.369917 207.599794 
L 388.649256 207.685326 
L 391.928595 207.735403 
L 395.207934 207.763331 
L 398.487273 207.778151 
" style="fill:none;stroke:#006400;stroke-linecap:square;stroke-width:4;"/>
   </g>
   <g id="patch_110">
    <path d="M 57.6 207.792 
L 57.6 141.264 
" style="fill:none;stroke:#000000;stroke-linecap:square;stroke-linejoin:miter;stroke-width:0.8;"/>
   </g>
   <g id="patch_111">
    <path d="M 414.72 207.792 
L 414.72 141.264 
" style="fill:none;stroke:#000000;stroke-linecap:square;stroke-linejoin:miter;stroke-width:0.8;"/>
   </g>
   <g id="patch_112">
    <path d="M 57.6 207.792 
L 414.72 207.792 
" style="fill:none;stroke:#000000;stroke-linecap:square;stroke-linejoin:miter;stroke-width:0.8;"/>
   </g>
   <g id="patch_113">
    <path d="M 57.6 141.264 
L 414.72 141.264 
" style="fill:none;stroke:#000000;stroke-linecap:square;stroke-linejoin:miter;stroke-width:0.8;"/>
   </g>
   <g id="legend_2">
    <g id="patch_114">
     <path d="M 369.80125 163.942125 
L 407.72 163.942125 
Q 409.72 163.942125 409.72 161.942125 
L 409.72 148.264 
Q 409.72 146.264 407.72 146.264 
L 369.80125 146.264 
Q 367.80125 146.264 367.80125 148.264 
L 367.80125 161.942125 
Q 367.80125 163.942125 369.80125 163.942125 
z
" style="fill:#ffffff;opacity:0.8;stroke:#cccccc;stroke-linejoin:miter;"/>
    </g>
    <g id="patch_115">
     <path d="M 371.80125 157.862437 
L 391.80125 157.862437 
L 391.80125 150.862437 
L 371.80125 150.862437 
z
" style="fill:#006400;opacity:0.4;stroke:#000000;stroke-linejoin:miter;"/>
    </g>
    <g id="text_20">
     <!-- y -->
     <g transform="translate(399.80125 157.862437)scale(0.1 -0.1)">
      <use xlink:href="#DejaVuSans-121"/>
     </g>
    </g>
   </g>
  </g>
  <g id="axes_3">
   <g id="patch_116">
    <path d="M 57.6 307.584 
L 414.72 307.584 
L 414.72 241.056 
L 57.6 241.056 
z
" style="fill:#ffffff;"/>
   </g>
   <g id="patch_117">
    <path clip-path="url(#pa8a8e984a8)" d="M 116.241556 307.584 
L 121.038294 307.584 
L 121.038294 302.5152 
L 116.241556 302.5152 
z
" style="fill:#8b0000;opacity:0.4;stroke:#000000;stroke-linejoin:miter;"/>
   </g>
   <g id="patch_118">
    <path clip-path="url(#pa8a8e984a8)" d="M 121.038294 307.584 
L 125.835032 307.584 
L 125.835032 296.1792 
L 121.038294 296.1792 
z
" style="fill:#8b0000;opacity:0.4;stroke:#000000;stroke-linejoin:miter;"/>
   </g>
   <g id="patch_119">
    <path clip-path="url(#pa8a8e984a8)" d="M 125.835032 307.584 
L 130.631769 307.584 
L 130.631769 291.1104 
L 125.835032 291.1104 
z
" style="fill:#8b0000;opacity:0.4;stroke:#000000;stroke-linejoin:miter;"/>
   </g>
   <g id="patch_120">
    <path clip-path="url(#pa8a8e984a8)" d="M 130.631769 307.584 
L 135.428507 307.584 
L 135.428507 280.9728 
L 130.631769 280.9728 
z
" style="fill:#8b0000;opacity:0.4;stroke:#000000;stroke-linejoin:miter;"/>
   </g>
   <g id="patch_121">
    <path clip-path="url(#pa8a8e984a8)" d="M 135.428507 307.584 
L 140.225245 307.584 
L 140.225245 284.7744 
L 135.428507 284.7744 
z
" style="fill:#8b0000;opacity:0.4;stroke:#000000;stroke-linejoin:miter;"/>
   </g>
   <g id="patch_122">
    <path clip-path="url(#pa8a8e984a8)" d="M 140.225245 307.584 
L 145.021983 307.584 
L 145.021983 287.3088 
L 140.225245 287.3088 
z
" style="fill:#8b0000;opacity:0.4;stroke:#000000;stroke-linejoin:miter;"/>
   </g>
   <g id="patch_123">
    <path clip-path="url(#pa8a8e984a8)" d="M 145.021983 307.584 
L 149.81872 307.584 
L 149.81872 294.912 
L 145.021983 294.912 
z
" style="fill:#8b0000;opacity:0.4;stroke:#000000;stroke-linejoin:miter;"/>
   </g>
   <g id="patch_124">
    <path clip-path="url(#pa8a8e984a8)" d="M 149.81872 307.584 
L 154.615458 307.584 
L 154.615458 289.8432 
L 149.81872 289.8432 
z
" style="fill:#8b0000;opacity:0.4;stroke:#000000;stroke-linejoin:miter;"/>
   </g>
   <g id="patch_125">
    <path clip-path="url(#pa8a8e984a8)" d="M 154.615458 307.584 
L 159.412196 307.584 
L 159.412196 284.7744 
L 154.615458 284.7744 
z
" style="fill:#8b0000;opacity:0.4;stroke:#000000;stroke-linejoin:miter;"/>
   </g>
   <g id="patch_126">
    <path clip-path="url(#pa8a8e984a8)" d="M 159.412196 307.584 
L 164.208934 307.584 
L 164.208934 264.4992 
L 159.412196 264.4992 
z
" style="fill:#8b0000;opacity:0.4;stroke:#000000;stroke-linejoin:miter;"/>
   </g>
   <g id="patch_127">
    <path clip-path="url(#pa8a8e984a8)" d="M 164.208934 307.584 
L 169.005671 307.584 
L 169.005671 253.0944 
L 164.208934 253.0944 
z
" style="fill:#8b0000;opacity:0.4;stroke:#000000;stroke-linejoin:miter;"/>
   </g>
   <g id="patch_128">
    <path clip-path="url(#pa8a8e984a8)" d="M 169.005671 307.584 
L 173.802409 307.584 
L 173.802409 268.3008 
L 169.005671 268.3008 
z
" style="fill:#8b0000;opacity:0.4;stroke:#000000;stroke-linejoin:miter;"/>
   </g>
   <g id="patch_129">
    <path clip-path="url(#pa8a8e984a8)" d="M 173.802409 307.584 
L 178.599147 307.584 
L 178.599147 265.7664 
L 173.802409 265.7664 
z
" style="fill:#8b0000;opacity:0.4;stroke:#000000;stroke-linejoin:miter;"/>
   </g>
   <g id="patch_130">
    <path clip-path="url(#pa8a8e984a8)" d="M 178.599147 307.584 
L 183.395885 307.584 
L 183.395885 275.904 
L 178.599147 275.904 
z
" style="fill:#8b0000;opacity:0.4;stroke:#000000;stroke-linejoin:miter;"/>
   </g>
   <g id="patch_131">
    <path clip-path="url(#pa8a8e984a8)" d="M 183.395885 307.584 
L 188.192622 307.584 
L 188.192622 272.1024 
L 183.395885 272.1024 
z
" style="fill:#8b0000;opacity:0.4;stroke:#000000;stroke-linejoin:miter;"/>
   </g>
   <g id="patch_132">
    <path clip-path="url(#pa8a8e984a8)" d="M 188.192622 307.584 
L 192.98936 307.584 
L 192.98936 279.7056 
L 188.192622 279.7056 
z
" style="fill:#8b0000;opacity:0.4;stroke:#000000;stroke-linejoin:miter;"/>
   </g>
   <g id="patch_133">
    <path clip-path="url(#pa8a8e984a8)" d="M 192.98936 307.584 
L 197.786098 307.584 
L 197.786098 279.7056 
L 192.98936 279.7056 
z
" style="fill:#8b0000;opacity:0.4;stroke:#000000;stroke-linejoin:miter;"/>
   </g>
   <g id="patch_134">
    <path clip-path="url(#pa8a8e984a8)" d="M 197.786098 307.584 
L 202.582836 307.584 
L 202.582836 278.4384 
L 197.786098 278.4384 
z
" style="fill:#8b0000;opacity:0.4;stroke:#000000;stroke-linejoin:miter;"/>
   </g>
   <g id="patch_135">
    <path clip-path="url(#pa8a8e984a8)" d="M 202.582836 307.584 
L 207.379573 307.584 
L 207.379573 278.4384 
L 202.582836 278.4384 
z
" style="fill:#8b0000;opacity:0.4;stroke:#000000;stroke-linejoin:miter;"/>
   </g>
   <g id="patch_136">
    <path clip-path="url(#pa8a8e984a8)" d="M 207.379573 307.584 
L 212.176311 307.584 
L 212.176311 258.1632 
L 207.379573 258.1632 
z
" style="fill:#8b0000;opacity:0.4;stroke:#000000;stroke-linejoin:miter;"/>
   </g>
   <g id="patch_137">
    <path clip-path="url(#pa8a8e984a8)" d="M 212.176311 307.584 
L 216.973049 307.584 
L 216.973049 273.3696 
L 212.176311 273.3696 
z
" style="fill:#8b0000;opacity:0.4;stroke:#000000;stroke-linejoin:miter;"/>
   </g>
   <g id="patch_138">
    <path clip-path="url(#pa8a8e984a8)" d="M 216.973049 307.584 
L 221.769787 307.584 
L 221.769787 291.1104 
L 216.973049 291.1104 
z
" style="fill:#8b0000;opacity:0.4;stroke:#000000;stroke-linejoin:miter;"/>
   </g>
   <g id="patch_139">
    <path clip-path="url(#pa8a8e984a8)" d="M 221.769787 307.584 
L 226.566524 307.584 
L 226.566524 267.0336 
L 221.769787 267.0336 
z
" style="fill:#8b0000;opacity:0.4;stroke:#000000;stroke-linejoin:miter;"/>
   </g>
   <g id="patch_140">
    <path clip-path="url(#pa8a8e984a8)" d="M 226.566524 307.584 
L 231.363262 307.584 
L 231.363262 277.1712 
L 226.566524 277.1712 
z
" style="fill:#8b0000;opacity:0.4;stroke:#000000;stroke-linejoin:miter;"/>
   </g>
   <g id="patch_141">
    <path clip-path="url(#pa8a8e984a8)" d="M 231.363262 307.584 
L 236.16 307.584 
L 236.16 267.0336 
L 231.363262 267.0336 
z
" style="fill:#8b0000;opacity:0.4;stroke:#000000;stroke-linejoin:miter;"/>
   </g>
   <g id="patch_142">
    <path clip-path="url(#pa8a8e984a8)" d="M 236.16 307.584 
L 240.956738 307.584 
L 240.956738 264.4992 
L 236.16 264.4992 
z
" style="fill:#8b0000;opacity:0.4;stroke:#000000;stroke-linejoin:miter;"/>
   </g>
   <g id="patch_143">
    <path clip-path="url(#pa8a8e984a8)" d="M 240.956738 307.584 
L 245.753476 307.584 
L 245.753476 277.1712 
L 240.956738 277.1712 
z
" style="fill:#8b0000;opacity:0.4;stroke:#000000;stroke-linejoin:miter;"/>
   </g>
   <g id="patch_144">
    <path clip-path="url(#pa8a8e984a8)" d="M 245.753476 307.584 
L 250.550213 307.584 
L 250.550213 261.9648 
L 245.753476 261.9648 
z
" style="fill:#8b0000;opacity:0.4;stroke:#000000;stroke-linejoin:miter;"/>
   </g>
   <g id="patch_145">
    <path clip-path="url(#pa8a8e984a8)" d="M 250.550213 307.584 
L 255.346951 307.584 
L 255.346951 261.9648 
L 250.550213 261.9648 
z
" style="fill:#8b0000;opacity:0.4;stroke:#000000;stroke-linejoin:miter;"/>
   </g>
   <g id="patch_146">
    <path clip-path="url(#pa8a8e984a8)" d="M 255.346951 307.584 
L 260.143689 307.584 
L 260.143689 275.904 
L 255.346951 275.904 
z
" style="fill:#8b0000;opacity:0.4;stroke:#000000;stroke-linejoin:miter;"/>
   </g>
   <g id="patch_147">
    <path clip-path="url(#pa8a8e984a8)" d="M 260.143689 307.584 
L 264.940427 307.584 
L 264.940427 268.3008 
L 260.143689 268.3008 
z
" style="fill:#8b0000;opacity:0.4;stroke:#000000;stroke-linejoin:miter;"/>
   </g>
   <g id="patch_148">
    <path clip-path="url(#pa8a8e984a8)" d="M 264.940427 307.584 
L 269.737164 307.584 
L 269.737164 273.3696 
L 264.940427 273.3696 
z
" style="fill:#8b0000;opacity:0.4;stroke:#000000;stroke-linejoin:miter;"/>
   </g>
   <g id="patch_149">
    <path clip-path="url(#pa8a8e984a8)" d="M 269.737164 307.584 
L 274.533902 307.584 
L 274.533902 275.904 
L 269.737164 275.904 
z
" style="fill:#8b0000;opacity:0.4;stroke:#000000;stroke-linejoin:miter;"/>
   </g>
   <g id="patch_150">
    <path clip-path="url(#pa8a8e984a8)" d="M 274.533902 307.584 
L 279.33064 307.584 
L 279.33064 283.5072 
L 274.533902 283.5072 
z
" style="fill:#8b0000;opacity:0.4;stroke:#000000;stroke-linejoin:miter;"/>
   </g>
   <g id="patch_151">
    <path clip-path="url(#pa8a8e984a8)" d="M 279.33064 307.584 
L 284.127378 307.584 
L 284.127378 268.3008 
L 279.33064 268.3008 
z
" style="fill:#8b0000;opacity:0.4;stroke:#000000;stroke-linejoin:miter;"/>
   </g>
   <g id="patch_152">
    <path clip-path="url(#pa8a8e984a8)" d="M 284.127378 307.584 
L 288.924115 307.584 
L 288.924115 269.568 
L 284.127378 269.568 
z
" style="fill:#8b0000;opacity:0.4;stroke:#000000;stroke-linejoin:miter;"/>
   </g>
   <g id="patch_153">
    <path clip-path="url(#pa8a8e984a8)" d="M 288.924115 307.584 
L 293.720853 307.584 
L 293.720853 244.224 
L 288.924115 244.224 
z
" style="fill:#8b0000;opacity:0.4;stroke:#000000;stroke-linejoin:miter;"/>
   </g>
   <g id="patch_154">
    <path clip-path="url(#pa8a8e984a8)" d="M 293.720853 307.584 
L 298.517591 307.584 
L 298.517591 263.232 
L 293.720853 263.232 
z
" style="fill:#8b0000;opacity:0.4;stroke:#000000;stroke-linejoin:miter;"/>
   </g>
   <g id="patch_155">
    <path clip-path="url(#pa8a8e984a8)" d="M 298.517591 307.584 
L 303.314329 307.584 
L 303.314329 272.1024 
L 298.517591 272.1024 
z
" style="fill:#8b0000;opacity:0.4;stroke:#000000;stroke-linejoin:miter;"/>
   </g>
   <g id="patch_156">
    <path clip-path="url(#pa8a8e984a8)" d="M 303.314329 307.584 
L 308.111066 307.584 
L 308.111066 279.7056 
L 303.314329 279.7056 
z
" style="fill:#8b0000;opacity:0.4;stroke:#000000;stroke-linejoin:miter;"/>
   </g>
   <g id="patch_157">
    <path clip-path="url(#pa8a8e984a8)" d="M 308.111066 307.584 
L 312.907804 307.584 
L 312.907804 292.3776 
L 308.111066 292.3776 
z
" style="fill:#8b0000;opacity:0.4;stroke:#000000;stroke-linejoin:miter;"/>
   </g>
   <g id="patch_158">
    <path clip-path="url(#pa8a8e984a8)" d="M 312.907804 307.584 
L 317.704542 307.584 
L 317.704542 272.1024 
L 312.907804 272.1024 
z
" style="fill:#8b0000;opacity:0.4;stroke:#000000;stroke-linejoin:miter;"/>
   </g>
   <g id="patch_159">
    <path clip-path="url(#pa8a8e984a8)" d="M 317.704542 307.584 
L 322.50128 307.584 
L 322.50128 287.3088 
L 317.704542 287.3088 
z
" style="fill:#8b0000;opacity:0.4;stroke:#000000;stroke-linejoin:miter;"/>
   </g>
   <g id="patch_160">
    <path clip-path="url(#pa8a8e984a8)" d="M 322.50128 307.584 
L 327.298017 307.584 
L 327.298017 289.8432 
L 322.50128 289.8432 
z
" style="fill:#8b0000;opacity:0.4;stroke:#000000;stroke-linejoin:miter;"/>
   </g>
   <g id="patch_161">
    <path clip-path="url(#pa8a8e984a8)" d="M 327.298017 307.584 
L 332.094755 307.584 
L 332.094755 288.576 
L 327.298017 288.576 
z
" style="fill:#8b0000;opacity:0.4;stroke:#000000;stroke-linejoin:miter;"/>
   </g>
   <g id="patch_162">
    <path clip-path="url(#pa8a8e984a8)" d="M 332.094755 307.584 
L 336.891493 307.584 
L 336.891493 291.1104 
L 332.094755 291.1104 
z
" style="fill:#8b0000;opacity:0.4;stroke:#000000;stroke-linejoin:miter;"/>
   </g>
   <g id="patch_163">
    <path clip-path="url(#pa8a8e984a8)" d="M 336.891493 307.584 
L 341.688231 307.584 
L 341.688231 298.7136 
L 336.891493 298.7136 
z
" style="fill:#8b0000;opacity:0.4;stroke:#000000;stroke-linejoin:miter;"/>
   </g>
   <g id="patch_164">
    <path clip-path="url(#pa8a8e984a8)" d="M 341.688231 307.584 
L 346.484968 307.584 
L 346.484968 301.248 
L 341.688231 301.248 
z
" style="fill:#8b0000;opacity:0.4;stroke:#000000;stroke-linejoin:miter;"/>
   </g>
   <g id="patch_165">
    <path clip-path="url(#pa8a8e984a8)" d="M 346.484968 307.584 
L 351.281706 307.584 
L 351.281706 303.7824 
L 346.484968 303.7824 
z
" style="fill:#8b0000;opacity:0.4;stroke:#000000;stroke-linejoin:miter;"/>
   </g>
   <g id="patch_166">
    <path clip-path="url(#pa8a8e984a8)" d="M 351.281706 307.584 
L 356.078444 307.584 
L 356.078444 305.0496 
L 351.281706 305.0496 
z
" style="fill:#8b0000;opacity:0.4;stroke:#000000;stroke-linejoin:miter;"/>
   </g>
   <g id="matplotlib.axis_5">
    <g id="xtick_11">
     <g id="line2d_19">
      <g>
       <use style="stroke:#000000;stroke-width:0.8;" x="92.153894" xlink:href="#m3c2862583b" y="307.584"/>
      </g>
     </g>
     <g id="text_21">
      <!-- −1.0 -->
      <g transform="translate(80.012488 322.182437)scale(0.1 -0.1)">
       <use xlink:href="#DejaVuSans-8722"/>
       <use x="83.789062" xlink:href="#DejaVuSans-49"/>
       <use x="147.412109" xlink:href="#DejaVuSans-46"/>
       <use x="179.199219" xlink:href="#DejaVuSans-48"/>
      </g>
     </g>
    </g>
    <g id="xtick_12">
     <g id="line2d_20">
      <g>
       <use style="stroke:#000000;stroke-width:0.8;" x="161.855216" xlink:href="#m3c2862583b" y="307.584"/>
      </g>
     </g>
     <g id="text_22">
      <!-- −0.5 -->
      <g transform="translate(149.71381 322.182437)scale(0.1 -0.1)">
       <use xlink:href="#DejaVuSans-8722"/>
       <use x="83.789062" xlink:href="#DejaVuSans-48"/>
       <use x="147.412109" xlink:href="#DejaVuSans-46"/>
       <use x="179.199219" xlink:href="#DejaVuSans-53"/>
      </g>
     </g>
    </g>
    <g id="xtick_13">
     <g id="line2d_21">
      <g>
       <use style="stroke:#000000;stroke-width:0.8;" x="231.556537" xlink:href="#m3c2862583b" y="307.584"/>
      </g>
     </g>
     <g id="text_23">
      <!-- 0.0 -->
      <g transform="translate(223.604975 322.182437)scale(0.1 -0.1)">
       <use xlink:href="#DejaVuSans-48"/>
       <use x="63.623047" xlink:href="#DejaVuSans-46"/>
       <use x="95.410156" xlink:href="#DejaVuSans-48"/>
      </g>
     </g>
    </g>
    <g id="xtick_14">
     <g id="line2d_22">
      <g>
       <use style="stroke:#000000;stroke-width:0.8;" x="301.257859" xlink:href="#m3c2862583b" y="307.584"/>
      </g>
     </g>
     <g id="text_24">
      <!-- 0.5 -->
      <g transform="translate(293.306296 322.182437)scale(0.1 -0.1)">
       <use xlink:href="#DejaVuSans-48"/>
       <use x="63.623047" xlink:href="#DejaVuSans-46"/>
       <use x="95.410156" xlink:href="#DejaVuSans-53"/>
      </g>
     </g>
    </g>
    <g id="xtick_15">
     <g id="line2d_23">
      <g>
       <use style="stroke:#000000;stroke-width:0.8;" x="370.95918" xlink:href="#m3c2862583b" y="307.584"/>
      </g>
     </g>
     <g id="text_25">
      <!-- 1.0 -->
      <g transform="translate(363.007618 322.182437)scale(0.1 -0.1)">
       <use xlink:href="#DejaVuSans-49"/>
       <use x="63.623047" xlink:href="#DejaVuSans-46"/>
       <use x="95.410156" xlink:href="#DejaVuSans-48"/>
      </g>
     </g>
    </g>
    <g id="text_26">
     <!-- Position -->
     <defs>
      <path d="M 19.671875 64.796875 
L 19.671875 37.40625 
L 32.078125 37.40625 
Q 38.96875 37.40625 42.71875 40.96875 
Q 46.484375 44.53125 46.484375 51.125 
Q 46.484375 57.671875 42.71875 61.234375 
Q 38.96875 64.796875 32.078125 64.796875 
z
M 9.8125 72.90625 
L 32.078125 72.90625 
Q 44.34375 72.90625 50.609375 67.359375 
Q 56.890625 61.8125 56.890625 51.125 
Q 56.890625 40.328125 50.609375 34.8125 
Q 44.34375 29.296875 32.078125 29.296875 
L 19.671875 29.296875 
L 19.671875 0 
L 9.8125 0 
z
" id="DejaVuSans-80"/>
      <path d="M 30.609375 48.390625 
Q 23.390625 48.390625 19.1875 42.75 
Q 14.984375 37.109375 14.984375 27.296875 
Q 14.984375 17.484375 19.15625 11.84375 
Q 23.34375 6.203125 30.609375 6.203125 
Q 37.796875 6.203125 41.984375 11.859375 
Q 46.1875 17.53125 46.1875 27.296875 
Q 46.1875 37.015625 41.984375 42.703125 
Q 37.796875 48.390625 30.609375 48.390625 
z
M 30.609375 56 
Q 42.328125 56 49.015625 48.375 
Q 55.71875 40.765625 55.71875 27.296875 
Q 55.71875 13.875 49.015625 6.21875 
Q 42.328125 -1.421875 30.609375 -1.421875 
Q 18.84375 -1.421875 12.171875 6.21875 
Q 5.515625 13.875 5.515625 27.296875 
Q 5.515625 40.765625 12.171875 48.375 
Q 18.84375 56 30.609375 56 
z
" id="DejaVuSans-111"/>
     </defs>
     <g transform="translate(216.517031 335.860562)scale(0.1 -0.1)">
      <use xlink:href="#DejaVuSans-80"/>
      <use x="60.255859" xlink:href="#DejaVuSans-111"/>
      <use x="121.4375" xlink:href="#DejaVuSans-115"/>
      <use x="173.537109" xlink:href="#DejaVuSans-105"/>
      <use x="201.320312" xlink:href="#DejaVuSans-116"/>
      <use x="240.529297" xlink:href="#DejaVuSans-105"/>
      <use x="268.3125" xlink:href="#DejaVuSans-111"/>
      <use x="329.494141" xlink:href="#DejaVuSans-110"/>
     </g>
    </g>
   </g>
   <g id="matplotlib.axis_6">
    <g id="ytick_7">
     <g id="line2d_24">
      <g>
       <use style="stroke:#000000;stroke-width:0.8;" x="57.6" xlink:href="#mf225f69f10" y="307.584"/>
      </g>
     </g>
     <g id="text_27">
      <!-- 0.0 -->
      <g transform="translate(34.696875 311.383219)scale(0.1 -0.1)">
       <use xlink:href="#DejaVuSans-48"/>
       <use x="63.623047" xlink:href="#DejaVuSans-46"/>
       <use x="95.410156" xlink:href="#DejaVuSans-48"/>
      </g>
     </g>
    </g>
    <g id="ytick_8">
     <g id="line2d_25">
      <g>
       <use style="stroke:#000000;stroke-width:0.8;" x="57.6" xlink:href="#mf225f69f10" y="282.686471"/>
      </g>
     </g>
     <g id="text_28">
      <!-- 0.5 -->
      <g transform="translate(34.696875 286.48569)scale(0.1 -0.1)">
       <use xlink:href="#DejaVuSans-48"/>
       <use x="63.623047" xlink:href="#DejaVuSans-46"/>
       <use x="95.410156" xlink:href="#DejaVuSans-53"/>
      </g>
     </g>
    </g>
    <g id="ytick_9">
     <g id="line2d_26">
      <g>
       <use style="stroke:#000000;stroke-width:0.8;" x="57.6" xlink:href="#mf225f69f10" y="257.788943"/>
      </g>
     </g>
     <g id="text_29">
      <!-- 1.0 -->
      <g transform="translate(34.696875 261.588161)scale(0.1 -0.1)">
       <use xlink:href="#DejaVuSans-49"/>
       <use x="63.623047" xlink:href="#DejaVuSans-46"/>
       <use x="95.410156" xlink:href="#DejaVuSans-48"/>
      </g>
     </g>
    </g>
    <g id="text_30">
     <!-- Density -->
     <g transform="translate(28.617187 293.328594)rotate(-90)scale(0.1 -0.1)">
      <use xlink:href="#DejaVuSans-68"/>
      <use x="77.001953" xlink:href="#DejaVuSans-101"/>
      <use x="138.525391" xlink:href="#DejaVuSans-110"/>
      <use x="201.904297" xlink:href="#DejaVuSans-115"/>
      <use x="254.003906" xlink:href="#DejaVuSans-105"/>
      <use x="281.787109" xlink:href="#DejaVuSans-116"/>
      <use x="320.996094" xlink:href="#DejaVuSans-121"/>
     </g>
    </g>
   </g>
   <g id="line2d_27">
    <path clip-path="url(#pa8a8e984a8)" d="M 73.832727 307.572448 
L 77.112066 307.559435 
L 80.391405 307.534099 
L 83.670744 307.487099 
L 86.950083 307.403996 
L 90.229421 307.263912 
L 93.50876 307.03874 
L 96.788099 306.693573 
L 100.067438 306.188986 
L 103.346777 305.485612 
L 106.626116 304.550898 
L 109.905455 303.36707 
L 113.184793 301.938547 
L 116.464132 300.296345 
L 119.743471 298.497159 
L 123.02281 296.615706 
L 126.302149 294.730756 
L 129.581488 292.907531 
L 132.860826 291.181106 
L 136.140165 289.546229 
L 139.419504 287.958082 
L 142.698843 286.345703 
L 145.978182 284.635854 
L 149.257521 282.781201 
L 152.53686 280.784247 
L 155.816198 278.708767 
L 159.095537 276.67378 
L 162.374876 274.830494 
L 165.654215 273.328333 
L 168.933554 272.279883 
L 172.212893 271.734944 
L 175.492231 271.670642 
L 178.77157 271.999222 
L 182.050909 272.589741 
L 185.330248 273.296453 
L 188.609587 273.986002 
L 191.888926 274.557356 
L 195.168264 274.951409 
L 198.447603 275.150173 
L 201.726942 275.167784 
L 205.006281 275.036841 
L 208.28562 274.79415 
L 211.564959 274.469669 
L 214.844298 274.081311 
L 218.123636 273.636344 
L 221.402975 273.137863 
L 224.682314 272.59303 
L 227.961653 272.019348 
L 231.240992 271.446309 
L 234.520331 270.911944 
L 237.799669 270.455862 
L 241.079008 270.111471 
L 244.358347 269.899735 
L 247.637686 269.825616 
L 250.917025 269.87701 
L 254.196364 270.025478 
L 257.475702 270.228344 
L 260.755041 270.432584 
L 264.03438 270.581435 
L 267.313719 270.624342 
L 270.593058 270.529535 
L 273.872397 270.296691 
L 277.151736 269.965669 
L 280.431074 269.617134 
L 283.710413 269.362596 
L 286.989752 269.324594 
L 290.269091 269.611521 
L 293.54843 270.294116 
L 296.827769 271.390794 
L 300.107107 272.866331 
L 303.386446 274.643858 
L 306.665785 276.625672 
L 309.945124 278.715776 
L 313.224463 280.837384 
L 316.503802 282.941396 
L 319.78314 285.005589 
L 323.062479 287.02723 
L 326.341818 289.013035 
L 329.621157 290.969888 
L 332.900496 292.898281 
L 336.179835 294.78902 
L 339.459174 296.622921 
L 342.738512 298.372899 
L 346.017851 300.007787 
L 349.29719 301.497084 
L 352.576529 302.815693 
L 355.855868 303.947665 
L 359.135207 304.888205 
L 362.414545 305.643649 
L 365.693884 306.229687 
L 368.973223 306.668454 
L 372.252562 306.985288 
L 375.531901 307.205769 
L 378.81124 307.353493 
L 382.090579 307.44868 
L 385.369917 307.507592 
L 388.649256 307.542565 
L 391.928595 307.562452 
L 395.207934 307.573268 
L 398.487273 307.578888 
" style="fill:none;stroke:#8b0000;stroke-linecap:square;stroke-width:4;"/>
   </g>
   <g id="patch_167">
    <path d="M 57.6 307.584 
L 57.6 241.056 
" style="fill:none;stroke:#000000;stroke-linecap:square;stroke-linejoin:miter;stroke-width:0.8;"/>
   </g>
   <g id="patch_168">
    <path d="M 414.72 307.584 
L 414.72 241.056 
" style="fill:none;stroke:#000000;stroke-linecap:square;stroke-linejoin:miter;stroke-width:0.8;"/>
   </g>
   <g id="patch_169">
    <path d="M 57.6 307.584 
L 414.72 307.584 
" style="fill:none;stroke:#000000;stroke-linecap:square;stroke-linejoin:miter;stroke-width:0.8;"/>
   </g>
   <g id="patch_170">
    <path d="M 57.6 241.056 
L 414.72 241.056 
" style="fill:none;stroke:#000000;stroke-linecap:square;stroke-linejoin:miter;stroke-width:0.8;"/>
   </g>
   <g id="legend_3">
    <g id="patch_171">
     <path d="M 370.471563 263.734125 
L 407.72 263.734125 
Q 409.72 263.734125 409.72 261.734125 
L 409.72 248.056 
Q 409.72 246.056 407.72 246.056 
L 370.471563 246.056 
Q 368.471563 246.056 368.471563 248.056 
L 368.471563 261.734125 
Q 368.471563 263.734125 370.471563 263.734125 
z
" style="fill:#ffffff;opacity:0.8;stroke:#cccccc;stroke-linejoin:miter;"/>
    </g>
    <g id="patch_172">
     <path d="M 372.471563 257.654437 
L 392.471563 257.654437 
L 392.471563 250.654437 
L 372.471563 250.654437 
z
" style="fill:#8b0000;opacity:0.4;stroke:#000000;stroke-linejoin:miter;"/>
    </g>
    <g id="text_31">
     <!-- z -->
     <defs>
      <path d="M 5.515625 54.6875 
L 48.1875 54.6875 
L 48.1875 46.484375 
L 14.40625 7.171875 
L 48.1875 7.171875 
L 48.1875 0 
L 4.296875 0 
L 4.296875 8.203125 
L 38.09375 47.515625 
L 5.515625 47.515625 
z
" id="DejaVuSans-122"/>
     </defs>
     <g transform="translate(400.471563 257.654437)scale(0.1 -0.1)">
      <use xlink:href="#DejaVuSans-122"/>
     </g>
    </g>
   </g>
  </g>
  <g id="text_32">
   <!-- Motif 1 Zr 1142 Histogram -->
   <defs>
    <path d="M 9.8125 72.90625 
L 24.515625 72.90625 
L 43.109375 23.296875 
L 61.8125 72.90625 
L 76.515625 72.90625 
L 76.515625 0 
L 66.890625 0 
L 66.890625 64.015625 
L 48.09375 14.015625 
L 38.1875 14.015625 
L 19.390625 64.015625 
L 19.390625 0 
L 9.8125 0 
z
" id="DejaVuSans-77"/>
    <path d="M 37.109375 75.984375 
L 37.109375 68.5 
L 28.515625 68.5 
Q 23.6875 68.5 21.796875 66.546875 
Q 19.921875 64.59375 19.921875 59.515625 
L 19.921875 54.6875 
L 34.71875 54.6875 
L 34.71875 47.703125 
L 19.921875 47.703125 
L 19.921875 0 
L 10.890625 0 
L 10.890625 47.703125 
L 2.296875 47.703125 
L 2.296875 54.6875 
L 10.890625 54.6875 
L 10.890625 58.5 
Q 10.890625 67.625 15.140625 71.796875 
Q 19.390625 75.984375 28.609375 75.984375 
z
" id="DejaVuSans-102"/>
    <path id="DejaVuSans-32"/>
    <path d="M 5.609375 72.90625 
L 62.890625 72.90625 
L 62.890625 65.375 
L 16.796875 8.296875 
L 64.015625 8.296875 
L 64.015625 0 
L 4.5 0 
L 4.5 7.515625 
L 50.59375 64.59375 
L 5.609375 64.59375 
z
" id="DejaVuSans-90"/>
    <path d="M 41.109375 46.296875 
Q 39.59375 47.171875 37.8125 47.578125 
Q 36.03125 48 33.890625 48 
Q 26.265625 48 22.1875 43.046875 
Q 18.109375 38.09375 18.109375 28.8125 
L 18.109375 0 
L 9.078125 0 
L 9.078125 54.6875 
L 18.109375 54.6875 
L 18.109375 46.1875 
Q 20.953125 51.171875 25.484375 53.578125 
Q 30.03125 56 36.53125 56 
Q 37.453125 56 38.578125 55.875 
Q 39.703125 55.765625 41.0625 55.515625 
z
" id="DejaVuSans-114"/>
    <path d="M 37.796875 64.3125 
L 12.890625 25.390625 
L 37.796875 25.390625 
z
M 35.203125 72.90625 
L 47.609375 72.90625 
L 47.609375 25.390625 
L 58.015625 25.390625 
L 58.015625 17.1875 
L 47.609375 17.1875 
L 47.609375 0 
L 37.796875 0 
L 37.796875 17.1875 
L 4.890625 17.1875 
L 4.890625 26.703125 
z
" id="DejaVuSans-52"/>
    <path d="M 19.1875 8.296875 
L 53.609375 8.296875 
L 53.609375 0 
L 7.328125 0 
L 7.328125 8.296875 
Q 12.9375 14.109375 22.625 23.890625 
Q 32.328125 33.6875 34.8125 36.53125 
Q 39.546875 41.84375 41.421875 45.53125 
Q 43.3125 49.21875 43.3125 52.78125 
Q 43.3125 58.59375 39.234375 62.25 
Q 35.15625 65.921875 28.609375 65.921875 
Q 23.96875 65.921875 18.8125 64.3125 
Q 13.671875 62.703125 7.8125 59.421875 
L 7.8125 69.390625 
Q 13.765625 71.78125 18.9375 73 
Q 24.125 74.21875 28.421875 74.21875 
Q 39.75 74.21875 46.484375 68.546875 
Q 53.21875 62.890625 53.21875 53.421875 
Q 53.21875 48.921875 51.53125 44.890625 
Q 49.859375 40.875 45.40625 35.40625 
Q 44.1875 33.984375 37.640625 27.21875 
Q 31.109375 20.453125 19.1875 8.296875 
z
" id="DejaVuSans-50"/>
    <path d="M 9.8125 72.90625 
L 19.671875 72.90625 
L 19.671875 43.015625 
L 55.515625 43.015625 
L 55.515625 72.90625 
L 65.375 72.90625 
L 65.375 0 
L 55.515625 0 
L 55.515625 34.71875 
L 19.671875 34.71875 
L 19.671875 0 
L 9.8125 0 
z
" id="DejaVuSans-72"/>
    <path d="M 45.40625 27.984375 
Q 45.40625 37.75 41.375 43.109375 
Q 37.359375 48.484375 30.078125 48.484375 
Q 22.859375 48.484375 18.828125 43.109375 
Q 14.796875 37.75 14.796875 27.984375 
Q 14.796875 18.265625 18.828125 12.890625 
Q 22.859375 7.515625 30.078125 7.515625 
Q 37.359375 7.515625 41.375 12.890625 
Q 45.40625 18.265625 45.40625 27.984375 
z
M 54.390625 6.78125 
Q 54.390625 -7.171875 48.1875 -13.984375 
Q 42 -20.796875 29.203125 -20.796875 
Q 24.46875 -20.796875 20.265625 -20.09375 
Q 16.0625 -19.390625 12.109375 -17.921875 
L 12.109375 -9.1875 
Q 16.0625 -11.328125 19.921875 -12.34375 
Q 23.78125 -13.375 27.78125 -13.375 
Q 36.625 -13.375 41.015625 -8.765625 
Q 45.40625 -4.15625 45.40625 5.171875 
L 45.40625 9.625 
Q 42.625 4.78125 38.28125 2.390625 
Q 33.9375 0 27.875 0 
Q 17.828125 0 11.671875 7.65625 
Q 5.515625 15.328125 5.515625 27.984375 
Q 5.515625 40.671875 11.671875 48.328125 
Q 17.828125 56 27.875 56 
Q 33.9375 56 38.28125 53.609375 
Q 42.625 51.21875 45.40625 46.390625 
L 45.40625 54.6875 
L 54.390625 54.6875 
z
" id="DejaVuSans-103"/>
    <path d="M 34.28125 27.484375 
Q 23.390625 27.484375 19.1875 25 
Q 14.984375 22.515625 14.984375 16.5 
Q 14.984375 11.71875 18.140625 8.90625 
Q 21.296875 6.109375 26.703125 6.109375 
Q 34.1875 6.109375 38.703125 11.40625 
Q 43.21875 16.703125 43.21875 25.484375 
L 43.21875 27.484375 
z
M 52.203125 31.203125 
L 52.203125 0 
L 43.21875 0 
L 43.21875 8.296875 
Q 40.140625 3.328125 35.546875 0.953125 
Q 30.953125 -1.421875 24.3125 -1.421875 
Q 15.921875 -1.421875 10.953125 3.296875 
Q 6 8.015625 6 15.921875 
Q 6 25.140625 12.171875 29.828125 
Q 18.359375 34.515625 30.609375 34.515625 
L 43.21875 34.515625 
L 43.21875 35.40625 
Q 43.21875 41.609375 39.140625 45 
Q 35.0625 48.390625 27.6875 48.390625 
Q 23 48.390625 18.546875 47.265625 
Q 14.109375 46.140625 10.015625 43.890625 
L 10.015625 52.203125 
Q 14.9375 54.109375 19.578125 55.046875 
Q 24.21875 56 28.609375 56 
Q 40.484375 56 46.34375 49.84375 
Q 52.203125 43.703125 52.203125 31.203125 
z
" id="DejaVuSans-97"/>
    <path d="M 52 44.1875 
Q 55.375 50.25 60.0625 53.125 
Q 64.75 56 71.09375 56 
Q 79.640625 56 84.28125 50.015625 
Q 88.921875 44.046875 88.921875 33.015625 
L 88.921875 0 
L 79.890625 0 
L 79.890625 32.71875 
Q 79.890625 40.578125 77.09375 44.375 
Q 74.3125 48.1875 68.609375 48.1875 
Q 61.625 48.1875 57.5625 43.546875 
Q 53.515625 38.921875 53.515625 30.90625 
L 53.515625 0 
L 44.484375 0 
L 44.484375 32.71875 
Q 44.484375 40.625 41.703125 44.40625 
Q 38.921875 48.1875 33.109375 48.1875 
Q 26.21875 48.1875 22.15625 43.53125 
Q 18.109375 38.875 18.109375 30.90625 
L 18.109375 0 
L 9.078125 0 
L 9.078125 54.6875 
L 18.109375 54.6875 
L 18.109375 46.1875 
Q 21.1875 51.21875 25.484375 53.609375 
Q 29.78125 56 35.6875 56 
Q 41.65625 56 45.828125 52.96875 
Q 50 49.953125 52 44.1875 
z
" id="DejaVuSans-109"/>
   </defs>
   <g transform="translate(151.004063 16.030125)scale(0.12 -0.12)">
    <use xlink:href="#DejaVuSans-77"/>
    <use x="86.279297" xlink:href="#DejaVuSans-111"/>
    <use x="147.460938" xlink:href="#DejaVuSans-116"/>
    <use x="186.669922" xlink:href="#DejaVuSans-105"/>
    <use x="214.453125" xlink:href="#DejaVuSans-102"/>
    <use x="249.658203" xlink:href="#DejaVuSans-32"/>
    <use x="281.445312" xlink:href="#DejaVuSans-49"/>
    <use x="345.068359" xlink:href="#DejaVuSans-32"/>
    <use x="376.855469" xlink:href="#DejaVuSans-90"/>
    <use x="445.361328" xlink:href="#DejaVuSans-114"/>
    <use x="486.474609" xlink:href="#DejaVuSans-32"/>
    <use x="518.261719" xlink:href="#DejaVuSans-49"/>
    <use x="581.884766" xlink:href="#DejaVuSans-49"/>
    <use x="645.507812" xlink:href="#DejaVuSans-52"/>
    <use x="709.130859" xlink:href="#DejaVuSans-50"/>
    <use x="772.753906" xlink:href="#DejaVuSans-32"/>
    <use x="804.541016" xlink:href="#DejaVuSans-72"/>
    <use x="879.736328" xlink:href="#DejaVuSans-105"/>
    <use x="907.519531" xlink:href="#DejaVuSans-115"/>
    <use x="959.619141" xlink:href="#DejaVuSans-116"/>
    <use x="998.828125" xlink:href="#DejaVuSans-111"/>
    <use x="1060.009766" xlink:href="#DejaVuSans-103"/>
    <use x="1123.486328" xlink:href="#DejaVuSans-114"/>
    <use x="1164.599609" xlink:href="#DejaVuSans-97"/>
    <use x="1225.878906" xlink:href="#DejaVuSans-109"/>
   </g>
  </g>
 </g>
 <defs>
  <clipPath id="p06463d0951">
   <rect height="66.528" width="357.12" x="57.6" y="41.472"/>
  </clipPath>
  <clipPath id="pd0e1e36068">
   <rect height="66.528" width="357.12" x="57.6" y="141.264"/>
  </clipPath>
  <clipPath id="pa8a8e984a8">
   <rect height="66.528" width="357.12" x="57.6" y="241.056"/>
  </clipPath>
 </defs>
</svg>
