<?xml version="1.0" encoding="utf-8" standalone="no"?>
<!DOCTYPE svg PUBLIC "-//W3C//DTD SVG 1.1//EN"
  "http://www.w3.org/Graphics/SVG/1.1/DTD/svg11.dtd">
<!-- Created with matplotlib (https://matplotlib.org/) -->
<svg height="345.6pt" version="1.1" viewBox="0 0 460.8 345.6" width="460.8pt" xmlns="http://www.w3.org/2000/svg" xmlns:xlink="http://www.w3.org/1999/xlink">
 <defs>
  <style type="text/css">
*{stroke-linecap:butt;stroke-linejoin:round;}
  </style>
 </defs>
 <g id="figure_1">
  <g id="patch_1">
   <path d="M 0 345.6 
L 460.8 345.6 
L 460.8 0 
L 0 0 
z
" style="fill:#ffffff;"/>
  </g>
  <g id="axes_1">
   <g id="patch_2">
    <path d="M 57.6 108 
L 414.72 108 
L 414.72 41.472 
L 57.6 41.472 
z
" style="fill:#ffffff;"/>
   </g>
   <g id="patch_3">
    <path clip-path="url(#p5655360fac)" d="M 112.192501 108 
L 117.1512 108 
L 117.1512 106.622609 
L 112.192501 106.622609 
z
" style="fill:#00008b;opacity:0.4;stroke:#000000;stroke-linejoin:miter;"/>
   </g>
   <g id="patch_4">
    <path clip-path="url(#p5655360fac)" d="M 117.1512 108 
L 122.1099 108 
L 122.1099 105.933913 
L 117.1512 105.933913 
z
" style="fill:#00008b;opacity:0.4;stroke:#000000;stroke-linejoin:miter;"/>
   </g>
   <g id="patch_5">
    <path clip-path="url(#p5655360fac)" d="M 122.1099 108 
L 127.0686 108 
L 127.0686 98.358261 
L 122.1099 98.358261 
z
" style="fill:#00008b;opacity:0.4;stroke:#000000;stroke-linejoin:miter;"/>
   </g>
   <g id="patch_6">
    <path clip-path="url(#p5655360fac)" d="M 127.0686 108 
L 132.0273 108 
L 132.0273 92.848696 
L 127.0686 92.848696 
z
" style="fill:#00008b;opacity:0.4;stroke:#000000;stroke-linejoin:miter;"/>
   </g>
   <g id="patch_7">
    <path clip-path="url(#p5655360fac)" d="M 132.0273 108 
L 136.986 108 
L 136.986 90.782609 
L 132.0273 90.782609 
z
" style="fill:#00008b;opacity:0.4;stroke:#000000;stroke-linejoin:miter;"/>
   </g>
   <g id="patch_8">
    <path clip-path="url(#p5655360fac)" d="M 136.986 108 
L 141.9447 108 
L 141.9447 65.30087 
L 136.986 65.30087 
z
" style="fill:#00008b;opacity:0.4;stroke:#000000;stroke-linejoin:miter;"/>
   </g>
   <g id="patch_9">
    <path clip-path="url(#p5655360fac)" d="M 141.9447 108 
L 146.9034 108 
L 146.9034 83.895652 
L 141.9447 83.895652 
z
" style="fill:#00008b;opacity:0.4;stroke:#000000;stroke-linejoin:miter;"/>
   </g>
   <g id="patch_10">
    <path clip-path="url(#p5655360fac)" d="M 146.9034 108 
L 151.8621 108 
L 151.8621 82.518261 
L 146.9034 82.518261 
z
" style="fill:#00008b;opacity:0.4;stroke:#000000;stroke-linejoin:miter;"/>
   </g>
   <g id="patch_11">
    <path clip-path="url(#p5655360fac)" d="M 151.8621 108 
L 156.8208 108 
L 156.8208 81.829565 
L 151.8621 81.829565 
z
" style="fill:#00008b;opacity:0.4;stroke:#000000;stroke-linejoin:miter;"/>
   </g>
   <g id="patch_12">
    <path clip-path="url(#p5655360fac)" d="M 156.8208 108 
L 161.7795 108 
L 161.7795 79.074783 
L 156.8208 79.074783 
z
" style="fill:#00008b;opacity:0.4;stroke:#000000;stroke-linejoin:miter;"/>
   </g>
   <g id="patch_13">
    <path clip-path="url(#p5655360fac)" d="M 161.7795 108 
L 166.7382 108 
L 166.7382 62.546087 
L 161.7795 62.546087 
z
" style="fill:#00008b;opacity:0.4;stroke:#000000;stroke-linejoin:miter;"/>
   </g>
   <g id="patch_14">
    <path clip-path="url(#p5655360fac)" d="M 166.7382 108 
L 171.6969 108 
L 171.6969 67.366957 
L 166.7382 67.366957 
z
" style="fill:#00008b;opacity:0.4;stroke:#000000;stroke-linejoin:miter;"/>
   </g>
   <g id="patch_15">
    <path clip-path="url(#p5655360fac)" d="M 171.6969 108 
L 176.6556 108 
L 176.6556 77.008696 
L 171.6969 77.008696 
z
" style="fill:#00008b;opacity:0.4;stroke:#000000;stroke-linejoin:miter;"/>
   </g>
   <g id="patch_16">
    <path clip-path="url(#p5655360fac)" d="M 176.6556 108 
L 181.6143 108 
L 181.6143 62.546087 
L 176.6556 62.546087 
z
" style="fill:#00008b;opacity:0.4;stroke:#000000;stroke-linejoin:miter;"/>
   </g>
   <g id="patch_17">
    <path clip-path="url(#p5655360fac)" d="M 181.6143 108 
L 186.573 108 
L 186.573 76.32 
L 181.6143 76.32 
z
" style="fill:#00008b;opacity:0.4;stroke:#000000;stroke-linejoin:miter;"/>
   </g>
   <g id="patch_18">
    <path clip-path="url(#p5655360fac)" d="M 186.573 108 
L 191.5317 108 
L 191.5317 74.942609 
L 186.573 74.942609 
z
" style="fill:#00008b;opacity:0.4;stroke:#000000;stroke-linejoin:miter;"/>
   </g>
   <g id="patch_19">
    <path clip-path="url(#p5655360fac)" d="M 191.5317 108 
L 196.4904 108 
L 196.4904 79.763478 
L 191.5317 79.763478 
z
" style="fill:#00008b;opacity:0.4;stroke:#000000;stroke-linejoin:miter;"/>
   </g>
   <g id="patch_20">
    <path clip-path="url(#p5655360fac)" d="M 196.4904 108 
L 201.4491 108 
L 201.4491 74.942609 
L 196.4904 74.942609 
z
" style="fill:#00008b;opacity:0.4;stroke:#000000;stroke-linejoin:miter;"/>
   </g>
   <g id="patch_21">
    <path clip-path="url(#p5655360fac)" d="M 201.4491 108 
L 206.4078 108 
L 206.4078 67.366957 
L 201.4491 67.366957 
z
" style="fill:#00008b;opacity:0.4;stroke:#000000;stroke-linejoin:miter;"/>
   </g>
   <g id="patch_22">
    <path clip-path="url(#p5655360fac)" d="M 206.4078 108 
L 211.3665 108 
L 211.3665 57.725217 
L 206.4078 57.725217 
z
" style="fill:#00008b;opacity:0.4;stroke:#000000;stroke-linejoin:miter;"/>
   </g>
   <g id="patch_23">
    <path clip-path="url(#p5655360fac)" d="M 211.3665 108 
L 216.3252 108 
L 216.3252 70.121739 
L 211.3665 70.121739 
z
" style="fill:#00008b;opacity:0.4;stroke:#000000;stroke-linejoin:miter;"/>
   </g>
   <g id="patch_24">
    <path clip-path="url(#p5655360fac)" d="M 216.3252 108 
L 221.2839 108 
L 221.2839 70.121739 
L 216.3252 70.121739 
z
" style="fill:#00008b;opacity:0.4;stroke:#000000;stroke-linejoin:miter;"/>
   </g>
   <g id="patch_25">
    <path clip-path="url(#p5655360fac)" d="M 221.2839 108 
L 226.2426 108 
L 226.2426 81.829565 
L 221.2839 81.829565 
z
" style="fill:#00008b;opacity:0.4;stroke:#000000;stroke-linejoin:miter;"/>
   </g>
   <g id="patch_26">
    <path clip-path="url(#p5655360fac)" d="M 226.2426 108 
L 231.2013 108 
L 231.2013 69.433043 
L 226.2426 69.433043 
z
" style="fill:#00008b;opacity:0.4;stroke:#000000;stroke-linejoin:miter;"/>
   </g>
   <g id="patch_27">
    <path clip-path="url(#p5655360fac)" d="M 231.2013 108 
L 236.16 108 
L 236.16 52.215652 
L 231.2013 52.215652 
z
" style="fill:#00008b;opacity:0.4;stroke:#000000;stroke-linejoin:miter;"/>
   </g>
   <g id="patch_28">
    <path clip-path="url(#p5655360fac)" d="M 236.16 108 
L 241.1187 108 
L 241.1187 44.64 
L 236.16 44.64 
z
" style="fill:#00008b;opacity:0.4;stroke:#000000;stroke-linejoin:miter;"/>
   </g>
   <g id="patch_29">
    <path clip-path="url(#p5655360fac)" d="M 241.1187 108 
L 246.0774 108 
L 246.0774 57.725217 
L 241.1187 57.725217 
z
" style="fill:#00008b;opacity:0.4;stroke:#000000;stroke-linejoin:miter;"/>
   </g>
   <g id="patch_30">
    <path clip-path="url(#p5655360fac)" d="M 246.0774 108 
L 251.0361 108 
L 251.0361 70.810435 
L 246.0774 70.810435 
z
" style="fill:#00008b;opacity:0.4;stroke:#000000;stroke-linejoin:miter;"/>
   </g>
   <g id="patch_31">
    <path clip-path="url(#p5655360fac)" d="M 251.0361 108 
L 255.9948 108 
L 255.9948 74.253913 
L 251.0361 74.253913 
z
" style="fill:#00008b;opacity:0.4;stroke:#000000;stroke-linejoin:miter;"/>
   </g>
   <g id="patch_32">
    <path clip-path="url(#p5655360fac)" d="M 255.9948 108 
L 260.9535 108 
L 260.9535 63.234783 
L 255.9948 63.234783 
z
" style="fill:#00008b;opacity:0.4;stroke:#000000;stroke-linejoin:miter;"/>
   </g>
   <g id="patch_33">
    <path clip-path="url(#p5655360fac)" d="M 260.9535 108 
L 265.9122 108 
L 265.9122 63.923478 
L 260.9535 63.923478 
z
" style="fill:#00008b;opacity:0.4;stroke:#000000;stroke-linejoin:miter;"/>
   </g>
   <g id="patch_34">
    <path clip-path="url(#p5655360fac)" d="M 265.9122 108 
L 270.8709 108 
L 270.8709 69.433043 
L 265.9122 69.433043 
z
" style="fill:#00008b;opacity:0.4;stroke:#000000;stroke-linejoin:miter;"/>
   </g>
   <g id="patch_35">
    <path clip-path="url(#p5655360fac)" d="M 270.8709 108 
L 275.8296 108 
L 275.8296 68.744348 
L 270.8709 68.744348 
z
" style="fill:#00008b;opacity:0.4;stroke:#000000;stroke-linejoin:miter;"/>
   </g>
   <g id="patch_36">
    <path clip-path="url(#p5655360fac)" d="M 275.8296 108 
L 280.7883 108 
L 280.7883 74.253913 
L 275.8296 74.253913 
z
" style="fill:#00008b;opacity:0.4;stroke:#000000;stroke-linejoin:miter;"/>
   </g>
   <g id="patch_37">
    <path clip-path="url(#p5655360fac)" d="M 280.7883 108 
L 285.747 108 
L 285.747 70.810435 
L 280.7883 70.810435 
z
" style="fill:#00008b;opacity:0.4;stroke:#000000;stroke-linejoin:miter;"/>
   </g>
   <g id="patch_38">
    <path clip-path="url(#p5655360fac)" d="M 285.747 108 
L 290.7057 108 
L 290.7057 73.565217 
L 285.747 73.565217 
z
" style="fill:#00008b;opacity:0.4;stroke:#000000;stroke-linejoin:miter;"/>
   </g>
   <g id="patch_39">
    <path clip-path="url(#p5655360fac)" d="M 290.7057 108 
L 295.6644 108 
L 295.6644 73.565217 
L 290.7057 73.565217 
z
" style="fill:#00008b;opacity:0.4;stroke:#000000;stroke-linejoin:miter;"/>
   </g>
   <g id="patch_40">
    <path clip-path="url(#p5655360fac)" d="M 295.6644 108 
L 300.6231 108 
L 300.6231 80.452174 
L 295.6644 80.452174 
z
" style="fill:#00008b;opacity:0.4;stroke:#000000;stroke-linejoin:miter;"/>
   </g>
   <g id="patch_41">
    <path clip-path="url(#p5655360fac)" d="M 300.6231 108 
L 305.5818 108 
L 305.5818 70.810435 
L 300.6231 70.810435 
z
" style="fill:#00008b;opacity:0.4;stroke:#000000;stroke-linejoin:miter;"/>
   </g>
   <g id="patch_42">
    <path clip-path="url(#p5655360fac)" d="M 305.5818 108 
L 310.5405 108 
L 310.5405 77.697391 
L 305.5818 77.697391 
z
" style="fill:#00008b;opacity:0.4;stroke:#000000;stroke-linejoin:miter;"/>
   </g>
   <g id="patch_43">
    <path clip-path="url(#p5655360fac)" d="M 310.5405 108 
L 315.4992 108 
L 315.4992 73.565217 
L 310.5405 73.565217 
z
" style="fill:#00008b;opacity:0.4;stroke:#000000;stroke-linejoin:miter;"/>
   </g>
   <g id="patch_44">
    <path clip-path="url(#p5655360fac)" d="M 315.4992 108 
L 320.4579 108 
L 320.4579 61.168696 
L 315.4992 61.168696 
z
" style="fill:#00008b;opacity:0.4;stroke:#000000;stroke-linejoin:miter;"/>
   </g>
   <g id="patch_45">
    <path clip-path="url(#p5655360fac)" d="M 320.4579 108 
L 325.4166 108 
L 325.4166 74.942609 
L 320.4579 74.942609 
z
" style="fill:#00008b;opacity:0.4;stroke:#000000;stroke-linejoin:miter;"/>
   </g>
   <g id="patch_46">
    <path clip-path="url(#p5655360fac)" d="M 325.4166 108 
L 330.3753 108 
L 330.3753 83.206957 
L 325.4166 83.206957 
z
" style="fill:#00008b;opacity:0.4;stroke:#000000;stroke-linejoin:miter;"/>
   </g>
   <g id="patch_47">
    <path clip-path="url(#p5655360fac)" d="M 330.3753 108 
L 335.334 108 
L 335.334 85.961739 
L 330.3753 85.961739 
z
" style="fill:#00008b;opacity:0.4;stroke:#000000;stroke-linejoin:miter;"/>
   </g>
   <g id="patch_48">
    <path clip-path="url(#p5655360fac)" d="M 335.334 108 
L 340.2927 108 
L 340.2927 83.895652 
L 335.334 83.895652 
z
" style="fill:#00008b;opacity:0.4;stroke:#000000;stroke-linejoin:miter;"/>
   </g>
   <g id="patch_49">
    <path clip-path="url(#p5655360fac)" d="M 340.2927 108 
L 345.2514 108 
L 345.2514 83.895652 
L 340.2927 83.895652 
z
" style="fill:#00008b;opacity:0.4;stroke:#000000;stroke-linejoin:miter;"/>
   </g>
   <g id="patch_50">
    <path clip-path="url(#p5655360fac)" d="M 345.2514 108 
L 350.2101 108 
L 350.2101 90.093913 
L 345.2514 90.093913 
z
" style="fill:#00008b;opacity:0.4;stroke:#000000;stroke-linejoin:miter;"/>
   </g>
   <g id="patch_51">
    <path clip-path="url(#p5655360fac)" d="M 350.2101 108 
L 355.1688 108 
L 355.1688 96.292174 
L 350.2101 96.292174 
z
" style="fill:#00008b;opacity:0.4;stroke:#000000;stroke-linejoin:miter;"/>
   </g>
   <g id="patch_52">
    <path clip-path="url(#p5655360fac)" d="M 355.1688 108 
L 360.127499 108 
L 360.127499 103.867826 
L 355.1688 103.867826 
z
" style="fill:#00008b;opacity:0.4;stroke:#000000;stroke-linejoin:miter;"/>
   </g>
   <g id="matplotlib.axis_1">
    <g id="xtick_1">
     <g id="line2d_1">
      <defs>
       <path d="M 0 0 
L 0 3.5 
" id="m9b34a768b0" style="stroke:#000000;stroke-width:0.8;"/>
      </defs>
      <g>
       <use style="stroke:#000000;stroke-width:0.8;" x="88.463112" xlink:href="#m9b34a768b0" y="108"/>
      </g>
     </g>
     <g id="text_1">
      <!-- −1.0 -->
      <defs>
       <path d="M 10.59375 35.5 
L 73.1875 35.5 
L 73.1875 27.203125 
L 10.59375 27.203125 
z
" id="DejaVuSans-8722"/>
       <path d="M 12.40625 8.296875 
L 28.515625 8.296875 
L 28.515625 63.921875 
L 10.984375 60.40625 
L 10.984375 69.390625 
L 28.421875 72.90625 
L 38.28125 72.90625 
L 38.28125 8.296875 
L 54.390625 8.296875 
L 54.390625 0 
L 12.40625 0 
z
" id="DejaVuSans-49"/>
       <path d="M 10.6875 12.40625 
L 21 12.40625 
L 21 0 
L 10.6875 0 
z
" id="DejaVuSans-46"/>
       <path d="M 31.78125 66.40625 
Q 24.171875 66.40625 20.328125 58.90625 
Q 16.5 51.421875 16.5 36.375 
Q 16.5 21.390625 20.328125 13.890625 
Q 24.171875 6.390625 31.78125 6.390625 
Q 39.453125 6.390625 43.28125 13.890625 
Q 47.125 21.390625 47.125 36.375 
Q 47.125 51.421875 43.28125 58.90625 
Q 39.453125 66.40625 31.78125 66.40625 
z
M 31.78125 74.21875 
Q 44.046875 74.21875 50.515625 64.515625 
Q 56.984375 54.828125 56.984375 36.375 
Q 56.984375 17.96875 50.515625 8.265625 
Q 44.046875 -1.421875 31.78125 -1.421875 
Q 19.53125 -1.421875 13.0625 8.265625 
Q 6.59375 17.96875 6.59375 36.375 
Q 6.59375 54.828125 13.0625 64.515625 
Q 19.53125 74.21875 31.78125 74.21875 
z
" id="DejaVuSans-48"/>
      </defs>
      <g transform="translate(76.321706 122.598437)scale(0.1 -0.1)">
       <use xlink:href="#DejaVuSans-8722"/>
       <use x="83.789062" xlink:href="#DejaVuSans-49"/>
       <use x="147.412109" xlink:href="#DejaVuSans-46"/>
       <use x="179.199219" xlink:href="#DejaVuSans-48"/>
      </g>
     </g>
    </g>
    <g id="xtick_2">
     <g id="line2d_2">
      <g>
       <use style="stroke:#000000;stroke-width:0.8;" x="163.430138" xlink:href="#m9b34a768b0" y="108"/>
      </g>
     </g>
     <g id="text_2">
      <!-- −0.5 -->
      <defs>
       <path d="M 10.796875 72.90625 
L 49.515625 72.90625 
L 49.515625 64.59375 
L 19.828125 64.59375 
L 19.828125 46.734375 
Q 21.96875 47.46875 24.109375 47.828125 
Q 26.265625 48.1875 28.421875 48.1875 
Q 40.625 48.1875 47.75 41.5 
Q 54.890625 34.8125 54.890625 23.390625 
Q 54.890625 11.625 47.5625 5.09375 
Q 40.234375 -1.421875 26.90625 -1.421875 
Q 22.3125 -1.421875 17.546875 -0.640625 
Q 12.796875 0.140625 7.71875 1.703125 
L 7.71875 11.625 
Q 12.109375 9.234375 16.796875 8.0625 
Q 21.484375 6.890625 26.703125 6.890625 
Q 35.15625 6.890625 40.078125 11.328125 
Q 45.015625 15.765625 45.015625 23.390625 
Q 45.015625 31 40.078125 35.4375 
Q 35.15625 39.890625 26.703125 39.890625 
Q 22.75 39.890625 18.8125 39.015625 
Q 14.890625 38.140625 10.796875 36.28125 
z
" id="DejaVuSans-53"/>
      </defs>
      <g transform="translate(151.288732 122.598437)scale(0.1 -0.1)">
       <use xlink:href="#DejaVuSans-8722"/>
       <use x="83.789062" xlink:href="#DejaVuSans-48"/>
       <use x="147.412109" xlink:href="#DejaVuSans-46"/>
       <use x="179.199219" xlink:href="#DejaVuSans-53"/>
      </g>
     </g>
    </g>
    <g id="xtick_3">
     <g id="line2d_3">
      <g>
       <use style="stroke:#000000;stroke-width:0.8;" x="238.397164" xlink:href="#m9b34a768b0" y="108"/>
      </g>
     </g>
     <g id="text_3">
      <!-- 0.0 -->
      <g transform="translate(230.445601 122.598437)scale(0.1 -0.1)">
       <use xlink:href="#DejaVuSans-48"/>
       <use x="63.623047" xlink:href="#DejaVuSans-46"/>
       <use x="95.410156" xlink:href="#DejaVuSans-48"/>
      </g>
     </g>
    </g>
    <g id="xtick_4">
     <g id="line2d_4">
      <g>
       <use style="stroke:#000000;stroke-width:0.8;" x="313.364189" xlink:href="#m9b34a768b0" y="108"/>
      </g>
     </g>
     <g id="text_4">
      <!-- 0.5 -->
      <g transform="translate(305.412627 122.598437)scale(0.1 -0.1)">
       <use xlink:href="#DejaVuSans-48"/>
       <use x="63.623047" xlink:href="#DejaVuSans-46"/>
       <use x="95.410156" xlink:href="#DejaVuSans-53"/>
      </g>
     </g>
    </g>
    <g id="xtick_5">
     <g id="line2d_5">
      <g>
       <use style="stroke:#000000;stroke-width:0.8;" x="388.331215" xlink:href="#m9b34a768b0" y="108"/>
      </g>
     </g>
     <g id="text_5">
      <!-- 1.0 -->
      <g transform="translate(380.379653 122.598437)scale(0.1 -0.1)">
       <use xlink:href="#DejaVuSans-49"/>
       <use x="63.623047" xlink:href="#DejaVuSans-46"/>
       <use x="95.410156" xlink:href="#DejaVuSans-48"/>
      </g>
     </g>
    </g>
   </g>
   <g id="matplotlib.axis_2">
    <g id="ytick_1">
     <g id="line2d_6">
      <defs>
       <path d="M 0 0 
L -3.5 0 
" id="m6fb62c182a" style="stroke:#000000;stroke-width:0.8;"/>
      </defs>
      <g>
       <use style="stroke:#000000;stroke-width:0.8;" x="57.6" xlink:href="#m6fb62c182a" y="108"/>
      </g>
     </g>
     <g id="text_6">
      <!-- 0.0 -->
      <g transform="translate(34.696875 111.799219)scale(0.1 -0.1)">
       <use xlink:href="#DejaVuSans-48"/>
       <use x="63.623047" xlink:href="#DejaVuSans-46"/>
       <use x="95.410156" xlink:href="#DejaVuSans-48"/>
      </g>
     </g>
    </g>
    <g id="ytick_2">
     <g id="line2d_7">
      <g>
       <use style="stroke:#000000;stroke-width:0.8;" x="57.6" xlink:href="#m6fb62c182a" y="81.578779"/>
      </g>
     </g>
     <g id="text_7">
      <!-- 0.5 -->
      <g transform="translate(34.696875 85.377998)scale(0.1 -0.1)">
       <use xlink:href="#DejaVuSans-48"/>
       <use x="63.623047" xlink:href="#DejaVuSans-46"/>
       <use x="95.410156" xlink:href="#DejaVuSans-53"/>
      </g>
     </g>
    </g>
    <g id="ytick_3">
     <g id="line2d_8">
      <g>
       <use style="stroke:#000000;stroke-width:0.8;" x="57.6" xlink:href="#m6fb62c182a" y="55.157558"/>
      </g>
     </g>
     <g id="text_8">
      <!-- 1.0 -->
      <g transform="translate(34.696875 58.956776)scale(0.1 -0.1)">
       <use xlink:href="#DejaVuSans-49"/>
       <use x="63.623047" xlink:href="#DejaVuSans-46"/>
       <use x="95.410156" xlink:href="#DejaVuSans-48"/>
      </g>
     </g>
    </g>
    <g id="text_9">
     <!-- Density -->
     <defs>
      <path d="M 19.671875 64.796875 
L 19.671875 8.109375 
L 31.59375 8.109375 
Q 46.6875 8.109375 53.6875 14.9375 
Q 60.6875 21.78125 60.6875 36.53125 
Q 60.6875 51.171875 53.6875 57.984375 
Q 46.6875 64.796875 31.59375 64.796875 
z
M 9.8125 72.90625 
L 30.078125 72.90625 
Q 51.265625 72.90625 61.171875 64.09375 
Q 71.09375 55.28125 71.09375 36.53125 
Q 71.09375 17.671875 61.125 8.828125 
Q 51.171875 0 30.078125 0 
L 9.8125 0 
z
" id="DejaVuSans-68"/>
      <path d="M 56.203125 29.59375 
L 56.203125 25.203125 
L 14.890625 25.203125 
Q 15.484375 15.921875 20.484375 11.0625 
Q 25.484375 6.203125 34.421875 6.203125 
Q 39.59375 6.203125 44.453125 7.46875 
Q 49.3125 8.734375 54.109375 11.28125 
L 54.109375 2.78125 
Q 49.265625 0.734375 44.1875 -0.34375 
Q 39.109375 -1.421875 33.890625 -1.421875 
Q 20.796875 -1.421875 13.15625 6.1875 
Q 5.515625 13.8125 5.515625 26.8125 
Q 5.515625 40.234375 12.765625 48.109375 
Q 20.015625 56 32.328125 56 
Q 43.359375 56 49.78125 48.890625 
Q 56.203125 41.796875 56.203125 29.59375 
z
M 47.21875 32.234375 
Q 47.125 39.59375 43.09375 43.984375 
Q 39.0625 48.390625 32.421875 48.390625 
Q 24.90625 48.390625 20.390625 44.140625 
Q 15.875 39.890625 15.1875 32.171875 
z
" id="DejaVuSans-101"/>
      <path d="M 54.890625 33.015625 
L 54.890625 0 
L 45.90625 0 
L 45.90625 32.71875 
Q 45.90625 40.484375 42.875 44.328125 
Q 39.84375 48.1875 33.796875 48.1875 
Q 26.515625 48.1875 22.3125 43.546875 
Q 18.109375 38.921875 18.109375 30.90625 
L 18.109375 0 
L 9.078125 0 
L 9.078125 54.6875 
L 18.109375 54.6875 
L 18.109375 46.1875 
Q 21.34375 51.125 25.703125 53.5625 
Q 30.078125 56 35.796875 56 
Q 45.21875 56 50.046875 50.171875 
Q 54.890625 44.34375 54.890625 33.015625 
z
" id="DejaVuSans-110"/>
      <path d="M 44.28125 53.078125 
L 44.28125 44.578125 
Q 40.484375 46.53125 36.375 47.5 
Q 32.28125 48.484375 27.875 48.484375 
Q 21.1875 48.484375 17.84375 46.4375 
Q 14.5 44.390625 14.5 40.28125 
Q 14.5 37.15625 16.890625 35.375 
Q 19.28125 33.59375 26.515625 31.984375 
L 29.59375 31.296875 
Q 39.15625 29.25 43.1875 25.515625 
Q 47.21875 21.78125 47.21875 15.09375 
Q 47.21875 7.46875 41.1875 3.015625 
Q 35.15625 -1.421875 24.609375 -1.421875 
Q 20.21875 -1.421875 15.453125 -0.5625 
Q 10.6875 0.296875 5.421875 2 
L 5.421875 11.28125 
Q 10.40625 8.6875 15.234375 7.390625 
Q 20.0625 6.109375 24.8125 6.109375 
Q 31.15625 6.109375 34.5625 8.28125 
Q 37.984375 10.453125 37.984375 14.40625 
Q 37.984375 18.0625 35.515625 20.015625 
Q 33.0625 21.96875 24.703125 23.78125 
L 21.578125 24.515625 
Q 13.234375 26.265625 9.515625 29.90625 
Q 5.8125 33.546875 5.8125 39.890625 
Q 5.8125 47.609375 11.28125 51.796875 
Q 16.75 56 26.8125 56 
Q 31.78125 56 36.171875 55.265625 
Q 40.578125 54.546875 44.28125 53.078125 
z
" id="DejaVuSans-115"/>
      <path d="M 9.421875 54.6875 
L 18.40625 54.6875 
L 18.40625 0 
L 9.421875 0 
z
M 9.421875 75.984375 
L 18.40625 75.984375 
L 18.40625 64.59375 
L 9.421875 64.59375 
z
" id="DejaVuSans-105"/>
      <path d="M 18.3125 70.21875 
L 18.3125 54.6875 
L 36.8125 54.6875 
L 36.8125 47.703125 
L 18.3125 47.703125 
L 18.3125 18.015625 
Q 18.3125 11.328125 20.140625 9.421875 
Q 21.96875 7.515625 27.59375 7.515625 
L 36.8125 7.515625 
L 36.8125 0 
L 27.59375 0 
Q 17.1875 0 13.234375 3.875 
Q 9.28125 7.765625 9.28125 18.015625 
L 9.28125 47.703125 
L 2.6875 47.703125 
L 2.6875 54.6875 
L 9.28125 54.6875 
L 9.28125 70.21875 
z
" id="DejaVuSans-116"/>
      <path d="M 32.171875 -5.078125 
Q 28.375 -14.84375 24.75 -17.8125 
Q 21.140625 -20.796875 15.09375 -20.796875 
L 7.90625 -20.796875 
L 7.90625 -13.28125 
L 13.1875 -13.28125 
Q 16.890625 -13.28125 18.9375 -11.515625 
Q 21 -9.765625 23.484375 -3.21875 
L 25.09375 0.875 
L 2.984375 54.6875 
L 12.5 54.6875 
L 29.59375 11.921875 
L 46.6875 54.6875 
L 56.203125 54.6875 
z
" id="DejaVuSans-121"/>
     </defs>
     <g transform="translate(28.617187 93.744594)rotate(-90)scale(0.1 -0.1)">
      <use xlink:href="#DejaVuSans-68"/>
      <use x="77.001953" xlink:href="#DejaVuSans-101"/>
      <use x="138.525391" xlink:href="#DejaVuSans-110"/>
      <use x="201.904297" xlink:href="#DejaVuSans-115"/>
      <use x="254.003906" xlink:href="#DejaVuSans-105"/>
      <use x="281.787109" xlink:href="#DejaVuSans-116"/>
      <use x="320.996094" xlink:href="#DejaVuSans-121"/>
     </g>
    </g>
   </g>
   <g id="line2d_9">
    <path clip-path="url(#p5655360fac)" d="M 73.832727 107.996403 
L 77.112066 107.991725 
L 80.391405 107.981896 
L 83.670744 107.962261 
L 86.950083 107.924888 
L 90.229421 107.85698 
L 93.50876 107.739007 
L 96.788099 107.542836 
L 100.067438 107.230403 
L 103.346777 106.753715 
L 106.626116 106.057153 
L 109.905455 105.082904 
L 113.184793 103.779847 
L 116.464132 102.115191 
L 119.743471 100.086864 
L 123.02281 97.733335 
L 126.302149 95.136825 
L 129.581488 92.416506 
L 132.860826 89.710581 
L 136.140165 87.150078 
L 139.419504 84.831338 
L 142.698843 82.796523 
L 145.978182 81.030095 
L 149.257521 79.473826 
L 152.53686 78.055439 
L 155.816198 76.720088 
L 159.095537 75.452582 
L 162.374876 74.282389 
L 165.654215 73.270669 
L 168.933554 72.485409 
L 172.212893 71.974178 
L 175.492231 71.743431 
L 178.77157 71.750175 
L 182.050909 71.907853 
L 185.330248 72.104815 
L 188.609587 72.230706 
L 191.888926 72.203616 
L 195.168264 71.989498 
L 198.447603 71.606523 
L 201.726942 71.111306 
L 205.006281 70.570676 
L 208.28562 70.029291 
L 211.564959 69.486746 
L 214.844298 68.895575 
L 218.123636 68.18363 
L 221.402975 67.293585 
L 224.682314 66.223292 
L 227.961653 65.048204 
L 231.240992 63.913135 
L 234.520331 62.993566 
L 237.799669 62.440791 
L 241.079008 62.333464 
L 244.358347 62.655894 
L 247.637686 63.311359 
L 250.917025 64.162787 
L 254.196364 65.081478 
L 257.475702 65.983048 
L 260.755041 66.838254 
L 264.03438 67.659615 
L 267.313719 68.475284 
L 270.593058 69.304627 
L 273.872397 70.145379 
L 277.151736 70.974187 
L 280.431074 71.75569 
L 283.710413 72.453201 
L 286.989752 73.036234 
L 290.269091 73.484077 
L 293.54843 73.787685 
L 296.827769 73.952567 
L 300.107107 74.003546 
L 303.386446 73.989471 
L 306.665785 73.984117 
L 309.945124 74.079803 
L 313.224463 74.372937 
L 316.503802 74.944672 
L 319.78314 75.843191 
L 323.062479 77.074762 
L 326.341818 78.60762 
L 329.621157 80.387237 
L 332.900496 82.356121 
L 336.179835 84.46923 
L 339.459174 86.698442 
L 342.738512 89.025255 
L 346.017851 91.426749 
L 349.29719 93.862722 
L 352.576529 96.270746 
L 355.855868 98.57157 
L 359.135207 100.682501 
L 362.414545 102.533342 
L 365.693884 104.079193 
L 368.973223 105.30643 
L 372.252562 106.231119 
L 375.531901 106.891613 
L 378.81124 107.338423 
L 382.090579 107.624429 
L 385.369917 107.797509 
L 388.649256 107.896451 
L 391.928595 107.949838 
L 395.207934 107.977006 
L 398.487273 107.990036 
" style="fill:none;stroke:#00008b;stroke-linecap:square;stroke-width:4;"/>
   </g>
   <g id="patch_53">
    <path d="M 57.6 108 
L 57.6 41.472 
" style="fill:none;stroke:#000000;stroke-linecap:square;stroke-linejoin:miter;stroke-width:0.8;"/>
   </g>
   <g id="patch_54">
    <path d="M 414.72 108 
L 414.72 41.472 
" style="fill:none;stroke:#000000;stroke-linecap:square;stroke-linejoin:miter;stroke-width:0.8;"/>
   </g>
   <g id="patch_55">
    <path d="M 57.6 108 
L 414.72 108 
" style="fill:none;stroke:#000000;stroke-linecap:square;stroke-linejoin:miter;stroke-width:0.8;"/>
   </g>
   <g id="patch_56">
    <path d="M 57.6 41.472 
L 414.72 41.472 
" style="fill:none;stroke:#000000;stroke-linecap:square;stroke-linejoin:miter;stroke-width:0.8;"/>
   </g>
   <g id="legend_1">
    <g id="patch_57">
     <path d="M 369.80125 64.150125 
L 407.72 64.150125 
Q 409.72 64.150125 409.72 62.150125 
L 409.72 48.472 
Q 409.72 46.472 407.72 46.472 
L 369.80125 46.472 
Q 367.80125 46.472 367.80125 48.472 
L 367.80125 62.150125 
Q 367.80125 64.150125 369.80125 64.150125 
z
" style="fill:#ffffff;opacity:0.8;stroke:#cccccc;stroke-linejoin:miter;"/>
    </g>
    <g id="patch_58">
     <path d="M 371.80125 58.070438 
L 391.80125 58.070438 
L 391.80125 51.070438 
L 371.80125 51.070438 
z
" style="fill:#00008b;opacity:0.4;stroke:#000000;stroke-linejoin:miter;"/>
    </g>
    <g id="text_10">
     <!-- x -->
     <defs>
      <path d="M 54.890625 54.6875 
L 35.109375 28.078125 
L 55.90625 0 
L 45.3125 0 
L 29.390625 21.484375 
L 13.484375 0 
L 2.875 0 
L 24.125 28.609375 
L 4.6875 54.6875 
L 15.28125 54.6875 
L 29.78125 35.203125 
L 44.28125 54.6875 
z
" id="DejaVuSans-120"/>
     </defs>
     <g transform="translate(399.80125 58.070438)scale(0.1 -0.1)">
      <use xlink:href="#DejaVuSans-120"/>
     </g>
    </g>
   </g>
  </g>
  <g id="axes_2">
   <g id="patch_59">
    <path d="M 57.6 207.792 
L 414.72 207.792 
L 414.72 141.264 
L 57.6 141.264 
z
" style="fill:#ffffff;"/>
   </g>
   <g id="patch_60">
    <path clip-path="url(#pe5610ac0f6)" d="M 111.93943 207.792 
L 116.908252 207.792 
L 116.908252 206.318512 
L 111.93943 206.318512 
z
" style="fill:#006400;opacity:0.4;stroke:#000000;stroke-linejoin:miter;"/>
   </g>
   <g id="patch_61">
    <path clip-path="url(#pe5610ac0f6)" d="M 116.908252 207.792 
L 121.877075 207.792 
L 121.877075 206.318512 
L 116.908252 206.318512 
z
" style="fill:#006400;opacity:0.4;stroke:#000000;stroke-linejoin:miter;"/>
   </g>
   <g id="patch_62">
    <path clip-path="url(#pe5610ac0f6)" d="M 121.877075 207.792 
L 126.845898 207.792 
L 126.845898 204.108279 
L 121.877075 204.108279 
z
" style="fill:#006400;opacity:0.4;stroke:#000000;stroke-linejoin:miter;"/>
   </g>
   <g id="patch_63">
    <path clip-path="url(#pe5610ac0f6)" d="M 126.845898 207.792 
L 131.814721 207.792 
L 131.814721 202.634791 
L 126.845898 202.634791 
z
" style="fill:#006400;opacity:0.4;stroke:#000000;stroke-linejoin:miter;"/>
   </g>
   <g id="patch_64">
    <path clip-path="url(#pe5610ac0f6)" d="M 131.814721 207.792 
L 136.783544 207.792 
L 136.783544 197.477581 
L 131.814721 197.477581 
z
" style="fill:#006400;opacity:0.4;stroke:#000000;stroke-linejoin:miter;"/>
   </g>
   <g id="patch_65">
    <path clip-path="url(#pe5610ac0f6)" d="M 136.783544 207.792 
L 141.752366 207.792 
L 141.752366 176.848744 
L 136.783544 176.848744 
z
" style="fill:#006400;opacity:0.4;stroke:#000000;stroke-linejoin:miter;"/>
   </g>
   <g id="patch_66">
    <path clip-path="url(#pe5610ac0f6)" d="M 141.752366 207.792 
L 146.721189 207.792 
L 146.721189 173.901767 
L 141.752366 173.901767 
z
" style="fill:#006400;opacity:0.4;stroke:#000000;stroke-linejoin:miter;"/>
   </g>
   <g id="patch_67">
    <path clip-path="url(#pe5610ac0f6)" d="M 146.721189 207.792 
L 151.690012 207.792 
L 151.690012 175.375256 
L 146.721189 175.375256 
z
" style="fill:#006400;opacity:0.4;stroke:#000000;stroke-linejoin:miter;"/>
   </g>
   <g id="patch_68">
    <path clip-path="url(#pe5610ac0f6)" d="M 151.690012 207.792 
L 156.658835 207.792 
L 156.658835 151.799442 
L 151.690012 151.799442 
z
" style="fill:#006400;opacity:0.4;stroke:#000000;stroke-linejoin:miter;"/>
   </g>
   <g id="patch_69">
    <path clip-path="url(#pe5610ac0f6)" d="M 156.658835 207.792 
L 161.627658 207.792 
L 161.627658 167.27107 
L 156.658835 167.27107 
z
" style="fill:#006400;opacity:0.4;stroke:#000000;stroke-linejoin:miter;"/>
   </g>
   <g id="patch_70">
    <path clip-path="url(#pe5610ac0f6)" d="M 161.627658 207.792 
L 166.596481 207.792 
L 166.596481 182.005953 
L 161.627658 182.005953 
z
" style="fill:#006400;opacity:0.4;stroke:#000000;stroke-linejoin:miter;"/>
   </g>
   <g id="patch_71">
    <path clip-path="url(#pe5610ac0f6)" d="M 166.596481 207.792 
L 171.565303 207.792 
L 171.565303 179.058977 
L 166.596481 179.058977 
z
" style="fill:#006400;opacity:0.4;stroke:#000000;stroke-linejoin:miter;"/>
   </g>
   <g id="patch_72">
    <path clip-path="url(#pe5610ac0f6)" d="M 171.565303 207.792 
L 176.534126 207.792 
L 176.534126 176.848744 
L 171.565303 176.848744 
z
" style="fill:#006400;opacity:0.4;stroke:#000000;stroke-linejoin:miter;"/>
   </g>
   <g id="patch_73">
    <path clip-path="url(#pe5610ac0f6)" d="M 176.534126 207.792 
L 181.502949 207.792 
L 181.502949 170.218047 
L 176.534126 170.218047 
z
" style="fill:#006400;opacity:0.4;stroke:#000000;stroke-linejoin:miter;"/>
   </g>
   <g id="patch_74">
    <path clip-path="url(#pe5610ac0f6)" d="M 181.502949 207.792 
L 186.471772 207.792 
L 186.471772 173.165023 
L 181.502949 173.165023 
z
" style="fill:#006400;opacity:0.4;stroke:#000000;stroke-linejoin:miter;"/>
   </g>
   <g id="patch_75">
    <path clip-path="url(#pe5610ac0f6)" d="M 186.471772 207.792 
L 191.440595 207.792 
L 191.440595 168.744558 
L 186.471772 168.744558 
z
" style="fill:#006400;opacity:0.4;stroke:#000000;stroke-linejoin:miter;"/>
   </g>
   <g id="patch_76">
    <path clip-path="url(#pe5610ac0f6)" d="M 191.440595 207.792 
L 196.409417 207.792 
L 196.409417 151.062698 
L 191.440595 151.062698 
z
" style="fill:#006400;opacity:0.4;stroke:#000000;stroke-linejoin:miter;"/>
   </g>
   <g id="patch_77">
    <path clip-path="url(#pe5610ac0f6)" d="M 196.409417 207.792 
L 201.37824 207.792 
L 201.37824 165.797581 
L 196.409417 165.797581 
z
" style="fill:#006400;opacity:0.4;stroke:#000000;stroke-linejoin:miter;"/>
   </g>
   <g id="patch_78">
    <path clip-path="url(#pe5610ac0f6)" d="M 201.37824 207.792 
L 206.347063 207.792 
L 206.347063 170.954791 
L 201.37824 170.954791 
z
" style="fill:#006400;opacity:0.4;stroke:#000000;stroke-linejoin:miter;"/>
   </g>
   <g id="patch_79">
    <path clip-path="url(#pe5610ac0f6)" d="M 206.347063 207.792 
L 211.315886 207.792 
L 211.315886 161.377116 
L 206.347063 161.377116 
z
" style="fill:#006400;opacity:0.4;stroke:#000000;stroke-linejoin:miter;"/>
   </g>
   <g id="patch_80">
    <path clip-path="url(#pe5610ac0f6)" d="M 211.315886 207.792 
L 216.284709 207.792 
L 216.284709 177.585488 
L 211.315886 177.585488 
z
" style="fill:#006400;opacity:0.4;stroke:#000000;stroke-linejoin:miter;"/>
   </g>
   <g id="patch_81">
    <path clip-path="url(#pe5610ac0f6)" d="M 216.284709 207.792 
L 221.253532 207.792 
L 221.253532 176.848744 
L 216.284709 176.848744 
z
" style="fill:#006400;opacity:0.4;stroke:#000000;stroke-linejoin:miter;"/>
   </g>
   <g id="patch_82">
    <path clip-path="url(#pe5610ac0f6)" d="M 221.253532 207.792 
L 226.222354 207.792 
L 226.222354 166.534326 
L 221.253532 166.534326 
z
" style="fill:#006400;opacity:0.4;stroke:#000000;stroke-linejoin:miter;"/>
   </g>
   <g id="patch_83">
    <path clip-path="url(#pe5610ac0f6)" d="M 226.222354 207.792 
L 231.191177 207.792 
L 231.191177 164.324093 
L 226.222354 164.324093 
z
" style="fill:#006400;opacity:0.4;stroke:#000000;stroke-linejoin:miter;"/>
   </g>
   <g id="patch_84">
    <path clip-path="url(#pe5610ac0f6)" d="M 231.191177 207.792 
L 236.16 207.792 
L 236.16 156.956651 
L 231.191177 156.956651 
z
" style="fill:#006400;opacity:0.4;stroke:#000000;stroke-linejoin:miter;"/>
   </g>
   <g id="patch_85">
    <path clip-path="url(#pe5610ac0f6)" d="M 236.16 207.792 
L 241.128823 207.792 
L 241.128823 144.432 
L 236.16 144.432 
z
" style="fill:#006400;opacity:0.4;stroke:#000000;stroke-linejoin:miter;"/>
   </g>
   <g id="patch_86">
    <path clip-path="url(#pe5610ac0f6)" d="M 241.128823 207.792 
L 246.097646 207.792 
L 246.097646 145.905488 
L 241.128823 145.905488 
z
" style="fill:#006400;opacity:0.4;stroke:#000000;stroke-linejoin:miter;"/>
   </g>
   <g id="patch_87">
    <path clip-path="url(#pe5610ac0f6)" d="M 246.097646 207.792 
L 251.066468 207.792 
L 251.066468 162.850605 
L 246.097646 162.850605 
z
" style="fill:#006400;opacity:0.4;stroke:#000000;stroke-linejoin:miter;"/>
   </g>
   <g id="patch_88">
    <path clip-path="url(#pe5610ac0f6)" d="M 251.066468 207.792 
L 256.035291 207.792 
L 256.035291 152.536186 
L 251.066468 152.536186 
z
" style="fill:#006400;opacity:0.4;stroke:#000000;stroke-linejoin:miter;"/>
   </g>
   <g id="patch_89">
    <path clip-path="url(#pe5610ac0f6)" d="M 256.035291 207.792 
L 261.004114 207.792 
L 261.004114 167.27107 
L 256.035291 167.27107 
z
" style="fill:#006400;opacity:0.4;stroke:#000000;stroke-linejoin:miter;"/>
   </g>
   <g id="patch_90">
    <path clip-path="url(#pe5610ac0f6)" d="M 261.004114 207.792 
L 265.972937 207.792 
L 265.972937 182.005953 
L 261.004114 182.005953 
z
" style="fill:#006400;opacity:0.4;stroke:#000000;stroke-linejoin:miter;"/>
   </g>
   <g id="patch_91">
    <path clip-path="url(#pe5610ac0f6)" d="M 265.972937 207.792 
L 270.94176 207.792 
L 270.94176 172.428279 
L 265.972937 172.428279 
z
" style="fill:#006400;opacity:0.4;stroke:#000000;stroke-linejoin:miter;"/>
   </g>
   <g id="patch_92">
    <path clip-path="url(#pe5610ac0f6)" d="M 270.94176 207.792 
L 275.910583 207.792 
L 275.910583 172.428279 
L 270.94176 172.428279 
z
" style="fill:#006400;opacity:0.4;stroke:#000000;stroke-linejoin:miter;"/>
   </g>
   <g id="patch_93">
    <path clip-path="url(#pe5610ac0f6)" d="M 275.910583 207.792 
L 280.879405 207.792 
L 280.879405 176.848744 
L 275.910583 176.848744 
z
" style="fill:#006400;opacity:0.4;stroke:#000000;stroke-linejoin:miter;"/>
   </g>
   <g id="patch_94">
    <path clip-path="url(#pe5610ac0f6)" d="M 280.879405 207.792 
L 285.848228 207.792 
L 285.848228 162.850605 
L 280.879405 162.850605 
z
" style="fill:#006400;opacity:0.4;stroke:#000000;stroke-linejoin:miter;"/>
   </g>
   <g id="patch_95">
    <path clip-path="url(#pe5610ac0f6)" d="M 285.848228 207.792 
L 290.817051 207.792 
L 290.817051 170.218047 
L 285.848228 170.218047 
z
" style="fill:#006400;opacity:0.4;stroke:#000000;stroke-linejoin:miter;"/>
   </g>
   <g id="patch_96">
    <path clip-path="url(#pe5610ac0f6)" d="M 290.817051 207.792 
L 295.785874 207.792 
L 295.785874 154.746419 
L 290.817051 154.746419 
z
" style="fill:#006400;opacity:0.4;stroke:#000000;stroke-linejoin:miter;"/>
   </g>
   <g id="patch_97">
    <path clip-path="url(#pe5610ac0f6)" d="M 295.785874 207.792 
L 300.754697 207.792 
L 300.754697 171.691535 
L 295.785874 171.691535 
z
" style="fill:#006400;opacity:0.4;stroke:#000000;stroke-linejoin:miter;"/>
   </g>
   <g id="patch_98">
    <path clip-path="url(#pe5610ac0f6)" d="M 300.754697 207.792 
L 305.723519 207.792 
L 305.723519 176.112 
L 300.754697 176.112 
z
" style="fill:#006400;opacity:0.4;stroke:#000000;stroke-linejoin:miter;"/>
   </g>
   <g id="patch_99">
    <path clip-path="url(#pe5610ac0f6)" d="M 305.723519 207.792 
L 310.692342 207.792 
L 310.692342 163.587349 
L 305.723519 163.587349 
z
" style="fill:#006400;opacity:0.4;stroke:#000000;stroke-linejoin:miter;"/>
   </g>
   <g id="patch_100">
    <path clip-path="url(#pe5610ac0f6)" d="M 310.692342 207.792 
L 315.661165 207.792 
L 315.661165 168.744558 
L 310.692342 168.744558 
z
" style="fill:#006400;opacity:0.4;stroke:#000000;stroke-linejoin:miter;"/>
   </g>
   <g id="patch_101">
    <path clip-path="url(#pe5610ac0f6)" d="M 315.661165 207.792 
L 320.629988 207.792 
L 320.629988 171.691535 
L 315.661165 171.691535 
z
" style="fill:#006400;opacity:0.4;stroke:#000000;stroke-linejoin:miter;"/>
   </g>
   <g id="patch_102">
    <path clip-path="url(#pe5610ac0f6)" d="M 320.629988 207.792 
L 325.598811 207.792 
L 325.598811 170.218047 
L 320.629988 170.218047 
z
" style="fill:#006400;opacity:0.4;stroke:#000000;stroke-linejoin:miter;"/>
   </g>
   <g id="patch_103">
    <path clip-path="url(#pe5610ac0f6)" d="M 325.598811 207.792 
L 330.567634 207.792 
L 330.567634 170.218047 
L 325.598811 170.218047 
z
" style="fill:#006400;opacity:0.4;stroke:#000000;stroke-linejoin:miter;"/>
   </g>
   <g id="patch_104">
    <path clip-path="url(#pe5610ac0f6)" d="M 330.567634 207.792 
L 335.536456 207.792 
L 335.536456 161.377116 
L 330.567634 161.377116 
z
" style="fill:#006400;opacity:0.4;stroke:#000000;stroke-linejoin:miter;"/>
   </g>
   <g id="patch_105">
    <path clip-path="url(#pe5610ac0f6)" d="M 335.536456 207.792 
L 340.505279 207.792 
L 340.505279 170.954791 
L 335.536456 170.954791 
z
" style="fill:#006400;opacity:0.4;stroke:#000000;stroke-linejoin:miter;"/>
   </g>
   <g id="patch_106">
    <path clip-path="url(#pe5610ac0f6)" d="M 340.505279 207.792 
L 345.474102 207.792 
L 345.474102 185.689674 
L 340.505279 185.689674 
z
" style="fill:#006400;opacity:0.4;stroke:#000000;stroke-linejoin:miter;"/>
   </g>
   <g id="patch_107">
    <path clip-path="url(#pe5610ac0f6)" d="M 345.474102 207.792 
L 350.442925 207.792 
L 350.442925 196.740837 
L 345.474102 196.740837 
z
" style="fill:#006400;opacity:0.4;stroke:#000000;stroke-linejoin:miter;"/>
   </g>
   <g id="patch_108">
    <path clip-path="url(#pe5610ac0f6)" d="M 350.442925 207.792 
L 355.411748 207.792 
L 355.411748 201.161302 
L 350.442925 201.161302 
z
" style="fill:#006400;opacity:0.4;stroke:#000000;stroke-linejoin:miter;"/>
   </g>
   <g id="patch_109">
    <path clip-path="url(#pe5610ac0f6)" d="M 355.411748 207.792 
L 360.38057 207.792 
L 360.38057 204.108279 
L 355.411748 204.108279 
z
" style="fill:#006400;opacity:0.4;stroke:#000000;stroke-linejoin:miter;"/>
   </g>
   <g id="matplotlib.axis_3">
    <g id="xtick_6">
     <g id="line2d_10">
      <g>
       <use style="stroke:#000000;stroke-width:0.8;" x="93.213423" xlink:href="#m9b34a768b0" y="207.792"/>
      </g>
     </g>
     <g id="text_11">
      <!-- −1.0 -->
      <g transform="translate(81.072016 222.390437)scale(0.1 -0.1)">
       <use xlink:href="#DejaVuSans-8722"/>
       <use x="83.789062" xlink:href="#DejaVuSans-49"/>
       <use x="147.412109" xlink:href="#DejaVuSans-46"/>
       <use x="179.199219" xlink:href="#DejaVuSans-48"/>
      </g>
     </g>
    </g>
    <g id="xtick_7">
     <g id="line2d_11">
      <g>
       <use style="stroke:#000000;stroke-width:0.8;" x="167.294" xlink:href="#m9b34a768b0" y="207.792"/>
      </g>
     </g>
     <g id="text_12">
      <!-- −0.5 -->
      <g transform="translate(155.152594 222.390437)scale(0.1 -0.1)">
       <use xlink:href="#DejaVuSans-8722"/>
       <use x="83.789062" xlink:href="#DejaVuSans-48"/>
       <use x="147.412109" xlink:href="#DejaVuSans-46"/>
       <use x="179.199219" xlink:href="#DejaVuSans-53"/>
      </g>
     </g>
    </g>
    <g id="xtick_8">
     <g id="line2d_12">
      <g>
       <use style="stroke:#000000;stroke-width:0.8;" x="241.374577" xlink:href="#m9b34a768b0" y="207.792"/>
      </g>
     </g>
     <g id="text_13">
      <!-- 0.0 -->
      <g transform="translate(233.423015 222.390437)scale(0.1 -0.1)">
       <use xlink:href="#DejaVuSans-48"/>
       <use x="63.623047" xlink:href="#DejaVuSans-46"/>
       <use x="95.410156" xlink:href="#DejaVuSans-48"/>
      </g>
     </g>
    </g>
    <g id="xtick_9">
     <g id="line2d_13">
      <g>
       <use style="stroke:#000000;stroke-width:0.8;" x="315.455154" xlink:href="#m9b34a768b0" y="207.792"/>
      </g>
     </g>
     <g id="text_14">
      <!-- 0.5 -->
      <g transform="translate(307.503592 222.390437)scale(0.1 -0.1)">
       <use xlink:href="#DejaVuSans-48"/>
       <use x="63.623047" xlink:href="#DejaVuSans-46"/>
       <use x="95.410156" xlink:href="#DejaVuSans-53"/>
      </g>
     </g>
    </g>
    <g id="xtick_10">
     <g id="line2d_14">
      <g>
       <use style="stroke:#000000;stroke-width:0.8;" x="389.535731" xlink:href="#m9b34a768b0" y="207.792"/>
      </g>
     </g>
     <g id="text_15">
      <!-- 1.0 -->
      <g transform="translate(381.584169 222.390437)scale(0.1 -0.1)">
       <use xlink:href="#DejaVuSans-49"/>
       <use x="63.623047" xlink:href="#DejaVuSans-46"/>
       <use x="95.410156" xlink:href="#DejaVuSans-48"/>
      </g>
     </g>
    </g>
   </g>
   <g id="matplotlib.axis_4">
    <g id="ytick_4">
     <g id="line2d_15">
      <g>
       <use style="stroke:#000000;stroke-width:0.8;" x="57.6" xlink:href="#m6fb62c182a" y="207.792"/>
      </g>
     </g>
     <g id="text_16">
      <!-- 0.0 -->
      <g transform="translate(34.696875 211.591219)scale(0.1 -0.1)">
       <use xlink:href="#DejaVuSans-48"/>
       <use x="63.623047" xlink:href="#DejaVuSans-46"/>
       <use x="95.410156" xlink:href="#DejaVuSans-48"/>
      </g>
     </g>
    </g>
    <g id="ytick_5">
     <g id="line2d_16">
      <g>
       <use style="stroke:#000000;stroke-width:0.8;" x="57.6" xlink:href="#m6fb62c182a" y="179.130833"/>
      </g>
     </g>
     <g id="text_17">
      <!-- 0.5 -->
      <g transform="translate(34.696875 182.930052)scale(0.1 -0.1)">
       <use xlink:href="#DejaVuSans-48"/>
       <use x="63.623047" xlink:href="#DejaVuSans-46"/>
       <use x="95.410156" xlink:href="#DejaVuSans-53"/>
      </g>
     </g>
    </g>
    <g id="ytick_6">
     <g id="line2d_17">
      <g>
       <use style="stroke:#000000;stroke-width:0.8;" x="57.6" xlink:href="#m6fb62c182a" y="150.469667"/>
      </g>
     </g>
     <g id="text_18">
      <!-- 1.0 -->
      <g transform="translate(34.696875 154.268885)scale(0.1 -0.1)">
       <use xlink:href="#DejaVuSans-49"/>
       <use x="63.623047" xlink:href="#DejaVuSans-46"/>
       <use x="95.410156" xlink:href="#DejaVuSans-48"/>
      </g>
     </g>
    </g>
    <g id="text_19">
     <!-- Density -->
     <g transform="translate(28.617187 193.536594)rotate(-90)scale(0.1 -0.1)">
      <use xlink:href="#DejaVuSans-68"/>
      <use x="77.001953" xlink:href="#DejaVuSans-101"/>
      <use x="138.525391" xlink:href="#DejaVuSans-110"/>
      <use x="201.904297" xlink:href="#DejaVuSans-115"/>
      <use x="254.003906" xlink:href="#DejaVuSans-105"/>
      <use x="281.787109" xlink:href="#DejaVuSans-116"/>
      <use x="320.996094" xlink:href="#DejaVuSans-121"/>
     </g>
    </g>
   </g>
   <g id="line2d_18">
    <path clip-path="url(#pe5610ac0f6)" d="M 73.832727 207.789778 
L 77.112066 207.78696 
L 80.391405 207.781155 
L 83.670744 207.7698 
L 86.950083 207.74864 
L 90.229421 207.710929 
L 93.50876 207.64638 
L 96.788099 207.5398 
L 100.067438 207.369383 
L 103.346777 207.104664 
L 106.626116 206.704438 
L 109.905455 206.115288 
L 113.184793 205.271923 
L 116.464132 204.1009 
L 119.743471 202.529158 
L 123.02281 200.497858 
L 126.302149 197.980097 
L 129.581488 194.998841 
L 132.860826 191.639764 
L 136.140165 188.053576 
L 139.419504 184.444334 
L 142.698843 181.043595 
L 145.978182 178.074054 
L 149.257521 175.709652 
L 152.53686 174.041073 
L 155.816198 173.055721 
L 159.095537 172.638849 
L 162.374876 172.597474 
L 165.654215 172.702151 
L 168.933554 172.735908 
L 172.212893 172.537549 
L 175.492231 172.028922 
L 178.77157 171.221473 
L 182.050909 170.203487 
L 185.330248 169.113414 
L 188.609587 168.106086 
L 191.888926 167.318319 
L 195.168264 166.839583 
L 198.447603 166.692471 
L 201.726942 166.826288 
L 205.006281 167.124874 
L 208.28562 167.427285 
L 211.564959 167.557764 
L 214.844298 167.360085 
L 218.123636 166.730669 
L 221.402975 165.644626 
L 224.682314 164.169099 
L 227.961653 162.45959 
L 231.240992 160.737853 
L 234.520331 159.254184 
L 237.799669 158.241368 
L 241.079008 157.870365 
L 244.358347 158.217753 
L 247.637686 159.25192 
L 250.917025 160.840278 
L 254.196364 162.774921 
L 257.475702 164.81062 
L 260.755041 166.707096 
L 264.03438 168.267348 
L 267.313719 169.36511 
L 270.593058 169.957324 
L 273.872397 170.080998 
L 277.151736 169.837078 
L 280.431074 169.365823 
L 283.710413 168.818584 
L 286.989752 168.330501 
L 290.269091 167.998332 
L 293.54843 167.86736 
L 296.827769 167.93037 
L 300.107107 168.139219 
L 303.386446 168.425979 
L 306.665785 168.72776 
L 309.945124 169.008586 
L 313.224463 169.273538 
L 316.503802 169.573343 
L 319.78314 169.999829 
L 323.062479 170.673346 
L 326.341818 171.723137 
L 329.621157 173.262278 
L 332.900496 175.3608 
L 336.179835 178.023164 
L 339.459174 181.177214 
L 342.738512 184.679694 
L 346.017851 188.338405 
L 349.29719 191.945395 
L 352.576529 195.311792 
L 355.855868 198.294935 
L 359.135207 200.81199 
L 362.414545 202.839359 
L 365.693884 204.401502 
L 368.973223 205.554719 
L 372.252562 206.370942 
L 375.531901 206.924716 
L 378.81124 207.28449 
L 382.090579 207.50792 
L 385.369917 207.640263 
L 388.649256 207.714847 
L 391.928595 207.75474 
L 395.207934 207.774944 
L 398.487273 207.784614 
" style="fill:none;stroke:#006400;stroke-linecap:square;stroke-width:4;"/>
   </g>
   <g id="patch_110">
    <path d="M 57.6 207.792 
L 57.6 141.264 
" style="fill:none;stroke:#000000;stroke-linecap:square;stroke-linejoin:miter;stroke-width:0.8;"/>
   </g>
   <g id="patch_111">
    <path d="M 414.72 207.792 
L 414.72 141.264 
" style="fill:none;stroke:#000000;stroke-linecap:square;stroke-linejoin:miter;stroke-width:0.8;"/>
   </g>
   <g id="patch_112">
    <path d="M 57.6 207.792 
L 414.72 207.792 
" style="fill:none;stroke:#000000;stroke-linecap:square;stroke-linejoin:miter;stroke-width:0.8;"/>
   </g>
   <g id="patch_113">
    <path d="M 57.6 141.264 
L 414.72 141.264 
" style="fill:none;stroke:#000000;stroke-linecap:square;stroke-linejoin:miter;stroke-width:0.8;"/>
   </g>
   <g id="legend_2">
    <g id="patch_114">
     <path d="M 369.80125 163.942125 
L 407.72 163.942125 
Q 409.72 163.942125 409.72 161.942125 
L 409.72 148.264 
Q 409.72 146.264 407.72 146.264 
L 369.80125 146.264 
Q 367.80125 146.264 367.80125 148.264 
L 367.80125 161.942125 
Q 367.80125 163.942125 369.80125 163.942125 
z
" style="fill:#ffffff;opacity:0.8;stroke:#cccccc;stroke-linejoin:miter;"/>
    </g>
    <g id="patch_115">
     <path d="M 371.80125 157.862437 
L 391.80125 157.862437 
L 391.80125 150.862437 
L 371.80125 150.862437 
z
" style="fill:#006400;opacity:0.4;stroke:#000000;stroke-linejoin:miter;"/>
    </g>
    <g id="text_20">
     <!-- y -->
     <g transform="translate(399.80125 157.862437)scale(0.1 -0.1)">
      <use xlink:href="#DejaVuSans-121"/>
     </g>
    </g>
   </g>
  </g>
  <g id="axes_3">
   <g id="patch_116">
    <path d="M 57.6 307.584 
L 414.72 307.584 
L 414.72 241.056 
L 57.6 241.056 
z
" style="fill:#ffffff;"/>
   </g>
   <g id="patch_117">
    <path clip-path="url(#pdf77b48039)" d="M 113.089811 307.584 
L 118.012619 307.584 
L 118.012619 303.058286 
L 113.089811 303.058286 
z
" style="fill:#8b0000;opacity:0.4;stroke:#000000;stroke-linejoin:miter;"/>
   </g>
   <g id="patch_118">
    <path clip-path="url(#pdf77b48039)" d="M 118.012619 307.584 
L 122.935426 307.584 
L 122.935426 293.252571 
L 118.012619 293.252571 
z
" style="fill:#8b0000;opacity:0.4;stroke:#000000;stroke-linejoin:miter;"/>
   </g>
   <g id="patch_119">
    <path clip-path="url(#pdf77b48039)" d="M 122.935426 307.584 
L 127.858234 307.584 
L 127.858234 297.024 
L 122.935426 297.024 
z
" style="fill:#8b0000;opacity:0.4;stroke:#000000;stroke-linejoin:miter;"/>
   </g>
   <g id="patch_120">
    <path clip-path="url(#pdf77b48039)" d="M 127.858234 307.584 
L 132.781041 307.584 
L 132.781041 275.904 
L 127.858234 275.904 
z
" style="fill:#8b0000;opacity:0.4;stroke:#000000;stroke-linejoin:miter;"/>
   </g>
   <g id="patch_121">
    <path clip-path="url(#pdf77b48039)" d="M 132.781041 307.584 
L 137.703849 307.584 
L 137.703849 267.606857 
L 132.781041 267.606857 
z
" style="fill:#8b0000;opacity:0.4;stroke:#000000;stroke-linejoin:miter;"/>
   </g>
   <g id="patch_122">
    <path clip-path="url(#pdf77b48039)" d="M 137.703849 307.584 
L 142.626657 307.584 
L 142.626657 266.852571 
L 137.703849 266.852571 
z
" style="fill:#8b0000;opacity:0.4;stroke:#000000;stroke-linejoin:miter;"/>
   </g>
   <g id="patch_123">
    <path clip-path="url(#pdf77b48039)" d="M 142.626657 307.584 
L 147.549464 307.584 
L 147.549464 279.675429 
L 142.626657 279.675429 
z
" style="fill:#8b0000;opacity:0.4;stroke:#000000;stroke-linejoin:miter;"/>
   </g>
   <g id="patch_124">
    <path clip-path="url(#pdf77b48039)" d="M 147.549464 307.584 
L 152.472272 307.584 
L 152.472272 284.955429 
L 147.549464 284.955429 
z
" style="fill:#8b0000;opacity:0.4;stroke:#000000;stroke-linejoin:miter;"/>
   </g>
   <g id="patch_125">
    <path clip-path="url(#pdf77b48039)" d="M 152.472272 307.584 
L 157.395079 307.584 
L 157.395079 286.464 
L 152.472272 286.464 
z
" style="fill:#8b0000;opacity:0.4;stroke:#000000;stroke-linejoin:miter;"/>
   </g>
   <g id="patch_126">
    <path clip-path="url(#pdf77b48039)" d="M 157.395079 307.584 
L 162.317887 307.584 
L 162.317887 283.446857 
L 157.395079 283.446857 
z
" style="fill:#8b0000;opacity:0.4;stroke:#000000;stroke-linejoin:miter;"/>
   </g>
   <g id="patch_127">
    <path clip-path="url(#pdf77b48039)" d="M 162.317887 307.584 
L 167.240694 307.584 
L 167.240694 267.606857 
L 162.317887 267.606857 
z
" style="fill:#8b0000;opacity:0.4;stroke:#000000;stroke-linejoin:miter;"/>
   </g>
   <g id="patch_128">
    <path clip-path="url(#pdf77b48039)" d="M 167.240694 307.584 
L 172.163502 307.584 
L 172.163502 263.835429 
L 167.240694 263.835429 
z
" style="fill:#8b0000;opacity:0.4;stroke:#000000;stroke-linejoin:miter;"/>
   </g>
   <g id="patch_129">
    <path clip-path="url(#pdf77b48039)" d="M 172.163502 307.584 
L 177.086309 307.584 
L 177.086309 275.149714 
L 172.163502 275.149714 
z
" style="fill:#8b0000;opacity:0.4;stroke:#000000;stroke-linejoin:miter;"/>
   </g>
   <g id="patch_130">
    <path clip-path="url(#pdf77b48039)" d="M 177.086309 307.584 
L 182.009117 307.584 
L 182.009117 264.589714 
L 177.086309 264.589714 
z
" style="fill:#8b0000;opacity:0.4;stroke:#000000;stroke-linejoin:miter;"/>
   </g>
   <g id="patch_131">
    <path clip-path="url(#pdf77b48039)" d="M 182.009117 307.584 
L 186.931924 307.584 
L 186.931924 260.064 
L 182.009117 260.064 
z
" style="fill:#8b0000;opacity:0.4;stroke:#000000;stroke-linejoin:miter;"/>
   </g>
   <g id="patch_132">
    <path clip-path="url(#pdf77b48039)" d="M 186.931924 307.584 
L 191.854732 307.584 
L 191.854732 269.115429 
L 186.931924 269.115429 
z
" style="fill:#8b0000;opacity:0.4;stroke:#000000;stroke-linejoin:miter;"/>
   </g>
   <g id="patch_133">
    <path clip-path="url(#pdf77b48039)" d="M 191.854732 307.584 
L 196.77754 307.584 
L 196.77754 259.309714 
L 191.854732 259.309714 
z
" style="fill:#8b0000;opacity:0.4;stroke:#000000;stroke-linejoin:miter;"/>
   </g>
   <g id="patch_134">
    <path clip-path="url(#pdf77b48039)" d="M 196.77754 307.584 
L 201.700347 307.584 
L 201.700347 257.801143 
L 196.77754 257.801143 
z
" style="fill:#8b0000;opacity:0.4;stroke:#000000;stroke-linejoin:miter;"/>
   </g>
   <g id="patch_135">
    <path clip-path="url(#pdf77b48039)" d="M 201.700347 307.584 
L 206.623155 307.584 
L 206.623155 251.012571 
L 201.700347 251.012571 
z
" style="fill:#8b0000;opacity:0.4;stroke:#000000;stroke-linejoin:miter;"/>
   </g>
   <g id="patch_136">
    <path clip-path="url(#pdf77b48039)" d="M 206.623155 307.584 
L 211.545962 307.584 
L 211.545962 265.344 
L 206.623155 265.344 
z
" style="fill:#8b0000;opacity:0.4;stroke:#000000;stroke-linejoin:miter;"/>
   </g>
   <g id="patch_137">
    <path clip-path="url(#pdf77b48039)" d="M 211.545962 307.584 
L 216.46877 307.584 
L 216.46877 263.835429 
L 211.545962 263.835429 
z
" style="fill:#8b0000;opacity:0.4;stroke:#000000;stroke-linejoin:miter;"/>
   </g>
   <g id="patch_138">
    <path clip-path="url(#pdf77b48039)" d="M 216.46877 307.584 
L 221.391577 307.584 
L 221.391577 272.132571 
L 216.46877 272.132571 
z
" style="fill:#8b0000;opacity:0.4;stroke:#000000;stroke-linejoin:miter;"/>
   </g>
   <g id="patch_139">
    <path clip-path="url(#pdf77b48039)" d="M 221.391577 307.584 
L 226.314385 307.584 
L 226.314385 275.904 
L 221.391577 275.904 
z
" style="fill:#8b0000;opacity:0.4;stroke:#000000;stroke-linejoin:miter;"/>
   </g>
   <g id="patch_140">
    <path clip-path="url(#pdf77b48039)" d="M 226.314385 307.584 
L 231.237192 307.584 
L 231.237192 284.955429 
L 226.314385 284.955429 
z
" style="fill:#8b0000;opacity:0.4;stroke:#000000;stroke-linejoin:miter;"/>
   </g>
   <g id="patch_141">
    <path clip-path="url(#pdf77b48039)" d="M 231.237192 307.584 
L 236.16 307.584 
L 236.16 244.224 
L 231.237192 244.224 
z
" style="fill:#8b0000;opacity:0.4;stroke:#000000;stroke-linejoin:miter;"/>
   </g>
   <g id="patch_142">
    <path clip-path="url(#pdf77b48039)" d="M 236.16 307.584 
L 241.082808 307.584 
L 241.082808 261.572571 
L 236.16 261.572571 
z
" style="fill:#8b0000;opacity:0.4;stroke:#000000;stroke-linejoin:miter;"/>
   </g>
   <g id="patch_143">
    <path clip-path="url(#pdf77b48039)" d="M 241.082808 307.584 
L 246.005615 307.584 
L 246.005615 264.589714 
L 241.082808 264.589714 
z
" style="fill:#8b0000;opacity:0.4;stroke:#000000;stroke-linejoin:miter;"/>
   </g>
   <g id="patch_144">
    <path clip-path="url(#pdf77b48039)" d="M 246.005615 307.584 
L 250.928423 307.584 
L 250.928423 283.446857 
L 246.005615 283.446857 
z
" style="fill:#8b0000;opacity:0.4;stroke:#000000;stroke-linejoin:miter;"/>
   </g>
   <g id="patch_145">
    <path clip-path="url(#pdf77b48039)" d="M 250.928423 307.584 
L 255.85123 307.584 
L 255.85123 275.904 
L 250.928423 275.904 
z
" style="fill:#8b0000;opacity:0.4;stroke:#000000;stroke-linejoin:miter;"/>
   </g>
   <g id="patch_146">
    <path clip-path="url(#pdf77b48039)" d="M 255.85123 307.584 
L 260.774038 307.584 
L 260.774038 254.784 
L 255.85123 254.784 
z
" style="fill:#8b0000;opacity:0.4;stroke:#000000;stroke-linejoin:miter;"/>
   </g>
   <g id="patch_147">
    <path clip-path="url(#pdf77b48039)" d="M 260.774038 307.584 
L 265.696845 307.584 
L 265.696845 260.064 
L 260.774038 260.064 
z
" style="fill:#8b0000;opacity:0.4;stroke:#000000;stroke-linejoin:miter;"/>
   </g>
   <g id="patch_148">
    <path clip-path="url(#pdf77b48039)" d="M 265.696845 307.584 
L 270.619653 307.584 
L 270.619653 247.241143 
L 265.696845 247.241143 
z
" style="fill:#8b0000;opacity:0.4;stroke:#000000;stroke-linejoin:miter;"/>
   </g>
   <g id="patch_149">
    <path clip-path="url(#pdf77b48039)" d="M 270.619653 307.584 
L 275.54246 307.584 
L 275.54246 264.589714 
L 270.619653 264.589714 
z
" style="fill:#8b0000;opacity:0.4;stroke:#000000;stroke-linejoin:miter;"/>
   </g>
   <g id="patch_150">
    <path clip-path="url(#pdf77b48039)" d="M 275.54246 307.584 
L 280.465268 307.584 
L 280.465268 268.361143 
L 275.54246 268.361143 
z
" style="fill:#8b0000;opacity:0.4;stroke:#000000;stroke-linejoin:miter;"/>
   </g>
   <g id="patch_151">
    <path clip-path="url(#pdf77b48039)" d="M 280.465268 307.584 
L 285.388076 307.584 
L 285.388076 253.275429 
L 280.465268 253.275429 
z
" style="fill:#8b0000;opacity:0.4;stroke:#000000;stroke-linejoin:miter;"/>
   </g>
   <g id="patch_152">
    <path clip-path="url(#pdf77b48039)" d="M 285.388076 307.584 
L 290.310883 307.584 
L 290.310883 259.309714 
L 285.388076 259.309714 
z
" style="fill:#8b0000;opacity:0.4;stroke:#000000;stroke-linejoin:miter;"/>
   </g>
   <g id="patch_153">
    <path clip-path="url(#pdf77b48039)" d="M 290.310883 307.584 
L 295.233691 307.584 
L 295.233691 273.641143 
L 290.310883 273.641143 
z
" style="fill:#8b0000;opacity:0.4;stroke:#000000;stroke-linejoin:miter;"/>
   </g>
   <g id="patch_154">
    <path clip-path="url(#pdf77b48039)" d="M 295.233691 307.584 
L 300.156498 307.584 
L 300.156498 260.818286 
L 295.233691 260.818286 
z
" style="fill:#8b0000;opacity:0.4;stroke:#000000;stroke-linejoin:miter;"/>
   </g>
   <g id="patch_155">
    <path clip-path="url(#pdf77b48039)" d="M 300.156498 307.584 
L 305.079306 307.584 
L 305.079306 273.641143 
L 300.156498 273.641143 
z
" style="fill:#8b0000;opacity:0.4;stroke:#000000;stroke-linejoin:miter;"/>
   </g>
   <g id="patch_156">
    <path clip-path="url(#pdf77b48039)" d="M 305.079306 307.584 
L 310.002113 307.584 
L 310.002113 269.115429 
L 305.079306 269.115429 
z
" style="fill:#8b0000;opacity:0.4;stroke:#000000;stroke-linejoin:miter;"/>
   </g>
   <g id="patch_157">
    <path clip-path="url(#pdf77b48039)" d="M 310.002113 307.584 
L 314.924921 307.584 
L 314.924921 294.006857 
L 310.002113 294.006857 
z
" style="fill:#8b0000;opacity:0.4;stroke:#000000;stroke-linejoin:miter;"/>
   </g>
   <g id="patch_158">
    <path clip-path="url(#pdf77b48039)" d="M 314.924921 307.584 
L 319.847728 307.584 
L 319.847728 289.481143 
L 314.924921 289.481143 
z
" style="fill:#8b0000;opacity:0.4;stroke:#000000;stroke-linejoin:miter;"/>
   </g>
   <g id="patch_159">
    <path clip-path="url(#pdf77b48039)" d="M 319.847728 307.584 
L 324.770536 307.584 
L 324.770536 275.149714 
L 319.847728 275.149714 
z
" style="fill:#8b0000;opacity:0.4;stroke:#000000;stroke-linejoin:miter;"/>
   </g>
   <g id="patch_160">
    <path clip-path="url(#pdf77b48039)" d="M 324.770536 307.584 
L 329.693343 307.584 
L 329.693343 270.624 
L 324.770536 270.624 
z
" style="fill:#8b0000;opacity:0.4;stroke:#000000;stroke-linejoin:miter;"/>
   </g>
   <g id="patch_161">
    <path clip-path="url(#pdf77b48039)" d="M 329.693343 307.584 
L 334.616151 307.584 
L 334.616151 274.395429 
L 329.693343 274.395429 
z
" style="fill:#8b0000;opacity:0.4;stroke:#000000;stroke-linejoin:miter;"/>
   </g>
   <g id="patch_162">
    <path clip-path="url(#pdf77b48039)" d="M 334.616151 307.584 
L 339.538959 307.584 
L 339.538959 275.904 
L 334.616151 275.904 
z
" style="fill:#8b0000;opacity:0.4;stroke:#000000;stroke-linejoin:miter;"/>
   </g>
   <g id="patch_163">
    <path clip-path="url(#pdf77b48039)" d="M 339.538959 307.584 
L 344.461766 307.584 
L 344.461766 280.429714 
L 339.538959 280.429714 
z
" style="fill:#8b0000;opacity:0.4;stroke:#000000;stroke-linejoin:miter;"/>
   </g>
   <g id="patch_164">
    <path clip-path="url(#pdf77b48039)" d="M 344.461766 307.584 
L 349.384574 307.584 
L 349.384574 281.938286 
L 344.461766 281.938286 
z
" style="fill:#8b0000;opacity:0.4;stroke:#000000;stroke-linejoin:miter;"/>
   </g>
   <g id="patch_165">
    <path clip-path="url(#pdf77b48039)" d="M 349.384574 307.584 
L 354.307381 307.584 
L 354.307381 297.778286 
L 349.384574 297.778286 
z
" style="fill:#8b0000;opacity:0.4;stroke:#000000;stroke-linejoin:miter;"/>
   </g>
   <g id="patch_166">
    <path clip-path="url(#pdf77b48039)" d="M 354.307381 307.584 
L 359.230189 307.584 
L 359.230189 306.075429 
L 354.307381 306.075429 
z
" style="fill:#8b0000;opacity:0.4;stroke:#000000;stroke-linejoin:miter;"/>
   </g>
   <g id="matplotlib.axis_5">
    <g id="xtick_11">
     <g id="line2d_19">
      <g>
       <use style="stroke:#000000;stroke-width:0.8;" x="91.776061" xlink:href="#m9b34a768b0" y="307.584"/>
      </g>
     </g>
     <g id="text_21">
      <!-- −1.0 -->
      <g transform="translate(79.634655 322.182437)scale(0.1 -0.1)">
       <use xlink:href="#DejaVuSans-8722"/>
       <use x="83.789062" xlink:href="#DejaVuSans-49"/>
       <use x="147.412109" xlink:href="#DejaVuSans-46"/>
       <use x="179.199219" xlink:href="#DejaVuSans-48"/>
      </g>
     </g>
    </g>
    <g id="xtick_12">
     <g id="line2d_20">
      <g>
       <use style="stroke:#000000;stroke-width:0.8;" x="163.852848" xlink:href="#m9b34a768b0" y="307.584"/>
      </g>
     </g>
     <g id="text_22">
      <!-- −0.5 -->
      <g transform="translate(151.711441 322.182437)scale(0.1 -0.1)">
       <use xlink:href="#DejaVuSans-8722"/>
       <use x="83.789062" xlink:href="#DejaVuSans-48"/>
       <use x="147.412109" xlink:href="#DejaVuSans-46"/>
       <use x="179.199219" xlink:href="#DejaVuSans-53"/>
      </g>
     </g>
    </g>
    <g id="xtick_13">
     <g id="line2d_21">
      <g>
       <use style="stroke:#000000;stroke-width:0.8;" x="235.929634" xlink:href="#m9b34a768b0" y="307.584"/>
      </g>
     </g>
     <g id="text_23">
      <!-- 0.0 -->
      <g transform="translate(227.978071 322.182437)scale(0.1 -0.1)">
       <use xlink:href="#DejaVuSans-48"/>
       <use x="63.623047" xlink:href="#DejaVuSans-46"/>
       <use x="95.410156" xlink:href="#DejaVuSans-48"/>
      </g>
     </g>
    </g>
    <g id="xtick_14">
     <g id="line2d_22">
      <g>
       <use style="stroke:#000000;stroke-width:0.8;" x="308.00642" xlink:href="#m9b34a768b0" y="307.584"/>
      </g>
     </g>
     <g id="text_24">
      <!-- 0.5 -->
      <g transform="translate(300.054858 322.182437)scale(0.1 -0.1)">
       <use xlink:href="#DejaVuSans-48"/>
       <use x="63.623047" xlink:href="#DejaVuSans-46"/>
       <use x="95.410156" xlink:href="#DejaVuSans-53"/>
      </g>
     </g>
    </g>
    <g id="xtick_15">
     <g id="line2d_23">
      <g>
       <use style="stroke:#000000;stroke-width:0.8;" x="380.083207" xlink:href="#m9b34a768b0" y="307.584"/>
      </g>
     </g>
     <g id="text_25">
      <!-- 1.0 -->
      <g transform="translate(372.131644 322.182437)scale(0.1 -0.1)">
       <use xlink:href="#DejaVuSans-49"/>
       <use x="63.623047" xlink:href="#DejaVuSans-46"/>
       <use x="95.410156" xlink:href="#DejaVuSans-48"/>
      </g>
     </g>
    </g>
    <g id="text_26">
     <!-- Position -->
     <defs>
      <path d="M 19.671875 64.796875 
L 19.671875 37.40625 
L 32.078125 37.40625 
Q 38.96875 37.40625 42.71875 40.96875 
Q 46.484375 44.53125 46.484375 51.125 
Q 46.484375 57.671875 42.71875 61.234375 
Q 38.96875 64.796875 32.078125 64.796875 
z
M 9.8125 72.90625 
L 32.078125 72.90625 
Q 44.34375 72.90625 50.609375 67.359375 
Q 56.890625 61.8125 56.890625 51.125 
Q 56.890625 40.328125 50.609375 34.8125 
Q 44.34375 29.296875 32.078125 29.296875 
L 19.671875 29.296875 
L 19.671875 0 
L 9.8125 0 
z
" id="DejaVuSans-80"/>
      <path d="M 30.609375 48.390625 
Q 23.390625 48.390625 19.1875 42.75 
Q 14.984375 37.109375 14.984375 27.296875 
Q 14.984375 17.484375 19.15625 11.84375 
Q 23.34375 6.203125 30.609375 6.203125 
Q 37.796875 6.203125 41.984375 11.859375 
Q 46.1875 17.53125 46.1875 27.296875 
Q 46.1875 37.015625 41.984375 42.703125 
Q 37.796875 48.390625 30.609375 48.390625 
z
M 30.609375 56 
Q 42.328125 56 49.015625 48.375 
Q 55.71875 40.765625 55.71875 27.296875 
Q 55.71875 13.875 49.015625 6.21875 
Q 42.328125 -1.421875 30.609375 -1.421875 
Q 18.84375 -1.421875 12.171875 6.21875 
Q 5.515625 13.875 5.515625 27.296875 
Q 5.515625 40.765625 12.171875 48.375 
Q 18.84375 56 30.609375 56 
z
" id="DejaVuSans-111"/>
     </defs>
     <g transform="translate(216.517031 335.860562)scale(0.1 -0.1)">
      <use xlink:href="#DejaVuSans-80"/>
      <use x="60.255859" xlink:href="#DejaVuSans-111"/>
      <use x="121.4375" xlink:href="#DejaVuSans-115"/>
      <use x="173.537109" xlink:href="#DejaVuSans-105"/>
      <use x="201.320312" xlink:href="#DejaVuSans-116"/>
      <use x="240.529297" xlink:href="#DejaVuSans-105"/>
      <use x="268.3125" xlink:href="#DejaVuSans-111"/>
      <use x="329.494141" xlink:href="#DejaVuSans-110"/>
     </g>
    </g>
   </g>
   <g id="matplotlib.axis_6">
    <g id="ytick_7">
     <g id="line2d_24">
      <g>
       <use style="stroke:#000000;stroke-width:0.8;" x="57.6" xlink:href="#m6fb62c182a" y="307.584"/>
      </g>
     </g>
     <g id="text_27">
      <!-- 0.0 -->
      <g transform="translate(34.696875 311.383219)scale(0.1 -0.1)">
       <use xlink:href="#DejaVuSans-48"/>
       <use x="63.623047" xlink:href="#DejaVuSans-46"/>
       <use x="95.410156" xlink:href="#DejaVuSans-48"/>
      </g>
     </g>
    </g>
    <g id="ytick_8">
     <g id="line2d_25">
      <g>
       <use style="stroke:#000000;stroke-width:0.8;" x="57.6" xlink:href="#m6fb62c182a" y="277.70395"/>
      </g>
     </g>
     <g id="text_28">
      <!-- 0.5 -->
      <g transform="translate(34.696875 281.503169)scale(0.1 -0.1)">
       <use xlink:href="#DejaVuSans-48"/>
       <use x="63.623047" xlink:href="#DejaVuSans-46"/>
       <use x="95.410156" xlink:href="#DejaVuSans-53"/>
      </g>
     </g>
    </g>
    <g id="ytick_9">
     <g id="line2d_26">
      <g>
       <use style="stroke:#000000;stroke-width:0.8;" x="57.6" xlink:href="#m6fb62c182a" y="247.8239"/>
      </g>
     </g>
     <g id="text_29">
      <!-- 1.0 -->
      <g transform="translate(34.696875 251.623119)scale(0.1 -0.1)">
       <use xlink:href="#DejaVuSans-49"/>
       <use x="63.623047" xlink:href="#DejaVuSans-46"/>
       <use x="95.410156" xlink:href="#DejaVuSans-48"/>
      </g>
     </g>
    </g>
    <g id="text_30">
     <!-- Density -->
     <g transform="translate(28.617187 293.328594)rotate(-90)scale(0.1 -0.1)">
      <use xlink:href="#DejaVuSans-68"/>
      <use x="77.001953" xlink:href="#DejaVuSans-101"/>
      <use x="138.525391" xlink:href="#DejaVuSans-110"/>
      <use x="201.904297" xlink:href="#DejaVuSans-115"/>
      <use x="254.003906" xlink:href="#DejaVuSans-105"/>
      <use x="281.787109" xlink:href="#DejaVuSans-116"/>
      <use x="320.996094" xlink:href="#DejaVuSans-121"/>
     </g>
    </g>
   </g>
   <g id="line2d_27">
    <path clip-path="url(#pdf77b48039)" d="M 73.832727 307.574892 
L 77.112066 307.562999 
L 80.391405 307.538102 
L 83.670744 307.488819 
L 86.950083 307.396502 
L 90.229421 307.232692 
L 93.50876 306.957063 
L 96.788099 306.516791 
L 100.067438 305.848459 
L 103.346777 304.883421 
L 106.626116 303.557083 
L 109.905455 301.821697 
L 113.184793 299.661215 
L 116.464132 297.105455 
L 119.743471 294.239723 
L 123.02281 291.205384 
L 126.302149 288.187555 
L 129.581488 285.388658 
L 132.860826 282.990994 
L 136.140165 281.116564 
L 139.419504 279.795812 
L 142.698843 278.956547 
L 145.978182 278.439152 
L 149.257521 278.035629 
L 152.53686 277.541433 
L 155.816198 276.804162 
L 159.095537 275.754267 
L 162.374876 274.409695 
L 165.654215 272.855917 
L 168.933554 271.211006 
L 172.212893 269.589263 
L 175.492231 268.075283 
L 178.77157 266.714763 
L 182.050909 265.521595 
L 185.330248 264.495261 
L 188.609587 263.639956 
L 191.888926 262.977207 
L 195.168264 262.546686 
L 198.447603 262.394421 
L 201.726942 262.552397 
L 205.006281 263.017239 
L 208.28562 263.736804 
L 211.564959 264.611473 
L 214.844298 265.512089 
L 218.123636 266.310275 
L 221.402975 266.911415 
L 224.682314 267.278122 
L 227.961653 267.434248 
L 231.240992 267.446401 
L 234.520331 267.389378 
L 237.799669 267.309696 
L 241.079008 267.203318 
L 244.358347 267.017944 
L 247.637686 266.679117 
L 250.917025 266.128328 
L 254.196364 265.356019 
L 257.475702 264.415454 
L 260.755041 263.412866 
L 264.03438 262.47998 
L 267.313719 261.741567 
L 270.593058 261.290609 
L 273.872397 261.178059 
L 277.151736 261.416784 
L 280.431074 261.99386 
L 283.710413 262.883816 
L 286.989752 264.057252 
L 290.269091 265.482505 
L 293.54843 267.121037 
L 296.827769 268.919284 
L 300.107107 270.801097 
L 303.386446 272.665638 
L 306.665785 274.39507 
L 309.945124 275.873677 
L 313.224463 277.015396 
L 316.503802 277.791857 
L 319.78314 278.250655 
L 323.062479 278.515635 
L 326.341818 278.766903 
L 329.621157 279.205501 
L 332.900496 280.012649 
L 336.179835 281.314267 
L 339.459174 283.15856 
L 342.738512 285.509817 
L 346.017851 288.257576 
L 349.29719 291.237771 
L 352.576529 294.261219 
L 355.855868 297.144107 
L 359.135207 299.73489 
L 362.414545 301.932632 
L 365.693884 303.693809 
L 368.973223 305.02753 
L 372.252562 305.982144 
L 375.531901 306.627978 
L 378.81124 307.040995 
L 382.090579 307.290687 
L 385.369917 307.433405 
L 388.649256 307.51054 
L 391.928595 307.549967 
L 395.207934 307.56903 
L 398.487273 307.57775 
" style="fill:none;stroke:#8b0000;stroke-linecap:square;stroke-width:4;"/>
   </g>
   <g id="patch_167">
    <path d="M 57.6 307.584 
L 57.6 241.056 
" style="fill:none;stroke:#000000;stroke-linecap:square;stroke-linejoin:miter;stroke-width:0.8;"/>
   </g>
   <g id="patch_168">
    <path d="M 414.72 307.584 
L 414.72 241.056 
" style="fill:none;stroke:#000000;stroke-linecap:square;stroke-linejoin:miter;stroke-width:0.8;"/>
   </g>
   <g id="patch_169">
    <path d="M 57.6 307.584 
L 414.72 307.584 
" style="fill:none;stroke:#000000;stroke-linecap:square;stroke-linejoin:miter;stroke-width:0.8;"/>
   </g>
   <g id="patch_170">
    <path d="M 57.6 241.056 
L 414.72 241.056 
" style="fill:none;stroke:#000000;stroke-linecap:square;stroke-linejoin:miter;stroke-width:0.8;"/>
   </g>
   <g id="legend_3">
    <g id="patch_171">
     <path d="M 370.471563 263.734125 
L 407.72 263.734125 
Q 409.72 263.734125 409.72 261.734125 
L 409.72 248.056 
Q 409.72 246.056 407.72 246.056 
L 370.471563 246.056 
Q 368.471563 246.056 368.471563 248.056 
L 368.471563 261.734125 
Q 368.471563 263.734125 370.471563 263.734125 
z
" style="fill:#ffffff;opacity:0.8;stroke:#cccccc;stroke-linejoin:miter;"/>
    </g>
    <g id="patch_172">
     <path d="M 372.471563 257.654437 
L 392.471563 257.654437 
L 392.471563 250.654437 
L 372.471563 250.654437 
z
" style="fill:#8b0000;opacity:0.4;stroke:#000000;stroke-linejoin:miter;"/>
    </g>
    <g id="text_31">
     <!-- z -->
     <defs>
      <path d="M 5.515625 54.6875 
L 48.1875 54.6875 
L 48.1875 46.484375 
L 14.40625 7.171875 
L 48.1875 7.171875 
L 48.1875 0 
L 4.296875 0 
L 4.296875 8.203125 
L 38.09375 47.515625 
L 5.515625 47.515625 
z
" id="DejaVuSans-122"/>
     </defs>
     <g transform="translate(400.471563 257.654437)scale(0.1 -0.1)">
      <use xlink:href="#DejaVuSans-122"/>
     </g>
    </g>
   </g>
  </g>
  <g id="text_32">
   <!-- Motif 5 Histogram -->
   <defs>
    <path d="M 9.8125 72.90625 
L 24.515625 72.90625 
L 43.109375 23.296875 
L 61.8125 72.90625 
L 76.515625 72.90625 
L 76.515625 0 
L 66.890625 0 
L 66.890625 64.015625 
L 48.09375 14.015625 
L 38.1875 14.015625 
L 19.390625 64.015625 
L 19.390625 0 
L 9.8125 0 
z
" id="DejaVuSans-77"/>
    <path d="M 37.109375 75.984375 
L 37.109375 68.5 
L 28.515625 68.5 
Q 23.6875 68.5 21.796875 66.546875 
Q 19.921875 64.59375 19.921875 59.515625 
L 19.921875 54.6875 
L 34.71875 54.6875 
L 34.71875 47.703125 
L 19.921875 47.703125 
L 19.921875 0 
L 10.890625 0 
L 10.890625 47.703125 
L 2.296875 47.703125 
L 2.296875 54.6875 
L 10.890625 54.6875 
L 10.890625 58.5 
Q 10.890625 67.625 15.140625 71.796875 
Q 19.390625 75.984375 28.609375 75.984375 
z
" id="DejaVuSans-102"/>
    <path id="DejaVuSans-32"/>
    <path d="M 9.8125 72.90625 
L 19.671875 72.90625 
L 19.671875 43.015625 
L 55.515625 43.015625 
L 55.515625 72.90625 
L 65.375 72.90625 
L 65.375 0 
L 55.515625 0 
L 55.515625 34.71875 
L 19.671875 34.71875 
L 19.671875 0 
L 9.8125 0 
z
" id="DejaVuSans-72"/>
    <path d="M 45.40625 27.984375 
Q 45.40625 37.75 41.375 43.109375 
Q 37.359375 48.484375 30.078125 48.484375 
Q 22.859375 48.484375 18.828125 43.109375 
Q 14.796875 37.75 14.796875 27.984375 
Q 14.796875 18.265625 18.828125 12.890625 
Q 22.859375 7.515625 30.078125 7.515625 
Q 37.359375 7.515625 41.375 12.890625 
Q 45.40625 18.265625 45.40625 27.984375 
z
M 54.390625 6.78125 
Q 54.390625 -7.171875 48.1875 -13.984375 
Q 42 -20.796875 29.203125 -20.796875 
Q 24.46875 -20.796875 20.265625 -20.09375 
Q 16.0625 -19.390625 12.109375 -17.921875 
L 12.109375 -9.1875 
Q 16.0625 -11.328125 19.921875 -12.34375 
Q 23.78125 -13.375 27.78125 -13.375 
Q 36.625 -13.375 41.015625 -8.765625 
Q 45.40625 -4.15625 45.40625 5.171875 
L 45.40625 9.625 
Q 42.625 4.78125 38.28125 2.390625 
Q 33.9375 0 27.875 0 
Q 17.828125 0 11.671875 7.65625 
Q 5.515625 15.328125 5.515625 27.984375 
Q 5.515625 40.671875 11.671875 48.328125 
Q 17.828125 56 27.875 56 
Q 33.9375 56 38.28125 53.609375 
Q 42.625 51.21875 45.40625 46.390625 
L 45.40625 54.6875 
L 54.390625 54.6875 
z
" id="DejaVuSans-103"/>
    <path d="M 41.109375 46.296875 
Q 39.59375 47.171875 37.8125 47.578125 
Q 36.03125 48 33.890625 48 
Q 26.265625 48 22.1875 43.046875 
Q 18.109375 38.09375 18.109375 28.8125 
L 18.109375 0 
L 9.078125 0 
L 9.078125 54.6875 
L 18.109375 54.6875 
L 18.109375 46.1875 
Q 20.953125 51.171875 25.484375 53.578125 
Q 30.03125 56 36.53125 56 
Q 37.453125 56 38.578125 55.875 
Q 39.703125 55.765625 41.0625 55.515625 
z
" id="DejaVuSans-114"/>
    <path d="M 34.28125 27.484375 
Q 23.390625 27.484375 19.1875 25 
Q 14.984375 22.515625 14.984375 16.5 
Q 14.984375 11.71875 18.140625 8.90625 
Q 21.296875 6.109375 26.703125 6.109375 
Q 34.1875 6.109375 38.703125 11.40625 
Q 43.21875 16.703125 43.21875 25.484375 
L 43.21875 27.484375 
z
M 52.203125 31.203125 
L 52.203125 0 
L 43.21875 0 
L 43.21875 8.296875 
Q 40.140625 3.328125 35.546875 0.953125 
Q 30.953125 -1.421875 24.3125 -1.421875 
Q 15.921875 -1.421875 10.953125 3.296875 
Q 6 8.015625 6 15.921875 
Q 6 25.140625 12.171875 29.828125 
Q 18.359375 34.515625 30.609375 34.515625 
L 43.21875 34.515625 
L 43.21875 35.40625 
Q 43.21875 41.609375 39.140625 45 
Q 35.0625 48.390625 27.6875 48.390625 
Q 23 48.390625 18.546875 47.265625 
Q 14.109375 46.140625 10.015625 43.890625 
L 10.015625 52.203125 
Q 14.9375 54.109375 19.578125 55.046875 
Q 24.21875 56 28.609375 56 
Q 40.484375 56 46.34375 49.84375 
Q 52.203125 43.703125 52.203125 31.203125 
z
" id="DejaVuSans-97"/>
    <path d="M 52 44.1875 
Q 55.375 50.25 60.0625 53.125 
Q 64.75 56 71.09375 56 
Q 79.640625 56 84.28125 50.015625 
Q 88.921875 44.046875 88.921875 33.015625 
L 88.921875 0 
L 79.890625 0 
L 79.890625 32.71875 
Q 79.890625 40.578125 77.09375 44.375 
Q 74.3125 48.1875 68.609375 48.1875 
Q 61.625 48.1875 57.5625 43.546875 
Q 53.515625 38.921875 53.515625 30.90625 
L 53.515625 0 
L 44.484375 0 
L 44.484375 32.71875 
Q 44.484375 40.625 41.703125 44.40625 
Q 38.921875 48.1875 33.109375 48.1875 
Q 26.21875 48.1875 22.15625 43.53125 
Q 18.109375 38.875 18.109375 30.90625 
L 18.109375 0 
L 9.078125 0 
L 9.078125 54.6875 
L 18.109375 54.6875 
L 18.109375 46.1875 
Q 21.1875 51.21875 25.484375 53.609375 
Q 29.78125 56 35.6875 56 
Q 41.65625 56 45.828125 52.96875 
Q 50 49.953125 52 44.1875 
z
" id="DejaVuSans-109"/>
   </defs>
   <g transform="translate(176.664375 16.030125)scale(0.12 -0.12)">
    <use xlink:href="#DejaVuSans-77"/>
    <use x="86.279297" xlink:href="#DejaVuSans-111"/>
    <use x="147.460938" xlink:href="#DejaVuSans-116"/>
    <use x="186.669922" xlink:href="#DejaVuSans-105"/>
    <use x="214.453125" xlink:href="#DejaVuSans-102"/>
    <use x="249.658203" xlink:href="#DejaVuSans-32"/>
    <use x="281.445312" xlink:href="#DejaVuSans-53"/>
    <use x="345.068359" xlink:href="#DejaVuSans-32"/>
    <use x="376.855469" xlink:href="#DejaVuSans-72"/>
    <use x="452.050781" xlink:href="#DejaVuSans-105"/>
    <use x="479.833984" xlink:href="#DejaVuSans-115"/>
    <use x="531.933594" xlink:href="#DejaVuSans-116"/>
    <use x="571.142578" xlink:href="#DejaVuSans-111"/>
    <use x="632.324219" xlink:href="#DejaVuSans-103"/>
    <use x="695.800781" xlink:href="#DejaVuSans-114"/>
    <use x="736.914062" xlink:href="#DejaVuSans-97"/>
    <use x="798.193359" xlink:href="#DejaVuSans-109"/>
   </g>
  </g>
 </g>
 <defs>
  <clipPath id="p5655360fac">
   <rect height="66.528" width="357.12" x="57.6" y="41.472"/>
  </clipPath>
  <clipPath id="pe5610ac0f6">
   <rect height="66.528" width="357.12" x="57.6" y="141.264"/>
  </clipPath>
  <clipPath id="pdf77b48039">
   <rect height="66.528" width="357.12" x="57.6" y="241.056"/>
  </clipPath>
 </defs>
</svg>
