<?xml version="1.0" encoding="utf-8" standalone="no"?>
<!DOCTYPE svg PUBLIC "-//W3C//DTD SVG 1.1//EN"
  "http://www.w3.org/Graphics/SVG/1.1/DTD/svg11.dtd">
<!-- Created with matplotlib (https://matplotlib.org/) -->
<svg height="345.6pt" version="1.1" viewBox="0 0 460.8 345.6" width="460.8pt" xmlns="http://www.w3.org/2000/svg" xmlns:xlink="http://www.w3.org/1999/xlink">
 <defs>
  <style type="text/css">
*{stroke-linecap:butt;stroke-linejoin:round;}
  </style>
 </defs>
 <g id="figure_1">
  <g id="patch_1">
   <path d="M 0 345.6 
L 460.8 345.6 
L 460.8 0 
L 0 0 
z
" style="fill:#ffffff;"/>
  </g>
  <g id="axes_1">
   <g id="patch_2">
    <path d="M 57.6 108 
L 414.72 108 
L 414.72 41.472 
L 57.6 41.472 
z
" style="fill:#ffffff;"/>
   </g>
   <g id="patch_3">
    <path clip-path="url(#p41c68fe59e)" d="M 117.555852 108 
L 122.300018 108 
L 122.300018 106.804528 
L 117.555852 106.804528 
z
" style="fill:#00008b;opacity:0.4;stroke:#000000;stroke-linejoin:miter;"/>
   </g>
   <g id="patch_4">
    <path clip-path="url(#p41c68fe59e)" d="M 122.300018 108 
L 127.044184 108 
L 127.044184 104.413585 
L 122.300018 104.413585 
z
" style="fill:#00008b;opacity:0.4;stroke:#000000;stroke-linejoin:miter;"/>
   </g>
   <g id="patch_5">
    <path clip-path="url(#p41c68fe59e)" d="M 127.044184 108 
L 131.78835 108 
L 131.78835 104.413585 
L 127.044184 104.413585 
z
" style="fill:#00008b;opacity:0.4;stroke:#000000;stroke-linejoin:miter;"/>
   </g>
   <g id="patch_6">
    <path clip-path="url(#p41c68fe59e)" d="M 131.78835 108 
L 136.532516 108 
L 136.532516 94.849811 
L 131.78835 94.849811 
z
" style="fill:#00008b;opacity:0.4;stroke:#000000;stroke-linejoin:miter;"/>
   </g>
   <g id="patch_7">
    <path clip-path="url(#p41c68fe59e)" d="M 136.532516 108 
L 141.276682 108 
L 141.276682 96.045283 
L 136.532516 96.045283 
z
" style="fill:#00008b;opacity:0.4;stroke:#000000;stroke-linejoin:miter;"/>
   </g>
   <g id="patch_8">
    <path clip-path="url(#p41c68fe59e)" d="M 141.276682 108 
L 146.020848 108 
L 146.020848 92.458868 
L 141.276682 92.458868 
z
" style="fill:#00008b;opacity:0.4;stroke:#000000;stroke-linejoin:miter;"/>
   </g>
   <g id="patch_9">
    <path clip-path="url(#p41c68fe59e)" d="M 146.020848 108 
L 150.765014 108 
L 150.765014 87.676981 
L 146.020848 87.676981 
z
" style="fill:#00008b;opacity:0.4;stroke:#000000;stroke-linejoin:miter;"/>
   </g>
   <g id="patch_10">
    <path clip-path="url(#p41c68fe59e)" d="M 150.765014 108 
L 155.50918 108 
L 155.50918 94.849811 
L 150.765014 94.849811 
z
" style="fill:#00008b;opacity:0.4;stroke:#000000;stroke-linejoin:miter;"/>
   </g>
   <g id="patch_11">
    <path clip-path="url(#p41c68fe59e)" d="M 155.50918 108 
L 160.253345 108 
L 160.253345 93.65434 
L 155.50918 93.65434 
z
" style="fill:#00008b;opacity:0.4;stroke:#000000;stroke-linejoin:miter;"/>
   </g>
   <g id="patch_12">
    <path clip-path="url(#p41c68fe59e)" d="M 160.253345 108 
L 164.997511 108 
L 164.997511 91.263396 
L 160.253345 91.263396 
z
" style="fill:#00008b;opacity:0.4;stroke:#000000;stroke-linejoin:miter;"/>
   </g>
   <g id="patch_13">
    <path clip-path="url(#p41c68fe59e)" d="M 164.997511 108 
L 169.741677 108 
L 169.741677 87.676981 
L 164.997511 87.676981 
z
" style="fill:#00008b;opacity:0.4;stroke:#000000;stroke-linejoin:miter;"/>
   </g>
   <g id="patch_14">
    <path clip-path="url(#p41c68fe59e)" d="M 169.741677 108 
L 174.485843 108 
L 174.485843 97.240755 
L 169.741677 97.240755 
z
" style="fill:#00008b;opacity:0.4;stroke:#000000;stroke-linejoin:miter;"/>
   </g>
   <g id="patch_15">
    <path clip-path="url(#p41c68fe59e)" d="M 174.485843 108 
L 179.230009 108 
L 179.230009 90.067925 
L 174.485843 90.067925 
z
" style="fill:#00008b;opacity:0.4;stroke:#000000;stroke-linejoin:miter;"/>
   </g>
   <g id="patch_16">
    <path clip-path="url(#p41c68fe59e)" d="M 179.230009 108 
L 183.974175 108 
L 183.974175 98.436226 
L 179.230009 98.436226 
z
" style="fill:#00008b;opacity:0.4;stroke:#000000;stroke-linejoin:miter;"/>
   </g>
   <g id="patch_17">
    <path clip-path="url(#p41c68fe59e)" d="M 183.974175 108 
L 188.718341 108 
L 188.718341 93.65434 
L 183.974175 93.65434 
z
" style="fill:#00008b;opacity:0.4;stroke:#000000;stroke-linejoin:miter;"/>
   </g>
   <g id="patch_18">
    <path clip-path="url(#p41c68fe59e)" d="M 188.718341 108 
L 193.462507 108 
L 193.462507 94.849811 
L 188.718341 94.849811 
z
" style="fill:#00008b;opacity:0.4;stroke:#000000;stroke-linejoin:miter;"/>
   </g>
   <g id="patch_19">
    <path clip-path="url(#p41c68fe59e)" d="M 193.462507 108 
L 198.206673 108 
L 198.206673 91.263396 
L 193.462507 91.263396 
z
" style="fill:#00008b;opacity:0.4;stroke:#000000;stroke-linejoin:miter;"/>
   </g>
   <g id="patch_20">
    <path clip-path="url(#p41c68fe59e)" d="M 198.206673 108 
L 202.950839 108 
L 202.950839 93.65434 
L 198.206673 93.65434 
z
" style="fill:#00008b;opacity:0.4;stroke:#000000;stroke-linejoin:miter;"/>
   </g>
   <g id="patch_21">
    <path clip-path="url(#p41c68fe59e)" d="M 202.950839 108 
L 207.695005 108 
L 207.695005 92.458868 
L 202.950839 92.458868 
z
" style="fill:#00008b;opacity:0.4;stroke:#000000;stroke-linejoin:miter;"/>
   </g>
   <g id="patch_22">
    <path clip-path="url(#p41c68fe59e)" d="M 207.695005 108 
L 212.43917 108 
L 212.43917 98.436226 
L 207.695005 98.436226 
z
" style="fill:#00008b;opacity:0.4;stroke:#000000;stroke-linejoin:miter;"/>
   </g>
   <g id="patch_23">
    <path clip-path="url(#p41c68fe59e)" d="M 212.43917 108 
L 217.183336 108 
L 217.183336 87.676981 
L 212.43917 87.676981 
z
" style="fill:#00008b;opacity:0.4;stroke:#000000;stroke-linejoin:miter;"/>
   </g>
   <g id="patch_24">
    <path clip-path="url(#p41c68fe59e)" d="M 217.183336 108 
L 221.927502 108 
L 221.927502 85.286038 
L 217.183336 85.286038 
z
" style="fill:#00008b;opacity:0.4;stroke:#000000;stroke-linejoin:miter;"/>
   </g>
   <g id="patch_25">
    <path clip-path="url(#p41c68fe59e)" d="M 221.927502 108 
L 226.671668 108 
L 226.671668 55.399245 
L 221.927502 55.399245 
z
" style="fill:#00008b;opacity:0.4;stroke:#000000;stroke-linejoin:miter;"/>
   </g>
   <g id="patch_26">
    <path clip-path="url(#p41c68fe59e)" d="M 226.671668 108 
L 231.415834 108 
L 231.415834 44.64 
L 226.671668 44.64 
z
" style="fill:#00008b;opacity:0.4;stroke:#000000;stroke-linejoin:miter;"/>
   </g>
   <g id="patch_27">
    <path clip-path="url(#p41c68fe59e)" d="M 231.415834 108 
L 236.16 108 
L 236.16 63.767547 
L 231.415834 63.767547 
z
" style="fill:#00008b;opacity:0.4;stroke:#000000;stroke-linejoin:miter;"/>
   </g>
   <g id="patch_28">
    <path clip-path="url(#p41c68fe59e)" d="M 236.16 108 
L 240.904166 108 
L 240.904166 85.286038 
L 236.16 85.286038 
z
" style="fill:#00008b;opacity:0.4;stroke:#000000;stroke-linejoin:miter;"/>
   </g>
   <g id="patch_29">
    <path clip-path="url(#p41c68fe59e)" d="M 240.904166 108 
L 245.648332 108 
L 245.648332 96.045283 
L 240.904166 96.045283 
z
" style="fill:#00008b;opacity:0.4;stroke:#000000;stroke-linejoin:miter;"/>
   </g>
   <g id="patch_30">
    <path clip-path="url(#p41c68fe59e)" d="M 245.648332 108 
L 250.392498 108 
L 250.392498 92.458868 
L 245.648332 92.458868 
z
" style="fill:#00008b;opacity:0.4;stroke:#000000;stroke-linejoin:miter;"/>
   </g>
   <g id="patch_31">
    <path clip-path="url(#p41c68fe59e)" d="M 250.392498 108 
L 255.136664 108 
L 255.136664 97.240755 
L 250.392498 97.240755 
z
" style="fill:#00008b;opacity:0.4;stroke:#000000;stroke-linejoin:miter;"/>
   </g>
   <g id="patch_32">
    <path clip-path="url(#p41c68fe59e)" d="M 255.136664 108 
L 259.88083 108 
L 259.88083 90.067925 
L 255.136664 90.067925 
z
" style="fill:#00008b;opacity:0.4;stroke:#000000;stroke-linejoin:miter;"/>
   </g>
   <g id="patch_33">
    <path clip-path="url(#p41c68fe59e)" d="M 259.88083 108 
L 264.624995 108 
L 264.624995 91.263396 
L 259.88083 91.263396 
z
" style="fill:#00008b;opacity:0.4;stroke:#000000;stroke-linejoin:miter;"/>
   </g>
   <g id="patch_34">
    <path clip-path="url(#p41c68fe59e)" d="M 264.624995 108 
L 269.369161 108 
L 269.369161 97.240755 
L 264.624995 97.240755 
z
" style="fill:#00008b;opacity:0.4;stroke:#000000;stroke-linejoin:miter;"/>
   </g>
   <g id="patch_35">
    <path clip-path="url(#p41c68fe59e)" d="M 269.369161 108 
L 274.113327 108 
L 274.113327 90.067925 
L 269.369161 90.067925 
z
" style="fill:#00008b;opacity:0.4;stroke:#000000;stroke-linejoin:miter;"/>
   </g>
   <g id="patch_36">
    <path clip-path="url(#p41c68fe59e)" d="M 274.113327 108 
L 278.857493 108 
L 278.857493 99.631698 
L 274.113327 99.631698 
z
" style="fill:#00008b;opacity:0.4;stroke:#000000;stroke-linejoin:miter;"/>
   </g>
   <g id="patch_37">
    <path clip-path="url(#p41c68fe59e)" d="M 278.857493 108 
L 283.601659 108 
L 283.601659 100.82717 
L 278.857493 100.82717 
z
" style="fill:#00008b;opacity:0.4;stroke:#000000;stroke-linejoin:miter;"/>
   </g>
   <g id="patch_38">
    <path clip-path="url(#p41c68fe59e)" d="M 283.601659 108 
L 288.345825 108 
L 288.345825 96.045283 
L 283.601659 96.045283 
z
" style="fill:#00008b;opacity:0.4;stroke:#000000;stroke-linejoin:miter;"/>
   </g>
   <g id="patch_39">
    <path clip-path="url(#p41c68fe59e)" d="M 288.345825 108 
L 293.089991 108 
L 293.089991 97.240755 
L 288.345825 97.240755 
z
" style="fill:#00008b;opacity:0.4;stroke:#000000;stroke-linejoin:miter;"/>
   </g>
   <g id="patch_40">
    <path clip-path="url(#p41c68fe59e)" d="M 293.089991 108 
L 297.834157 108 
L 297.834157 91.263396 
L 293.089991 91.263396 
z
" style="fill:#00008b;opacity:0.4;stroke:#000000;stroke-linejoin:miter;"/>
   </g>
   <g id="patch_41">
    <path clip-path="url(#p41c68fe59e)" d="M 297.834157 108 
L 302.578323 108 
L 302.578323 90.067925 
L 297.834157 90.067925 
z
" style="fill:#00008b;opacity:0.4;stroke:#000000;stroke-linejoin:miter;"/>
   </g>
   <g id="patch_42">
    <path clip-path="url(#p41c68fe59e)" d="M 302.578323 108 
L 307.322489 108 
L 307.322489 85.286038 
L 302.578323 85.286038 
z
" style="fill:#00008b;opacity:0.4;stroke:#000000;stroke-linejoin:miter;"/>
   </g>
   <g id="patch_43">
    <path clip-path="url(#p41c68fe59e)" d="M 307.322489 108 
L 312.066655 108 
L 312.066655 94.849811 
L 307.322489 94.849811 
z
" style="fill:#00008b;opacity:0.4;stroke:#000000;stroke-linejoin:miter;"/>
   </g>
   <g id="patch_44">
    <path clip-path="url(#p41c68fe59e)" d="M 312.066655 108 
L 316.81082 108 
L 316.81082 94.849811 
L 312.066655 94.849811 
z
" style="fill:#00008b;opacity:0.4;stroke:#000000;stroke-linejoin:miter;"/>
   </g>
   <g id="patch_45">
    <path clip-path="url(#p41c68fe59e)" d="M 316.81082 108 
L 321.554986 108 
L 321.554986 88.872453 
L 316.81082 88.872453 
z
" style="fill:#00008b;opacity:0.4;stroke:#000000;stroke-linejoin:miter;"/>
   </g>
   <g id="patch_46">
    <path clip-path="url(#p41c68fe59e)" d="M 321.554986 108 
L 326.299152 108 
L 326.299152 98.436226 
L 321.554986 98.436226 
z
" style="fill:#00008b;opacity:0.4;stroke:#000000;stroke-linejoin:miter;"/>
   </g>
   <g id="patch_47">
    <path clip-path="url(#p41c68fe59e)" d="M 326.299152 108 
L 331.043318 108 
L 331.043318 106.804528 
L 326.299152 106.804528 
z
" style="fill:#00008b;opacity:0.4;stroke:#000000;stroke-linejoin:miter;"/>
   </g>
   <g id="patch_48">
    <path clip-path="url(#p41c68fe59e)" d="M 331.043318 108 
L 335.787484 108 
L 335.787484 105.609057 
L 331.043318 105.609057 
z
" style="fill:#00008b;opacity:0.4;stroke:#000000;stroke-linejoin:miter;"/>
   </g>
   <g id="patch_49">
    <path clip-path="url(#p41c68fe59e)" d="M 335.787484 108 
L 340.53165 108 
L 340.53165 105.609057 
L 335.787484 105.609057 
z
" style="fill:#00008b;opacity:0.4;stroke:#000000;stroke-linejoin:miter;"/>
   </g>
   <g id="patch_50">
    <path clip-path="url(#p41c68fe59e)" d="M 340.53165 108 
L 345.275816 108 
L 345.275816 108 
L 340.53165 108 
z
" style="fill:#00008b;opacity:0.4;stroke:#000000;stroke-linejoin:miter;"/>
   </g>
   <g id="patch_51">
    <path clip-path="url(#p41c68fe59e)" d="M 345.275816 108 
L 350.019982 108 
L 350.019982 108 
L 345.275816 108 
z
" style="fill:#00008b;opacity:0.4;stroke:#000000;stroke-linejoin:miter;"/>
   </g>
   <g id="patch_52">
    <path clip-path="url(#p41c68fe59e)" d="M 350.019982 108 
L 354.764148 108 
L 354.764148 106.804528 
L 350.019982 106.804528 
z
" style="fill:#00008b;opacity:0.4;stroke:#000000;stroke-linejoin:miter;"/>
   </g>
   <g id="matplotlib.axis_1">
    <g id="xtick_1">
     <g id="line2d_1">
      <defs>
       <path d="M 0 0 
L 0 3.5 
" id="mc2d50f9eec" style="stroke:#000000;stroke-width:0.8;"/>
      </defs>
      <g>
       <use style="stroke:#000000;stroke-width:0.8;" x="96.797907" xlink:href="#mc2d50f9eec" y="108"/>
      </g>
     </g>
     <g id="text_1">
      <!-- −1.0 -->
      <defs>
       <path d="M 10.59375 35.5 
L 73.1875 35.5 
L 73.1875 27.203125 
L 10.59375 27.203125 
z
" id="DejaVuSans-8722"/>
       <path d="M 12.40625 8.296875 
L 28.515625 8.296875 
L 28.515625 63.921875 
L 10.984375 60.40625 
L 10.984375 69.390625 
L 28.421875 72.90625 
L 38.28125 72.90625 
L 38.28125 8.296875 
L 54.390625 8.296875 
L 54.390625 0 
L 12.40625 0 
z
" id="DejaVuSans-49"/>
       <path d="M 10.6875 12.40625 
L 21 12.40625 
L 21 0 
L 10.6875 0 
z
" id="DejaVuSans-46"/>
       <path d="M 31.78125 66.40625 
Q 24.171875 66.40625 20.328125 58.90625 
Q 16.5 51.421875 16.5 36.375 
Q 16.5 21.390625 20.328125 13.890625 
Q 24.171875 6.390625 31.78125 6.390625 
Q 39.453125 6.390625 43.28125 13.890625 
Q 47.125 21.390625 47.125 36.375 
Q 47.125 51.421875 43.28125 58.90625 
Q 39.453125 66.40625 31.78125 66.40625 
z
M 31.78125 74.21875 
Q 44.046875 74.21875 50.515625 64.515625 
Q 56.984375 54.828125 56.984375 36.375 
Q 56.984375 17.96875 50.515625 8.265625 
Q 44.046875 -1.421875 31.78125 -1.421875 
Q 19.53125 -1.421875 13.0625 8.265625 
Q 6.59375 17.96875 6.59375 36.375 
Q 6.59375 54.828125 13.0625 64.515625 
Q 19.53125 74.21875 31.78125 74.21875 
z
" id="DejaVuSans-48"/>
      </defs>
      <g transform="translate(84.656501 122.598437)scale(0.1 -0.1)">
       <use xlink:href="#DejaVuSans-8722"/>
       <use x="83.789062" xlink:href="#DejaVuSans-49"/>
       <use x="147.412109" xlink:href="#DejaVuSans-46"/>
       <use x="179.199219" xlink:href="#DejaVuSans-48"/>
      </g>
     </g>
    </g>
    <g id="xtick_2">
     <g id="line2d_2">
      <g>
       <use style="stroke:#000000;stroke-width:0.8;" x="162.599824" xlink:href="#mc2d50f9eec" y="108"/>
      </g>
     </g>
     <g id="text_2">
      <!-- −0.5 -->
      <defs>
       <path d="M 10.796875 72.90625 
L 49.515625 72.90625 
L 49.515625 64.59375 
L 19.828125 64.59375 
L 19.828125 46.734375 
Q 21.96875 47.46875 24.109375 47.828125 
Q 26.265625 48.1875 28.421875 48.1875 
Q 40.625 48.1875 47.75 41.5 
Q 54.890625 34.8125 54.890625 23.390625 
Q 54.890625 11.625 47.5625 5.09375 
Q 40.234375 -1.421875 26.90625 -1.421875 
Q 22.3125 -1.421875 17.546875 -0.640625 
Q 12.796875 0.140625 7.71875 1.703125 
L 7.71875 11.625 
Q 12.109375 9.234375 16.796875 8.0625 
Q 21.484375 6.890625 26.703125 6.890625 
Q 35.15625 6.890625 40.078125 11.328125 
Q 45.015625 15.765625 45.015625 23.390625 
Q 45.015625 31 40.078125 35.4375 
Q 35.15625 39.890625 26.703125 39.890625 
Q 22.75 39.890625 18.8125 39.015625 
Q 14.890625 38.140625 10.796875 36.28125 
z
" id="DejaVuSans-53"/>
      </defs>
      <g transform="translate(150.458418 122.598437)scale(0.1 -0.1)">
       <use xlink:href="#DejaVuSans-8722"/>
       <use x="83.789062" xlink:href="#DejaVuSans-48"/>
       <use x="147.412109" xlink:href="#DejaVuSans-46"/>
       <use x="179.199219" xlink:href="#DejaVuSans-53"/>
      </g>
     </g>
    </g>
    <g id="xtick_3">
     <g id="line2d_3">
      <g>
       <use style="stroke:#000000;stroke-width:0.8;" x="228.40174" xlink:href="#mc2d50f9eec" y="108"/>
      </g>
     </g>
     <g id="text_3">
      <!-- 0.0 -->
      <g transform="translate(220.450178 122.598437)scale(0.1 -0.1)">
       <use xlink:href="#DejaVuSans-48"/>
       <use x="63.623047" xlink:href="#DejaVuSans-46"/>
       <use x="95.410156" xlink:href="#DejaVuSans-48"/>
      </g>
     </g>
    </g>
    <g id="xtick_4">
     <g id="line2d_4">
      <g>
       <use style="stroke:#000000;stroke-width:0.8;" x="294.203657" xlink:href="#mc2d50f9eec" y="108"/>
      </g>
     </g>
     <g id="text_4">
      <!-- 0.5 -->
      <g transform="translate(286.252095 122.598437)scale(0.1 -0.1)">
       <use xlink:href="#DejaVuSans-48"/>
       <use x="63.623047" xlink:href="#DejaVuSans-46"/>
       <use x="95.410156" xlink:href="#DejaVuSans-53"/>
      </g>
     </g>
    </g>
    <g id="xtick_5">
     <g id="line2d_5">
      <g>
       <use style="stroke:#000000;stroke-width:0.8;" x="360.005574" xlink:href="#mc2d50f9eec" y="108"/>
      </g>
     </g>
     <g id="text_5">
      <!-- 1.0 -->
      <g transform="translate(352.054011 122.598437)scale(0.1 -0.1)">
       <use xlink:href="#DejaVuSans-49"/>
       <use x="63.623047" xlink:href="#DejaVuSans-46"/>
       <use x="95.410156" xlink:href="#DejaVuSans-48"/>
      </g>
     </g>
    </g>
   </g>
   <g id="matplotlib.axis_2">
    <g id="ytick_1">
     <g id="line2d_6">
      <defs>
       <path d="M 0 0 
L -3.5 0 
" id="m9aa5616c46" style="stroke:#000000;stroke-width:0.8;"/>
      </defs>
      <g>
       <use style="stroke:#000000;stroke-width:0.8;" x="57.6" xlink:href="#m9aa5616c46" y="108"/>
      </g>
     </g>
     <g id="text_6">
      <!-- 0 -->
      <g transform="translate(44.2375 111.799219)scale(0.1 -0.1)">
       <use xlink:href="#DejaVuSans-48"/>
      </g>
     </g>
    </g>
    <g id="ytick_2">
     <g id="line2d_7">
      <g>
       <use style="stroke:#000000;stroke-width:0.8;" x="57.6" xlink:href="#m9aa5616c46" y="81.28087"/>
      </g>
     </g>
     <g id="text_7">
      <!-- 1 -->
      <g transform="translate(44.2375 85.080088)scale(0.1 -0.1)">
       <use xlink:href="#DejaVuSans-49"/>
      </g>
     </g>
    </g>
    <g id="ytick_3">
     <g id="line2d_8">
      <g>
       <use style="stroke:#000000;stroke-width:0.8;" x="57.6" xlink:href="#m9aa5616c46" y="54.561739"/>
      </g>
     </g>
     <g id="text_8">
      <!-- 2 -->
      <defs>
       <path d="M 19.1875 8.296875 
L 53.609375 8.296875 
L 53.609375 0 
L 7.328125 0 
L 7.328125 8.296875 
Q 12.9375 14.109375 22.625 23.890625 
Q 32.328125 33.6875 34.8125 36.53125 
Q 39.546875 41.84375 41.421875 45.53125 
Q 43.3125 49.21875 43.3125 52.78125 
Q 43.3125 58.59375 39.234375 62.25 
Q 35.15625 65.921875 28.609375 65.921875 
Q 23.96875 65.921875 18.8125 64.3125 
Q 13.671875 62.703125 7.8125 59.421875 
L 7.8125 69.390625 
Q 13.765625 71.78125 18.9375 73 
Q 24.125 74.21875 28.421875 74.21875 
Q 39.75 74.21875 46.484375 68.546875 
Q 53.21875 62.890625 53.21875 53.421875 
Q 53.21875 48.921875 51.53125 44.890625 
Q 49.859375 40.875 45.40625 35.40625 
Q 44.1875 33.984375 37.640625 27.21875 
Q 31.109375 20.453125 19.1875 8.296875 
z
" id="DejaVuSans-50"/>
      </defs>
      <g transform="translate(44.2375 58.360958)scale(0.1 -0.1)">
       <use xlink:href="#DejaVuSans-50"/>
      </g>
     </g>
    </g>
    <g id="text_9">
     <!-- Density -->
     <defs>
      <path d="M 19.671875 64.796875 
L 19.671875 8.109375 
L 31.59375 8.109375 
Q 46.6875 8.109375 53.6875 14.9375 
Q 60.6875 21.78125 60.6875 36.53125 
Q 60.6875 51.171875 53.6875 57.984375 
Q 46.6875 64.796875 31.59375 64.796875 
z
M 9.8125 72.90625 
L 30.078125 72.90625 
Q 51.265625 72.90625 61.171875 64.09375 
Q 71.09375 55.28125 71.09375 36.53125 
Q 71.09375 17.671875 61.125 8.828125 
Q 51.171875 0 30.078125 0 
L 9.8125 0 
z
" id="DejaVuSans-68"/>
      <path d="M 56.203125 29.59375 
L 56.203125 25.203125 
L 14.890625 25.203125 
Q 15.484375 15.921875 20.484375 11.0625 
Q 25.484375 6.203125 34.421875 6.203125 
Q 39.59375 6.203125 44.453125 7.46875 
Q 49.3125 8.734375 54.109375 11.28125 
L 54.109375 2.78125 
Q 49.265625 0.734375 44.1875 -0.34375 
Q 39.109375 -1.421875 33.890625 -1.421875 
Q 20.796875 -1.421875 13.15625 6.1875 
Q 5.515625 13.8125 5.515625 26.8125 
Q 5.515625 40.234375 12.765625 48.109375 
Q 20.015625 56 32.328125 56 
Q 43.359375 56 49.78125 48.890625 
Q 56.203125 41.796875 56.203125 29.59375 
z
M 47.21875 32.234375 
Q 47.125 39.59375 43.09375 43.984375 
Q 39.0625 48.390625 32.421875 48.390625 
Q 24.90625 48.390625 20.390625 44.140625 
Q 15.875 39.890625 15.1875 32.171875 
z
" id="DejaVuSans-101"/>
      <path d="M 54.890625 33.015625 
L 54.890625 0 
L 45.90625 0 
L 45.90625 32.71875 
Q 45.90625 40.484375 42.875 44.328125 
Q 39.84375 48.1875 33.796875 48.1875 
Q 26.515625 48.1875 22.3125 43.546875 
Q 18.109375 38.921875 18.109375 30.90625 
L 18.109375 0 
L 9.078125 0 
L 9.078125 54.6875 
L 18.109375 54.6875 
L 18.109375 46.1875 
Q 21.34375 51.125 25.703125 53.5625 
Q 30.078125 56 35.796875 56 
Q 45.21875 56 50.046875 50.171875 
Q 54.890625 44.34375 54.890625 33.015625 
z
" id="DejaVuSans-110"/>
      <path d="M 44.28125 53.078125 
L 44.28125 44.578125 
Q 40.484375 46.53125 36.375 47.5 
Q 32.28125 48.484375 27.875 48.484375 
Q 21.1875 48.484375 17.84375 46.4375 
Q 14.5 44.390625 14.5 40.28125 
Q 14.5 37.15625 16.890625 35.375 
Q 19.28125 33.59375 26.515625 31.984375 
L 29.59375 31.296875 
Q 39.15625 29.25 43.1875 25.515625 
Q 47.21875 21.78125 47.21875 15.09375 
Q 47.21875 7.46875 41.1875 3.015625 
Q 35.15625 -1.421875 24.609375 -1.421875 
Q 20.21875 -1.421875 15.453125 -0.5625 
Q 10.6875 0.296875 5.421875 2 
L 5.421875 11.28125 
Q 10.40625 8.6875 15.234375 7.390625 
Q 20.0625 6.109375 24.8125 6.109375 
Q 31.15625 6.109375 34.5625 8.28125 
Q 37.984375 10.453125 37.984375 14.40625 
Q 37.984375 18.0625 35.515625 20.015625 
Q 33.0625 21.96875 24.703125 23.78125 
L 21.578125 24.515625 
Q 13.234375 26.265625 9.515625 29.90625 
Q 5.8125 33.546875 5.8125 39.890625 
Q 5.8125 47.609375 11.28125 51.796875 
Q 16.75 56 26.8125 56 
Q 31.78125 56 36.171875 55.265625 
Q 40.578125 54.546875 44.28125 53.078125 
z
" id="DejaVuSans-115"/>
      <path d="M 9.421875 54.6875 
L 18.40625 54.6875 
L 18.40625 0 
L 9.421875 0 
z
M 9.421875 75.984375 
L 18.40625 75.984375 
L 18.40625 64.59375 
L 9.421875 64.59375 
z
" id="DejaVuSans-105"/>
      <path d="M 18.3125 70.21875 
L 18.3125 54.6875 
L 36.8125 54.6875 
L 36.8125 47.703125 
L 18.3125 47.703125 
L 18.3125 18.015625 
Q 18.3125 11.328125 20.140625 9.421875 
Q 21.96875 7.515625 27.59375 7.515625 
L 36.8125 7.515625 
L 36.8125 0 
L 27.59375 0 
Q 17.1875 0 13.234375 3.875 
Q 9.28125 7.765625 9.28125 18.015625 
L 9.28125 47.703125 
L 2.6875 47.703125 
L 2.6875 54.6875 
L 9.28125 54.6875 
L 9.28125 70.21875 
z
" id="DejaVuSans-116"/>
      <path d="M 32.171875 -5.078125 
Q 28.375 -14.84375 24.75 -17.8125 
Q 21.140625 -20.796875 15.09375 -20.796875 
L 7.90625 -20.796875 
L 7.90625 -13.28125 
L 13.1875 -13.28125 
Q 16.890625 -13.28125 18.9375 -11.515625 
Q 21 -9.765625 23.484375 -3.21875 
L 25.09375 0.875 
L 2.984375 54.6875 
L 12.5 54.6875 
L 29.59375 11.921875 
L 46.6875 54.6875 
L 56.203125 54.6875 
z
" id="DejaVuSans-121"/>
     </defs>
     <g transform="translate(38.157812 93.744594)rotate(-90)scale(0.1 -0.1)">
      <use xlink:href="#DejaVuSans-68"/>
      <use x="77.001953" xlink:href="#DejaVuSans-101"/>
      <use x="138.525391" xlink:href="#DejaVuSans-110"/>
      <use x="201.904297" xlink:href="#DejaVuSans-115"/>
      <use x="254.003906" xlink:href="#DejaVuSans-105"/>
      <use x="281.787109" xlink:href="#DejaVuSans-116"/>
      <use x="320.996094" xlink:href="#DejaVuSans-121"/>
     </g>
    </g>
   </g>
   <g id="line2d_9">
    <path clip-path="url(#p41c68fe59e)" d="M 73.832727 107.996195 
L 77.112066 107.9921 
L 80.391405 107.984259 
L 83.670744 107.969868 
L 86.950083 107.944519 
L 90.229421 107.901625 
L 93.50876 107.831824 
L 96.788099 107.722473 
L 100.067438 107.557417 
L 103.346777 107.317214 
L 106.626116 106.980052 
L 109.905455 106.523537 
L 113.184793 105.927411 
L 116.464132 105.177058 
L 119.743471 104.267365 
L 123.02281 103.206184 
L 126.302149 102.016485 
L 129.581488 100.736281 
L 132.860826 99.415808 
L 136.140165 98.112095 
L 139.419504 96.881864 
L 142.698843 95.774315 
L 145.978182 94.825516 
L 149.257521 94.055651 
L 152.53686 93.469467 
L 155.816198 93.059154 
L 159.095537 92.808216 
L 162.374876 92.694819 
L 165.654215 92.693697 
L 168.933554 92.776606 
L 172.212893 92.912029 
L 175.492231 93.064995 
L 178.77157 93.197471 
L 182.050909 93.269117 
L 185.330248 93.237798 
L 188.609587 93.059432 
L 191.888926 92.687581 
L 195.168264 92.074222 
L 198.447603 91.173744 
L 201.726942 89.951802 
L 205.006281 88.398965 
L 208.28562 86.546597 
L 211.564959 84.479923 
L 214.844298 82.342143 
L 218.123636 80.324613 
L 221.402975 78.641767 
L 224.682314 77.494562 
L 227.961653 77.03101 
L 231.240992 77.314627 
L 234.520331 78.310272 
L 237.799669 79.891883 
L 241.079008 81.869958 
L 244.358347 84.030662 
L 247.637686 86.175526 
L 250.917025 88.151559 
L 254.196364 89.86575 
L 257.475702 91.283303 
L 260.755041 92.413628 
L 264.03438 93.290664 
L 267.313719 93.954108 
L 270.593058 94.436334 
L 273.872397 94.757052 
L 277.151736 94.925249 
L 280.431074 94.946149 
L 283.710413 94.830099 
L 286.989752 94.600337 
L 290.269091 94.297285 
L 293.54843 93.97813 
L 296.827769 93.7117 
L 300.107107 93.569809 
L 303.386446 93.617015 
L 306.665785 93.901006 
L 309.945124 94.445545 
L 313.224463 95.247182 
L 316.503802 96.276113 
L 319.78314 97.480768 
L 323.062479 98.795133 
L 326.341818 100.147503 
L 329.621157 101.469249 
L 332.900496 102.702262 
L 336.179835 103.804062 
L 339.459174 104.750005 
L 342.738512 105.532624 
L 346.017851 106.158687 
L 349.29719 106.644908 
L 352.576529 107.013344 
L 355.855868 107.287355 
L 359.135207 107.488652 
L 362.414545 107.635605 
L 365.693884 107.74266 
L 368.973223 107.820573 
L 372.252562 107.877079 
L 375.531901 107.917686 
L 378.81124 107.94639 
L 382.090579 107.966194 
L 385.369917 107.979439 
L 388.649256 107.987976 
L 391.928595 107.993256 
L 395.207934 107.99638 
L 398.487273 107.998142 
" style="fill:none;stroke:#00008b;stroke-linecap:square;stroke-width:4;"/>
   </g>
   <g id="patch_53">
    <path d="M 57.6 108 
L 57.6 41.472 
" style="fill:none;stroke:#000000;stroke-linecap:square;stroke-linejoin:miter;stroke-width:0.8;"/>
   </g>
   <g id="patch_54">
    <path d="M 414.72 108 
L 414.72 41.472 
" style="fill:none;stroke:#000000;stroke-linecap:square;stroke-linejoin:miter;stroke-width:0.8;"/>
   </g>
   <g id="patch_55">
    <path d="M 57.6 108 
L 414.72 108 
" style="fill:none;stroke:#000000;stroke-linecap:square;stroke-linejoin:miter;stroke-width:0.8;"/>
   </g>
   <g id="patch_56">
    <path d="M 57.6 41.472 
L 414.72 41.472 
" style="fill:none;stroke:#000000;stroke-linecap:square;stroke-linejoin:miter;stroke-width:0.8;"/>
   </g>
   <g id="legend_1">
    <g id="patch_57">
     <path d="M 369.80125 64.150125 
L 407.72 64.150125 
Q 409.72 64.150125 409.72 62.150125 
L 409.72 48.472 
Q 409.72 46.472 407.72 46.472 
L 369.80125 46.472 
Q 367.80125 46.472 367.80125 48.472 
L 367.80125 62.150125 
Q 367.80125 64.150125 369.80125 64.150125 
z
" style="fill:#ffffff;opacity:0.8;stroke:#cccccc;stroke-linejoin:miter;"/>
    </g>
    <g id="patch_58">
     <path d="M 371.80125 58.070438 
L 391.80125 58.070438 
L 391.80125 51.070438 
L 371.80125 51.070438 
z
" style="fill:#00008b;opacity:0.4;stroke:#000000;stroke-linejoin:miter;"/>
    </g>
    <g id="text_10">
     <!-- x -->
     <defs>
      <path d="M 54.890625 54.6875 
L 35.109375 28.078125 
L 55.90625 0 
L 45.3125 0 
L 29.390625 21.484375 
L 13.484375 0 
L 2.875 0 
L 24.125 28.609375 
L 4.6875 54.6875 
L 15.28125 54.6875 
L 29.78125 35.203125 
L 44.28125 54.6875 
z
" id="DejaVuSans-120"/>
     </defs>
     <g transform="translate(399.80125 58.070438)scale(0.1 -0.1)">
      <use xlink:href="#DejaVuSans-120"/>
     </g>
    </g>
   </g>
  </g>
  <g id="axes_2">
   <g id="patch_59">
    <path d="M 57.6 207.792 
L 414.72 207.792 
L 414.72 141.264 
L 57.6 141.264 
z
" style="fill:#ffffff;"/>
   </g>
   <g id="patch_60">
    <path clip-path="url(#p21991ad0aa)" d="M 120.178852 207.792 
L 124.818098 207.792 
L 124.818098 198.044308 
L 120.178852 198.044308 
z
" style="fill:#006400;opacity:0.4;stroke:#000000;stroke-linejoin:miter;"/>
   </g>
   <g id="patch_61">
    <path clip-path="url(#p21991ad0aa)" d="M 124.818098 207.792 
L 129.457344 207.792 
L 129.457344 199.668923 
L 124.818098 199.668923 
z
" style="fill:#006400;opacity:0.4;stroke:#000000;stroke-linejoin:miter;"/>
   </g>
   <g id="patch_62">
    <path clip-path="url(#p21991ad0aa)" d="M 129.457344 207.792 
L 134.09659 207.792 
L 134.09659 198.044308 
L 129.457344 198.044308 
z
" style="fill:#006400;opacity:0.4;stroke:#000000;stroke-linejoin:miter;"/>
   </g>
   <g id="patch_63">
    <path clip-path="url(#p21991ad0aa)" d="M 134.09659 207.792 
L 138.735836 207.792 
L 138.735836 201.293538 
L 134.09659 201.293538 
z
" style="fill:#006400;opacity:0.4;stroke:#000000;stroke-linejoin:miter;"/>
   </g>
   <g id="patch_64">
    <path clip-path="url(#p21991ad0aa)" d="M 138.735836 207.792 
L 143.375082 207.792 
L 143.375082 185.047385 
L 138.735836 185.047385 
z
" style="fill:#006400;opacity:0.4;stroke:#000000;stroke-linejoin:miter;"/>
   </g>
   <g id="patch_65">
    <path clip-path="url(#p21991ad0aa)" d="M 143.375082 207.792 
L 148.014328 207.792 
L 148.014328 188.296615 
L 143.375082 188.296615 
z
" style="fill:#006400;opacity:0.4;stroke:#000000;stroke-linejoin:miter;"/>
   </g>
   <g id="patch_66">
    <path clip-path="url(#p21991ad0aa)" d="M 148.014328 207.792 
L 152.653574 207.792 
L 152.653574 183.422769 
L 148.014328 183.422769 
z
" style="fill:#006400;opacity:0.4;stroke:#000000;stroke-linejoin:miter;"/>
   </g>
   <g id="patch_67">
    <path clip-path="url(#p21991ad0aa)" d="M 152.653574 207.792 
L 157.29282 207.792 
L 157.29282 194.795077 
L 152.653574 194.795077 
z
" style="fill:#006400;opacity:0.4;stroke:#000000;stroke-linejoin:miter;"/>
   </g>
   <g id="patch_68">
    <path clip-path="url(#p21991ad0aa)" d="M 157.29282 207.792 
L 161.932065 207.792 
L 161.932065 199.668923 
L 157.29282 199.668923 
z
" style="fill:#006400;opacity:0.4;stroke:#000000;stroke-linejoin:miter;"/>
   </g>
   <g id="patch_69">
    <path clip-path="url(#p21991ad0aa)" d="M 161.932065 207.792 
L 166.571311 207.792 
L 166.571311 189.921231 
L 161.932065 189.921231 
z
" style="fill:#006400;opacity:0.4;stroke:#000000;stroke-linejoin:miter;"/>
   </g>
   <g id="patch_70">
    <path clip-path="url(#p21991ad0aa)" d="M 166.571311 207.792 
L 171.210557 207.792 
L 171.210557 178.548923 
L 166.571311 178.548923 
z
" style="fill:#006400;opacity:0.4;stroke:#000000;stroke-linejoin:miter;"/>
   </g>
   <g id="patch_71">
    <path clip-path="url(#p21991ad0aa)" d="M 171.210557 207.792 
L 175.849803 207.792 
L 175.849803 193.170462 
L 171.210557 193.170462 
z
" style="fill:#006400;opacity:0.4;stroke:#000000;stroke-linejoin:miter;"/>
   </g>
   <g id="patch_72">
    <path clip-path="url(#p21991ad0aa)" d="M 175.849803 207.792 
L 180.489049 207.792 
L 180.489049 185.047385 
L 175.849803 185.047385 
z
" style="fill:#006400;opacity:0.4;stroke:#000000;stroke-linejoin:miter;"/>
   </g>
   <g id="patch_73">
    <path clip-path="url(#p21991ad0aa)" d="M 180.489049 207.792 
L 185.128295 207.792 
L 185.128295 193.170462 
L 180.489049 193.170462 
z
" style="fill:#006400;opacity:0.4;stroke:#000000;stroke-linejoin:miter;"/>
   </g>
   <g id="patch_74">
    <path clip-path="url(#p21991ad0aa)" d="M 185.128295 207.792 
L 189.767541 207.792 
L 189.767541 181.798154 
L 185.128295 181.798154 
z
" style="fill:#006400;opacity:0.4;stroke:#000000;stroke-linejoin:miter;"/>
   </g>
   <g id="patch_75">
    <path clip-path="url(#p21991ad0aa)" d="M 189.767541 207.792 
L 194.406787 207.792 
L 194.406787 173.675077 
L 189.767541 173.675077 
z
" style="fill:#006400;opacity:0.4;stroke:#000000;stroke-linejoin:miter;"/>
   </g>
   <g id="patch_76">
    <path clip-path="url(#p21991ad0aa)" d="M 194.406787 207.792 
L 199.046033 207.792 
L 199.046033 175.299692 
L 194.406787 175.299692 
z
" style="fill:#006400;opacity:0.4;stroke:#000000;stroke-linejoin:miter;"/>
   </g>
   <g id="patch_77">
    <path clip-path="url(#p21991ad0aa)" d="M 199.046033 207.792 
L 203.685279 207.792 
L 203.685279 191.545846 
L 199.046033 191.545846 
z
" style="fill:#006400;opacity:0.4;stroke:#000000;stroke-linejoin:miter;"/>
   </g>
   <g id="patch_78">
    <path clip-path="url(#p21991ad0aa)" d="M 203.685279 207.792 
L 208.324525 207.792 
L 208.324525 185.047385 
L 203.685279 185.047385 
z
" style="fill:#006400;opacity:0.4;stroke:#000000;stroke-linejoin:miter;"/>
   </g>
   <g id="patch_79">
    <path clip-path="url(#p21991ad0aa)" d="M 208.324525 207.792 
L 212.96377 207.792 
L 212.96377 201.293538 
L 208.324525 201.293538 
z
" style="fill:#006400;opacity:0.4;stroke:#000000;stroke-linejoin:miter;"/>
   </g>
   <g id="patch_80">
    <path clip-path="url(#p21991ad0aa)" d="M 212.96377 207.792 
L 217.603016 207.792 
L 217.603016 185.047385 
L 212.96377 185.047385 
z
" style="fill:#006400;opacity:0.4;stroke:#000000;stroke-linejoin:miter;"/>
   </g>
   <g id="patch_81">
    <path clip-path="url(#p21991ad0aa)" d="M 217.603016 207.792 
L 222.242262 207.792 
L 222.242262 178.548923 
L 217.603016 178.548923 
z
" style="fill:#006400;opacity:0.4;stroke:#000000;stroke-linejoin:miter;"/>
   </g>
   <g id="patch_82">
    <path clip-path="url(#p21991ad0aa)" d="M 222.242262 207.792 
L 226.881508 207.792 
L 226.881508 173.675077 
L 222.242262 173.675077 
z
" style="fill:#006400;opacity:0.4;stroke:#000000;stroke-linejoin:miter;"/>
   </g>
   <g id="patch_83">
    <path clip-path="url(#p21991ad0aa)" d="M 226.881508 207.792 
L 231.520754 207.792 
L 231.520754 154.179692 
L 226.881508 154.179692 
z
" style="fill:#006400;opacity:0.4;stroke:#000000;stroke-linejoin:miter;"/>
   </g>
   <g id="patch_84">
    <path clip-path="url(#p21991ad0aa)" d="M 231.520754 207.792 
L 236.16 207.792 
L 236.16 144.432 
L 231.520754 144.432 
z
" style="fill:#006400;opacity:0.4;stroke:#000000;stroke-linejoin:miter;"/>
   </g>
   <g id="patch_85">
    <path clip-path="url(#p21991ad0aa)" d="M 236.16 207.792 
L 240.799246 207.792 
L 240.799246 162.302769 
L 236.16 162.302769 
z
" style="fill:#006400;opacity:0.4;stroke:#000000;stroke-linejoin:miter;"/>
   </g>
   <g id="patch_86">
    <path clip-path="url(#p21991ad0aa)" d="M 240.799246 207.792 
L 245.438492 207.792 
L 245.438492 186.672 
L 240.799246 186.672 
z
" style="fill:#006400;opacity:0.4;stroke:#000000;stroke-linejoin:miter;"/>
   </g>
   <g id="patch_87">
    <path clip-path="url(#p21991ad0aa)" d="M 245.438492 207.792 
L 250.077738 207.792 
L 250.077738 191.545846 
L 245.438492 191.545846 
z
" style="fill:#006400;opacity:0.4;stroke:#000000;stroke-linejoin:miter;"/>
   </g>
   <g id="patch_88">
    <path clip-path="url(#p21991ad0aa)" d="M 250.077738 207.792 
L 254.716984 207.792 
L 254.716984 196.419692 
L 250.077738 196.419692 
z
" style="fill:#006400;opacity:0.4;stroke:#000000;stroke-linejoin:miter;"/>
   </g>
   <g id="patch_89">
    <path clip-path="url(#p21991ad0aa)" d="M 254.716984 207.792 
L 259.35623 207.792 
L 259.35623 191.545846 
L 254.716984 191.545846 
z
" style="fill:#006400;opacity:0.4;stroke:#000000;stroke-linejoin:miter;"/>
   </g>
   <g id="patch_90">
    <path clip-path="url(#p21991ad0aa)" d="M 259.35623 207.792 
L 263.995475 207.792 
L 263.995475 180.173538 
L 259.35623 180.173538 
z
" style="fill:#006400;opacity:0.4;stroke:#000000;stroke-linejoin:miter;"/>
   </g>
   <g id="patch_91">
    <path clip-path="url(#p21991ad0aa)" d="M 263.995475 207.792 
L 268.634721 207.792 
L 268.634721 186.672 
L 263.995475 186.672 
z
" style="fill:#006400;opacity:0.4;stroke:#000000;stroke-linejoin:miter;"/>
   </g>
   <g id="patch_92">
    <path clip-path="url(#p21991ad0aa)" d="M 268.634721 207.792 
L 273.273967 207.792 
L 273.273967 172.050462 
L 268.634721 172.050462 
z
" style="fill:#006400;opacity:0.4;stroke:#000000;stroke-linejoin:miter;"/>
   </g>
   <g id="patch_93">
    <path clip-path="url(#p21991ad0aa)" d="M 273.273967 207.792 
L 277.913213 207.792 
L 277.913213 194.795077 
L 273.273967 194.795077 
z
" style="fill:#006400;opacity:0.4;stroke:#000000;stroke-linejoin:miter;"/>
   </g>
   <g id="patch_94">
    <path clip-path="url(#p21991ad0aa)" d="M 277.913213 207.792 
L 282.552459 207.792 
L 282.552459 185.047385 
L 277.913213 185.047385 
z
" style="fill:#006400;opacity:0.4;stroke:#000000;stroke-linejoin:miter;"/>
   </g>
   <g id="patch_95">
    <path clip-path="url(#p21991ad0aa)" d="M 282.552459 207.792 
L 287.191705 207.792 
L 287.191705 186.672 
L 282.552459 186.672 
z
" style="fill:#006400;opacity:0.4;stroke:#000000;stroke-linejoin:miter;"/>
   </g>
   <g id="patch_96">
    <path clip-path="url(#p21991ad0aa)" d="M 287.191705 207.792 
L 291.830951 207.792 
L 291.830951 202.918154 
L 287.191705 202.918154 
z
" style="fill:#006400;opacity:0.4;stroke:#000000;stroke-linejoin:miter;"/>
   </g>
   <g id="patch_97">
    <path clip-path="url(#p21991ad0aa)" d="M 291.830951 207.792 
L 296.470197 207.792 
L 296.470197 180.173538 
L 291.830951 180.173538 
z
" style="fill:#006400;opacity:0.4;stroke:#000000;stroke-linejoin:miter;"/>
   </g>
   <g id="patch_98">
    <path clip-path="url(#p21991ad0aa)" d="M 296.470197 207.792 
L 301.109443 207.792 
L 301.109443 196.419692 
L 296.470197 196.419692 
z
" style="fill:#006400;opacity:0.4;stroke:#000000;stroke-linejoin:miter;"/>
   </g>
   <g id="patch_99">
    <path clip-path="url(#p21991ad0aa)" d="M 301.109443 207.792 
L 305.748689 207.792 
L 305.748689 191.545846 
L 301.109443 191.545846 
z
" style="fill:#006400;opacity:0.4;stroke:#000000;stroke-linejoin:miter;"/>
   </g>
   <g id="patch_100">
    <path clip-path="url(#p21991ad0aa)" d="M 305.748689 207.792 
L 310.387935 207.792 
L 310.387935 175.299692 
L 305.748689 175.299692 
z
" style="fill:#006400;opacity:0.4;stroke:#000000;stroke-linejoin:miter;"/>
   </g>
   <g id="patch_101">
    <path clip-path="url(#p21991ad0aa)" d="M 310.387935 207.792 
L 315.02718 207.792 
L 315.02718 191.545846 
L 310.387935 191.545846 
z
" style="fill:#006400;opacity:0.4;stroke:#000000;stroke-linejoin:miter;"/>
   </g>
   <g id="patch_102">
    <path clip-path="url(#p21991ad0aa)" d="M 315.02718 207.792 
L 319.666426 207.792 
L 319.666426 180.173538 
L 315.02718 180.173538 
z
" style="fill:#006400;opacity:0.4;stroke:#000000;stroke-linejoin:miter;"/>
   </g>
   <g id="patch_103">
    <path clip-path="url(#p21991ad0aa)" d="M 319.666426 207.792 
L 324.305672 207.792 
L 324.305672 202.918154 
L 319.666426 202.918154 
z
" style="fill:#006400;opacity:0.4;stroke:#000000;stroke-linejoin:miter;"/>
   </g>
   <g id="patch_104">
    <path clip-path="url(#p21991ad0aa)" d="M 324.305672 207.792 
L 328.944918 207.792 
L 328.944918 198.044308 
L 324.305672 198.044308 
z
" style="fill:#006400;opacity:0.4;stroke:#000000;stroke-linejoin:miter;"/>
   </g>
   <g id="patch_105">
    <path clip-path="url(#p21991ad0aa)" d="M 328.944918 207.792 
L 333.584164 207.792 
L 333.584164 201.293538 
L 328.944918 201.293538 
z
" style="fill:#006400;opacity:0.4;stroke:#000000;stroke-linejoin:miter;"/>
   </g>
   <g id="patch_106">
    <path clip-path="url(#p21991ad0aa)" d="M 333.584164 207.792 
L 338.22341 207.792 
L 338.22341 189.921231 
L 333.584164 189.921231 
z
" style="fill:#006400;opacity:0.4;stroke:#000000;stroke-linejoin:miter;"/>
   </g>
   <g id="patch_107">
    <path clip-path="url(#p21991ad0aa)" d="M 338.22341 207.792 
L 342.862656 207.792 
L 342.862656 198.044308 
L 338.22341 198.044308 
z
" style="fill:#006400;opacity:0.4;stroke:#000000;stroke-linejoin:miter;"/>
   </g>
   <g id="patch_108">
    <path clip-path="url(#p21991ad0aa)" d="M 342.862656 207.792 
L 347.501902 207.792 
L 347.501902 204.542769 
L 342.862656 204.542769 
z
" style="fill:#006400;opacity:0.4;stroke:#000000;stroke-linejoin:miter;"/>
   </g>
   <g id="patch_109">
    <path clip-path="url(#p21991ad0aa)" d="M 347.501902 207.792 
L 352.141148 207.792 
L 352.141148 202.918154 
L 347.501902 202.918154 
z
" style="fill:#006400;opacity:0.4;stroke:#000000;stroke-linejoin:miter;"/>
   </g>
   <g id="matplotlib.axis_3">
    <g id="xtick_6">
     <g id="line2d_10">
      <g>
       <use style="stroke:#000000;stroke-width:0.8;" x="75.511661" xlink:href="#mc2d50f9eec" y="207.792"/>
      </g>
     </g>
     <g id="text_11">
      <!-- −1.0 -->
      <g transform="translate(63.370255 222.390437)scale(0.1 -0.1)">
       <use xlink:href="#DejaVuSans-8722"/>
       <use x="83.789062" xlink:href="#DejaVuSans-49"/>
       <use x="147.412109" xlink:href="#DejaVuSans-46"/>
       <use x="179.199219" xlink:href="#DejaVuSans-48"/>
      </g>
     </g>
    </g>
    <g id="xtick_7">
     <g id="line2d_11">
      <g>
       <use style="stroke:#000000;stroke-width:0.8;" x="153.70293" xlink:href="#mc2d50f9eec" y="207.792"/>
      </g>
     </g>
     <g id="text_12">
      <!-- −0.5 -->
      <g transform="translate(141.561524 222.390437)scale(0.1 -0.1)">
       <use xlink:href="#DejaVuSans-8722"/>
       <use x="83.789062" xlink:href="#DejaVuSans-48"/>
       <use x="147.412109" xlink:href="#DejaVuSans-46"/>
       <use x="179.199219" xlink:href="#DejaVuSans-53"/>
      </g>
     </g>
    </g>
    <g id="xtick_8">
     <g id="line2d_12">
      <g>
       <use style="stroke:#000000;stroke-width:0.8;" x="231.8942" xlink:href="#mc2d50f9eec" y="207.792"/>
      </g>
     </g>
     <g id="text_13">
      <!-- 0.0 -->
      <g transform="translate(223.942637 222.390437)scale(0.1 -0.1)">
       <use xlink:href="#DejaVuSans-48"/>
       <use x="63.623047" xlink:href="#DejaVuSans-46"/>
       <use x="95.410156" xlink:href="#DejaVuSans-48"/>
      </g>
     </g>
    </g>
    <g id="xtick_9">
     <g id="line2d_13">
      <g>
       <use style="stroke:#000000;stroke-width:0.8;" x="310.085469" xlink:href="#mc2d50f9eec" y="207.792"/>
      </g>
     </g>
     <g id="text_14">
      <!-- 0.5 -->
      <g transform="translate(302.133906 222.390437)scale(0.1 -0.1)">
       <use xlink:href="#DejaVuSans-48"/>
       <use x="63.623047" xlink:href="#DejaVuSans-46"/>
       <use x="95.410156" xlink:href="#DejaVuSans-53"/>
      </g>
     </g>
    </g>
    <g id="xtick_10">
     <g id="line2d_14">
      <g>
       <use style="stroke:#000000;stroke-width:0.8;" x="388.276738" xlink:href="#mc2d50f9eec" y="207.792"/>
      </g>
     </g>
     <g id="text_15">
      <!-- 1.0 -->
      <g transform="translate(380.325176 222.390437)scale(0.1 -0.1)">
       <use xlink:href="#DejaVuSans-49"/>
       <use x="63.623047" xlink:href="#DejaVuSans-46"/>
       <use x="95.410156" xlink:href="#DejaVuSans-48"/>
      </g>
     </g>
    </g>
   </g>
   <g id="matplotlib.axis_4">
    <g id="ytick_4">
     <g id="line2d_15">
      <g>
       <use style="stroke:#000000;stroke-width:0.8;" x="57.6" xlink:href="#m9aa5616c46" y="207.792"/>
      </g>
     </g>
     <g id="text_16">
      <!-- 0 -->
      <g transform="translate(44.2375 211.591219)scale(0.1 -0.1)">
       <use xlink:href="#DejaVuSans-48"/>
      </g>
     </g>
    </g>
    <g id="ytick_5">
     <g id="line2d_16">
      <g>
       <use style="stroke:#000000;stroke-width:0.8;" x="57.6" xlink:href="#m9aa5616c46" y="177.910569"/>
      </g>
     </g>
     <g id="text_17">
      <!-- 1 -->
      <g transform="translate(44.2375 181.709788)scale(0.1 -0.1)">
       <use xlink:href="#DejaVuSans-49"/>
      </g>
     </g>
    </g>
    <g id="ytick_6">
     <g id="line2d_17">
      <g>
       <use style="stroke:#000000;stroke-width:0.8;" x="57.6" xlink:href="#m9aa5616c46" y="148.029139"/>
      </g>
     </g>
     <g id="text_18">
      <!-- 2 -->
      <g transform="translate(44.2375 151.828358)scale(0.1 -0.1)">
       <use xlink:href="#DejaVuSans-50"/>
      </g>
     </g>
    </g>
    <g id="text_19">
     <!-- Density -->
     <g transform="translate(38.157812 193.536594)rotate(-90)scale(0.1 -0.1)">
      <use xlink:href="#DejaVuSans-68"/>
      <use x="77.001953" xlink:href="#DejaVuSans-101"/>
      <use x="138.525391" xlink:href="#DejaVuSans-110"/>
      <use x="201.904297" xlink:href="#DejaVuSans-115"/>
      <use x="254.003906" xlink:href="#DejaVuSans-105"/>
      <use x="281.787109" xlink:href="#DejaVuSans-116"/>
      <use x="320.996094" xlink:href="#DejaVuSans-121"/>
     </g>
    </g>
   </g>
   <g id="line2d_18">
    <path clip-path="url(#p21991ad0aa)" d="M 73.832727 207.779279 
L 77.112066 207.767022 
L 80.391405 207.744891 
L 83.670744 207.706611 
L 86.950083 207.643155 
L 90.229421 207.542297 
L 93.50876 207.388506 
L 96.788099 207.16338 
L 100.067438 206.846752 
L 103.346777 206.418507 
L 106.626116 205.860947 
L 109.905455 205.161417 
L 113.184793 204.314792 
L 116.464132 203.325409 
L 119.743471 202.208117 
L 123.02281 200.988225 
L 126.302149 199.70023 
L 129.581488 198.385296 
L 132.860826 197.087562 
L 136.140165 195.84951 
L 139.419504 194.706887 
L 142.698843 193.683973 
L 145.978182 192.790192 
L 149.257521 192.018957 
L 152.53686 191.349268 
L 155.816198 190.749931 
L 159.095537 190.185586 
L 162.374876 189.623322 
L 165.654215 189.038572 
L 168.933554 188.419294 
L 172.212893 187.767784 
L 175.492231 187.099883 
L 178.77157 186.441479 
L 182.050909 185.822462 
L 185.330248 185.268602 
L 188.609587 184.792516 
L 191.888926 184.385648 
L 195.168264 184.013824 
L 198.447603 183.618814 
L 201.726942 183.127343 
L 205.006281 182.467064 
L 208.28562 181.586672 
L 211.564959 180.475425 
L 214.844298 179.17645 
L 218.123636 177.789031 
L 221.402975 176.457436 
L 224.682314 175.347321 
L 227.961653 174.614362 
L 231.240992 174.37238 
L 234.520331 174.668956 
L 237.799669 175.474959 
L 241.079008 176.690853 
L 244.358347 178.168179 
L 247.637686 179.740494 
L 250.917025 181.255729 
L 254.196364 182.601978 
L 257.475702 183.72108 
L 260.755041 184.608166 
L 264.03438 185.299284 
L 267.313719 185.852085 
L 270.593058 186.325665 
L 273.872397 186.764908 
L 277.151736 187.19255 
L 280.431074 187.609592 
L 283.710413 188.002346 
L 286.989752 188.35301 
L 290.269091 188.650251 
L 293.54843 188.896851 
L 296.827769 189.112642 
L 300.107107 189.332323 
L 303.386446 189.599095 
L 306.665785 189.956018 
L 309.945124 190.437467 
L 313.224463 191.062925 
L 316.503802 191.834572 
L 319.78314 192.738969 
L 323.062479 193.751887 
L 326.341818 194.844453 
L 329.621157 195.98856 
L 332.900496 197.160058 
L 336.179835 198.33923 
L 339.459174 199.50917 
L 342.738512 200.653394 
L 346.017851 201.75405 
L 349.29719 202.791658 
L 352.576529 203.746488 
L 355.855868 204.601011 
L 359.135207 205.342499 
L 362.414545 205.964892 
L 365.693884 206.469433 
L 368.973223 206.86399 
L 372.252562 207.161416 
L 375.531901 207.377423 
L 378.81124 207.5285 
L 382.090579 207.630219 
L 385.369917 207.696123 
L 388.649256 207.737196 
L 391.928595 207.761808 
L 395.207934 207.77598 
L 398.487273 207.783819 
" style="fill:none;stroke:#006400;stroke-linecap:square;stroke-width:4;"/>
   </g>
   <g id="patch_110">
    <path d="M 57.6 207.792 
L 57.6 141.264 
" style="fill:none;stroke:#000000;stroke-linecap:square;stroke-linejoin:miter;stroke-width:0.8;"/>
   </g>
   <g id="patch_111">
    <path d="M 414.72 207.792 
L 414.72 141.264 
" style="fill:none;stroke:#000000;stroke-linecap:square;stroke-linejoin:miter;stroke-width:0.8;"/>
   </g>
   <g id="patch_112">
    <path d="M 57.6 207.792 
L 414.72 207.792 
" style="fill:none;stroke:#000000;stroke-linecap:square;stroke-linejoin:miter;stroke-width:0.8;"/>
   </g>
   <g id="patch_113">
    <path d="M 57.6 141.264 
L 414.72 141.264 
" style="fill:none;stroke:#000000;stroke-linecap:square;stroke-linejoin:miter;stroke-width:0.8;"/>
   </g>
   <g id="legend_2">
    <g id="patch_114">
     <path d="M 369.80125 163.942125 
L 407.72 163.942125 
Q 409.72 163.942125 409.72 161.942125 
L 409.72 148.264 
Q 409.72 146.264 407.72 146.264 
L 369.80125 146.264 
Q 367.80125 146.264 367.80125 148.264 
L 367.80125 161.942125 
Q 367.80125 163.942125 369.80125 163.942125 
z
" style="fill:#ffffff;opacity:0.8;stroke:#cccccc;stroke-linejoin:miter;"/>
    </g>
    <g id="patch_115">
     <path d="M 371.80125 157.862437 
L 391.80125 157.862437 
L 391.80125 150.862437 
L 371.80125 150.862437 
z
" style="fill:#006400;opacity:0.4;stroke:#000000;stroke-linejoin:miter;"/>
    </g>
    <g id="text_20">
     <!-- y -->
     <g transform="translate(399.80125 157.862437)scale(0.1 -0.1)">
      <use xlink:href="#DejaVuSans-121"/>
     </g>
    </g>
   </g>
  </g>
  <g id="axes_3">
   <g id="patch_116">
    <path d="M 57.6 307.584 
L 414.72 307.584 
L 414.72 241.056 
L 57.6 241.056 
z
" style="fill:#ffffff;"/>
   </g>
   <g id="patch_117">
    <path clip-path="url(#p6123c376d2)" d="M 119.966461 307.584 
L 124.614202 307.584 
L 124.614202 298.74307 
L 119.966461 298.74307 
z
" style="fill:#8b0000;opacity:0.4;stroke:#000000;stroke-linejoin:miter;"/>
   </g>
   <g id="patch_118">
    <path clip-path="url(#p6123c376d2)" d="M 124.614202 307.584 
L 129.261944 307.584 
L 129.261944 297.269581 
L 124.614202 297.269581 
z
" style="fill:#8b0000;opacity:0.4;stroke:#000000;stroke-linejoin:miter;"/>
   </g>
   <g id="patch_119">
    <path clip-path="url(#p6123c376d2)" d="M 129.261944 307.584 
L 133.909686 307.584 
L 133.909686 295.796093 
L 129.261944 295.796093 
z
" style="fill:#8b0000;opacity:0.4;stroke:#000000;stroke-linejoin:miter;"/>
   </g>
   <g id="patch_120">
    <path clip-path="url(#p6123c376d2)" d="M 133.909686 307.584 
L 138.557427 307.584 
L 138.557427 284.008186 
L 133.909686 284.008186 
z
" style="fill:#8b0000;opacity:0.4;stroke:#000000;stroke-linejoin:miter;"/>
   </g>
   <g id="patch_121">
    <path clip-path="url(#p6123c376d2)" d="M 138.557427 307.584 
L 143.205169 307.584 
L 143.205169 289.90214 
L 138.557427 289.90214 
z
" style="fill:#8b0000;opacity:0.4;stroke:#000000;stroke-linejoin:miter;"/>
   </g>
   <g id="patch_122">
    <path clip-path="url(#p6123c376d2)" d="M 143.205169 307.584 
L 147.85291 307.584 
L 147.85291 297.269581 
L 143.205169 297.269581 
z
" style="fill:#8b0000;opacity:0.4;stroke:#000000;stroke-linejoin:miter;"/>
   </g>
   <g id="patch_123">
    <path clip-path="url(#p6123c376d2)" d="M 147.85291 307.584 
L 152.500652 307.584 
L 152.500652 298.74307 
L 147.85291 298.74307 
z
" style="fill:#8b0000;opacity:0.4;stroke:#000000;stroke-linejoin:miter;"/>
   </g>
   <g id="patch_124">
    <path clip-path="url(#p6123c376d2)" d="M 152.500652 307.584 
L 157.148393 307.584 
L 157.148393 288.428651 
L 152.500652 288.428651 
z
" style="fill:#8b0000;opacity:0.4;stroke:#000000;stroke-linejoin:miter;"/>
   </g>
   <g id="patch_125">
    <path clip-path="url(#p6123c376d2)" d="M 157.148393 307.584 
L 161.796135 307.584 
L 161.796135 300.216558 
L 157.148393 300.216558 
z
" style="fill:#8b0000;opacity:0.4;stroke:#000000;stroke-linejoin:miter;"/>
   </g>
   <g id="patch_126">
    <path clip-path="url(#p6123c376d2)" d="M 161.796135 307.584 
L 166.443877 307.584 
L 166.443877 285.481674 
L 161.796135 285.481674 
z
" style="fill:#8b0000;opacity:0.4;stroke:#000000;stroke-linejoin:miter;"/>
   </g>
   <g id="patch_127">
    <path clip-path="url(#p6123c376d2)" d="M 166.443877 307.584 
L 171.091618 307.584 
L 171.091618 288.428651 
L 166.443877 288.428651 
z
" style="fill:#8b0000;opacity:0.4;stroke:#000000;stroke-linejoin:miter;"/>
   </g>
   <g id="patch_128">
    <path clip-path="url(#p6123c376d2)" d="M 171.091618 307.584 
L 175.73936 307.584 
L 175.73936 300.216558 
L 171.091618 300.216558 
z
" style="fill:#8b0000;opacity:0.4;stroke:#000000;stroke-linejoin:miter;"/>
   </g>
   <g id="patch_129">
    <path clip-path="url(#p6123c376d2)" d="M 175.73936 307.584 
L 180.387101 307.584 
L 180.387101 297.269581 
L 175.73936 297.269581 
z
" style="fill:#8b0000;opacity:0.4;stroke:#000000;stroke-linejoin:miter;"/>
   </g>
   <g id="patch_130">
    <path clip-path="url(#p6123c376d2)" d="M 180.387101 307.584 
L 185.034843 307.584 
L 185.034843 297.269581 
L 180.387101 297.269581 
z
" style="fill:#8b0000;opacity:0.4;stroke:#000000;stroke-linejoin:miter;"/>
   </g>
   <g id="patch_131">
    <path clip-path="url(#p6123c376d2)" d="M 185.034843 307.584 
L 189.682584 307.584 
L 189.682584 298.74307 
L 185.034843 298.74307 
z
" style="fill:#8b0000;opacity:0.4;stroke:#000000;stroke-linejoin:miter;"/>
   </g>
   <g id="patch_132">
    <path clip-path="url(#p6123c376d2)" d="M 189.682584 307.584 
L 194.330326 307.584 
L 194.330326 298.74307 
L 189.682584 298.74307 
z
" style="fill:#8b0000;opacity:0.4;stroke:#000000;stroke-linejoin:miter;"/>
   </g>
   <g id="patch_133">
    <path clip-path="url(#p6123c376d2)" d="M 194.330326 307.584 
L 198.978067 307.584 
L 198.978067 282.534698 
L 194.330326 282.534698 
z
" style="fill:#8b0000;opacity:0.4;stroke:#000000;stroke-linejoin:miter;"/>
   </g>
   <g id="patch_134">
    <path clip-path="url(#p6123c376d2)" d="M 198.978067 307.584 
L 203.625809 307.584 
L 203.625809 291.375628 
L 198.978067 291.375628 
z
" style="fill:#8b0000;opacity:0.4;stroke:#000000;stroke-linejoin:miter;"/>
   </g>
   <g id="patch_135">
    <path clip-path="url(#p6123c376d2)" d="M 203.625809 307.584 
L 208.273551 307.584 
L 208.273551 270.746791 
L 203.625809 270.746791 
z
" style="fill:#8b0000;opacity:0.4;stroke:#000000;stroke-linejoin:miter;"/>
   </g>
   <g id="patch_136">
    <path clip-path="url(#p6123c376d2)" d="M 208.273551 307.584 
L 212.921292 307.584 
L 212.921292 275.167256 
L 208.273551 275.167256 
z
" style="fill:#8b0000;opacity:0.4;stroke:#000000;stroke-linejoin:miter;"/>
   </g>
   <g id="patch_137">
    <path clip-path="url(#p6123c376d2)" d="M 212.921292 307.584 
L 217.569034 307.584 
L 217.569034 286.955163 
L 212.921292 286.955163 
z
" style="fill:#8b0000;opacity:0.4;stroke:#000000;stroke-linejoin:miter;"/>
   </g>
   <g id="patch_138">
    <path clip-path="url(#p6123c376d2)" d="M 217.569034 307.584 
L 222.216775 307.584 
L 222.216775 285.481674 
L 217.569034 285.481674 
z
" style="fill:#8b0000;opacity:0.4;stroke:#000000;stroke-linejoin:miter;"/>
   </g>
   <g id="patch_139">
    <path clip-path="url(#p6123c376d2)" d="M 222.216775 307.584 
L 226.864517 307.584 
L 226.864517 266.326326 
L 222.216775 266.326326 
z
" style="fill:#8b0000;opacity:0.4;stroke:#000000;stroke-linejoin:miter;"/>
   </g>
   <g id="patch_140">
    <path clip-path="url(#p6123c376d2)" d="M 226.864517 307.584 
L 231.512258 307.584 
L 231.512258 260.432372 
L 226.864517 260.432372 
z
" style="fill:#8b0000;opacity:0.4;stroke:#000000;stroke-linejoin:miter;"/>
   </g>
   <g id="patch_141">
    <path clip-path="url(#p6123c376d2)" d="M 231.512258 307.584 
L 236.16 307.584 
L 236.16 244.224 
L 231.512258 244.224 
z
" style="fill:#8b0000;opacity:0.4;stroke:#000000;stroke-linejoin:miter;"/>
   </g>
   <g id="patch_142">
    <path clip-path="url(#p6123c376d2)" d="M 236.16 307.584 
L 240.807742 307.584 
L 240.807742 266.326326 
L 236.16 266.326326 
z
" style="fill:#8b0000;opacity:0.4;stroke:#000000;stroke-linejoin:miter;"/>
   </g>
   <g id="patch_143">
    <path clip-path="url(#p6123c376d2)" d="M 240.807742 307.584 
L 245.455483 307.584 
L 245.455483 281.061209 
L 240.807742 281.061209 
z
" style="fill:#8b0000;opacity:0.4;stroke:#000000;stroke-linejoin:miter;"/>
   </g>
   <g id="patch_144">
    <path clip-path="url(#p6123c376d2)" d="M 245.455483 307.584 
L 250.103225 307.584 
L 250.103225 292.849116 
L 245.455483 292.849116 
z
" style="fill:#8b0000;opacity:0.4;stroke:#000000;stroke-linejoin:miter;"/>
   </g>
   <g id="patch_145">
    <path clip-path="url(#p6123c376d2)" d="M 250.103225 307.584 
L 254.750966 307.584 
L 254.750966 273.693767 
L 250.103225 273.693767 
z
" style="fill:#8b0000;opacity:0.4;stroke:#000000;stroke-linejoin:miter;"/>
   </g>
   <g id="patch_146">
    <path clip-path="url(#p6123c376d2)" d="M 254.750966 307.584 
L 259.398708 307.584 
L 259.398708 288.428651 
L 254.750966 288.428651 
z
" style="fill:#8b0000;opacity:0.4;stroke:#000000;stroke-linejoin:miter;"/>
   </g>
   <g id="patch_147">
    <path clip-path="url(#p6123c376d2)" d="M 259.398708 307.584 
L 264.046449 307.584 
L 264.046449 286.955163 
L 259.398708 286.955163 
z
" style="fill:#8b0000;opacity:0.4;stroke:#000000;stroke-linejoin:miter;"/>
   </g>
   <g id="patch_148">
    <path clip-path="url(#p6123c376d2)" d="M 264.046449 307.584 
L 268.694191 307.584 
L 268.694191 295.796093 
L 264.046449 295.796093 
z
" style="fill:#8b0000;opacity:0.4;stroke:#000000;stroke-linejoin:miter;"/>
   </g>
   <g id="patch_149">
    <path clip-path="url(#p6123c376d2)" d="M 268.694191 307.584 
L 273.341933 307.584 
L 273.341933 295.796093 
L 268.694191 295.796093 
z
" style="fill:#8b0000;opacity:0.4;stroke:#000000;stroke-linejoin:miter;"/>
   </g>
   <g id="patch_150">
    <path clip-path="url(#p6123c376d2)" d="M 273.341933 307.584 
L 277.989674 307.584 
L 277.989674 291.375628 
L 273.341933 291.375628 
z
" style="fill:#8b0000;opacity:0.4;stroke:#000000;stroke-linejoin:miter;"/>
   </g>
   <g id="patch_151">
    <path clip-path="url(#p6123c376d2)" d="M 277.989674 307.584 
L 282.637416 307.584 
L 282.637416 301.690047 
L 277.989674 301.690047 
z
" style="fill:#8b0000;opacity:0.4;stroke:#000000;stroke-linejoin:miter;"/>
   </g>
   <g id="patch_152">
    <path clip-path="url(#p6123c376d2)" d="M 282.637416 307.584 
L 287.285157 307.584 
L 287.285157 295.796093 
L 282.637416 295.796093 
z
" style="fill:#8b0000;opacity:0.4;stroke:#000000;stroke-linejoin:miter;"/>
   </g>
   <g id="patch_153">
    <path clip-path="url(#p6123c376d2)" d="M 287.285157 307.584 
L 291.932899 307.584 
L 291.932899 298.74307 
L 287.285157 298.74307 
z
" style="fill:#8b0000;opacity:0.4;stroke:#000000;stroke-linejoin:miter;"/>
   </g>
   <g id="patch_154">
    <path clip-path="url(#p6123c376d2)" d="M 291.932899 307.584 
L 296.58064 307.584 
L 296.58064 289.90214 
L 291.932899 289.90214 
z
" style="fill:#8b0000;opacity:0.4;stroke:#000000;stroke-linejoin:miter;"/>
   </g>
   <g id="patch_155">
    <path clip-path="url(#p6123c376d2)" d="M 296.58064 307.584 
L 301.228382 307.584 
L 301.228382 292.849116 
L 296.58064 292.849116 
z
" style="fill:#8b0000;opacity:0.4;stroke:#000000;stroke-linejoin:miter;"/>
   </g>
   <g id="patch_156">
    <path clip-path="url(#p6123c376d2)" d="M 301.228382 307.584 
L 305.876123 307.584 
L 305.876123 279.587721 
L 301.228382 279.587721 
z
" style="fill:#8b0000;opacity:0.4;stroke:#000000;stroke-linejoin:miter;"/>
   </g>
   <g id="patch_157">
    <path clip-path="url(#p6123c376d2)" d="M 305.876123 307.584 
L 310.523865 307.584 
L 310.523865 288.428651 
L 305.876123 288.428651 
z
" style="fill:#8b0000;opacity:0.4;stroke:#000000;stroke-linejoin:miter;"/>
   </g>
   <g id="patch_158">
    <path clip-path="url(#p6123c376d2)" d="M 310.523865 307.584 
L 315.171607 307.584 
L 315.171607 282.534698 
L 310.523865 282.534698 
z
" style="fill:#8b0000;opacity:0.4;stroke:#000000;stroke-linejoin:miter;"/>
   </g>
   <g id="patch_159">
    <path clip-path="url(#p6123c376d2)" d="M 315.171607 307.584 
L 319.819348 307.584 
L 319.819348 282.534698 
L 315.171607 282.534698 
z
" style="fill:#8b0000;opacity:0.4;stroke:#000000;stroke-linejoin:miter;"/>
   </g>
   <g id="patch_160">
    <path clip-path="url(#p6123c376d2)" d="M 319.819348 307.584 
L 324.46709 307.584 
L 324.46709 301.690047 
L 319.819348 301.690047 
z
" style="fill:#8b0000;opacity:0.4;stroke:#000000;stroke-linejoin:miter;"/>
   </g>
   <g id="patch_161">
    <path clip-path="url(#p6123c376d2)" d="M 324.46709 307.584 
L 329.114831 307.584 
L 329.114831 297.269581 
L 324.46709 297.269581 
z
" style="fill:#8b0000;opacity:0.4;stroke:#000000;stroke-linejoin:miter;"/>
   </g>
   <g id="patch_162">
    <path clip-path="url(#p6123c376d2)" d="M 329.114831 307.584 
L 333.762573 307.584 
L 333.762573 292.849116 
L 329.114831 292.849116 
z
" style="fill:#8b0000;opacity:0.4;stroke:#000000;stroke-linejoin:miter;"/>
   </g>
   <g id="patch_163">
    <path clip-path="url(#p6123c376d2)" d="M 333.762573 307.584 
L 338.410314 307.584 
L 338.410314 298.74307 
L 333.762573 298.74307 
z
" style="fill:#8b0000;opacity:0.4;stroke:#000000;stroke-linejoin:miter;"/>
   </g>
   <g id="patch_164">
    <path clip-path="url(#p6123c376d2)" d="M 338.410314 307.584 
L 343.058056 307.584 
L 343.058056 304.637023 
L 338.410314 304.637023 
z
" style="fill:#8b0000;opacity:0.4;stroke:#000000;stroke-linejoin:miter;"/>
   </g>
   <g id="patch_165">
    <path clip-path="url(#p6123c376d2)" d="M 343.058056 307.584 
L 347.705798 307.584 
L 347.705798 300.216558 
L 343.058056 300.216558 
z
" style="fill:#8b0000;opacity:0.4;stroke:#000000;stroke-linejoin:miter;"/>
   </g>
   <g id="patch_166">
    <path clip-path="url(#p6123c376d2)" d="M 347.705798 307.584 
L 352.353539 307.584 
L 352.353539 306.110512 
L 347.705798 306.110512 
z
" style="fill:#8b0000;opacity:0.4;stroke:#000000;stroke-linejoin:miter;"/>
   </g>
   <g id="matplotlib.axis_5">
    <g id="xtick_11">
     <g id="line2d_19">
      <g>
       <use style="stroke:#000000;stroke-width:0.8;" x="92.506805" xlink:href="#mc2d50f9eec" y="307.584"/>
      </g>
     </g>
     <g id="text_21">
      <!-- −1.0 -->
      <g transform="translate(80.365399 322.182437)scale(0.1 -0.1)">
       <use xlink:href="#DejaVuSans-8722"/>
       <use x="83.789062" xlink:href="#DejaVuSans-49"/>
       <use x="147.412109" xlink:href="#DejaVuSans-46"/>
       <use x="179.199219" xlink:href="#DejaVuSans-48"/>
      </g>
     </g>
    </g>
    <g id="xtick_12">
     <g id="line2d_20">
      <g>
       <use style="stroke:#000000;stroke-width:0.8;" x="162.33296" xlink:href="#mc2d50f9eec" y="307.584"/>
      </g>
     </g>
     <g id="text_22">
      <!-- −0.5 -->
      <g transform="translate(150.191554 322.182437)scale(0.1 -0.1)">
       <use xlink:href="#DejaVuSans-8722"/>
       <use x="83.789062" xlink:href="#DejaVuSans-48"/>
       <use x="147.412109" xlink:href="#DejaVuSans-46"/>
       <use x="179.199219" xlink:href="#DejaVuSans-53"/>
      </g>
     </g>
    </g>
    <g id="xtick_13">
     <g id="line2d_21">
      <g>
       <use style="stroke:#000000;stroke-width:0.8;" x="232.159116" xlink:href="#mc2d50f9eec" y="307.584"/>
      </g>
     </g>
     <g id="text_23">
      <!-- 0.0 -->
      <g transform="translate(224.207553 322.182437)scale(0.1 -0.1)">
       <use xlink:href="#DejaVuSans-48"/>
       <use x="63.623047" xlink:href="#DejaVuSans-46"/>
       <use x="95.410156" xlink:href="#DejaVuSans-48"/>
      </g>
     </g>
    </g>
    <g id="xtick_14">
     <g id="line2d_22">
      <g>
       <use style="stroke:#000000;stroke-width:0.8;" x="301.985271" xlink:href="#mc2d50f9eec" y="307.584"/>
      </g>
     </g>
     <g id="text_24">
      <!-- 0.5 -->
      <g transform="translate(294.033709 322.182437)scale(0.1 -0.1)">
       <use xlink:href="#DejaVuSans-48"/>
       <use x="63.623047" xlink:href="#DejaVuSans-46"/>
       <use x="95.410156" xlink:href="#DejaVuSans-53"/>
      </g>
     </g>
    </g>
    <g id="xtick_15">
     <g id="line2d_23">
      <g>
       <use style="stroke:#000000;stroke-width:0.8;" x="371.811427" xlink:href="#mc2d50f9eec" y="307.584"/>
      </g>
     </g>
     <g id="text_25">
      <!-- 1.0 -->
      <g transform="translate(363.859864 322.182437)scale(0.1 -0.1)">
       <use xlink:href="#DejaVuSans-49"/>
       <use x="63.623047" xlink:href="#DejaVuSans-46"/>
       <use x="95.410156" xlink:href="#DejaVuSans-48"/>
      </g>
     </g>
    </g>
    <g id="text_26">
     <!-- Position -->
     <defs>
      <path d="M 19.671875 64.796875 
L 19.671875 37.40625 
L 32.078125 37.40625 
Q 38.96875 37.40625 42.71875 40.96875 
Q 46.484375 44.53125 46.484375 51.125 
Q 46.484375 57.671875 42.71875 61.234375 
Q 38.96875 64.796875 32.078125 64.796875 
z
M 9.8125 72.90625 
L 32.078125 72.90625 
Q 44.34375 72.90625 50.609375 67.359375 
Q 56.890625 61.8125 56.890625 51.125 
Q 56.890625 40.328125 50.609375 34.8125 
Q 44.34375 29.296875 32.078125 29.296875 
L 19.671875 29.296875 
L 19.671875 0 
L 9.8125 0 
z
" id="DejaVuSans-80"/>
      <path d="M 30.609375 48.390625 
Q 23.390625 48.390625 19.1875 42.75 
Q 14.984375 37.109375 14.984375 27.296875 
Q 14.984375 17.484375 19.15625 11.84375 
Q 23.34375 6.203125 30.609375 6.203125 
Q 37.796875 6.203125 41.984375 11.859375 
Q 46.1875 17.53125 46.1875 27.296875 
Q 46.1875 37.015625 41.984375 42.703125 
Q 37.796875 48.390625 30.609375 48.390625 
z
M 30.609375 56 
Q 42.328125 56 49.015625 48.375 
Q 55.71875 40.765625 55.71875 27.296875 
Q 55.71875 13.875 49.015625 6.21875 
Q 42.328125 -1.421875 30.609375 -1.421875 
Q 18.84375 -1.421875 12.171875 6.21875 
Q 5.515625 13.875 5.515625 27.296875 
Q 5.515625 40.765625 12.171875 48.375 
Q 18.84375 56 30.609375 56 
z
" id="DejaVuSans-111"/>
     </defs>
     <g transform="translate(216.517031 335.860562)scale(0.1 -0.1)">
      <use xlink:href="#DejaVuSans-80"/>
      <use x="60.255859" xlink:href="#DejaVuSans-111"/>
      <use x="121.4375" xlink:href="#DejaVuSans-115"/>
      <use x="173.537109" xlink:href="#DejaVuSans-105"/>
      <use x="201.320312" xlink:href="#DejaVuSans-116"/>
      <use x="240.529297" xlink:href="#DejaVuSans-105"/>
      <use x="268.3125" xlink:href="#DejaVuSans-111"/>
      <use x="329.494141" xlink:href="#DejaVuSans-110"/>
     </g>
    </g>
   </g>
   <g id="matplotlib.axis_6">
    <g id="ytick_7">
     <g id="line2d_24">
      <g>
       <use style="stroke:#000000;stroke-width:0.8;" x="57.6" xlink:href="#m9aa5616c46" y="307.584"/>
      </g>
     </g>
     <g id="text_27">
      <!-- 0 -->
      <g transform="translate(44.2375 311.383219)scale(0.1 -0.1)">
       <use xlink:href="#DejaVuSans-48"/>
      </g>
     </g>
    </g>
    <g id="ytick_8">
     <g id="line2d_25">
      <g>
       <use style="stroke:#000000;stroke-width:0.8;" x="57.6" xlink:href="#m9aa5616c46" y="277.179893"/>
      </g>
     </g>
     <g id="text_28">
      <!-- 1 -->
      <g transform="translate(44.2375 280.979112)scale(0.1 -0.1)">
       <use xlink:href="#DejaVuSans-49"/>
      </g>
     </g>
    </g>
    <g id="ytick_9">
     <g id="line2d_26">
      <g>
       <use style="stroke:#000000;stroke-width:0.8;" x="57.6" xlink:href="#m9aa5616c46" y="246.775787"/>
      </g>
     </g>
     <g id="text_29">
      <!-- 2 -->
      <g transform="translate(44.2375 250.575005)scale(0.1 -0.1)">
       <use xlink:href="#DejaVuSans-50"/>
      </g>
     </g>
    </g>
    <g id="text_30">
     <!-- Density -->
     <g transform="translate(38.157812 293.328594)rotate(-90)scale(0.1 -0.1)">
      <use xlink:href="#DejaVuSans-68"/>
      <use x="77.001953" xlink:href="#DejaVuSans-101"/>
      <use x="138.525391" xlink:href="#DejaVuSans-110"/>
      <use x="201.904297" xlink:href="#DejaVuSans-115"/>
      <use x="254.003906" xlink:href="#DejaVuSans-105"/>
      <use x="281.787109" xlink:href="#DejaVuSans-116"/>
      <use x="320.996094" xlink:href="#DejaVuSans-121"/>
     </g>
    </g>
   </g>
   <g id="line2d_27">
    <path clip-path="url(#p6123c376d2)" d="M 73.832727 307.570632 
L 77.112066 307.557432 
L 80.391405 307.533293 
L 83.670744 307.491014 
L 86.950083 307.420079 
L 90.229421 307.306046 
L 93.50876 307.130376 
L 96.788099 306.871004 
L 100.067438 306.503951 
L 103.346777 306.006113 
L 106.626116 305.359087 
L 109.905455 304.553572 
L 113.184793 303.593499 
L 116.464132 302.498854 
L 119.743471 301.30614 
L 123.02281 300.065807 
L 126.302149 298.836613 
L 129.581488 297.67773 
L 132.860826 296.64021 
L 136.140165 295.759818 
L 139.419504 295.053102 
L 142.698843 294.517707 
L 145.978182 294.136704 
L 149.257521 293.885364 
L 152.53686 293.737986 
L 155.816198 293.672364 
L 159.095537 293.670412 
L 162.374876 293.714915 
L 165.654215 293.783985 
L 168.933554 293.845749 
L 172.212893 293.855863 
L 175.492231 293.759522 
L 178.77157 293.498016 
L 182.050909 293.018262 
L 185.330248 292.282585 
L 188.609587 291.275815 
L 191.888926 290.007597 
L 195.168264 288.509384 
L 198.447603 286.827425 
L 201.726942 285.014459 
L 205.006281 283.1233 
L 208.28562 281.204693 
L 211.564959 279.31 
L 214.844298 277.497063 
L 218.123636 275.835819 
L 221.402975 274.409881 
L 224.682314 273.31152 
L 227.961653 272.629981 
L 231.240992 272.435871 
L 234.520331 272.766217 
L 237.799669 273.614886 
L 241.079008 274.931386 
L 244.358347 276.62824 
L 247.637686 278.594428 
L 250.917025 280.710841 
L 254.196364 282.863751 
L 257.475702 284.953748 
L 260.755041 286.899564 
L 264.03438 288.637959 
L 267.313719 290.121641 
L 270.593058 291.317193 
L 273.872397 292.204203 
L 277.151736 292.775928 
L 280.431074 293.041004 
L 283.710413 293.025324 
L 286.989752 292.77299 
L 290.269091 292.345493 
L 293.54843 291.818514 
L 296.827769 291.27632 
L 300.107107 290.804228 
L 303.386446 290.480174 
L 306.665785 290.366739 
L 309.945124 290.505064 
L 313.224463 290.911742 
L 316.503802 291.579165 
L 319.78314 292.479075 
L 323.062479 293.568341 
L 326.341818 294.795655 
L 329.621157 296.107805 
L 332.900496 297.45455 
L 336.179835 298.79168 
L 339.459174 300.082383 
L 342.738512 301.297407 
L 346.017851 302.41461 
L 349.29719 303.418381 
L 352.576529 304.299169 
L 355.855868 305.053146 
L 359.135207 305.68185 
L 362.414545 306.191663 
L 365.693884 306.592992 
L 368.973223 306.899179 
L 372.252562 307.125213 
L 375.531901 307.286433 
L 378.81124 307.397385 
L 382.090579 307.470971 
L 385.369917 307.517954 
L 388.649256 307.546803 
L 391.928595 307.563826 
L 395.207934 307.573472 
L 398.487273 307.578717 
" style="fill:none;stroke:#8b0000;stroke-linecap:square;stroke-width:4;"/>
   </g>
   <g id="patch_167">
    <path d="M 57.6 307.584 
L 57.6 241.056 
" style="fill:none;stroke:#000000;stroke-linecap:square;stroke-linejoin:miter;stroke-width:0.8;"/>
   </g>
   <g id="patch_168">
    <path d="M 414.72 307.584 
L 414.72 241.056 
" style="fill:none;stroke:#000000;stroke-linecap:square;stroke-linejoin:miter;stroke-width:0.8;"/>
   </g>
   <g id="patch_169">
    <path d="M 57.6 307.584 
L 414.72 307.584 
" style="fill:none;stroke:#000000;stroke-linecap:square;stroke-linejoin:miter;stroke-width:0.8;"/>
   </g>
   <g id="patch_170">
    <path d="M 57.6 241.056 
L 414.72 241.056 
" style="fill:none;stroke:#000000;stroke-linecap:square;stroke-linejoin:miter;stroke-width:0.8;"/>
   </g>
   <g id="legend_3">
    <g id="patch_171">
     <path d="M 370.471563 263.734125 
L 407.72 263.734125 
Q 409.72 263.734125 409.72 261.734125 
L 409.72 248.056 
Q 409.72 246.056 407.72 246.056 
L 370.471563 246.056 
Q 368.471563 246.056 368.471563 248.056 
L 368.471563 261.734125 
Q 368.471563 263.734125 370.471563 263.734125 
z
" style="fill:#ffffff;opacity:0.8;stroke:#cccccc;stroke-linejoin:miter;"/>
    </g>
    <g id="patch_172">
     <path d="M 372.471563 257.654437 
L 392.471563 257.654437 
L 392.471563 250.654437 
L 372.471563 250.654437 
z
" style="fill:#8b0000;opacity:0.4;stroke:#000000;stroke-linejoin:miter;"/>
    </g>
    <g id="text_31">
     <!-- z -->
     <defs>
      <path d="M 5.515625 54.6875 
L 48.1875 54.6875 
L 48.1875 46.484375 
L 14.40625 7.171875 
L 48.1875 7.171875 
L 48.1875 0 
L 4.296875 0 
L 4.296875 8.203125 
L 38.09375 47.515625 
L 5.515625 47.515625 
z
" id="DejaVuSans-122"/>
     </defs>
     <g transform="translate(400.471563 257.654437)scale(0.1 -0.1)">
      <use xlink:href="#DejaVuSans-122"/>
     </g>
    </g>
   </g>
  </g>
  <g id="text_32">
   <!-- Motif 6 Cu 620 Histogram -->
   <defs>
    <path d="M 9.8125 72.90625 
L 24.515625 72.90625 
L 43.109375 23.296875 
L 61.8125 72.90625 
L 76.515625 72.90625 
L 76.515625 0 
L 66.890625 0 
L 66.890625 64.015625 
L 48.09375 14.015625 
L 38.1875 14.015625 
L 19.390625 64.015625 
L 19.390625 0 
L 9.8125 0 
z
" id="DejaVuSans-77"/>
    <path d="M 37.109375 75.984375 
L 37.109375 68.5 
L 28.515625 68.5 
Q 23.6875 68.5 21.796875 66.546875 
Q 19.921875 64.59375 19.921875 59.515625 
L 19.921875 54.6875 
L 34.71875 54.6875 
L 34.71875 47.703125 
L 19.921875 47.703125 
L 19.921875 0 
L 10.890625 0 
L 10.890625 47.703125 
L 2.296875 47.703125 
L 2.296875 54.6875 
L 10.890625 54.6875 
L 10.890625 58.5 
Q 10.890625 67.625 15.140625 71.796875 
Q 19.390625 75.984375 28.609375 75.984375 
z
" id="DejaVuSans-102"/>
    <path id="DejaVuSans-32"/>
    <path d="M 33.015625 40.375 
Q 26.375 40.375 22.484375 35.828125 
Q 18.609375 31.296875 18.609375 23.390625 
Q 18.609375 15.53125 22.484375 10.953125 
Q 26.375 6.390625 33.015625 6.390625 
Q 39.65625 6.390625 43.53125 10.953125 
Q 47.40625 15.53125 47.40625 23.390625 
Q 47.40625 31.296875 43.53125 35.828125 
Q 39.65625 40.375 33.015625 40.375 
z
M 52.59375 71.296875 
L 52.59375 62.3125 
Q 48.875 64.0625 45.09375 64.984375 
Q 41.3125 65.921875 37.59375 65.921875 
Q 27.828125 65.921875 22.671875 59.328125 
Q 17.53125 52.734375 16.796875 39.40625 
Q 19.671875 43.65625 24.015625 45.921875 
Q 28.375 48.1875 33.59375 48.1875 
Q 44.578125 48.1875 50.953125 41.515625 
Q 57.328125 34.859375 57.328125 23.390625 
Q 57.328125 12.15625 50.6875 5.359375 
Q 44.046875 -1.421875 33.015625 -1.421875 
Q 20.359375 -1.421875 13.671875 8.265625 
Q 6.984375 17.96875 6.984375 36.375 
Q 6.984375 53.65625 15.1875 63.9375 
Q 23.390625 74.21875 37.203125 74.21875 
Q 40.921875 74.21875 44.703125 73.484375 
Q 48.484375 72.75 52.59375 71.296875 
z
" id="DejaVuSans-54"/>
    <path d="M 64.40625 67.28125 
L 64.40625 56.890625 
Q 59.421875 61.53125 53.78125 63.8125 
Q 48.140625 66.109375 41.796875 66.109375 
Q 29.296875 66.109375 22.65625 58.46875 
Q 16.015625 50.828125 16.015625 36.375 
Q 16.015625 21.96875 22.65625 14.328125 
Q 29.296875 6.6875 41.796875 6.6875 
Q 48.140625 6.6875 53.78125 8.984375 
Q 59.421875 11.28125 64.40625 15.921875 
L 64.40625 5.609375 
Q 59.234375 2.09375 53.4375 0.328125 
Q 47.65625 -1.421875 41.21875 -1.421875 
Q 24.65625 -1.421875 15.125 8.703125 
Q 5.609375 18.84375 5.609375 36.375 
Q 5.609375 53.953125 15.125 64.078125 
Q 24.65625 74.21875 41.21875 74.21875 
Q 47.75 74.21875 53.53125 72.484375 
Q 59.328125 70.75 64.40625 67.28125 
z
" id="DejaVuSans-67"/>
    <path d="M 8.5 21.578125 
L 8.5 54.6875 
L 17.484375 54.6875 
L 17.484375 21.921875 
Q 17.484375 14.15625 20.5 10.265625 
Q 23.53125 6.390625 29.59375 6.390625 
Q 36.859375 6.390625 41.078125 11.03125 
Q 45.3125 15.671875 45.3125 23.6875 
L 45.3125 54.6875 
L 54.296875 54.6875 
L 54.296875 0 
L 45.3125 0 
L 45.3125 8.40625 
Q 42.046875 3.421875 37.71875 1 
Q 33.40625 -1.421875 27.6875 -1.421875 
Q 18.265625 -1.421875 13.375 4.4375 
Q 8.5 10.296875 8.5 21.578125 
z
M 31.109375 56 
z
" id="DejaVuSans-117"/>
    <path d="M 9.8125 72.90625 
L 19.671875 72.90625 
L 19.671875 43.015625 
L 55.515625 43.015625 
L 55.515625 72.90625 
L 65.375 72.90625 
L 65.375 0 
L 55.515625 0 
L 55.515625 34.71875 
L 19.671875 34.71875 
L 19.671875 0 
L 9.8125 0 
z
" id="DejaVuSans-72"/>
    <path d="M 45.40625 27.984375 
Q 45.40625 37.75 41.375 43.109375 
Q 37.359375 48.484375 30.078125 48.484375 
Q 22.859375 48.484375 18.828125 43.109375 
Q 14.796875 37.75 14.796875 27.984375 
Q 14.796875 18.265625 18.828125 12.890625 
Q 22.859375 7.515625 30.078125 7.515625 
Q 37.359375 7.515625 41.375 12.890625 
Q 45.40625 18.265625 45.40625 27.984375 
z
M 54.390625 6.78125 
Q 54.390625 -7.171875 48.1875 -13.984375 
Q 42 -20.796875 29.203125 -20.796875 
Q 24.46875 -20.796875 20.265625 -20.09375 
Q 16.0625 -19.390625 12.109375 -17.921875 
L 12.109375 -9.1875 
Q 16.0625 -11.328125 19.921875 -12.34375 
Q 23.78125 -13.375 27.78125 -13.375 
Q 36.625 -13.375 41.015625 -8.765625 
Q 45.40625 -4.15625 45.40625 5.171875 
L 45.40625 9.625 
Q 42.625 4.78125 38.28125 2.390625 
Q 33.9375 0 27.875 0 
Q 17.828125 0 11.671875 7.65625 
Q 5.515625 15.328125 5.515625 27.984375 
Q 5.515625 40.671875 11.671875 48.328125 
Q 17.828125 56 27.875 56 
Q 33.9375 56 38.28125 53.609375 
Q 42.625 51.21875 45.40625 46.390625 
L 45.40625 54.6875 
L 54.390625 54.6875 
z
" id="DejaVuSans-103"/>
    <path d="M 41.109375 46.296875 
Q 39.59375 47.171875 37.8125 47.578125 
Q 36.03125 48 33.890625 48 
Q 26.265625 48 22.1875 43.046875 
Q 18.109375 38.09375 18.109375 28.8125 
L 18.109375 0 
L 9.078125 0 
L 9.078125 54.6875 
L 18.109375 54.6875 
L 18.109375 46.1875 
Q 20.953125 51.171875 25.484375 53.578125 
Q 30.03125 56 36.53125 56 
Q 37.453125 56 38.578125 55.875 
Q 39.703125 55.765625 41.0625 55.515625 
z
" id="DejaVuSans-114"/>
    <path d="M 34.28125 27.484375 
Q 23.390625 27.484375 19.1875 25 
Q 14.984375 22.515625 14.984375 16.5 
Q 14.984375 11.71875 18.140625 8.90625 
Q 21.296875 6.109375 26.703125 6.109375 
Q 34.1875 6.109375 38.703125 11.40625 
Q 43.21875 16.703125 43.21875 25.484375 
L 43.21875 27.484375 
z
M 52.203125 31.203125 
L 52.203125 0 
L 43.21875 0 
L 43.21875 8.296875 
Q 40.140625 3.328125 35.546875 0.953125 
Q 30.953125 -1.421875 24.3125 -1.421875 
Q 15.921875 -1.421875 10.953125 3.296875 
Q 6 8.015625 6 15.921875 
Q 6 25.140625 12.171875 29.828125 
Q 18.359375 34.515625 30.609375 34.515625 
L 43.21875 34.515625 
L 43.21875 35.40625 
Q 43.21875 41.609375 39.140625 45 
Q 35.0625 48.390625 27.6875 48.390625 
Q 23 48.390625 18.546875 47.265625 
Q 14.109375 46.140625 10.015625 43.890625 
L 10.015625 52.203125 
Q 14.9375 54.109375 19.578125 55.046875 
Q 24.21875 56 28.609375 56 
Q 40.484375 56 46.34375 49.84375 
Q 52.203125 43.703125 52.203125 31.203125 
z
" id="DejaVuSans-97"/>
    <path d="M 52 44.1875 
Q 55.375 50.25 60.0625 53.125 
Q 64.75 56 71.09375 56 
Q 79.640625 56 84.28125 50.015625 
Q 88.921875 44.046875 88.921875 33.015625 
L 88.921875 0 
L 79.890625 0 
L 79.890625 32.71875 
Q 79.890625 40.578125 77.09375 44.375 
Q 74.3125 48.1875 68.609375 48.1875 
Q 61.625 48.1875 57.5625 43.546875 
Q 53.515625 38.921875 53.515625 30.90625 
L 53.515625 0 
L 44.484375 0 
L 44.484375 32.71875 
Q 44.484375 40.625 41.703125 44.40625 
Q 38.921875 48.1875 33.109375 48.1875 
Q 26.21875 48.1875 22.15625 43.53125 
Q 18.109375 38.875 18.109375 30.90625 
L 18.109375 0 
L 9.078125 0 
L 9.078125 54.6875 
L 18.109375 54.6875 
L 18.109375 46.1875 
Q 21.1875 51.21875 25.484375 53.609375 
Q 29.78125 56 35.6875 56 
Q 41.65625 56 45.828125 52.96875 
Q 50 49.953125 52 44.1875 
z
" id="DejaVuSans-109"/>
   </defs>
   <g transform="translate(153.405937 16.030125)scale(0.12 -0.12)">
    <use xlink:href="#DejaVuSans-77"/>
    <use x="86.279297" xlink:href="#DejaVuSans-111"/>
    <use x="147.460938" xlink:href="#DejaVuSans-116"/>
    <use x="186.669922" xlink:href="#DejaVuSans-105"/>
    <use x="214.453125" xlink:href="#DejaVuSans-102"/>
    <use x="249.658203" xlink:href="#DejaVuSans-32"/>
    <use x="281.445312" xlink:href="#DejaVuSans-54"/>
    <use x="345.068359" xlink:href="#DejaVuSans-32"/>
    <use x="376.855469" xlink:href="#DejaVuSans-67"/>
    <use x="446.679688" xlink:href="#DejaVuSans-117"/>
    <use x="510.058594" xlink:href="#DejaVuSans-32"/>
    <use x="541.845703" xlink:href="#DejaVuSans-54"/>
    <use x="605.46875" xlink:href="#DejaVuSans-50"/>
    <use x="669.091797" xlink:href="#DejaVuSans-48"/>
    <use x="732.714844" xlink:href="#DejaVuSans-32"/>
    <use x="764.501953" xlink:href="#DejaVuSans-72"/>
    <use x="839.697266" xlink:href="#DejaVuSans-105"/>
    <use x="867.480469" xlink:href="#DejaVuSans-115"/>
    <use x="919.580078" xlink:href="#DejaVuSans-116"/>
    <use x="958.789062" xlink:href="#DejaVuSans-111"/>
    <use x="1019.970703" xlink:href="#DejaVuSans-103"/>
    <use x="1083.447266" xlink:href="#DejaVuSans-114"/>
    <use x="1124.560547" xlink:href="#DejaVuSans-97"/>
    <use x="1185.839844" xlink:href="#DejaVuSans-109"/>
   </g>
  </g>
 </g>
 <defs>
  <clipPath id="p41c68fe59e">
   <rect height="66.528" width="357.12" x="57.6" y="41.472"/>
  </clipPath>
  <clipPath id="p21991ad0aa">
   <rect height="66.528" width="357.12" x="57.6" y="141.264"/>
  </clipPath>
  <clipPath id="p6123c376d2">
   <rect height="66.528" width="357.12" x="57.6" y="241.056"/>
  </clipPath>
 </defs>
</svg>
