<?xml version="1.0" encoding="utf-8" standalone="no"?>
<!DOCTYPE svg PUBLIC "-//W3C//DTD SVG 1.1//EN"
  "http://www.w3.org/Graphics/SVG/1.1/DTD/svg11.dtd">
<!-- Created with matplotlib (https://matplotlib.org/) -->
<svg height="345.6pt" version="1.1" viewBox="0 0 460.8 345.6" width="460.8pt" xmlns="http://www.w3.org/2000/svg" xmlns:xlink="http://www.w3.org/1999/xlink">
 <defs>
  <style type="text/css">
*{stroke-linecap:butt;stroke-linejoin:round;}
  </style>
 </defs>
 <g id="figure_1">
  <g id="patch_1">
   <path d="M 0 345.6 
L 460.8 345.6 
L 460.8 0 
L 0 0 
z
" style="fill:#ffffff;"/>
  </g>
  <g id="axes_1">
   <g id="patch_2">
    <path d="M 57.6 108 
L 414.72 108 
L 414.72 41.472 
L 57.6 41.472 
z
" style="fill:#ffffff;"/>
   </g>
   <g id="patch_3">
    <path clip-path="url(#p67068667b2)" d="M 112.313659 108 
L 117.267513 108 
L 117.267513 104.832 
L 112.313659 104.832 
z
" style="fill:#00008b;opacity:0.4;stroke:#000000;stroke-linejoin:miter;"/>
   </g>
   <g id="patch_4">
    <path clip-path="url(#p67068667b2)" d="M 117.267513 108 
L 122.221366 108 
L 122.221366 104.832 
L 117.267513 104.832 
z
" style="fill:#00008b;opacity:0.4;stroke:#000000;stroke-linejoin:miter;"/>
   </g>
   <g id="patch_5">
    <path clip-path="url(#p67068667b2)" d="M 122.221366 108 
L 127.17522 108 
L 127.17522 104.04 
L 122.221366 104.04 
z
" style="fill:#00008b;opacity:0.4;stroke:#000000;stroke-linejoin:miter;"/>
   </g>
   <g id="patch_6">
    <path clip-path="url(#p67068667b2)" d="M 127.17522 108 
L 132.129074 108 
L 132.129074 96.912 
L 127.17522 96.912 
z
" style="fill:#00008b;opacity:0.4;stroke:#000000;stroke-linejoin:miter;"/>
   </g>
   <g id="patch_7">
    <path clip-path="url(#p67068667b2)" d="M 132.129074 108 
L 137.082927 108 
L 137.082927 94.536 
L 132.129074 94.536 
z
" style="fill:#00008b;opacity:0.4;stroke:#000000;stroke-linejoin:miter;"/>
   </g>
   <g id="patch_8">
    <path clip-path="url(#p67068667b2)" d="M 137.082927 108 
L 142.036781 108 
L 142.036781 81.864 
L 137.082927 81.864 
z
" style="fill:#00008b;opacity:0.4;stroke:#000000;stroke-linejoin:miter;"/>
   </g>
   <g id="patch_9">
    <path clip-path="url(#p67068667b2)" d="M 142.036781 108 
L 146.990635 108 
L 146.990635 79.488 
L 142.036781 79.488 
z
" style="fill:#00008b;opacity:0.4;stroke:#000000;stroke-linejoin:miter;"/>
   </g>
   <g id="patch_10">
    <path clip-path="url(#p67068667b2)" d="M 146.990635 108 
L 151.944488 108 
L 151.944488 73.152 
L 146.990635 73.152 
z
" style="fill:#00008b;opacity:0.4;stroke:#000000;stroke-linejoin:miter;"/>
   </g>
   <g id="patch_11">
    <path clip-path="url(#p67068667b2)" d="M 151.944488 108 
L 156.898342 108 
L 156.898342 73.152 
L 151.944488 73.152 
z
" style="fill:#00008b;opacity:0.4;stroke:#000000;stroke-linejoin:miter;"/>
   </g>
   <g id="patch_12">
    <path clip-path="url(#p67068667b2)" d="M 156.898342 108 
L 161.852196 108 
L 161.852196 66.024 
L 156.898342 66.024 
z
" style="fill:#00008b;opacity:0.4;stroke:#000000;stroke-linejoin:miter;"/>
   </g>
   <g id="patch_13">
    <path clip-path="url(#p67068667b2)" d="M 161.852196 108 
L 166.806049 108 
L 166.806049 56.52 
L 161.852196 56.52 
z
" style="fill:#00008b;opacity:0.4;stroke:#000000;stroke-linejoin:miter;"/>
   </g>
   <g id="patch_14">
    <path clip-path="url(#p67068667b2)" d="M 166.806049 108 
L 171.759903 108 
L 171.759903 57.312 
L 166.806049 57.312 
z
" style="fill:#00008b;opacity:0.4;stroke:#000000;stroke-linejoin:miter;"/>
   </g>
   <g id="patch_15">
    <path clip-path="url(#p67068667b2)" d="M 171.759903 108 
L 176.713756 108 
L 176.713756 66.816 
L 171.759903 66.816 
z
" style="fill:#00008b;opacity:0.4;stroke:#000000;stroke-linejoin:miter;"/>
   </g>
   <g id="patch_16">
    <path clip-path="url(#p67068667b2)" d="M 176.713756 108 
L 181.66761 108 
L 181.66761 56.52 
L 176.713756 56.52 
z
" style="fill:#00008b;opacity:0.4;stroke:#000000;stroke-linejoin:miter;"/>
   </g>
   <g id="patch_17">
    <path clip-path="url(#p67068667b2)" d="M 181.66761 108 
L 186.621464 108 
L 186.621464 66.024 
L 181.66761 66.024 
z
" style="fill:#00008b;opacity:0.4;stroke:#000000;stroke-linejoin:miter;"/>
   </g>
   <g id="patch_18">
    <path clip-path="url(#p67068667b2)" d="M 186.621464 108 
L 191.575317 108 
L 191.575317 65.232 
L 186.621464 65.232 
z
" style="fill:#00008b;opacity:0.4;stroke:#000000;stroke-linejoin:miter;"/>
   </g>
   <g id="patch_19">
    <path clip-path="url(#p67068667b2)" d="M 191.575317 108 
L 196.529171 108 
L 196.529171 72.36 
L 191.575317 72.36 
z
" style="fill:#00008b;opacity:0.4;stroke:#000000;stroke-linejoin:miter;"/>
   </g>
   <g id="patch_20">
    <path clip-path="url(#p67068667b2)" d="M 196.529171 108 
L 201.483025 108 
L 201.483025 65.232 
L 196.529171 65.232 
z
" style="fill:#00008b;opacity:0.4;stroke:#000000;stroke-linejoin:miter;"/>
   </g>
   <g id="patch_21">
    <path clip-path="url(#p67068667b2)" d="M 201.483025 108 
L 206.436878 108 
L 206.436878 62.064 
L 201.483025 62.064 
z
" style="fill:#00008b;opacity:0.4;stroke:#000000;stroke-linejoin:miter;"/>
   </g>
   <g id="patch_22">
    <path clip-path="url(#p67068667b2)" d="M 206.436878 108 
L 211.390732 108 
L 211.390732 73.944 
L 206.436878 73.944 
z
" style="fill:#00008b;opacity:0.4;stroke:#000000;stroke-linejoin:miter;"/>
   </g>
   <g id="patch_23">
    <path clip-path="url(#p67068667b2)" d="M 211.390732 108 
L 216.344585 108 
L 216.344585 73.944 
L 211.390732 73.944 
z
" style="fill:#00008b;opacity:0.4;stroke:#000000;stroke-linejoin:miter;"/>
   </g>
   <g id="patch_24">
    <path clip-path="url(#p67068667b2)" d="M 216.344585 108 
L 221.298439 108 
L 221.298439 76.32 
L 216.344585 76.32 
z
" style="fill:#00008b;opacity:0.4;stroke:#000000;stroke-linejoin:miter;"/>
   </g>
   <g id="patch_25">
    <path clip-path="url(#p67068667b2)" d="M 221.298439 108 
L 226.252293 108 
L 226.252293 69.984 
L 221.298439 69.984 
z
" style="fill:#00008b;opacity:0.4;stroke:#000000;stroke-linejoin:miter;"/>
   </g>
   <g id="patch_26">
    <path clip-path="url(#p67068667b2)" d="M 226.252293 108 
L 231.206146 108 
L 231.206146 66.024 
L 226.252293 66.024 
z
" style="fill:#00008b;opacity:0.4;stroke:#000000;stroke-linejoin:miter;"/>
   </g>
   <g id="patch_27">
    <path clip-path="url(#p67068667b2)" d="M 231.206146 108 
L 236.16 108 
L 236.16 56.52 
L 231.206146 56.52 
z
" style="fill:#00008b;opacity:0.4;stroke:#000000;stroke-linejoin:miter;"/>
   </g>
   <g id="patch_28">
    <path clip-path="url(#p67068667b2)" d="M 236.16 108 
L 241.113854 108 
L 241.113854 44.64 
L 236.16 44.64 
z
" style="fill:#00008b;opacity:0.4;stroke:#000000;stroke-linejoin:miter;"/>
   </g>
   <g id="patch_29">
    <path clip-path="url(#p67068667b2)" d="M 241.113854 108 
L 246.067707 108 
L 246.067707 68.4 
L 241.113854 68.4 
z
" style="fill:#00008b;opacity:0.4;stroke:#000000;stroke-linejoin:miter;"/>
   </g>
   <g id="patch_30">
    <path clip-path="url(#p67068667b2)" d="M 246.067707 108 
L 251.021561 108 
L 251.021561 72.36 
L 246.067707 72.36 
z
" style="fill:#00008b;opacity:0.4;stroke:#000000;stroke-linejoin:miter;"/>
   </g>
   <g id="patch_31">
    <path clip-path="url(#p67068667b2)" d="M 251.021561 108 
L 255.975415 108 
L 255.975415 69.984 
L 251.021561 69.984 
z
" style="fill:#00008b;opacity:0.4;stroke:#000000;stroke-linejoin:miter;"/>
   </g>
   <g id="patch_32">
    <path clip-path="url(#p67068667b2)" d="M 255.975415 108 
L 260.929268 108 
L 260.929268 64.44 
L 255.975415 64.44 
z
" style="fill:#00008b;opacity:0.4;stroke:#000000;stroke-linejoin:miter;"/>
   </g>
   <g id="patch_33">
    <path clip-path="url(#p67068667b2)" d="M 260.929268 108 
L 265.883122 108 
L 265.883122 62.064 
L 260.929268 62.064 
z
" style="fill:#00008b;opacity:0.4;stroke:#000000;stroke-linejoin:miter;"/>
   </g>
   <g id="patch_34">
    <path clip-path="url(#p67068667b2)" d="M 265.883122 108 
L 270.836975 108 
L 270.836975 62.064 
L 265.883122 62.064 
z
" style="fill:#00008b;opacity:0.4;stroke:#000000;stroke-linejoin:miter;"/>
   </g>
   <g id="patch_35">
    <path clip-path="url(#p67068667b2)" d="M 270.836975 108 
L 275.790829 108 
L 275.790829 65.232 
L 270.836975 65.232 
z
" style="fill:#00008b;opacity:0.4;stroke:#000000;stroke-linejoin:miter;"/>
   </g>
   <g id="patch_36">
    <path clip-path="url(#p67068667b2)" d="M 275.790829 108 
L 280.744683 108 
L 280.744683 66.816 
L 275.790829 66.816 
z
" style="fill:#00008b;opacity:0.4;stroke:#000000;stroke-linejoin:miter;"/>
   </g>
   <g id="patch_37">
    <path clip-path="url(#p67068667b2)" d="M 280.744683 108 
L 285.698536 108 
L 285.698536 75.528 
L 280.744683 75.528 
z
" style="fill:#00008b;opacity:0.4;stroke:#000000;stroke-linejoin:miter;"/>
   </g>
   <g id="patch_38">
    <path clip-path="url(#p67068667b2)" d="M 285.698536 108 
L 290.65239 108 
L 290.65239 69.192 
L 285.698536 69.192 
z
" style="fill:#00008b;opacity:0.4;stroke:#000000;stroke-linejoin:miter;"/>
   </g>
   <g id="patch_39">
    <path clip-path="url(#p67068667b2)" d="M 290.65239 108 
L 295.606244 108 
L 295.606244 60.48 
L 290.65239 60.48 
z
" style="fill:#00008b;opacity:0.4;stroke:#000000;stroke-linejoin:miter;"/>
   </g>
   <g id="patch_40">
    <path clip-path="url(#p67068667b2)" d="M 295.606244 108 
L 300.560097 108 
L 300.560097 61.272 
L 295.606244 61.272 
z
" style="fill:#00008b;opacity:0.4;stroke:#000000;stroke-linejoin:miter;"/>
   </g>
   <g id="patch_41">
    <path clip-path="url(#p67068667b2)" d="M 300.560097 108 
L 305.513951 108 
L 305.513951 59.688 
L 300.560097 59.688 
z
" style="fill:#00008b;opacity:0.4;stroke:#000000;stroke-linejoin:miter;"/>
   </g>
   <g id="patch_42">
    <path clip-path="url(#p67068667b2)" d="M 305.513951 108 
L 310.467804 108 
L 310.467804 62.064 
L 305.513951 62.064 
z
" style="fill:#00008b;opacity:0.4;stroke:#000000;stroke-linejoin:miter;"/>
   </g>
   <g id="patch_43">
    <path clip-path="url(#p67068667b2)" d="M 310.467804 108 
L 315.421658 108 
L 315.421658 69.984 
L 310.467804 69.984 
z
" style="fill:#00008b;opacity:0.4;stroke:#000000;stroke-linejoin:miter;"/>
   </g>
   <g id="patch_44">
    <path clip-path="url(#p67068667b2)" d="M 315.421658 108 
L 320.375512 108 
L 320.375512 76.32 
L 315.421658 76.32 
z
" style="fill:#00008b;opacity:0.4;stroke:#000000;stroke-linejoin:miter;"/>
   </g>
   <g id="patch_45">
    <path clip-path="url(#p67068667b2)" d="M 320.375512 108 
L 325.329365 108 
L 325.329365 72.36 
L 320.375512 72.36 
z
" style="fill:#00008b;opacity:0.4;stroke:#000000;stroke-linejoin:miter;"/>
   </g>
   <g id="patch_46">
    <path clip-path="url(#p67068667b2)" d="M 325.329365 108 
L 330.283219 108 
L 330.283219 84.24 
L 325.329365 84.24 
z
" style="fill:#00008b;opacity:0.4;stroke:#000000;stroke-linejoin:miter;"/>
   </g>
   <g id="patch_47">
    <path clip-path="url(#p67068667b2)" d="M 330.283219 108 
L 335.237073 108 
L 335.237073 70.776 
L 330.283219 70.776 
z
" style="fill:#00008b;opacity:0.4;stroke:#000000;stroke-linejoin:miter;"/>
   </g>
   <g id="patch_48">
    <path clip-path="url(#p67068667b2)" d="M 335.237073 108 
L 340.190926 108 
L 340.190926 71.568 
L 335.237073 71.568 
z
" style="fill:#00008b;opacity:0.4;stroke:#000000;stroke-linejoin:miter;"/>
   </g>
   <g id="patch_49">
    <path clip-path="url(#p67068667b2)" d="M 340.190926 108 
L 345.14478 108 
L 345.14478 92.952 
L 340.190926 92.952 
z
" style="fill:#00008b;opacity:0.4;stroke:#000000;stroke-linejoin:miter;"/>
   </g>
   <g id="patch_50">
    <path clip-path="url(#p67068667b2)" d="M 345.14478 108 
L 350.098634 108 
L 350.098634 96.912 
L 345.14478 96.912 
z
" style="fill:#00008b;opacity:0.4;stroke:#000000;stroke-linejoin:miter;"/>
   </g>
   <g id="patch_51">
    <path clip-path="url(#p67068667b2)" d="M 350.098634 108 
L 355.052487 108 
L 355.052487 100.08 
L 350.098634 100.08 
z
" style="fill:#00008b;opacity:0.4;stroke:#000000;stroke-linejoin:miter;"/>
   </g>
   <g id="patch_52">
    <path clip-path="url(#p67068667b2)" d="M 355.052487 108 
L 360.006341 108 
L 360.006341 104.04 
L 355.052487 104.04 
z
" style="fill:#00008b;opacity:0.4;stroke:#000000;stroke-linejoin:miter;"/>
   </g>
   <g id="matplotlib.axis_1">
    <g id="xtick_1">
     <g id="line2d_1">
      <defs>
       <path d="M 0 0 
L 0 3.5 
" id="m207d86f447" style="stroke:#000000;stroke-width:0.8;"/>
      </defs>
      <g>
       <use style="stroke:#000000;stroke-width:0.8;" x="94.055141" xlink:href="#m207d86f447" y="108"/>
      </g>
     </g>
     <g id="text_1">
      <!-- −1.0 -->
      <defs>
       <path d="M 10.59375 35.5 
L 73.1875 35.5 
L 73.1875 27.203125 
L 10.59375 27.203125 
z
" id="DejaVuSans-8722"/>
       <path d="M 12.40625 8.296875 
L 28.515625 8.296875 
L 28.515625 63.921875 
L 10.984375 60.40625 
L 10.984375 69.390625 
L 28.421875 72.90625 
L 38.28125 72.90625 
L 38.28125 8.296875 
L 54.390625 8.296875 
L 54.390625 0 
L 12.40625 0 
z
" id="DejaVuSans-49"/>
       <path d="M 10.6875 12.40625 
L 21 12.40625 
L 21 0 
L 10.6875 0 
z
" id="DejaVuSans-46"/>
       <path d="M 31.78125 66.40625 
Q 24.171875 66.40625 20.328125 58.90625 
Q 16.5 51.421875 16.5 36.375 
Q 16.5 21.390625 20.328125 13.890625 
Q 24.171875 6.390625 31.78125 6.390625 
Q 39.453125 6.390625 43.28125 13.890625 
Q 47.125 21.390625 47.125 36.375 
Q 47.125 51.421875 43.28125 58.90625 
Q 39.453125 66.40625 31.78125 66.40625 
z
M 31.78125 74.21875 
Q 44.046875 74.21875 50.515625 64.515625 
Q 56.984375 54.828125 56.984375 36.375 
Q 56.984375 17.96875 50.515625 8.265625 
Q 44.046875 -1.421875 31.78125 -1.421875 
Q 19.53125 -1.421875 13.0625 8.265625 
Q 6.59375 17.96875 6.59375 36.375 
Q 6.59375 54.828125 13.0625 64.515625 
Q 19.53125 74.21875 31.78125 74.21875 
z
" id="DejaVuSans-48"/>
      </defs>
      <g transform="translate(81.913734 122.598437)scale(0.1 -0.1)">
       <use xlink:href="#DejaVuSans-8722"/>
       <use x="83.789062" xlink:href="#DejaVuSans-49"/>
       <use x="147.412109" xlink:href="#DejaVuSans-46"/>
       <use x="179.199219" xlink:href="#DejaVuSans-48"/>
      </g>
     </g>
    </g>
    <g id="xtick_2">
     <g id="line2d_2">
      <g>
       <use style="stroke:#000000;stroke-width:0.8;" x="166.752097" xlink:href="#m207d86f447" y="108"/>
      </g>
     </g>
     <g id="text_2">
      <!-- −0.5 -->
      <defs>
       <path d="M 10.796875 72.90625 
L 49.515625 72.90625 
L 49.515625 64.59375 
L 19.828125 64.59375 
L 19.828125 46.734375 
Q 21.96875 47.46875 24.109375 47.828125 
Q 26.265625 48.1875 28.421875 48.1875 
Q 40.625 48.1875 47.75 41.5 
Q 54.890625 34.8125 54.890625 23.390625 
Q 54.890625 11.625 47.5625 5.09375 
Q 40.234375 -1.421875 26.90625 -1.421875 
Q 22.3125 -1.421875 17.546875 -0.640625 
Q 12.796875 0.140625 7.71875 1.703125 
L 7.71875 11.625 
Q 12.109375 9.234375 16.796875 8.0625 
Q 21.484375 6.890625 26.703125 6.890625 
Q 35.15625 6.890625 40.078125 11.328125 
Q 45.015625 15.765625 45.015625 23.390625 
Q 45.015625 31 40.078125 35.4375 
Q 35.15625 39.890625 26.703125 39.890625 
Q 22.75 39.890625 18.8125 39.015625 
Q 14.890625 38.140625 10.796875 36.28125 
z
" id="DejaVuSans-53"/>
      </defs>
      <g transform="translate(154.61069 122.598437)scale(0.1 -0.1)">
       <use xlink:href="#DejaVuSans-8722"/>
       <use x="83.789062" xlink:href="#DejaVuSans-48"/>
       <use x="147.412109" xlink:href="#DejaVuSans-46"/>
       <use x="179.199219" xlink:href="#DejaVuSans-53"/>
      </g>
     </g>
    </g>
    <g id="xtick_3">
     <g id="line2d_3">
      <g>
       <use style="stroke:#000000;stroke-width:0.8;" x="239.449053" xlink:href="#m207d86f447" y="108"/>
      </g>
     </g>
     <g id="text_3">
      <!-- 0.0 -->
      <g transform="translate(231.49749 122.598437)scale(0.1 -0.1)">
       <use xlink:href="#DejaVuSans-48"/>
       <use x="63.623047" xlink:href="#DejaVuSans-46"/>
       <use x="95.410156" xlink:href="#DejaVuSans-48"/>
      </g>
     </g>
    </g>
    <g id="xtick_4">
     <g id="line2d_4">
      <g>
       <use style="stroke:#000000;stroke-width:0.8;" x="312.146009" xlink:href="#m207d86f447" y="108"/>
      </g>
     </g>
     <g id="text_4">
      <!-- 0.5 -->
      <g transform="translate(304.194446 122.598437)scale(0.1 -0.1)">
       <use xlink:href="#DejaVuSans-48"/>
       <use x="63.623047" xlink:href="#DejaVuSans-46"/>
       <use x="95.410156" xlink:href="#DejaVuSans-53"/>
      </g>
     </g>
    </g>
    <g id="xtick_5">
     <g id="line2d_5">
      <g>
       <use style="stroke:#000000;stroke-width:0.8;" x="384.842964" xlink:href="#m207d86f447" y="108"/>
      </g>
     </g>
     <g id="text_5">
      <!-- 1.0 -->
      <g transform="translate(376.891402 122.598437)scale(0.1 -0.1)">
       <use xlink:href="#DejaVuSans-49"/>
       <use x="63.623047" xlink:href="#DejaVuSans-46"/>
       <use x="95.410156" xlink:href="#DejaVuSans-48"/>
      </g>
     </g>
    </g>
   </g>
   <g id="matplotlib.axis_2">
    <g id="ytick_1">
     <g id="line2d_6">
      <defs>
       <path d="M 0 0 
L -3.5 0 
" id="m2fb7039e81" style="stroke:#000000;stroke-width:0.8;"/>
      </defs>
      <g>
       <use style="stroke:#000000;stroke-width:0.8;" x="57.6" xlink:href="#m2fb7039e81" y="108"/>
      </g>
     </g>
     <g id="text_6">
      <!-- 0.0 -->
      <g transform="translate(34.696875 111.799219)scale(0.1 -0.1)">
       <use xlink:href="#DejaVuSans-48"/>
       <use x="63.623047" xlink:href="#DejaVuSans-46"/>
       <use x="95.410156" xlink:href="#DejaVuSans-48"/>
      </g>
     </g>
    </g>
    <g id="ytick_2">
     <g id="line2d_7">
      <g>
       <use style="stroke:#000000;stroke-width:0.8;" x="57.6" xlink:href="#m2fb7039e81" y="78.47843"/>
      </g>
     </g>
     <g id="text_7">
      <!-- 0.5 -->
      <g transform="translate(34.696875 82.277649)scale(0.1 -0.1)">
       <use xlink:href="#DejaVuSans-48"/>
       <use x="63.623047" xlink:href="#DejaVuSans-46"/>
       <use x="95.410156" xlink:href="#DejaVuSans-53"/>
      </g>
     </g>
    </g>
    <g id="ytick_3">
     <g id="line2d_8">
      <g>
       <use style="stroke:#000000;stroke-width:0.8;" x="57.6" xlink:href="#m2fb7039e81" y="48.95686"/>
      </g>
     </g>
     <g id="text_8">
      <!-- 1.0 -->
      <g transform="translate(34.696875 52.756078)scale(0.1 -0.1)">
       <use xlink:href="#DejaVuSans-49"/>
       <use x="63.623047" xlink:href="#DejaVuSans-46"/>
       <use x="95.410156" xlink:href="#DejaVuSans-48"/>
      </g>
     </g>
    </g>
    <g id="text_9">
     <!-- Density -->
     <defs>
      <path d="M 19.671875 64.796875 
L 19.671875 8.109375 
L 31.59375 8.109375 
Q 46.6875 8.109375 53.6875 14.9375 
Q 60.6875 21.78125 60.6875 36.53125 
Q 60.6875 51.171875 53.6875 57.984375 
Q 46.6875 64.796875 31.59375 64.796875 
z
M 9.8125 72.90625 
L 30.078125 72.90625 
Q 51.265625 72.90625 61.171875 64.09375 
Q 71.09375 55.28125 71.09375 36.53125 
Q 71.09375 17.671875 61.125 8.828125 
Q 51.171875 0 30.078125 0 
L 9.8125 0 
z
" id="DejaVuSans-68"/>
      <path d="M 56.203125 29.59375 
L 56.203125 25.203125 
L 14.890625 25.203125 
Q 15.484375 15.921875 20.484375 11.0625 
Q 25.484375 6.203125 34.421875 6.203125 
Q 39.59375 6.203125 44.453125 7.46875 
Q 49.3125 8.734375 54.109375 11.28125 
L 54.109375 2.78125 
Q 49.265625 0.734375 44.1875 -0.34375 
Q 39.109375 -1.421875 33.890625 -1.421875 
Q 20.796875 -1.421875 13.15625 6.1875 
Q 5.515625 13.8125 5.515625 26.8125 
Q 5.515625 40.234375 12.765625 48.109375 
Q 20.015625 56 32.328125 56 
Q 43.359375 56 49.78125 48.890625 
Q 56.203125 41.796875 56.203125 29.59375 
z
M 47.21875 32.234375 
Q 47.125 39.59375 43.09375 43.984375 
Q 39.0625 48.390625 32.421875 48.390625 
Q 24.90625 48.390625 20.390625 44.140625 
Q 15.875 39.890625 15.1875 32.171875 
z
" id="DejaVuSans-101"/>
      <path d="M 54.890625 33.015625 
L 54.890625 0 
L 45.90625 0 
L 45.90625 32.71875 
Q 45.90625 40.484375 42.875 44.328125 
Q 39.84375 48.1875 33.796875 48.1875 
Q 26.515625 48.1875 22.3125 43.546875 
Q 18.109375 38.921875 18.109375 30.90625 
L 18.109375 0 
L 9.078125 0 
L 9.078125 54.6875 
L 18.109375 54.6875 
L 18.109375 46.1875 
Q 21.34375 51.125 25.703125 53.5625 
Q 30.078125 56 35.796875 56 
Q 45.21875 56 50.046875 50.171875 
Q 54.890625 44.34375 54.890625 33.015625 
z
" id="DejaVuSans-110"/>
      <path d="M 44.28125 53.078125 
L 44.28125 44.578125 
Q 40.484375 46.53125 36.375 47.5 
Q 32.28125 48.484375 27.875 48.484375 
Q 21.1875 48.484375 17.84375 46.4375 
Q 14.5 44.390625 14.5 40.28125 
Q 14.5 37.15625 16.890625 35.375 
Q 19.28125 33.59375 26.515625 31.984375 
L 29.59375 31.296875 
Q 39.15625 29.25 43.1875 25.515625 
Q 47.21875 21.78125 47.21875 15.09375 
Q 47.21875 7.46875 41.1875 3.015625 
Q 35.15625 -1.421875 24.609375 -1.421875 
Q 20.21875 -1.421875 15.453125 -0.5625 
Q 10.6875 0.296875 5.421875 2 
L 5.421875 11.28125 
Q 10.40625 8.6875 15.234375 7.390625 
Q 20.0625 6.109375 24.8125 6.109375 
Q 31.15625 6.109375 34.5625 8.28125 
Q 37.984375 10.453125 37.984375 14.40625 
Q 37.984375 18.0625 35.515625 20.015625 
Q 33.0625 21.96875 24.703125 23.78125 
L 21.578125 24.515625 
Q 13.234375 26.265625 9.515625 29.90625 
Q 5.8125 33.546875 5.8125 39.890625 
Q 5.8125 47.609375 11.28125 51.796875 
Q 16.75 56 26.8125 56 
Q 31.78125 56 36.171875 55.265625 
Q 40.578125 54.546875 44.28125 53.078125 
z
" id="DejaVuSans-115"/>
      <path d="M 9.421875 54.6875 
L 18.40625 54.6875 
L 18.40625 0 
L 9.421875 0 
z
M 9.421875 75.984375 
L 18.40625 75.984375 
L 18.40625 64.59375 
L 9.421875 64.59375 
z
" id="DejaVuSans-105"/>
      <path d="M 18.3125 70.21875 
L 18.3125 54.6875 
L 36.8125 54.6875 
L 36.8125 47.703125 
L 18.3125 47.703125 
L 18.3125 18.015625 
Q 18.3125 11.328125 20.140625 9.421875 
Q 21.96875 7.515625 27.59375 7.515625 
L 36.8125 7.515625 
L 36.8125 0 
L 27.59375 0 
Q 17.1875 0 13.234375 3.875 
Q 9.28125 7.765625 9.28125 18.015625 
L 9.28125 47.703125 
L 2.6875 47.703125 
L 2.6875 54.6875 
L 9.28125 54.6875 
L 9.28125 70.21875 
z
" id="DejaVuSans-116"/>
      <path d="M 32.171875 -5.078125 
Q 28.375 -14.84375 24.75 -17.8125 
Q 21.140625 -20.796875 15.09375 -20.796875 
L 7.90625 -20.796875 
L 7.90625 -13.28125 
L 13.1875 -13.28125 
Q 16.890625 -13.28125 18.9375 -11.515625 
Q 21 -9.765625 23.484375 -3.21875 
L 25.09375 0.875 
L 2.984375 54.6875 
L 12.5 54.6875 
L 29.59375 11.921875 
L 46.6875 54.6875 
L 56.203125 54.6875 
z
" id="DejaVuSans-121"/>
     </defs>
     <g transform="translate(28.617187 93.744594)rotate(-90)scale(0.1 -0.1)">
      <use xlink:href="#DejaVuSans-68"/>
      <use x="77.001953" xlink:href="#DejaVuSans-101"/>
      <use x="138.525391" xlink:href="#DejaVuSans-110"/>
      <use x="201.904297" xlink:href="#DejaVuSans-115"/>
      <use x="254.003906" xlink:href="#DejaVuSans-105"/>
      <use x="281.787109" xlink:href="#DejaVuSans-116"/>
      <use x="320.996094" xlink:href="#DejaVuSans-121"/>
     </g>
    </g>
   </g>
   <g id="line2d_9">
    <path clip-path="url(#p67068667b2)" d="M 73.832727 107.99506 
L 77.112066 107.989019 
L 80.391405 107.976888 
L 83.670744 107.953856 
L 86.950083 107.912394 
L 90.229421 107.841422 
L 93.50876 107.725508 
L 96.788099 107.544207 
L 100.067438 107.271604 
L 103.346777 106.876158 
L 106.626116 106.321005 
L 109.905455 105.565049 
L 113.184793 104.565245 
L 116.464132 103.280438 
L 119.743471 101.676743 
L 123.02281 99.733859 
L 126.302149 97.451031 
L 129.581488 94.850979 
L 132.860826 91.980347 
L 136.140165 88.906088 
L 139.419504 85.708566 
L 142.698843 82.473343 
L 145.978182 79.284104 
L 149.257521 76.218605 
L 152.53686 73.348108 
L 155.816198 70.739003 
L 159.095537 68.454166 
L 162.374876 66.55148 
L 165.654215 65.078178 
L 168.933554 64.061801 
L 172.212893 63.50075 
L 175.492231 63.358743 
L 178.77157 63.566893 
L 182.050909 64.034673 
L 185.330248 64.667236 
L 188.609587 65.38328 
L 191.888926 66.126422 
L 195.168264 66.865113 
L 198.447603 67.580824 
L 201.726942 68.249796 
L 205.006281 68.827232 
L 208.28562 69.242653 
L 211.564959 69.410907 
L 214.844298 69.256735 
L 218.123636 68.74469 
L 221.402975 67.90298 
L 224.682314 66.830834 
L 227.961653 65.683998 
L 231.240992 64.64047 
L 234.520331 63.856105 
L 237.799669 63.424568 
L 241.079008 63.35576 
L 244.358347 63.580712 
L 247.637686 63.980911 
L 250.917025 64.43037 
L 254.196364 64.833983 
L 257.475702 65.148265 
L 260.755041 65.378988 
L 264.03438 65.560301 
L 267.313719 65.726817 
L 270.593058 65.891329 
L 273.872397 66.03667 
L 277.151736 66.123532 
L 280.431074 66.109853 
L 283.710413 65.973698 
L 286.989752 65.730978 
L 290.269091 65.44153 
L 293.54843 65.20101 
L 296.827769 65.120696 
L 300.107107 65.301308 
L 303.386446 65.809025 
L 306.665785 66.661374 
L 309.945124 67.827534 
L 313.224463 69.242979 
L 316.503802 70.83367 
L 319.78314 72.541776 
L 323.062479 74.344235 
L 326.341818 76.257634 
L 329.621157 78.327429 
L 332.900496 80.605065 
L 336.179835 83.121085 
L 339.459174 85.863936 
L 342.738512 88.772086 
L 346.017851 91.741822 
L 349.29719 94.647237 
L 352.576529 97.364887 
L 355.855868 99.795117 
L 359.135207 101.874747 
L 362.414545 103.579839 
L 365.693884 104.920627 
L 368.973223 105.93218 
L 372.252562 106.664108 
L 375.531901 107.17146 
L 378.81124 107.507788 
L 382.090579 107.720561 
L 385.369917 107.848732 
L 388.649256 107.922084 
L 391.928595 107.961886 
L 395.207934 107.982323 
L 398.487273 107.992239 
" style="fill:none;stroke:#00008b;stroke-linecap:square;stroke-width:4;"/>
   </g>
   <g id="patch_53">
    <path d="M 57.6 108 
L 57.6 41.472 
" style="fill:none;stroke:#000000;stroke-linecap:square;stroke-linejoin:miter;stroke-width:0.8;"/>
   </g>
   <g id="patch_54">
    <path d="M 414.72 108 
L 414.72 41.472 
" style="fill:none;stroke:#000000;stroke-linecap:square;stroke-linejoin:miter;stroke-width:0.8;"/>
   </g>
   <g id="patch_55">
    <path d="M 57.6 108 
L 414.72 108 
" style="fill:none;stroke:#000000;stroke-linecap:square;stroke-linejoin:miter;stroke-width:0.8;"/>
   </g>
   <g id="patch_56">
    <path d="M 57.6 41.472 
L 414.72 41.472 
" style="fill:none;stroke:#000000;stroke-linecap:square;stroke-linejoin:miter;stroke-width:0.8;"/>
   </g>
   <g id="legend_1">
    <g id="patch_57">
     <path d="M 369.80125 64.150125 
L 407.72 64.150125 
Q 409.72 64.150125 409.72 62.150125 
L 409.72 48.472 
Q 409.72 46.472 407.72 46.472 
L 369.80125 46.472 
Q 367.80125 46.472 367.80125 48.472 
L 367.80125 62.150125 
Q 367.80125 64.150125 369.80125 64.150125 
z
" style="fill:#ffffff;opacity:0.8;stroke:#cccccc;stroke-linejoin:miter;"/>
    </g>
    <g id="patch_58">
     <path d="M 371.80125 58.070438 
L 391.80125 58.070438 
L 391.80125 51.070438 
L 371.80125 51.070438 
z
" style="fill:#00008b;opacity:0.4;stroke:#000000;stroke-linejoin:miter;"/>
    </g>
    <g id="text_10">
     <!-- x -->
     <defs>
      <path d="M 54.890625 54.6875 
L 35.109375 28.078125 
L 55.90625 0 
L 45.3125 0 
L 29.390625 21.484375 
L 13.484375 0 
L 2.875 0 
L 24.125 28.609375 
L 4.6875 54.6875 
L 15.28125 54.6875 
L 29.78125 35.203125 
L 44.28125 54.6875 
z
" id="DejaVuSans-120"/>
     </defs>
     <g transform="translate(399.80125 58.070438)scale(0.1 -0.1)">
      <use xlink:href="#DejaVuSans-120"/>
     </g>
    </g>
   </g>
  </g>
  <g id="axes_2">
   <g id="patch_59">
    <path d="M 57.6 207.792 
L 414.72 207.792 
L 414.72 141.264 
L 57.6 141.264 
z
" style="fill:#ffffff;"/>
   </g>
   <g id="patch_60">
    <path clip-path="url(#p46320dd1f1)" d="M 112.061035 207.792 
L 117.024994 207.792 
L 117.024994 206.670584 
L 112.061035 206.670584 
z
" style="fill:#006400;opacity:0.4;stroke:#000000;stroke-linejoin:miter;"/>
   </g>
   <g id="patch_61">
    <path clip-path="url(#p46320dd1f1)" d="M 117.024994 207.792 
L 121.988952 207.792 
L 121.988952 204.98846 
L 117.024994 204.98846 
z
" style="fill:#006400;opacity:0.4;stroke:#000000;stroke-linejoin:miter;"/>
   </g>
   <g id="patch_62">
    <path clip-path="url(#p46320dd1f1)" d="M 121.988952 207.792 
L 126.952911 207.792 
L 126.952911 198.820673 
L 121.988952 198.820673 
z
" style="fill:#006400;opacity:0.4;stroke:#000000;stroke-linejoin:miter;"/>
   </g>
   <g id="patch_63">
    <path clip-path="url(#p46320dd1f1)" d="M 126.952911 207.792 
L 131.91687 207.792 
L 131.91687 197.699257 
L 126.952911 197.699257 
z
" style="fill:#006400;opacity:0.4;stroke:#000000;stroke-linejoin:miter;"/>
   </g>
   <g id="patch_64">
    <path clip-path="url(#p46320dd1f1)" d="M 131.91687 207.792 
L 136.880828 207.792 
L 136.880828 197.138549 
L 131.91687 197.138549 
z
" style="fill:#006400;opacity:0.4;stroke:#000000;stroke-linejoin:miter;"/>
   </g>
   <g id="patch_65">
    <path clip-path="url(#p46320dd1f1)" d="M 136.880828 207.792 
L 141.844787 207.792 
L 141.844787 190.410053 
L 136.880828 190.410053 
z
" style="fill:#006400;opacity:0.4;stroke:#000000;stroke-linejoin:miter;"/>
   </g>
   <g id="patch_66">
    <path clip-path="url(#p46320dd1f1)" d="M 141.844787 207.792 
L 146.808745 207.792 
L 146.808745 177.51377 
L 141.844787 177.51377 
z
" style="fill:#006400;opacity:0.4;stroke:#000000;stroke-linejoin:miter;"/>
   </g>
   <g id="patch_67">
    <path clip-path="url(#p46320dd1f1)" d="M 146.808745 207.792 
L 151.772704 207.792 
L 151.772704 170.224566 
L 146.808745 170.224566 
z
" style="fill:#006400;opacity:0.4;stroke:#000000;stroke-linejoin:miter;"/>
   </g>
   <g id="patch_68">
    <path clip-path="url(#p46320dd1f1)" d="M 151.772704 207.792 
L 156.736663 207.792 
L 156.736663 155.085451 
L 151.772704 155.085451 
z
" style="fill:#006400;opacity:0.4;stroke:#000000;stroke-linejoin:miter;"/>
   </g>
   <g id="patch_69">
    <path clip-path="url(#p46320dd1f1)" d="M 156.736663 207.792 
L 161.700621 207.792 
L 161.700621 180.31731 
L 156.736663 180.31731 
z
" style="fill:#006400;opacity:0.4;stroke:#000000;stroke-linejoin:miter;"/>
   </g>
   <g id="patch_70">
    <path clip-path="url(#p46320dd1f1)" d="M 161.700621 207.792 
L 166.66458 207.792 
L 166.66458 171.90669 
L 161.700621 171.90669 
z
" style="fill:#006400;opacity:0.4;stroke:#000000;stroke-linejoin:miter;"/>
   </g>
   <g id="patch_71">
    <path clip-path="url(#p46320dd1f1)" d="M 166.66458 207.792 
L 171.628538 207.792 
L 171.628538 164.617487 
L 166.66458 164.617487 
z
" style="fill:#006400;opacity:0.4;stroke:#000000;stroke-linejoin:miter;"/>
   </g>
   <g id="patch_72">
    <path clip-path="url(#p46320dd1f1)" d="M 171.628538 207.792 
L 176.592497 207.792 
L 176.592497 171.90669 
L 171.628538 171.90669 
z
" style="fill:#006400;opacity:0.4;stroke:#000000;stroke-linejoin:miter;"/>
   </g>
   <g id="patch_73">
    <path clip-path="url(#p46320dd1f1)" d="M 176.592497 207.792 
L 181.556455 207.792 
L 181.556455 178.635186 
L 176.592497 178.635186 
z
" style="fill:#006400;opacity:0.4;stroke:#000000;stroke-linejoin:miter;"/>
   </g>
   <g id="patch_74">
    <path clip-path="url(#p46320dd1f1)" d="M 181.556455 207.792 
L 186.520414 207.792 
L 186.520414 193.774301 
L 181.556455 193.774301 
z
" style="fill:#006400;opacity:0.4;stroke:#000000;stroke-linejoin:miter;"/>
   </g>
   <g id="patch_75">
    <path clip-path="url(#p46320dd1f1)" d="M 186.520414 207.792 
L 191.484373 207.792 
L 191.484373 197.699257 
L 186.520414 197.699257 
z
" style="fill:#006400;opacity:0.4;stroke:#000000;stroke-linejoin:miter;"/>
   </g>
   <g id="patch_76">
    <path clip-path="url(#p46320dd1f1)" d="M 191.484373 207.792 
L 196.448331 207.792 
L 196.448331 199.942088 
L 191.484373 199.942088 
z
" style="fill:#006400;opacity:0.4;stroke:#000000;stroke-linejoin:miter;"/>
   </g>
   <g id="patch_77">
    <path clip-path="url(#p46320dd1f1)" d="M 196.448331 207.792 
L 201.41229 207.792 
L 201.41229 199.381381 
L 196.448331 199.381381 
z
" style="fill:#006400;opacity:0.4;stroke:#000000;stroke-linejoin:miter;"/>
   </g>
   <g id="patch_78">
    <path clip-path="url(#p46320dd1f1)" d="M 201.41229 207.792 
L 206.376248 207.792 
L 206.376248 199.381381 
L 201.41229 199.381381 
z
" style="fill:#006400;opacity:0.4;stroke:#000000;stroke-linejoin:miter;"/>
   </g>
   <g id="patch_79">
    <path clip-path="url(#p46320dd1f1)" d="M 206.376248 207.792 
L 211.340207 207.792 
L 211.340207 187.606513 
L 206.376248 187.606513 
z
" style="fill:#006400;opacity:0.4;stroke:#000000;stroke-linejoin:miter;"/>
   </g>
   <g id="patch_80">
    <path clip-path="url(#p46320dd1f1)" d="M 211.340207 207.792 
L 216.304166 207.792 
L 216.304166 180.31731 
L 211.340207 180.31731 
z
" style="fill:#006400;opacity:0.4;stroke:#000000;stroke-linejoin:miter;"/>
   </g>
   <g id="patch_81">
    <path clip-path="url(#p46320dd1f1)" d="M 216.304166 207.792 
L 221.268124 207.792 
L 221.268124 162.935363 
L 216.304166 162.935363 
z
" style="fill:#006400;opacity:0.4;stroke:#000000;stroke-linejoin:miter;"/>
   </g>
   <g id="patch_82">
    <path clip-path="url(#p46320dd1f1)" d="M 221.268124 207.792 
L 226.232083 207.792 
L 226.232083 157.888991 
L 221.268124 157.888991 
z
" style="fill:#006400;opacity:0.4;stroke:#000000;stroke-linejoin:miter;"/>
   </g>
   <g id="patch_83">
    <path clip-path="url(#p46320dd1f1)" d="M 226.232083 207.792 
L 231.196041 207.792 
L 231.196041 144.432 
L 226.232083 144.432 
z
" style="fill:#006400;opacity:0.4;stroke:#000000;stroke-linejoin:miter;"/>
   </g>
   <g id="patch_84">
    <path clip-path="url(#p46320dd1f1)" d="M 231.196041 207.792 
L 236.16 207.792 
L 236.16 155.085451 
L 231.196041 155.085451 
z
" style="fill:#006400;opacity:0.4;stroke:#000000;stroke-linejoin:miter;"/>
   </g>
   <g id="patch_85">
    <path clip-path="url(#p46320dd1f1)" d="M 236.16 207.792 
L 241.123959 207.792 
L 241.123959 152.842619 
L 236.16 152.842619 
z
" style="fill:#006400;opacity:0.4;stroke:#000000;stroke-linejoin:miter;"/>
   </g>
   <g id="patch_86">
    <path clip-path="url(#p46320dd1f1)" d="M 241.123959 207.792 
L 246.087917 207.792 
L 246.087917 165.738903 
L 241.123959 165.738903 
z
" style="fill:#006400;opacity:0.4;stroke:#000000;stroke-linejoin:miter;"/>
   </g>
   <g id="patch_87">
    <path clip-path="url(#p46320dd1f1)" d="M 246.087917 207.792 
L 251.051876 207.792 
L 251.051876 169.10315 
L 246.087917 169.10315 
z
" style="fill:#006400;opacity:0.4;stroke:#000000;stroke-linejoin:miter;"/>
   </g>
   <g id="patch_88">
    <path clip-path="url(#p46320dd1f1)" d="M 251.051876 207.792 
L 256.015834 207.792 
L 256.015834 180.31731 
L 251.051876 180.31731 
z
" style="fill:#006400;opacity:0.4;stroke:#000000;stroke-linejoin:miter;"/>
   </g>
   <g id="patch_89">
    <path clip-path="url(#p46320dd1f1)" d="M 256.015834 207.792 
L 260.979793 207.792 
L 260.979793 188.727929 
L 256.015834 188.727929 
z
" style="fill:#006400;opacity:0.4;stroke:#000000;stroke-linejoin:miter;"/>
   </g>
   <g id="patch_90">
    <path clip-path="url(#p46320dd1f1)" d="M 260.979793 207.792 
L 265.943752 207.792 
L 265.943752 190.410053 
L 260.979793 190.410053 
z
" style="fill:#006400;opacity:0.4;stroke:#000000;stroke-linejoin:miter;"/>
   </g>
   <g id="patch_91">
    <path clip-path="url(#p46320dd1f1)" d="M 265.943752 207.792 
L 270.90771 207.792 
L 270.90771 193.213593 
L 265.943752 193.213593 
z
" style="fill:#006400;opacity:0.4;stroke:#000000;stroke-linejoin:miter;"/>
   </g>
   <g id="patch_92">
    <path clip-path="url(#p46320dd1f1)" d="M 270.90771 207.792 
L 275.871669 207.792 
L 275.871669 196.577841 
L 270.90771 196.577841 
z
" style="fill:#006400;opacity:0.4;stroke:#000000;stroke-linejoin:miter;"/>
   </g>
   <g id="patch_93">
    <path clip-path="url(#p46320dd1f1)" d="M 275.871669 207.792 
L 280.835627 207.792 
L 280.835627 194.335009 
L 275.871669 194.335009 
z
" style="fill:#006400;opacity:0.4;stroke:#000000;stroke-linejoin:miter;"/>
   </g>
   <g id="patch_94">
    <path clip-path="url(#p46320dd1f1)" d="M 280.835627 207.792 
L 285.799586 207.792 
L 285.799586 188.727929 
L 280.835627 188.727929 
z
" style="fill:#006400;opacity:0.4;stroke:#000000;stroke-linejoin:miter;"/>
   </g>
   <g id="patch_95">
    <path clip-path="url(#p46320dd1f1)" d="M 285.799586 207.792 
L 290.763545 207.792 
L 290.763545 178.635186 
L 285.799586 178.635186 
z
" style="fill:#006400;opacity:0.4;stroke:#000000;stroke-linejoin:miter;"/>
   </g>
   <g id="patch_96">
    <path clip-path="url(#p46320dd1f1)" d="M 290.763545 207.792 
L 295.727503 207.792 
L 295.727503 183.681558 
L 290.763545 183.681558 
z
" style="fill:#006400;opacity:0.4;stroke:#000000;stroke-linejoin:miter;"/>
   </g>
   <g id="patch_97">
    <path clip-path="url(#p46320dd1f1)" d="M 295.727503 207.792 
L 300.691462 207.792 
L 300.691462 167.981735 
L 295.727503 167.981735 
z
" style="fill:#006400;opacity:0.4;stroke:#000000;stroke-linejoin:miter;"/>
   </g>
   <g id="patch_98">
    <path clip-path="url(#p46320dd1f1)" d="M 300.691462 207.792 
L 305.65542 207.792 
L 305.65542 179.195894 
L 300.691462 179.195894 
z
" style="fill:#006400;opacity:0.4;stroke:#000000;stroke-linejoin:miter;"/>
   </g>
   <g id="patch_99">
    <path clip-path="url(#p46320dd1f1)" d="M 305.65542 207.792 
L 310.619379 207.792 
L 310.619379 166.860319 
L 305.65542 166.860319 
z
" style="fill:#006400;opacity:0.4;stroke:#000000;stroke-linejoin:miter;"/>
   </g>
   <g id="patch_100">
    <path clip-path="url(#p46320dd1f1)" d="M 310.619379 207.792 
L 315.583337 207.792 
L 315.583337 167.421027 
L 310.619379 167.421027 
z
" style="fill:#006400;opacity:0.4;stroke:#000000;stroke-linejoin:miter;"/>
   </g>
   <g id="patch_101">
    <path clip-path="url(#p46320dd1f1)" d="M 315.583337 207.792 
L 320.547296 207.792 
L 320.547296 173.028106 
L 315.583337 173.028106 
z
" style="fill:#006400;opacity:0.4;stroke:#000000;stroke-linejoin:miter;"/>
   </g>
   <g id="patch_102">
    <path clip-path="url(#p46320dd1f1)" d="M 320.547296 207.792 
L 325.511255 207.792 
L 325.511255 180.878018 
L 320.547296 180.878018 
z
" style="fill:#006400;opacity:0.4;stroke:#000000;stroke-linejoin:miter;"/>
   </g>
   <g id="patch_103">
    <path clip-path="url(#p46320dd1f1)" d="M 325.511255 207.792 
L 330.475213 207.792 
L 330.475213 183.681558 
L 325.511255 183.681558 
z
" style="fill:#006400;opacity:0.4;stroke:#000000;stroke-linejoin:miter;"/>
   </g>
   <g id="patch_104">
    <path clip-path="url(#p46320dd1f1)" d="M 330.475213 207.792 
L 335.439172 207.792 
L 335.439172 192.092177 
L 330.475213 192.092177 
z
" style="fill:#006400;opacity:0.4;stroke:#000000;stroke-linejoin:miter;"/>
   </g>
   <g id="patch_105">
    <path clip-path="url(#p46320dd1f1)" d="M 335.439172 207.792 
L 340.40313 207.792 
L 340.40313 199.942088 
L 335.439172 199.942088 
z
" style="fill:#006400;opacity:0.4;stroke:#000000;stroke-linejoin:miter;"/>
   </g>
   <g id="patch_106">
    <path clip-path="url(#p46320dd1f1)" d="M 340.40313 207.792 
L 345.367089 207.792 
L 345.367089 203.867044 
L 340.40313 203.867044 
z
" style="fill:#006400;opacity:0.4;stroke:#000000;stroke-linejoin:miter;"/>
   </g>
   <g id="patch_107">
    <path clip-path="url(#p46320dd1f1)" d="M 345.367089 207.792 
L 350.331048 207.792 
L 350.331048 206.670584 
L 345.367089 206.670584 
z
" style="fill:#006400;opacity:0.4;stroke:#000000;stroke-linejoin:miter;"/>
   </g>
   <g id="patch_108">
    <path clip-path="url(#p46320dd1f1)" d="M 350.331048 207.792 
L 355.295006 207.792 
L 355.295006 207.231292 
L 350.331048 207.231292 
z
" style="fill:#006400;opacity:0.4;stroke:#000000;stroke-linejoin:miter;"/>
   </g>
   <g id="patch_109">
    <path clip-path="url(#p46320dd1f1)" d="M 355.295006 207.792 
L 360.258965 207.792 
L 360.258965 207.231292 
L 355.295006 207.231292 
z
" style="fill:#006400;opacity:0.4;stroke:#000000;stroke-linejoin:miter;"/>
   </g>
   <g id="matplotlib.axis_3">
    <g id="xtick_6">
     <g id="line2d_10">
      <g>
       <use style="stroke:#000000;stroke-width:0.8;" x="88.249014" xlink:href="#m207d86f447" y="207.792"/>
      </g>
     </g>
     <g id="text_11">
      <!-- −1.0 -->
      <g transform="translate(76.107608 222.390437)scale(0.1 -0.1)">
       <use xlink:href="#DejaVuSans-8722"/>
       <use x="83.789062" xlink:href="#DejaVuSans-49"/>
       <use x="147.412109" xlink:href="#DejaVuSans-46"/>
       <use x="179.199219" xlink:href="#DejaVuSans-48"/>
      </g>
     </g>
    </g>
    <g id="xtick_7">
     <g id="line2d_11">
      <g>
       <use style="stroke:#000000;stroke-width:0.8;" x="160.790984" xlink:href="#m207d86f447" y="207.792"/>
      </g>
     </g>
     <g id="text_12">
      <!-- −0.5 -->
      <g transform="translate(148.649577 222.390437)scale(0.1 -0.1)">
       <use xlink:href="#DejaVuSans-8722"/>
       <use x="83.789062" xlink:href="#DejaVuSans-48"/>
       <use x="147.412109" xlink:href="#DejaVuSans-46"/>
       <use x="179.199219" xlink:href="#DejaVuSans-53"/>
      </g>
     </g>
    </g>
    <g id="xtick_8">
     <g id="line2d_12">
      <g>
       <use style="stroke:#000000;stroke-width:0.8;" x="233.332953" xlink:href="#m207d86f447" y="207.792"/>
      </g>
     </g>
     <g id="text_13">
      <!-- 0.0 -->
      <g transform="translate(225.38139 222.390437)scale(0.1 -0.1)">
       <use xlink:href="#DejaVuSans-48"/>
       <use x="63.623047" xlink:href="#DejaVuSans-46"/>
       <use x="95.410156" xlink:href="#DejaVuSans-48"/>
      </g>
     </g>
    </g>
    <g id="xtick_9">
     <g id="line2d_13">
      <g>
       <use style="stroke:#000000;stroke-width:0.8;" x="305.874922" xlink:href="#m207d86f447" y="207.792"/>
      </g>
     </g>
     <g id="text_14">
      <!-- 0.5 -->
      <g transform="translate(297.923359 222.390437)scale(0.1 -0.1)">
       <use xlink:href="#DejaVuSans-48"/>
       <use x="63.623047" xlink:href="#DejaVuSans-46"/>
       <use x="95.410156" xlink:href="#DejaVuSans-53"/>
      </g>
     </g>
    </g>
    <g id="xtick_10">
     <g id="line2d_14">
      <g>
       <use style="stroke:#000000;stroke-width:0.8;" x="378.416891" xlink:href="#m207d86f447" y="207.792"/>
      </g>
     </g>
     <g id="text_15">
      <!-- 1.0 -->
      <g transform="translate(370.465328 222.390437)scale(0.1 -0.1)">
       <use xlink:href="#DejaVuSans-49"/>
       <use x="63.623047" xlink:href="#DejaVuSans-46"/>
       <use x="95.410156" xlink:href="#DejaVuSans-48"/>
      </g>
     </g>
    </g>
   </g>
   <g id="matplotlib.axis_4">
    <g id="ytick_4">
     <g id="line2d_15">
      <g>
       <use style="stroke:#000000;stroke-width:0.8;" x="57.6" xlink:href="#m2fb7039e81" y="207.792"/>
      </g>
     </g>
     <g id="text_16">
      <!-- 0 -->
      <g transform="translate(44.2375 211.591219)scale(0.1 -0.1)">
       <use xlink:href="#DejaVuSans-48"/>
      </g>
     </g>
    </g>
    <g id="ytick_5">
     <g id="line2d_16">
      <g>
       <use style="stroke:#000000;stroke-width:0.8;" x="57.6" xlink:href="#m2fb7039e81" y="165.816792"/>
      </g>
     </g>
     <g id="text_17">
      <!-- 1 -->
      <g transform="translate(44.2375 169.616011)scale(0.1 -0.1)">
       <use xlink:href="#DejaVuSans-49"/>
      </g>
     </g>
    </g>
    <g id="text_18">
     <!-- Density -->
     <g transform="translate(38.157812 193.536594)rotate(-90)scale(0.1 -0.1)">
      <use xlink:href="#DejaVuSans-68"/>
      <use x="77.001953" xlink:href="#DejaVuSans-101"/>
      <use x="138.525391" xlink:href="#DejaVuSans-110"/>
      <use x="201.904297" xlink:href="#DejaVuSans-115"/>
      <use x="254.003906" xlink:href="#DejaVuSans-105"/>
      <use x="281.787109" xlink:href="#DejaVuSans-116"/>
      <use x="320.996094" xlink:href="#DejaVuSans-121"/>
     </g>
    </g>
   </g>
   <g id="line2d_17">
    <path clip-path="url(#p46320dd1f1)" d="M 73.832727 207.788862 
L 77.112066 207.78476 
L 80.391405 207.77614 
L 83.670744 207.758958 
L 86.950083 207.726437 
L 90.229421 207.667911 
L 93.50876 207.567673 
L 96.788099 207.404101 
L 100.067438 207.149476 
L 103.346777 206.770779 
L 106.626116 206.231492 
L 109.905455 205.494021 
L 113.184793 204.522005 
L 116.464132 203.281915 
L 119.743471 201.744007 
L 123.02281 199.883826 
L 126.302149 197.686151 
L 129.581488 195.152832 
L 132.860826 192.313972 
L 136.140165 189.239027 
L 139.419504 186.042356 
L 142.698843 182.878231 
L 145.978182 179.923901 
L 149.257521 177.354627 
L 152.53686 175.318713 
L 155.816198 173.920883 
L 159.095537 173.218098 
L 162.374876 173.225468 
L 165.654215 173.924964 
L 168.933554 175.269371 
L 172.212893 177.178315 
L 175.492231 179.529428 
L 178.77157 182.151821 
L 182.050909 184.828728 
L 185.330248 187.31211 
L 188.609587 189.346884 
L 191.888926 190.699238 
L 195.168264 191.183277 
L 198.447603 190.682287 
L 201.726942 189.163255 
L 205.006281 186.684481 
L 208.28562 183.395919 
L 211.564959 179.531101 
L 214.844298 175.389265 
L 218.123636 171.307435 
L 221.402975 167.624584 
L 224.682314 164.642807 
L 227.961653 162.592476 
L 231.240992 161.60836 
L 234.520331 161.721285 
L 237.799669 162.865617 
L 241.079008 164.898496 
L 244.358347 167.624271 
L 247.637686 170.81802 
L 250.917025 174.244773 
L 254.196364 177.674237 
L 257.475702 180.892621 
L 260.755041 183.713109 
L 264.03438 185.985336 
L 267.313719 187.603234 
L 270.593058 188.510333 
L 273.872397 188.701862 
L 277.151736 188.223237 
L 280.431074 187.16461 
L 283.710413 185.651614 
L 286.989752 183.833361 
L 290.269091 181.869838 
L 293.54843 179.921195 
L 296.827769 178.140407 
L 300.107107 176.668837 
L 303.386446 175.632558 
L 306.665785 175.137039 
L 309.945124 175.259225 
L 313.224463 176.038318 
L 316.503802 177.468211 
L 319.78314 179.494619 
L 323.062479 182.01859 
L 326.341818 184.906102 
L 329.621157 188.00195 
L 332.900496 191.145564 
L 336.179835 194.186537 
L 339.459174 196.998054 
L 342.738512 199.486724 
L 346.017851 201.597682 
L 349.29719 203.314435 
L 352.576529 204.653766 
L 355.855868 205.657012 
L 359.135207 206.379672 
L 362.414545 206.881456 
L 365.693884 207.218463 
L 368.973223 207.438324 
L 372.252562 207.578282 
L 375.531901 207.665542 
L 378.81124 207.718924 
L 382.090579 207.750933 
L 385.369917 207.769674 
L 388.649256 207.780323 
L 391.928595 207.786155 
L 395.207934 207.789213 
L 398.487273 207.790739 
" style="fill:none;stroke:#006400;stroke-linecap:square;stroke-width:4;"/>
   </g>
   <g id="patch_110">
    <path d="M 57.6 207.792 
L 57.6 141.264 
" style="fill:none;stroke:#000000;stroke-linecap:square;stroke-linejoin:miter;stroke-width:0.8;"/>
   </g>
   <g id="patch_111">
    <path d="M 414.72 207.792 
L 414.72 141.264 
" style="fill:none;stroke:#000000;stroke-linecap:square;stroke-linejoin:miter;stroke-width:0.8;"/>
   </g>
   <g id="patch_112">
    <path d="M 57.6 207.792 
L 414.72 207.792 
" style="fill:none;stroke:#000000;stroke-linecap:square;stroke-linejoin:miter;stroke-width:0.8;"/>
   </g>
   <g id="patch_113">
    <path d="M 57.6 141.264 
L 414.72 141.264 
" style="fill:none;stroke:#000000;stroke-linecap:square;stroke-linejoin:miter;stroke-width:0.8;"/>
   </g>
   <g id="legend_2">
    <g id="patch_114">
     <path d="M 369.80125 163.942125 
L 407.72 163.942125 
Q 409.72 163.942125 409.72 161.942125 
L 409.72 148.264 
Q 409.72 146.264 407.72 146.264 
L 369.80125 146.264 
Q 367.80125 146.264 367.80125 148.264 
L 367.80125 161.942125 
Q 367.80125 163.942125 369.80125 163.942125 
z
" style="fill:#ffffff;opacity:0.8;stroke:#cccccc;stroke-linejoin:miter;"/>
    </g>
    <g id="patch_115">
     <path d="M 371.80125 157.862437 
L 391.80125 157.862437 
L 391.80125 150.862437 
L 371.80125 150.862437 
z
" style="fill:#006400;opacity:0.4;stroke:#000000;stroke-linejoin:miter;"/>
    </g>
    <g id="text_19">
     <!-- y -->
     <g transform="translate(399.80125 157.862437)scale(0.1 -0.1)">
      <use xlink:href="#DejaVuSans-121"/>
     </g>
    </g>
   </g>
  </g>
  <g id="axes_3">
   <g id="patch_116">
    <path d="M 57.6 307.584 
L 414.72 307.584 
L 414.72 241.056 
L 57.6 241.056 
z
" style="fill:#ffffff;"/>
   </g>
   <g id="patch_117">
    <path clip-path="url(#p9fd3dd9cf6)" d="M 112.185871 307.584 
L 117.144836 307.584 
L 117.144836 305.115429 
L 112.185871 305.115429 
z
" style="fill:#8b0000;opacity:0.4;stroke:#000000;stroke-linejoin:miter;"/>
   </g>
   <g id="patch_118">
    <path clip-path="url(#p9fd3dd9cf6)" d="M 117.144836 307.584 
L 122.103801 307.584 
L 122.103801 299.355429 
L 117.144836 299.355429 
z
" style="fill:#8b0000;opacity:0.4;stroke:#000000;stroke-linejoin:miter;"/>
   </g>
   <g id="patch_119">
    <path clip-path="url(#p9fd3dd9cf6)" d="M 122.103801 307.584 
L 127.062766 307.584 
L 127.062766 294.418286 
L 122.103801 294.418286 
z
" style="fill:#8b0000;opacity:0.4;stroke:#000000;stroke-linejoin:miter;"/>
   </g>
   <g id="patch_120">
    <path clip-path="url(#p9fd3dd9cf6)" d="M 127.062766 307.584 
L 132.021732 307.584 
L 132.021732 287.835429 
L 127.062766 287.835429 
z
" style="fill:#8b0000;opacity:0.4;stroke:#000000;stroke-linejoin:miter;"/>
   </g>
   <g id="patch_121">
    <path clip-path="url(#p9fd3dd9cf6)" d="M 132.021732 307.584 
L 136.980697 307.584 
L 136.980697 285.366857 
L 132.021732 285.366857 
z
" style="fill:#8b0000;opacity:0.4;stroke:#000000;stroke-linejoin:miter;"/>
   </g>
   <g id="patch_122">
    <path clip-path="url(#p9fd3dd9cf6)" d="M 136.980697 307.584 
L 141.939662 307.584 
L 141.939662 273.846857 
L 136.980697 273.846857 
z
" style="fill:#8b0000;opacity:0.4;stroke:#000000;stroke-linejoin:miter;"/>
   </g>
   <g id="patch_123">
    <path clip-path="url(#p9fd3dd9cf6)" d="M 141.939662 307.584 
L 146.898627 307.584 
L 146.898627 266.441143 
L 141.939662 266.441143 
z
" style="fill:#8b0000;opacity:0.4;stroke:#000000;stroke-linejoin:miter;"/>
   </g>
   <g id="patch_124">
    <path clip-path="url(#p9fd3dd9cf6)" d="M 146.898627 307.584 
L 151.857592 307.584 
L 151.857592 269.732571 
L 146.898627 269.732571 
z
" style="fill:#8b0000;opacity:0.4;stroke:#000000;stroke-linejoin:miter;"/>
   </g>
   <g id="patch_125">
    <path clip-path="url(#p9fd3dd9cf6)" d="M 151.857592 307.584 
L 156.816557 307.584 
L 156.816557 280.429714 
L 151.857592 280.429714 
z
" style="fill:#8b0000;opacity:0.4;stroke:#000000;stroke-linejoin:miter;"/>
   </g>
   <g id="patch_126">
    <path clip-path="url(#p9fd3dd9cf6)" d="M 156.816557 307.584 
L 161.775523 307.584 
L 161.775523 278.784 
L 156.816557 278.784 
z
" style="fill:#8b0000;opacity:0.4;stroke:#000000;stroke-linejoin:miter;"/>
   </g>
   <g id="patch_127">
    <path clip-path="url(#p9fd3dd9cf6)" d="M 161.775523 307.584 
L 166.734488 307.584 
L 166.734488 266.441143 
L 161.775523 266.441143 
z
" style="fill:#8b0000;opacity:0.4;stroke:#000000;stroke-linejoin:miter;"/>
   </g>
   <g id="patch_128">
    <path clip-path="url(#p9fd3dd9cf6)" d="M 166.734488 307.584 
L 171.693453 307.584 
L 171.693453 254.921143 
L 166.734488 254.921143 
z
" style="fill:#8b0000;opacity:0.4;stroke:#000000;stroke-linejoin:miter;"/>
   </g>
   <g id="patch_129">
    <path clip-path="url(#p9fd3dd9cf6)" d="M 171.693453 307.584 
L 176.652418 307.584 
L 176.652418 273.024 
L 171.693453 273.024 
z
" style="fill:#8b0000;opacity:0.4;stroke:#000000;stroke-linejoin:miter;"/>
   </g>
   <g id="patch_130">
    <path clip-path="url(#p9fd3dd9cf6)" d="M 176.652418 307.584 
L 181.611383 307.584 
L 181.611383 249.984 
L 176.652418 249.984 
z
" style="fill:#8b0000;opacity:0.4;stroke:#000000;stroke-linejoin:miter;"/>
   </g>
   <g id="patch_131">
    <path clip-path="url(#p9fd3dd9cf6)" d="M 181.611383 307.584 
L 186.570348 307.584 
L 186.570348 263.149714 
L 181.611383 263.149714 
z
" style="fill:#8b0000;opacity:0.4;stroke:#000000;stroke-linejoin:miter;"/>
   </g>
   <g id="patch_132">
    <path clip-path="url(#p9fd3dd9cf6)" d="M 186.570348 307.584 
L 191.529314 307.584 
L 191.529314 262.326857 
L 186.570348 262.326857 
z
" style="fill:#8b0000;opacity:0.4;stroke:#000000;stroke-linejoin:miter;"/>
   </g>
   <g id="patch_133">
    <path clip-path="url(#p9fd3dd9cf6)" d="M 191.529314 307.584 
L 196.488279 307.584 
L 196.488279 282.898286 
L 191.529314 282.898286 
z
" style="fill:#8b0000;opacity:0.4;stroke:#000000;stroke-linejoin:miter;"/>
   </g>
   <g id="patch_134">
    <path clip-path="url(#p9fd3dd9cf6)" d="M 196.488279 307.584 
L 201.447244 307.584 
L 201.447244 268.909714 
L 196.488279 268.909714 
z
" style="fill:#8b0000;opacity:0.4;stroke:#000000;stroke-linejoin:miter;"/>
   </g>
   <g id="patch_135">
    <path clip-path="url(#p9fd3dd9cf6)" d="M 201.447244 307.584 
L 206.406209 307.584 
L 206.406209 273.024 
L 201.447244 273.024 
z
" style="fill:#8b0000;opacity:0.4;stroke:#000000;stroke-linejoin:miter;"/>
   </g>
   <g id="patch_136">
    <path clip-path="url(#p9fd3dd9cf6)" d="M 206.406209 307.584 
L 211.365174 307.584 
L 211.365174 271.378286 
L 206.406209 271.378286 
z
" style="fill:#8b0000;opacity:0.4;stroke:#000000;stroke-linejoin:miter;"/>
   </g>
   <g id="patch_137">
    <path clip-path="url(#p9fd3dd9cf6)" d="M 211.365174 307.584 
L 216.324139 307.584 
L 216.324139 256.566857 
L 211.365174 256.566857 
z
" style="fill:#8b0000;opacity:0.4;stroke:#000000;stroke-linejoin:miter;"/>
   </g>
   <g id="patch_138">
    <path clip-path="url(#p9fd3dd9cf6)" d="M 216.324139 307.584 
L 221.283105 307.584 
L 221.283105 264.795429 
L 216.324139 264.795429 
z
" style="fill:#8b0000;opacity:0.4;stroke:#000000;stroke-linejoin:miter;"/>
   </g>
   <g id="patch_139">
    <path clip-path="url(#p9fd3dd9cf6)" d="M 221.283105 307.584 
L 226.24207 307.584 
L 226.24207 251.629714 
L 221.283105 251.629714 
z
" style="fill:#8b0000;opacity:0.4;stroke:#000000;stroke-linejoin:miter;"/>
   </g>
   <g id="patch_140">
    <path clip-path="url(#p9fd3dd9cf6)" d="M 226.24207 307.584 
L 231.201035 307.584 
L 231.201035 274.669714 
L 226.24207 274.669714 
z
" style="fill:#8b0000;opacity:0.4;stroke:#000000;stroke-linejoin:miter;"/>
   </g>
   <g id="patch_141">
    <path clip-path="url(#p9fd3dd9cf6)" d="M 231.201035 307.584 
L 236.16 307.584 
L 236.16 244.224 
L 231.201035 244.224 
z
" style="fill:#8b0000;opacity:0.4;stroke:#000000;stroke-linejoin:miter;"/>
   </g>
   <g id="patch_142">
    <path clip-path="url(#p9fd3dd9cf6)" d="M 236.16 307.584 
L 241.118965 307.584 
L 241.118965 251.629714 
L 236.16 251.629714 
z
" style="fill:#8b0000;opacity:0.4;stroke:#000000;stroke-linejoin:miter;"/>
   </g>
   <g id="patch_143">
    <path clip-path="url(#p9fd3dd9cf6)" d="M 241.118965 307.584 
L 246.07793 307.584 
L 246.07793 262.326857 
L 241.118965 262.326857 
z
" style="fill:#8b0000;opacity:0.4;stroke:#000000;stroke-linejoin:miter;"/>
   </g>
   <g id="patch_144">
    <path clip-path="url(#p9fd3dd9cf6)" d="M 246.07793 307.584 
L 251.036895 307.584 
L 251.036895 250.806857 
L 246.07793 250.806857 
z
" style="fill:#8b0000;opacity:0.4;stroke:#000000;stroke-linejoin:miter;"/>
   </g>
   <g id="patch_145">
    <path clip-path="url(#p9fd3dd9cf6)" d="M 251.036895 307.584 
L 255.995861 307.584 
L 255.995861 264.795429 
L 251.036895 264.795429 
z
" style="fill:#8b0000;opacity:0.4;stroke:#000000;stroke-linejoin:miter;"/>
   </g>
   <g id="patch_146">
    <path clip-path="url(#p9fd3dd9cf6)" d="M 255.995861 307.584 
L 260.954826 307.584 
L 260.954826 263.972571 
L 255.995861 263.972571 
z
" style="fill:#8b0000;opacity:0.4;stroke:#000000;stroke-linejoin:miter;"/>
   </g>
   <g id="patch_147">
    <path clip-path="url(#p9fd3dd9cf6)" d="M 260.954826 307.584 
L 265.913791 307.584 
L 265.913791 251.629714 
L 260.954826 251.629714 
z
" style="fill:#8b0000;opacity:0.4;stroke:#000000;stroke-linejoin:miter;"/>
   </g>
   <g id="patch_148">
    <path clip-path="url(#p9fd3dd9cf6)" d="M 265.913791 307.584 
L 270.872756 307.584 
L 270.872756 276.315429 
L 265.913791 276.315429 
z
" style="fill:#8b0000;opacity:0.4;stroke:#000000;stroke-linejoin:miter;"/>
   </g>
   <g id="patch_149">
    <path clip-path="url(#p9fd3dd9cf6)" d="M 270.872756 307.584 
L 275.831721 307.584 
L 275.831721 268.086857 
L 270.872756 268.086857 
z
" style="fill:#8b0000;opacity:0.4;stroke:#000000;stroke-linejoin:miter;"/>
   </g>
   <g id="patch_150">
    <path clip-path="url(#p9fd3dd9cf6)" d="M 275.831721 307.584 
L 280.790686 307.584 
L 280.790686 255.744 
L 275.831721 255.744 
z
" style="fill:#8b0000;opacity:0.4;stroke:#000000;stroke-linejoin:miter;"/>
   </g>
   <g id="patch_151">
    <path clip-path="url(#p9fd3dd9cf6)" d="M 280.790686 307.584 
L 285.749652 307.584 
L 285.749652 270.555429 
L 280.790686 270.555429 
z
" style="fill:#8b0000;opacity:0.4;stroke:#000000;stroke-linejoin:miter;"/>
   </g>
   <g id="patch_152">
    <path clip-path="url(#p9fd3dd9cf6)" d="M 285.749652 307.584 
L 290.708617 307.584 
L 290.708617 266.441143 
L 285.749652 266.441143 
z
" style="fill:#8b0000;opacity:0.4;stroke:#000000;stroke-linejoin:miter;"/>
   </g>
   <g id="patch_153">
    <path clip-path="url(#p9fd3dd9cf6)" d="M 290.708617 307.584 
L 295.667582 307.584 
L 295.667582 254.098286 
L 290.708617 254.098286 
z
" style="fill:#8b0000;opacity:0.4;stroke:#000000;stroke-linejoin:miter;"/>
   </g>
   <g id="patch_154">
    <path clip-path="url(#p9fd3dd9cf6)" d="M 295.667582 307.584 
L 300.626547 307.584 
L 300.626547 263.972571 
L 295.667582 263.972571 
z
" style="fill:#8b0000;opacity:0.4;stroke:#000000;stroke-linejoin:miter;"/>
   </g>
   <g id="patch_155">
    <path clip-path="url(#p9fd3dd9cf6)" d="M 300.626547 307.584 
L 305.585512 307.584 
L 305.585512 266.441143 
L 300.626547 266.441143 
z
" style="fill:#8b0000;opacity:0.4;stroke:#000000;stroke-linejoin:miter;"/>
   </g>
   <g id="patch_156">
    <path clip-path="url(#p9fd3dd9cf6)" d="M 305.585512 307.584 
L 310.544477 307.584 
L 310.544477 275.492571 
L 305.585512 275.492571 
z
" style="fill:#8b0000;opacity:0.4;stroke:#000000;stroke-linejoin:miter;"/>
   </g>
   <g id="patch_157">
    <path clip-path="url(#p9fd3dd9cf6)" d="M 310.544477 307.584 
L 315.503443 307.584 
L 315.503443 267.264 
L 310.544477 267.264 
z
" style="fill:#8b0000;opacity:0.4;stroke:#000000;stroke-linejoin:miter;"/>
   </g>
   <g id="patch_158">
    <path clip-path="url(#p9fd3dd9cf6)" d="M 315.503443 307.584 
L 320.462408 307.584 
L 320.462408 272.201143 
L 315.503443 272.201143 
z
" style="fill:#8b0000;opacity:0.4;stroke:#000000;stroke-linejoin:miter;"/>
   </g>
   <g id="patch_159">
    <path clip-path="url(#p9fd3dd9cf6)" d="M 320.462408 307.584 
L 325.421373 307.584 
L 325.421373 259.035429 
L 320.462408 259.035429 
z
" style="fill:#8b0000;opacity:0.4;stroke:#000000;stroke-linejoin:miter;"/>
   </g>
   <g id="patch_160">
    <path clip-path="url(#p9fd3dd9cf6)" d="M 325.421373 307.584 
L 330.380338 307.584 
L 330.380338 272.201143 
L 325.421373 272.201143 
z
" style="fill:#8b0000;opacity:0.4;stroke:#000000;stroke-linejoin:miter;"/>
   </g>
   <g id="patch_161">
    <path clip-path="url(#p9fd3dd9cf6)" d="M 330.380338 307.584 
L 335.339303 307.584 
L 335.339303 277.138286 
L 330.380338 277.138286 
z
" style="fill:#8b0000;opacity:0.4;stroke:#000000;stroke-linejoin:miter;"/>
   </g>
   <g id="patch_162">
    <path clip-path="url(#p9fd3dd9cf6)" d="M 335.339303 307.584 
L 340.298268 307.584 
L 340.298268 283.721143 
L 335.339303 283.721143 
z
" style="fill:#8b0000;opacity:0.4;stroke:#000000;stroke-linejoin:miter;"/>
   </g>
   <g id="patch_163">
    <path clip-path="url(#p9fd3dd9cf6)" d="M 340.298268 307.584 
L 345.257234 307.584 
L 345.257234 294.418286 
L 340.298268 294.418286 
z
" style="fill:#8b0000;opacity:0.4;stroke:#000000;stroke-linejoin:miter;"/>
   </g>
   <g id="patch_164">
    <path clip-path="url(#p9fd3dd9cf6)" d="M 345.257234 307.584 
L 350.216199 307.584 
L 350.216199 297.709714 
L 345.257234 297.709714 
z
" style="fill:#8b0000;opacity:0.4;stroke:#000000;stroke-linejoin:miter;"/>
   </g>
   <g id="patch_165">
    <path clip-path="url(#p9fd3dd9cf6)" d="M 350.216199 307.584 
L 355.175164 307.584 
L 355.175164 306.761143 
L 350.216199 306.761143 
z
" style="fill:#8b0000;opacity:0.4;stroke:#000000;stroke-linejoin:miter;"/>
   </g>
   <g id="patch_166">
    <path clip-path="url(#p9fd3dd9cf6)" d="M 355.175164 307.584 
L 360.134129 307.584 
L 360.134129 306.761143 
L 355.175164 306.761143 
z
" style="fill:#8b0000;opacity:0.4;stroke:#000000;stroke-linejoin:miter;"/>
   </g>
   <g id="matplotlib.axis_5">
    <g id="xtick_11">
     <g id="line2d_18">
      <g>
       <use style="stroke:#000000;stroke-width:0.8;" x="96.311005" xlink:href="#m207d86f447" y="307.584"/>
      </g>
     </g>
     <g id="text_20">
      <!-- −1.0 -->
      <g transform="translate(84.169599 322.182437)scale(0.1 -0.1)">
       <use xlink:href="#DejaVuSans-8722"/>
       <use x="83.789062" xlink:href="#DejaVuSans-49"/>
       <use x="147.412109" xlink:href="#DejaVuSans-46"/>
       <use x="179.199219" xlink:href="#DejaVuSans-48"/>
      </g>
     </g>
    </g>
    <g id="xtick_12">
     <g id="line2d_19">
      <g>
       <use style="stroke:#000000;stroke-width:0.8;" x="165.762456" xlink:href="#m207d86f447" y="307.584"/>
      </g>
     </g>
     <g id="text_21">
      <!-- −0.5 -->
      <g transform="translate(153.62105 322.182437)scale(0.1 -0.1)">
       <use xlink:href="#DejaVuSans-8722"/>
       <use x="83.789062" xlink:href="#DejaVuSans-48"/>
       <use x="147.412109" xlink:href="#DejaVuSans-46"/>
       <use x="179.199219" xlink:href="#DejaVuSans-53"/>
      </g>
     </g>
    </g>
    <g id="xtick_13">
     <g id="line2d_20">
      <g>
       <use style="stroke:#000000;stroke-width:0.8;" x="235.213907" xlink:href="#m207d86f447" y="307.584"/>
      </g>
     </g>
     <g id="text_22">
      <!-- 0.0 -->
      <g transform="translate(227.262344 322.182437)scale(0.1 -0.1)">
       <use xlink:href="#DejaVuSans-48"/>
       <use x="63.623047" xlink:href="#DejaVuSans-46"/>
       <use x="95.410156" xlink:href="#DejaVuSans-48"/>
      </g>
     </g>
    </g>
    <g id="xtick_14">
     <g id="line2d_21">
      <g>
       <use style="stroke:#000000;stroke-width:0.8;" x="304.665358" xlink:href="#m207d86f447" y="307.584"/>
      </g>
     </g>
     <g id="text_23">
      <!-- 0.5 -->
      <g transform="translate(296.713796 322.182437)scale(0.1 -0.1)">
       <use xlink:href="#DejaVuSans-48"/>
       <use x="63.623047" xlink:href="#DejaVuSans-46"/>
       <use x="95.410156" xlink:href="#DejaVuSans-53"/>
      </g>
     </g>
    </g>
    <g id="xtick_15">
     <g id="line2d_22">
      <g>
       <use style="stroke:#000000;stroke-width:0.8;" x="374.116809" xlink:href="#m207d86f447" y="307.584"/>
      </g>
     </g>
     <g id="text_24">
      <!-- 1.0 -->
      <g transform="translate(366.165247 322.182437)scale(0.1 -0.1)">
       <use xlink:href="#DejaVuSans-49"/>
       <use x="63.623047" xlink:href="#DejaVuSans-46"/>
       <use x="95.410156" xlink:href="#DejaVuSans-48"/>
      </g>
     </g>
    </g>
    <g id="text_25">
     <!-- Position -->
     <defs>
      <path d="M 19.671875 64.796875 
L 19.671875 37.40625 
L 32.078125 37.40625 
Q 38.96875 37.40625 42.71875 40.96875 
Q 46.484375 44.53125 46.484375 51.125 
Q 46.484375 57.671875 42.71875 61.234375 
Q 38.96875 64.796875 32.078125 64.796875 
z
M 9.8125 72.90625 
L 32.078125 72.90625 
Q 44.34375 72.90625 50.609375 67.359375 
Q 56.890625 61.8125 56.890625 51.125 
Q 56.890625 40.328125 50.609375 34.8125 
Q 44.34375 29.296875 32.078125 29.296875 
L 19.671875 29.296875 
L 19.671875 0 
L 9.8125 0 
z
" id="DejaVuSans-80"/>
      <path d="M 30.609375 48.390625 
Q 23.390625 48.390625 19.1875 42.75 
Q 14.984375 37.109375 14.984375 27.296875 
Q 14.984375 17.484375 19.15625 11.84375 
Q 23.34375 6.203125 30.609375 6.203125 
Q 37.796875 6.203125 41.984375 11.859375 
Q 46.1875 17.53125 46.1875 27.296875 
Q 46.1875 37.015625 41.984375 42.703125 
Q 37.796875 48.390625 30.609375 48.390625 
z
M 30.609375 56 
Q 42.328125 56 49.015625 48.375 
Q 55.71875 40.765625 55.71875 27.296875 
Q 55.71875 13.875 49.015625 6.21875 
Q 42.328125 -1.421875 30.609375 -1.421875 
Q 18.84375 -1.421875 12.171875 6.21875 
Q 5.515625 13.875 5.515625 27.296875 
Q 5.515625 40.765625 12.171875 48.375 
Q 18.84375 56 30.609375 56 
z
" id="DejaVuSans-111"/>
     </defs>
     <g transform="translate(216.517031 335.860562)scale(0.1 -0.1)">
      <use xlink:href="#DejaVuSans-80"/>
      <use x="60.255859" xlink:href="#DejaVuSans-111"/>
      <use x="121.4375" xlink:href="#DejaVuSans-115"/>
      <use x="173.537109" xlink:href="#DejaVuSans-105"/>
      <use x="201.320312" xlink:href="#DejaVuSans-116"/>
      <use x="240.529297" xlink:href="#DejaVuSans-105"/>
      <use x="268.3125" xlink:href="#DejaVuSans-111"/>
      <use x="329.494141" xlink:href="#DejaVuSans-110"/>
     </g>
    </g>
   </g>
   <g id="matplotlib.axis_6">
    <g id="ytick_6">
     <g id="line2d_23">
      <g>
       <use style="stroke:#000000;stroke-width:0.8;" x="57.6" xlink:href="#m2fb7039e81" y="307.584"/>
      </g>
     </g>
     <g id="text_26">
      <!-- 0.0 -->
      <g transform="translate(34.696875 311.383219)scale(0.1 -0.1)">
       <use xlink:href="#DejaVuSans-48"/>
       <use x="63.623047" xlink:href="#DejaVuSans-46"/>
       <use x="95.410156" xlink:href="#DejaVuSans-48"/>
      </g>
     </g>
    </g>
    <g id="ytick_7">
     <g id="line2d_24">
      <g>
       <use style="stroke:#000000;stroke-width:0.8;" x="57.6" xlink:href="#m2fb7039e81" y="275.445803"/>
      </g>
     </g>
     <g id="text_27">
      <!-- 0.5 -->
      <g transform="translate(34.696875 279.245022)scale(0.1 -0.1)">
       <use xlink:href="#DejaVuSans-48"/>
       <use x="63.623047" xlink:href="#DejaVuSans-46"/>
       <use x="95.410156" xlink:href="#DejaVuSans-53"/>
      </g>
     </g>
    </g>
    <g id="ytick_8">
     <g id="line2d_25">
      <g>
       <use style="stroke:#000000;stroke-width:0.8;" x="57.6" xlink:href="#m2fb7039e81" y="243.307607"/>
      </g>
     </g>
     <g id="text_28">
      <!-- 1.0 -->
      <g transform="translate(34.696875 247.106826)scale(0.1 -0.1)">
       <use xlink:href="#DejaVuSans-49"/>
       <use x="63.623047" xlink:href="#DejaVuSans-46"/>
       <use x="95.410156" xlink:href="#DejaVuSans-48"/>
      </g>
     </g>
    </g>
    <g id="text_29">
     <!-- Density -->
     <g transform="translate(28.617187 293.328594)rotate(-90)scale(0.1 -0.1)">
      <use xlink:href="#DejaVuSans-68"/>
      <use x="77.001953" xlink:href="#DejaVuSans-101"/>
      <use x="138.525391" xlink:href="#DejaVuSans-110"/>
      <use x="201.904297" xlink:href="#DejaVuSans-115"/>
      <use x="254.003906" xlink:href="#DejaVuSans-105"/>
      <use x="281.787109" xlink:href="#DejaVuSans-116"/>
      <use x="320.996094" xlink:href="#DejaVuSans-121"/>
     </g>
    </g>
   </g>
   <g id="line2d_26">
    <path clip-path="url(#p9fd3dd9cf6)" d="M 73.832727 307.577285 
L 77.112066 307.568499 
L 80.391405 307.550097 
L 83.670744 307.513649 
L 86.950083 307.44532 
L 90.229421 307.323934 
L 93.50876 307.119331 
L 96.788099 306.79166 
L 100.067438 306.292293 
L 103.346777 305.566854 
L 106.626116 304.560424 
L 109.905455 303.224477 
L 113.184793 301.524706 
L 116.464132 299.448829 
L 119.743471 297.013505 
L 123.02281 294.269412 
L 126.302149 291.303058 
L 129.581488 288.233126 
L 132.860826 285.19913 
L 136.140165 282.341583 
L 139.419504 279.776339 
L 142.698843 277.569749 
L 145.978182 275.723666 
L 149.257521 274.177746 
L 152.53686 272.830801 
L 155.816198 271.575307 
L 159.095537 270.333528 
L 162.374876 269.082831 
L 165.654215 267.862248 
L 168.933554 266.759355 
L 172.212893 265.882882 
L 175.492231 265.329659 
L 178.77157 265.154587 
L 182.050909 265.350601 
L 185.330248 265.843239 
L 188.609587 266.5015 
L 191.888926 267.162957 
L 195.168264 267.666943 
L 198.447603 267.886694 
L 201.726942 267.751291 
L 205.006281 267.251746 
L 208.28562 266.431287 
L 211.564959 265.365467 
L 214.844298 264.140746 
L 218.123636 262.839522 
L 221.402975 261.535496 
L 224.682314 260.297703 
L 227.961653 259.196971 
L 231.240992 258.30753 
L 234.520331 257.699585 
L 237.799669 257.424436 
L 241.079008 257.498863 
L 244.358347 257.8968 
L 247.637686 258.553107 
L 250.917025 259.378262 
L 254.196364 260.277793 
L 257.475702 261.168936 
L 260.755041 261.989683 
L 264.03438 262.699996 
L 267.313719 263.278495 
L 270.593058 263.71876 
L 273.872397 264.027691 
L 277.151736 264.225839 
L 280.431074 264.347857 
L 283.710413 264.440719 
L 286.989752 264.558034 
L 290.269091 264.750302 
L 293.54843 265.053149 
L 296.827769 265.47783 
L 300.107107 266.009277 
L 303.386446 266.61537 
L 306.665785 267.26652 
L 309.945124 267.95911 
L 313.224463 268.732813 
L 316.503802 269.67291 
L 319.78314 270.894352 
L 323.062479 272.511949 
L 326.341818 274.606735 
L 329.621157 277.199731 
L 332.900496 280.240916 
L 336.179835 283.615291 
L 339.459174 287.162549 
L 342.738512 290.703814 
L 346.017851 294.068644 
L 349.29719 297.117026 
L 352.576529 299.753327 
L 355.855868 301.93126 
L 359.135207 303.650628 
L 362.414545 304.947915 
L 365.693884 305.883522 
L 368.973223 306.528609 
L 372.252562 306.953957 
L 375.531901 307.222287 
L 378.81124 307.384329 
L 382.090579 307.478054 
L 385.369917 307.529996 
L 388.649256 307.557579 
L 391.928595 307.571609 
L 395.207934 307.578439 
L 398.487273 307.581616 
" style="fill:none;stroke:#8b0000;stroke-linecap:square;stroke-width:4;"/>
   </g>
   <g id="patch_167">
    <path d="M 57.6 307.584 
L 57.6 241.056 
" style="fill:none;stroke:#000000;stroke-linecap:square;stroke-linejoin:miter;stroke-width:0.8;"/>
   </g>
   <g id="patch_168">
    <path d="M 414.72 307.584 
L 414.72 241.056 
" style="fill:none;stroke:#000000;stroke-linecap:square;stroke-linejoin:miter;stroke-width:0.8;"/>
   </g>
   <g id="patch_169">
    <path d="M 57.6 307.584 
L 414.72 307.584 
" style="fill:none;stroke:#000000;stroke-linecap:square;stroke-linejoin:miter;stroke-width:0.8;"/>
   </g>
   <g id="patch_170">
    <path d="M 57.6 241.056 
L 414.72 241.056 
" style="fill:none;stroke:#000000;stroke-linecap:square;stroke-linejoin:miter;stroke-width:0.8;"/>
   </g>
   <g id="legend_3">
    <g id="patch_171">
     <path d="M 370.471563 263.734125 
L 407.72 263.734125 
Q 409.72 263.734125 409.72 261.734125 
L 409.72 248.056 
Q 409.72 246.056 407.72 246.056 
L 370.471563 246.056 
Q 368.471563 246.056 368.471563 248.056 
L 368.471563 261.734125 
Q 368.471563 263.734125 370.471563 263.734125 
z
" style="fill:#ffffff;opacity:0.8;stroke:#cccccc;stroke-linejoin:miter;"/>
    </g>
    <g id="patch_172">
     <path d="M 372.471563 257.654437 
L 392.471563 257.654437 
L 392.471563 250.654437 
L 372.471563 250.654437 
z
" style="fill:#8b0000;opacity:0.4;stroke:#000000;stroke-linejoin:miter;"/>
    </g>
    <g id="text_30">
     <!-- z -->
     <defs>
      <path d="M 5.515625 54.6875 
L 48.1875 54.6875 
L 48.1875 46.484375 
L 14.40625 7.171875 
L 48.1875 7.171875 
L 48.1875 0 
L 4.296875 0 
L 4.296875 8.203125 
L 38.09375 47.515625 
L 5.515625 47.515625 
z
" id="DejaVuSans-122"/>
     </defs>
     <g transform="translate(400.471563 257.654437)scale(0.1 -0.1)">
      <use xlink:href="#DejaVuSans-122"/>
     </g>
    </g>
   </g>
  </g>
  <g id="text_31">
   <!-- Motif 4 Cu 2188 Histogram -->
   <defs>
    <path d="M 9.8125 72.90625 
L 24.515625 72.90625 
L 43.109375 23.296875 
L 61.8125 72.90625 
L 76.515625 72.90625 
L 76.515625 0 
L 66.890625 0 
L 66.890625 64.015625 
L 48.09375 14.015625 
L 38.1875 14.015625 
L 19.390625 64.015625 
L 19.390625 0 
L 9.8125 0 
z
" id="DejaVuSans-77"/>
    <path d="M 37.109375 75.984375 
L 37.109375 68.5 
L 28.515625 68.5 
Q 23.6875 68.5 21.796875 66.546875 
Q 19.921875 64.59375 19.921875 59.515625 
L 19.921875 54.6875 
L 34.71875 54.6875 
L 34.71875 47.703125 
L 19.921875 47.703125 
L 19.921875 0 
L 10.890625 0 
L 10.890625 47.703125 
L 2.296875 47.703125 
L 2.296875 54.6875 
L 10.890625 54.6875 
L 10.890625 58.5 
Q 10.890625 67.625 15.140625 71.796875 
Q 19.390625 75.984375 28.609375 75.984375 
z
" id="DejaVuSans-102"/>
    <path id="DejaVuSans-32"/>
    <path d="M 37.796875 64.3125 
L 12.890625 25.390625 
L 37.796875 25.390625 
z
M 35.203125 72.90625 
L 47.609375 72.90625 
L 47.609375 25.390625 
L 58.015625 25.390625 
L 58.015625 17.1875 
L 47.609375 17.1875 
L 47.609375 0 
L 37.796875 0 
L 37.796875 17.1875 
L 4.890625 17.1875 
L 4.890625 26.703125 
z
" id="DejaVuSans-52"/>
    <path d="M 64.40625 67.28125 
L 64.40625 56.890625 
Q 59.421875 61.53125 53.78125 63.8125 
Q 48.140625 66.109375 41.796875 66.109375 
Q 29.296875 66.109375 22.65625 58.46875 
Q 16.015625 50.828125 16.015625 36.375 
Q 16.015625 21.96875 22.65625 14.328125 
Q 29.296875 6.6875 41.796875 6.6875 
Q 48.140625 6.6875 53.78125 8.984375 
Q 59.421875 11.28125 64.40625 15.921875 
L 64.40625 5.609375 
Q 59.234375 2.09375 53.4375 0.328125 
Q 47.65625 -1.421875 41.21875 -1.421875 
Q 24.65625 -1.421875 15.125 8.703125 
Q 5.609375 18.84375 5.609375 36.375 
Q 5.609375 53.953125 15.125 64.078125 
Q 24.65625 74.21875 41.21875 74.21875 
Q 47.75 74.21875 53.53125 72.484375 
Q 59.328125 70.75 64.40625 67.28125 
z
" id="DejaVuSans-67"/>
    <path d="M 8.5 21.578125 
L 8.5 54.6875 
L 17.484375 54.6875 
L 17.484375 21.921875 
Q 17.484375 14.15625 20.5 10.265625 
Q 23.53125 6.390625 29.59375 6.390625 
Q 36.859375 6.390625 41.078125 11.03125 
Q 45.3125 15.671875 45.3125 23.6875 
L 45.3125 54.6875 
L 54.296875 54.6875 
L 54.296875 0 
L 45.3125 0 
L 45.3125 8.40625 
Q 42.046875 3.421875 37.71875 1 
Q 33.40625 -1.421875 27.6875 -1.421875 
Q 18.265625 -1.421875 13.375 4.4375 
Q 8.5 10.296875 8.5 21.578125 
z
M 31.109375 56 
z
" id="DejaVuSans-117"/>
    <path d="M 19.1875 8.296875 
L 53.609375 8.296875 
L 53.609375 0 
L 7.328125 0 
L 7.328125 8.296875 
Q 12.9375 14.109375 22.625 23.890625 
Q 32.328125 33.6875 34.8125 36.53125 
Q 39.546875 41.84375 41.421875 45.53125 
Q 43.3125 49.21875 43.3125 52.78125 
Q 43.3125 58.59375 39.234375 62.25 
Q 35.15625 65.921875 28.609375 65.921875 
Q 23.96875 65.921875 18.8125 64.3125 
Q 13.671875 62.703125 7.8125 59.421875 
L 7.8125 69.390625 
Q 13.765625 71.78125 18.9375 73 
Q 24.125 74.21875 28.421875 74.21875 
Q 39.75 74.21875 46.484375 68.546875 
Q 53.21875 62.890625 53.21875 53.421875 
Q 53.21875 48.921875 51.53125 44.890625 
Q 49.859375 40.875 45.40625 35.40625 
Q 44.1875 33.984375 37.640625 27.21875 
Q 31.109375 20.453125 19.1875 8.296875 
z
" id="DejaVuSans-50"/>
    <path d="M 31.78125 34.625 
Q 24.75 34.625 20.71875 30.859375 
Q 16.703125 27.09375 16.703125 20.515625 
Q 16.703125 13.921875 20.71875 10.15625 
Q 24.75 6.390625 31.78125 6.390625 
Q 38.8125 6.390625 42.859375 10.171875 
Q 46.921875 13.96875 46.921875 20.515625 
Q 46.921875 27.09375 42.890625 30.859375 
Q 38.875 34.625 31.78125 34.625 
z
M 21.921875 38.8125 
Q 15.578125 40.375 12.03125 44.71875 
Q 8.5 49.078125 8.5 55.328125 
Q 8.5 64.0625 14.71875 69.140625 
Q 20.953125 74.21875 31.78125 74.21875 
Q 42.671875 74.21875 48.875 69.140625 
Q 55.078125 64.0625 55.078125 55.328125 
Q 55.078125 49.078125 51.53125 44.71875 
Q 48 40.375 41.703125 38.8125 
Q 48.828125 37.15625 52.796875 32.3125 
Q 56.78125 27.484375 56.78125 20.515625 
Q 56.78125 9.90625 50.3125 4.234375 
Q 43.84375 -1.421875 31.78125 -1.421875 
Q 19.734375 -1.421875 13.25 4.234375 
Q 6.78125 9.90625 6.78125 20.515625 
Q 6.78125 27.484375 10.78125 32.3125 
Q 14.796875 37.15625 21.921875 38.8125 
z
M 18.3125 54.390625 
Q 18.3125 48.734375 21.84375 45.5625 
Q 25.390625 42.390625 31.78125 42.390625 
Q 38.140625 42.390625 41.71875 45.5625 
Q 45.3125 48.734375 45.3125 54.390625 
Q 45.3125 60.0625 41.71875 63.234375 
Q 38.140625 66.40625 31.78125 66.40625 
Q 25.390625 66.40625 21.84375 63.234375 
Q 18.3125 60.0625 18.3125 54.390625 
z
" id="DejaVuSans-56"/>
    <path d="M 9.8125 72.90625 
L 19.671875 72.90625 
L 19.671875 43.015625 
L 55.515625 43.015625 
L 55.515625 72.90625 
L 65.375 72.90625 
L 65.375 0 
L 55.515625 0 
L 55.515625 34.71875 
L 19.671875 34.71875 
L 19.671875 0 
L 9.8125 0 
z
" id="DejaVuSans-72"/>
    <path d="M 45.40625 27.984375 
Q 45.40625 37.75 41.375 43.109375 
Q 37.359375 48.484375 30.078125 48.484375 
Q 22.859375 48.484375 18.828125 43.109375 
Q 14.796875 37.75 14.796875 27.984375 
Q 14.796875 18.265625 18.828125 12.890625 
Q 22.859375 7.515625 30.078125 7.515625 
Q 37.359375 7.515625 41.375 12.890625 
Q 45.40625 18.265625 45.40625 27.984375 
z
M 54.390625 6.78125 
Q 54.390625 -7.171875 48.1875 -13.984375 
Q 42 -20.796875 29.203125 -20.796875 
Q 24.46875 -20.796875 20.265625 -20.09375 
Q 16.0625 -19.390625 12.109375 -17.921875 
L 12.109375 -9.1875 
Q 16.0625 -11.328125 19.921875 -12.34375 
Q 23.78125 -13.375 27.78125 -13.375 
Q 36.625 -13.375 41.015625 -8.765625 
Q 45.40625 -4.15625 45.40625 5.171875 
L 45.40625 9.625 
Q 42.625 4.78125 38.28125 2.390625 
Q 33.9375 0 27.875 0 
Q 17.828125 0 11.671875 7.65625 
Q 5.515625 15.328125 5.515625 27.984375 
Q 5.515625 40.671875 11.671875 48.328125 
Q 17.828125 56 27.875 56 
Q 33.9375 56 38.28125 53.609375 
Q 42.625 51.21875 45.40625 46.390625 
L 45.40625 54.6875 
L 54.390625 54.6875 
z
" id="DejaVuSans-103"/>
    <path d="M 41.109375 46.296875 
Q 39.59375 47.171875 37.8125 47.578125 
Q 36.03125 48 33.890625 48 
Q 26.265625 48 22.1875 43.046875 
Q 18.109375 38.09375 18.109375 28.8125 
L 18.109375 0 
L 9.078125 0 
L 9.078125 54.6875 
L 18.109375 54.6875 
L 18.109375 46.1875 
Q 20.953125 51.171875 25.484375 53.578125 
Q 30.03125 56 36.53125 56 
Q 37.453125 56 38.578125 55.875 
Q 39.703125 55.765625 41.0625 55.515625 
z
" id="DejaVuSans-114"/>
    <path d="M 34.28125 27.484375 
Q 23.390625 27.484375 19.1875 25 
Q 14.984375 22.515625 14.984375 16.5 
Q 14.984375 11.71875 18.140625 8.90625 
Q 21.296875 6.109375 26.703125 6.109375 
Q 34.1875 6.109375 38.703125 11.40625 
Q 43.21875 16.703125 43.21875 25.484375 
L 43.21875 27.484375 
z
M 52.203125 31.203125 
L 52.203125 0 
L 43.21875 0 
L 43.21875 8.296875 
Q 40.140625 3.328125 35.546875 0.953125 
Q 30.953125 -1.421875 24.3125 -1.421875 
Q 15.921875 -1.421875 10.953125 3.296875 
Q 6 8.015625 6 15.921875 
Q 6 25.140625 12.171875 29.828125 
Q 18.359375 34.515625 30.609375 34.515625 
L 43.21875 34.515625 
L 43.21875 35.40625 
Q 43.21875 41.609375 39.140625 45 
Q 35.0625 48.390625 27.6875 48.390625 
Q 23 48.390625 18.546875 47.265625 
Q 14.109375 46.140625 10.015625 43.890625 
L 10.015625 52.203125 
Q 14.9375 54.109375 19.578125 55.046875 
Q 24.21875 56 28.609375 56 
Q 40.484375 56 46.34375 49.84375 
Q 52.203125 43.703125 52.203125 31.203125 
z
" id="DejaVuSans-97"/>
    <path d="M 52 44.1875 
Q 55.375 50.25 60.0625 53.125 
Q 64.75 56 71.09375 56 
Q 79.640625 56 84.28125 50.015625 
Q 88.921875 44.046875 88.921875 33.015625 
L 88.921875 0 
L 79.890625 0 
L 79.890625 32.71875 
Q 79.890625 40.578125 77.09375 44.375 
Q 74.3125 48.1875 68.609375 48.1875 
Q 61.625 48.1875 57.5625 43.546875 
Q 53.515625 38.921875 53.515625 30.90625 
L 53.515625 0 
L 44.484375 0 
L 44.484375 32.71875 
Q 44.484375 40.625 41.703125 44.40625 
Q 38.921875 48.1875 33.109375 48.1875 
Q 26.21875 48.1875 22.15625 43.53125 
Q 18.109375 38.875 18.109375 30.90625 
L 18.109375 0 
L 9.078125 0 
L 9.078125 54.6875 
L 18.109375 54.6875 
L 18.109375 46.1875 
Q 21.1875 51.21875 25.484375 53.609375 
Q 29.78125 56 35.6875 56 
Q 41.65625 56 45.828125 52.96875 
Q 50 49.953125 52 44.1875 
z
" id="DejaVuSans-109"/>
   </defs>
   <g transform="translate(149.588437 16.030125)scale(0.12 -0.12)">
    <use xlink:href="#DejaVuSans-77"/>
    <use x="86.279297" xlink:href="#DejaVuSans-111"/>
    <use x="147.460938" xlink:href="#DejaVuSans-116"/>
    <use x="186.669922" xlink:href="#DejaVuSans-105"/>
    <use x="214.453125" xlink:href="#DejaVuSans-102"/>
    <use x="249.658203" xlink:href="#DejaVuSans-32"/>
    <use x="281.445312" xlink:href="#DejaVuSans-52"/>
    <use x="345.068359" xlink:href="#DejaVuSans-32"/>
    <use x="376.855469" xlink:href="#DejaVuSans-67"/>
    <use x="446.679688" xlink:href="#DejaVuSans-117"/>
    <use x="510.058594" xlink:href="#DejaVuSans-32"/>
    <use x="541.845703" xlink:href="#DejaVuSans-50"/>
    <use x="605.46875" xlink:href="#DejaVuSans-49"/>
    <use x="669.091797" xlink:href="#DejaVuSans-56"/>
    <use x="732.714844" xlink:href="#DejaVuSans-56"/>
    <use x="796.337891" xlink:href="#DejaVuSans-32"/>
    <use x="828.125" xlink:href="#DejaVuSans-72"/>
    <use x="903.320312" xlink:href="#DejaVuSans-105"/>
    <use x="931.103516" xlink:href="#DejaVuSans-115"/>
    <use x="983.203125" xlink:href="#DejaVuSans-116"/>
    <use x="1022.412109" xlink:href="#DejaVuSans-111"/>
    <use x="1083.59375" xlink:href="#DejaVuSans-103"/>
    <use x="1147.070312" xlink:href="#DejaVuSans-114"/>
    <use x="1188.183594" xlink:href="#DejaVuSans-97"/>
    <use x="1249.462891" xlink:href="#DejaVuSans-109"/>
   </g>
  </g>
 </g>
 <defs>
  <clipPath id="p67068667b2">
   <rect height="66.528" width="357.12" x="57.6" y="41.472"/>
  </clipPath>
  <clipPath id="p46320dd1f1">
   <rect height="66.528" width="357.12" x="57.6" y="141.264"/>
  </clipPath>
  <clipPath id="p9fd3dd9cf6">
   <rect height="66.528" width="357.12" x="57.6" y="241.056"/>
  </clipPath>
 </defs>
</svg>
