<?xml version="1.0" encoding="utf-8" standalone="no"?>
<!DOCTYPE svg PUBLIC "-//W3C//DTD SVG 1.1//EN"
  "http://www.w3.org/Graphics/SVG/1.1/DTD/svg11.dtd">
<!-- Created with matplotlib (https://matplotlib.org/) -->
<svg height="345.6pt" version="1.1" viewBox="0 0 460.8 345.6" width="460.8pt" xmlns="http://www.w3.org/2000/svg" xmlns:xlink="http://www.w3.org/1999/xlink">
 <defs>
  <style type="text/css">
*{stroke-linecap:butt;stroke-linejoin:round;}
  </style>
 </defs>
 <g id="figure_1">
  <g id="patch_1">
   <path d="M 0 345.6 
L 460.8 345.6 
L 460.8 0 
L 0 0 
z
" style="fill:#ffffff;"/>
  </g>
  <g id="axes_1">
   <g id="patch_2">
    <path d="M 57.6 108 
L 414.72 108 
L 414.72 41.472 
L 57.6 41.472 
z
" style="fill:#ffffff;"/>
   </g>
   <g id="patch_3">
    <path clip-path="url(#pb7bcdc6ccf)" d="M 115.803281 108 
L 120.61755 108 
L 120.61755 106.781538 
L 115.803281 106.781538 
z
" style="fill:#00008b;opacity:0.4;stroke:#000000;stroke-linejoin:miter;"/>
   </g>
   <g id="patch_4">
    <path clip-path="url(#pb7bcdc6ccf)" d="M 120.61755 108 
L 125.431819 108 
L 125.431819 105.563077 
L 120.61755 105.563077 
z
" style="fill:#00008b;opacity:0.4;stroke:#000000;stroke-linejoin:miter;"/>
   </g>
   <g id="patch_5">
    <path clip-path="url(#pb7bcdc6ccf)" d="M 125.431819 108 
L 130.246087 108 
L 130.246087 94.596923 
L 125.431819 94.596923 
z
" style="fill:#00008b;opacity:0.4;stroke:#000000;stroke-linejoin:miter;"/>
   </g>
   <g id="patch_6">
    <path clip-path="url(#pb7bcdc6ccf)" d="M 130.246087 108 
L 135.060356 108 
L 135.060356 86.067692 
L 130.246087 86.067692 
z
" style="fill:#00008b;opacity:0.4;stroke:#000000;stroke-linejoin:miter;"/>
   </g>
   <g id="patch_7">
    <path clip-path="url(#pb7bcdc6ccf)" d="M 135.060356 108 
L 139.874625 108 
L 139.874625 90.941538 
L 135.060356 90.941538 
z
" style="fill:#00008b;opacity:0.4;stroke:#000000;stroke-linejoin:miter;"/>
   </g>
   <g id="patch_8">
    <path clip-path="url(#pb7bcdc6ccf)" d="M 139.874625 108 
L 144.688894 108 
L 144.688894 55.606154 
L 139.874625 55.606154 
z
" style="fill:#00008b;opacity:0.4;stroke:#000000;stroke-linejoin:miter;"/>
   </g>
   <g id="patch_9">
    <path clip-path="url(#pb7bcdc6ccf)" d="M 144.688894 108 
L 149.503162 108 
L 149.503162 73.883077 
L 144.688894 73.883077 
z
" style="fill:#00008b;opacity:0.4;stroke:#000000;stroke-linejoin:miter;"/>
   </g>
   <g id="patch_10">
    <path clip-path="url(#pb7bcdc6ccf)" d="M 149.503162 108 
L 154.317431 108 
L 154.317431 81.193846 
L 149.503162 81.193846 
z
" style="fill:#00008b;opacity:0.4;stroke:#000000;stroke-linejoin:miter;"/>
   </g>
   <g id="patch_11">
    <path clip-path="url(#pb7bcdc6ccf)" d="M 154.317431 108 
L 159.1317 108 
L 159.1317 77.538462 
L 154.317431 77.538462 
z
" style="fill:#00008b;opacity:0.4;stroke:#000000;stroke-linejoin:miter;"/>
   </g>
   <g id="patch_12">
    <path clip-path="url(#pb7bcdc6ccf)" d="M 159.1317 108 
L 163.945969 108 
L 163.945969 69.009231 
L 159.1317 69.009231 
z
" style="fill:#00008b;opacity:0.4;stroke:#000000;stroke-linejoin:miter;"/>
   </g>
   <g id="patch_13">
    <path clip-path="url(#pb7bcdc6ccf)" d="M 163.945969 108 
L 168.760237 108 
L 168.760237 55.606154 
L 163.945969 55.606154 
z
" style="fill:#00008b;opacity:0.4;stroke:#000000;stroke-linejoin:miter;"/>
   </g>
   <g id="patch_14">
    <path clip-path="url(#pb7bcdc6ccf)" d="M 168.760237 108 
L 173.574506 108 
L 173.574506 50.732308 
L 168.760237 50.732308 
z
" style="fill:#00008b;opacity:0.4;stroke:#000000;stroke-linejoin:miter;"/>
   </g>
   <g id="patch_15">
    <path clip-path="url(#pb7bcdc6ccf)" d="M 173.574506 108 
L 178.388775 108 
L 178.388775 71.446154 
L 173.574506 71.446154 
z
" style="fill:#00008b;opacity:0.4;stroke:#000000;stroke-linejoin:miter;"/>
   </g>
   <g id="patch_16">
    <path clip-path="url(#pb7bcdc6ccf)" d="M 178.388775 108 
L 183.203044 108 
L 183.203044 44.64 
L 178.388775 44.64 
z
" style="fill:#00008b;opacity:0.4;stroke:#000000;stroke-linejoin:miter;"/>
   </g>
   <g id="patch_17">
    <path clip-path="url(#pb7bcdc6ccf)" d="M 183.203044 108 
L 188.017312 108 
L 188.017312 66.572308 
L 183.203044 66.572308 
z
" style="fill:#00008b;opacity:0.4;stroke:#000000;stroke-linejoin:miter;"/>
   </g>
   <g id="patch_18">
    <path clip-path="url(#pb7bcdc6ccf)" d="M 188.017312 108 
L 192.831581 108 
L 192.831581 60.48 
L 188.017312 60.48 
z
" style="fill:#00008b;opacity:0.4;stroke:#000000;stroke-linejoin:miter;"/>
   </g>
   <g id="patch_19">
    <path clip-path="url(#pb7bcdc6ccf)" d="M 192.831581 108 
L 197.64585 108 
L 197.64585 77.538462 
L 192.831581 77.538462 
z
" style="fill:#00008b;opacity:0.4;stroke:#000000;stroke-linejoin:miter;"/>
   </g>
   <g id="patch_20">
    <path clip-path="url(#pb7bcdc6ccf)" d="M 197.64585 108 
L 202.460119 108 
L 202.460119 64.135385 
L 197.64585 64.135385 
z
" style="fill:#00008b;opacity:0.4;stroke:#000000;stroke-linejoin:miter;"/>
   </g>
   <g id="patch_21">
    <path clip-path="url(#pb7bcdc6ccf)" d="M 202.460119 108 
L 207.274387 108 
L 207.274387 61.698462 
L 202.460119 61.698462 
z
" style="fill:#00008b;opacity:0.4;stroke:#000000;stroke-linejoin:miter;"/>
   </g>
   <g id="patch_22">
    <path clip-path="url(#pb7bcdc6ccf)" d="M 207.274387 108 
L 212.088656 108 
L 212.088656 50.732308 
L 207.274387 50.732308 
z
" style="fill:#00008b;opacity:0.4;stroke:#000000;stroke-linejoin:miter;"/>
   </g>
   <g id="patch_23">
    <path clip-path="url(#pb7bcdc6ccf)" d="M 212.088656 108 
L 216.902925 108 
L 216.902925 60.48 
L 212.088656 60.48 
z
" style="fill:#00008b;opacity:0.4;stroke:#000000;stroke-linejoin:miter;"/>
   </g>
   <g id="patch_24">
    <path clip-path="url(#pb7bcdc6ccf)" d="M 216.902925 108 
L 221.717194 108 
L 221.717194 61.698462 
L 216.902925 61.698462 
z
" style="fill:#00008b;opacity:0.4;stroke:#000000;stroke-linejoin:miter;"/>
   </g>
   <g id="patch_25">
    <path clip-path="url(#pb7bcdc6ccf)" d="M 221.717194 108 
L 226.531462 108 
L 226.531462 75.101538 
L 221.717194 75.101538 
z
" style="fill:#00008b;opacity:0.4;stroke:#000000;stroke-linejoin:miter;"/>
   </g>
   <g id="patch_26">
    <path clip-path="url(#pb7bcdc6ccf)" d="M 226.531462 108 
L 231.345731 108 
L 231.345731 86.067692 
L 226.531462 86.067692 
z
" style="fill:#00008b;opacity:0.4;stroke:#000000;stroke-linejoin:miter;"/>
   </g>
   <g id="patch_27">
    <path clip-path="url(#pb7bcdc6ccf)" d="M 231.345731 108 
L 236.16 108 
L 236.16 62.916923 
L 231.345731 62.916923 
z
" style="fill:#00008b;opacity:0.4;stroke:#000000;stroke-linejoin:miter;"/>
   </g>
   <g id="patch_28">
    <path clip-path="url(#pb7bcdc6ccf)" d="M 236.16 108 
L 240.974269 108 
L 240.974269 72.664615 
L 236.16 72.664615 
z
" style="fill:#00008b;opacity:0.4;stroke:#000000;stroke-linejoin:miter;"/>
   </g>
   <g id="patch_29">
    <path clip-path="url(#pb7bcdc6ccf)" d="M 240.974269 108 
L 245.788538 108 
L 245.788538 65.353846 
L 240.974269 65.353846 
z
" style="fill:#00008b;opacity:0.4;stroke:#000000;stroke-linejoin:miter;"/>
   </g>
   <g id="patch_30">
    <path clip-path="url(#pb7bcdc6ccf)" d="M 245.788538 108 
L 250.602806 108 
L 250.602806 77.538462 
L 245.788538 77.538462 
z
" style="fill:#00008b;opacity:0.4;stroke:#000000;stroke-linejoin:miter;"/>
   </g>
   <g id="patch_31">
    <path clip-path="url(#pb7bcdc6ccf)" d="M 250.602806 108 
L 255.417075 108 
L 255.417075 67.790769 
L 250.602806 67.790769 
z
" style="fill:#00008b;opacity:0.4;stroke:#000000;stroke-linejoin:miter;"/>
   </g>
   <g id="patch_32">
    <path clip-path="url(#pb7bcdc6ccf)" d="M 255.417075 108 
L 260.231344 108 
L 260.231344 62.916923 
L 255.417075 62.916923 
z
" style="fill:#00008b;opacity:0.4;stroke:#000000;stroke-linejoin:miter;"/>
   </g>
   <g id="patch_33">
    <path clip-path="url(#pb7bcdc6ccf)" d="M 260.231344 108 
L 265.045613 108 
L 265.045613 51.950769 
L 260.231344 51.950769 
z
" style="fill:#00008b;opacity:0.4;stroke:#000000;stroke-linejoin:miter;"/>
   </g>
   <g id="patch_34">
    <path clip-path="url(#pb7bcdc6ccf)" d="M 265.045613 108 
L 269.859881 108 
L 269.859881 56.824615 
L 265.045613 56.824615 
z
" style="fill:#00008b;opacity:0.4;stroke:#000000;stroke-linejoin:miter;"/>
   </g>
   <g id="patch_35">
    <path clip-path="url(#pb7bcdc6ccf)" d="M 269.859881 108 
L 274.67415 108 
L 274.67415 61.698462 
L 269.859881 61.698462 
z
" style="fill:#00008b;opacity:0.4;stroke:#000000;stroke-linejoin:miter;"/>
   </g>
   <g id="patch_36">
    <path clip-path="url(#pb7bcdc6ccf)" d="M 274.67415 108 
L 279.488419 108 
L 279.488419 71.446154 
L 274.67415 71.446154 
z
" style="fill:#00008b;opacity:0.4;stroke:#000000;stroke-linejoin:miter;"/>
   </g>
   <g id="patch_37">
    <path clip-path="url(#pb7bcdc6ccf)" d="M 279.488419 108 
L 284.302688 108 
L 284.302688 59.261538 
L 279.488419 59.261538 
z
" style="fill:#00008b;opacity:0.4;stroke:#000000;stroke-linejoin:miter;"/>
   </g>
   <g id="patch_38">
    <path clip-path="url(#pb7bcdc6ccf)" d="M 284.302688 108 
L 289.116956 108 
L 289.116956 70.227692 
L 284.302688 70.227692 
z
" style="fill:#00008b;opacity:0.4;stroke:#000000;stroke-linejoin:miter;"/>
   </g>
   <g id="patch_39">
    <path clip-path="url(#pb7bcdc6ccf)" d="M 289.116956 108 
L 293.931225 108 
L 293.931225 61.698462 
L 289.116956 61.698462 
z
" style="fill:#00008b;opacity:0.4;stroke:#000000;stroke-linejoin:miter;"/>
   </g>
   <g id="patch_40">
    <path clip-path="url(#pb7bcdc6ccf)" d="M 293.931225 108 
L 298.745494 108 
L 298.745494 75.101538 
L 293.931225 75.101538 
z
" style="fill:#00008b;opacity:0.4;stroke:#000000;stroke-linejoin:miter;"/>
   </g>
   <g id="patch_41">
    <path clip-path="url(#pb7bcdc6ccf)" d="M 298.745494 108 
L 303.559763 108 
L 303.559763 72.664615 
L 298.745494 72.664615 
z
" style="fill:#00008b;opacity:0.4;stroke:#000000;stroke-linejoin:miter;"/>
   </g>
   <g id="patch_42">
    <path clip-path="url(#pb7bcdc6ccf)" d="M 303.559763 108 
L 308.374031 108 
L 308.374031 60.48 
L 303.559763 60.48 
z
" style="fill:#00008b;opacity:0.4;stroke:#000000;stroke-linejoin:miter;"/>
   </g>
   <g id="patch_43">
    <path clip-path="url(#pb7bcdc6ccf)" d="M 308.374031 108 
L 313.1883 108 
L 313.1883 58.043077 
L 308.374031 58.043077 
z
" style="fill:#00008b;opacity:0.4;stroke:#000000;stroke-linejoin:miter;"/>
   </g>
   <g id="patch_44">
    <path clip-path="url(#pb7bcdc6ccf)" d="M 313.1883 108 
L 318.002569 108 
L 318.002569 62.916923 
L 313.1883 62.916923 
z
" style="fill:#00008b;opacity:0.4;stroke:#000000;stroke-linejoin:miter;"/>
   </g>
   <g id="patch_45">
    <path clip-path="url(#pb7bcdc6ccf)" d="M 318.002569 108 
L 322.816838 108 
L 322.816838 51.950769 
L 318.002569 51.950769 
z
" style="fill:#00008b;opacity:0.4;stroke:#000000;stroke-linejoin:miter;"/>
   </g>
   <g id="patch_46">
    <path clip-path="url(#pb7bcdc6ccf)" d="M 322.816838 108 
L 327.631106 108 
L 327.631106 82.412308 
L 322.816838 82.412308 
z
" style="fill:#00008b;opacity:0.4;stroke:#000000;stroke-linejoin:miter;"/>
   </g>
   <g id="patch_47">
    <path clip-path="url(#pb7bcdc6ccf)" d="M 327.631106 108 
L 332.445375 108 
L 332.445375 78.756923 
L 327.631106 78.756923 
z
" style="fill:#00008b;opacity:0.4;stroke:#000000;stroke-linejoin:miter;"/>
   </g>
   <g id="patch_48">
    <path clip-path="url(#pb7bcdc6ccf)" d="M 332.445375 108 
L 337.259644 108 
L 337.259644 87.286154 
L 332.445375 87.286154 
z
" style="fill:#00008b;opacity:0.4;stroke:#000000;stroke-linejoin:miter;"/>
   </g>
   <g id="patch_49">
    <path clip-path="url(#pb7bcdc6ccf)" d="M 337.259644 108 
L 342.073913 108 
L 342.073913 73.883077 
L 337.259644 73.883077 
z
" style="fill:#00008b;opacity:0.4;stroke:#000000;stroke-linejoin:miter;"/>
   </g>
   <g id="patch_50">
    <path clip-path="url(#pb7bcdc6ccf)" d="M 342.073913 108 
L 346.888181 108 
L 346.888181 84.849231 
L 342.073913 84.849231 
z
" style="fill:#00008b;opacity:0.4;stroke:#000000;stroke-linejoin:miter;"/>
   </g>
   <g id="patch_51">
    <path clip-path="url(#pb7bcdc6ccf)" d="M 346.888181 108 
L 351.70245 108 
L 351.70245 99.470769 
L 346.888181 99.470769 
z
" style="fill:#00008b;opacity:0.4;stroke:#000000;stroke-linejoin:miter;"/>
   </g>
   <g id="patch_52">
    <path clip-path="url(#pb7bcdc6ccf)" d="M 351.70245 108 
L 356.516719 108 
L 356.516719 101.907692 
L 351.70245 101.907692 
z
" style="fill:#00008b;opacity:0.4;stroke:#000000;stroke-linejoin:miter;"/>
   </g>
   <g id="matplotlib.axis_1">
    <g id="xtick_1">
     <g id="line2d_1">
      <defs>
       <path d="M 0 0 
L 0 3.5 
" id="me73e264e75" style="stroke:#000000;stroke-width:0.8;"/>
      </defs>
      <g>
       <use style="stroke:#000000;stroke-width:0.8;" x="92.673312" xlink:href="#me73e264e75" y="108"/>
      </g>
     </g>
     <g id="text_1">
      <!-- −1.0 -->
      <defs>
       <path d="M 10.59375 35.5 
L 73.1875 35.5 
L 73.1875 27.203125 
L 10.59375 27.203125 
z
" id="DejaVuSans-8722"/>
       <path d="M 12.40625 8.296875 
L 28.515625 8.296875 
L 28.515625 63.921875 
L 10.984375 60.40625 
L 10.984375 69.390625 
L 28.421875 72.90625 
L 38.28125 72.90625 
L 38.28125 8.296875 
L 54.390625 8.296875 
L 54.390625 0 
L 12.40625 0 
z
" id="DejaVuSans-49"/>
       <path d="M 10.6875 12.40625 
L 21 12.40625 
L 21 0 
L 10.6875 0 
z
" id="DejaVuSans-46"/>
       <path d="M 31.78125 66.40625 
Q 24.171875 66.40625 20.328125 58.90625 
Q 16.5 51.421875 16.5 36.375 
Q 16.5 21.390625 20.328125 13.890625 
Q 24.171875 6.390625 31.78125 6.390625 
Q 39.453125 6.390625 43.28125 13.890625 
Q 47.125 21.390625 47.125 36.375 
Q 47.125 51.421875 43.28125 58.90625 
Q 39.453125 66.40625 31.78125 66.40625 
z
M 31.78125 74.21875 
Q 44.046875 74.21875 50.515625 64.515625 
Q 56.984375 54.828125 56.984375 36.375 
Q 56.984375 17.96875 50.515625 8.265625 
Q 44.046875 -1.421875 31.78125 -1.421875 
Q 19.53125 -1.421875 13.0625 8.265625 
Q 6.59375 17.96875 6.59375 36.375 
Q 6.59375 54.828125 13.0625 64.515625 
Q 19.53125 74.21875 31.78125 74.21875 
z
" id="DejaVuSans-48"/>
      </defs>
      <g transform="translate(80.531906 122.598437)scale(0.1 -0.1)">
       <use xlink:href="#DejaVuSans-8722"/>
       <use x="83.789062" xlink:href="#DejaVuSans-49"/>
       <use x="147.412109" xlink:href="#DejaVuSans-46"/>
       <use x="179.199219" xlink:href="#DejaVuSans-48"/>
      </g>
     </g>
    </g>
    <g id="xtick_2">
     <g id="line2d_2">
      <g>
       <use style="stroke:#000000;stroke-width:0.8;" x="165.746624" xlink:href="#me73e264e75" y="108"/>
      </g>
     </g>
     <g id="text_2">
      <!-- −0.5 -->
      <defs>
       <path d="M 10.796875 72.90625 
L 49.515625 72.90625 
L 49.515625 64.59375 
L 19.828125 64.59375 
L 19.828125 46.734375 
Q 21.96875 47.46875 24.109375 47.828125 
Q 26.265625 48.1875 28.421875 48.1875 
Q 40.625 48.1875 47.75 41.5 
Q 54.890625 34.8125 54.890625 23.390625 
Q 54.890625 11.625 47.5625 5.09375 
Q 40.234375 -1.421875 26.90625 -1.421875 
Q 22.3125 -1.421875 17.546875 -0.640625 
Q 12.796875 0.140625 7.71875 1.703125 
L 7.71875 11.625 
Q 12.109375 9.234375 16.796875 8.0625 
Q 21.484375 6.890625 26.703125 6.890625 
Q 35.15625 6.890625 40.078125 11.328125 
Q 45.015625 15.765625 45.015625 23.390625 
Q 45.015625 31 40.078125 35.4375 
Q 35.15625 39.890625 26.703125 39.890625 
Q 22.75 39.890625 18.8125 39.015625 
Q 14.890625 38.140625 10.796875 36.28125 
z
" id="DejaVuSans-53"/>
      </defs>
      <g transform="translate(153.605217 122.598437)scale(0.1 -0.1)">
       <use xlink:href="#DejaVuSans-8722"/>
       <use x="83.789062" xlink:href="#DejaVuSans-48"/>
       <use x="147.412109" xlink:href="#DejaVuSans-46"/>
       <use x="179.199219" xlink:href="#DejaVuSans-53"/>
      </g>
     </g>
    </g>
    <g id="xtick_3">
     <g id="line2d_3">
      <g>
       <use style="stroke:#000000;stroke-width:0.8;" x="238.819935" xlink:href="#me73e264e75" y="108"/>
      </g>
     </g>
     <g id="text_3">
      <!-- 0.0 -->
      <g transform="translate(230.868373 122.598437)scale(0.1 -0.1)">
       <use xlink:href="#DejaVuSans-48"/>
       <use x="63.623047" xlink:href="#DejaVuSans-46"/>
       <use x="95.410156" xlink:href="#DejaVuSans-48"/>
      </g>
     </g>
    </g>
    <g id="xtick_4">
     <g id="line2d_4">
      <g>
       <use style="stroke:#000000;stroke-width:0.8;" x="311.893247" xlink:href="#me73e264e75" y="108"/>
      </g>
     </g>
     <g id="text_4">
      <!-- 0.5 -->
      <g transform="translate(303.941684 122.598437)scale(0.1 -0.1)">
       <use xlink:href="#DejaVuSans-48"/>
       <use x="63.623047" xlink:href="#DejaVuSans-46"/>
       <use x="95.410156" xlink:href="#DejaVuSans-53"/>
      </g>
     </g>
    </g>
    <g id="xtick_5">
     <g id="line2d_5">
      <g>
       <use style="stroke:#000000;stroke-width:0.8;" x="384.966558" xlink:href="#me73e264e75" y="108"/>
      </g>
     </g>
     <g id="text_5">
      <!-- 1.0 -->
      <g transform="translate(377.014996 122.598437)scale(0.1 -0.1)">
       <use xlink:href="#DejaVuSans-49"/>
       <use x="63.623047" xlink:href="#DejaVuSans-46"/>
       <use x="95.410156" xlink:href="#DejaVuSans-48"/>
      </g>
     </g>
    </g>
   </g>
   <g id="matplotlib.axis_2">
    <g id="ytick_1">
     <g id="line2d_6">
      <defs>
       <path d="M 0 0 
L -3.5 0 
" id="m5d0e0e1023" style="stroke:#000000;stroke-width:0.8;"/>
      </defs>
      <g>
       <use style="stroke:#000000;stroke-width:0.8;" x="57.6" xlink:href="#m5d0e0e1023" y="108"/>
      </g>
     </g>
     <g id="text_6">
      <!-- 0.0 -->
      <g transform="translate(34.696875 111.799219)scale(0.1 -0.1)">
       <use xlink:href="#DejaVuSans-48"/>
       <use x="63.623047" xlink:href="#DejaVuSans-46"/>
       <use x="95.410156" xlink:href="#DejaVuSans-48"/>
      </g>
     </g>
    </g>
    <g id="ytick_2">
     <g id="line2d_7">
      <g>
       <use style="stroke:#000000;stroke-width:0.8;" x="57.6" xlink:href="#m5d0e0e1023" y="77.695975"/>
      </g>
     </g>
     <g id="text_7">
      <!-- 0.5 -->
      <g transform="translate(34.696875 81.495193)scale(0.1 -0.1)">
       <use xlink:href="#DejaVuSans-48"/>
       <use x="63.623047" xlink:href="#DejaVuSans-46"/>
       <use x="95.410156" xlink:href="#DejaVuSans-53"/>
      </g>
     </g>
    </g>
    <g id="ytick_3">
     <g id="line2d_8">
      <g>
       <use style="stroke:#000000;stroke-width:0.8;" x="57.6" xlink:href="#m5d0e0e1023" y="47.391949"/>
      </g>
     </g>
     <g id="text_8">
      <!-- 1.0 -->
      <g transform="translate(34.696875 51.191168)scale(0.1 -0.1)">
       <use xlink:href="#DejaVuSans-49"/>
       <use x="63.623047" xlink:href="#DejaVuSans-46"/>
       <use x="95.410156" xlink:href="#DejaVuSans-48"/>
      </g>
     </g>
    </g>
    <g id="text_9">
     <!-- Density -->
     <defs>
      <path d="M 19.671875 64.796875 
L 19.671875 8.109375 
L 31.59375 8.109375 
Q 46.6875 8.109375 53.6875 14.9375 
Q 60.6875 21.78125 60.6875 36.53125 
Q 60.6875 51.171875 53.6875 57.984375 
Q 46.6875 64.796875 31.59375 64.796875 
z
M 9.8125 72.90625 
L 30.078125 72.90625 
Q 51.265625 72.90625 61.171875 64.09375 
Q 71.09375 55.28125 71.09375 36.53125 
Q 71.09375 17.671875 61.125 8.828125 
Q 51.171875 0 30.078125 0 
L 9.8125 0 
z
" id="DejaVuSans-68"/>
      <path d="M 56.203125 29.59375 
L 56.203125 25.203125 
L 14.890625 25.203125 
Q 15.484375 15.921875 20.484375 11.0625 
Q 25.484375 6.203125 34.421875 6.203125 
Q 39.59375 6.203125 44.453125 7.46875 
Q 49.3125 8.734375 54.109375 11.28125 
L 54.109375 2.78125 
Q 49.265625 0.734375 44.1875 -0.34375 
Q 39.109375 -1.421875 33.890625 -1.421875 
Q 20.796875 -1.421875 13.15625 6.1875 
Q 5.515625 13.8125 5.515625 26.8125 
Q 5.515625 40.234375 12.765625 48.109375 
Q 20.015625 56 32.328125 56 
Q 43.359375 56 49.78125 48.890625 
Q 56.203125 41.796875 56.203125 29.59375 
z
M 47.21875 32.234375 
Q 47.125 39.59375 43.09375 43.984375 
Q 39.0625 48.390625 32.421875 48.390625 
Q 24.90625 48.390625 20.390625 44.140625 
Q 15.875 39.890625 15.1875 32.171875 
z
" id="DejaVuSans-101"/>
      <path d="M 54.890625 33.015625 
L 54.890625 0 
L 45.90625 0 
L 45.90625 32.71875 
Q 45.90625 40.484375 42.875 44.328125 
Q 39.84375 48.1875 33.796875 48.1875 
Q 26.515625 48.1875 22.3125 43.546875 
Q 18.109375 38.921875 18.109375 30.90625 
L 18.109375 0 
L 9.078125 0 
L 9.078125 54.6875 
L 18.109375 54.6875 
L 18.109375 46.1875 
Q 21.34375 51.125 25.703125 53.5625 
Q 30.078125 56 35.796875 56 
Q 45.21875 56 50.046875 50.171875 
Q 54.890625 44.34375 54.890625 33.015625 
z
" id="DejaVuSans-110"/>
      <path d="M 44.28125 53.078125 
L 44.28125 44.578125 
Q 40.484375 46.53125 36.375 47.5 
Q 32.28125 48.484375 27.875 48.484375 
Q 21.1875 48.484375 17.84375 46.4375 
Q 14.5 44.390625 14.5 40.28125 
Q 14.5 37.15625 16.890625 35.375 
Q 19.28125 33.59375 26.515625 31.984375 
L 29.59375 31.296875 
Q 39.15625 29.25 43.1875 25.515625 
Q 47.21875 21.78125 47.21875 15.09375 
Q 47.21875 7.46875 41.1875 3.015625 
Q 35.15625 -1.421875 24.609375 -1.421875 
Q 20.21875 -1.421875 15.453125 -0.5625 
Q 10.6875 0.296875 5.421875 2 
L 5.421875 11.28125 
Q 10.40625 8.6875 15.234375 7.390625 
Q 20.0625 6.109375 24.8125 6.109375 
Q 31.15625 6.109375 34.5625 8.28125 
Q 37.984375 10.453125 37.984375 14.40625 
Q 37.984375 18.0625 35.515625 20.015625 
Q 33.0625 21.96875 24.703125 23.78125 
L 21.578125 24.515625 
Q 13.234375 26.265625 9.515625 29.90625 
Q 5.8125 33.546875 5.8125 39.890625 
Q 5.8125 47.609375 11.28125 51.796875 
Q 16.75 56 26.8125 56 
Q 31.78125 56 36.171875 55.265625 
Q 40.578125 54.546875 44.28125 53.078125 
z
" id="DejaVuSans-115"/>
      <path d="M 9.421875 54.6875 
L 18.40625 54.6875 
L 18.40625 0 
L 9.421875 0 
z
M 9.421875 75.984375 
L 18.40625 75.984375 
L 18.40625 64.59375 
L 9.421875 64.59375 
z
" id="DejaVuSans-105"/>
      <path d="M 18.3125 70.21875 
L 18.3125 54.6875 
L 36.8125 54.6875 
L 36.8125 47.703125 
L 18.3125 47.703125 
L 18.3125 18.015625 
Q 18.3125 11.328125 20.140625 9.421875 
Q 21.96875 7.515625 27.59375 7.515625 
L 36.8125 7.515625 
L 36.8125 0 
L 27.59375 0 
Q 17.1875 0 13.234375 3.875 
Q 9.28125 7.765625 9.28125 18.015625 
L 9.28125 47.703125 
L 2.6875 47.703125 
L 2.6875 54.6875 
L 9.28125 54.6875 
L 9.28125 70.21875 
z
" id="DejaVuSans-116"/>
      <path d="M 32.171875 -5.078125 
Q 28.375 -14.84375 24.75 -17.8125 
Q 21.140625 -20.796875 15.09375 -20.796875 
L 7.90625 -20.796875 
L 7.90625 -13.28125 
L 13.1875 -13.28125 
Q 16.890625 -13.28125 18.9375 -11.515625 
Q 21 -9.765625 23.484375 -3.21875 
L 25.09375 0.875 
L 2.984375 54.6875 
L 12.5 54.6875 
L 29.59375 11.921875 
L 46.6875 54.6875 
L 56.203125 54.6875 
z
" id="DejaVuSans-121"/>
     </defs>
     <g transform="translate(28.617187 93.744594)rotate(-90)scale(0.1 -0.1)">
      <use xlink:href="#DejaVuSans-68"/>
      <use x="77.001953" xlink:href="#DejaVuSans-101"/>
      <use x="138.525391" xlink:href="#DejaVuSans-110"/>
      <use x="201.904297" xlink:href="#DejaVuSans-115"/>
      <use x="254.003906" xlink:href="#DejaVuSans-105"/>
      <use x="281.787109" xlink:href="#DejaVuSans-116"/>
      <use x="320.996094" xlink:href="#DejaVuSans-121"/>
     </g>
    </g>
   </g>
   <g id="line2d_9">
    <path clip-path="url(#pb7bcdc6ccf)" d="M 73.832727 107.995764 
L 77.112066 107.990652 
L 80.391405 107.9802 
L 83.670744 107.959725 
L 86.950083 107.921268 
L 90.229421 107.85201 
L 93.50876 107.732393 
L 96.788099 107.534266 
L 100.067438 107.219572 
L 103.346777 106.74029 
L 106.626116 106.040463 
L 109.905455 105.060932 
L 113.184793 103.74696 
L 116.464132 102.058119 
L 119.743471 99.978884 
L 123.02281 97.527472 
L 126.302149 94.760067 
L 129.581488 91.767904 
L 132.860826 88.666107 
L 136.140165 85.575538 
L 139.419504 82.601571 
L 142.698843 79.815739 
L 145.978182 77.246306 
L 149.257521 74.881581 
L 152.53686 72.685518 
L 155.816198 70.62055 
L 159.095537 68.669605 
L 162.374876 66.849352 
L 165.654215 65.209945 
L 168.933554 63.821469 
L 172.212893 62.75192 
L 175.492231 62.044145 
L 178.77157 61.699169 
L 182.050909 61.671081 
L 185.330248 61.875203 
L 188.609587 62.20757 
L 191.888926 62.570525 
L 195.168264 62.897258 
L 198.447603 63.167831 
L 201.726942 63.411271 
L 205.006281 63.692267 
L 208.28562 64.086042 
L 211.564959 64.649219 
L 214.844298 65.396201 
L 218.123636 66.288851 
L 221.402975 67.24246 
L 224.682314 68.145195 
L 227.961653 68.883696 
L 231.240992 69.36627 
L 234.520331 69.537436 
L 237.799669 69.382097 
L 241.079008 68.921816 
L 244.358347 68.207671 
L 247.637686 67.313166 
L 250.917025 66.327976 
L 254.196364 65.35088 
L 257.475702 64.479868 
L 260.755041 63.799241 
L 264.03438 63.366265 
L 267.313719 63.20165 
L 270.593058 63.287471 
L 273.872397 63.57349 
L 277.151736 63.989592 
L 280.431074 64.460095 
L 283.710413 64.916027 
L 286.989752 65.303502 
L 290.269091 65.588793 
L 293.54843 65.761878 
L 296.827769 65.83968 
L 300.107107 65.868337 
L 303.386446 65.922186 
L 306.665785 66.096917 
L 309.945124 66.496083 
L 313.224463 67.213123 
L 316.503802 68.313691 
L 319.78314 69.823927 
L 323.062479 71.728564 
L 326.341818 73.979131 
L 329.621157 76.508528 
L 332.900496 79.245909 
L 336.179835 82.126268 
L 339.459174 85.092075 
L 342.738512 88.088398 
L 346.017851 91.055894 
L 349.29719 93.926739 
L 352.576529 96.626621 
L 355.855868 99.082718 
L 359.135207 101.234706 
L 362.414545 103.044653 
L 365.693884 104.502349 
L 368.973223 105.624698 
L 372.252562 106.449953 
L 375.531901 107.029063 
L 378.81124 107.416741 
L 382.090579 107.664259 
L 385.369917 107.814945 
L 388.649256 107.9024 
L 391.928595 107.950779 
L 395.207934 107.97628 
L 398.487273 107.989084 
" style="fill:none;stroke:#00008b;stroke-linecap:square;stroke-width:4;"/>
   </g>
   <g id="patch_53">
    <path d="M 57.6 108 
L 57.6 41.472 
" style="fill:none;stroke:#000000;stroke-linecap:square;stroke-linejoin:miter;stroke-width:0.8;"/>
   </g>
   <g id="patch_54">
    <path d="M 414.72 108 
L 414.72 41.472 
" style="fill:none;stroke:#000000;stroke-linecap:square;stroke-linejoin:miter;stroke-width:0.8;"/>
   </g>
   <g id="patch_55">
    <path d="M 57.6 108 
L 414.72 108 
" style="fill:none;stroke:#000000;stroke-linecap:square;stroke-linejoin:miter;stroke-width:0.8;"/>
   </g>
   <g id="patch_56">
    <path d="M 57.6 41.472 
L 414.72 41.472 
" style="fill:none;stroke:#000000;stroke-linecap:square;stroke-linejoin:miter;stroke-width:0.8;"/>
   </g>
   <g id="legend_1">
    <g id="patch_57">
     <path d="M 369.80125 64.150125 
L 407.72 64.150125 
Q 409.72 64.150125 409.72 62.150125 
L 409.72 48.472 
Q 409.72 46.472 407.72 46.472 
L 369.80125 46.472 
Q 367.80125 46.472 367.80125 48.472 
L 367.80125 62.150125 
Q 367.80125 64.150125 369.80125 64.150125 
z
" style="fill:#ffffff;opacity:0.8;stroke:#cccccc;stroke-linejoin:miter;"/>
    </g>
    <g id="patch_58">
     <path d="M 371.80125 58.070438 
L 391.80125 58.070438 
L 391.80125 51.070438 
L 371.80125 51.070438 
z
" style="fill:#00008b;opacity:0.4;stroke:#000000;stroke-linejoin:miter;"/>
    </g>
    <g id="text_10">
     <!-- x -->
     <defs>
      <path d="M 54.890625 54.6875 
L 35.109375 28.078125 
L 55.90625 0 
L 45.3125 0 
L 29.390625 21.484375 
L 13.484375 0 
L 2.875 0 
L 24.125 28.609375 
L 4.6875 54.6875 
L 15.28125 54.6875 
L 29.78125 35.203125 
L 44.28125 54.6875 
z
" id="DejaVuSans-120"/>
     </defs>
     <g transform="translate(399.80125 58.070438)scale(0.1 -0.1)">
      <use xlink:href="#DejaVuSans-120"/>
     </g>
    </g>
   </g>
  </g>
  <g id="axes_2">
   <g id="patch_59">
    <path d="M 57.6 207.792 
L 414.72 207.792 
L 414.72 141.264 
L 57.6 141.264 
z
" style="fill:#ffffff;"/>
   </g>
   <g id="patch_60">
    <path clip-path="url(#p452d2ea432)" d="M 115.769316 207.792 
L 120.584943 207.792 
L 120.584943 206.618667 
L 115.769316 206.618667 
z
" style="fill:#006400;opacity:0.4;stroke:#000000;stroke-linejoin:miter;"/>
   </g>
   <g id="patch_61">
    <path clip-path="url(#p452d2ea432)" d="M 120.584943 207.792 
L 125.40057 207.792 
L 125.40057 205.445333 
L 120.584943 205.445333 
z
" style="fill:#006400;opacity:0.4;stroke:#000000;stroke-linejoin:miter;"/>
   </g>
   <g id="patch_62">
    <path clip-path="url(#p452d2ea432)" d="M 125.40057 207.792 
L 130.216198 207.792 
L 130.216198 203.098667 
L 125.40057 203.098667 
z
" style="fill:#006400;opacity:0.4;stroke:#000000;stroke-linejoin:miter;"/>
   </g>
   <g id="patch_63">
    <path clip-path="url(#p452d2ea432)" d="M 130.216198 207.792 
L 135.031825 207.792 
L 135.031825 200.752 
L 130.216198 200.752 
z
" style="fill:#006400;opacity:0.4;stroke:#000000;stroke-linejoin:miter;"/>
   </g>
   <g id="patch_64">
    <path clip-path="url(#p452d2ea432)" d="M 135.031825 207.792 
L 139.847452 207.792 
L 139.847452 198.405333 
L 135.031825 198.405333 
z
" style="fill:#006400;opacity:0.4;stroke:#000000;stroke-linejoin:miter;"/>
   </g>
   <g id="patch_65">
    <path clip-path="url(#p452d2ea432)" d="M 139.847452 207.792 
L 144.66308 207.792 
L 144.66308 171.418667 
L 139.847452 171.418667 
z
" style="fill:#006400;opacity:0.4;stroke:#000000;stroke-linejoin:miter;"/>
   </g>
   <g id="patch_66">
    <path clip-path="url(#p452d2ea432)" d="M 144.66308 207.792 
L 149.478707 207.792 
L 149.478707 172.592 
L 144.66308 172.592 
z
" style="fill:#006400;opacity:0.4;stroke:#000000;stroke-linejoin:miter;"/>
   </g>
   <g id="patch_67">
    <path clip-path="url(#p452d2ea432)" d="M 149.478707 207.792 
L 154.294335 207.792 
L 154.294335 176.112 
L 149.478707 176.112 
z
" style="fill:#006400;opacity:0.4;stroke:#000000;stroke-linejoin:miter;"/>
   </g>
   <g id="patch_68">
    <path clip-path="url(#p452d2ea432)" d="M 154.294335 207.792 
L 159.109962 207.792 
L 159.109962 144.432 
L 154.294335 144.432 
z
" style="fill:#006400;opacity:0.4;stroke:#000000;stroke-linejoin:miter;"/>
   </g>
   <g id="patch_69">
    <path clip-path="url(#p452d2ea432)" d="M 159.109962 207.792 
L 163.925589 207.792 
L 163.925589 162.032 
L 159.109962 162.032 
z
" style="fill:#006400;opacity:0.4;stroke:#000000;stroke-linejoin:miter;"/>
   </g>
   <g id="patch_70">
    <path clip-path="url(#p452d2ea432)" d="M 163.925589 207.792 
L 168.741217 207.792 
L 168.741217 180.805333 
L 163.925589 180.805333 
z
" style="fill:#006400;opacity:0.4;stroke:#000000;stroke-linejoin:miter;"/>
   </g>
   <g id="patch_71">
    <path clip-path="url(#p452d2ea432)" d="M 168.741217 207.792 
L 173.556844 207.792 
L 173.556844 170.245333 
L 168.741217 170.245333 
z
" style="fill:#006400;opacity:0.4;stroke:#000000;stroke-linejoin:miter;"/>
   </g>
   <g id="patch_72">
    <path clip-path="url(#p452d2ea432)" d="M 173.556844 207.792 
L 178.372471 207.792 
L 178.372471 176.112 
L 173.556844 176.112 
z
" style="fill:#006400;opacity:0.4;stroke:#000000;stroke-linejoin:miter;"/>
   </g>
   <g id="patch_73">
    <path clip-path="url(#p452d2ea432)" d="M 178.372471 207.792 
L 183.188099 207.792 
L 183.188099 166.725333 
L 178.372471 166.725333 
z
" style="fill:#006400;opacity:0.4;stroke:#000000;stroke-linejoin:miter;"/>
   </g>
   <g id="patch_74">
    <path clip-path="url(#p452d2ea432)" d="M 183.188099 207.792 
L 188.003726 207.792 
L 188.003726 162.032 
L 183.188099 162.032 
z
" style="fill:#006400;opacity:0.4;stroke:#000000;stroke-linejoin:miter;"/>
   </g>
   <g id="patch_75">
    <path clip-path="url(#p452d2ea432)" d="M 188.003726 207.792 
L 192.819354 207.792 
L 192.819354 166.725333 
L 188.003726 166.725333 
z
" style="fill:#006400;opacity:0.4;stroke:#000000;stroke-linejoin:miter;"/>
   </g>
   <g id="patch_76">
    <path clip-path="url(#p452d2ea432)" d="M 192.819354 207.792 
L 197.634981 207.792 
L 197.634981 149.125333 
L 192.819354 149.125333 
z
" style="fill:#006400;opacity:0.4;stroke:#000000;stroke-linejoin:miter;"/>
   </g>
   <g id="patch_77">
    <path clip-path="url(#p452d2ea432)" d="M 197.634981 207.792 
L 202.450608 207.792 
L 202.450608 156.165333 
L 197.634981 156.165333 
z
" style="fill:#006400;opacity:0.4;stroke:#000000;stroke-linejoin:miter;"/>
   </g>
   <g id="patch_78">
    <path clip-path="url(#p452d2ea432)" d="M 202.450608 207.792 
L 207.266236 207.792 
L 207.266236 158.512 
L 202.450608 158.512 
z
" style="fill:#006400;opacity:0.4;stroke:#000000;stroke-linejoin:miter;"/>
   </g>
   <g id="patch_79">
    <path clip-path="url(#p452d2ea432)" d="M 207.266236 207.792 
L 212.081863 207.792 
L 212.081863 157.338667 
L 207.266236 157.338667 
z
" style="fill:#006400;opacity:0.4;stroke:#000000;stroke-linejoin:miter;"/>
   </g>
   <g id="patch_80">
    <path clip-path="url(#p452d2ea432)" d="M 212.081863 207.792 
L 216.89749 207.792 
L 216.89749 178.458667 
L 212.081863 178.458667 
z
" style="fill:#006400;opacity:0.4;stroke:#000000;stroke-linejoin:miter;"/>
   </g>
   <g id="patch_81">
    <path clip-path="url(#p452d2ea432)" d="M 216.89749 207.792 
L 221.713118 207.792 
L 221.713118 170.245333 
L 216.89749 170.245333 
z
" style="fill:#006400;opacity:0.4;stroke:#000000;stroke-linejoin:miter;"/>
   </g>
   <g id="patch_82">
    <path clip-path="url(#p452d2ea432)" d="M 221.713118 207.792 
L 226.528745 207.792 
L 226.528745 169.072 
L 221.713118 169.072 
z
" style="fill:#006400;opacity:0.4;stroke:#000000;stroke-linejoin:miter;"/>
   </g>
   <g id="patch_83">
    <path clip-path="url(#p452d2ea432)" d="M 226.528745 207.792 
L 231.344373 207.792 
L 231.344373 160.858667 
L 226.528745 160.858667 
z
" style="fill:#006400;opacity:0.4;stroke:#000000;stroke-linejoin:miter;"/>
   </g>
   <g id="patch_84">
    <path clip-path="url(#p452d2ea432)" d="M 231.344373 207.792 
L 236.16 207.792 
L 236.16 162.032 
L 231.344373 162.032 
z
" style="fill:#006400;opacity:0.4;stroke:#000000;stroke-linejoin:miter;"/>
   </g>
   <g id="patch_85">
    <path clip-path="url(#p452d2ea432)" d="M 236.16 207.792 
L 240.975627 207.792 
L 240.975627 181.978667 
L 236.16 181.978667 
z
" style="fill:#006400;opacity:0.4;stroke:#000000;stroke-linejoin:miter;"/>
   </g>
   <g id="patch_86">
    <path clip-path="url(#p452d2ea432)" d="M 240.975627 207.792 
L 245.791255 207.792 
L 245.791255 158.512 
L 240.975627 158.512 
z
" style="fill:#006400;opacity:0.4;stroke:#000000;stroke-linejoin:miter;"/>
   </g>
   <g id="patch_87">
    <path clip-path="url(#p452d2ea432)" d="M 245.791255 207.792 
L 250.606882 207.792 
L 250.606882 180.805333 
L 245.791255 180.805333 
z
" style="fill:#006400;opacity:0.4;stroke:#000000;stroke-linejoin:miter;"/>
   </g>
   <g id="patch_88">
    <path clip-path="url(#p452d2ea432)" d="M 250.606882 207.792 
L 255.42251 207.792 
L 255.42251 165.552 
L 250.606882 165.552 
z
" style="fill:#006400;opacity:0.4;stroke:#000000;stroke-linejoin:miter;"/>
   </g>
   <g id="patch_89">
    <path clip-path="url(#p452d2ea432)" d="M 255.42251 207.792 
L 260.238137 207.792 
L 260.238137 170.245333 
L 255.42251 170.245333 
z
" style="fill:#006400;opacity:0.4;stroke:#000000;stroke-linejoin:miter;"/>
   </g>
   <g id="patch_90">
    <path clip-path="url(#p452d2ea432)" d="M 260.238137 207.792 
L 265.053764 207.792 
L 265.053764 179.632 
L 260.238137 179.632 
z
" style="fill:#006400;opacity:0.4;stroke:#000000;stroke-linejoin:miter;"/>
   </g>
   <g id="patch_91">
    <path clip-path="url(#p452d2ea432)" d="M 265.053764 207.792 
L 269.869392 207.792 
L 269.869392 172.592 
L 265.053764 172.592 
z
" style="fill:#006400;opacity:0.4;stroke:#000000;stroke-linejoin:miter;"/>
   </g>
   <g id="patch_92">
    <path clip-path="url(#p452d2ea432)" d="M 269.869392 207.792 
L 274.685019 207.792 
L 274.685019 163.205333 
L 269.869392 163.205333 
z
" style="fill:#006400;opacity:0.4;stroke:#000000;stroke-linejoin:miter;"/>
   </g>
   <g id="patch_93">
    <path clip-path="url(#p452d2ea432)" d="M 274.685019 207.792 
L 279.500646 207.792 
L 279.500646 170.245333 
L 274.685019 170.245333 
z
" style="fill:#006400;opacity:0.4;stroke:#000000;stroke-linejoin:miter;"/>
   </g>
   <g id="patch_94">
    <path clip-path="url(#p452d2ea432)" d="M 279.500646 207.792 
L 284.316274 207.792 
L 284.316274 174.938667 
L 279.500646 174.938667 
z
" style="fill:#006400;opacity:0.4;stroke:#000000;stroke-linejoin:miter;"/>
   </g>
   <g id="patch_95">
    <path clip-path="url(#p452d2ea432)" d="M 284.316274 207.792 
L 289.131901 207.792 
L 289.131901 159.685333 
L 284.316274 159.685333 
z
" style="fill:#006400;opacity:0.4;stroke:#000000;stroke-linejoin:miter;"/>
   </g>
   <g id="patch_96">
    <path clip-path="url(#p452d2ea432)" d="M 289.131901 207.792 
L 293.947529 207.792 
L 293.947529 147.952 
L 289.131901 147.952 
z
" style="fill:#006400;opacity:0.4;stroke:#000000;stroke-linejoin:miter;"/>
   </g>
   <g id="patch_97">
    <path clip-path="url(#p452d2ea432)" d="M 293.947529 207.792 
L 298.763156 207.792 
L 298.763156 179.632 
L 293.947529 179.632 
z
" style="fill:#006400;opacity:0.4;stroke:#000000;stroke-linejoin:miter;"/>
   </g>
   <g id="patch_98">
    <path clip-path="url(#p452d2ea432)" d="M 298.763156 207.792 
L 303.578783 207.792 
L 303.578783 165.552 
L 298.763156 165.552 
z
" style="fill:#006400;opacity:0.4;stroke:#000000;stroke-linejoin:miter;"/>
   </g>
   <g id="patch_99">
    <path clip-path="url(#p452d2ea432)" d="M 303.578783 207.792 
L 308.394411 207.792 
L 308.394411 164.378667 
L 303.578783 164.378667 
z
" style="fill:#006400;opacity:0.4;stroke:#000000;stroke-linejoin:miter;"/>
   </g>
   <g id="patch_100">
    <path clip-path="url(#p452d2ea432)" d="M 308.394411 207.792 
L 313.210038 207.792 
L 313.210038 163.205333 
L 308.394411 163.205333 
z
" style="fill:#006400;opacity:0.4;stroke:#000000;stroke-linejoin:miter;"/>
   </g>
   <g id="patch_101">
    <path clip-path="url(#p452d2ea432)" d="M 313.210038 207.792 
L 318.025665 207.792 
L 318.025665 167.898667 
L 313.210038 167.898667 
z
" style="fill:#006400;opacity:0.4;stroke:#000000;stroke-linejoin:miter;"/>
   </g>
   <g id="patch_102">
    <path clip-path="url(#p452d2ea432)" d="M 318.025665 207.792 
L 322.841293 207.792 
L 322.841293 172.592 
L 318.025665 172.592 
z
" style="fill:#006400;opacity:0.4;stroke:#000000;stroke-linejoin:miter;"/>
   </g>
   <g id="patch_103">
    <path clip-path="url(#p452d2ea432)" d="M 322.841293 207.792 
L 327.65692 207.792 
L 327.65692 164.378667 
L 322.841293 164.378667 
z
" style="fill:#006400;opacity:0.4;stroke:#000000;stroke-linejoin:miter;"/>
   </g>
   <g id="patch_104">
    <path clip-path="url(#p452d2ea432)" d="M 327.65692 207.792 
L 332.472548 207.792 
L 332.472548 153.818667 
L 327.65692 153.818667 
z
" style="fill:#006400;opacity:0.4;stroke:#000000;stroke-linejoin:miter;"/>
   </g>
   <g id="patch_105">
    <path clip-path="url(#p452d2ea432)" d="M 332.472548 207.792 
L 337.288175 207.792 
L 337.288175 169.072 
L 332.472548 169.072 
z
" style="fill:#006400;opacity:0.4;stroke:#000000;stroke-linejoin:miter;"/>
   </g>
   <g id="patch_106">
    <path clip-path="url(#p452d2ea432)" d="M 337.288175 207.792 
L 342.103802 207.792 
L 342.103802 173.765333 
L 337.288175 173.765333 
z
" style="fill:#006400;opacity:0.4;stroke:#000000;stroke-linejoin:miter;"/>
   </g>
   <g id="patch_107">
    <path clip-path="url(#p452d2ea432)" d="M 342.103802 207.792 
L 346.91943 207.792 
L 346.91943 192.538667 
L 342.103802 192.538667 
z
" style="fill:#006400;opacity:0.4;stroke:#000000;stroke-linejoin:miter;"/>
   </g>
   <g id="patch_108">
    <path clip-path="url(#p452d2ea432)" d="M 346.91943 207.792 
L 351.735057 207.792 
L 351.735057 199.578667 
L 346.91943 199.578667 
z
" style="fill:#006400;opacity:0.4;stroke:#000000;stroke-linejoin:miter;"/>
   </g>
   <g id="patch_109">
    <path clip-path="url(#p452d2ea432)" d="M 351.735057 207.792 
L 356.550684 207.792 
L 356.550684 200.752 
L 351.735057 200.752 
z
" style="fill:#006400;opacity:0.4;stroke:#000000;stroke-linejoin:miter;"/>
   </g>
   <g id="matplotlib.axis_3">
    <g id="xtick_6">
     <g id="line2d_10">
      <g>
       <use style="stroke:#000000;stroke-width:0.8;" x="97.489387" xlink:href="#me73e264e75" y="207.792"/>
      </g>
     </g>
     <g id="text_11">
      <!-- −1.0 -->
      <g transform="translate(85.347981 222.390437)scale(0.1 -0.1)">
       <use xlink:href="#DejaVuSans-8722"/>
       <use x="83.789062" xlink:href="#DejaVuSans-49"/>
       <use x="147.412109" xlink:href="#DejaVuSans-46"/>
       <use x="179.199219" xlink:href="#DejaVuSans-48"/>
      </g>
     </g>
    </g>
    <g id="xtick_7">
     <g id="line2d_11">
      <g>
       <use style="stroke:#000000;stroke-width:0.8;" x="169.805267" xlink:href="#me73e264e75" y="207.792"/>
      </g>
     </g>
     <g id="text_12">
      <!-- −0.5 -->
      <g transform="translate(157.663861 222.390437)scale(0.1 -0.1)">
       <use xlink:href="#DejaVuSans-8722"/>
       <use x="83.789062" xlink:href="#DejaVuSans-48"/>
       <use x="147.412109" xlink:href="#DejaVuSans-46"/>
       <use x="179.199219" xlink:href="#DejaVuSans-53"/>
      </g>
     </g>
    </g>
    <g id="xtick_8">
     <g id="line2d_12">
      <g>
       <use style="stroke:#000000;stroke-width:0.8;" x="242.121148" xlink:href="#me73e264e75" y="207.792"/>
      </g>
     </g>
     <g id="text_13">
      <!-- 0.0 -->
      <g transform="translate(234.169585 222.390437)scale(0.1 -0.1)">
       <use xlink:href="#DejaVuSans-48"/>
       <use x="63.623047" xlink:href="#DejaVuSans-46"/>
       <use x="95.410156" xlink:href="#DejaVuSans-48"/>
      </g>
     </g>
    </g>
    <g id="xtick_9">
     <g id="line2d_13">
      <g>
       <use style="stroke:#000000;stroke-width:0.8;" x="314.437028" xlink:href="#me73e264e75" y="207.792"/>
      </g>
     </g>
     <g id="text_14">
      <!-- 0.5 -->
      <g transform="translate(306.485466 222.390437)scale(0.1 -0.1)">
       <use xlink:href="#DejaVuSans-48"/>
       <use x="63.623047" xlink:href="#DejaVuSans-46"/>
       <use x="95.410156" xlink:href="#DejaVuSans-53"/>
      </g>
     </g>
    </g>
    <g id="xtick_10">
     <g id="line2d_14">
      <g>
       <use style="stroke:#000000;stroke-width:0.8;" x="386.752909" xlink:href="#me73e264e75" y="207.792"/>
      </g>
     </g>
     <g id="text_15">
      <!-- 1.0 -->
      <g transform="translate(378.801346 222.390437)scale(0.1 -0.1)">
       <use xlink:href="#DejaVuSans-49"/>
       <use x="63.623047" xlink:href="#DejaVuSans-46"/>
       <use x="95.410156" xlink:href="#DejaVuSans-48"/>
      </g>
     </g>
    </g>
   </g>
   <g id="matplotlib.axis_4">
    <g id="ytick_4">
     <g id="line2d_15">
      <g>
       <use style="stroke:#000000;stroke-width:0.8;" x="57.6" xlink:href="#m5d0e0e1023" y="207.792"/>
      </g>
     </g>
     <g id="text_16">
      <!-- 0.0 -->
      <g transform="translate(34.696875 211.591219)scale(0.1 -0.1)">
       <use xlink:href="#DejaVuSans-48"/>
       <use x="63.623047" xlink:href="#DejaVuSans-46"/>
       <use x="95.410156" xlink:href="#DejaVuSans-48"/>
      </g>
     </g>
    </g>
    <g id="ytick_5">
     <g id="line2d_16">
      <g>
       <use style="stroke:#000000;stroke-width:0.8;" x="57.6" xlink:href="#m5d0e0e1023" y="178.296378"/>
      </g>
     </g>
     <g id="text_17">
      <!-- 0.5 -->
      <g transform="translate(34.696875 182.095597)scale(0.1 -0.1)">
       <use xlink:href="#DejaVuSans-48"/>
       <use x="63.623047" xlink:href="#DejaVuSans-46"/>
       <use x="95.410156" xlink:href="#DejaVuSans-53"/>
      </g>
     </g>
    </g>
    <g id="ytick_6">
     <g id="line2d_17">
      <g>
       <use style="stroke:#000000;stroke-width:0.8;" x="57.6" xlink:href="#m5d0e0e1023" y="148.800756"/>
      </g>
     </g>
     <g id="text_18">
      <!-- 1.0 -->
      <g transform="translate(34.696875 152.599974)scale(0.1 -0.1)">
       <use xlink:href="#DejaVuSans-49"/>
       <use x="63.623047" xlink:href="#DejaVuSans-46"/>
       <use x="95.410156" xlink:href="#DejaVuSans-48"/>
      </g>
     </g>
    </g>
    <g id="text_19">
     <!-- Density -->
     <g transform="translate(28.617187 193.536594)rotate(-90)scale(0.1 -0.1)">
      <use xlink:href="#DejaVuSans-68"/>
      <use x="77.001953" xlink:href="#DejaVuSans-101"/>
      <use x="138.525391" xlink:href="#DejaVuSans-110"/>
      <use x="201.904297" xlink:href="#DejaVuSans-115"/>
      <use x="254.003906" xlink:href="#DejaVuSans-105"/>
      <use x="281.787109" xlink:href="#DejaVuSans-116"/>
      <use x="320.996094" xlink:href="#DejaVuSans-121"/>
     </g>
    </g>
   </g>
   <g id="line2d_18">
    <path clip-path="url(#p452d2ea432)" d="M 73.832727 207.789285 
L 77.112066 207.786221 
L 80.391405 207.78019 
L 83.670744 207.768783 
L 86.950083 207.748009 
L 90.229421 207.711502 
L 93.50876 207.649474 
L 96.788099 207.547411 
L 100.067438 207.384562 
L 103.346777 207.132387 
L 106.626116 206.753266 
L 109.905455 206.199975 
L 113.184793 205.416594 
L 116.464132 204.341613 
L 119.743471 202.913859 
L 123.02281 201.081417 
L 126.302149 198.812932 
L 129.581488 196.109651 
L 132.860826 193.015634 
L 136.140165 189.623001 
L 139.419504 186.069416 
L 142.698843 182.526162 
L 145.978182 179.177245 
L 149.257521 176.192365 
L 152.53686 173.698849 
L 155.816198 171.758901 
L 159.095537 170.358187 
L 162.374876 169.409602 
L 165.654215 168.772321 
L 168.933554 168.282125 
L 172.212893 167.785791 
L 175.492231 167.171366 
L 178.77157 166.387612 
L 182.050909 165.449186 
L 185.330248 164.427865 
L 188.609587 163.433085 
L 191.888926 162.586654 
L 195.168264 161.996837 
L 198.447603 161.736604 
L 201.726942 161.829909 
L 205.006281 162.248597 
L 208.28562 162.920575 
L 211.564959 163.747351 
L 214.844298 164.626549 
L 218.123636 165.473388 
L 221.402975 166.235308 
L 224.682314 166.896134 
L 227.961653 167.469696 
L 231.240992 167.986279 
L 234.520331 168.477249 
L 237.799669 168.962889 
L 241.079008 169.446395 
L 244.358347 169.91408 
L 247.637686 170.339745 
L 250.917025 170.690545 
L 254.196364 170.932437 
L 257.475702 171.034638 
L 260.755041 170.973547 
L 264.03438 170.736674 
L 267.313719 170.326504 
L 270.593058 169.763389 
L 273.872397 169.086036 
L 277.151736 168.348407 
L 280.431074 167.61272 
L 283.710413 166.939558 
L 286.989752 166.37738 
L 290.269091 165.954406 
L 293.54843 165.675523 
L 296.827769 165.52549 
L 300.107107 165.477773 
L 303.386446 165.506629 
L 306.665785 165.599312 
L 309.945124 165.765659 
L 313.224463 166.043281 
L 316.503802 166.497474 
L 319.78314 167.215384 
L 323.062479 168.294265 
L 326.341818 169.824424 
L 329.621157 171.869064 
L 332.900496 174.445178 
L 336.179835 177.510784 
L 339.459174 180.96311 
L 342.738512 184.649573 
L 346.017851 188.38955 
L 349.29719 192.001539 
L 352.576529 195.328864 
L 355.855868 198.258085 
L 359.135207 200.727044 
L 362.414545 202.722774 
L 365.693884 204.272027 
L 368.973223 205.428199 
L 372.252562 206.258163 
L 375.531901 206.831327 
L 378.81124 207.211974 
L 382.090579 207.454884 
L 385.369917 207.603672 
L 388.649256 207.69103 
L 391.928595 207.740125 
L 395.207934 207.766497 
L 398.487273 207.780018 
" style="fill:none;stroke:#006400;stroke-linecap:square;stroke-width:4;"/>
   </g>
   <g id="patch_110">
    <path d="M 57.6 207.792 
L 57.6 141.264 
" style="fill:none;stroke:#000000;stroke-linecap:square;stroke-linejoin:miter;stroke-width:0.8;"/>
   </g>
   <g id="patch_111">
    <path d="M 414.72 207.792 
L 414.72 141.264 
" style="fill:none;stroke:#000000;stroke-linecap:square;stroke-linejoin:miter;stroke-width:0.8;"/>
   </g>
   <g id="patch_112">
    <path d="M 57.6 207.792 
L 414.72 207.792 
" style="fill:none;stroke:#000000;stroke-linecap:square;stroke-linejoin:miter;stroke-width:0.8;"/>
   </g>
   <g id="patch_113">
    <path d="M 57.6 141.264 
L 414.72 141.264 
" style="fill:none;stroke:#000000;stroke-linecap:square;stroke-linejoin:miter;stroke-width:0.8;"/>
   </g>
   <g id="legend_2">
    <g id="patch_114">
     <path d="M 369.80125 163.942125 
L 407.72 163.942125 
Q 409.72 163.942125 409.72 161.942125 
L 409.72 148.264 
Q 409.72 146.264 407.72 146.264 
L 369.80125 146.264 
Q 367.80125 146.264 367.80125 148.264 
L 367.80125 161.942125 
Q 367.80125 163.942125 369.80125 163.942125 
z
" style="fill:#ffffff;opacity:0.8;stroke:#cccccc;stroke-linejoin:miter;"/>
    </g>
    <g id="patch_115">
     <path d="M 371.80125 157.862437 
L 391.80125 157.862437 
L 391.80125 150.862437 
L 371.80125 150.862437 
z
" style="fill:#006400;opacity:0.4;stroke:#000000;stroke-linejoin:miter;"/>
    </g>
    <g id="text_20">
     <!-- y -->
     <g transform="translate(399.80125 157.862437)scale(0.1 -0.1)">
      <use xlink:href="#DejaVuSans-121"/>
     </g>
    </g>
   </g>
  </g>
  <g id="axes_3">
   <g id="patch_116">
    <path d="M 57.6 307.584 
L 414.72 307.584 
L 414.72 241.056 
L 57.6 241.056 
z
" style="fill:#ffffff;"/>
   </g>
   <g id="patch_117">
    <path clip-path="url(#p263f5d0f84)" d="M 116.27498 307.584 
L 121.070381 307.584 
L 121.070381 306.528 
L 116.27498 306.528 
z
" style="fill:#8b0000;opacity:0.4;stroke:#000000;stroke-linejoin:miter;"/>
   </g>
   <g id="patch_118">
    <path clip-path="url(#p263f5d0f84)" d="M 121.070381 307.584 
L 125.865782 307.584 
L 125.865782 289.632 
L 121.070381 289.632 
z
" style="fill:#8b0000;opacity:0.4;stroke:#000000;stroke-linejoin:miter;"/>
   </g>
   <g id="patch_119">
    <path clip-path="url(#p263f5d0f84)" d="M 125.865782 307.584 
L 130.661183 307.584 
L 130.661183 299.136 
L 125.865782 299.136 
z
" style="fill:#8b0000;opacity:0.4;stroke:#000000;stroke-linejoin:miter;"/>
   </g>
   <g id="patch_120">
    <path clip-path="url(#p263f5d0f84)" d="M 130.661183 307.584 
L 135.456583 307.584 
L 135.456583 283.296 
L 130.661183 283.296 
z
" style="fill:#8b0000;opacity:0.4;stroke:#000000;stroke-linejoin:miter;"/>
   </g>
   <g id="patch_121">
    <path clip-path="url(#p263f5d0f84)" d="M 135.456583 307.584 
L 140.251984 307.584 
L 140.251984 270.624 
L 135.456583 270.624 
z
" style="fill:#8b0000;opacity:0.4;stroke:#000000;stroke-linejoin:miter;"/>
   </g>
   <g id="patch_122">
    <path clip-path="url(#p263f5d0f84)" d="M 140.251984 307.584 
L 145.047385 307.584 
L 145.047385 266.4 
L 140.251984 266.4 
z
" style="fill:#8b0000;opacity:0.4;stroke:#000000;stroke-linejoin:miter;"/>
   </g>
   <g id="patch_123">
    <path clip-path="url(#p263f5d0f84)" d="M 145.047385 307.584 
L 149.842786 307.584 
L 149.842786 275.904 
L 145.047385 275.904 
z
" style="fill:#8b0000;opacity:0.4;stroke:#000000;stroke-linejoin:miter;"/>
   </g>
   <g id="patch_124">
    <path clip-path="url(#p263f5d0f84)" d="M 149.842786 307.584 
L 154.638187 307.584 
L 154.638187 286.464 
L 149.842786 286.464 
z
" style="fill:#8b0000;opacity:0.4;stroke:#000000;stroke-linejoin:miter;"/>
   </g>
   <g id="patch_125">
    <path clip-path="url(#p263f5d0f84)" d="M 154.638187 307.584 
L 159.433587 307.584 
L 159.433587 287.52 
L 154.638187 287.52 
z
" style="fill:#8b0000;opacity:0.4;stroke:#000000;stroke-linejoin:miter;"/>
   </g>
   <g id="patch_126">
    <path clip-path="url(#p263f5d0f84)" d="M 159.433587 307.584 
L 164.228988 307.584 
L 164.228988 285.408 
L 159.433587 285.408 
z
" style="fill:#8b0000;opacity:0.4;stroke:#000000;stroke-linejoin:miter;"/>
   </g>
   <g id="patch_127">
    <path clip-path="url(#p263f5d0f84)" d="M 164.228988 307.584 
L 169.024389 307.584 
L 169.024389 272.736 
L 164.228988 272.736 
z
" style="fill:#8b0000;opacity:0.4;stroke:#000000;stroke-linejoin:miter;"/>
   </g>
   <g id="patch_128">
    <path clip-path="url(#p263f5d0f84)" d="M 169.024389 307.584 
L 173.81979 307.584 
L 173.81979 262.176 
L 169.024389 262.176 
z
" style="fill:#8b0000;opacity:0.4;stroke:#000000;stroke-linejoin:miter;"/>
   </g>
   <g id="patch_129">
    <path clip-path="url(#p263f5d0f84)" d="M 173.81979 307.584 
L 178.61519 307.584 
L 178.61519 282.24 
L 173.81979 282.24 
z
" style="fill:#8b0000;opacity:0.4;stroke:#000000;stroke-linejoin:miter;"/>
   </g>
   <g id="patch_130">
    <path clip-path="url(#p263f5d0f84)" d="M 178.61519 307.584 
L 183.410591 307.584 
L 183.410591 260.064 
L 178.61519 260.064 
z
" style="fill:#8b0000;opacity:0.4;stroke:#000000;stroke-linejoin:miter;"/>
   </g>
   <g id="patch_131">
    <path clip-path="url(#p263f5d0f84)" d="M 183.410591 307.584 
L 188.205992 307.584 
L 188.205992 256.896 
L 183.410591 256.896 
z
" style="fill:#8b0000;opacity:0.4;stroke:#000000;stroke-linejoin:miter;"/>
   </g>
   <g id="patch_132">
    <path clip-path="url(#p263f5d0f84)" d="M 188.205992 307.584 
L 193.001393 307.584 
L 193.001393 270.624 
L 188.205992 270.624 
z
" style="fill:#8b0000;opacity:0.4;stroke:#000000;stroke-linejoin:miter;"/>
   </g>
   <g id="patch_133">
    <path clip-path="url(#p263f5d0f84)" d="M 193.001393 307.584 
L 197.796794 307.584 
L 197.796794 261.12 
L 193.001393 261.12 
z
" style="fill:#8b0000;opacity:0.4;stroke:#000000;stroke-linejoin:miter;"/>
   </g>
   <g id="patch_134">
    <path clip-path="url(#p263f5d0f84)" d="M 197.796794 307.584 
L 202.592194 307.584 
L 202.592194 264.288 
L 197.796794 264.288 
z
" style="fill:#8b0000;opacity:0.4;stroke:#000000;stroke-linejoin:miter;"/>
   </g>
   <g id="patch_135">
    <path clip-path="url(#p263f5d0f84)" d="M 202.592194 307.584 
L 207.387595 307.584 
L 207.387595 244.224 
L 202.592194 244.224 
z
" style="fill:#8b0000;opacity:0.4;stroke:#000000;stroke-linejoin:miter;"/>
   </g>
   <g id="patch_136">
    <path clip-path="url(#p263f5d0f84)" d="M 207.387595 307.584 
L 212.182996 307.584 
L 212.182996 265.344 
L 207.387595 265.344 
z
" style="fill:#8b0000;opacity:0.4;stroke:#000000;stroke-linejoin:miter;"/>
   </g>
   <g id="patch_137">
    <path clip-path="url(#p263f5d0f84)" d="M 212.182996 307.584 
L 216.978397 307.584 
L 216.978397 274.848 
L 212.182996 274.848 
z
" style="fill:#8b0000;opacity:0.4;stroke:#000000;stroke-linejoin:miter;"/>
   </g>
   <g id="patch_138">
    <path clip-path="url(#p263f5d0f84)" d="M 216.978397 307.584 
L 221.773798 307.584 
L 221.773798 274.848 
L 216.978397 274.848 
z
" style="fill:#8b0000;opacity:0.4;stroke:#000000;stroke-linejoin:miter;"/>
   </g>
   <g id="patch_139">
    <path clip-path="url(#p263f5d0f84)" d="M 221.773798 307.584 
L 226.569198 307.584 
L 226.569198 286.464 
L 221.773798 286.464 
z
" style="fill:#8b0000;opacity:0.4;stroke:#000000;stroke-linejoin:miter;"/>
   </g>
   <g id="patch_140">
    <path clip-path="url(#p263f5d0f84)" d="M 226.569198 307.584 
L 231.364599 307.584 
L 231.364599 293.856 
L 226.569198 293.856 
z
" style="fill:#8b0000;opacity:0.4;stroke:#000000;stroke-linejoin:miter;"/>
   </g>
   <g id="patch_141">
    <path clip-path="url(#p263f5d0f84)" d="M 231.364599 307.584 
L 236.16 307.584 
L 236.16 283.296 
L 231.364599 283.296 
z
" style="fill:#8b0000;opacity:0.4;stroke:#000000;stroke-linejoin:miter;"/>
   </g>
   <g id="patch_142">
    <path clip-path="url(#p263f5d0f84)" d="M 236.16 307.584 
L 240.955401 307.584 
L 240.955401 292.8 
L 236.16 292.8 
z
" style="fill:#8b0000;opacity:0.4;stroke:#000000;stroke-linejoin:miter;"/>
   </g>
   <g id="patch_143">
    <path clip-path="url(#p263f5d0f84)" d="M 240.955401 307.584 
L 245.750802 307.584 
L 245.750802 279.072 
L 240.955401 279.072 
z
" style="fill:#8b0000;opacity:0.4;stroke:#000000;stroke-linejoin:miter;"/>
   </g>
   <g id="patch_144">
    <path clip-path="url(#p263f5d0f84)" d="M 245.750802 307.584 
L 250.546202 307.584 
L 250.546202 285.408 
L 245.750802 285.408 
z
" style="fill:#8b0000;opacity:0.4;stroke:#000000;stroke-linejoin:miter;"/>
   </g>
   <g id="patch_145">
    <path clip-path="url(#p263f5d0f84)" d="M 250.546202 307.584 
L 255.341603 307.584 
L 255.341603 273.792 
L 250.546202 273.792 
z
" style="fill:#8b0000;opacity:0.4;stroke:#000000;stroke-linejoin:miter;"/>
   </g>
   <g id="patch_146">
    <path clip-path="url(#p263f5d0f84)" d="M 255.341603 307.584 
L 260.137004 307.584 
L 260.137004 253.728 
L 255.341603 253.728 
z
" style="fill:#8b0000;opacity:0.4;stroke:#000000;stroke-linejoin:miter;"/>
   </g>
   <g id="patch_147">
    <path clip-path="url(#p263f5d0f84)" d="M 260.137004 307.584 
L 264.932405 307.584 
L 264.932405 257.952 
L 260.137004 257.952 
z
" style="fill:#8b0000;opacity:0.4;stroke:#000000;stroke-linejoin:miter;"/>
   </g>
   <g id="patch_148">
    <path clip-path="url(#p263f5d0f84)" d="M 264.932405 307.584 
L 269.727806 307.584 
L 269.727806 247.392 
L 264.932405 247.392 
z
" style="fill:#8b0000;opacity:0.4;stroke:#000000;stroke-linejoin:miter;"/>
   </g>
   <g id="patch_149">
    <path clip-path="url(#p263f5d0f84)" d="M 269.727806 307.584 
L 274.523206 307.584 
L 274.523206 271.68 
L 269.727806 271.68 
z
" style="fill:#8b0000;opacity:0.4;stroke:#000000;stroke-linejoin:miter;"/>
   </g>
   <g id="patch_150">
    <path clip-path="url(#p263f5d0f84)" d="M 274.523206 307.584 
L 279.318607 307.584 
L 279.318607 265.344 
L 274.523206 265.344 
z
" style="fill:#8b0000;opacity:0.4;stroke:#000000;stroke-linejoin:miter;"/>
   </g>
   <g id="patch_151">
    <path clip-path="url(#p263f5d0f84)" d="M 279.318607 307.584 
L 284.114008 307.584 
L 284.114008 254.784 
L 279.318607 254.784 
z
" style="fill:#8b0000;opacity:0.4;stroke:#000000;stroke-linejoin:miter;"/>
   </g>
   <g id="patch_152">
    <path clip-path="url(#p263f5d0f84)" d="M 284.114008 307.584 
L 288.909409 307.584 
L 288.909409 252.672 
L 284.114008 252.672 
z
" style="fill:#8b0000;opacity:0.4;stroke:#000000;stroke-linejoin:miter;"/>
   </g>
   <g id="patch_153">
    <path clip-path="url(#p263f5d0f84)" d="M 288.909409 307.584 
L 293.70481 307.584 
L 293.70481 275.904 
L 288.909409 275.904 
z
" style="fill:#8b0000;opacity:0.4;stroke:#000000;stroke-linejoin:miter;"/>
   </g>
   <g id="patch_154">
    <path clip-path="url(#p263f5d0f84)" d="M 293.70481 307.584 
L 298.50021 307.584 
L 298.50021 264.288 
L 293.70481 264.288 
z
" style="fill:#8b0000;opacity:0.4;stroke:#000000;stroke-linejoin:miter;"/>
   </g>
   <g id="patch_155">
    <path clip-path="url(#p263f5d0f84)" d="M 298.50021 307.584 
L 303.295611 307.584 
L 303.295611 275.904 
L 298.50021 275.904 
z
" style="fill:#8b0000;opacity:0.4;stroke:#000000;stroke-linejoin:miter;"/>
   </g>
   <g id="patch_156">
    <path clip-path="url(#p263f5d0f84)" d="M 303.295611 307.584 
L 308.091012 307.584 
L 308.091012 266.4 
L 303.295611 266.4 
z
" style="fill:#8b0000;opacity:0.4;stroke:#000000;stroke-linejoin:miter;"/>
   </g>
   <g id="patch_157">
    <path clip-path="url(#p263f5d0f84)" d="M 308.091012 307.584 
L 312.886413 307.584 
L 312.886413 297.024 
L 308.091012 297.024 
z
" style="fill:#8b0000;opacity:0.4;stroke:#000000;stroke-linejoin:miter;"/>
   </g>
   <g id="patch_158">
    <path clip-path="url(#p263f5d0f84)" d="M 312.886413 307.584 
L 317.681813 307.584 
L 317.681813 291.744 
L 312.886413 291.744 
z
" style="fill:#8b0000;opacity:0.4;stroke:#000000;stroke-linejoin:miter;"/>
   </g>
   <g id="patch_159">
    <path clip-path="url(#p263f5d0f84)" d="M 317.681813 307.584 
L 322.477214 307.584 
L 322.477214 275.904 
L 317.681813 275.904 
z
" style="fill:#8b0000;opacity:0.4;stroke:#000000;stroke-linejoin:miter;"/>
   </g>
   <g id="patch_160">
    <path clip-path="url(#p263f5d0f84)" d="M 322.477214 307.584 
L 327.272615 307.584 
L 327.272615 268.512 
L 322.477214 268.512 
z
" style="fill:#8b0000;opacity:0.4;stroke:#000000;stroke-linejoin:miter;"/>
   </g>
   <g id="patch_161">
    <path clip-path="url(#p263f5d0f84)" d="M 327.272615 307.584 
L 332.068016 307.584 
L 332.068016 274.848 
L 327.272615 274.848 
z
" style="fill:#8b0000;opacity:0.4;stroke:#000000;stroke-linejoin:miter;"/>
   </g>
   <g id="patch_162">
    <path clip-path="url(#p263f5d0f84)" d="M 332.068016 307.584 
L 336.863417 307.584 
L 336.863417 279.072 
L 332.068016 279.072 
z
" style="fill:#8b0000;opacity:0.4;stroke:#000000;stroke-linejoin:miter;"/>
   </g>
   <g id="patch_163">
    <path clip-path="url(#p263f5d0f84)" d="M 336.863417 307.584 
L 341.658817 307.584 
L 341.658817 283.296 
L 336.863417 283.296 
z
" style="fill:#8b0000;opacity:0.4;stroke:#000000;stroke-linejoin:miter;"/>
   </g>
   <g id="patch_164">
    <path clip-path="url(#p263f5d0f84)" d="M 341.658817 307.584 
L 346.454218 307.584 
L 346.454218 287.52 
L 341.658817 287.52 
z
" style="fill:#8b0000;opacity:0.4;stroke:#000000;stroke-linejoin:miter;"/>
   </g>
   <g id="patch_165">
    <path clip-path="url(#p263f5d0f84)" d="M 346.454218 307.584 
L 351.249619 307.584 
L 351.249619 299.136 
L 346.454218 299.136 
z
" style="fill:#8b0000;opacity:0.4;stroke:#000000;stroke-linejoin:miter;"/>
   </g>
   <g id="patch_166">
    <path clip-path="url(#p263f5d0f84)" d="M 351.249619 307.584 
L 356.04502 307.584 
L 356.04502 306.528 
L 351.249619 306.528 
z
" style="fill:#8b0000;opacity:0.4;stroke:#000000;stroke-linejoin:miter;"/>
   </g>
   <g id="matplotlib.axis_5">
    <g id="xtick_11">
     <g id="line2d_19">
      <g>
       <use style="stroke:#000000;stroke-width:0.8;" x="95.51285" xlink:href="#me73e264e75" y="307.584"/>
      </g>
     </g>
     <g id="text_21">
      <!-- −1.0 -->
      <g transform="translate(83.371443 322.182437)scale(0.1 -0.1)">
       <use xlink:href="#DejaVuSans-8722"/>
       <use x="83.789062" xlink:href="#DejaVuSans-49"/>
       <use x="147.412109" xlink:href="#DejaVuSans-46"/>
       <use x="179.199219" xlink:href="#DejaVuSans-48"/>
      </g>
     </g>
    </g>
    <g id="xtick_12">
     <g id="line2d_20">
      <g>
       <use style="stroke:#000000;stroke-width:0.8;" x="165.724223" xlink:href="#me73e264e75" y="307.584"/>
      </g>
     </g>
     <g id="text_22">
      <!-- −0.5 -->
      <g transform="translate(153.582817 322.182437)scale(0.1 -0.1)">
       <use xlink:href="#DejaVuSans-8722"/>
       <use x="83.789062" xlink:href="#DejaVuSans-48"/>
       <use x="147.412109" xlink:href="#DejaVuSans-46"/>
       <use x="179.199219" xlink:href="#DejaVuSans-53"/>
      </g>
     </g>
    </g>
    <g id="xtick_13">
     <g id="line2d_21">
      <g>
       <use style="stroke:#000000;stroke-width:0.8;" x="235.935596" xlink:href="#me73e264e75" y="307.584"/>
      </g>
     </g>
     <g id="text_23">
      <!-- 0.0 -->
      <g transform="translate(227.984034 322.182437)scale(0.1 -0.1)">
       <use xlink:href="#DejaVuSans-48"/>
       <use x="63.623047" xlink:href="#DejaVuSans-46"/>
       <use x="95.410156" xlink:href="#DejaVuSans-48"/>
      </g>
     </g>
    </g>
    <g id="xtick_14">
     <g id="line2d_22">
      <g>
       <use style="stroke:#000000;stroke-width:0.8;" x="306.146969" xlink:href="#me73e264e75" y="307.584"/>
      </g>
     </g>
     <g id="text_24">
      <!-- 0.5 -->
      <g transform="translate(298.195407 322.182437)scale(0.1 -0.1)">
       <use xlink:href="#DejaVuSans-48"/>
       <use x="63.623047" xlink:href="#DejaVuSans-46"/>
       <use x="95.410156" xlink:href="#DejaVuSans-53"/>
      </g>
     </g>
    </g>
    <g id="xtick_15">
     <g id="line2d_23">
      <g>
       <use style="stroke:#000000;stroke-width:0.8;" x="376.358343" xlink:href="#me73e264e75" y="307.584"/>
      </g>
     </g>
     <g id="text_25">
      <!-- 1.0 -->
      <g transform="translate(368.40678 322.182437)scale(0.1 -0.1)">
       <use xlink:href="#DejaVuSans-49"/>
       <use x="63.623047" xlink:href="#DejaVuSans-46"/>
       <use x="95.410156" xlink:href="#DejaVuSans-48"/>
      </g>
     </g>
    </g>
    <g id="text_26">
     <!-- Position -->
     <defs>
      <path d="M 19.671875 64.796875 
L 19.671875 37.40625 
L 32.078125 37.40625 
Q 38.96875 37.40625 42.71875 40.96875 
Q 46.484375 44.53125 46.484375 51.125 
Q 46.484375 57.671875 42.71875 61.234375 
Q 38.96875 64.796875 32.078125 64.796875 
z
M 9.8125 72.90625 
L 32.078125 72.90625 
Q 44.34375 72.90625 50.609375 67.359375 
Q 56.890625 61.8125 56.890625 51.125 
Q 56.890625 40.328125 50.609375 34.8125 
Q 44.34375 29.296875 32.078125 29.296875 
L 19.671875 29.296875 
L 19.671875 0 
L 9.8125 0 
z
" id="DejaVuSans-80"/>
      <path d="M 30.609375 48.390625 
Q 23.390625 48.390625 19.1875 42.75 
Q 14.984375 37.109375 14.984375 27.296875 
Q 14.984375 17.484375 19.15625 11.84375 
Q 23.34375 6.203125 30.609375 6.203125 
Q 37.796875 6.203125 41.984375 11.859375 
Q 46.1875 17.53125 46.1875 27.296875 
Q 46.1875 37.015625 41.984375 42.703125 
Q 37.796875 48.390625 30.609375 48.390625 
z
M 30.609375 56 
Q 42.328125 56 49.015625 48.375 
Q 55.71875 40.765625 55.71875 27.296875 
Q 55.71875 13.875 49.015625 6.21875 
Q 42.328125 -1.421875 30.609375 -1.421875 
Q 18.84375 -1.421875 12.171875 6.21875 
Q 5.515625 13.875 5.515625 27.296875 
Q 5.515625 40.765625 12.171875 48.375 
Q 18.84375 56 30.609375 56 
z
" id="DejaVuSans-111"/>
     </defs>
     <g transform="translate(216.517031 335.860562)scale(0.1 -0.1)">
      <use xlink:href="#DejaVuSans-80"/>
      <use x="60.255859" xlink:href="#DejaVuSans-111"/>
      <use x="121.4375" xlink:href="#DejaVuSans-115"/>
      <use x="173.537109" xlink:href="#DejaVuSans-105"/>
      <use x="201.320312" xlink:href="#DejaVuSans-116"/>
      <use x="240.529297" xlink:href="#DejaVuSans-105"/>
      <use x="268.3125" xlink:href="#DejaVuSans-111"/>
      <use x="329.494141" xlink:href="#DejaVuSans-110"/>
     </g>
    </g>
   </g>
   <g id="matplotlib.axis_6">
    <g id="ytick_7">
     <g id="line2d_24">
      <g>
       <use style="stroke:#000000;stroke-width:0.8;" x="57.6" xlink:href="#m5d0e0e1023" y="307.584"/>
      </g>
     </g>
     <g id="text_27">
      <!-- 0.0 -->
      <g transform="translate(34.696875 311.383219)scale(0.1 -0.1)">
       <use xlink:href="#DejaVuSans-48"/>
       <use x="63.623047" xlink:href="#DejaVuSans-46"/>
       <use x="95.410156" xlink:href="#DejaVuSans-48"/>
      </g>
     </g>
    </g>
    <g id="ytick_8">
     <g id="line2d_25">
      <g>
       <use style="stroke:#000000;stroke-width:0.8;" x="57.6" xlink:href="#m5d0e0e1023" y="280.357092"/>
      </g>
     </g>
     <g id="text_28">
      <!-- 0.5 -->
      <g transform="translate(34.696875 284.156311)scale(0.1 -0.1)">
       <use xlink:href="#DejaVuSans-48"/>
       <use x="63.623047" xlink:href="#DejaVuSans-46"/>
       <use x="95.410156" xlink:href="#DejaVuSans-53"/>
      </g>
     </g>
    </g>
    <g id="ytick_9">
     <g id="line2d_26">
      <g>
       <use style="stroke:#000000;stroke-width:0.8;" x="57.6" xlink:href="#m5d0e0e1023" y="253.130185"/>
      </g>
     </g>
     <g id="text_29">
      <!-- 1.0 -->
      <g transform="translate(34.696875 256.929404)scale(0.1 -0.1)">
       <use xlink:href="#DejaVuSans-49"/>
       <use x="63.623047" xlink:href="#DejaVuSans-46"/>
       <use x="95.410156" xlink:href="#DejaVuSans-48"/>
      </g>
     </g>
    </g>
    <g id="text_30">
     <!-- Density -->
     <g transform="translate(28.617187 293.328594)rotate(-90)scale(0.1 -0.1)">
      <use xlink:href="#DejaVuSans-68"/>
      <use x="77.001953" xlink:href="#DejaVuSans-101"/>
      <use x="138.525391" xlink:href="#DejaVuSans-110"/>
      <use x="201.904297" xlink:href="#DejaVuSans-115"/>
      <use x="254.003906" xlink:href="#DejaVuSans-105"/>
      <use x="281.787109" xlink:href="#DejaVuSans-116"/>
      <use x="320.996094" xlink:href="#DejaVuSans-121"/>
     </g>
    </g>
   </g>
   <g id="line2d_27">
    <path clip-path="url(#p263f5d0f84)" d="M 73.832727 307.576324 
L 77.112066 307.567072 
L 80.391405 307.548347 
L 83.670744 307.51224 
L 86.950083 307.445884 
L 90.229421 307.329596 
L 93.50876 307.135158 
L 96.788099 306.82478 
L 100.067438 306.351494 
L 103.346777 305.661708 
L 106.626116 304.700449 
L 109.905455 303.41937 
L 113.184793 301.786902 
L 116.464132 299.799108 
L 119.743471 297.488985 
L 123.02281 294.931376 
L 126.302149 292.240687 
L 129.581488 289.559518 
L 132.860826 287.038333 
L 136.140165 284.809137 
L 139.419504 282.958914 
L 142.698843 281.510119 
L 145.978182 280.414728 
L 149.257521 279.564962 
L 152.53686 278.818751 
L 155.816198 278.033134 
L 159.095537 277.096167 
L 162.374876 275.94856 
L 165.654215 274.590072 
L 168.933554 273.070903 
L 172.212893 271.473002 
L 175.492231 269.888635 
L 178.77157 268.403172 
L 182.050909 267.086392 
L 185.330248 265.992891 
L 188.609587 265.168701 
L 191.888926 264.659161 
L 195.168264 264.512887 
L 198.447603 264.778523 
L 201.726942 265.494024 
L 205.006281 266.671486 
L 208.28562 268.282647 
L 211.564959 270.250324 
L 214.844298 272.4492 
L 218.123636 274.716352 
L 221.402975 276.869055 
L 224.682314 278.725762 
L 227.961653 280.126129 
L 231.240992 280.947203 
L 234.520331 281.114546 
L 237.799669 280.608298 
L 241.079008 279.464609 
L 244.358347 277.772526 
L 247.637686 275.666014 
L 250.917025 273.310841 
L 254.196364 270.887021 
L 257.475702 268.569009 
L 260.755041 266.507227 
L 264.03438 264.814823 
L 267.313719 263.562352 
L 270.593058 262.780705 
L 273.872397 262.469947 
L 277.151736 262.610078 
L 280.431074 263.169684 
L 283.710413 264.109975 
L 286.989752 265.383965 
L 290.269091 266.932569 
L 293.54843 268.680519 
L 296.827769 270.535172 
L 300.107107 272.390616 
L 303.386446 274.138204 
L 306.665785 275.682798 
L 309.945124 276.961785 
L 313.224463 277.96196 
L 316.503802 278.728643 
L 319.78314 279.362606 
L 323.062479 280.003676 
L 326.341818 280.80401 
L 329.621157 281.897452 
L 332.900496 283.372654 
L 336.179835 285.256298 
L 339.459174 287.509589 
L 342.738512 290.037552 
L 346.017851 292.707745 
L 349.29719 295.373523 
L 352.576529 297.896849 
L 355.855868 300.166591 
L 359.135207 302.109689 
L 362.414545 303.694369 
L 365.693884 304.926206 
L 368.973223 305.839172 
L 372.252562 306.484384 
L 375.531901 306.919217 
L 378.81124 307.198687 
L 382.090579 307.369989 
L 385.369917 307.470137 
L 388.649256 307.525988 
L 391.928595 307.555702 
L 395.207934 307.570788 
L 398.487273 307.578096 
" style="fill:none;stroke:#8b0000;stroke-linecap:square;stroke-width:4;"/>
   </g>
   <g id="patch_167">
    <path d="M 57.6 307.584 
L 57.6 241.056 
" style="fill:none;stroke:#000000;stroke-linecap:square;stroke-linejoin:miter;stroke-width:0.8;"/>
   </g>
   <g id="patch_168">
    <path d="M 414.72 307.584 
L 414.72 241.056 
" style="fill:none;stroke:#000000;stroke-linecap:square;stroke-linejoin:miter;stroke-width:0.8;"/>
   </g>
   <g id="patch_169">
    <path d="M 57.6 307.584 
L 414.72 307.584 
" style="fill:none;stroke:#000000;stroke-linecap:square;stroke-linejoin:miter;stroke-width:0.8;"/>
   </g>
   <g id="patch_170">
    <path d="M 57.6 241.056 
L 414.72 241.056 
" style="fill:none;stroke:#000000;stroke-linecap:square;stroke-linejoin:miter;stroke-width:0.8;"/>
   </g>
   <g id="legend_3">
    <g id="patch_171">
     <path d="M 370.471563 263.734125 
L 407.72 263.734125 
Q 409.72 263.734125 409.72 261.734125 
L 409.72 248.056 
Q 409.72 246.056 407.72 246.056 
L 370.471563 246.056 
Q 368.471563 246.056 368.471563 248.056 
L 368.471563 261.734125 
Q 368.471563 263.734125 370.471563 263.734125 
z
" style="fill:#ffffff;opacity:0.8;stroke:#cccccc;stroke-linejoin:miter;"/>
    </g>
    <g id="patch_172">
     <path d="M 372.471563 257.654437 
L 392.471563 257.654437 
L 392.471563 250.654437 
L 372.471563 250.654437 
z
" style="fill:#8b0000;opacity:0.4;stroke:#000000;stroke-linejoin:miter;"/>
    </g>
    <g id="text_31">
     <!-- z -->
     <defs>
      <path d="M 5.515625 54.6875 
L 48.1875 54.6875 
L 48.1875 46.484375 
L 14.40625 7.171875 
L 48.1875 7.171875 
L 48.1875 0 
L 4.296875 0 
L 4.296875 8.203125 
L 38.09375 47.515625 
L 5.515625 47.515625 
z
" id="DejaVuSans-122"/>
     </defs>
     <g transform="translate(400.471563 257.654437)scale(0.1 -0.1)">
      <use xlink:href="#DejaVuSans-122"/>
     </g>
    </g>
   </g>
  </g>
  <g id="text_32">
   <!-- Motif 5 Cu 1510 Histogram -->
   <defs>
    <path d="M 9.8125 72.90625 
L 24.515625 72.90625 
L 43.109375 23.296875 
L 61.8125 72.90625 
L 76.515625 72.90625 
L 76.515625 0 
L 66.890625 0 
L 66.890625 64.015625 
L 48.09375 14.015625 
L 38.1875 14.015625 
L 19.390625 64.015625 
L 19.390625 0 
L 9.8125 0 
z
" id="DejaVuSans-77"/>
    <path d="M 37.109375 75.984375 
L 37.109375 68.5 
L 28.515625 68.5 
Q 23.6875 68.5 21.796875 66.546875 
Q 19.921875 64.59375 19.921875 59.515625 
L 19.921875 54.6875 
L 34.71875 54.6875 
L 34.71875 47.703125 
L 19.921875 47.703125 
L 19.921875 0 
L 10.890625 0 
L 10.890625 47.703125 
L 2.296875 47.703125 
L 2.296875 54.6875 
L 10.890625 54.6875 
L 10.890625 58.5 
Q 10.890625 67.625 15.140625 71.796875 
Q 19.390625 75.984375 28.609375 75.984375 
z
" id="DejaVuSans-102"/>
    <path id="DejaVuSans-32"/>
    <path d="M 64.40625 67.28125 
L 64.40625 56.890625 
Q 59.421875 61.53125 53.78125 63.8125 
Q 48.140625 66.109375 41.796875 66.109375 
Q 29.296875 66.109375 22.65625 58.46875 
Q 16.015625 50.828125 16.015625 36.375 
Q 16.015625 21.96875 22.65625 14.328125 
Q 29.296875 6.6875 41.796875 6.6875 
Q 48.140625 6.6875 53.78125 8.984375 
Q 59.421875 11.28125 64.40625 15.921875 
L 64.40625 5.609375 
Q 59.234375 2.09375 53.4375 0.328125 
Q 47.65625 -1.421875 41.21875 -1.421875 
Q 24.65625 -1.421875 15.125 8.703125 
Q 5.609375 18.84375 5.609375 36.375 
Q 5.609375 53.953125 15.125 64.078125 
Q 24.65625 74.21875 41.21875 74.21875 
Q 47.75 74.21875 53.53125 72.484375 
Q 59.328125 70.75 64.40625 67.28125 
z
" id="DejaVuSans-67"/>
    <path d="M 8.5 21.578125 
L 8.5 54.6875 
L 17.484375 54.6875 
L 17.484375 21.921875 
Q 17.484375 14.15625 20.5 10.265625 
Q 23.53125 6.390625 29.59375 6.390625 
Q 36.859375 6.390625 41.078125 11.03125 
Q 45.3125 15.671875 45.3125 23.6875 
L 45.3125 54.6875 
L 54.296875 54.6875 
L 54.296875 0 
L 45.3125 0 
L 45.3125 8.40625 
Q 42.046875 3.421875 37.71875 1 
Q 33.40625 -1.421875 27.6875 -1.421875 
Q 18.265625 -1.421875 13.375 4.4375 
Q 8.5 10.296875 8.5 21.578125 
z
M 31.109375 56 
z
" id="DejaVuSans-117"/>
    <path d="M 9.8125 72.90625 
L 19.671875 72.90625 
L 19.671875 43.015625 
L 55.515625 43.015625 
L 55.515625 72.90625 
L 65.375 72.90625 
L 65.375 0 
L 55.515625 0 
L 55.515625 34.71875 
L 19.671875 34.71875 
L 19.671875 0 
L 9.8125 0 
z
" id="DejaVuSans-72"/>
    <path d="M 45.40625 27.984375 
Q 45.40625 37.75 41.375 43.109375 
Q 37.359375 48.484375 30.078125 48.484375 
Q 22.859375 48.484375 18.828125 43.109375 
Q 14.796875 37.75 14.796875 27.984375 
Q 14.796875 18.265625 18.828125 12.890625 
Q 22.859375 7.515625 30.078125 7.515625 
Q 37.359375 7.515625 41.375 12.890625 
Q 45.40625 18.265625 45.40625 27.984375 
z
M 54.390625 6.78125 
Q 54.390625 -7.171875 48.1875 -13.984375 
Q 42 -20.796875 29.203125 -20.796875 
Q 24.46875 -20.796875 20.265625 -20.09375 
Q 16.0625 -19.390625 12.109375 -17.921875 
L 12.109375 -9.1875 
Q 16.0625 -11.328125 19.921875 -12.34375 
Q 23.78125 -13.375 27.78125 -13.375 
Q 36.625 -13.375 41.015625 -8.765625 
Q 45.40625 -4.15625 45.40625 5.171875 
L 45.40625 9.625 
Q 42.625 4.78125 38.28125 2.390625 
Q 33.9375 0 27.875 0 
Q 17.828125 0 11.671875 7.65625 
Q 5.515625 15.328125 5.515625 27.984375 
Q 5.515625 40.671875 11.671875 48.328125 
Q 17.828125 56 27.875 56 
Q 33.9375 56 38.28125 53.609375 
Q 42.625 51.21875 45.40625 46.390625 
L 45.40625 54.6875 
L 54.390625 54.6875 
z
" id="DejaVuSans-103"/>
    <path d="M 41.109375 46.296875 
Q 39.59375 47.171875 37.8125 47.578125 
Q 36.03125 48 33.890625 48 
Q 26.265625 48 22.1875 43.046875 
Q 18.109375 38.09375 18.109375 28.8125 
L 18.109375 0 
L 9.078125 0 
L 9.078125 54.6875 
L 18.109375 54.6875 
L 18.109375 46.1875 
Q 20.953125 51.171875 25.484375 53.578125 
Q 30.03125 56 36.53125 56 
Q 37.453125 56 38.578125 55.875 
Q 39.703125 55.765625 41.0625 55.515625 
z
" id="DejaVuSans-114"/>
    <path d="M 34.28125 27.484375 
Q 23.390625 27.484375 19.1875 25 
Q 14.984375 22.515625 14.984375 16.5 
Q 14.984375 11.71875 18.140625 8.90625 
Q 21.296875 6.109375 26.703125 6.109375 
Q 34.1875 6.109375 38.703125 11.40625 
Q 43.21875 16.703125 43.21875 25.484375 
L 43.21875 27.484375 
z
M 52.203125 31.203125 
L 52.203125 0 
L 43.21875 0 
L 43.21875 8.296875 
Q 40.140625 3.328125 35.546875 0.953125 
Q 30.953125 -1.421875 24.3125 -1.421875 
Q 15.921875 -1.421875 10.953125 3.296875 
Q 6 8.015625 6 15.921875 
Q 6 25.140625 12.171875 29.828125 
Q 18.359375 34.515625 30.609375 34.515625 
L 43.21875 34.515625 
L 43.21875 35.40625 
Q 43.21875 41.609375 39.140625 45 
Q 35.0625 48.390625 27.6875 48.390625 
Q 23 48.390625 18.546875 47.265625 
Q 14.109375 46.140625 10.015625 43.890625 
L 10.015625 52.203125 
Q 14.9375 54.109375 19.578125 55.046875 
Q 24.21875 56 28.609375 56 
Q 40.484375 56 46.34375 49.84375 
Q 52.203125 43.703125 52.203125 31.203125 
z
" id="DejaVuSans-97"/>
    <path d="M 52 44.1875 
Q 55.375 50.25 60.0625 53.125 
Q 64.75 56 71.09375 56 
Q 79.640625 56 84.28125 50.015625 
Q 88.921875 44.046875 88.921875 33.015625 
L 88.921875 0 
L 79.890625 0 
L 79.890625 32.71875 
Q 79.890625 40.578125 77.09375 44.375 
Q 74.3125 48.1875 68.609375 48.1875 
Q 61.625 48.1875 57.5625 43.546875 
Q 53.515625 38.921875 53.515625 30.90625 
L 53.515625 0 
L 44.484375 0 
L 44.484375 32.71875 
Q 44.484375 40.625 41.703125 44.40625 
Q 38.921875 48.1875 33.109375 48.1875 
Q 26.21875 48.1875 22.15625 43.53125 
Q 18.109375 38.875 18.109375 30.90625 
L 18.109375 0 
L 9.078125 0 
L 9.078125 54.6875 
L 18.109375 54.6875 
L 18.109375 46.1875 
Q 21.1875 51.21875 25.484375 53.609375 
Q 29.78125 56 35.6875 56 
Q 41.65625 56 45.828125 52.96875 
Q 50 49.953125 52 44.1875 
z
" id="DejaVuSans-109"/>
   </defs>
   <g transform="translate(149.588437 16.030125)scale(0.12 -0.12)">
    <use xlink:href="#DejaVuSans-77"/>
    <use x="86.279297" xlink:href="#DejaVuSans-111"/>
    <use x="147.460938" xlink:href="#DejaVuSans-116"/>
    <use x="186.669922" xlink:href="#DejaVuSans-105"/>
    <use x="214.453125" xlink:href="#DejaVuSans-102"/>
    <use x="249.658203" xlink:href="#DejaVuSans-32"/>
    <use x="281.445312" xlink:href="#DejaVuSans-53"/>
    <use x="345.068359" xlink:href="#DejaVuSans-32"/>
    <use x="376.855469" xlink:href="#DejaVuSans-67"/>
    <use x="446.679688" xlink:href="#DejaVuSans-117"/>
    <use x="510.058594" xlink:href="#DejaVuSans-32"/>
    <use x="541.845703" xlink:href="#DejaVuSans-49"/>
    <use x="605.46875" xlink:href="#DejaVuSans-53"/>
    <use x="669.091797" xlink:href="#DejaVuSans-49"/>
    <use x="732.714844" xlink:href="#DejaVuSans-48"/>
    <use x="796.337891" xlink:href="#DejaVuSans-32"/>
    <use x="828.125" xlink:href="#DejaVuSans-72"/>
    <use x="903.320312" xlink:href="#DejaVuSans-105"/>
    <use x="931.103516" xlink:href="#DejaVuSans-115"/>
    <use x="983.203125" xlink:href="#DejaVuSans-116"/>
    <use x="1022.412109" xlink:href="#DejaVuSans-111"/>
    <use x="1083.59375" xlink:href="#DejaVuSans-103"/>
    <use x="1147.070312" xlink:href="#DejaVuSans-114"/>
    <use x="1188.183594" xlink:href="#DejaVuSans-97"/>
    <use x="1249.462891" xlink:href="#DejaVuSans-109"/>
   </g>
  </g>
 </g>
 <defs>
  <clipPath id="pb7bcdc6ccf">
   <rect height="66.528" width="357.12" x="57.6" y="41.472"/>
  </clipPath>
  <clipPath id="p452d2ea432">
   <rect height="66.528" width="357.12" x="57.6" y="141.264"/>
  </clipPath>
  <clipPath id="p263f5d0f84">
   <rect height="66.528" width="357.12" x="57.6" y="241.056"/>
  </clipPath>
 </defs>
</svg>
