<?xml version="1.0" encoding="utf-8" standalone="no"?>
<!DOCTYPE svg PUBLIC "-//W3C//DTD SVG 1.1//EN"
  "http://www.w3.org/Graphics/SVG/1.1/DTD/svg11.dtd">
<!-- Created with matplotlib (https://matplotlib.org/) -->
<svg height="345.6pt" version="1.1" viewBox="0 0 460.8 345.6" width="460.8pt" xmlns="http://www.w3.org/2000/svg" xmlns:xlink="http://www.w3.org/1999/xlink">
 <defs>
  <style type="text/css">
*{stroke-linecap:butt;stroke-linejoin:round;}
  </style>
 </defs>
 <g id="figure_1">
  <g id="patch_1">
   <path d="M 0 345.6 
L 460.8 345.6 
L 460.8 0 
L 0 0 
z
" style="fill:#ffffff;"/>
  </g>
  <g id="axes_1">
   <g id="patch_2">
    <path d="M 57.6 108 
L 414.72 108 
L 414.72 41.472 
L 57.6 41.472 
z
" style="fill:#ffffff;"/>
   </g>
   <g id="patch_3">
    <path clip-path="url(#pb755ac7cbb)" d="M 118.724437 108 
L 123.42186 108 
L 123.42186 93.92 
L 118.724437 93.92 
z
" style="fill:#00008b;opacity:0.4;stroke:#000000;stroke-linejoin:miter;"/>
   </g>
   <g id="patch_4">
    <path clip-path="url(#pb755ac7cbb)" d="M 123.42186 108 
L 128.119282 108 
L 128.119282 96.736 
L 123.42186 96.736 
z
" style="fill:#00008b;opacity:0.4;stroke:#000000;stroke-linejoin:miter;"/>
   </g>
   <g id="patch_5">
    <path clip-path="url(#pb755ac7cbb)" d="M 128.119282 108 
L 132.816705 108 
L 132.816705 91.104 
L 128.119282 91.104 
z
" style="fill:#00008b;opacity:0.4;stroke:#000000;stroke-linejoin:miter;"/>
   </g>
   <g id="patch_6">
    <path clip-path="url(#pb755ac7cbb)" d="M 132.816705 108 
L 137.514127 108 
L 137.514127 81.248 
L 132.816705 81.248 
z
" style="fill:#00008b;opacity:0.4;stroke:#000000;stroke-linejoin:miter;"/>
   </g>
   <g id="patch_7">
    <path clip-path="url(#pb755ac7cbb)" d="M 137.514127 108 
L 142.21155 108 
L 142.21155 81.248 
L 137.514127 81.248 
z
" style="fill:#00008b;opacity:0.4;stroke:#000000;stroke-linejoin:miter;"/>
   </g>
   <g id="patch_8">
    <path clip-path="url(#pb755ac7cbb)" d="M 142.21155 108 
L 146.908972 108 
L 146.908972 78.432 
L 142.21155 78.432 
z
" style="fill:#00008b;opacity:0.4;stroke:#000000;stroke-linejoin:miter;"/>
   </g>
   <g id="patch_9">
    <path clip-path="url(#pb755ac7cbb)" d="M 146.908972 108 
L 151.606395 108 
L 151.606395 99.552 
L 146.908972 99.552 
z
" style="fill:#00008b;opacity:0.4;stroke:#000000;stroke-linejoin:miter;"/>
   </g>
   <g id="patch_10">
    <path clip-path="url(#pb755ac7cbb)" d="M 151.606395 108 
L 156.303817 108 
L 156.303817 98.144 
L 151.606395 98.144 
z
" style="fill:#00008b;opacity:0.4;stroke:#000000;stroke-linejoin:miter;"/>
   </g>
   <g id="patch_11">
    <path clip-path="url(#pb755ac7cbb)" d="M 156.303817 108 
L 161.00124 108 
L 161.00124 98.144 
L 156.303817 98.144 
z
" style="fill:#00008b;opacity:0.4;stroke:#000000;stroke-linejoin:miter;"/>
   </g>
   <g id="patch_12">
    <path clip-path="url(#pb755ac7cbb)" d="M 161.00124 108 
L 165.698662 108 
L 165.698662 75.616 
L 161.00124 75.616 
z
" style="fill:#00008b;opacity:0.4;stroke:#000000;stroke-linejoin:miter;"/>
   </g>
   <g id="patch_13">
    <path clip-path="url(#pb755ac7cbb)" d="M 165.698662 108 
L 170.396085 108 
L 170.396085 92.512 
L 165.698662 92.512 
z
" style="fill:#00008b;opacity:0.4;stroke:#000000;stroke-linejoin:miter;"/>
   </g>
   <g id="patch_14">
    <path clip-path="url(#pb755ac7cbb)" d="M 170.396085 108 
L 175.093507 108 
L 175.093507 60.128 
L 170.396085 60.128 
z
" style="fill:#00008b;opacity:0.4;stroke:#000000;stroke-linejoin:miter;"/>
   </g>
   <g id="patch_15">
    <path clip-path="url(#pb755ac7cbb)" d="M 175.093507 108 
L 179.79093 108 
L 179.79093 55.904 
L 175.093507 55.904 
z
" style="fill:#00008b;opacity:0.4;stroke:#000000;stroke-linejoin:miter;"/>
   </g>
   <g id="patch_16">
    <path clip-path="url(#pb755ac7cbb)" d="M 179.79093 108 
L 184.488352 108 
L 184.488352 64.352 
L 179.79093 64.352 
z
" style="fill:#00008b;opacity:0.4;stroke:#000000;stroke-linejoin:miter;"/>
   </g>
   <g id="patch_17">
    <path clip-path="url(#pb755ac7cbb)" d="M 184.488352 108 
L 189.185775 108 
L 189.185775 44.64 
L 184.488352 44.64 
z
" style="fill:#00008b;opacity:0.4;stroke:#000000;stroke-linejoin:miter;"/>
   </g>
   <g id="patch_18">
    <path clip-path="url(#pb755ac7cbb)" d="M 189.185775 108 
L 193.883197 108 
L 193.883197 71.392 
L 189.185775 71.392 
z
" style="fill:#00008b;opacity:0.4;stroke:#000000;stroke-linejoin:miter;"/>
   </g>
   <g id="patch_19">
    <path clip-path="url(#pb755ac7cbb)" d="M 193.883197 108 
L 198.58062 108 
L 198.58062 57.312 
L 193.883197 57.312 
z
" style="fill:#00008b;opacity:0.4;stroke:#000000;stroke-linejoin:miter;"/>
   </g>
   <g id="patch_20">
    <path clip-path="url(#pb755ac7cbb)" d="M 198.58062 108 
L 203.278042 108 
L 203.278042 53.088 
L 198.58062 53.088 
z
" style="fill:#00008b;opacity:0.4;stroke:#000000;stroke-linejoin:miter;"/>
   </g>
   <g id="patch_21">
    <path clip-path="url(#pb755ac7cbb)" d="M 203.278042 108 
L 207.975465 108 
L 207.975465 72.8 
L 203.278042 72.8 
z
" style="fill:#00008b;opacity:0.4;stroke:#000000;stroke-linejoin:miter;"/>
   </g>
   <g id="patch_22">
    <path clip-path="url(#pb755ac7cbb)" d="M 207.975465 108 
L 212.672887 108 
L 212.672887 77.024 
L 207.975465 77.024 
z
" style="fill:#00008b;opacity:0.4;stroke:#000000;stroke-linejoin:miter;"/>
   </g>
   <g id="patch_23">
    <path clip-path="url(#pb755ac7cbb)" d="M 212.672887 108 
L 217.37031 108 
L 217.37031 68.576 
L 212.672887 68.576 
z
" style="fill:#00008b;opacity:0.4;stroke:#000000;stroke-linejoin:miter;"/>
   </g>
   <g id="patch_24">
    <path clip-path="url(#pb755ac7cbb)" d="M 217.37031 108 
L 222.067732 108 
L 222.067732 85.472 
L 217.37031 85.472 
z
" style="fill:#00008b;opacity:0.4;stroke:#000000;stroke-linejoin:miter;"/>
   </g>
   <g id="patch_25">
    <path clip-path="url(#pb755ac7cbb)" d="M 222.067732 108 
L 226.765155 108 
L 226.765155 84.064 
L 222.067732 84.064 
z
" style="fill:#00008b;opacity:0.4;stroke:#000000;stroke-linejoin:miter;"/>
   </g>
   <g id="patch_26">
    <path clip-path="url(#pb755ac7cbb)" d="M 226.765155 108 
L 231.462577 108 
L 231.462577 84.064 
L 226.765155 84.064 
z
" style="fill:#00008b;opacity:0.4;stroke:#000000;stroke-linejoin:miter;"/>
   </g>
   <g id="patch_27">
    <path clip-path="url(#pb755ac7cbb)" d="M 231.462577 108 
L 236.16 108 
L 236.16 93.92 
L 231.462577 93.92 
z
" style="fill:#00008b;opacity:0.4;stroke:#000000;stroke-linejoin:miter;"/>
   </g>
   <g id="patch_28">
    <path clip-path="url(#pb755ac7cbb)" d="M 236.16 108 
L 240.857423 108 
L 240.857423 79.84 
L 236.16 79.84 
z
" style="fill:#00008b;opacity:0.4;stroke:#000000;stroke-linejoin:miter;"/>
   </g>
   <g id="patch_29">
    <path clip-path="url(#pb755ac7cbb)" d="M 240.857423 108 
L 245.554845 108 
L 245.554845 77.024 
L 240.857423 77.024 
z
" style="fill:#00008b;opacity:0.4;stroke:#000000;stroke-linejoin:miter;"/>
   </g>
   <g id="patch_30">
    <path clip-path="url(#pb755ac7cbb)" d="M 245.554845 108 
L 250.252268 108 
L 250.252268 82.656 
L 245.554845 82.656 
z
" style="fill:#00008b;opacity:0.4;stroke:#000000;stroke-linejoin:miter;"/>
   </g>
   <g id="patch_31">
    <path clip-path="url(#pb755ac7cbb)" d="M 250.252268 108 
L 254.94969 108 
L 254.94969 71.392 
L 250.252268 71.392 
z
" style="fill:#00008b;opacity:0.4;stroke:#000000;stroke-linejoin:miter;"/>
   </g>
   <g id="patch_32">
    <path clip-path="url(#pb755ac7cbb)" d="M 254.94969 108 
L 259.647113 108 
L 259.647113 92.512 
L 254.94969 92.512 
z
" style="fill:#00008b;opacity:0.4;stroke:#000000;stroke-linejoin:miter;"/>
   </g>
   <g id="patch_33">
    <path clip-path="url(#pb755ac7cbb)" d="M 259.647113 108 
L 264.344535 108 
L 264.344535 62.944 
L 259.647113 62.944 
z
" style="fill:#00008b;opacity:0.4;stroke:#000000;stroke-linejoin:miter;"/>
   </g>
   <g id="patch_34">
    <path clip-path="url(#pb755ac7cbb)" d="M 264.344535 108 
L 269.041958 108 
L 269.041958 46.048 
L 264.344535 46.048 
z
" style="fill:#00008b;opacity:0.4;stroke:#000000;stroke-linejoin:miter;"/>
   </g>
   <g id="patch_35">
    <path clip-path="url(#pb755ac7cbb)" d="M 269.041958 108 
L 273.73938 108 
L 273.73938 81.248 
L 269.041958 81.248 
z
" style="fill:#00008b;opacity:0.4;stroke:#000000;stroke-linejoin:miter;"/>
   </g>
   <g id="patch_36">
    <path clip-path="url(#pb755ac7cbb)" d="M 273.73938 108 
L 278.436803 108 
L 278.436803 48.864 
L 273.73938 48.864 
z
" style="fill:#00008b;opacity:0.4;stroke:#000000;stroke-linejoin:miter;"/>
   </g>
   <g id="patch_37">
    <path clip-path="url(#pb755ac7cbb)" d="M 278.436803 108 
L 283.134225 108 
L 283.134225 68.576 
L 278.436803 68.576 
z
" style="fill:#00008b;opacity:0.4;stroke:#000000;stroke-linejoin:miter;"/>
   </g>
   <g id="patch_38">
    <path clip-path="url(#pb755ac7cbb)" d="M 283.134225 108 
L 287.831648 108 
L 287.831648 77.024 
L 283.134225 77.024 
z
" style="fill:#00008b;opacity:0.4;stroke:#000000;stroke-linejoin:miter;"/>
   </g>
   <g id="patch_39">
    <path clip-path="url(#pb755ac7cbb)" d="M 287.831648 108 
L 292.52907 108 
L 292.52907 64.352 
L 287.831648 64.352 
z
" style="fill:#00008b;opacity:0.4;stroke:#000000;stroke-linejoin:miter;"/>
   </g>
   <g id="patch_40">
    <path clip-path="url(#pb755ac7cbb)" d="M 292.52907 108 
L 297.226493 108 
L 297.226493 72.8 
L 292.52907 72.8 
z
" style="fill:#00008b;opacity:0.4;stroke:#000000;stroke-linejoin:miter;"/>
   </g>
   <g id="patch_41">
    <path clip-path="url(#pb755ac7cbb)" d="M 297.226493 108 
L 301.923915 108 
L 301.923915 60.128 
L 297.226493 60.128 
z
" style="fill:#00008b;opacity:0.4;stroke:#000000;stroke-linejoin:miter;"/>
   </g>
   <g id="patch_42">
    <path clip-path="url(#pb755ac7cbb)" d="M 301.923915 108 
L 306.621338 108 
L 306.621338 69.984 
L 301.923915 69.984 
z
" style="fill:#00008b;opacity:0.4;stroke:#000000;stroke-linejoin:miter;"/>
   </g>
   <g id="patch_43">
    <path clip-path="url(#pb755ac7cbb)" d="M 306.621338 108 
L 311.31876 108 
L 311.31876 75.616 
L 306.621338 75.616 
z
" style="fill:#00008b;opacity:0.4;stroke:#000000;stroke-linejoin:miter;"/>
   </g>
   <g id="patch_44">
    <path clip-path="url(#pb755ac7cbb)" d="M 311.31876 108 
L 316.016183 108 
L 316.016183 100.96 
L 311.31876 100.96 
z
" style="fill:#00008b;opacity:0.4;stroke:#000000;stroke-linejoin:miter;"/>
   </g>
   <g id="patch_45">
    <path clip-path="url(#pb755ac7cbb)" d="M 316.016183 108 
L 320.713605 108 
L 320.713605 100.96 
L 316.016183 100.96 
z
" style="fill:#00008b;opacity:0.4;stroke:#000000;stroke-linejoin:miter;"/>
   </g>
   <g id="patch_46">
    <path clip-path="url(#pb755ac7cbb)" d="M 320.713605 108 
L 325.411028 108 
L 325.411028 93.92 
L 320.713605 93.92 
z
" style="fill:#00008b;opacity:0.4;stroke:#000000;stroke-linejoin:miter;"/>
   </g>
   <g id="patch_47">
    <path clip-path="url(#pb755ac7cbb)" d="M 325.411028 108 
L 330.10845 108 
L 330.10845 91.104 
L 325.411028 91.104 
z
" style="fill:#00008b;opacity:0.4;stroke:#000000;stroke-linejoin:miter;"/>
   </g>
   <g id="patch_48">
    <path clip-path="url(#pb755ac7cbb)" d="M 330.10845 108 
L 334.805873 108 
L 334.805873 84.064 
L 330.10845 84.064 
z
" style="fill:#00008b;opacity:0.4;stroke:#000000;stroke-linejoin:miter;"/>
   </g>
   <g id="patch_49">
    <path clip-path="url(#pb755ac7cbb)" d="M 334.805873 108 
L 339.503295 108 
L 339.503295 74.208 
L 334.805873 74.208 
z
" style="fill:#00008b;opacity:0.4;stroke:#000000;stroke-linejoin:miter;"/>
   </g>
   <g id="patch_50">
    <path clip-path="url(#pb755ac7cbb)" d="M 339.503295 108 
L 344.200718 108 
L 344.200718 82.656 
L 339.503295 82.656 
z
" style="fill:#00008b;opacity:0.4;stroke:#000000;stroke-linejoin:miter;"/>
   </g>
   <g id="patch_51">
    <path clip-path="url(#pb755ac7cbb)" d="M 344.200718 108 
L 348.89814 108 
L 348.89814 91.104 
L 344.200718 91.104 
z
" style="fill:#00008b;opacity:0.4;stroke:#000000;stroke-linejoin:miter;"/>
   </g>
   <g id="patch_52">
    <path clip-path="url(#pb755ac7cbb)" d="M 348.89814 108 
L 353.595563 108 
L 353.595563 91.104 
L 348.89814 91.104 
z
" style="fill:#00008b;opacity:0.4;stroke:#000000;stroke-linejoin:miter;"/>
   </g>
   <g id="matplotlib.axis_1">
    <g id="xtick_1">
     <g id="line2d_1">
      <defs>
       <path d="M 0 0 
L 0 3.5 
" id="m7d1d8e3c11" style="stroke:#000000;stroke-width:0.8;"/>
      </defs>
      <g>
       <use style="stroke:#000000;stroke-width:0.8;" x="104.013412" xlink:href="#m7d1d8e3c11" y="108"/>
      </g>
     </g>
     <g id="text_1">
      <!-- −1.0 -->
      <defs>
       <path d="M 10.59375 35.5 
L 73.1875 35.5 
L 73.1875 27.203125 
L 10.59375 27.203125 
z
" id="DejaVuSans-8722"/>
       <path d="M 12.40625 8.296875 
L 28.515625 8.296875 
L 28.515625 63.921875 
L 10.984375 60.40625 
L 10.984375 69.390625 
L 28.421875 72.90625 
L 38.28125 72.90625 
L 38.28125 8.296875 
L 54.390625 8.296875 
L 54.390625 0 
L 12.40625 0 
z
" id="DejaVuSans-49"/>
       <path d="M 10.6875 12.40625 
L 21 12.40625 
L 21 0 
L 10.6875 0 
z
" id="DejaVuSans-46"/>
       <path d="M 31.78125 66.40625 
Q 24.171875 66.40625 20.328125 58.90625 
Q 16.5 51.421875 16.5 36.375 
Q 16.5 21.390625 20.328125 13.890625 
Q 24.171875 6.390625 31.78125 6.390625 
Q 39.453125 6.390625 43.28125 13.890625 
Q 47.125 21.390625 47.125 36.375 
Q 47.125 51.421875 43.28125 58.90625 
Q 39.453125 66.40625 31.78125 66.40625 
z
M 31.78125 74.21875 
Q 44.046875 74.21875 50.515625 64.515625 
Q 56.984375 54.828125 56.984375 36.375 
Q 56.984375 17.96875 50.515625 8.265625 
Q 44.046875 -1.421875 31.78125 -1.421875 
Q 19.53125 -1.421875 13.0625 8.265625 
Q 6.59375 17.96875 6.59375 36.375 
Q 6.59375 54.828125 13.0625 64.515625 
Q 19.53125 74.21875 31.78125 74.21875 
z
" id="DejaVuSans-48"/>
      </defs>
      <g transform="translate(91.872006 122.598437)scale(0.1 -0.1)">
       <use xlink:href="#DejaVuSans-8722"/>
       <use x="83.789062" xlink:href="#DejaVuSans-49"/>
       <use x="147.412109" xlink:href="#DejaVuSans-46"/>
       <use x="179.199219" xlink:href="#DejaVuSans-48"/>
      </g>
     </g>
    </g>
    <g id="xtick_2">
     <g id="line2d_2">
      <g>
       <use style="stroke:#000000;stroke-width:0.8;" x="170.811147" xlink:href="#m7d1d8e3c11" y="108"/>
      </g>
     </g>
     <g id="text_2">
      <!-- −0.5 -->
      <defs>
       <path d="M 10.796875 72.90625 
L 49.515625 72.90625 
L 49.515625 64.59375 
L 19.828125 64.59375 
L 19.828125 46.734375 
Q 21.96875 47.46875 24.109375 47.828125 
Q 26.265625 48.1875 28.421875 48.1875 
Q 40.625 48.1875 47.75 41.5 
Q 54.890625 34.8125 54.890625 23.390625 
Q 54.890625 11.625 47.5625 5.09375 
Q 40.234375 -1.421875 26.90625 -1.421875 
Q 22.3125 -1.421875 17.546875 -0.640625 
Q 12.796875 0.140625 7.71875 1.703125 
L 7.71875 11.625 
Q 12.109375 9.234375 16.796875 8.0625 
Q 21.484375 6.890625 26.703125 6.890625 
Q 35.15625 6.890625 40.078125 11.328125 
Q 45.015625 15.765625 45.015625 23.390625 
Q 45.015625 31 40.078125 35.4375 
Q 35.15625 39.890625 26.703125 39.890625 
Q 22.75 39.890625 18.8125 39.015625 
Q 14.890625 38.140625 10.796875 36.28125 
z
" id="DejaVuSans-53"/>
      </defs>
      <g transform="translate(158.66974 122.598437)scale(0.1 -0.1)">
       <use xlink:href="#DejaVuSans-8722"/>
       <use x="83.789062" xlink:href="#DejaVuSans-48"/>
       <use x="147.412109" xlink:href="#DejaVuSans-46"/>
       <use x="179.199219" xlink:href="#DejaVuSans-53"/>
      </g>
     </g>
    </g>
    <g id="xtick_3">
     <g id="line2d_3">
      <g>
       <use style="stroke:#000000;stroke-width:0.8;" x="237.608881" xlink:href="#m7d1d8e3c11" y="108"/>
      </g>
     </g>
     <g id="text_3">
      <!-- 0.0 -->
      <g transform="translate(229.657318 122.598437)scale(0.1 -0.1)">
       <use xlink:href="#DejaVuSans-48"/>
       <use x="63.623047" xlink:href="#DejaVuSans-46"/>
       <use x="95.410156" xlink:href="#DejaVuSans-48"/>
      </g>
     </g>
    </g>
    <g id="xtick_4">
     <g id="line2d_4">
      <g>
       <use style="stroke:#000000;stroke-width:0.8;" x="304.406615" xlink:href="#m7d1d8e3c11" y="108"/>
      </g>
     </g>
     <g id="text_4">
      <!-- 0.5 -->
      <g transform="translate(296.455052 122.598437)scale(0.1 -0.1)">
       <use xlink:href="#DejaVuSans-48"/>
       <use x="63.623047" xlink:href="#DejaVuSans-46"/>
       <use x="95.410156" xlink:href="#DejaVuSans-53"/>
      </g>
     </g>
    </g>
    <g id="xtick_5">
     <g id="line2d_5">
      <g>
       <use style="stroke:#000000;stroke-width:0.8;" x="371.204349" xlink:href="#m7d1d8e3c11" y="108"/>
      </g>
     </g>
     <g id="text_5">
      <!-- 1.0 -->
      <g transform="translate(363.252786 122.598437)scale(0.1 -0.1)">
       <use xlink:href="#DejaVuSans-49"/>
       <use x="63.623047" xlink:href="#DejaVuSans-46"/>
       <use x="95.410156" xlink:href="#DejaVuSans-48"/>
      </g>
     </g>
    </g>
   </g>
   <g id="matplotlib.axis_2">
    <g id="ytick_1">
     <g id="line2d_6">
      <defs>
       <path d="M 0 0 
L -3.5 0 
" id="mcdbc0982c2" style="stroke:#000000;stroke-width:0.8;"/>
      </defs>
      <g>
       <use style="stroke:#000000;stroke-width:0.8;" x="57.6" xlink:href="#mcdbc0982c2" y="108"/>
      </g>
     </g>
     <g id="text_6">
      <!-- 0.0 -->
      <g transform="translate(34.696875 111.799219)scale(0.1 -0.1)">
       <use xlink:href="#DejaVuSans-48"/>
       <use x="63.623047" xlink:href="#DejaVuSans-46"/>
       <use x="95.410156" xlink:href="#DejaVuSans-48"/>
      </g>
     </g>
    </g>
    <g id="ytick_2">
     <g id="line2d_7">
      <g>
       <use style="stroke:#000000;stroke-width:0.8;" x="57.6" xlink:href="#mcdbc0982c2" y="81.637283"/>
      </g>
     </g>
     <g id="text_7">
      <!-- 0.5 -->
      <g transform="translate(34.696875 85.436502)scale(0.1 -0.1)">
       <use xlink:href="#DejaVuSans-48"/>
       <use x="63.623047" xlink:href="#DejaVuSans-46"/>
       <use x="95.410156" xlink:href="#DejaVuSans-53"/>
      </g>
     </g>
    </g>
    <g id="ytick_3">
     <g id="line2d_8">
      <g>
       <use style="stroke:#000000;stroke-width:0.8;" x="57.6" xlink:href="#mcdbc0982c2" y="55.274566"/>
      </g>
     </g>
     <g id="text_8">
      <!-- 1.0 -->
      <g transform="translate(34.696875 59.073785)scale(0.1 -0.1)">
       <use xlink:href="#DejaVuSans-49"/>
       <use x="63.623047" xlink:href="#DejaVuSans-46"/>
       <use x="95.410156" xlink:href="#DejaVuSans-48"/>
      </g>
     </g>
    </g>
    <g id="text_9">
     <!-- Density -->
     <defs>
      <path d="M 19.671875 64.796875 
L 19.671875 8.109375 
L 31.59375 8.109375 
Q 46.6875 8.109375 53.6875 14.9375 
Q 60.6875 21.78125 60.6875 36.53125 
Q 60.6875 51.171875 53.6875 57.984375 
Q 46.6875 64.796875 31.59375 64.796875 
z
M 9.8125 72.90625 
L 30.078125 72.90625 
Q 51.265625 72.90625 61.171875 64.09375 
Q 71.09375 55.28125 71.09375 36.53125 
Q 71.09375 17.671875 61.125 8.828125 
Q 51.171875 0 30.078125 0 
L 9.8125 0 
z
" id="DejaVuSans-68"/>
      <path d="M 56.203125 29.59375 
L 56.203125 25.203125 
L 14.890625 25.203125 
Q 15.484375 15.921875 20.484375 11.0625 
Q 25.484375 6.203125 34.421875 6.203125 
Q 39.59375 6.203125 44.453125 7.46875 
Q 49.3125 8.734375 54.109375 11.28125 
L 54.109375 2.78125 
Q 49.265625 0.734375 44.1875 -0.34375 
Q 39.109375 -1.421875 33.890625 -1.421875 
Q 20.796875 -1.421875 13.15625 6.1875 
Q 5.515625 13.8125 5.515625 26.8125 
Q 5.515625 40.234375 12.765625 48.109375 
Q 20.015625 56 32.328125 56 
Q 43.359375 56 49.78125 48.890625 
Q 56.203125 41.796875 56.203125 29.59375 
z
M 47.21875 32.234375 
Q 47.125 39.59375 43.09375 43.984375 
Q 39.0625 48.390625 32.421875 48.390625 
Q 24.90625 48.390625 20.390625 44.140625 
Q 15.875 39.890625 15.1875 32.171875 
z
" id="DejaVuSans-101"/>
      <path d="M 54.890625 33.015625 
L 54.890625 0 
L 45.90625 0 
L 45.90625 32.71875 
Q 45.90625 40.484375 42.875 44.328125 
Q 39.84375 48.1875 33.796875 48.1875 
Q 26.515625 48.1875 22.3125 43.546875 
Q 18.109375 38.921875 18.109375 30.90625 
L 18.109375 0 
L 9.078125 0 
L 9.078125 54.6875 
L 18.109375 54.6875 
L 18.109375 46.1875 
Q 21.34375 51.125 25.703125 53.5625 
Q 30.078125 56 35.796875 56 
Q 45.21875 56 50.046875 50.171875 
Q 54.890625 44.34375 54.890625 33.015625 
z
" id="DejaVuSans-110"/>
      <path d="M 44.28125 53.078125 
L 44.28125 44.578125 
Q 40.484375 46.53125 36.375 47.5 
Q 32.28125 48.484375 27.875 48.484375 
Q 21.1875 48.484375 17.84375 46.4375 
Q 14.5 44.390625 14.5 40.28125 
Q 14.5 37.15625 16.890625 35.375 
Q 19.28125 33.59375 26.515625 31.984375 
L 29.59375 31.296875 
Q 39.15625 29.25 43.1875 25.515625 
Q 47.21875 21.78125 47.21875 15.09375 
Q 47.21875 7.46875 41.1875 3.015625 
Q 35.15625 -1.421875 24.609375 -1.421875 
Q 20.21875 -1.421875 15.453125 -0.5625 
Q 10.6875 0.296875 5.421875 2 
L 5.421875 11.28125 
Q 10.40625 8.6875 15.234375 7.390625 
Q 20.0625 6.109375 24.8125 6.109375 
Q 31.15625 6.109375 34.5625 8.28125 
Q 37.984375 10.453125 37.984375 14.40625 
Q 37.984375 18.0625 35.515625 20.015625 
Q 33.0625 21.96875 24.703125 23.78125 
L 21.578125 24.515625 
Q 13.234375 26.265625 9.515625 29.90625 
Q 5.8125 33.546875 5.8125 39.890625 
Q 5.8125 47.609375 11.28125 51.796875 
Q 16.75 56 26.8125 56 
Q 31.78125 56 36.171875 55.265625 
Q 40.578125 54.546875 44.28125 53.078125 
z
" id="DejaVuSans-115"/>
      <path d="M 9.421875 54.6875 
L 18.40625 54.6875 
L 18.40625 0 
L 9.421875 0 
z
M 9.421875 75.984375 
L 18.40625 75.984375 
L 18.40625 64.59375 
L 9.421875 64.59375 
z
" id="DejaVuSans-105"/>
      <path d="M 18.3125 70.21875 
L 18.3125 54.6875 
L 36.8125 54.6875 
L 36.8125 47.703125 
L 18.3125 47.703125 
L 18.3125 18.015625 
Q 18.3125 11.328125 20.140625 9.421875 
Q 21.96875 7.515625 27.59375 7.515625 
L 36.8125 7.515625 
L 36.8125 0 
L 27.59375 0 
Q 17.1875 0 13.234375 3.875 
Q 9.28125 7.765625 9.28125 18.015625 
L 9.28125 47.703125 
L 2.6875 47.703125 
L 2.6875 54.6875 
L 9.28125 54.6875 
L 9.28125 70.21875 
z
" id="DejaVuSans-116"/>
      <path d="M 32.171875 -5.078125 
Q 28.375 -14.84375 24.75 -17.8125 
Q 21.140625 -20.796875 15.09375 -20.796875 
L 7.90625 -20.796875 
L 7.90625 -13.28125 
L 13.1875 -13.28125 
Q 16.890625 -13.28125 18.9375 -11.515625 
Q 21 -9.765625 23.484375 -3.21875 
L 25.09375 0.875 
L 2.984375 54.6875 
L 12.5 54.6875 
L 29.59375 11.921875 
L 46.6875 54.6875 
L 56.203125 54.6875 
z
" id="DejaVuSans-121"/>
     </defs>
     <g transform="translate(28.617187 93.744594)rotate(-90)scale(0.1 -0.1)">
      <use xlink:href="#DejaVuSans-68"/>
      <use x="77.001953" xlink:href="#DejaVuSans-101"/>
      <use x="138.525391" xlink:href="#DejaVuSans-110"/>
      <use x="201.904297" xlink:href="#DejaVuSans-115"/>
      <use x="254.003906" xlink:href="#DejaVuSans-105"/>
      <use x="281.787109" xlink:href="#DejaVuSans-116"/>
      <use x="320.996094" xlink:href="#DejaVuSans-121"/>
     </g>
    </g>
   </g>
   <g id="line2d_9">
    <path clip-path="url(#pb755ac7cbb)" d="M 73.832727 107.982635 
L 77.112066 107.964619 
L 80.391405 107.930952 
L 83.670744 107.870872 
L 86.950083 107.76845 
L 90.229421 107.601619 
L 93.50876 107.341906 
L 96.788099 106.955426 
L 100.067438 106.405582 
L 103.346777 105.657676 
L 106.626116 104.68516 
L 109.905455 103.476688 
L 113.184793 102.042579 
L 116.464132 100.418967 
L 119.743471 98.667953 
L 123.02281 96.872546 
L 126.302149 95.126137 
L 129.581488 93.517499 
L 132.860826 92.113679 
L 136.140165 90.944208 
L 139.419504 89.990511 
L 142.698843 89.183872 
L 145.978182 88.413731 
L 149.257521 87.545759 
L 152.53686 86.446624 
L 155.816198 85.010455 
L 159.095537 83.181268 
L 162.374876 80.966458 
L 165.654215 78.438555 
L 168.933554 75.725188 
L 172.212893 72.989915 
L 175.492231 70.408339 
L 178.77157 68.144577 
L 182.050909 66.332375 
L 185.330248 65.063466 
L 188.609587 64.383645 
L 191.888926 64.295153 
L 195.168264 64.762928 
L 198.447603 65.722235 
L 201.726942 67.085981 
L 205.006281 68.751171 
L 208.28562 70.604862 
L 211.564959 72.530314 
L 214.844298 74.413692 
L 218.123636 76.151063 
L 221.402975 77.654765 
L 224.682314 78.858018 
L 227.961653 79.716881 
L 231.240992 80.209355 
L 234.520331 80.332253 
L 237.799669 80.097171 
L 241.079008 79.527146 
L 244.358347 78.655219 
L 247.637686 77.525191 
L 250.917025 76.193714 
L 254.196364 74.731835 
L 257.475702 73.223943 
L 260.755041 71.762735 
L 264.03438 70.4404 
L 267.313719 69.33795 
L 270.593058 68.515855 
L 273.872397 68.009131 
L 277.151736 67.828692 
L 280.431074 67.968504 
L 283.710413 68.415711 
L 286.989752 69.159496 
L 290.269091 70.19465 
L 293.54843 71.517755 
L 296.827769 73.116898 
L 300.107107 74.958828 
L 303.386446 76.979143 
L 306.665785 79.080777 
L 309.945124 81.143526 
L 313.224463 83.043624 
L 316.503802 84.678658 
L 319.78314 85.990879 
L 323.062479 86.981985 
L 326.341818 87.714772 
L 329.621157 88.300779 
L 332.900496 88.876995 
L 336.179835 89.577492 
L 339.459174 90.506859 
L 342.738512 91.721373 
L 346.017851 93.221415 
L 349.29719 94.955636 
L 352.576529 96.834613 
L 355.855868 98.749918 
L 359.135207 100.59393 
L 362.414545 102.276309 
L 365.693884 103.73452 
L 368.973223 104.937521 
L 372.252562 105.883411 
L 375.531901 106.592895 
L 378.81124 107.100852 
L 382.090579 107.448109 
L 385.369917 107.674828 
L 388.649256 107.816201 
L 391.928595 107.900391 
L 395.207934 107.94827 
L 398.487273 107.974269 
" style="fill:none;stroke:#00008b;stroke-linecap:square;stroke-width:4;"/>
   </g>
   <g id="patch_53">
    <path d="M 57.6 108 
L 57.6 41.472 
" style="fill:none;stroke:#000000;stroke-linecap:square;stroke-linejoin:miter;stroke-width:0.8;"/>
   </g>
   <g id="patch_54">
    <path d="M 414.72 108 
L 414.72 41.472 
" style="fill:none;stroke:#000000;stroke-linecap:square;stroke-linejoin:miter;stroke-width:0.8;"/>
   </g>
   <g id="patch_55">
    <path d="M 57.6 108 
L 414.72 108 
" style="fill:none;stroke:#000000;stroke-linecap:square;stroke-linejoin:miter;stroke-width:0.8;"/>
   </g>
   <g id="patch_56">
    <path d="M 57.6 41.472 
L 414.72 41.472 
" style="fill:none;stroke:#000000;stroke-linecap:square;stroke-linejoin:miter;stroke-width:0.8;"/>
   </g>
   <g id="legend_1">
    <g id="patch_57">
     <path d="M 369.80125 64.150125 
L 407.72 64.150125 
Q 409.72 64.150125 409.72 62.150125 
L 409.72 48.472 
Q 409.72 46.472 407.72 46.472 
L 369.80125 46.472 
Q 367.80125 46.472 367.80125 48.472 
L 367.80125 62.150125 
Q 367.80125 64.150125 369.80125 64.150125 
z
" style="fill:#ffffff;opacity:0.8;stroke:#cccccc;stroke-linejoin:miter;"/>
    </g>
    <g id="patch_58">
     <path d="M 371.80125 58.070438 
L 391.80125 58.070438 
L 391.80125 51.070438 
L 371.80125 51.070438 
z
" style="fill:#00008b;opacity:0.4;stroke:#000000;stroke-linejoin:miter;"/>
    </g>
    <g id="text_10">
     <!-- x -->
     <defs>
      <path d="M 54.890625 54.6875 
L 35.109375 28.078125 
L 55.90625 0 
L 45.3125 0 
L 29.390625 21.484375 
L 13.484375 0 
L 2.875 0 
L 24.125 28.609375 
L 4.6875 54.6875 
L 15.28125 54.6875 
L 29.78125 35.203125 
L 44.28125 54.6875 
z
" id="DejaVuSans-120"/>
     </defs>
     <g transform="translate(399.80125 58.070438)scale(0.1 -0.1)">
      <use xlink:href="#DejaVuSans-120"/>
     </g>
    </g>
   </g>
  </g>
  <g id="axes_2">
   <g id="patch_59">
    <path d="M 57.6 207.792 
L 414.72 207.792 
L 414.72 141.264 
L 57.6 141.264 
z
" style="fill:#ffffff;"/>
   </g>
   <g id="patch_60">
    <path clip-path="url(#p018208f66a)" d="M 115.939948 207.792 
L 120.74875 207.792 
L 120.74875 202.918154 
L 115.939948 202.918154 
z
" style="fill:#006400;opacity:0.4;stroke:#000000;stroke-linejoin:miter;"/>
   </g>
   <g id="patch_61">
    <path clip-path="url(#p018208f66a)" d="M 120.74875 207.792 
L 125.557552 207.792 
L 125.557552 206.573538 
L 120.74875 206.573538 
z
" style="fill:#006400;opacity:0.4;stroke:#000000;stroke-linejoin:miter;"/>
   </g>
   <g id="patch_62">
    <path clip-path="url(#p018208f66a)" d="M 125.557552 207.792 
L 130.366354 207.792 
L 130.366354 194.388923 
L 125.557552 194.388923 
z
" style="fill:#006400;opacity:0.4;stroke:#000000;stroke-linejoin:miter;"/>
   </g>
   <g id="patch_63">
    <path clip-path="url(#p018208f66a)" d="M 130.366354 207.792 
L 135.175156 207.792 
L 135.175156 199.262769 
L 130.366354 199.262769 
z
" style="fill:#006400;opacity:0.4;stroke:#000000;stroke-linejoin:miter;"/>
   </g>
   <g id="patch_64">
    <path clip-path="url(#p018208f66a)" d="M 135.175156 207.792 
L 139.983958 207.792 
L 139.983958 198.044308 
L 135.175156 198.044308 
z
" style="fill:#006400;opacity:0.4;stroke:#000000;stroke-linejoin:miter;"/>
   </g>
   <g id="patch_65">
    <path clip-path="url(#p018208f66a)" d="M 139.983958 207.792 
L 144.79276 207.792 
L 144.79276 191.952 
L 139.983958 191.952 
z
" style="fill:#006400;opacity:0.4;stroke:#000000;stroke-linejoin:miter;"/>
   </g>
   <g id="patch_66">
    <path clip-path="url(#p018208f66a)" d="M 144.79276 207.792 
L 149.601562 207.792 
L 149.601562 190.733538 
L 144.79276 190.733538 
z
" style="fill:#006400;opacity:0.4;stroke:#000000;stroke-linejoin:miter;"/>
   </g>
   <g id="patch_67">
    <path clip-path="url(#p018208f66a)" d="M 149.601562 207.792 
L 154.410364 207.792 
L 154.410364 184.641231 
L 149.601562 184.641231 
z
" style="fill:#006400;opacity:0.4;stroke:#000000;stroke-linejoin:miter;"/>
   </g>
   <g id="patch_68">
    <path clip-path="url(#p018208f66a)" d="M 154.410364 207.792 
L 159.219167 207.792 
L 159.219167 182.204308 
L 154.410364 182.204308 
z
" style="fill:#006400;opacity:0.4;stroke:#000000;stroke-linejoin:miter;"/>
   </g>
   <g id="patch_69">
    <path clip-path="url(#p018208f66a)" d="M 159.219167 207.792 
L 164.027969 207.792 
L 164.027969 183.422769 
L 159.219167 183.422769 
z
" style="fill:#006400;opacity:0.4;stroke:#000000;stroke-linejoin:miter;"/>
   </g>
   <g id="patch_70">
    <path clip-path="url(#p018208f66a)" d="M 164.027969 207.792 
L 168.836771 207.792 
L 168.836771 172.456615 
L 164.027969 172.456615 
z
" style="fill:#006400;opacity:0.4;stroke:#000000;stroke-linejoin:miter;"/>
   </g>
   <g id="patch_71">
    <path clip-path="url(#p018208f66a)" d="M 168.836771 207.792 
L 173.645573 207.792 
L 173.645573 168.801231 
L 168.836771 168.801231 
z
" style="fill:#006400;opacity:0.4;stroke:#000000;stroke-linejoin:miter;"/>
   </g>
   <g id="patch_72">
    <path clip-path="url(#p018208f66a)" d="M 173.645573 207.792 
L 178.454375 207.792 
L 178.454375 172.456615 
L 173.645573 172.456615 
z
" style="fill:#006400;opacity:0.4;stroke:#000000;stroke-linejoin:miter;"/>
   </g>
   <g id="patch_73">
    <path clip-path="url(#p018208f66a)" d="M 178.454375 207.792 
L 183.263177 207.792 
L 183.263177 184.641231 
L 178.454375 184.641231 
z
" style="fill:#006400;opacity:0.4;stroke:#000000;stroke-linejoin:miter;"/>
   </g>
   <g id="patch_74">
    <path clip-path="url(#p018208f66a)" d="M 183.263177 207.792 
L 188.071979 207.792 
L 188.071979 172.456615 
L 183.263177 172.456615 
z
" style="fill:#006400;opacity:0.4;stroke:#000000;stroke-linejoin:miter;"/>
   </g>
   <g id="patch_75">
    <path clip-path="url(#p018208f66a)" d="M 188.071979 207.792 
L 192.880781 207.792 
L 192.880781 165.145846 
L 188.071979 165.145846 
z
" style="fill:#006400;opacity:0.4;stroke:#000000;stroke-linejoin:miter;"/>
   </g>
   <g id="patch_76">
    <path clip-path="url(#p018208f66a)" d="M 192.880781 207.792 
L 197.689583 207.792 
L 197.689583 171.238154 
L 192.880781 171.238154 
z
" style="fill:#006400;opacity:0.4;stroke:#000000;stroke-linejoin:miter;"/>
   </g>
   <g id="patch_77">
    <path clip-path="url(#p018208f66a)" d="M 197.689583 207.792 
L 202.498385 207.792 
L 202.498385 163.927385 
L 197.689583 163.927385 
z
" style="fill:#006400;opacity:0.4;stroke:#000000;stroke-linejoin:miter;"/>
   </g>
   <g id="patch_78">
    <path clip-path="url(#p018208f66a)" d="M 202.498385 207.792 
L 207.307187 207.792 
L 207.307187 155.398154 
L 202.498385 155.398154 
z
" style="fill:#006400;opacity:0.4;stroke:#000000;stroke-linejoin:miter;"/>
   </g>
   <g id="patch_79">
    <path clip-path="url(#p018208f66a)" d="M 207.307187 207.792 
L 212.11599 207.792 
L 212.11599 152.961231 
L 207.307187 152.961231 
z
" style="fill:#006400;opacity:0.4;stroke:#000000;stroke-linejoin:miter;"/>
   </g>
   <g id="patch_80">
    <path clip-path="url(#p018208f66a)" d="M 212.11599 207.792 
L 216.924792 207.792 
L 216.924792 165.145846 
L 212.11599 165.145846 
z
" style="fill:#006400;opacity:0.4;stroke:#000000;stroke-linejoin:miter;"/>
   </g>
   <g id="patch_81">
    <path clip-path="url(#p018208f66a)" d="M 216.924792 207.792 
L 221.733594 207.792 
L 221.733594 180.985846 
L 216.924792 180.985846 
z
" style="fill:#006400;opacity:0.4;stroke:#000000;stroke-linejoin:miter;"/>
   </g>
   <g id="patch_82">
    <path clip-path="url(#p018208f66a)" d="M 221.733594 207.792 
L 226.542396 207.792 
L 226.542396 194.388923 
L 221.733594 194.388923 
z
" style="fill:#006400;opacity:0.4;stroke:#000000;stroke-linejoin:miter;"/>
   </g>
   <g id="patch_83">
    <path clip-path="url(#p018208f66a)" d="M 226.542396 207.792 
L 231.351198 207.792 
L 231.351198 191.952 
L 226.542396 191.952 
z
" style="fill:#006400;opacity:0.4;stroke:#000000;stroke-linejoin:miter;"/>
   </g>
   <g id="patch_84">
    <path clip-path="url(#p018208f66a)" d="M 231.351198 207.792 
L 236.16 207.792 
L 236.16 199.262769 
L 231.351198 199.262769 
z
" style="fill:#006400;opacity:0.4;stroke:#000000;stroke-linejoin:miter;"/>
   </g>
   <g id="patch_85">
    <path clip-path="url(#p018208f66a)" d="M 236.16 207.792 
L 240.968802 207.792 
L 240.968802 195.607385 
L 236.16 195.607385 
z
" style="fill:#006400;opacity:0.4;stroke:#000000;stroke-linejoin:miter;"/>
   </g>
   <g id="patch_86">
    <path clip-path="url(#p018208f66a)" d="M 240.968802 207.792 
L 245.777604 207.792 
L 245.777604 199.262769 
L 240.968802 199.262769 
z
" style="fill:#006400;opacity:0.4;stroke:#000000;stroke-linejoin:miter;"/>
   </g>
   <g id="patch_87">
    <path clip-path="url(#p018208f66a)" d="M 245.777604 207.792 
L 250.586406 207.792 
L 250.586406 190.733538 
L 245.777604 190.733538 
z
" style="fill:#006400;opacity:0.4;stroke:#000000;stroke-linejoin:miter;"/>
   </g>
   <g id="patch_88">
    <path clip-path="url(#p018208f66a)" d="M 250.586406 207.792 
L 255.395208 207.792 
L 255.395208 177.330462 
L 250.586406 177.330462 
z
" style="fill:#006400;opacity:0.4;stroke:#000000;stroke-linejoin:miter;"/>
   </g>
   <g id="patch_89">
    <path clip-path="url(#p018208f66a)" d="M 255.395208 207.792 
L 260.20401 207.792 
L 260.20401 179.767385 
L 255.395208 179.767385 
z
" style="fill:#006400;opacity:0.4;stroke:#000000;stroke-linejoin:miter;"/>
   </g>
   <g id="patch_90">
    <path clip-path="url(#p018208f66a)" d="M 260.20401 207.792 
L 265.012813 207.792 
L 265.012813 144.432 
L 260.20401 144.432 
z
" style="fill:#006400;opacity:0.4;stroke:#000000;stroke-linejoin:miter;"/>
   </g>
   <g id="patch_91">
    <path clip-path="url(#p018208f66a)" d="M 265.012813 207.792 
L 269.821615 207.792 
L 269.821615 152.961231 
L 265.012813 152.961231 
z
" style="fill:#006400;opacity:0.4;stroke:#000000;stroke-linejoin:miter;"/>
   </g>
   <g id="patch_92">
    <path clip-path="url(#p018208f66a)" d="M 269.821615 207.792 
L 274.630417 207.792 
L 274.630417 155.398154 
L 269.821615 155.398154 
z
" style="fill:#006400;opacity:0.4;stroke:#000000;stroke-linejoin:miter;"/>
   </g>
   <g id="patch_93">
    <path clip-path="url(#p018208f66a)" d="M 274.630417 207.792 
L 279.439219 207.792 
L 279.439219 166.364308 
L 274.630417 166.364308 
z
" style="fill:#006400;opacity:0.4;stroke:#000000;stroke-linejoin:miter;"/>
   </g>
   <g id="patch_94">
    <path clip-path="url(#p018208f66a)" d="M 279.439219 207.792 
L 284.248021 207.792 
L 284.248021 171.238154 
L 279.439219 171.238154 
z
" style="fill:#006400;opacity:0.4;stroke:#000000;stroke-linejoin:miter;"/>
   </g>
   <g id="patch_95">
    <path clip-path="url(#p018208f66a)" d="M 284.248021 207.792 
L 289.056823 207.792 
L 289.056823 172.456615 
L 284.248021 172.456615 
z
" style="fill:#006400;opacity:0.4;stroke:#000000;stroke-linejoin:miter;"/>
   </g>
   <g id="patch_96">
    <path clip-path="url(#p018208f66a)" d="M 289.056823 207.792 
L 293.865625 207.792 
L 293.865625 179.767385 
L 289.056823 179.767385 
z
" style="fill:#006400;opacity:0.4;stroke:#000000;stroke-linejoin:miter;"/>
   </g>
   <g id="patch_97">
    <path clip-path="url(#p018208f66a)" d="M 293.865625 207.792 
L 298.674427 207.792 
L 298.674427 167.582769 
L 293.865625 167.582769 
z
" style="fill:#006400;opacity:0.4;stroke:#000000;stroke-linejoin:miter;"/>
   </g>
   <g id="patch_98">
    <path clip-path="url(#p018208f66a)" d="M 298.674427 207.792 
L 303.483229 207.792 
L 303.483229 176.112 
L 298.674427 176.112 
z
" style="fill:#006400;opacity:0.4;stroke:#000000;stroke-linejoin:miter;"/>
   </g>
   <g id="patch_99">
    <path clip-path="url(#p018208f66a)" d="M 303.483229 207.792 
L 308.292031 207.792 
L 308.292031 180.985846 
L 303.483229 180.985846 
z
" style="fill:#006400;opacity:0.4;stroke:#000000;stroke-linejoin:miter;"/>
   </g>
   <g id="patch_100">
    <path clip-path="url(#p018208f66a)" d="M 308.292031 207.792 
L 313.100833 207.792 
L 313.100833 180.985846 
L 308.292031 180.985846 
z
" style="fill:#006400;opacity:0.4;stroke:#000000;stroke-linejoin:miter;"/>
   </g>
   <g id="patch_101">
    <path clip-path="url(#p018208f66a)" d="M 313.100833 207.792 
L 317.909636 207.792 
L 317.909636 176.112 
L 313.100833 176.112 
z
" style="fill:#006400;opacity:0.4;stroke:#000000;stroke-linejoin:miter;"/>
   </g>
   <g id="patch_102">
    <path clip-path="url(#p018208f66a)" d="M 317.909636 207.792 
L 322.718438 207.792 
L 322.718438 188.296615 
L 317.909636 188.296615 
z
" style="fill:#006400;opacity:0.4;stroke:#000000;stroke-linejoin:miter;"/>
   </g>
   <g id="patch_103">
    <path clip-path="url(#p018208f66a)" d="M 322.718438 207.792 
L 327.52724 207.792 
L 327.52724 188.296615 
L 322.718438 188.296615 
z
" style="fill:#006400;opacity:0.4;stroke:#000000;stroke-linejoin:miter;"/>
   </g>
   <g id="patch_104">
    <path clip-path="url(#p018208f66a)" d="M 327.52724 207.792 
L 332.336042 207.792 
L 332.336042 202.918154 
L 327.52724 202.918154 
z
" style="fill:#006400;opacity:0.4;stroke:#000000;stroke-linejoin:miter;"/>
   </g>
   <g id="patch_105">
    <path clip-path="url(#p018208f66a)" d="M 332.336042 207.792 
L 337.144844 207.792 
L 337.144844 200.481231 
L 332.336042 200.481231 
z
" style="fill:#006400;opacity:0.4;stroke:#000000;stroke-linejoin:miter;"/>
   </g>
   <g id="patch_106">
    <path clip-path="url(#p018208f66a)" d="M 337.144844 207.792 
L 341.953646 207.792 
L 341.953646 194.388923 
L 337.144844 194.388923 
z
" style="fill:#006400;opacity:0.4;stroke:#000000;stroke-linejoin:miter;"/>
   </g>
   <g id="patch_107">
    <path clip-path="url(#p018208f66a)" d="M 341.953646 207.792 
L 346.762448 207.792 
L 346.762448 201.699692 
L 341.953646 201.699692 
z
" style="fill:#006400;opacity:0.4;stroke:#000000;stroke-linejoin:miter;"/>
   </g>
   <g id="patch_108">
    <path clip-path="url(#p018208f66a)" d="M 346.762448 207.792 
L 351.57125 207.792 
L 351.57125 198.044308 
L 346.762448 198.044308 
z
" style="fill:#006400;opacity:0.4;stroke:#000000;stroke-linejoin:miter;"/>
   </g>
   <g id="patch_109">
    <path clip-path="url(#p018208f66a)" d="M 351.57125 207.792 
L 356.380052 207.792 
L 356.380052 205.355077 
L 351.57125 205.355077 
z
" style="fill:#006400;opacity:0.4;stroke:#000000;stroke-linejoin:miter;"/>
   </g>
   <g id="matplotlib.axis_3">
    <g id="xtick_6">
     <g id="line2d_10">
      <g>
       <use style="stroke:#000000;stroke-width:0.8;" x="98.934218" xlink:href="#m7d1d8e3c11" y="207.792"/>
      </g>
     </g>
     <g id="text_11">
      <!-- −1.0 -->
      <g transform="translate(86.792811 222.390437)scale(0.1 -0.1)">
       <use xlink:href="#DejaVuSans-8722"/>
       <use x="83.789062" xlink:href="#DejaVuSans-49"/>
       <use x="147.412109" xlink:href="#DejaVuSans-46"/>
       <use x="179.199219" xlink:href="#DejaVuSans-48"/>
      </g>
     </g>
    </g>
    <g id="xtick_7">
     <g id="line2d_11">
      <g>
       <use style="stroke:#000000;stroke-width:0.8;" x="168.234145" xlink:href="#m7d1d8e3c11" y="207.792"/>
      </g>
     </g>
     <g id="text_12">
      <!-- −0.5 -->
      <g transform="translate(156.092739 222.390437)scale(0.1 -0.1)">
       <use xlink:href="#DejaVuSans-8722"/>
       <use x="83.789062" xlink:href="#DejaVuSans-48"/>
       <use x="147.412109" xlink:href="#DejaVuSans-46"/>
       <use x="179.199219" xlink:href="#DejaVuSans-53"/>
      </g>
     </g>
    </g>
    <g id="xtick_8">
     <g id="line2d_12">
      <g>
       <use style="stroke:#000000;stroke-width:0.8;" x="237.534073" xlink:href="#m7d1d8e3c11" y="207.792"/>
      </g>
     </g>
     <g id="text_13">
      <!-- 0.0 -->
      <g transform="translate(229.58251 222.390437)scale(0.1 -0.1)">
       <use xlink:href="#DejaVuSans-48"/>
       <use x="63.623047" xlink:href="#DejaVuSans-46"/>
       <use x="95.410156" xlink:href="#DejaVuSans-48"/>
      </g>
     </g>
    </g>
    <g id="xtick_9">
     <g id="line2d_13">
      <g>
       <use style="stroke:#000000;stroke-width:0.8;" x="306.834" xlink:href="#m7d1d8e3c11" y="207.792"/>
      </g>
     </g>
     <g id="text_14">
      <!-- 0.5 -->
      <g transform="translate(298.882438 222.390437)scale(0.1 -0.1)">
       <use xlink:href="#DejaVuSans-48"/>
       <use x="63.623047" xlink:href="#DejaVuSans-46"/>
       <use x="95.410156" xlink:href="#DejaVuSans-53"/>
      </g>
     </g>
    </g>
    <g id="xtick_10">
     <g id="line2d_14">
      <g>
       <use style="stroke:#000000;stroke-width:0.8;" x="376.133928" xlink:href="#m7d1d8e3c11" y="207.792"/>
      </g>
     </g>
     <g id="text_15">
      <!-- 1.0 -->
      <g transform="translate(368.182365 222.390437)scale(0.1 -0.1)">
       <use xlink:href="#DejaVuSans-49"/>
       <use x="63.623047" xlink:href="#DejaVuSans-46"/>
       <use x="95.410156" xlink:href="#DejaVuSans-48"/>
      </g>
     </g>
    </g>
   </g>
   <g id="matplotlib.axis_4">
    <g id="ytick_4">
     <g id="line2d_15">
      <g>
       <use style="stroke:#000000;stroke-width:0.8;" x="57.6" xlink:href="#mcdbc0982c2" y="207.792"/>
      </g>
     </g>
     <g id="text_16">
      <!-- 0.0 -->
      <g transform="translate(34.696875 211.591219)scale(0.1 -0.1)">
       <use xlink:href="#DejaVuSans-48"/>
       <use x="63.623047" xlink:href="#DejaVuSans-46"/>
       <use x="95.410156" xlink:href="#DejaVuSans-48"/>
      </g>
     </g>
    </g>
    <g id="ytick_5">
     <g id="line2d_16">
      <g>
       <use style="stroke:#000000;stroke-width:0.8;" x="57.6" xlink:href="#mcdbc0982c2" y="185.280441"/>
      </g>
     </g>
     <g id="text_17">
      <!-- 0.5 -->
      <g transform="translate(34.696875 189.07966)scale(0.1 -0.1)">
       <use xlink:href="#DejaVuSans-48"/>
       <use x="63.623047" xlink:href="#DejaVuSans-46"/>
       <use x="95.410156" xlink:href="#DejaVuSans-53"/>
      </g>
     </g>
    </g>
    <g id="ytick_6">
     <g id="line2d_17">
      <g>
       <use style="stroke:#000000;stroke-width:0.8;" x="57.6" xlink:href="#mcdbc0982c2" y="162.768883"/>
      </g>
     </g>
     <g id="text_18">
      <!-- 1.0 -->
      <g transform="translate(34.696875 166.568102)scale(0.1 -0.1)">
       <use xlink:href="#DejaVuSans-49"/>
       <use x="63.623047" xlink:href="#DejaVuSans-46"/>
       <use x="95.410156" xlink:href="#DejaVuSans-48"/>
      </g>
     </g>
    </g>
    <g id="text_19">
     <!-- Density -->
     <g transform="translate(28.617187 193.536594)rotate(-90)scale(0.1 -0.1)">
      <use xlink:href="#DejaVuSans-68"/>
      <use x="77.001953" xlink:href="#DejaVuSans-101"/>
      <use x="138.525391" xlink:href="#DejaVuSans-110"/>
      <use x="201.904297" xlink:href="#DejaVuSans-115"/>
      <use x="254.003906" xlink:href="#DejaVuSans-105"/>
      <use x="281.787109" xlink:href="#DejaVuSans-116"/>
      <use x="320.996094" xlink:href="#DejaVuSans-121"/>
     </g>
    </g>
   </g>
   <g id="line2d_18">
    <path clip-path="url(#p018208f66a)" d="M 73.832727 207.785363 
L 77.112066 207.778026 
L 80.391405 207.763933 
L 83.670744 207.738162 
L 86.950083 207.693269 
L 90.229421 207.618695 
L 93.50876 207.500432 
L 96.788099 207.321169 
L 100.067438 207.061092 
L 103.346777 206.699378 
L 106.626116 206.21625 
L 109.905455 205.595215 
L 113.184793 204.824986 
L 116.464132 203.90057 
L 119.743471 202.82321 
L 123.02281 201.599218 
L 126.302149 200.238111 
L 129.581488 198.750716 
L 132.860826 197.147896 
L 136.140165 195.440316 
L 139.419504 193.639278 
L 142.698843 191.758356 
L 145.978182 189.815398 
L 149.257521 187.834393 
L 152.53686 185.846545 
L 155.816198 183.889765 
L 159.095537 182.005741 
L 162.374876 180.234178 
L 165.654215 178.604901 
L 168.933554 177.129972 
L 172.212893 175.798994 
L 175.492231 174.58073 
L 178.77157 173.432461 
L 182.050909 172.315833 
L 185.330248 171.215181 
L 188.609587 170.152837 
L 191.888926 169.196238 
L 195.168264 168.453621 
L 198.447603 168.05807 
L 201.726942 168.142577 
L 205.006281 168.811119 
L 208.28562 170.111898 
L 211.564959 172.018783 
L 214.844298 174.425385 
L 218.123636 177.153406 
L 221.402975 179.973529 
L 224.682314 182.634187 
L 227.961653 184.892153 
L 231.240992 186.539375 
L 234.520331 187.4227 
L 237.799669 187.455778 
L 241.079008 186.624478 
L 244.358347 184.987608 
L 247.637686 182.673775 
L 250.917025 179.873566 
L 254.196364 176.825209 
L 257.475702 173.792355 
L 260.755041 171.034767 
L 264.03438 168.775802 
L 267.313719 167.173122 
L 270.593058 166.299711 
L 273.872397 166.140351 
L 277.151736 166.604673 
L 280.431074 167.553285 
L 283.710413 168.82991 
L 286.989752 170.291461 
L 290.269091 171.829492 
L 293.54843 173.379855 
L 296.827769 174.921045 
L 300.107107 176.464386 
L 303.386446 178.040153 
L 306.665785 179.683269 
L 309.945124 181.420991 
L 313.224463 183.264032 
L 316.503802 185.201932 
L 319.78314 187.203293 
L 323.062479 189.220921 
L 326.341818 191.200964 
L 329.621157 193.093818 
L 332.900496 194.863689 
L 336.179835 196.493834 
L 339.459174 197.985921 
L 342.738512 199.35407 
L 346.017851 200.616072 
L 349.29719 201.785167 
L 352.576529 202.865178 
L 355.855868 203.85021 
L 359.135207 204.72825 
L 362.414545 205.486695 
L 365.693884 206.117565 
L 368.973223 206.620704 
L 372.252562 207.004375 
L 375.531901 207.283629 
L 378.81124 207.477428 
L 382.090579 207.60558 
L 385.369917 207.686292 
L 388.649256 207.734691 
L 391.928595 207.762316 
L 395.207934 207.777321 
L 398.487273 207.785074 
" style="fill:none;stroke:#006400;stroke-linecap:square;stroke-width:4;"/>
   </g>
   <g id="patch_110">
    <path d="M 57.6 207.792 
L 57.6 141.264 
" style="fill:none;stroke:#000000;stroke-linecap:square;stroke-linejoin:miter;stroke-width:0.8;"/>
   </g>
   <g id="patch_111">
    <path d="M 414.72 207.792 
L 414.72 141.264 
" style="fill:none;stroke:#000000;stroke-linecap:square;stroke-linejoin:miter;stroke-width:0.8;"/>
   </g>
   <g id="patch_112">
    <path d="M 57.6 207.792 
L 414.72 207.792 
" style="fill:none;stroke:#000000;stroke-linecap:square;stroke-linejoin:miter;stroke-width:0.8;"/>
   </g>
   <g id="patch_113">
    <path d="M 57.6 141.264 
L 414.72 141.264 
" style="fill:none;stroke:#000000;stroke-linecap:square;stroke-linejoin:miter;stroke-width:0.8;"/>
   </g>
   <g id="legend_2">
    <g id="patch_114">
     <path d="M 369.80125 163.942125 
L 407.72 163.942125 
Q 409.72 163.942125 409.72 161.942125 
L 409.72 148.264 
Q 409.72 146.264 407.72 146.264 
L 369.80125 146.264 
Q 367.80125 146.264 367.80125 148.264 
L 367.80125 161.942125 
Q 367.80125 163.942125 369.80125 163.942125 
z
" style="fill:#ffffff;opacity:0.8;stroke:#cccccc;stroke-linejoin:miter;"/>
    </g>
    <g id="patch_115">
     <path d="M 371.80125 157.862437 
L 391.80125 157.862437 
L 391.80125 150.862437 
L 371.80125 150.862437 
z
" style="fill:#006400;opacity:0.4;stroke:#000000;stroke-linejoin:miter;"/>
    </g>
    <g id="text_20">
     <!-- y -->
     <g transform="translate(399.80125 157.862437)scale(0.1 -0.1)">
      <use xlink:href="#DejaVuSans-121"/>
     </g>
    </g>
   </g>
  </g>
  <g id="axes_3">
   <g id="patch_116">
    <path d="M 57.6 307.584 
L 414.72 307.584 
L 414.72 241.056 
L 57.6 241.056 
z
" style="fill:#ffffff;"/>
   </g>
   <g id="patch_117">
    <path clip-path="url(#p6d8cd6d37b)" d="M 118.898973 307.584 
L 123.589414 307.584 
L 123.589414 306.3168 
L 118.898973 306.3168 
z
" style="fill:#8b0000;opacity:0.4;stroke:#000000;stroke-linejoin:miter;"/>
   </g>
   <g id="patch_118">
    <path clip-path="url(#p6d8cd6d37b)" d="M 123.589414 307.584 
L 128.279855 307.584 
L 128.279855 302.5152 
L 123.589414 302.5152 
z
" style="fill:#8b0000;opacity:0.4;stroke:#000000;stroke-linejoin:miter;"/>
   </g>
   <g id="patch_119">
    <path clip-path="url(#p6d8cd6d37b)" d="M 128.279855 307.584 
L 132.970296 307.584 
L 132.970296 294.912 
L 128.279855 294.912 
z
" style="fill:#8b0000;opacity:0.4;stroke:#000000;stroke-linejoin:miter;"/>
   </g>
   <g id="patch_120">
    <path clip-path="url(#p6d8cd6d37b)" d="M 132.970296 307.584 
L 137.660737 307.584 
L 137.660737 287.3088 
L 132.970296 287.3088 
z
" style="fill:#8b0000;opacity:0.4;stroke:#000000;stroke-linejoin:miter;"/>
   </g>
   <g id="patch_121">
    <path clip-path="url(#p6d8cd6d37b)" d="M 137.660737 307.584 
L 142.351178 307.584 
L 142.351178 292.3776 
L 137.660737 292.3776 
z
" style="fill:#8b0000;opacity:0.4;stroke:#000000;stroke-linejoin:miter;"/>
   </g>
   <g id="patch_122">
    <path clip-path="url(#p6d8cd6d37b)" d="M 142.351178 307.584 
L 147.041619 307.584 
L 147.041619 268.3008 
L 142.351178 268.3008 
z
" style="fill:#8b0000;opacity:0.4;stroke:#000000;stroke-linejoin:miter;"/>
   </g>
   <g id="patch_123">
    <path clip-path="url(#p6d8cd6d37b)" d="M 147.041619 307.584 
L 151.73206 307.584 
L 151.73206 272.1024 
L 147.041619 272.1024 
z
" style="fill:#8b0000;opacity:0.4;stroke:#000000;stroke-linejoin:miter;"/>
   </g>
   <g id="patch_124">
    <path clip-path="url(#p6d8cd6d37b)" d="M 151.73206 307.584 
L 156.422502 307.584 
L 156.422502 263.232 
L 151.73206 263.232 
z
" style="fill:#8b0000;opacity:0.4;stroke:#000000;stroke-linejoin:miter;"/>
   </g>
   <g id="patch_125">
    <path clip-path="url(#p6d8cd6d37b)" d="M 156.422502 307.584 
L 161.112943 307.584 
L 161.112943 269.568 
L 156.422502 269.568 
z
" style="fill:#8b0000;opacity:0.4;stroke:#000000;stroke-linejoin:miter;"/>
   </g>
   <g id="patch_126">
    <path clip-path="url(#p6d8cd6d37b)" d="M 161.112943 307.584 
L 165.803384 307.584 
L 165.803384 261.9648 
L 161.112943 261.9648 
z
" style="fill:#8b0000;opacity:0.4;stroke:#000000;stroke-linejoin:miter;"/>
   </g>
   <g id="patch_127">
    <path clip-path="url(#p6d8cd6d37b)" d="M 165.803384 307.584 
L 170.493825 307.584 
L 170.493825 275.904 
L 165.803384 275.904 
z
" style="fill:#8b0000;opacity:0.4;stroke:#000000;stroke-linejoin:miter;"/>
   </g>
   <g id="patch_128">
    <path clip-path="url(#p6d8cd6d37b)" d="M 170.493825 307.584 
L 175.184266 307.584 
L 175.184266 280.9728 
L 170.493825 280.9728 
z
" style="fill:#8b0000;opacity:0.4;stroke:#000000;stroke-linejoin:miter;"/>
   </g>
   <g id="patch_129">
    <path clip-path="url(#p6d8cd6d37b)" d="M 175.184266 307.584 
L 179.874707 307.584 
L 179.874707 282.24 
L 175.184266 282.24 
z
" style="fill:#8b0000;opacity:0.4;stroke:#000000;stroke-linejoin:miter;"/>
   </g>
   <g id="patch_130">
    <path clip-path="url(#p6d8cd6d37b)" d="M 179.874707 307.584 
L 184.565148 307.584 
L 184.565148 286.0416 
L 179.874707 286.0416 
z
" style="fill:#8b0000;opacity:0.4;stroke:#000000;stroke-linejoin:miter;"/>
   </g>
   <g id="patch_131">
    <path clip-path="url(#p6d8cd6d37b)" d="M 184.565148 307.584 
L 189.255589 307.584 
L 189.255589 287.3088 
L 184.565148 287.3088 
z
" style="fill:#8b0000;opacity:0.4;stroke:#000000;stroke-linejoin:miter;"/>
   </g>
   <g id="patch_132">
    <path clip-path="url(#p6d8cd6d37b)" d="M 189.255589 307.584 
L 193.94603 307.584 
L 193.94603 289.8432 
L 189.255589 289.8432 
z
" style="fill:#8b0000;opacity:0.4;stroke:#000000;stroke-linejoin:miter;"/>
   </g>
   <g id="patch_133">
    <path clip-path="url(#p6d8cd6d37b)" d="M 193.94603 307.584 
L 198.636471 307.584 
L 198.636471 287.3088 
L 193.94603 287.3088 
z
" style="fill:#8b0000;opacity:0.4;stroke:#000000;stroke-linejoin:miter;"/>
   </g>
   <g id="patch_134">
    <path clip-path="url(#p6d8cd6d37b)" d="M 198.636471 307.584 
L 203.326912 307.584 
L 203.326912 288.576 
L 198.636471 288.576 
z
" style="fill:#8b0000;opacity:0.4;stroke:#000000;stroke-linejoin:miter;"/>
   </g>
   <g id="patch_135">
    <path clip-path="url(#p6d8cd6d37b)" d="M 203.326912 307.584 
L 208.017353 307.584 
L 208.017353 279.7056 
L 203.326912 279.7056 
z
" style="fill:#8b0000;opacity:0.4;stroke:#000000;stroke-linejoin:miter;"/>
   </g>
   <g id="patch_136">
    <path clip-path="url(#p6d8cd6d37b)" d="M 208.017353 307.584 
L 212.707795 307.584 
L 212.707795 291.1104 
L 208.017353 291.1104 
z
" style="fill:#8b0000;opacity:0.4;stroke:#000000;stroke-linejoin:miter;"/>
   </g>
   <g id="patch_137">
    <path clip-path="url(#p6d8cd6d37b)" d="M 212.707795 307.584 
L 217.398236 307.584 
L 217.398236 272.1024 
L 212.707795 272.1024 
z
" style="fill:#8b0000;opacity:0.4;stroke:#000000;stroke-linejoin:miter;"/>
   </g>
   <g id="patch_138">
    <path clip-path="url(#p6d8cd6d37b)" d="M 217.398236 307.584 
L 222.088677 307.584 
L 222.088677 263.232 
L 217.398236 263.232 
z
" style="fill:#8b0000;opacity:0.4;stroke:#000000;stroke-linejoin:miter;"/>
   </g>
   <g id="patch_139">
    <path clip-path="url(#p6d8cd6d37b)" d="M 222.088677 307.584 
L 226.779118 307.584 
L 226.779118 283.5072 
L 222.088677 283.5072 
z
" style="fill:#8b0000;opacity:0.4;stroke:#000000;stroke-linejoin:miter;"/>
   </g>
   <g id="patch_140">
    <path clip-path="url(#p6d8cd6d37b)" d="M 226.779118 307.584 
L 231.469559 307.584 
L 231.469559 278.4384 
L 226.779118 278.4384 
z
" style="fill:#8b0000;opacity:0.4;stroke:#000000;stroke-linejoin:miter;"/>
   </g>
   <g id="patch_141">
    <path clip-path="url(#p6d8cd6d37b)" d="M 231.469559 307.584 
L 236.16 307.584 
L 236.16 244.224 
L 231.469559 244.224 
z
" style="fill:#8b0000;opacity:0.4;stroke:#000000;stroke-linejoin:miter;"/>
   </g>
   <g id="patch_142">
    <path clip-path="url(#p6d8cd6d37b)" d="M 236.16 307.584 
L 240.850441 307.584 
L 240.850441 267.0336 
L 236.16 267.0336 
z
" style="fill:#8b0000;opacity:0.4;stroke:#000000;stroke-linejoin:miter;"/>
   </g>
   <g id="patch_143">
    <path clip-path="url(#p6d8cd6d37b)" d="M 240.850441 307.584 
L 245.540882 307.584 
L 245.540882 269.568 
L 240.850441 269.568 
z
" style="fill:#8b0000;opacity:0.4;stroke:#000000;stroke-linejoin:miter;"/>
   </g>
   <g id="patch_144">
    <path clip-path="url(#p6d8cd6d37b)" d="M 245.540882 307.584 
L 250.231323 307.584 
L 250.231323 272.1024 
L 245.540882 272.1024 
z
" style="fill:#8b0000;opacity:0.4;stroke:#000000;stroke-linejoin:miter;"/>
   </g>
   <g id="patch_145">
    <path clip-path="url(#p6d8cd6d37b)" d="M 250.231323 307.584 
L 254.921764 307.584 
L 254.921764 274.6368 
L 250.231323 274.6368 
z
" style="fill:#8b0000;opacity:0.4;stroke:#000000;stroke-linejoin:miter;"/>
   </g>
   <g id="patch_146">
    <path clip-path="url(#p6d8cd6d37b)" d="M 254.921764 307.584 
L 259.612205 307.584 
L 259.612205 279.7056 
L 254.921764 279.7056 
z
" style="fill:#8b0000;opacity:0.4;stroke:#000000;stroke-linejoin:miter;"/>
   </g>
   <g id="patch_147">
    <path clip-path="url(#p6d8cd6d37b)" d="M 259.612205 307.584 
L 264.302647 307.584 
L 264.302647 273.3696 
L 259.612205 273.3696 
z
" style="fill:#8b0000;opacity:0.4;stroke:#000000;stroke-linejoin:miter;"/>
   </g>
   <g id="patch_148">
    <path clip-path="url(#p6d8cd6d37b)" d="M 264.302647 307.584 
L 268.993088 307.584 
L 268.993088 296.1792 
L 264.302647 296.1792 
z
" style="fill:#8b0000;opacity:0.4;stroke:#000000;stroke-linejoin:miter;"/>
   </g>
   <g id="patch_149">
    <path clip-path="url(#p6d8cd6d37b)" d="M 268.993088 307.584 
L 273.683529 307.584 
L 273.683529 279.7056 
L 268.993088 279.7056 
z
" style="fill:#8b0000;opacity:0.4;stroke:#000000;stroke-linejoin:miter;"/>
   </g>
   <g id="patch_150">
    <path clip-path="url(#p6d8cd6d37b)" d="M 273.683529 307.584 
L 278.37397 307.584 
L 278.37397 292.3776 
L 273.683529 292.3776 
z
" style="fill:#8b0000;opacity:0.4;stroke:#000000;stroke-linejoin:miter;"/>
   </g>
   <g id="patch_151">
    <path clip-path="url(#p6d8cd6d37b)" d="M 278.37397 307.584 
L 283.064411 307.584 
L 283.064411 292.3776 
L 278.37397 292.3776 
z
" style="fill:#8b0000;opacity:0.4;stroke:#000000;stroke-linejoin:miter;"/>
   </g>
   <g id="patch_152">
    <path clip-path="url(#p6d8cd6d37b)" d="M 283.064411 307.584 
L 287.754852 307.584 
L 287.754852 274.6368 
L 283.064411 274.6368 
z
" style="fill:#8b0000;opacity:0.4;stroke:#000000;stroke-linejoin:miter;"/>
   </g>
   <g id="patch_153">
    <path clip-path="url(#p6d8cd6d37b)" d="M 287.754852 307.584 
L 292.445293 307.584 
L 292.445293 286.0416 
L 287.754852 286.0416 
z
" style="fill:#8b0000;opacity:0.4;stroke:#000000;stroke-linejoin:miter;"/>
   </g>
   <g id="patch_154">
    <path clip-path="url(#p6d8cd6d37b)" d="M 292.445293 307.584 
L 297.135734 307.584 
L 297.135734 277.1712 
L 292.445293 277.1712 
z
" style="fill:#8b0000;opacity:0.4;stroke:#000000;stroke-linejoin:miter;"/>
   </g>
   <g id="patch_155">
    <path clip-path="url(#p6d8cd6d37b)" d="M 297.135734 307.584 
L 301.826175 307.584 
L 301.826175 268.3008 
L 297.135734 268.3008 
z
" style="fill:#8b0000;opacity:0.4;stroke:#000000;stroke-linejoin:miter;"/>
   </g>
   <g id="patch_156">
    <path clip-path="url(#p6d8cd6d37b)" d="M 301.826175 307.584 
L 306.516616 307.584 
L 306.516616 275.904 
L 301.826175 275.904 
z
" style="fill:#8b0000;opacity:0.4;stroke:#000000;stroke-linejoin:miter;"/>
   </g>
   <g id="patch_157">
    <path clip-path="url(#p6d8cd6d37b)" d="M 306.516616 307.584 
L 311.207057 307.584 
L 311.207057 269.568 
L 306.516616 269.568 
z
" style="fill:#8b0000;opacity:0.4;stroke:#000000;stroke-linejoin:miter;"/>
   </g>
   <g id="patch_158">
    <path clip-path="url(#p6d8cd6d37b)" d="M 311.207057 307.584 
L 315.897498 307.584 
L 315.897498 260.6976 
L 311.207057 260.6976 
z
" style="fill:#8b0000;opacity:0.4;stroke:#000000;stroke-linejoin:miter;"/>
   </g>
   <g id="patch_159">
    <path clip-path="url(#p6d8cd6d37b)" d="M 315.897498 307.584 
L 320.58794 307.584 
L 320.58794 267.0336 
L 315.897498 267.0336 
z
" style="fill:#8b0000;opacity:0.4;stroke:#000000;stroke-linejoin:miter;"/>
   </g>
   <g id="patch_160">
    <path clip-path="url(#p6d8cd6d37b)" d="M 320.58794 307.584 
L 325.278381 307.584 
L 325.278381 267.0336 
L 320.58794 267.0336 
z
" style="fill:#8b0000;opacity:0.4;stroke:#000000;stroke-linejoin:miter;"/>
   </g>
   <g id="patch_161">
    <path clip-path="url(#p6d8cd6d37b)" d="M 325.278381 307.584 
L 329.968822 307.584 
L 329.968822 278.4384 
L 325.278381 278.4384 
z
" style="fill:#8b0000;opacity:0.4;stroke:#000000;stroke-linejoin:miter;"/>
   </g>
   <g id="patch_162">
    <path clip-path="url(#p6d8cd6d37b)" d="M 329.968822 307.584 
L 334.659263 307.584 
L 334.659263 296.1792 
L 329.968822 296.1792 
z
" style="fill:#8b0000;opacity:0.4;stroke:#000000;stroke-linejoin:miter;"/>
   </g>
   <g id="patch_163">
    <path clip-path="url(#p6d8cd6d37b)" d="M 334.659263 307.584 
L 339.349704 307.584 
L 339.349704 288.576 
L 334.659263 288.576 
z
" style="fill:#8b0000;opacity:0.4;stroke:#000000;stroke-linejoin:miter;"/>
   </g>
   <g id="patch_164">
    <path clip-path="url(#p6d8cd6d37b)" d="M 339.349704 307.584 
L 344.040145 307.584 
L 344.040145 302.5152 
L 339.349704 302.5152 
z
" style="fill:#8b0000;opacity:0.4;stroke:#000000;stroke-linejoin:miter;"/>
   </g>
   <g id="patch_165">
    <path clip-path="url(#p6d8cd6d37b)" d="M 344.040145 307.584 
L 348.730586 307.584 
L 348.730586 307.584 
L 344.040145 307.584 
z
" style="fill:#8b0000;opacity:0.4;stroke:#000000;stroke-linejoin:miter;"/>
   </g>
   <g id="patch_166">
    <path clip-path="url(#p6d8cd6d37b)" d="M 348.730586 307.584 
L 353.421027 307.584 
L 353.421027 303.7824 
L 348.730586 303.7824 
z
" style="fill:#8b0000;opacity:0.4;stroke:#000000;stroke-linejoin:miter;"/>
   </g>
   <g id="matplotlib.axis_5">
    <g id="xtick_11">
     <g id="line2d_19">
      <g>
       <use style="stroke:#000000;stroke-width:0.8;" x="86.666164" xlink:href="#m7d1d8e3c11" y="307.584"/>
      </g>
     </g>
     <g id="text_21">
      <!-- −1.0 -->
      <g transform="translate(74.524758 322.182437)scale(0.1 -0.1)">
       <use xlink:href="#DejaVuSans-8722"/>
       <use x="83.789062" xlink:href="#DejaVuSans-49"/>
       <use x="147.412109" xlink:href="#DejaVuSans-46"/>
       <use x="179.199219" xlink:href="#DejaVuSans-48"/>
      </g>
     </g>
    </g>
    <g id="xtick_12">
     <g id="line2d_20">
      <g>
       <use style="stroke:#000000;stroke-width:0.8;" x="160.572788" xlink:href="#m7d1d8e3c11" y="307.584"/>
      </g>
     </g>
     <g id="text_22">
      <!-- −0.5 -->
      <g transform="translate(148.431382 322.182437)scale(0.1 -0.1)">
       <use xlink:href="#DejaVuSans-8722"/>
       <use x="83.789062" xlink:href="#DejaVuSans-48"/>
       <use x="147.412109" xlink:href="#DejaVuSans-46"/>
       <use x="179.199219" xlink:href="#DejaVuSans-53"/>
      </g>
     </g>
    </g>
    <g id="xtick_13">
     <g id="line2d_21">
      <g>
       <use style="stroke:#000000;stroke-width:0.8;" x="234.479412" xlink:href="#m7d1d8e3c11" y="307.584"/>
      </g>
     </g>
     <g id="text_23">
      <!-- 0.0 -->
      <g transform="translate(226.527849 322.182437)scale(0.1 -0.1)">
       <use xlink:href="#DejaVuSans-48"/>
       <use x="63.623047" xlink:href="#DejaVuSans-46"/>
       <use x="95.410156" xlink:href="#DejaVuSans-48"/>
      </g>
     </g>
    </g>
    <g id="xtick_14">
     <g id="line2d_22">
      <g>
       <use style="stroke:#000000;stroke-width:0.8;" x="308.386036" xlink:href="#m7d1d8e3c11" y="307.584"/>
      </g>
     </g>
     <g id="text_24">
      <!-- 0.5 -->
      <g transform="translate(300.434473 322.182437)scale(0.1 -0.1)">
       <use xlink:href="#DejaVuSans-48"/>
       <use x="63.623047" xlink:href="#DejaVuSans-46"/>
       <use x="95.410156" xlink:href="#DejaVuSans-53"/>
      </g>
     </g>
    </g>
    <g id="xtick_15">
     <g id="line2d_23">
      <g>
       <use style="stroke:#000000;stroke-width:0.8;" x="382.292659" xlink:href="#m7d1d8e3c11" y="307.584"/>
      </g>
     </g>
     <g id="text_25">
      <!-- 1.0 -->
      <g transform="translate(374.341097 322.182437)scale(0.1 -0.1)">
       <use xlink:href="#DejaVuSans-49"/>
       <use x="63.623047" xlink:href="#DejaVuSans-46"/>
       <use x="95.410156" xlink:href="#DejaVuSans-48"/>
      </g>
     </g>
    </g>
    <g id="text_26">
     <!-- Position -->
     <defs>
      <path d="M 19.671875 64.796875 
L 19.671875 37.40625 
L 32.078125 37.40625 
Q 38.96875 37.40625 42.71875 40.96875 
Q 46.484375 44.53125 46.484375 51.125 
Q 46.484375 57.671875 42.71875 61.234375 
Q 38.96875 64.796875 32.078125 64.796875 
z
M 9.8125 72.90625 
L 32.078125 72.90625 
Q 44.34375 72.90625 50.609375 67.359375 
Q 56.890625 61.8125 56.890625 51.125 
Q 56.890625 40.328125 50.609375 34.8125 
Q 44.34375 29.296875 32.078125 29.296875 
L 19.671875 29.296875 
L 19.671875 0 
L 9.8125 0 
z
" id="DejaVuSans-80"/>
      <path d="M 30.609375 48.390625 
Q 23.390625 48.390625 19.1875 42.75 
Q 14.984375 37.109375 14.984375 27.296875 
Q 14.984375 17.484375 19.15625 11.84375 
Q 23.34375 6.203125 30.609375 6.203125 
Q 37.796875 6.203125 41.984375 11.859375 
Q 46.1875 17.53125 46.1875 27.296875 
Q 46.1875 37.015625 41.984375 42.703125 
Q 37.796875 48.390625 30.609375 48.390625 
z
M 30.609375 56 
Q 42.328125 56 49.015625 48.375 
Q 55.71875 40.765625 55.71875 27.296875 
Q 55.71875 13.875 49.015625 6.21875 
Q 42.328125 -1.421875 30.609375 -1.421875 
Q 18.84375 -1.421875 12.171875 6.21875 
Q 5.515625 13.875 5.515625 27.296875 
Q 5.515625 40.765625 12.171875 48.375 
Q 18.84375 56 30.609375 56 
z
" id="DejaVuSans-111"/>
     </defs>
     <g transform="translate(216.517031 335.860562)scale(0.1 -0.1)">
      <use xlink:href="#DejaVuSans-80"/>
      <use x="60.255859" xlink:href="#DejaVuSans-111"/>
      <use x="121.4375" xlink:href="#DejaVuSans-115"/>
      <use x="173.537109" xlink:href="#DejaVuSans-105"/>
      <use x="201.320312" xlink:href="#DejaVuSans-116"/>
      <use x="240.529297" xlink:href="#DejaVuSans-105"/>
      <use x="268.3125" xlink:href="#DejaVuSans-111"/>
      <use x="329.494141" xlink:href="#DejaVuSans-110"/>
     </g>
    </g>
   </g>
   <g id="matplotlib.axis_6">
    <g id="ytick_7">
     <g id="line2d_24">
      <g>
       <use style="stroke:#000000;stroke-width:0.8;" x="57.6" xlink:href="#mcdbc0982c2" y="307.584"/>
      </g>
     </g>
     <g id="text_27">
      <!-- 0 -->
      <g transform="translate(44.2375 311.383219)scale(0.1 -0.1)">
       <use xlink:href="#DejaVuSans-48"/>
      </g>
     </g>
    </g>
    <g id="ytick_8">
     <g id="line2d_25">
      <g>
       <use style="stroke:#000000;stroke-width:0.8;" x="57.6" xlink:href="#mcdbc0982c2" y="264.759224"/>
      </g>
     </g>
     <g id="text_28">
      <!-- 1 -->
      <g transform="translate(44.2375 268.558443)scale(0.1 -0.1)">
       <use xlink:href="#DejaVuSans-49"/>
      </g>
     </g>
    </g>
    <g id="text_29">
     <!-- Density -->
     <g transform="translate(38.157812 293.328594)rotate(-90)scale(0.1 -0.1)">
      <use xlink:href="#DejaVuSans-68"/>
      <use x="77.001953" xlink:href="#DejaVuSans-101"/>
      <use x="138.525391" xlink:href="#DejaVuSans-110"/>
      <use x="201.904297" xlink:href="#DejaVuSans-115"/>
      <use x="254.003906" xlink:href="#DejaVuSans-105"/>
      <use x="281.787109" xlink:href="#DejaVuSans-116"/>
      <use x="320.996094" xlink:href="#DejaVuSans-121"/>
     </g>
    </g>
   </g>
   <g id="line2d_26">
    <path clip-path="url(#p6d8cd6d37b)" d="M 73.832727 307.579132 
L 77.112066 307.573711 
L 80.391405 307.563053 
L 83.670744 307.542911 
L 86.950083 307.506317 
L 90.229421 307.442394 
L 93.50876 307.335018 
L 96.788099 307.16155 
L 100.067438 306.891959 
L 103.346777 306.488797 
L 106.626116 305.908426 
L 109.905455 305.103852 
L 113.184793 304.029199 
L 116.464132 302.645571 
L 119.743471 300.927627 
L 123.02281 298.869988 
L 126.302149 296.492431 
L 129.581488 293.842968 
L 132.860826 290.998089 
L 136.140165 288.059823 
L 139.419504 285.14961 
L 142.698843 282.399314 
L 145.978182 279.940095 
L 149.257521 277.890175 
L 152.53686 276.342844 
L 155.816198 275.356277 
L 159.095537 274.946702 
L 162.374876 275.086146 
L 165.654215 275.7053 
L 168.933554 276.701167 
L 172.212893 277.948216 
L 175.492231 279.31116 
L 178.77157 280.657338 
L 182.050909 281.867127 
L 185.330248 282.84153 
L 188.609587 283.50686 
L 191.888926 283.816903 
L 195.168264 283.753041 
L 198.447603 283.322669 
L 201.726942 282.556111 
L 205.006281 281.502327 
L 208.28562 280.223941 
L 211.564959 278.792405 
L 214.844298 277.284092 
L 218.123636 275.777694 
L 221.402975 274.35263 
L 224.682314 273.08749 
L 227.961653 272.05735 
L 231.240992 271.329216 
L 234.520331 270.955767 
L 237.799669 270.968597 
L 241.079008 271.372721 
L 244.358347 272.143938 
L 247.637686 273.229852 
L 250.917025 274.55427 
L 254.196364 276.023934 
L 257.475702 277.536281 
L 260.755041 278.987237 
L 264.03438 280.278523 
L 267.313719 281.324308 
L 270.593058 282.05709 
L 273.872397 282.432457 
L 277.151736 282.432234 
L 280.431074 282.065557 
L 283.710413 281.367803 
L 286.989752 280.397775 
L 290.269091 279.233921 
L 293.54843 277.970355 
L 296.827769 276.713022 
L 300.107107 275.575719 
L 303.386446 274.67514 
L 306.665785 274.124022 
L 309.945124 274.022029 
L 313.224463 274.445003 
L 316.503802 275.434367 
L 319.78314 276.989145 
L 323.062479 279.062968 
L 326.341818 281.567448 
L 329.621157 284.381761 
L 332.900496 287.366724 
L 336.179835 290.380622 
L 339.459174 293.293891 
L 342.738512 296.000342 
L 346.017851 298.423718 
L 349.29719 300.519484 
L 352.576529 302.272611 
L 355.855868 303.692592 
L 359.135207 304.806998 
L 362.414545 305.654745 
L 365.693884 306.279951 
L 368.973223 306.72695 
L 372.252562 307.03672 
L 375.531901 307.244727 
L 378.81124 307.38 
L 382.090579 307.465144 
L 385.369917 307.516973 
L 388.649256 307.547456 
L 391.928595 307.564759 
L 395.207934 307.574229 
L 398.487273 307.57922 
" style="fill:none;stroke:#8b0000;stroke-linecap:square;stroke-width:4;"/>
   </g>
   <g id="patch_167">
    <path d="M 57.6 307.584 
L 57.6 241.056 
" style="fill:none;stroke:#000000;stroke-linecap:square;stroke-linejoin:miter;stroke-width:0.8;"/>
   </g>
   <g id="patch_168">
    <path d="M 414.72 307.584 
L 414.72 241.056 
" style="fill:none;stroke:#000000;stroke-linecap:square;stroke-linejoin:miter;stroke-width:0.8;"/>
   </g>
   <g id="patch_169">
    <path d="M 57.6 307.584 
L 414.72 307.584 
" style="fill:none;stroke:#000000;stroke-linecap:square;stroke-linejoin:miter;stroke-width:0.8;"/>
   </g>
   <g id="patch_170">
    <path d="M 57.6 241.056 
L 414.72 241.056 
" style="fill:none;stroke:#000000;stroke-linecap:square;stroke-linejoin:miter;stroke-width:0.8;"/>
   </g>
   <g id="legend_3">
    <g id="patch_171">
     <path d="M 370.471563 263.734125 
L 407.72 263.734125 
Q 409.72 263.734125 409.72 261.734125 
L 409.72 248.056 
Q 409.72 246.056 407.72 246.056 
L 370.471563 246.056 
Q 368.471563 246.056 368.471563 248.056 
L 368.471563 261.734125 
Q 368.471563 263.734125 370.471563 263.734125 
z
" style="fill:#ffffff;opacity:0.8;stroke:#cccccc;stroke-linejoin:miter;"/>
    </g>
    <g id="patch_172">
     <path d="M 372.471563 257.654437 
L 392.471563 257.654437 
L 392.471563 250.654437 
L 372.471563 250.654437 
z
" style="fill:#8b0000;opacity:0.4;stroke:#000000;stroke-linejoin:miter;"/>
    </g>
    <g id="text_30">
     <!-- z -->
     <defs>
      <path d="M 5.515625 54.6875 
L 48.1875 54.6875 
L 48.1875 46.484375 
L 14.40625 7.171875 
L 48.1875 7.171875 
L 48.1875 0 
L 4.296875 0 
L 4.296875 8.203125 
L 38.09375 47.515625 
L 5.515625 47.515625 
z
" id="DejaVuSans-122"/>
     </defs>
     <g transform="translate(400.471563 257.654437)scale(0.1 -0.1)">
      <use xlink:href="#DejaVuSans-122"/>
     </g>
    </g>
   </g>
  </g>
  <g id="text_31">
   <!-- Motif 3 Zr 1065 Histogram -->
   <defs>
    <path d="M 9.8125 72.90625 
L 24.515625 72.90625 
L 43.109375 23.296875 
L 61.8125 72.90625 
L 76.515625 72.90625 
L 76.515625 0 
L 66.890625 0 
L 66.890625 64.015625 
L 48.09375 14.015625 
L 38.1875 14.015625 
L 19.390625 64.015625 
L 19.390625 0 
L 9.8125 0 
z
" id="DejaVuSans-77"/>
    <path d="M 37.109375 75.984375 
L 37.109375 68.5 
L 28.515625 68.5 
Q 23.6875 68.5 21.796875 66.546875 
Q 19.921875 64.59375 19.921875 59.515625 
L 19.921875 54.6875 
L 34.71875 54.6875 
L 34.71875 47.703125 
L 19.921875 47.703125 
L 19.921875 0 
L 10.890625 0 
L 10.890625 47.703125 
L 2.296875 47.703125 
L 2.296875 54.6875 
L 10.890625 54.6875 
L 10.890625 58.5 
Q 10.890625 67.625 15.140625 71.796875 
Q 19.390625 75.984375 28.609375 75.984375 
z
" id="DejaVuSans-102"/>
    <path id="DejaVuSans-32"/>
    <path d="M 40.578125 39.3125 
Q 47.65625 37.796875 51.625 33 
Q 55.609375 28.21875 55.609375 21.1875 
Q 55.609375 10.40625 48.1875 4.484375 
Q 40.765625 -1.421875 27.09375 -1.421875 
Q 22.515625 -1.421875 17.65625 -0.515625 
Q 12.796875 0.390625 7.625 2.203125 
L 7.625 11.71875 
Q 11.71875 9.328125 16.59375 8.109375 
Q 21.484375 6.890625 26.8125 6.890625 
Q 36.078125 6.890625 40.9375 10.546875 
Q 45.796875 14.203125 45.796875 21.1875 
Q 45.796875 27.640625 41.28125 31.265625 
Q 36.765625 34.90625 28.71875 34.90625 
L 20.21875 34.90625 
L 20.21875 43.015625 
L 29.109375 43.015625 
Q 36.375 43.015625 40.234375 45.921875 
Q 44.09375 48.828125 44.09375 54.296875 
Q 44.09375 59.90625 40.109375 62.90625 
Q 36.140625 65.921875 28.71875 65.921875 
Q 24.65625 65.921875 20.015625 65.03125 
Q 15.375 64.15625 9.8125 62.3125 
L 9.8125 71.09375 
Q 15.4375 72.65625 20.34375 73.4375 
Q 25.25 74.21875 29.59375 74.21875 
Q 40.828125 74.21875 47.359375 69.109375 
Q 53.90625 64.015625 53.90625 55.328125 
Q 53.90625 49.265625 50.4375 45.09375 
Q 46.96875 40.921875 40.578125 39.3125 
z
" id="DejaVuSans-51"/>
    <path d="M 5.609375 72.90625 
L 62.890625 72.90625 
L 62.890625 65.375 
L 16.796875 8.296875 
L 64.015625 8.296875 
L 64.015625 0 
L 4.5 0 
L 4.5 7.515625 
L 50.59375 64.59375 
L 5.609375 64.59375 
z
" id="DejaVuSans-90"/>
    <path d="M 41.109375 46.296875 
Q 39.59375 47.171875 37.8125 47.578125 
Q 36.03125 48 33.890625 48 
Q 26.265625 48 22.1875 43.046875 
Q 18.109375 38.09375 18.109375 28.8125 
L 18.109375 0 
L 9.078125 0 
L 9.078125 54.6875 
L 18.109375 54.6875 
L 18.109375 46.1875 
Q 20.953125 51.171875 25.484375 53.578125 
Q 30.03125 56 36.53125 56 
Q 37.453125 56 38.578125 55.875 
Q 39.703125 55.765625 41.0625 55.515625 
z
" id="DejaVuSans-114"/>
    <path d="M 33.015625 40.375 
Q 26.375 40.375 22.484375 35.828125 
Q 18.609375 31.296875 18.609375 23.390625 
Q 18.609375 15.53125 22.484375 10.953125 
Q 26.375 6.390625 33.015625 6.390625 
Q 39.65625 6.390625 43.53125 10.953125 
Q 47.40625 15.53125 47.40625 23.390625 
Q 47.40625 31.296875 43.53125 35.828125 
Q 39.65625 40.375 33.015625 40.375 
z
M 52.59375 71.296875 
L 52.59375 62.3125 
Q 48.875 64.0625 45.09375 64.984375 
Q 41.3125 65.921875 37.59375 65.921875 
Q 27.828125 65.921875 22.671875 59.328125 
Q 17.53125 52.734375 16.796875 39.40625 
Q 19.671875 43.65625 24.015625 45.921875 
Q 28.375 48.1875 33.59375 48.1875 
Q 44.578125 48.1875 50.953125 41.515625 
Q 57.328125 34.859375 57.328125 23.390625 
Q 57.328125 12.15625 50.6875 5.359375 
Q 44.046875 -1.421875 33.015625 -1.421875 
Q 20.359375 -1.421875 13.671875 8.265625 
Q 6.984375 17.96875 6.984375 36.375 
Q 6.984375 53.65625 15.1875 63.9375 
Q 23.390625 74.21875 37.203125 74.21875 
Q 40.921875 74.21875 44.703125 73.484375 
Q 48.484375 72.75 52.59375 71.296875 
z
" id="DejaVuSans-54"/>
    <path d="M 9.8125 72.90625 
L 19.671875 72.90625 
L 19.671875 43.015625 
L 55.515625 43.015625 
L 55.515625 72.90625 
L 65.375 72.90625 
L 65.375 0 
L 55.515625 0 
L 55.515625 34.71875 
L 19.671875 34.71875 
L 19.671875 0 
L 9.8125 0 
z
" id="DejaVuSans-72"/>
    <path d="M 45.40625 27.984375 
Q 45.40625 37.75 41.375 43.109375 
Q 37.359375 48.484375 30.078125 48.484375 
Q 22.859375 48.484375 18.828125 43.109375 
Q 14.796875 37.75 14.796875 27.984375 
Q 14.796875 18.265625 18.828125 12.890625 
Q 22.859375 7.515625 30.078125 7.515625 
Q 37.359375 7.515625 41.375 12.890625 
Q 45.40625 18.265625 45.40625 27.984375 
z
M 54.390625 6.78125 
Q 54.390625 -7.171875 48.1875 -13.984375 
Q 42 -20.796875 29.203125 -20.796875 
Q 24.46875 -20.796875 20.265625 -20.09375 
Q 16.0625 -19.390625 12.109375 -17.921875 
L 12.109375 -9.1875 
Q 16.0625 -11.328125 19.921875 -12.34375 
Q 23.78125 -13.375 27.78125 -13.375 
Q 36.625 -13.375 41.015625 -8.765625 
Q 45.40625 -4.15625 45.40625 5.171875 
L 45.40625 9.625 
Q 42.625 4.78125 38.28125 2.390625 
Q 33.9375 0 27.875 0 
Q 17.828125 0 11.671875 7.65625 
Q 5.515625 15.328125 5.515625 27.984375 
Q 5.515625 40.671875 11.671875 48.328125 
Q 17.828125 56 27.875 56 
Q 33.9375 56 38.28125 53.609375 
Q 42.625 51.21875 45.40625 46.390625 
L 45.40625 54.6875 
L 54.390625 54.6875 
z
" id="DejaVuSans-103"/>
    <path d="M 34.28125 27.484375 
Q 23.390625 27.484375 19.1875 25 
Q 14.984375 22.515625 14.984375 16.5 
Q 14.984375 11.71875 18.140625 8.90625 
Q 21.296875 6.109375 26.703125 6.109375 
Q 34.1875 6.109375 38.703125 11.40625 
Q 43.21875 16.703125 43.21875 25.484375 
L 43.21875 27.484375 
z
M 52.203125 31.203125 
L 52.203125 0 
L 43.21875 0 
L 43.21875 8.296875 
Q 40.140625 3.328125 35.546875 0.953125 
Q 30.953125 -1.421875 24.3125 -1.421875 
Q 15.921875 -1.421875 10.953125 3.296875 
Q 6 8.015625 6 15.921875 
Q 6 25.140625 12.171875 29.828125 
Q 18.359375 34.515625 30.609375 34.515625 
L 43.21875 34.515625 
L 43.21875 35.40625 
Q 43.21875 41.609375 39.140625 45 
Q 35.0625 48.390625 27.6875 48.390625 
Q 23 48.390625 18.546875 47.265625 
Q 14.109375 46.140625 10.015625 43.890625 
L 10.015625 52.203125 
Q 14.9375 54.109375 19.578125 55.046875 
Q 24.21875 56 28.609375 56 
Q 40.484375 56 46.34375 49.84375 
Q 52.203125 43.703125 52.203125 31.203125 
z
" id="DejaVuSans-97"/>
    <path d="M 52 44.1875 
Q 55.375 50.25 60.0625 53.125 
Q 64.75 56 71.09375 56 
Q 79.640625 56 84.28125 50.015625 
Q 88.921875 44.046875 88.921875 33.015625 
L 88.921875 0 
L 79.890625 0 
L 79.890625 32.71875 
Q 79.890625 40.578125 77.09375 44.375 
Q 74.3125 48.1875 68.609375 48.1875 
Q 61.625 48.1875 57.5625 43.546875 
Q 53.515625 38.921875 53.515625 30.90625 
L 53.515625 0 
L 44.484375 0 
L 44.484375 32.71875 
Q 44.484375 40.625 41.703125 44.40625 
Q 38.921875 48.1875 33.109375 48.1875 
Q 26.21875 48.1875 22.15625 43.53125 
Q 18.109375 38.875 18.109375 30.90625 
L 18.109375 0 
L 9.078125 0 
L 9.078125 54.6875 
L 18.109375 54.6875 
L 18.109375 46.1875 
Q 21.1875 51.21875 25.484375 53.609375 
Q 29.78125 56 35.6875 56 
Q 41.65625 56 45.828125 52.96875 
Q 50 49.953125 52 44.1875 
z
" id="DejaVuSans-109"/>
   </defs>
   <g transform="translate(151.004063 16.030125)scale(0.12 -0.12)">
    <use xlink:href="#DejaVuSans-77"/>
    <use x="86.279297" xlink:href="#DejaVuSans-111"/>
    <use x="147.460938" xlink:href="#DejaVuSans-116"/>
    <use x="186.669922" xlink:href="#DejaVuSans-105"/>
    <use x="214.453125" xlink:href="#DejaVuSans-102"/>
    <use x="249.658203" xlink:href="#DejaVuSans-32"/>
    <use x="281.445312" xlink:href="#DejaVuSans-51"/>
    <use x="345.068359" xlink:href="#DejaVuSans-32"/>
    <use x="376.855469" xlink:href="#DejaVuSans-90"/>
    <use x="445.361328" xlink:href="#DejaVuSans-114"/>
    <use x="486.474609" xlink:href="#DejaVuSans-32"/>
    <use x="518.261719" xlink:href="#DejaVuSans-49"/>
    <use x="581.884766" xlink:href="#DejaVuSans-48"/>
    <use x="645.507812" xlink:href="#DejaVuSans-54"/>
    <use x="709.130859" xlink:href="#DejaVuSans-53"/>
    <use x="772.753906" xlink:href="#DejaVuSans-32"/>
    <use x="804.541016" xlink:href="#DejaVuSans-72"/>
    <use x="879.736328" xlink:href="#DejaVuSans-105"/>
    <use x="907.519531" xlink:href="#DejaVuSans-115"/>
    <use x="959.619141" xlink:href="#DejaVuSans-116"/>
    <use x="998.828125" xlink:href="#DejaVuSans-111"/>
    <use x="1060.009766" xlink:href="#DejaVuSans-103"/>
    <use x="1123.486328" xlink:href="#DejaVuSans-114"/>
    <use x="1164.599609" xlink:href="#DejaVuSans-97"/>
    <use x="1225.878906" xlink:href="#DejaVuSans-109"/>
   </g>
  </g>
 </g>
 <defs>
  <clipPath id="pb755ac7cbb">
   <rect height="66.528" width="357.12" x="57.6" y="41.472"/>
  </clipPath>
  <clipPath id="p018208f66a">
   <rect height="66.528" width="357.12" x="57.6" y="141.264"/>
  </clipPath>
  <clipPath id="p6d8cd6d37b">
   <rect height="66.528" width="357.12" x="57.6" y="241.056"/>
  </clipPath>
 </defs>
</svg>
