<?xml version="1.0" encoding="utf-8" standalone="no"?>
<!DOCTYPE svg PUBLIC "-//W3C//DTD SVG 1.1//EN"
  "http://www.w3.org/Graphics/SVG/1.1/DTD/svg11.dtd">
<!-- Created with matplotlib (https://matplotlib.org/) -->
<svg height="345.6pt" version="1.1" viewBox="0 0 460.8 345.6" width="460.8pt" xmlns="http://www.w3.org/2000/svg" xmlns:xlink="http://www.w3.org/1999/xlink">
 <defs>
  <style type="text/css">
*{stroke-linecap:butt;stroke-linejoin:round;}
  </style>
 </defs>
 <g id="figure_1">
  <g id="patch_1">
   <path d="M 0 345.6 
L 460.8 345.6 
L 460.8 0 
L 0 0 
z
" style="fill:#ffffff;"/>
  </g>
  <g id="axes_1">
   <g id="patch_2">
    <path d="M 57.6 108 
L 414.72 108 
L 414.72 41.472 
L 57.6 41.472 
z
" style="fill:#ffffff;"/>
   </g>
   <g id="patch_3">
    <path clip-path="url(#p62944d23d2)" d="M 124.918832 108 
L 129.368479 108 
L 129.368479 98.948571 
L 124.918832 98.948571 
z
" style="fill:#00008b;opacity:0.4;stroke:#000000;stroke-linejoin:miter;"/>
   </g>
   <g id="patch_4">
    <path clip-path="url(#p62944d23d2)" d="M 129.368479 108 
L 133.818125 108 
L 133.818125 101.965714 
L 129.368479 101.965714 
z
" style="fill:#00008b;opacity:0.4;stroke:#000000;stroke-linejoin:miter;"/>
   </g>
   <g id="patch_5">
    <path clip-path="url(#p62944d23d2)" d="M 133.818125 108 
L 138.267772 108 
L 138.267772 101.965714 
L 133.818125 101.965714 
z
" style="fill:#00008b;opacity:0.4;stroke:#000000;stroke-linejoin:miter;"/>
   </g>
   <g id="patch_6">
    <path clip-path="url(#p62944d23d2)" d="M 138.267772 108 
L 142.717419 108 
L 142.717419 101.965714 
L 138.267772 101.965714 
z
" style="fill:#00008b;opacity:0.4;stroke:#000000;stroke-linejoin:miter;"/>
   </g>
   <g id="patch_7">
    <path clip-path="url(#p62944d23d2)" d="M 142.717419 108 
L 147.167066 108 
L 147.167066 101.965714 
L 142.717419 101.965714 
z
" style="fill:#00008b;opacity:0.4;stroke:#000000;stroke-linejoin:miter;"/>
   </g>
   <g id="patch_8">
    <path clip-path="url(#p62944d23d2)" d="M 147.167066 108 
L 151.616712 108 
L 151.616712 89.897143 
L 147.167066 89.897143 
z
" style="fill:#00008b;opacity:0.4;stroke:#000000;stroke-linejoin:miter;"/>
   </g>
   <g id="patch_9">
    <path clip-path="url(#p62944d23d2)" d="M 151.616712 108 
L 156.066359 108 
L 156.066359 98.948571 
L 151.616712 98.948571 
z
" style="fill:#00008b;opacity:0.4;stroke:#000000;stroke-linejoin:miter;"/>
   </g>
   <g id="patch_10">
    <path clip-path="url(#p62944d23d2)" d="M 156.066359 108 
L 160.516006 108 
L 160.516006 89.897143 
L 156.066359 89.897143 
z
" style="fill:#00008b;opacity:0.4;stroke:#000000;stroke-linejoin:miter;"/>
   </g>
   <g id="patch_11">
    <path clip-path="url(#p62944d23d2)" d="M 160.516006 108 
L 164.965652 108 
L 164.965652 104.982857 
L 160.516006 104.982857 
z
" style="fill:#00008b;opacity:0.4;stroke:#000000;stroke-linejoin:miter;"/>
   </g>
   <g id="patch_12">
    <path clip-path="url(#p62944d23d2)" d="M 164.965652 108 
L 169.415299 108 
L 169.415299 89.897143 
L 164.965652 89.897143 
z
" style="fill:#00008b;opacity:0.4;stroke:#000000;stroke-linejoin:miter;"/>
   </g>
   <g id="patch_13">
    <path clip-path="url(#p62944d23d2)" d="M 169.415299 108 
L 173.864946 108 
L 173.864946 65.76 
L 169.415299 65.76 
z
" style="fill:#00008b;opacity:0.4;stroke:#000000;stroke-linejoin:miter;"/>
   </g>
   <g id="patch_14">
    <path clip-path="url(#p62944d23d2)" d="M 173.864946 108 
L 178.314593 108 
L 178.314593 89.897143 
L 173.864946 89.897143 
z
" style="fill:#00008b;opacity:0.4;stroke:#000000;stroke-linejoin:miter;"/>
   </g>
   <g id="patch_15">
    <path clip-path="url(#p62944d23d2)" d="M 178.314593 108 
L 182.764239 108 
L 182.764239 101.965714 
L 178.314593 101.965714 
z
" style="fill:#00008b;opacity:0.4;stroke:#000000;stroke-linejoin:miter;"/>
   </g>
   <g id="patch_16">
    <path clip-path="url(#p62944d23d2)" d="M 182.764239 108 
L 187.213886 108 
L 187.213886 89.897143 
L 182.764239 89.897143 
z
" style="fill:#00008b;opacity:0.4;stroke:#000000;stroke-linejoin:miter;"/>
   </g>
   <g id="patch_17">
    <path clip-path="url(#p62944d23d2)" d="M 187.213886 108 
L 191.663533 108 
L 191.663533 92.914286 
L 187.213886 92.914286 
z
" style="fill:#00008b;opacity:0.4;stroke:#000000;stroke-linejoin:miter;"/>
   </g>
   <g id="patch_18">
    <path clip-path="url(#p62944d23d2)" d="M 191.663533 108 
L 196.11318 108 
L 196.11318 95.931429 
L 191.663533 95.931429 
z
" style="fill:#00008b;opacity:0.4;stroke:#000000;stroke-linejoin:miter;"/>
   </g>
   <g id="patch_19">
    <path clip-path="url(#p62944d23d2)" d="M 196.11318 108 
L 200.562826 108 
L 200.562826 83.862857 
L 196.11318 83.862857 
z
" style="fill:#00008b;opacity:0.4;stroke:#000000;stroke-linejoin:miter;"/>
   </g>
   <g id="patch_20">
    <path clip-path="url(#p62944d23d2)" d="M 200.562826 108 
L 205.012473 108 
L 205.012473 104.982857 
L 200.562826 104.982857 
z
" style="fill:#00008b;opacity:0.4;stroke:#000000;stroke-linejoin:miter;"/>
   </g>
   <g id="patch_21">
    <path clip-path="url(#p62944d23d2)" d="M 205.012473 108 
L 209.46212 108 
L 209.46212 77.828571 
L 205.012473 77.828571 
z
" style="fill:#00008b;opacity:0.4;stroke:#000000;stroke-linejoin:miter;"/>
   </g>
   <g id="patch_22">
    <path clip-path="url(#p62944d23d2)" d="M 209.46212 108 
L 213.911766 108 
L 213.911766 101.965714 
L 209.46212 101.965714 
z
" style="fill:#00008b;opacity:0.4;stroke:#000000;stroke-linejoin:miter;"/>
   </g>
   <g id="patch_23">
    <path clip-path="url(#p62944d23d2)" d="M 213.911766 108 
L 218.361413 108 
L 218.361413 86.88 
L 213.911766 86.88 
z
" style="fill:#00008b;opacity:0.4;stroke:#000000;stroke-linejoin:miter;"/>
   </g>
   <g id="patch_24">
    <path clip-path="url(#p62944d23d2)" d="M 218.361413 108 
L 222.81106 108 
L 222.81106 89.897143 
L 218.361413 89.897143 
z
" style="fill:#00008b;opacity:0.4;stroke:#000000;stroke-linejoin:miter;"/>
   </g>
   <g id="patch_25">
    <path clip-path="url(#p62944d23d2)" d="M 222.81106 108 
L 227.260707 108 
L 227.260707 80.845714 
L 222.81106 80.845714 
z
" style="fill:#00008b;opacity:0.4;stroke:#000000;stroke-linejoin:miter;"/>
   </g>
   <g id="patch_26">
    <path clip-path="url(#p62944d23d2)" d="M 227.260707 108 
L 231.710353 108 
L 231.710353 62.742857 
L 227.260707 62.742857 
z
" style="fill:#00008b;opacity:0.4;stroke:#000000;stroke-linejoin:miter;"/>
   </g>
   <g id="patch_27">
    <path clip-path="url(#p62944d23d2)" d="M 231.710353 108 
L 236.16 108 
L 236.16 50.674286 
L 231.710353 50.674286 
z
" style="fill:#00008b;opacity:0.4;stroke:#000000;stroke-linejoin:miter;"/>
   </g>
   <g id="patch_28">
    <path clip-path="url(#p62944d23d2)" d="M 236.16 108 
L 240.609647 108 
L 240.609647 44.64 
L 236.16 44.64 
z
" style="fill:#00008b;opacity:0.4;stroke:#000000;stroke-linejoin:miter;"/>
   </g>
   <g id="patch_29">
    <path clip-path="url(#p62944d23d2)" d="M 240.609647 108 
L 245.059293 108 
L 245.059293 80.845714 
L 240.609647 80.845714 
z
" style="fill:#00008b;opacity:0.4;stroke:#000000;stroke-linejoin:miter;"/>
   </g>
   <g id="patch_30">
    <path clip-path="url(#p62944d23d2)" d="M 245.059293 108 
L 249.50894 108 
L 249.50894 89.897143 
L 245.059293 89.897143 
z
" style="fill:#00008b;opacity:0.4;stroke:#000000;stroke-linejoin:miter;"/>
   </g>
   <g id="patch_31">
    <path clip-path="url(#p62944d23d2)" d="M 249.50894 108 
L 253.958587 108 
L 253.958587 77.828571 
L 249.50894 77.828571 
z
" style="fill:#00008b;opacity:0.4;stroke:#000000;stroke-linejoin:miter;"/>
   </g>
   <g id="patch_32">
    <path clip-path="url(#p62944d23d2)" d="M 253.958587 108 
L 258.408234 108 
L 258.408234 80.845714 
L 253.958587 80.845714 
z
" style="fill:#00008b;opacity:0.4;stroke:#000000;stroke-linejoin:miter;"/>
   </g>
   <g id="patch_33">
    <path clip-path="url(#p62944d23d2)" d="M 258.408234 108 
L 262.85788 108 
L 262.85788 95.931429 
L 258.408234 95.931429 
z
" style="fill:#00008b;opacity:0.4;stroke:#000000;stroke-linejoin:miter;"/>
   </g>
   <g id="patch_34">
    <path clip-path="url(#p62944d23d2)" d="M 262.85788 108 
L 267.307527 108 
L 267.307527 95.931429 
L 262.85788 95.931429 
z
" style="fill:#00008b;opacity:0.4;stroke:#000000;stroke-linejoin:miter;"/>
   </g>
   <g id="patch_35">
    <path clip-path="url(#p62944d23d2)" d="M 267.307527 108 
L 271.757174 108 
L 271.757174 95.931429 
L 267.307527 95.931429 
z
" style="fill:#00008b;opacity:0.4;stroke:#000000;stroke-linejoin:miter;"/>
   </g>
   <g id="patch_36">
    <path clip-path="url(#p62944d23d2)" d="M 271.757174 108 
L 276.20682 108 
L 276.20682 104.982857 
L 271.757174 104.982857 
z
" style="fill:#00008b;opacity:0.4;stroke:#000000;stroke-linejoin:miter;"/>
   </g>
   <g id="patch_37">
    <path clip-path="url(#p62944d23d2)" d="M 276.20682 108 
L 280.656467 108 
L 280.656467 89.897143 
L 276.20682 89.897143 
z
" style="fill:#00008b;opacity:0.4;stroke:#000000;stroke-linejoin:miter;"/>
   </g>
   <g id="patch_38">
    <path clip-path="url(#p62944d23d2)" d="M 280.656467 108 
L 285.106114 108 
L 285.106114 101.965714 
L 280.656467 101.965714 
z
" style="fill:#00008b;opacity:0.4;stroke:#000000;stroke-linejoin:miter;"/>
   </g>
   <g id="patch_39">
    <path clip-path="url(#p62944d23d2)" d="M 285.106114 108 
L 289.555761 108 
L 289.555761 101.965714 
L 285.106114 101.965714 
z
" style="fill:#00008b;opacity:0.4;stroke:#000000;stroke-linejoin:miter;"/>
   </g>
   <g id="patch_40">
    <path clip-path="url(#p62944d23d2)" d="M 289.555761 108 
L 294.005407 108 
L 294.005407 95.931429 
L 289.555761 95.931429 
z
" style="fill:#00008b;opacity:0.4;stroke:#000000;stroke-linejoin:miter;"/>
   </g>
   <g id="patch_41">
    <path clip-path="url(#p62944d23d2)" d="M 294.005407 108 
L 298.455054 108 
L 298.455054 77.828571 
L 294.005407 77.828571 
z
" style="fill:#00008b;opacity:0.4;stroke:#000000;stroke-linejoin:miter;"/>
   </g>
   <g id="patch_42">
    <path clip-path="url(#p62944d23d2)" d="M 298.455054 108 
L 302.904701 108 
L 302.904701 92.914286 
L 298.455054 92.914286 
z
" style="fill:#00008b;opacity:0.4;stroke:#000000;stroke-linejoin:miter;"/>
   </g>
   <g id="patch_43">
    <path clip-path="url(#p62944d23d2)" d="M 302.904701 108 
L 307.354348 108 
L 307.354348 95.931429 
L 302.904701 95.931429 
z
" style="fill:#00008b;opacity:0.4;stroke:#000000;stroke-linejoin:miter;"/>
   </g>
   <g id="patch_44">
    <path clip-path="url(#p62944d23d2)" d="M 307.354348 108 
L 311.803994 108 
L 311.803994 89.897143 
L 307.354348 89.897143 
z
" style="fill:#00008b;opacity:0.4;stroke:#000000;stroke-linejoin:miter;"/>
   </g>
   <g id="patch_45">
    <path clip-path="url(#p62944d23d2)" d="M 311.803994 108 
L 316.253641 108 
L 316.253641 98.948571 
L 311.803994 98.948571 
z
" style="fill:#00008b;opacity:0.4;stroke:#000000;stroke-linejoin:miter;"/>
   </g>
   <g id="patch_46">
    <path clip-path="url(#p62944d23d2)" d="M 316.253641 108 
L 320.703288 108 
L 320.703288 98.948571 
L 316.253641 98.948571 
z
" style="fill:#00008b;opacity:0.4;stroke:#000000;stroke-linejoin:miter;"/>
   </g>
   <g id="patch_47">
    <path clip-path="url(#p62944d23d2)" d="M 320.703288 108 
L 325.152934 108 
L 325.152934 71.794286 
L 320.703288 71.794286 
z
" style="fill:#00008b;opacity:0.4;stroke:#000000;stroke-linejoin:miter;"/>
   </g>
   <g id="patch_48">
    <path clip-path="url(#p62944d23d2)" d="M 325.152934 108 
L 329.602581 108 
L 329.602581 104.982857 
L 325.152934 104.982857 
z
" style="fill:#00008b;opacity:0.4;stroke:#000000;stroke-linejoin:miter;"/>
   </g>
   <g id="patch_49">
    <path clip-path="url(#p62944d23d2)" d="M 329.602581 108 
L 334.052228 108 
L 334.052228 101.965714 
L 329.602581 101.965714 
z
" style="fill:#00008b;opacity:0.4;stroke:#000000;stroke-linejoin:miter;"/>
   </g>
   <g id="patch_50">
    <path clip-path="url(#p62944d23d2)" d="M 334.052228 108 
L 338.501875 108 
L 338.501875 98.948571 
L 334.052228 98.948571 
z
" style="fill:#00008b;opacity:0.4;stroke:#000000;stroke-linejoin:miter;"/>
   </g>
   <g id="patch_51">
    <path clip-path="url(#p62944d23d2)" d="M 338.501875 108 
L 342.951521 108 
L 342.951521 108 
L 338.501875 108 
z
" style="fill:#00008b;opacity:0.4;stroke:#000000;stroke-linejoin:miter;"/>
   </g>
   <g id="patch_52">
    <path clip-path="url(#p62944d23d2)" d="M 342.951521 108 
L 347.401168 108 
L 347.401168 98.948571 
L 342.951521 98.948571 
z
" style="fill:#00008b;opacity:0.4;stroke:#000000;stroke-linejoin:miter;"/>
   </g>
   <g id="matplotlib.axis_1">
    <g id="xtick_1">
     <g id="line2d_1">
      <defs>
       <path d="M 0 0 
L 0 3.5 
" id="m84e918e0f9" style="stroke:#000000;stroke-width:0.8;"/>
      </defs>
      <g>
       <use style="stroke:#000000;stroke-width:0.8;" x="92.812802" xlink:href="#m84e918e0f9" y="108"/>
      </g>
     </g>
     <g id="text_1">
      <!-- −1.0 -->
      <defs>
       <path d="M 10.59375 35.5 
L 73.1875 35.5 
L 73.1875 27.203125 
L 10.59375 27.203125 
z
" id="DejaVuSans-8722"/>
       <path d="M 12.40625 8.296875 
L 28.515625 8.296875 
L 28.515625 63.921875 
L 10.984375 60.40625 
L 10.984375 69.390625 
L 28.421875 72.90625 
L 38.28125 72.90625 
L 38.28125 8.296875 
L 54.390625 8.296875 
L 54.390625 0 
L 12.40625 0 
z
" id="DejaVuSans-49"/>
       <path d="M 10.6875 12.40625 
L 21 12.40625 
L 21 0 
L 10.6875 0 
z
" id="DejaVuSans-46"/>
       <path d="M 31.78125 66.40625 
Q 24.171875 66.40625 20.328125 58.90625 
Q 16.5 51.421875 16.5 36.375 
Q 16.5 21.390625 20.328125 13.890625 
Q 24.171875 6.390625 31.78125 6.390625 
Q 39.453125 6.390625 43.28125 13.890625 
Q 47.125 21.390625 47.125 36.375 
Q 47.125 51.421875 43.28125 58.90625 
Q 39.453125 66.40625 31.78125 66.40625 
z
M 31.78125 74.21875 
Q 44.046875 74.21875 50.515625 64.515625 
Q 56.984375 54.828125 56.984375 36.375 
Q 56.984375 17.96875 50.515625 8.265625 
Q 44.046875 -1.421875 31.78125 -1.421875 
Q 19.53125 -1.421875 13.0625 8.265625 
Q 6.59375 17.96875 6.59375 36.375 
Q 6.59375 54.828125 13.0625 64.515625 
Q 19.53125 74.21875 31.78125 74.21875 
z
" id="DejaVuSans-48"/>
      </defs>
      <g transform="translate(80.671396 122.598437)scale(0.1 -0.1)">
       <use xlink:href="#DejaVuSans-8722"/>
       <use x="83.789062" xlink:href="#DejaVuSans-49"/>
       <use x="147.412109" xlink:href="#DejaVuSans-46"/>
       <use x="179.199219" xlink:href="#DejaVuSans-48"/>
      </g>
     </g>
    </g>
    <g id="xtick_2">
     <g id="line2d_2">
      <g>
       <use style="stroke:#000000;stroke-width:0.8;" x="163.397201" xlink:href="#m84e918e0f9" y="108"/>
      </g>
     </g>
     <g id="text_2">
      <!-- −0.5 -->
      <defs>
       <path d="M 10.796875 72.90625 
L 49.515625 72.90625 
L 49.515625 64.59375 
L 19.828125 64.59375 
L 19.828125 46.734375 
Q 21.96875 47.46875 24.109375 47.828125 
Q 26.265625 48.1875 28.421875 48.1875 
Q 40.625 48.1875 47.75 41.5 
Q 54.890625 34.8125 54.890625 23.390625 
Q 54.890625 11.625 47.5625 5.09375 
Q 40.234375 -1.421875 26.90625 -1.421875 
Q 22.3125 -1.421875 17.546875 -0.640625 
Q 12.796875 0.140625 7.71875 1.703125 
L 7.71875 11.625 
Q 12.109375 9.234375 16.796875 8.0625 
Q 21.484375 6.890625 26.703125 6.890625 
Q 35.15625 6.890625 40.078125 11.328125 
Q 45.015625 15.765625 45.015625 23.390625 
Q 45.015625 31 40.078125 35.4375 
Q 35.15625 39.890625 26.703125 39.890625 
Q 22.75 39.890625 18.8125 39.015625 
Q 14.890625 38.140625 10.796875 36.28125 
z
" id="DejaVuSans-53"/>
      </defs>
      <g transform="translate(151.255795 122.598437)scale(0.1 -0.1)">
       <use xlink:href="#DejaVuSans-8722"/>
       <use x="83.789062" xlink:href="#DejaVuSans-48"/>
       <use x="147.412109" xlink:href="#DejaVuSans-46"/>
       <use x="179.199219" xlink:href="#DejaVuSans-53"/>
      </g>
     </g>
    </g>
    <g id="xtick_3">
     <g id="line2d_3">
      <g>
       <use style="stroke:#000000;stroke-width:0.8;" x="233.981601" xlink:href="#m84e918e0f9" y="108"/>
      </g>
     </g>
     <g id="text_3">
      <!-- 0.0 -->
      <g transform="translate(226.030038 122.598437)scale(0.1 -0.1)">
       <use xlink:href="#DejaVuSans-48"/>
       <use x="63.623047" xlink:href="#DejaVuSans-46"/>
       <use x="95.410156" xlink:href="#DejaVuSans-48"/>
      </g>
     </g>
    </g>
    <g id="xtick_4">
     <g id="line2d_4">
      <g>
       <use style="stroke:#000000;stroke-width:0.8;" x="304.566" xlink:href="#m84e918e0f9" y="108"/>
      </g>
     </g>
     <g id="text_4">
      <!-- 0.5 -->
      <g transform="translate(296.614438 122.598437)scale(0.1 -0.1)">
       <use xlink:href="#DejaVuSans-48"/>
       <use x="63.623047" xlink:href="#DejaVuSans-46"/>
       <use x="95.410156" xlink:href="#DejaVuSans-53"/>
      </g>
     </g>
    </g>
    <g id="xtick_5">
     <g id="line2d_5">
      <g>
       <use style="stroke:#000000;stroke-width:0.8;" x="375.1504" xlink:href="#m84e918e0f9" y="108"/>
      </g>
     </g>
     <g id="text_5">
      <!-- 1.0 -->
      <g transform="translate(367.198837 122.598437)scale(0.1 -0.1)">
       <use xlink:href="#DejaVuSans-49"/>
       <use x="63.623047" xlink:href="#DejaVuSans-46"/>
       <use x="95.410156" xlink:href="#DejaVuSans-48"/>
      </g>
     </g>
    </g>
   </g>
   <g id="matplotlib.axis_2">
    <g id="ytick_1">
     <g id="line2d_6">
      <defs>
       <path d="M 0 0 
L -3.5 0 
" id="m97be149fa0" style="stroke:#000000;stroke-width:0.8;"/>
      </defs>
      <g>
       <use style="stroke:#000000;stroke-width:0.8;" x="57.6" xlink:href="#m97be149fa0" y="108"/>
      </g>
     </g>
     <g id="text_6">
      <!-- 0 -->
      <g transform="translate(44.2375 111.799219)scale(0.1 -0.1)">
       <use xlink:href="#DejaVuSans-48"/>
      </g>
     </g>
    </g>
    <g id="ytick_2">
     <g id="line2d_7">
      <g>
       <use style="stroke:#000000;stroke-width:0.8;" x="57.6" xlink:href="#m97be149fa0" y="81.276767"/>
      </g>
     </g>
     <g id="text_7">
      <!-- 1 -->
      <g transform="translate(44.2375 85.075985)scale(0.1 -0.1)">
       <use xlink:href="#DejaVuSans-49"/>
      </g>
     </g>
    </g>
    <g id="ytick_3">
     <g id="line2d_8">
      <g>
       <use style="stroke:#000000;stroke-width:0.8;" x="57.6" xlink:href="#m97be149fa0" y="54.553533"/>
      </g>
     </g>
     <g id="text_8">
      <!-- 2 -->
      <defs>
       <path d="M 19.1875 8.296875 
L 53.609375 8.296875 
L 53.609375 0 
L 7.328125 0 
L 7.328125 8.296875 
Q 12.9375 14.109375 22.625 23.890625 
Q 32.328125 33.6875 34.8125 36.53125 
Q 39.546875 41.84375 41.421875 45.53125 
Q 43.3125 49.21875 43.3125 52.78125 
Q 43.3125 58.59375 39.234375 62.25 
Q 35.15625 65.921875 28.609375 65.921875 
Q 23.96875 65.921875 18.8125 64.3125 
Q 13.671875 62.703125 7.8125 59.421875 
L 7.8125 69.390625 
Q 13.765625 71.78125 18.9375 73 
Q 24.125 74.21875 28.421875 74.21875 
Q 39.75 74.21875 46.484375 68.546875 
Q 53.21875 62.890625 53.21875 53.421875 
Q 53.21875 48.921875 51.53125 44.890625 
Q 49.859375 40.875 45.40625 35.40625 
Q 44.1875 33.984375 37.640625 27.21875 
Q 31.109375 20.453125 19.1875 8.296875 
z
" id="DejaVuSans-50"/>
      </defs>
      <g transform="translate(44.2375 58.352752)scale(0.1 -0.1)">
       <use xlink:href="#DejaVuSans-50"/>
      </g>
     </g>
    </g>
    <g id="text_9">
     <!-- Density -->
     <defs>
      <path d="M 19.671875 64.796875 
L 19.671875 8.109375 
L 31.59375 8.109375 
Q 46.6875 8.109375 53.6875 14.9375 
Q 60.6875 21.78125 60.6875 36.53125 
Q 60.6875 51.171875 53.6875 57.984375 
Q 46.6875 64.796875 31.59375 64.796875 
z
M 9.8125 72.90625 
L 30.078125 72.90625 
Q 51.265625 72.90625 61.171875 64.09375 
Q 71.09375 55.28125 71.09375 36.53125 
Q 71.09375 17.671875 61.125 8.828125 
Q 51.171875 0 30.078125 0 
L 9.8125 0 
z
" id="DejaVuSans-68"/>
      <path d="M 56.203125 29.59375 
L 56.203125 25.203125 
L 14.890625 25.203125 
Q 15.484375 15.921875 20.484375 11.0625 
Q 25.484375 6.203125 34.421875 6.203125 
Q 39.59375 6.203125 44.453125 7.46875 
Q 49.3125 8.734375 54.109375 11.28125 
L 54.109375 2.78125 
Q 49.265625 0.734375 44.1875 -0.34375 
Q 39.109375 -1.421875 33.890625 -1.421875 
Q 20.796875 -1.421875 13.15625 6.1875 
Q 5.515625 13.8125 5.515625 26.8125 
Q 5.515625 40.234375 12.765625 48.109375 
Q 20.015625 56 32.328125 56 
Q 43.359375 56 49.78125 48.890625 
Q 56.203125 41.796875 56.203125 29.59375 
z
M 47.21875 32.234375 
Q 47.125 39.59375 43.09375 43.984375 
Q 39.0625 48.390625 32.421875 48.390625 
Q 24.90625 48.390625 20.390625 44.140625 
Q 15.875 39.890625 15.1875 32.171875 
z
" id="DejaVuSans-101"/>
      <path d="M 54.890625 33.015625 
L 54.890625 0 
L 45.90625 0 
L 45.90625 32.71875 
Q 45.90625 40.484375 42.875 44.328125 
Q 39.84375 48.1875 33.796875 48.1875 
Q 26.515625 48.1875 22.3125 43.546875 
Q 18.109375 38.921875 18.109375 30.90625 
L 18.109375 0 
L 9.078125 0 
L 9.078125 54.6875 
L 18.109375 54.6875 
L 18.109375 46.1875 
Q 21.34375 51.125 25.703125 53.5625 
Q 30.078125 56 35.796875 56 
Q 45.21875 56 50.046875 50.171875 
Q 54.890625 44.34375 54.890625 33.015625 
z
" id="DejaVuSans-110"/>
      <path d="M 44.28125 53.078125 
L 44.28125 44.578125 
Q 40.484375 46.53125 36.375 47.5 
Q 32.28125 48.484375 27.875 48.484375 
Q 21.1875 48.484375 17.84375 46.4375 
Q 14.5 44.390625 14.5 40.28125 
Q 14.5 37.15625 16.890625 35.375 
Q 19.28125 33.59375 26.515625 31.984375 
L 29.59375 31.296875 
Q 39.15625 29.25 43.1875 25.515625 
Q 47.21875 21.78125 47.21875 15.09375 
Q 47.21875 7.46875 41.1875 3.015625 
Q 35.15625 -1.421875 24.609375 -1.421875 
Q 20.21875 -1.421875 15.453125 -0.5625 
Q 10.6875 0.296875 5.421875 2 
L 5.421875 11.28125 
Q 10.40625 8.6875 15.234375 7.390625 
Q 20.0625 6.109375 24.8125 6.109375 
Q 31.15625 6.109375 34.5625 8.28125 
Q 37.984375 10.453125 37.984375 14.40625 
Q 37.984375 18.0625 35.515625 20.015625 
Q 33.0625 21.96875 24.703125 23.78125 
L 21.578125 24.515625 
Q 13.234375 26.265625 9.515625 29.90625 
Q 5.8125 33.546875 5.8125 39.890625 
Q 5.8125 47.609375 11.28125 51.796875 
Q 16.75 56 26.8125 56 
Q 31.78125 56 36.171875 55.265625 
Q 40.578125 54.546875 44.28125 53.078125 
z
" id="DejaVuSans-115"/>
      <path d="M 9.421875 54.6875 
L 18.40625 54.6875 
L 18.40625 0 
L 9.421875 0 
z
M 9.421875 75.984375 
L 18.40625 75.984375 
L 18.40625 64.59375 
L 9.421875 64.59375 
z
" id="DejaVuSans-105"/>
      <path d="M 18.3125 70.21875 
L 18.3125 54.6875 
L 36.8125 54.6875 
L 36.8125 47.703125 
L 18.3125 47.703125 
L 18.3125 18.015625 
Q 18.3125 11.328125 20.140625 9.421875 
Q 21.96875 7.515625 27.59375 7.515625 
L 36.8125 7.515625 
L 36.8125 0 
L 27.59375 0 
Q 17.1875 0 13.234375 3.875 
Q 9.28125 7.765625 9.28125 18.015625 
L 9.28125 47.703125 
L 2.6875 47.703125 
L 2.6875 54.6875 
L 9.28125 54.6875 
L 9.28125 70.21875 
z
" id="DejaVuSans-116"/>
      <path d="M 32.171875 -5.078125 
Q 28.375 -14.84375 24.75 -17.8125 
Q 21.140625 -20.796875 15.09375 -20.796875 
L 7.90625 -20.796875 
L 7.90625 -13.28125 
L 13.1875 -13.28125 
Q 16.890625 -13.28125 18.9375 -11.515625 
Q 21 -9.765625 23.484375 -3.21875 
L 25.09375 0.875 
L 2.984375 54.6875 
L 12.5 54.6875 
L 29.59375 11.921875 
L 46.6875 54.6875 
L 56.203125 54.6875 
z
" id="DejaVuSans-121"/>
     </defs>
     <g transform="translate(38.157812 93.744594)rotate(-90)scale(0.1 -0.1)">
      <use xlink:href="#DejaVuSans-68"/>
      <use x="77.001953" xlink:href="#DejaVuSans-101"/>
      <use x="138.525391" xlink:href="#DejaVuSans-110"/>
      <use x="201.904297" xlink:href="#DejaVuSans-115"/>
      <use x="254.003906" xlink:href="#DejaVuSans-105"/>
      <use x="281.787109" xlink:href="#DejaVuSans-116"/>
      <use x="320.996094" xlink:href="#DejaVuSans-121"/>
     </g>
    </g>
   </g>
   <g id="line2d_9">
    <path clip-path="url(#p62944d23d2)" d="M 73.832727 107.986231 
L 77.112066 107.975144 
L 80.391405 107.956636 
L 83.670744 107.926852 
L 86.950083 107.880644 
L 90.229421 107.811494 
L 93.50876 107.711642 
L 96.788099 107.572418 
L 100.067438 107.38483 
L 103.346777 107.140332 
L 106.626116 106.831653 
L 109.905455 106.453549 
L 113.184793 106.003287 
L 116.464132 105.480749 
L 119.743471 104.888127 
L 123.02281 104.229281 
L 126.302149 103.508948 
L 129.581488 102.732026 
L 132.860826 101.903162 
L 136.140165 101.026815 
L 139.419504 100.107813 
L 142.698843 99.15237 
L 145.978182 98.169345 
L 149.257521 97.171461 
L 152.53686 96.176134 
L 155.816198 95.205527 
L 159.095537 94.285522 
L 162.374876 93.443499 
L 165.654215 92.705037 
L 168.933554 92.089998 
L 172.212893 91.608665 
L 175.492231 91.258714 
L 178.77157 91.023635 
L 182.050909 90.872936 
L 185.330248 90.764048 
L 188.609587 90.645569 
L 191.888926 90.46136 
L 195.168264 90.15512 
L 198.447603 89.675296 
L 201.726942 88.980349 
L 205.006281 88.044415 
L 208.28562 86.863062 
L 211.564959 85.458413 
L 214.844298 83.882394 
L 218.123636 82.216695 
L 221.402975 80.568312 
L 224.682314 79.060292 
L 227.961653 77.818461 
L 231.240992 76.956032 
L 234.520331 76.558782 
L 237.799669 76.673585 
L 241.079008 77.30247 
L 244.358347 78.403172 
L 247.637686 79.895748 
L 250.917025 81.67361 
L 254.196364 83.616659 
L 257.475702 85.604196 
L 260.755041 87.525795 
L 264.03438 89.289188 
L 267.313719 90.824973 
L 270.593058 92.088594 
L 273.872397 93.060195 
L 277.151736 93.742955 
L 280.431074 94.160244 
L 283.710413 94.351828 
L 286.989752 94.369251 
L 290.269091 94.270668 
L 293.54843 94.115578 
L 296.827769 93.960029 
L 300.107107 93.852865 
L 303.386446 93.833372 
L 306.665785 93.930361 
L 309.945124 94.162393 
L 313.224463 94.538649 
L 316.503802 95.059943 
L 319.78314 95.719585 
L 323.062479 96.504023 
L 326.341818 97.393495 
L 329.621157 98.362936 
L 332.900496 99.383391 
L 336.179835 100.423907 
L 339.459174 101.45376 
L 342.738512 102.444656 
L 346.017851 103.372587 
L 349.29719 104.219096 
L 352.576529 104.971851 
L 355.855868 105.624583 
L 359.135207 106.176529 
L 362.414545 106.631543 
L 365.693884 106.997042 
L 368.973223 107.282899 
L 372.252562 107.500374 
L 375.531901 107.661153 
L 378.81124 107.776538 
L 382.090579 107.856842 
L 385.369917 107.910989 
L 388.649256 107.94633 
L 391.928595 107.968642 
L 395.207934 107.982257 
L 398.487273 107.990284 
" style="fill:none;stroke:#00008b;stroke-linecap:square;stroke-width:4;"/>
   </g>
   <g id="patch_53">
    <path d="M 57.6 108 
L 57.6 41.472 
" style="fill:none;stroke:#000000;stroke-linecap:square;stroke-linejoin:miter;stroke-width:0.8;"/>
   </g>
   <g id="patch_54">
    <path d="M 414.72 108 
L 414.72 41.472 
" style="fill:none;stroke:#000000;stroke-linecap:square;stroke-linejoin:miter;stroke-width:0.8;"/>
   </g>
   <g id="patch_55">
    <path d="M 57.6 108 
L 414.72 108 
" style="fill:none;stroke:#000000;stroke-linecap:square;stroke-linejoin:miter;stroke-width:0.8;"/>
   </g>
   <g id="patch_56">
    <path d="M 57.6 41.472 
L 414.72 41.472 
" style="fill:none;stroke:#000000;stroke-linecap:square;stroke-linejoin:miter;stroke-width:0.8;"/>
   </g>
   <g id="legend_1">
    <g id="patch_57">
     <path d="M 369.80125 64.150125 
L 407.72 64.150125 
Q 409.72 64.150125 409.72 62.150125 
L 409.72 48.472 
Q 409.72 46.472 407.72 46.472 
L 369.80125 46.472 
Q 367.80125 46.472 367.80125 48.472 
L 367.80125 62.150125 
Q 367.80125 64.150125 369.80125 64.150125 
z
" style="fill:#ffffff;opacity:0.8;stroke:#cccccc;stroke-linejoin:miter;"/>
    </g>
    <g id="patch_58">
     <path d="M 371.80125 58.070438 
L 391.80125 58.070438 
L 391.80125 51.070438 
L 371.80125 51.070438 
z
" style="fill:#00008b;opacity:0.4;stroke:#000000;stroke-linejoin:miter;"/>
    </g>
    <g id="text_10">
     <!-- x -->
     <defs>
      <path d="M 54.890625 54.6875 
L 35.109375 28.078125 
L 55.90625 0 
L 45.3125 0 
L 29.390625 21.484375 
L 13.484375 0 
L 2.875 0 
L 24.125 28.609375 
L 4.6875 54.6875 
L 15.28125 54.6875 
L 29.78125 35.203125 
L 44.28125 54.6875 
z
" id="DejaVuSans-120"/>
     </defs>
     <g transform="translate(399.80125 58.070438)scale(0.1 -0.1)">
      <use xlink:href="#DejaVuSans-120"/>
     </g>
    </g>
   </g>
  </g>
  <g id="axes_2">
   <g id="patch_59">
    <path d="M 57.6 207.792 
L 414.72 207.792 
L 414.72 141.264 
L 57.6 141.264 
z
" style="fill:#ffffff;"/>
   </g>
   <g id="patch_60">
    <path clip-path="url(#pbb0a8075e5)" d="M 124.197549 207.792 
L 128.676047 207.792 
L 128.676047 196.77287 
L 124.197549 196.77287 
z
" style="fill:#006400;opacity:0.4;stroke:#000000;stroke-linejoin:miter;"/>
   </g>
   <g id="patch_61">
    <path clip-path="url(#pbb0a8075e5)" d="M 128.676047 207.792 
L 133.154545 207.792 
L 133.154545 182.998957 
L 128.676047 182.998957 
z
" style="fill:#006400;opacity:0.4;stroke:#000000;stroke-linejoin:miter;"/>
   </g>
   <g id="patch_62">
    <path clip-path="url(#pbb0a8075e5)" d="M 133.154545 207.792 
L 137.633043 207.792 
L 137.633043 202.282435 
L 133.154545 202.282435 
z
" style="fill:#006400;opacity:0.4;stroke:#000000;stroke-linejoin:miter;"/>
   </g>
   <g id="patch_63">
    <path clip-path="url(#pbb0a8075e5)" d="M 137.633043 207.792 
L 142.111541 207.792 
L 142.111541 202.282435 
L 137.633043 202.282435 
z
" style="fill:#006400;opacity:0.4;stroke:#000000;stroke-linejoin:miter;"/>
   </g>
   <g id="patch_64">
    <path clip-path="url(#pbb0a8075e5)" d="M 142.111541 207.792 
L 146.590039 207.792 
L 146.590039 199.527652 
L 142.111541 199.527652 
z
" style="fill:#006400;opacity:0.4;stroke:#000000;stroke-linejoin:miter;"/>
   </g>
   <g id="patch_65">
    <path clip-path="url(#pbb0a8075e5)" d="M 146.590039 207.792 
L 151.068537 207.792 
L 151.068537 202.282435 
L 146.590039 202.282435 
z
" style="fill:#006400;opacity:0.4;stroke:#000000;stroke-linejoin:miter;"/>
   </g>
   <g id="patch_66">
    <path clip-path="url(#pbb0a8075e5)" d="M 151.068537 207.792 
L 155.547035 207.792 
L 155.547035 199.527652 
L 151.068537 199.527652 
z
" style="fill:#006400;opacity:0.4;stroke:#000000;stroke-linejoin:miter;"/>
   </g>
   <g id="patch_67">
    <path clip-path="url(#pbb0a8075e5)" d="M 155.547035 207.792 
L 160.025533 207.792 
L 160.025533 199.527652 
L 155.547035 199.527652 
z
" style="fill:#006400;opacity:0.4;stroke:#000000;stroke-linejoin:miter;"/>
   </g>
   <g id="patch_68">
    <path clip-path="url(#pbb0a8075e5)" d="M 160.025533 207.792 
L 164.504032 207.792 
L 164.504032 199.527652 
L 160.025533 199.527652 
z
" style="fill:#006400;opacity:0.4;stroke:#000000;stroke-linejoin:miter;"/>
   </g>
   <g id="patch_69">
    <path clip-path="url(#pbb0a8075e5)" d="M 164.504032 207.792 
L 168.98253 207.792 
L 168.98253 199.527652 
L 164.504032 199.527652 
z
" style="fill:#006400;opacity:0.4;stroke:#000000;stroke-linejoin:miter;"/>
   </g>
   <g id="patch_70">
    <path clip-path="url(#pbb0a8075e5)" d="M 168.98253 207.792 
L 173.461028 207.792 
L 173.461028 199.527652 
L 168.98253 199.527652 
z
" style="fill:#006400;opacity:0.4;stroke:#000000;stroke-linejoin:miter;"/>
   </g>
   <g id="patch_71">
    <path clip-path="url(#pbb0a8075e5)" d="M 173.461028 207.792 
L 177.939526 207.792 
L 177.939526 188.508522 
L 173.461028 188.508522 
z
" style="fill:#006400;opacity:0.4;stroke:#000000;stroke-linejoin:miter;"/>
   </g>
   <g id="patch_72">
    <path clip-path="url(#pbb0a8075e5)" d="M 177.939526 207.792 
L 182.418024 207.792 
L 182.418024 199.527652 
L 177.939526 199.527652 
z
" style="fill:#006400;opacity:0.4;stroke:#000000;stroke-linejoin:miter;"/>
   </g>
   <g id="patch_73">
    <path clip-path="url(#pbb0a8075e5)" d="M 182.418024 207.792 
L 186.896522 207.792 
L 186.896522 191.263304 
L 182.418024 191.263304 
z
" style="fill:#006400;opacity:0.4;stroke:#000000;stroke-linejoin:miter;"/>
   </g>
   <g id="patch_74">
    <path clip-path="url(#pbb0a8075e5)" d="M 186.896522 207.792 
L 191.37502 207.792 
L 191.37502 188.508522 
L 186.896522 188.508522 
z
" style="fill:#006400;opacity:0.4;stroke:#000000;stroke-linejoin:miter;"/>
   </g>
   <g id="patch_75">
    <path clip-path="url(#pbb0a8075e5)" d="M 191.37502 207.792 
L 195.853518 207.792 
L 195.853518 188.508522 
L 191.37502 188.508522 
z
" style="fill:#006400;opacity:0.4;stroke:#000000;stroke-linejoin:miter;"/>
   </g>
   <g id="patch_76">
    <path clip-path="url(#pbb0a8075e5)" d="M 195.853518 207.792 
L 200.332016 207.792 
L 200.332016 199.527652 
L 195.853518 199.527652 
z
" style="fill:#006400;opacity:0.4;stroke:#000000;stroke-linejoin:miter;"/>
   </g>
   <g id="patch_77">
    <path clip-path="url(#pbb0a8075e5)" d="M 200.332016 207.792 
L 204.810514 207.792 
L 204.810514 185.753739 
L 200.332016 185.753739 
z
" style="fill:#006400;opacity:0.4;stroke:#000000;stroke-linejoin:miter;"/>
   </g>
   <g id="patch_78">
    <path clip-path="url(#pbb0a8075e5)" d="M 204.810514 207.792 
L 209.289012 207.792 
L 209.289012 205.037217 
L 204.810514 205.037217 
z
" style="fill:#006400;opacity:0.4;stroke:#000000;stroke-linejoin:miter;"/>
   </g>
   <g id="patch_79">
    <path clip-path="url(#pbb0a8075e5)" d="M 209.289012 207.792 
L 213.76751 207.792 
L 213.76751 194.018087 
L 209.289012 194.018087 
z
" style="fill:#006400;opacity:0.4;stroke:#000000;stroke-linejoin:miter;"/>
   </g>
   <g id="patch_80">
    <path clip-path="url(#pbb0a8075e5)" d="M 213.76751 207.792 
L 218.246008 207.792 
L 218.246008 191.263304 
L 213.76751 191.263304 
z
" style="fill:#006400;opacity:0.4;stroke:#000000;stroke-linejoin:miter;"/>
   </g>
   <g id="patch_81">
    <path clip-path="url(#pbb0a8075e5)" d="M 218.246008 207.792 
L 222.724506 207.792 
L 222.724506 194.018087 
L 218.246008 194.018087 
z
" style="fill:#006400;opacity:0.4;stroke:#000000;stroke-linejoin:miter;"/>
   </g>
   <g id="patch_82">
    <path clip-path="url(#pbb0a8075e5)" d="M 222.724506 207.792 
L 227.203004 207.792 
L 227.203004 182.998957 
L 222.724506 182.998957 
z
" style="fill:#006400;opacity:0.4;stroke:#000000;stroke-linejoin:miter;"/>
   </g>
   <g id="patch_83">
    <path clip-path="url(#pbb0a8075e5)" d="M 227.203004 207.792 
L 231.681502 207.792 
L 231.681502 163.715478 
L 227.203004 163.715478 
z
" style="fill:#006400;opacity:0.4;stroke:#000000;stroke-linejoin:miter;"/>
   </g>
   <g id="patch_84">
    <path clip-path="url(#pbb0a8075e5)" d="M 231.681502 207.792 
L 236.16 207.792 
L 236.16 144.432 
L 231.681502 144.432 
z
" style="fill:#006400;opacity:0.4;stroke:#000000;stroke-linejoin:miter;"/>
   </g>
   <g id="patch_85">
    <path clip-path="url(#pbb0a8075e5)" d="M 236.16 207.792 
L 240.638498 207.792 
L 240.638498 163.715478 
L 236.16 163.715478 
z
" style="fill:#006400;opacity:0.4;stroke:#000000;stroke-linejoin:miter;"/>
   </g>
   <g id="patch_86">
    <path clip-path="url(#pbb0a8075e5)" d="M 240.638498 207.792 
L 245.116996 207.792 
L 245.116996 169.225043 
L 240.638498 169.225043 
z
" style="fill:#006400;opacity:0.4;stroke:#000000;stroke-linejoin:miter;"/>
   </g>
   <g id="patch_87">
    <path clip-path="url(#pbb0a8075e5)" d="M 245.116996 207.792 
L 249.595494 207.792 
L 249.595494 185.753739 
L 245.116996 185.753739 
z
" style="fill:#006400;opacity:0.4;stroke:#000000;stroke-linejoin:miter;"/>
   </g>
   <g id="patch_88">
    <path clip-path="url(#pbb0a8075e5)" d="M 249.595494 207.792 
L 254.073992 207.792 
L 254.073992 196.77287 
L 249.595494 196.77287 
z
" style="fill:#006400;opacity:0.4;stroke:#000000;stroke-linejoin:miter;"/>
   </g>
   <g id="patch_89">
    <path clip-path="url(#pbb0a8075e5)" d="M 254.073992 207.792 
L 258.55249 207.792 
L 258.55249 174.734609 
L 254.073992 174.734609 
z
" style="fill:#006400;opacity:0.4;stroke:#000000;stroke-linejoin:miter;"/>
   </g>
   <g id="patch_90">
    <path clip-path="url(#pbb0a8075e5)" d="M 258.55249 207.792 
L 263.030988 207.792 
L 263.030988 202.282435 
L 258.55249 202.282435 
z
" style="fill:#006400;opacity:0.4;stroke:#000000;stroke-linejoin:miter;"/>
   </g>
   <g id="patch_91">
    <path clip-path="url(#pbb0a8075e5)" d="M 263.030988 207.792 
L 267.509486 207.792 
L 267.509486 196.77287 
L 263.030988 196.77287 
z
" style="fill:#006400;opacity:0.4;stroke:#000000;stroke-linejoin:miter;"/>
   </g>
   <g id="patch_92">
    <path clip-path="url(#pbb0a8075e5)" d="M 267.509486 207.792 
L 271.987984 207.792 
L 271.987984 205.037217 
L 267.509486 205.037217 
z
" style="fill:#006400;opacity:0.4;stroke:#000000;stroke-linejoin:miter;"/>
   </g>
   <g id="patch_93">
    <path clip-path="url(#pbb0a8075e5)" d="M 271.987984 207.792 
L 276.466482 207.792 
L 276.466482 185.753739 
L 271.987984 185.753739 
z
" style="fill:#006400;opacity:0.4;stroke:#000000;stroke-linejoin:miter;"/>
   </g>
   <g id="patch_94">
    <path clip-path="url(#pbb0a8075e5)" d="M 276.466482 207.792 
L 280.94498 207.792 
L 280.94498 182.998957 
L 276.466482 182.998957 
z
" style="fill:#006400;opacity:0.4;stroke:#000000;stroke-linejoin:miter;"/>
   </g>
   <g id="patch_95">
    <path clip-path="url(#pbb0a8075e5)" d="M 280.94498 207.792 
L 285.423478 207.792 
L 285.423478 180.244174 
L 280.94498 180.244174 
z
" style="fill:#006400;opacity:0.4;stroke:#000000;stroke-linejoin:miter;"/>
   </g>
   <g id="patch_96">
    <path clip-path="url(#pbb0a8075e5)" d="M 285.423478 207.792 
L 289.901976 207.792 
L 289.901976 196.77287 
L 285.423478 196.77287 
z
" style="fill:#006400;opacity:0.4;stroke:#000000;stroke-linejoin:miter;"/>
   </g>
   <g id="patch_97">
    <path clip-path="url(#pbb0a8075e5)" d="M 289.901976 207.792 
L 294.380474 207.792 
L 294.380474 202.282435 
L 289.901976 202.282435 
z
" style="fill:#006400;opacity:0.4;stroke:#000000;stroke-linejoin:miter;"/>
   </g>
   <g id="patch_98">
    <path clip-path="url(#pbb0a8075e5)" d="M 294.380474 207.792 
L 298.858972 207.792 
L 298.858972 185.753739 
L 294.380474 185.753739 
z
" style="fill:#006400;opacity:0.4;stroke:#000000;stroke-linejoin:miter;"/>
   </g>
   <g id="patch_99">
    <path clip-path="url(#pbb0a8075e5)" d="M 298.858972 207.792 
L 303.33747 207.792 
L 303.33747 182.998957 
L 298.858972 182.998957 
z
" style="fill:#006400;opacity:0.4;stroke:#000000;stroke-linejoin:miter;"/>
   </g>
   <g id="patch_100">
    <path clip-path="url(#pbb0a8075e5)" d="M 303.33747 207.792 
L 307.815968 207.792 
L 307.815968 194.018087 
L 303.33747 194.018087 
z
" style="fill:#006400;opacity:0.4;stroke:#000000;stroke-linejoin:miter;"/>
   </g>
   <g id="patch_101">
    <path clip-path="url(#pbb0a8075e5)" d="M 307.815968 207.792 
L 312.294467 207.792 
L 312.294467 194.018087 
L 307.815968 194.018087 
z
" style="fill:#006400;opacity:0.4;stroke:#000000;stroke-linejoin:miter;"/>
   </g>
   <g id="patch_102">
    <path clip-path="url(#pbb0a8075e5)" d="M 312.294467 207.792 
L 316.772965 207.792 
L 316.772965 199.527652 
L 312.294467 199.527652 
z
" style="fill:#006400;opacity:0.4;stroke:#000000;stroke-linejoin:miter;"/>
   </g>
   <g id="patch_103">
    <path clip-path="url(#pbb0a8075e5)" d="M 316.772965 207.792 
L 321.251463 207.792 
L 321.251463 196.77287 
L 316.772965 196.77287 
z
" style="fill:#006400;opacity:0.4;stroke:#000000;stroke-linejoin:miter;"/>
   </g>
   <g id="patch_104">
    <path clip-path="url(#pbb0a8075e5)" d="M 321.251463 207.792 
L 325.729961 207.792 
L 325.729961 205.037217 
L 321.251463 205.037217 
z
" style="fill:#006400;opacity:0.4;stroke:#000000;stroke-linejoin:miter;"/>
   </g>
   <g id="patch_105">
    <path clip-path="url(#pbb0a8075e5)" d="M 325.729961 207.792 
L 330.208459 207.792 
L 330.208459 202.282435 
L 325.729961 202.282435 
z
" style="fill:#006400;opacity:0.4;stroke:#000000;stroke-linejoin:miter;"/>
   </g>
   <g id="patch_106">
    <path clip-path="url(#pbb0a8075e5)" d="M 330.208459 207.792 
L 334.686957 207.792 
L 334.686957 202.282435 
L 330.208459 202.282435 
z
" style="fill:#006400;opacity:0.4;stroke:#000000;stroke-linejoin:miter;"/>
   </g>
   <g id="patch_107">
    <path clip-path="url(#pbb0a8075e5)" d="M 334.686957 207.792 
L 339.165455 207.792 
L 339.165455 202.282435 
L 334.686957 202.282435 
z
" style="fill:#006400;opacity:0.4;stroke:#000000;stroke-linejoin:miter;"/>
   </g>
   <g id="patch_108">
    <path clip-path="url(#pbb0a8075e5)" d="M 339.165455 207.792 
L 343.643953 207.792 
L 343.643953 202.282435 
L 339.165455 202.282435 
z
" style="fill:#006400;opacity:0.4;stroke:#000000;stroke-linejoin:miter;"/>
   </g>
   <g id="patch_109">
    <path clip-path="url(#pbb0a8075e5)" d="M 343.643953 207.792 
L 348.122451 207.792 
L 348.122451 205.037217 
L 343.643953 205.037217 
z
" style="fill:#006400;opacity:0.4;stroke:#000000;stroke-linejoin:miter;"/>
   </g>
   <g id="matplotlib.axis_3">
    <g id="xtick_6">
     <g id="line2d_10">
      <g>
       <use style="stroke:#000000;stroke-width:0.8;" x="99.544867" xlink:href="#m84e918e0f9" y="207.792"/>
      </g>
     </g>
     <g id="text_11">
      <!-- −1.0 -->
      <g transform="translate(87.40346 222.390437)scale(0.1 -0.1)">
       <use xlink:href="#DejaVuSans-8722"/>
       <use x="83.789062" xlink:href="#DejaVuSans-49"/>
       <use x="147.412109" xlink:href="#DejaVuSans-46"/>
       <use x="179.199219" xlink:href="#DejaVuSans-48"/>
      </g>
     </g>
    </g>
    <g id="xtick_7">
     <g id="line2d_11">
      <g>
       <use style="stroke:#000000;stroke-width:0.8;" x="166.688569" xlink:href="#m84e918e0f9" y="207.792"/>
      </g>
     </g>
     <g id="text_12">
      <!-- −0.5 -->
      <g transform="translate(154.547163 222.390437)scale(0.1 -0.1)">
       <use xlink:href="#DejaVuSans-8722"/>
       <use x="83.789062" xlink:href="#DejaVuSans-48"/>
       <use x="147.412109" xlink:href="#DejaVuSans-46"/>
       <use x="179.199219" xlink:href="#DejaVuSans-53"/>
      </g>
     </g>
    </g>
    <g id="xtick_8">
     <g id="line2d_12">
      <g>
       <use style="stroke:#000000;stroke-width:0.8;" x="233.832271" xlink:href="#m84e918e0f9" y="207.792"/>
      </g>
     </g>
     <g id="text_13">
      <!-- 0.0 -->
      <g transform="translate(225.880709 222.390437)scale(0.1 -0.1)">
       <use xlink:href="#DejaVuSans-48"/>
       <use x="63.623047" xlink:href="#DejaVuSans-46"/>
       <use x="95.410156" xlink:href="#DejaVuSans-48"/>
      </g>
     </g>
    </g>
    <g id="xtick_9">
     <g id="line2d_13">
      <g>
       <use style="stroke:#000000;stroke-width:0.8;" x="300.975974" xlink:href="#m84e918e0f9" y="207.792"/>
      </g>
     </g>
     <g id="text_14">
      <!-- 0.5 -->
      <g transform="translate(293.024411 222.390437)scale(0.1 -0.1)">
       <use xlink:href="#DejaVuSans-48"/>
       <use x="63.623047" xlink:href="#DejaVuSans-46"/>
       <use x="95.410156" xlink:href="#DejaVuSans-53"/>
      </g>
     </g>
    </g>
    <g id="xtick_10">
     <g id="line2d_14">
      <g>
       <use style="stroke:#000000;stroke-width:0.8;" x="368.119676" xlink:href="#m84e918e0f9" y="207.792"/>
      </g>
     </g>
     <g id="text_15">
      <!-- 1.0 -->
      <g transform="translate(360.168114 222.390437)scale(0.1 -0.1)">
       <use xlink:href="#DejaVuSans-49"/>
       <use x="63.623047" xlink:href="#DejaVuSans-46"/>
       <use x="95.410156" xlink:href="#DejaVuSans-48"/>
      </g>
     </g>
    </g>
   </g>
   <g id="matplotlib.axis_4">
    <g id="ytick_4">
     <g id="line2d_15">
      <g>
       <use style="stroke:#000000;stroke-width:0.8;" x="57.6" xlink:href="#m97be149fa0" y="207.792"/>
      </g>
     </g>
     <g id="text_16">
      <!-- 0 -->
      <g transform="translate(44.2375 211.591219)scale(0.1 -0.1)">
       <use xlink:href="#DejaVuSans-48"/>
      </g>
     </g>
    </g>
    <g id="ytick_5">
     <g id="line2d_16">
      <g>
       <use style="stroke:#000000;stroke-width:0.8;" x="57.6" xlink:href="#m97be149fa0" y="181.975893"/>
      </g>
     </g>
     <g id="text_17">
      <!-- 1 -->
      <g transform="translate(44.2375 185.775111)scale(0.1 -0.1)">
       <use xlink:href="#DejaVuSans-49"/>
      </g>
     </g>
    </g>
    <g id="ytick_6">
     <g id="line2d_17">
      <g>
       <use style="stroke:#000000;stroke-width:0.8;" x="57.6" xlink:href="#m97be149fa0" y="156.159785"/>
      </g>
     </g>
     <g id="text_18">
      <!-- 2 -->
      <g transform="translate(44.2375 159.959004)scale(0.1 -0.1)">
       <use xlink:href="#DejaVuSans-50"/>
      </g>
     </g>
    </g>
    <g id="text_19">
     <!-- Density -->
     <g transform="translate(38.157812 193.536594)rotate(-90)scale(0.1 -0.1)">
      <use xlink:href="#DejaVuSans-68"/>
      <use x="77.001953" xlink:href="#DejaVuSans-101"/>
      <use x="138.525391" xlink:href="#DejaVuSans-110"/>
      <use x="201.904297" xlink:href="#DejaVuSans-115"/>
      <use x="254.003906" xlink:href="#DejaVuSans-105"/>
      <use x="281.787109" xlink:href="#DejaVuSans-116"/>
      <use x="320.996094" xlink:href="#DejaVuSans-121"/>
     </g>
    </g>
   </g>
   <g id="line2d_18">
    <path clip-path="url(#pbb0a8075e5)" d="M 73.832727 207.770962 
L 77.112066 207.753245 
L 80.391405 207.723131 
L 83.670744 207.673922 
L 86.950083 207.596642 
L 90.229421 207.480037 
L 93.50876 207.311061 
L 96.788099 207.075987 
L 100.067438 206.7622 
L 103.346777 206.360539 
L 106.626116 205.867841 
L 109.905455 205.289149 
L 113.184793 204.638922 
L 116.464132 203.940706 
L 119.743471 203.224953 
L 123.02281 202.525165 
L 126.302149 201.872951 
L 129.581488 201.293017 
L 132.860826 200.799169 
L 136.140165 200.392229 
L 139.419504 200.060339 
L 142.698843 199.781487 
L 145.978182 199.527639 
L 149.257521 199.269518 
L 152.53686 198.981092 
L 155.816198 198.64304 
L 159.095537 198.244826 
L 162.374876 197.78537 
L 165.654215 197.272451 
L 168.933554 196.7211 
L 172.212893 196.151138 
L 175.492231 195.583959 
L 178.77157 195.038683 
L 182.050909 194.527914 
L 185.330248 194.053585 
L 188.609587 193.603622 
L 191.888926 193.150331 
L 195.168264 192.651384 
L 198.447603 192.054022 
L 201.726942 191.302533 
L 205.006281 190.348386 
L 208.28562 189.161617 
L 211.564959 187.741439 
L 214.844298 186.123752 
L 218.123636 184.383383 
L 221.402975 182.629655 
L 224.682314 180.995086 
L 227.961653 179.61851 
L 231.240992 178.625326 
L 234.520331 178.108467 
L 237.799669 178.113802 
L 241.079008 178.632882 
L 244.358347 179.604455 
L 247.637686 180.924303 
L 250.917025 182.461298 
L 254.196364 184.076455 
L 257.475702 185.641448 
L 260.755041 187.053553 
L 264.03438 188.245004 
L 267.313719 189.18607 
L 270.593058 189.882338 
L 273.872397 190.367668 
L 277.151736 190.69473 
L 280.431074 190.925093 
L 283.710413 191.120469 
L 286.989752 191.336101 
L 290.269091 191.616597 
L 293.54843 191.993942 
L 296.827769 192.487109 
L 300.107107 193.102664 
L 303.386446 193.835938 
L 306.665785 194.672613 
L 309.945124 195.590762 
L 313.224463 196.56338 
L 316.503802 197.561348 
L 319.78314 198.556535 
L 323.062479 199.524597 
L 326.341818 200.447004 
L 329.621157 201.311939 
L 332.900496 202.113994 
L 336.179835 202.852833 
L 339.459174 203.531251 
L 342.738512 204.153149 
L 346.017851 204.721886 
L 349.29719 205.239338 
L 352.576529 205.705737 
L 355.855868 206.120176 
L 359.135207 206.481503 
L 362.414545 206.789271 
L 365.693884 207.044481 
L 368.973223 207.249935 
L 372.252562 207.410166 
L 375.531901 207.531033 
L 378.81124 207.619114 
L 382.090579 207.681072 
L 385.369917 207.723116 
L 388.649256 207.750624 
L 391.928595 207.767973 
L 395.207934 207.778517 
L 398.487273 207.784691 
" style="fill:none;stroke:#006400;stroke-linecap:square;stroke-width:4;"/>
   </g>
   <g id="patch_110">
    <path d="M 57.6 207.792 
L 57.6 141.264 
" style="fill:none;stroke:#000000;stroke-linecap:square;stroke-linejoin:miter;stroke-width:0.8;"/>
   </g>
   <g id="patch_111">
    <path d="M 414.72 207.792 
L 414.72 141.264 
" style="fill:none;stroke:#000000;stroke-linecap:square;stroke-linejoin:miter;stroke-width:0.8;"/>
   </g>
   <g id="patch_112">
    <path d="M 57.6 207.792 
L 414.72 207.792 
" style="fill:none;stroke:#000000;stroke-linecap:square;stroke-linejoin:miter;stroke-width:0.8;"/>
   </g>
   <g id="patch_113">
    <path d="M 57.6 141.264 
L 414.72 141.264 
" style="fill:none;stroke:#000000;stroke-linecap:square;stroke-linejoin:miter;stroke-width:0.8;"/>
   </g>
   <g id="legend_2">
    <g id="patch_114">
     <path d="M 369.80125 163.942125 
L 407.72 163.942125 
Q 409.72 163.942125 409.72 161.942125 
L 409.72 148.264 
Q 409.72 146.264 407.72 146.264 
L 369.80125 146.264 
Q 367.80125 146.264 367.80125 148.264 
L 367.80125 161.942125 
Q 367.80125 163.942125 369.80125 163.942125 
z
" style="fill:#ffffff;opacity:0.8;stroke:#cccccc;stroke-linejoin:miter;"/>
    </g>
    <g id="patch_115">
     <path d="M 371.80125 157.862437 
L 391.80125 157.862437 
L 391.80125 150.862437 
L 371.80125 150.862437 
z
" style="fill:#006400;opacity:0.4;stroke:#000000;stroke-linejoin:miter;"/>
    </g>
    <g id="text_20">
     <!-- y -->
     <g transform="translate(399.80125 157.862437)scale(0.1 -0.1)">
      <use xlink:href="#DejaVuSans-121"/>
     </g>
    </g>
   </g>
  </g>
  <g id="axes_3">
   <g id="patch_116">
    <path d="M 57.6 307.584 
L 414.72 307.584 
L 414.72 241.056 
L 57.6 241.056 
z
" style="fill:#ffffff;"/>
   </g>
   <g id="patch_117">
    <path clip-path="url(#p69b9b1fbe0)" d="M 126.517394 307.584 
L 130.903098 307.584 
L 130.903098 300.273231 
L 126.517394 300.273231 
z
" style="fill:#8b0000;opacity:0.4;stroke:#000000;stroke-linejoin:miter;"/>
   </g>
   <g id="patch_118">
    <path clip-path="url(#p69b9b1fbe0)" d="M 130.903098 307.584 
L 135.288802 307.584 
L 135.288802 307.584 
L 130.903098 307.584 
z
" style="fill:#8b0000;opacity:0.4;stroke:#000000;stroke-linejoin:miter;"/>
   </g>
   <g id="patch_119">
    <path clip-path="url(#p69b9b1fbe0)" d="M 135.288802 307.584 
L 139.674507 307.584 
L 139.674507 295.399385 
L 135.288802 295.399385 
z
" style="fill:#8b0000;opacity:0.4;stroke:#000000;stroke-linejoin:miter;"/>
   </g>
   <g id="patch_120">
    <path clip-path="url(#p69b9b1fbe0)" d="M 139.674507 307.584 
L 144.060211 307.584 
L 144.060211 290.525538 
L 139.674507 290.525538 
z
" style="fill:#8b0000;opacity:0.4;stroke:#000000;stroke-linejoin:miter;"/>
   </g>
   <g id="patch_121">
    <path clip-path="url(#p69b9b1fbe0)" d="M 144.060211 307.584 
L 148.445915 307.584 
L 148.445915 305.147077 
L 144.060211 305.147077 
z
" style="fill:#8b0000;opacity:0.4;stroke:#000000;stroke-linejoin:miter;"/>
   </g>
   <g id="patch_122">
    <path clip-path="url(#p69b9b1fbe0)" d="M 148.445915 307.584 
L 152.831619 307.584 
L 152.831619 290.525538 
L 148.445915 290.525538 
z
" style="fill:#8b0000;opacity:0.4;stroke:#000000;stroke-linejoin:miter;"/>
   </g>
   <g id="patch_123">
    <path clip-path="url(#p69b9b1fbe0)" d="M 152.831619 307.584 
L 157.217324 307.584 
L 157.217324 295.399385 
L 152.831619 295.399385 
z
" style="fill:#8b0000;opacity:0.4;stroke:#000000;stroke-linejoin:miter;"/>
   </g>
   <g id="patch_124">
    <path clip-path="url(#p69b9b1fbe0)" d="M 157.217324 307.584 
L 161.603028 307.584 
L 161.603028 297.836308 
L 157.217324 297.836308 
z
" style="fill:#8b0000;opacity:0.4;stroke:#000000;stroke-linejoin:miter;"/>
   </g>
   <g id="patch_125">
    <path clip-path="url(#p69b9b1fbe0)" d="M 161.603028 307.584 
L 165.988732 307.584 
L 165.988732 295.399385 
L 161.603028 295.399385 
z
" style="fill:#8b0000;opacity:0.4;stroke:#000000;stroke-linejoin:miter;"/>
   </g>
   <g id="patch_126">
    <path clip-path="url(#p69b9b1fbe0)" d="M 165.988732 307.584 
L 170.374436 307.584 
L 170.374436 288.088615 
L 165.988732 288.088615 
z
" style="fill:#8b0000;opacity:0.4;stroke:#000000;stroke-linejoin:miter;"/>
   </g>
   <g id="patch_127">
    <path clip-path="url(#p69b9b1fbe0)" d="M 170.374436 307.584 
L 174.760141 307.584 
L 174.760141 292.962462 
L 170.374436 292.962462 
z
" style="fill:#8b0000;opacity:0.4;stroke:#000000;stroke-linejoin:miter;"/>
   </g>
   <g id="patch_128">
    <path clip-path="url(#p69b9b1fbe0)" d="M 174.760141 307.584 
L 179.145845 307.584 
L 179.145845 288.088615 
L 174.760141 288.088615 
z
" style="fill:#8b0000;opacity:0.4;stroke:#000000;stroke-linejoin:miter;"/>
   </g>
   <g id="patch_129">
    <path clip-path="url(#p69b9b1fbe0)" d="M 179.145845 307.584 
L 183.531549 307.584 
L 183.531549 305.147077 
L 179.145845 305.147077 
z
" style="fill:#8b0000;opacity:0.4;stroke:#000000;stroke-linejoin:miter;"/>
   </g>
   <g id="patch_130">
    <path clip-path="url(#p69b9b1fbe0)" d="M 183.531549 307.584 
L 187.917253 307.584 
L 187.917253 300.273231 
L 183.531549 300.273231 
z
" style="fill:#8b0000;opacity:0.4;stroke:#000000;stroke-linejoin:miter;"/>
   </g>
   <g id="patch_131">
    <path clip-path="url(#p69b9b1fbe0)" d="M 187.917253 307.584 
L 192.302958 307.584 
L 192.302958 307.584 
L 187.917253 307.584 
z
" style="fill:#8b0000;opacity:0.4;stroke:#000000;stroke-linejoin:miter;"/>
   </g>
   <g id="patch_132">
    <path clip-path="url(#p69b9b1fbe0)" d="M 192.302958 307.584 
L 196.688662 307.584 
L 196.688662 300.273231 
L 192.302958 300.273231 
z
" style="fill:#8b0000;opacity:0.4;stroke:#000000;stroke-linejoin:miter;"/>
   </g>
   <g id="patch_133">
    <path clip-path="url(#p69b9b1fbe0)" d="M 196.688662 307.584 
L 201.074366 307.584 
L 201.074366 295.399385 
L 196.688662 295.399385 
z
" style="fill:#8b0000;opacity:0.4;stroke:#000000;stroke-linejoin:miter;"/>
   </g>
   <g id="patch_134">
    <path clip-path="url(#p69b9b1fbe0)" d="M 201.074366 307.584 
L 205.46007 307.584 
L 205.46007 300.273231 
L 201.074366 300.273231 
z
" style="fill:#8b0000;opacity:0.4;stroke:#000000;stroke-linejoin:miter;"/>
   </g>
   <g id="patch_135">
    <path clip-path="url(#p69b9b1fbe0)" d="M 205.46007 307.584 
L 209.845775 307.584 
L 209.845775 297.836308 
L 205.46007 297.836308 
z
" style="fill:#8b0000;opacity:0.4;stroke:#000000;stroke-linejoin:miter;"/>
   </g>
   <g id="patch_136">
    <path clip-path="url(#p69b9b1fbe0)" d="M 209.845775 307.584 
L 214.231479 307.584 
L 214.231479 297.836308 
L 209.845775 297.836308 
z
" style="fill:#8b0000;opacity:0.4;stroke:#000000;stroke-linejoin:miter;"/>
   </g>
   <g id="patch_137">
    <path clip-path="url(#p69b9b1fbe0)" d="M 214.231479 307.584 
L 218.617183 307.584 
L 218.617183 292.962462 
L 214.231479 292.962462 
z
" style="fill:#8b0000;opacity:0.4;stroke:#000000;stroke-linejoin:miter;"/>
   </g>
   <g id="patch_138">
    <path clip-path="url(#p69b9b1fbe0)" d="M 218.617183 307.584 
L 223.002887 307.584 
L 223.002887 283.214769 
L 218.617183 283.214769 
z
" style="fill:#8b0000;opacity:0.4;stroke:#000000;stroke-linejoin:miter;"/>
   </g>
   <g id="patch_139">
    <path clip-path="url(#p69b9b1fbe0)" d="M 223.002887 307.584 
L 227.388592 307.584 
L 227.388592 300.273231 
L 223.002887 300.273231 
z
" style="fill:#8b0000;opacity:0.4;stroke:#000000;stroke-linejoin:miter;"/>
   </g>
   <g id="patch_140">
    <path clip-path="url(#p69b9b1fbe0)" d="M 227.388592 307.584 
L 231.774296 307.584 
L 231.774296 275.904 
L 227.388592 275.904 
z
" style="fill:#8b0000;opacity:0.4;stroke:#000000;stroke-linejoin:miter;"/>
   </g>
   <g id="patch_141">
    <path clip-path="url(#p69b9b1fbe0)" d="M 231.774296 307.584 
L 236.16 307.584 
L 236.16 268.593231 
L 231.774296 268.593231 
z
" style="fill:#8b0000;opacity:0.4;stroke:#000000;stroke-linejoin:miter;"/>
   </g>
   <g id="patch_142">
    <path clip-path="url(#p69b9b1fbe0)" d="M 236.16 307.584 
L 240.545704 307.584 
L 240.545704 244.224 
L 236.16 244.224 
z
" style="fill:#8b0000;opacity:0.4;stroke:#000000;stroke-linejoin:miter;"/>
   </g>
   <g id="patch_143">
    <path clip-path="url(#p69b9b1fbe0)" d="M 240.545704 307.584 
L 244.931408 307.584 
L 244.931408 258.845538 
L 240.545704 258.845538 
z
" style="fill:#8b0000;opacity:0.4;stroke:#000000;stroke-linejoin:miter;"/>
   </g>
   <g id="patch_144">
    <path clip-path="url(#p69b9b1fbe0)" d="M 244.931408 307.584 
L 249.317113 307.584 
L 249.317113 300.273231 
L 244.931408 300.273231 
z
" style="fill:#8b0000;opacity:0.4;stroke:#000000;stroke-linejoin:miter;"/>
   </g>
   <g id="patch_145">
    <path clip-path="url(#p69b9b1fbe0)" d="M 249.317113 307.584 
L 253.702817 307.584 
L 253.702817 292.962462 
L 249.317113 292.962462 
z
" style="fill:#8b0000;opacity:0.4;stroke:#000000;stroke-linejoin:miter;"/>
   </g>
   <g id="patch_146">
    <path clip-path="url(#p69b9b1fbe0)" d="M 253.702817 307.584 
L 258.088521 307.584 
L 258.088521 297.836308 
L 253.702817 297.836308 
z
" style="fill:#8b0000;opacity:0.4;stroke:#000000;stroke-linejoin:miter;"/>
   </g>
   <g id="patch_147">
    <path clip-path="url(#p69b9b1fbe0)" d="M 258.088521 307.584 
L 262.474225 307.584 
L 262.474225 288.088615 
L 258.088521 288.088615 
z
" style="fill:#8b0000;opacity:0.4;stroke:#000000;stroke-linejoin:miter;"/>
   </g>
   <g id="patch_148">
    <path clip-path="url(#p69b9b1fbe0)" d="M 262.474225 307.584 
L 266.85993 307.584 
L 266.85993 297.836308 
L 262.474225 297.836308 
z
" style="fill:#8b0000;opacity:0.4;stroke:#000000;stroke-linejoin:miter;"/>
   </g>
   <g id="patch_149">
    <path clip-path="url(#p69b9b1fbe0)" d="M 266.85993 307.584 
L 271.245634 307.584 
L 271.245634 283.214769 
L 266.85993 283.214769 
z
" style="fill:#8b0000;opacity:0.4;stroke:#000000;stroke-linejoin:miter;"/>
   </g>
   <g id="patch_150">
    <path clip-path="url(#p69b9b1fbe0)" d="M 271.245634 307.584 
L 275.631338 307.584 
L 275.631338 305.147077 
L 271.245634 305.147077 
z
" style="fill:#8b0000;opacity:0.4;stroke:#000000;stroke-linejoin:miter;"/>
   </g>
   <g id="patch_151">
    <path clip-path="url(#p69b9b1fbe0)" d="M 275.631338 307.584 
L 280.017042 307.584 
L 280.017042 295.399385 
L 275.631338 295.399385 
z
" style="fill:#8b0000;opacity:0.4;stroke:#000000;stroke-linejoin:miter;"/>
   </g>
   <g id="patch_152">
    <path clip-path="url(#p69b9b1fbe0)" d="M 280.017042 307.584 
L 284.402747 307.584 
L 284.402747 300.273231 
L 280.017042 300.273231 
z
" style="fill:#8b0000;opacity:0.4;stroke:#000000;stroke-linejoin:miter;"/>
   </g>
   <g id="patch_153">
    <path clip-path="url(#p69b9b1fbe0)" d="M 284.402747 307.584 
L 288.788451 307.584 
L 288.788451 300.273231 
L 284.402747 300.273231 
z
" style="fill:#8b0000;opacity:0.4;stroke:#000000;stroke-linejoin:miter;"/>
   </g>
   <g id="patch_154">
    <path clip-path="url(#p69b9b1fbe0)" d="M 288.788451 307.584 
L 293.174155 307.584 
L 293.174155 290.525538 
L 288.788451 290.525538 
z
" style="fill:#8b0000;opacity:0.4;stroke:#000000;stroke-linejoin:miter;"/>
   </g>
   <g id="patch_155">
    <path clip-path="url(#p69b9b1fbe0)" d="M 293.174155 307.584 
L 297.559859 307.584 
L 297.559859 302.710154 
L 293.174155 302.710154 
z
" style="fill:#8b0000;opacity:0.4;stroke:#000000;stroke-linejoin:miter;"/>
   </g>
   <g id="patch_156">
    <path clip-path="url(#p69b9b1fbe0)" d="M 297.559859 307.584 
L 301.945564 307.584 
L 301.945564 297.836308 
L 297.559859 297.836308 
z
" style="fill:#8b0000;opacity:0.4;stroke:#000000;stroke-linejoin:miter;"/>
   </g>
   <g id="patch_157">
    <path clip-path="url(#p69b9b1fbe0)" d="M 301.945564 307.584 
L 306.331268 307.584 
L 306.331268 295.399385 
L 301.945564 295.399385 
z
" style="fill:#8b0000;opacity:0.4;stroke:#000000;stroke-linejoin:miter;"/>
   </g>
   <g id="patch_158">
    <path clip-path="url(#p69b9b1fbe0)" d="M 306.331268 307.584 
L 310.716972 307.584 
L 310.716972 290.525538 
L 306.331268 290.525538 
z
" style="fill:#8b0000;opacity:0.4;stroke:#000000;stroke-linejoin:miter;"/>
   </g>
   <g id="patch_159">
    <path clip-path="url(#p69b9b1fbe0)" d="M 310.716972 307.584 
L 315.102676 307.584 
L 315.102676 292.962462 
L 310.716972 292.962462 
z
" style="fill:#8b0000;opacity:0.4;stroke:#000000;stroke-linejoin:miter;"/>
   </g>
   <g id="patch_160">
    <path clip-path="url(#p69b9b1fbe0)" d="M 315.102676 307.584 
L 319.488381 307.584 
L 319.488381 300.273231 
L 315.102676 300.273231 
z
" style="fill:#8b0000;opacity:0.4;stroke:#000000;stroke-linejoin:miter;"/>
   </g>
   <g id="patch_161">
    <path clip-path="url(#p69b9b1fbe0)" d="M 319.488381 307.584 
L 323.874085 307.584 
L 323.874085 285.651692 
L 319.488381 285.651692 
z
" style="fill:#8b0000;opacity:0.4;stroke:#000000;stroke-linejoin:miter;"/>
   </g>
   <g id="patch_162">
    <path clip-path="url(#p69b9b1fbe0)" d="M 323.874085 307.584 
L 328.259789 307.584 
L 328.259789 295.399385 
L 323.874085 295.399385 
z
" style="fill:#8b0000;opacity:0.4;stroke:#000000;stroke-linejoin:miter;"/>
   </g>
   <g id="patch_163">
    <path clip-path="url(#p69b9b1fbe0)" d="M 328.259789 307.584 
L 332.645493 307.584 
L 332.645493 297.836308 
L 328.259789 297.836308 
z
" style="fill:#8b0000;opacity:0.4;stroke:#000000;stroke-linejoin:miter;"/>
   </g>
   <g id="patch_164">
    <path clip-path="url(#p69b9b1fbe0)" d="M 332.645493 307.584 
L 337.031198 307.584 
L 337.031198 302.710154 
L 332.645493 302.710154 
z
" style="fill:#8b0000;opacity:0.4;stroke:#000000;stroke-linejoin:miter;"/>
   </g>
   <g id="patch_165">
    <path clip-path="url(#p69b9b1fbe0)" d="M 337.031198 307.584 
L 341.416902 307.584 
L 341.416902 305.147077 
L 337.031198 305.147077 
z
" style="fill:#8b0000;opacity:0.4;stroke:#000000;stroke-linejoin:miter;"/>
   </g>
   <g id="patch_166">
    <path clip-path="url(#p69b9b1fbe0)" d="M 341.416902 307.584 
L 345.802606 307.584 
L 345.802606 300.273231 
L 341.416902 300.273231 
z
" style="fill:#8b0000;opacity:0.4;stroke:#000000;stroke-linejoin:miter;"/>
   </g>
   <g id="matplotlib.axis_5">
    <g id="xtick_11">
     <g id="line2d_19">
      <g>
       <use style="stroke:#000000;stroke-width:0.8;" x="107.624708" xlink:href="#m84e918e0f9" y="307.584"/>
      </g>
     </g>
     <g id="text_21">
      <!-- −1.0 -->
      <g transform="translate(95.483302 322.182437)scale(0.1 -0.1)">
       <use xlink:href="#DejaVuSans-8722"/>
       <use x="83.789062" xlink:href="#DejaVuSans-49"/>
       <use x="147.412109" xlink:href="#DejaVuSans-46"/>
       <use x="179.199219" xlink:href="#DejaVuSans-48"/>
      </g>
     </g>
    </g>
    <g id="xtick_12">
     <g id="line2d_20">
      <g>
       <use style="stroke:#000000;stroke-width:0.8;" x="173.286934" xlink:href="#m84e918e0f9" y="307.584"/>
      </g>
     </g>
     <g id="text_22">
      <!-- −0.5 -->
      <g transform="translate(161.145528 322.182437)scale(0.1 -0.1)">
       <use xlink:href="#DejaVuSans-8722"/>
       <use x="83.789062" xlink:href="#DejaVuSans-48"/>
       <use x="147.412109" xlink:href="#DejaVuSans-46"/>
       <use x="179.199219" xlink:href="#DejaVuSans-53"/>
      </g>
     </g>
    </g>
    <g id="xtick_13">
     <g id="line2d_21">
      <g>
       <use style="stroke:#000000;stroke-width:0.8;" x="238.94916" xlink:href="#m84e918e0f9" y="307.584"/>
      </g>
     </g>
     <g id="text_23">
      <!-- 0.0 -->
      <g transform="translate(230.997597 322.182437)scale(0.1 -0.1)">
       <use xlink:href="#DejaVuSans-48"/>
       <use x="63.623047" xlink:href="#DejaVuSans-46"/>
       <use x="95.410156" xlink:href="#DejaVuSans-48"/>
      </g>
     </g>
    </g>
    <g id="xtick_14">
     <g id="line2d_22">
      <g>
       <use style="stroke:#000000;stroke-width:0.8;" x="304.611386" xlink:href="#m84e918e0f9" y="307.584"/>
      </g>
     </g>
     <g id="text_24">
      <!-- 0.5 -->
      <g transform="translate(296.659823 322.182437)scale(0.1 -0.1)">
       <use xlink:href="#DejaVuSans-48"/>
       <use x="63.623047" xlink:href="#DejaVuSans-46"/>
       <use x="95.410156" xlink:href="#DejaVuSans-53"/>
      </g>
     </g>
    </g>
    <g id="xtick_15">
     <g id="line2d_23">
      <g>
       <use style="stroke:#000000;stroke-width:0.8;" x="370.273612" xlink:href="#m84e918e0f9" y="307.584"/>
      </g>
     </g>
     <g id="text_25">
      <!-- 1.0 -->
      <g transform="translate(362.322049 322.182437)scale(0.1 -0.1)">
       <use xlink:href="#DejaVuSans-49"/>
       <use x="63.623047" xlink:href="#DejaVuSans-46"/>
       <use x="95.410156" xlink:href="#DejaVuSans-48"/>
      </g>
     </g>
    </g>
    <g id="text_26">
     <!-- Position -->
     <defs>
      <path d="M 19.671875 64.796875 
L 19.671875 37.40625 
L 32.078125 37.40625 
Q 38.96875 37.40625 42.71875 40.96875 
Q 46.484375 44.53125 46.484375 51.125 
Q 46.484375 57.671875 42.71875 61.234375 
Q 38.96875 64.796875 32.078125 64.796875 
z
M 9.8125 72.90625 
L 32.078125 72.90625 
Q 44.34375 72.90625 50.609375 67.359375 
Q 56.890625 61.8125 56.890625 51.125 
Q 56.890625 40.328125 50.609375 34.8125 
Q 44.34375 29.296875 32.078125 29.296875 
L 19.671875 29.296875 
L 19.671875 0 
L 9.8125 0 
z
" id="DejaVuSans-80"/>
      <path d="M 30.609375 48.390625 
Q 23.390625 48.390625 19.1875 42.75 
Q 14.984375 37.109375 14.984375 27.296875 
Q 14.984375 17.484375 19.15625 11.84375 
Q 23.34375 6.203125 30.609375 6.203125 
Q 37.796875 6.203125 41.984375 11.859375 
Q 46.1875 17.53125 46.1875 27.296875 
Q 46.1875 37.015625 41.984375 42.703125 
Q 37.796875 48.390625 30.609375 48.390625 
z
M 30.609375 56 
Q 42.328125 56 49.015625 48.375 
Q 55.71875 40.765625 55.71875 27.296875 
Q 55.71875 13.875 49.015625 6.21875 
Q 42.328125 -1.421875 30.609375 -1.421875 
Q 18.84375 -1.421875 12.171875 6.21875 
Q 5.515625 13.875 5.515625 27.296875 
Q 5.515625 40.765625 12.171875 48.375 
Q 18.84375 56 30.609375 56 
z
" id="DejaVuSans-111"/>
     </defs>
     <g transform="translate(216.517031 335.860562)scale(0.1 -0.1)">
      <use xlink:href="#DejaVuSans-80"/>
      <use x="60.255859" xlink:href="#DejaVuSans-111"/>
      <use x="121.4375" xlink:href="#DejaVuSans-115"/>
      <use x="173.537109" xlink:href="#DejaVuSans-105"/>
      <use x="201.320312" xlink:href="#DejaVuSans-116"/>
      <use x="240.529297" xlink:href="#DejaVuSans-105"/>
      <use x="268.3125" xlink:href="#DejaVuSans-111"/>
      <use x="329.494141" xlink:href="#DejaVuSans-110"/>
     </g>
    </g>
   </g>
   <g id="matplotlib.axis_6">
    <g id="ytick_7">
     <g id="line2d_24">
      <g>
       <use style="stroke:#000000;stroke-width:0.8;" x="57.6" xlink:href="#m97be149fa0" y="307.584"/>
      </g>
     </g>
     <g id="text_27">
      <!-- 0 -->
      <g transform="translate(44.2375 311.383219)scale(0.1 -0.1)">
       <use xlink:href="#DejaVuSans-48"/>
      </g>
     </g>
    </g>
    <g id="ytick_8">
     <g id="line2d_25">
      <g>
       <use style="stroke:#000000;stroke-width:0.8;" x="57.6" xlink:href="#m97be149fa0" y="284.715279"/>
      </g>
     </g>
     <g id="text_28">
      <!-- 1 -->
      <g transform="translate(44.2375 288.514497)scale(0.1 -0.1)">
       <use xlink:href="#DejaVuSans-49"/>
      </g>
     </g>
    </g>
    <g id="ytick_9">
     <g id="line2d_26">
      <g>
       <use style="stroke:#000000;stroke-width:0.8;" x="57.6" xlink:href="#m97be149fa0" y="261.846557"/>
      </g>
     </g>
     <g id="text_29">
      <!-- 2 -->
      <g transform="translate(44.2375 265.645776)scale(0.1 -0.1)">
       <use xlink:href="#DejaVuSans-50"/>
      </g>
     </g>
    </g>
    <g id="text_30">
     <!-- Density -->
     <g transform="translate(38.157812 293.328594)rotate(-90)scale(0.1 -0.1)">
      <use xlink:href="#DejaVuSans-68"/>
      <use x="77.001953" xlink:href="#DejaVuSans-101"/>
      <use x="138.525391" xlink:href="#DejaVuSans-110"/>
      <use x="201.904297" xlink:href="#DejaVuSans-115"/>
      <use x="254.003906" xlink:href="#DejaVuSans-105"/>
      <use x="281.787109" xlink:href="#DejaVuSans-116"/>
      <use x="320.996094" xlink:href="#DejaVuSans-121"/>
     </g>
    </g>
   </g>
   <g id="line2d_27">
    <path clip-path="url(#p69b9b1fbe0)" d="M 73.832727 307.574997 
L 77.112066 307.567592 
L 80.391405 307.554988 
L 83.670744 307.534213 
L 86.950083 307.501049 
L 90.229421 307.449767 
L 93.50876 307.37294 
L 96.788099 307.261411 
L 100.067438 307.1045 
L 103.346777 306.890512 
L 106.626116 306.607597 
L 109.905455 306.244909 
L 113.184793 305.793994 
L 116.464132 305.250213 
L 119.743471 304.61399 
L 123.02281 303.891649 
L 126.302149 303.095667 
L 129.581488 302.244241 
L 132.860826 301.360231 
L 136.140165 300.469654 
L 139.419504 299.599959 
L 142.698843 298.778369 
L 145.978182 298.030458 
L 149.257521 297.379028 
L 152.53686 296.843183 
L 155.816198 296.437435 
L 159.095537 296.170662 
L 162.374876 296.044855 
L 165.654215 296.053771 
L 168.933554 296.181784 
L 172.212893 296.403342 
L 175.492231 296.683394 
L 178.77157 296.978985 
L 182.050909 297.241957 
L 185.330248 297.422407 
L 188.609587 297.4724 
L 191.888926 297.349431 
L 195.168264 297.019282 
L 198.447603 296.458188 
L 201.726942 295.654519 
L 205.006281 294.610259 
L 208.28562 293.342551 
L 211.564959 291.88524 
L 214.844298 290.289991 
L 218.123636 288.626204 
L 221.402975 286.978818 
L 224.682314 285.443333 
L 227.961653 284.117949 
L 231.240992 283.093506 
L 234.520331 282.442726 
L 237.799669 282.210707 
L 241.079008 282.408684 
L 244.358347 283.012449 
L 247.637686 283.965912 
L 250.917025 285.189074 
L 254.196364 286.588798 
L 257.475702 288.070194 
L 260.755041 289.546565 
L 264.03438 290.946414 
L 267.313719 292.216878 
L 270.593058 293.323873 
L 273.872397 294.249861 
L 277.151736 294.990435 
L 280.431074 295.550873 
L 283.710413 295.943436 
L 286.989752 296.185735 
L 290.269091 296.300079 
L 293.54843 296.313391 
L 296.827769 296.257156 
L 300.107107 296.166909 
L 303.386446 296.080916 
L 306.665785 296.037981 
L 309.945124 296.074521 
L 313.224463 296.22132 
L 316.503802 296.500492 
L 319.78314 296.923166 
L 323.062479 297.488367 
L 326.341818 298.183285 
L 329.621157 298.98492 
L 332.900496 299.862825 
L 336.179835 300.782496 
L 339.459174 301.708877 
L 342.738512 302.609508 
L 346.017851 303.456951 
L 349.29719 304.230306 
L 352.576529 304.915816 
L 355.855868 305.506668 
L 359.135207 306.002196 
L 362.414545 306.406708 
L 365.693884 306.728142 
L 368.973223 306.976726 
L 372.252562 307.163758 
L 375.531901 307.300596 
L 378.81124 307.39789 
L 382.090579 307.465078 
L 385.369917 307.510113 
L 388.649256 307.539393 
L 391.928595 307.557849 
L 395.207934 307.569121 
L 398.487273 307.575788 
" style="fill:none;stroke:#8b0000;stroke-linecap:square;stroke-width:4;"/>
   </g>
   <g id="patch_167">
    <path d="M 57.6 307.584 
L 57.6 241.056 
" style="fill:none;stroke:#000000;stroke-linecap:square;stroke-linejoin:miter;stroke-width:0.8;"/>
   </g>
   <g id="patch_168">
    <path d="M 414.72 307.584 
L 414.72 241.056 
" style="fill:none;stroke:#000000;stroke-linecap:square;stroke-linejoin:miter;stroke-width:0.8;"/>
   </g>
   <g id="patch_169">
    <path d="M 57.6 307.584 
L 414.72 307.584 
" style="fill:none;stroke:#000000;stroke-linecap:square;stroke-linejoin:miter;stroke-width:0.8;"/>
   </g>
   <g id="patch_170">
    <path d="M 57.6 241.056 
L 414.72 241.056 
" style="fill:none;stroke:#000000;stroke-linecap:square;stroke-linejoin:miter;stroke-width:0.8;"/>
   </g>
   <g id="legend_3">
    <g id="patch_171">
     <path d="M 370.471563 263.734125 
L 407.72 263.734125 
Q 409.72 263.734125 409.72 261.734125 
L 409.72 248.056 
Q 409.72 246.056 407.72 246.056 
L 370.471563 246.056 
Q 368.471563 246.056 368.471563 248.056 
L 368.471563 261.734125 
Q 368.471563 263.734125 370.471563 263.734125 
z
" style="fill:#ffffff;opacity:0.8;stroke:#cccccc;stroke-linejoin:miter;"/>
    </g>
    <g id="patch_172">
     <path d="M 372.471563 257.654437 
L 392.471563 257.654437 
L 392.471563 250.654437 
L 372.471563 250.654437 
z
" style="fill:#8b0000;opacity:0.4;stroke:#000000;stroke-linejoin:miter;"/>
    </g>
    <g id="text_31">
     <!-- z -->
     <defs>
      <path d="M 5.515625 54.6875 
L 48.1875 54.6875 
L 48.1875 46.484375 
L 14.40625 7.171875 
L 48.1875 7.171875 
L 48.1875 0 
L 4.296875 0 
L 4.296875 8.203125 
L 38.09375 47.515625 
L 5.515625 47.515625 
z
" id="DejaVuSans-122"/>
     </defs>
     <g transform="translate(400.471563 257.654437)scale(0.1 -0.1)">
      <use xlink:href="#DejaVuSans-122"/>
     </g>
    </g>
   </g>
  </g>
  <g id="text_32">
   <!-- Motif 7 Zr 281 Histogram -->
   <defs>
    <path d="M 9.8125 72.90625 
L 24.515625 72.90625 
L 43.109375 23.296875 
L 61.8125 72.90625 
L 76.515625 72.90625 
L 76.515625 0 
L 66.890625 0 
L 66.890625 64.015625 
L 48.09375 14.015625 
L 38.1875 14.015625 
L 19.390625 64.015625 
L 19.390625 0 
L 9.8125 0 
z
" id="DejaVuSans-77"/>
    <path d="M 37.109375 75.984375 
L 37.109375 68.5 
L 28.515625 68.5 
Q 23.6875 68.5 21.796875 66.546875 
Q 19.921875 64.59375 19.921875 59.515625 
L 19.921875 54.6875 
L 34.71875 54.6875 
L 34.71875 47.703125 
L 19.921875 47.703125 
L 19.921875 0 
L 10.890625 0 
L 10.890625 47.703125 
L 2.296875 47.703125 
L 2.296875 54.6875 
L 10.890625 54.6875 
L 10.890625 58.5 
Q 10.890625 67.625 15.140625 71.796875 
Q 19.390625 75.984375 28.609375 75.984375 
z
" id="DejaVuSans-102"/>
    <path id="DejaVuSans-32"/>
    <path d="M 8.203125 72.90625 
L 55.078125 72.90625 
L 55.078125 68.703125 
L 28.609375 0 
L 18.3125 0 
L 43.21875 64.59375 
L 8.203125 64.59375 
z
" id="DejaVuSans-55"/>
    <path d="M 5.609375 72.90625 
L 62.890625 72.90625 
L 62.890625 65.375 
L 16.796875 8.296875 
L 64.015625 8.296875 
L 64.015625 0 
L 4.5 0 
L 4.5 7.515625 
L 50.59375 64.59375 
L 5.609375 64.59375 
z
" id="DejaVuSans-90"/>
    <path d="M 41.109375 46.296875 
Q 39.59375 47.171875 37.8125 47.578125 
Q 36.03125 48 33.890625 48 
Q 26.265625 48 22.1875 43.046875 
Q 18.109375 38.09375 18.109375 28.8125 
L 18.109375 0 
L 9.078125 0 
L 9.078125 54.6875 
L 18.109375 54.6875 
L 18.109375 46.1875 
Q 20.953125 51.171875 25.484375 53.578125 
Q 30.03125 56 36.53125 56 
Q 37.453125 56 38.578125 55.875 
Q 39.703125 55.765625 41.0625 55.515625 
z
" id="DejaVuSans-114"/>
    <path d="M 31.78125 34.625 
Q 24.75 34.625 20.71875 30.859375 
Q 16.703125 27.09375 16.703125 20.515625 
Q 16.703125 13.921875 20.71875 10.15625 
Q 24.75 6.390625 31.78125 6.390625 
Q 38.8125 6.390625 42.859375 10.171875 
Q 46.921875 13.96875 46.921875 20.515625 
Q 46.921875 27.09375 42.890625 30.859375 
Q 38.875 34.625 31.78125 34.625 
z
M 21.921875 38.8125 
Q 15.578125 40.375 12.03125 44.71875 
Q 8.5 49.078125 8.5 55.328125 
Q 8.5 64.0625 14.71875 69.140625 
Q 20.953125 74.21875 31.78125 74.21875 
Q 42.671875 74.21875 48.875 69.140625 
Q 55.078125 64.0625 55.078125 55.328125 
Q 55.078125 49.078125 51.53125 44.71875 
Q 48 40.375 41.703125 38.8125 
Q 48.828125 37.15625 52.796875 32.3125 
Q 56.78125 27.484375 56.78125 20.515625 
Q 56.78125 9.90625 50.3125 4.234375 
Q 43.84375 -1.421875 31.78125 -1.421875 
Q 19.734375 -1.421875 13.25 4.234375 
Q 6.78125 9.90625 6.78125 20.515625 
Q 6.78125 27.484375 10.78125 32.3125 
Q 14.796875 37.15625 21.921875 38.8125 
z
M 18.3125 54.390625 
Q 18.3125 48.734375 21.84375 45.5625 
Q 25.390625 42.390625 31.78125 42.390625 
Q 38.140625 42.390625 41.71875 45.5625 
Q 45.3125 48.734375 45.3125 54.390625 
Q 45.3125 60.0625 41.71875 63.234375 
Q 38.140625 66.40625 31.78125 66.40625 
Q 25.390625 66.40625 21.84375 63.234375 
Q 18.3125 60.0625 18.3125 54.390625 
z
" id="DejaVuSans-56"/>
    <path d="M 9.8125 72.90625 
L 19.671875 72.90625 
L 19.671875 43.015625 
L 55.515625 43.015625 
L 55.515625 72.90625 
L 65.375 72.90625 
L 65.375 0 
L 55.515625 0 
L 55.515625 34.71875 
L 19.671875 34.71875 
L 19.671875 0 
L 9.8125 0 
z
" id="DejaVuSans-72"/>
    <path d="M 45.40625 27.984375 
Q 45.40625 37.75 41.375 43.109375 
Q 37.359375 48.484375 30.078125 48.484375 
Q 22.859375 48.484375 18.828125 43.109375 
Q 14.796875 37.75 14.796875 27.984375 
Q 14.796875 18.265625 18.828125 12.890625 
Q 22.859375 7.515625 30.078125 7.515625 
Q 37.359375 7.515625 41.375 12.890625 
Q 45.40625 18.265625 45.40625 27.984375 
z
M 54.390625 6.78125 
Q 54.390625 -7.171875 48.1875 -13.984375 
Q 42 -20.796875 29.203125 -20.796875 
Q 24.46875 -20.796875 20.265625 -20.09375 
Q 16.0625 -19.390625 12.109375 -17.921875 
L 12.109375 -9.1875 
Q 16.0625 -11.328125 19.921875 -12.34375 
Q 23.78125 -13.375 27.78125 -13.375 
Q 36.625 -13.375 41.015625 -8.765625 
Q 45.40625 -4.15625 45.40625 5.171875 
L 45.40625 9.625 
Q 42.625 4.78125 38.28125 2.390625 
Q 33.9375 0 27.875 0 
Q 17.828125 0 11.671875 7.65625 
Q 5.515625 15.328125 5.515625 27.984375 
Q 5.515625 40.671875 11.671875 48.328125 
Q 17.828125 56 27.875 56 
Q 33.9375 56 38.28125 53.609375 
Q 42.625 51.21875 45.40625 46.390625 
L 45.40625 54.6875 
L 54.390625 54.6875 
z
" id="DejaVuSans-103"/>
    <path d="M 34.28125 27.484375 
Q 23.390625 27.484375 19.1875 25 
Q 14.984375 22.515625 14.984375 16.5 
Q 14.984375 11.71875 18.140625 8.90625 
Q 21.296875 6.109375 26.703125 6.109375 
Q 34.1875 6.109375 38.703125 11.40625 
Q 43.21875 16.703125 43.21875 25.484375 
L 43.21875 27.484375 
z
M 52.203125 31.203125 
L 52.203125 0 
L 43.21875 0 
L 43.21875 8.296875 
Q 40.140625 3.328125 35.546875 0.953125 
Q 30.953125 -1.421875 24.3125 -1.421875 
Q 15.921875 -1.421875 10.953125 3.296875 
Q 6 8.015625 6 15.921875 
Q 6 25.140625 12.171875 29.828125 
Q 18.359375 34.515625 30.609375 34.515625 
L 43.21875 34.515625 
L 43.21875 35.40625 
Q 43.21875 41.609375 39.140625 45 
Q 35.0625 48.390625 27.6875 48.390625 
Q 23 48.390625 18.546875 47.265625 
Q 14.109375 46.140625 10.015625 43.890625 
L 10.015625 52.203125 
Q 14.9375 54.109375 19.578125 55.046875 
Q 24.21875 56 28.609375 56 
Q 40.484375 56 46.34375 49.84375 
Q 52.203125 43.703125 52.203125 31.203125 
z
" id="DejaVuSans-97"/>
    <path d="M 52 44.1875 
Q 55.375 50.25 60.0625 53.125 
Q 64.75 56 71.09375 56 
Q 79.640625 56 84.28125 50.015625 
Q 88.921875 44.046875 88.921875 33.015625 
L 88.921875 0 
L 79.890625 0 
L 79.890625 32.71875 
Q 79.890625 40.578125 77.09375 44.375 
Q 74.3125 48.1875 68.609375 48.1875 
Q 61.625 48.1875 57.5625 43.546875 
Q 53.515625 38.921875 53.515625 30.90625 
L 53.515625 0 
L 44.484375 0 
L 44.484375 32.71875 
Q 44.484375 40.625 41.703125 44.40625 
Q 38.921875 48.1875 33.109375 48.1875 
Q 26.21875 48.1875 22.15625 43.53125 
Q 18.109375 38.875 18.109375 30.90625 
L 18.109375 0 
L 9.078125 0 
L 9.078125 54.6875 
L 18.109375 54.6875 
L 18.109375 46.1875 
Q 21.1875 51.21875 25.484375 53.609375 
Q 29.78125 56 35.6875 56 
Q 41.65625 56 45.828125 52.96875 
Q 50 49.953125 52 44.1875 
z
" id="DejaVuSans-109"/>
   </defs>
   <g transform="translate(154.821563 16.030125)scale(0.12 -0.12)">
    <use xlink:href="#DejaVuSans-77"/>
    <use x="86.279297" xlink:href="#DejaVuSans-111"/>
    <use x="147.460938" xlink:href="#DejaVuSans-116"/>
    <use x="186.669922" xlink:href="#DejaVuSans-105"/>
    <use x="214.453125" xlink:href="#DejaVuSans-102"/>
    <use x="249.658203" xlink:href="#DejaVuSans-32"/>
    <use x="281.445312" xlink:href="#DejaVuSans-55"/>
    <use x="345.068359" xlink:href="#DejaVuSans-32"/>
    <use x="376.855469" xlink:href="#DejaVuSans-90"/>
    <use x="445.361328" xlink:href="#DejaVuSans-114"/>
    <use x="486.474609" xlink:href="#DejaVuSans-32"/>
    <use x="518.261719" xlink:href="#DejaVuSans-50"/>
    <use x="581.884766" xlink:href="#DejaVuSans-56"/>
    <use x="645.507812" xlink:href="#DejaVuSans-49"/>
    <use x="709.130859" xlink:href="#DejaVuSans-32"/>
    <use x="740.917969" xlink:href="#DejaVuSans-72"/>
    <use x="816.113281" xlink:href="#DejaVuSans-105"/>
    <use x="843.896484" xlink:href="#DejaVuSans-115"/>
    <use x="895.996094" xlink:href="#DejaVuSans-116"/>
    <use x="935.205078" xlink:href="#DejaVuSans-111"/>
    <use x="996.386719" xlink:href="#DejaVuSans-103"/>
    <use x="1059.863281" xlink:href="#DejaVuSans-114"/>
    <use x="1100.976562" xlink:href="#DejaVuSans-97"/>
    <use x="1162.255859" xlink:href="#DejaVuSans-109"/>
   </g>
  </g>
 </g>
 <defs>
  <clipPath id="p62944d23d2">
   <rect height="66.528" width="357.12" x="57.6" y="41.472"/>
  </clipPath>
  <clipPath id="pbb0a8075e5">
   <rect height="66.528" width="357.12" x="57.6" y="141.264"/>
  </clipPath>
  <clipPath id="p69b9b1fbe0">
   <rect height="66.528" width="357.12" x="57.6" y="241.056"/>
  </clipPath>
 </defs>
</svg>
