<?xml version="1.0" encoding="utf-8" standalone="no"?>
<!DOCTYPE svg PUBLIC "-//W3C//DTD SVG 1.1//EN"
  "http://www.w3.org/Graphics/SVG/1.1/DTD/svg11.dtd">
<!-- Created with matplotlib (https://matplotlib.org/) -->
<svg height="345.6pt" version="1.1" viewBox="0 0 460.8 345.6" width="460.8pt" xmlns="http://www.w3.org/2000/svg" xmlns:xlink="http://www.w3.org/1999/xlink">
 <defs>
  <style type="text/css">
*{stroke-linecap:butt;stroke-linejoin:round;}
  </style>
 </defs>
 <g id="figure_1">
  <g id="patch_1">
   <path d="M 0 345.6 
L 460.8 345.6 
L 460.8 0 
L 0 0 
z
" style="fill:#ffffff;"/>
  </g>
  <g id="axes_1">
   <g id="patch_2">
    <path d="M 57.6 108 
L 414.72 108 
L 414.72 41.472 
L 57.6 41.472 
z
" style="fill:#ffffff;"/>
   </g>
   <g id="patch_3">
    <path clip-path="url(#p8b83057198)" d="M 109.232344 108 
L 114.30945 108 
L 114.30945 103.897554 
L 109.232344 103.897554 
z
" style="fill:#00008b;opacity:0.4;stroke:#000000;stroke-linejoin:miter;"/>
   </g>
   <g id="patch_4">
    <path clip-path="url(#p8b83057198)" d="M 114.30945 108 
L 119.386557 108 
L 119.386557 100.706763 
L 114.30945 100.706763 
z
" style="fill:#00008b;opacity:0.4;stroke:#000000;stroke-linejoin:miter;"/>
   </g>
   <g id="patch_5">
    <path clip-path="url(#p8b83057198)" d="M 119.386557 108 
L 124.463663 108 
L 124.463663 91.590216 
L 119.386557 91.590216 
z
" style="fill:#00008b;opacity:0.4;stroke:#000000;stroke-linejoin:miter;"/>
   </g>
   <g id="patch_6">
    <path clip-path="url(#p8b83057198)" d="M 124.463663 108 
L 129.540769 108 
L 129.540769 88.399424 
L 124.463663 88.399424 
z
" style="fill:#00008b;opacity:0.4;stroke:#000000;stroke-linejoin:miter;"/>
   </g>
   <g id="patch_7">
    <path clip-path="url(#p8b83057198)" d="M 129.540769 108 
L 134.617875 108 
L 134.617875 92.046043 
L 129.540769 92.046043 
z
" style="fill:#00008b;opacity:0.4;stroke:#000000;stroke-linejoin:miter;"/>
   </g>
   <g id="patch_8">
    <path clip-path="url(#p8b83057198)" d="M 134.617875 108 
L 139.694982 108 
L 139.694982 81.562014 
L 134.617875 81.562014 
z
" style="fill:#00008b;opacity:0.4;stroke:#000000;stroke-linejoin:miter;"/>
   </g>
   <g id="patch_9">
    <path clip-path="url(#p8b83057198)" d="M 139.694982 108 
L 144.772088 108 
L 144.772088 89.311079 
L 139.694982 89.311079 
z
" style="fill:#00008b;opacity:0.4;stroke:#000000;stroke-linejoin:miter;"/>
   </g>
   <g id="patch_10">
    <path clip-path="url(#p8b83057198)" d="M 144.772088 108 
L 149.849194 108 
L 149.849194 87.031942 
L 144.772088 87.031942 
z
" style="fill:#00008b;opacity:0.4;stroke:#000000;stroke-linejoin:miter;"/>
   </g>
   <g id="patch_11">
    <path clip-path="url(#p8b83057198)" d="M 149.849194 108 
L 154.9263 108 
L 154.9263 86.576115 
L 149.849194 86.576115 
z
" style="fill:#00008b;opacity:0.4;stroke:#000000;stroke-linejoin:miter;"/>
   </g>
   <g id="patch_12">
    <path clip-path="url(#p8b83057198)" d="M 154.9263 108 
L 160.003406 108 
L 160.003406 89.311079 
L 154.9263 89.311079 
z
" style="fill:#00008b;opacity:0.4;stroke:#000000;stroke-linejoin:miter;"/>
   </g>
   <g id="patch_13">
    <path clip-path="url(#p8b83057198)" d="M 160.003406 108 
L 165.080513 108 
L 165.080513 88.399424 
L 160.003406 88.399424 
z
" style="fill:#00008b;opacity:0.4;stroke:#000000;stroke-linejoin:miter;"/>
   </g>
   <g id="patch_14">
    <path clip-path="url(#p8b83057198)" d="M 165.080513 108 
L 170.157619 108 
L 170.157619 77.003741 
L 165.080513 77.003741 
z
" style="fill:#00008b;opacity:0.4;stroke:#000000;stroke-linejoin:miter;"/>
   </g>
   <g id="patch_15">
    <path clip-path="url(#p8b83057198)" d="M 170.157619 108 
L 175.234725 108 
L 175.234725 71.533813 
L 170.157619 71.533813 
z
" style="fill:#00008b;opacity:0.4;stroke:#000000;stroke-linejoin:miter;"/>
   </g>
   <g id="patch_16">
    <path clip-path="url(#p8b83057198)" d="M 175.234725 108 
L 180.311831 108 
L 180.311831 51.021583 
L 175.234725 51.021583 
z
" style="fill:#00008b;opacity:0.4;stroke:#000000;stroke-linejoin:miter;"/>
   </g>
   <g id="patch_17">
    <path clip-path="url(#p8b83057198)" d="M 180.311831 108 
L 185.388938 108 
L 185.388938 64.240576 
L 180.311831 64.240576 
z
" style="fill:#00008b;opacity:0.4;stroke:#000000;stroke-linejoin:miter;"/>
   </g>
   <g id="patch_18">
    <path clip-path="url(#p8b83057198)" d="M 185.388938 108 
L 190.466044 108 
L 190.466044 57.858993 
L 185.388938 57.858993 
z
" style="fill:#00008b;opacity:0.4;stroke:#000000;stroke-linejoin:miter;"/>
   </g>
   <g id="patch_19">
    <path clip-path="url(#p8b83057198)" d="M 190.466044 108 
L 195.54315 108 
L 195.54315 63.784748 
L 190.466044 63.784748 
z
" style="fill:#00008b;opacity:0.4;stroke:#000000;stroke-linejoin:miter;"/>
   </g>
   <g id="patch_20">
    <path clip-path="url(#p8b83057198)" d="M 195.54315 108 
L 200.620256 108 
L 200.620256 84.296978 
L 195.54315 84.296978 
z
" style="fill:#00008b;opacity:0.4;stroke:#000000;stroke-linejoin:miter;"/>
   </g>
   <g id="patch_21">
    <path clip-path="url(#p8b83057198)" d="M 200.620256 108 
L 205.697363 108 
L 205.697363 83.841151 
L 200.620256 83.841151 
z
" style="fill:#00008b;opacity:0.4;stroke:#000000;stroke-linejoin:miter;"/>
   </g>
   <g id="patch_22">
    <path clip-path="url(#p8b83057198)" d="M 205.697363 108 
L 210.774469 108 
L 210.774469 83.841151 
L 205.697363 83.841151 
z
" style="fill:#00008b;opacity:0.4;stroke:#000000;stroke-linejoin:miter;"/>
   </g>
   <g id="patch_23">
    <path clip-path="url(#p8b83057198)" d="M 210.774469 108 
L 215.851575 108 
L 215.851575 78.82705 
L 210.774469 78.82705 
z
" style="fill:#00008b;opacity:0.4;stroke:#000000;stroke-linejoin:miter;"/>
   </g>
   <g id="patch_24">
    <path clip-path="url(#p8b83057198)" d="M 215.851575 108 
L 220.928681 108 
L 220.928681 74.724604 
L 215.851575 74.724604 
z
" style="fill:#00008b;opacity:0.4;stroke:#000000;stroke-linejoin:miter;"/>
   </g>
   <g id="patch_25">
    <path clip-path="url(#p8b83057198)" d="M 220.928681 108 
L 226.005788 108 
L 226.005788 73.81295 
L 220.928681 73.81295 
z
" style="fill:#00008b;opacity:0.4;stroke:#000000;stroke-linejoin:miter;"/>
   </g>
   <g id="patch_26">
    <path clip-path="url(#p8b83057198)" d="M 226.005788 108 
L 231.082894 108 
L 231.082894 63.328921 
L 226.005788 63.328921 
z
" style="fill:#00008b;opacity:0.4;stroke:#000000;stroke-linejoin:miter;"/>
   </g>
   <g id="patch_27">
    <path clip-path="url(#p8b83057198)" d="M 231.082894 108 
L 236.16 108 
L 236.16 44.64 
L 231.082894 44.64 
z
" style="fill:#00008b;opacity:0.4;stroke:#000000;stroke-linejoin:miter;"/>
   </g>
   <g id="patch_28">
    <path clip-path="url(#p8b83057198)" d="M 236.16 108 
L 241.237106 108 
L 241.237106 45.095827 
L 236.16 45.095827 
z
" style="fill:#00008b;opacity:0.4;stroke:#000000;stroke-linejoin:miter;"/>
   </g>
   <g id="patch_29">
    <path clip-path="url(#p8b83057198)" d="M 241.237106 108 
L 246.314212 108 
L 246.314212 60.593957 
L 241.237106 60.593957 
z
" style="fill:#00008b;opacity:0.4;stroke:#000000;stroke-linejoin:miter;"/>
   </g>
   <g id="patch_30">
    <path clip-path="url(#p8b83057198)" d="M 246.314212 108 
L 251.391319 108 
L 251.391319 66.063885 
L 246.314212 66.063885 
z
" style="fill:#00008b;opacity:0.4;stroke:#000000;stroke-linejoin:miter;"/>
   </g>
   <g id="patch_31">
    <path clip-path="url(#p8b83057198)" d="M 251.391319 108 
L 256.468425 108 
L 256.468425 73.357122 
L 251.391319 73.357122 
z
" style="fill:#00008b;opacity:0.4;stroke:#000000;stroke-linejoin:miter;"/>
   </g>
   <g id="patch_32">
    <path clip-path="url(#p8b83057198)" d="M 256.468425 108 
L 261.545531 108 
L 261.545531 77.915396 
L 256.468425 77.915396 
z
" style="fill:#00008b;opacity:0.4;stroke:#000000;stroke-linejoin:miter;"/>
   </g>
   <g id="patch_33">
    <path clip-path="url(#p8b83057198)" d="M 261.545531 108 
L 266.622637 108 
L 266.622637 79.738705 
L 261.545531 79.738705 
z
" style="fill:#00008b;opacity:0.4;stroke:#000000;stroke-linejoin:miter;"/>
   </g>
   <g id="patch_34">
    <path clip-path="url(#p8b83057198)" d="M 266.622637 108 
L 271.699744 108 
L 271.699744 81.562014 
L 266.622637 81.562014 
z
" style="fill:#00008b;opacity:0.4;stroke:#000000;stroke-linejoin:miter;"/>
   </g>
   <g id="patch_35">
    <path clip-path="url(#p8b83057198)" d="M 271.699744 108 
L 276.77685 108 
L 276.77685 66.063885 
L 271.699744 66.063885 
z
" style="fill:#00008b;opacity:0.4;stroke:#000000;stroke-linejoin:miter;"/>
   </g>
   <g id="patch_36">
    <path clip-path="url(#p8b83057198)" d="M 276.77685 108 
L 281.853956 108 
L 281.853956 62.417266 
L 276.77685 62.417266 
z
" style="fill:#00008b;opacity:0.4;stroke:#000000;stroke-linejoin:miter;"/>
   </g>
   <g id="patch_37">
    <path clip-path="url(#p8b83057198)" d="M 281.853956 108 
L 286.931062 108 
L 286.931062 63.328921 
L 281.853956 63.328921 
z
" style="fill:#00008b;opacity:0.4;stroke:#000000;stroke-linejoin:miter;"/>
   </g>
   <g id="patch_38">
    <path clip-path="url(#p8b83057198)" d="M 286.931062 108 
L 292.008169 108 
L 292.008169 63.328921 
L 286.931062 63.328921 
z
" style="fill:#00008b;opacity:0.4;stroke:#000000;stroke-linejoin:miter;"/>
   </g>
   <g id="patch_39">
    <path clip-path="url(#p8b83057198)" d="M 292.008169 108 
L 297.085275 108 
L 297.085275 78.82705 
L 292.008169 78.82705 
z
" style="fill:#00008b;opacity:0.4;stroke:#000000;stroke-linejoin:miter;"/>
   </g>
   <g id="patch_40">
    <path clip-path="url(#p8b83057198)" d="M 297.085275 108 
L 302.162381 108 
L 302.162381 71.533813 
L 297.085275 71.533813 
z
" style="fill:#00008b;opacity:0.4;stroke:#000000;stroke-linejoin:miter;"/>
   </g>
   <g id="patch_41">
    <path clip-path="url(#p8b83057198)" d="M 302.162381 108 
L 307.239487 108 
L 307.239487 88.855252 
L 302.162381 88.855252 
z
" style="fill:#00008b;opacity:0.4;stroke:#000000;stroke-linejoin:miter;"/>
   </g>
   <g id="patch_42">
    <path clip-path="url(#p8b83057198)" d="M 307.239487 108 
L 312.316594 108 
L 312.316594 87.943597 
L 307.239487 87.943597 
z
" style="fill:#00008b;opacity:0.4;stroke:#000000;stroke-linejoin:miter;"/>
   </g>
   <g id="patch_43">
    <path clip-path="url(#p8b83057198)" d="M 312.316594 108 
L 317.3937 108 
L 317.3937 88.855252 
L 312.316594 88.855252 
z
" style="fill:#00008b;opacity:0.4;stroke:#000000;stroke-linejoin:miter;"/>
   </g>
   <g id="patch_44">
    <path clip-path="url(#p8b83057198)" d="M 317.3937 108 
L 322.470806 108 
L 322.470806 85.66446 
L 317.3937 85.66446 
z
" style="fill:#00008b;opacity:0.4;stroke:#000000;stroke-linejoin:miter;"/>
   </g>
   <g id="patch_45">
    <path clip-path="url(#p8b83057198)" d="M 322.470806 108 
L 327.547912 108 
L 327.547912 72.445468 
L 322.470806 72.445468 
z
" style="fill:#00008b;opacity:0.4;stroke:#000000;stroke-linejoin:miter;"/>
   </g>
   <g id="patch_46">
    <path clip-path="url(#p8b83057198)" d="M 327.547912 108 
L 332.625018 108 
L 332.625018 91.590216 
L 327.547912 91.590216 
z
" style="fill:#00008b;opacity:0.4;stroke:#000000;stroke-linejoin:miter;"/>
   </g>
   <g id="patch_47">
    <path clip-path="url(#p8b83057198)" d="M 332.625018 108 
L 337.702125 108 
L 337.702125 88.855252 
L 332.625018 88.855252 
z
" style="fill:#00008b;opacity:0.4;stroke:#000000;stroke-linejoin:miter;"/>
   </g>
   <g id="patch_48">
    <path clip-path="url(#p8b83057198)" d="M 337.702125 108 
L 342.779231 108 
L 342.779231 89.766906 
L 337.702125 89.766906 
z
" style="fill:#00008b;opacity:0.4;stroke:#000000;stroke-linejoin:miter;"/>
   </g>
   <g id="patch_49">
    <path clip-path="url(#p8b83057198)" d="M 342.779231 108 
L 347.856337 108 
L 347.856337 96.148489 
L 342.779231 96.148489 
z
" style="fill:#00008b;opacity:0.4;stroke:#000000;stroke-linejoin:miter;"/>
   </g>
   <g id="patch_50">
    <path clip-path="url(#p8b83057198)" d="M 347.856337 108 
L 352.933443 108 
L 352.933443 97.060144 
L 347.856337 97.060144 
z
" style="fill:#00008b;opacity:0.4;stroke:#000000;stroke-linejoin:miter;"/>
   </g>
   <g id="patch_51">
    <path clip-path="url(#p8b83057198)" d="M 352.933443 108 
L 358.01055 108 
L 358.01055 103.897554 
L 352.933443 103.897554 
z
" style="fill:#00008b;opacity:0.4;stroke:#000000;stroke-linejoin:miter;"/>
   </g>
   <g id="patch_52">
    <path clip-path="url(#p8b83057198)" d="M 358.01055 108 
L 363.087656 108 
L 363.087656 105.265036 
L 358.01055 105.265036 
z
" style="fill:#00008b;opacity:0.4;stroke:#000000;stroke-linejoin:miter;"/>
   </g>
   <g id="matplotlib.axis_1">
    <g id="xtick_1">
     <g id="line2d_1">
      <defs>
       <path d="M 0 0 
L 0 3.5 
" id="me1b26b2009" style="stroke:#000000;stroke-width:0.8;"/>
      </defs>
      <g>
       <use style="stroke:#000000;stroke-width:0.8;" x="94.869234" xlink:href="#me1b26b2009" y="108"/>
      </g>
     </g>
     <g id="text_1">
      <!-- −1.0 -->
      <defs>
       <path d="M 10.59375 35.5 
L 73.1875 35.5 
L 73.1875 27.203125 
L 10.59375 27.203125 
z
" id="DejaVuSans-8722"/>
       <path d="M 12.40625 8.296875 
L 28.515625 8.296875 
L 28.515625 63.921875 
L 10.984375 60.40625 
L 10.984375 69.390625 
L 28.421875 72.90625 
L 38.28125 72.90625 
L 38.28125 8.296875 
L 54.390625 8.296875 
L 54.390625 0 
L 12.40625 0 
z
" id="DejaVuSans-49"/>
       <path d="M 10.6875 12.40625 
L 21 12.40625 
L 21 0 
L 10.6875 0 
z
" id="DejaVuSans-46"/>
       <path d="M 31.78125 66.40625 
Q 24.171875 66.40625 20.328125 58.90625 
Q 16.5 51.421875 16.5 36.375 
Q 16.5 21.390625 20.328125 13.890625 
Q 24.171875 6.390625 31.78125 6.390625 
Q 39.453125 6.390625 43.28125 13.890625 
Q 47.125 21.390625 47.125 36.375 
Q 47.125 51.421875 43.28125 58.90625 
Q 39.453125 66.40625 31.78125 66.40625 
z
M 31.78125 74.21875 
Q 44.046875 74.21875 50.515625 64.515625 
Q 56.984375 54.828125 56.984375 36.375 
Q 56.984375 17.96875 50.515625 8.265625 
Q 44.046875 -1.421875 31.78125 -1.421875 
Q 19.53125 -1.421875 13.0625 8.265625 
Q 6.59375 17.96875 6.59375 36.375 
Q 6.59375 54.828125 13.0625 64.515625 
Q 19.53125 74.21875 31.78125 74.21875 
z
" id="DejaVuSans-48"/>
      </defs>
      <g transform="translate(82.727828 122.598437)scale(0.1 -0.1)">
       <use xlink:href="#DejaVuSans-8722"/>
       <use x="83.789062" xlink:href="#DejaVuSans-49"/>
       <use x="147.412109" xlink:href="#DejaVuSans-46"/>
       <use x="179.199219" xlink:href="#DejaVuSans-48"/>
      </g>
     </g>
    </g>
    <g id="xtick_2">
     <g id="line2d_2">
      <g>
       <use style="stroke:#000000;stroke-width:0.8;" x="164.553125" xlink:href="#me1b26b2009" y="108"/>
      </g>
     </g>
     <g id="text_2">
      <!-- −0.5 -->
      <defs>
       <path d="M 10.796875 72.90625 
L 49.515625 72.90625 
L 49.515625 64.59375 
L 19.828125 64.59375 
L 19.828125 46.734375 
Q 21.96875 47.46875 24.109375 47.828125 
Q 26.265625 48.1875 28.421875 48.1875 
Q 40.625 48.1875 47.75 41.5 
Q 54.890625 34.8125 54.890625 23.390625 
Q 54.890625 11.625 47.5625 5.09375 
Q 40.234375 -1.421875 26.90625 -1.421875 
Q 22.3125 -1.421875 17.546875 -0.640625 
Q 12.796875 0.140625 7.71875 1.703125 
L 7.71875 11.625 
Q 12.109375 9.234375 16.796875 8.0625 
Q 21.484375 6.890625 26.703125 6.890625 
Q 35.15625 6.890625 40.078125 11.328125 
Q 45.015625 15.765625 45.015625 23.390625 
Q 45.015625 31 40.078125 35.4375 
Q 35.15625 39.890625 26.703125 39.890625 
Q 22.75 39.890625 18.8125 39.015625 
Q 14.890625 38.140625 10.796875 36.28125 
z
" id="DejaVuSans-53"/>
      </defs>
      <g transform="translate(152.411719 122.598437)scale(0.1 -0.1)">
       <use xlink:href="#DejaVuSans-8722"/>
       <use x="83.789062" xlink:href="#DejaVuSans-48"/>
       <use x="147.412109" xlink:href="#DejaVuSans-46"/>
       <use x="179.199219" xlink:href="#DejaVuSans-53"/>
      </g>
     </g>
    </g>
    <g id="xtick_3">
     <g id="line2d_3">
      <g>
       <use style="stroke:#000000;stroke-width:0.8;" x="234.237016" xlink:href="#me1b26b2009" y="108"/>
      </g>
     </g>
     <g id="text_3">
      <!-- 0.0 -->
      <g transform="translate(226.285453 122.598437)scale(0.1 -0.1)">
       <use xlink:href="#DejaVuSans-48"/>
       <use x="63.623047" xlink:href="#DejaVuSans-46"/>
       <use x="95.410156" xlink:href="#DejaVuSans-48"/>
      </g>
     </g>
    </g>
    <g id="xtick_4">
     <g id="line2d_4">
      <g>
       <use style="stroke:#000000;stroke-width:0.8;" x="303.920906" xlink:href="#me1b26b2009" y="108"/>
      </g>
     </g>
     <g id="text_4">
      <!-- 0.5 -->
      <g transform="translate(295.969344 122.598437)scale(0.1 -0.1)">
       <use xlink:href="#DejaVuSans-48"/>
       <use x="63.623047" xlink:href="#DejaVuSans-46"/>
       <use x="95.410156" xlink:href="#DejaVuSans-53"/>
      </g>
     </g>
    </g>
    <g id="xtick_5">
     <g id="line2d_5">
      <g>
       <use style="stroke:#000000;stroke-width:0.8;" x="373.604797" xlink:href="#me1b26b2009" y="108"/>
      </g>
     </g>
     <g id="text_5">
      <!-- 1.0 -->
      <g transform="translate(365.653234 122.598437)scale(0.1 -0.1)">
       <use xlink:href="#DejaVuSans-49"/>
       <use x="63.623047" xlink:href="#DejaVuSans-46"/>
       <use x="95.410156" xlink:href="#DejaVuSans-48"/>
      </g>
     </g>
    </g>
   </g>
   <g id="matplotlib.axis_2">
    <g id="ytick_1">
     <g id="line2d_6">
      <defs>
       <path d="M 0 0 
L -3.5 0 
" id="mf69830ccf3" style="stroke:#000000;stroke-width:0.8;"/>
      </defs>
      <g>
       <use style="stroke:#000000;stroke-width:0.8;" x="57.6" xlink:href="#mf69830ccf3" y="108"/>
      </g>
     </g>
     <g id="text_6">
      <!-- 0.0 -->
      <g transform="translate(34.696875 111.799219)scale(0.1 -0.1)">
       <use xlink:href="#DejaVuSans-48"/>
       <use x="63.623047" xlink:href="#DejaVuSans-46"/>
       <use x="95.410156" xlink:href="#DejaVuSans-48"/>
      </g>
     </g>
    </g>
    <g id="ytick_2">
     <g id="line2d_7">
      <g>
       <use style="stroke:#000000;stroke-width:0.8;" x="57.6" xlink:href="#mf69830ccf3" y="81.729961"/>
      </g>
     </g>
     <g id="text_7">
      <!-- 0.5 -->
      <g transform="translate(34.696875 85.52918)scale(0.1 -0.1)">
       <use xlink:href="#DejaVuSans-48"/>
       <use x="63.623047" xlink:href="#DejaVuSans-46"/>
       <use x="95.410156" xlink:href="#DejaVuSans-53"/>
      </g>
     </g>
    </g>
    <g id="ytick_3">
     <g id="line2d_8">
      <g>
       <use style="stroke:#000000;stroke-width:0.8;" x="57.6" xlink:href="#mf69830ccf3" y="55.459923"/>
      </g>
     </g>
     <g id="text_8">
      <!-- 1.0 -->
      <g transform="translate(34.696875 59.259141)scale(0.1 -0.1)">
       <use xlink:href="#DejaVuSans-49"/>
       <use x="63.623047" xlink:href="#DejaVuSans-46"/>
       <use x="95.410156" xlink:href="#DejaVuSans-48"/>
      </g>
     </g>
    </g>
    <g id="text_9">
     <!-- Density -->
     <defs>
      <path d="M 19.671875 64.796875 
L 19.671875 8.109375 
L 31.59375 8.109375 
Q 46.6875 8.109375 53.6875 14.9375 
Q 60.6875 21.78125 60.6875 36.53125 
Q 60.6875 51.171875 53.6875 57.984375 
Q 46.6875 64.796875 31.59375 64.796875 
z
M 9.8125 72.90625 
L 30.078125 72.90625 
Q 51.265625 72.90625 61.171875 64.09375 
Q 71.09375 55.28125 71.09375 36.53125 
Q 71.09375 17.671875 61.125 8.828125 
Q 51.171875 0 30.078125 0 
L 9.8125 0 
z
" id="DejaVuSans-68"/>
      <path d="M 56.203125 29.59375 
L 56.203125 25.203125 
L 14.890625 25.203125 
Q 15.484375 15.921875 20.484375 11.0625 
Q 25.484375 6.203125 34.421875 6.203125 
Q 39.59375 6.203125 44.453125 7.46875 
Q 49.3125 8.734375 54.109375 11.28125 
L 54.109375 2.78125 
Q 49.265625 0.734375 44.1875 -0.34375 
Q 39.109375 -1.421875 33.890625 -1.421875 
Q 20.796875 -1.421875 13.15625 6.1875 
Q 5.515625 13.8125 5.515625 26.8125 
Q 5.515625 40.234375 12.765625 48.109375 
Q 20.015625 56 32.328125 56 
Q 43.359375 56 49.78125 48.890625 
Q 56.203125 41.796875 56.203125 29.59375 
z
M 47.21875 32.234375 
Q 47.125 39.59375 43.09375 43.984375 
Q 39.0625 48.390625 32.421875 48.390625 
Q 24.90625 48.390625 20.390625 44.140625 
Q 15.875 39.890625 15.1875 32.171875 
z
" id="DejaVuSans-101"/>
      <path d="M 54.890625 33.015625 
L 54.890625 0 
L 45.90625 0 
L 45.90625 32.71875 
Q 45.90625 40.484375 42.875 44.328125 
Q 39.84375 48.1875 33.796875 48.1875 
Q 26.515625 48.1875 22.3125 43.546875 
Q 18.109375 38.921875 18.109375 30.90625 
L 18.109375 0 
L 9.078125 0 
L 9.078125 54.6875 
L 18.109375 54.6875 
L 18.109375 46.1875 
Q 21.34375 51.125 25.703125 53.5625 
Q 30.078125 56 35.796875 56 
Q 45.21875 56 50.046875 50.171875 
Q 54.890625 44.34375 54.890625 33.015625 
z
" id="DejaVuSans-110"/>
      <path d="M 44.28125 53.078125 
L 44.28125 44.578125 
Q 40.484375 46.53125 36.375 47.5 
Q 32.28125 48.484375 27.875 48.484375 
Q 21.1875 48.484375 17.84375 46.4375 
Q 14.5 44.390625 14.5 40.28125 
Q 14.5 37.15625 16.890625 35.375 
Q 19.28125 33.59375 26.515625 31.984375 
L 29.59375 31.296875 
Q 39.15625 29.25 43.1875 25.515625 
Q 47.21875 21.78125 47.21875 15.09375 
Q 47.21875 7.46875 41.1875 3.015625 
Q 35.15625 -1.421875 24.609375 -1.421875 
Q 20.21875 -1.421875 15.453125 -0.5625 
Q 10.6875 0.296875 5.421875 2 
L 5.421875 11.28125 
Q 10.40625 8.6875 15.234375 7.390625 
Q 20.0625 6.109375 24.8125 6.109375 
Q 31.15625 6.109375 34.5625 8.28125 
Q 37.984375 10.453125 37.984375 14.40625 
Q 37.984375 18.0625 35.515625 20.015625 
Q 33.0625 21.96875 24.703125 23.78125 
L 21.578125 24.515625 
Q 13.234375 26.265625 9.515625 29.90625 
Q 5.8125 33.546875 5.8125 39.890625 
Q 5.8125 47.609375 11.28125 51.796875 
Q 16.75 56 26.8125 56 
Q 31.78125 56 36.171875 55.265625 
Q 40.578125 54.546875 44.28125 53.078125 
z
" id="DejaVuSans-115"/>
      <path d="M 9.421875 54.6875 
L 18.40625 54.6875 
L 18.40625 0 
L 9.421875 0 
z
M 9.421875 75.984375 
L 18.40625 75.984375 
L 18.40625 64.59375 
L 9.421875 64.59375 
z
" id="DejaVuSans-105"/>
      <path d="M 18.3125 70.21875 
L 18.3125 54.6875 
L 36.8125 54.6875 
L 36.8125 47.703125 
L 18.3125 47.703125 
L 18.3125 18.015625 
Q 18.3125 11.328125 20.140625 9.421875 
Q 21.96875 7.515625 27.59375 7.515625 
L 36.8125 7.515625 
L 36.8125 0 
L 27.59375 0 
Q 17.1875 0 13.234375 3.875 
Q 9.28125 7.765625 9.28125 18.015625 
L 9.28125 47.703125 
L 2.6875 47.703125 
L 2.6875 54.6875 
L 9.28125 54.6875 
L 9.28125 70.21875 
z
" id="DejaVuSans-116"/>
      <path d="M 32.171875 -5.078125 
Q 28.375 -14.84375 24.75 -17.8125 
Q 21.140625 -20.796875 15.09375 -20.796875 
L 7.90625 -20.796875 
L 7.90625 -13.28125 
L 13.1875 -13.28125 
Q 16.890625 -13.28125 18.9375 -11.515625 
Q 21 -9.765625 23.484375 -3.21875 
L 25.09375 0.875 
L 2.984375 54.6875 
L 12.5 54.6875 
L 29.59375 11.921875 
L 46.6875 54.6875 
L 56.203125 54.6875 
z
" id="DejaVuSans-121"/>
     </defs>
     <g transform="translate(28.617187 93.744594)rotate(-90)scale(0.1 -0.1)">
      <use xlink:href="#DejaVuSans-68"/>
      <use x="77.001953" xlink:href="#DejaVuSans-101"/>
      <use x="138.525391" xlink:href="#DejaVuSans-110"/>
      <use x="201.904297" xlink:href="#DejaVuSans-115"/>
      <use x="254.003906" xlink:href="#DejaVuSans-105"/>
      <use x="281.787109" xlink:href="#DejaVuSans-116"/>
      <use x="320.996094" xlink:href="#DejaVuSans-121"/>
     </g>
    </g>
   </g>
   <g id="line2d_9">
    <path clip-path="url(#p8b83057198)" d="M 73.832727 107.993255 
L 77.112066 107.983172 
L 80.391405 107.960688 
L 83.670744 107.913893 
L 86.950083 107.82292 
L 90.229421 107.657553 
L 93.50876 107.376226 
L 96.788099 106.927893 
L 100.067438 106.25797 
L 103.346777 105.318505 
L 106.626116 104.080939 
L 109.905455 102.548106 
L 113.184793 100.761298 
L 116.464132 98.799094 
L 119.743471 96.767136 
L 123.02281 94.781109 
L 126.302149 92.947428 
L 129.581488 91.346419 
L 132.860826 90.02126 
L 136.140165 88.973424 
L 139.419504 88.163269 
L 142.698843 87.513606 
L 145.978182 86.914918 
L 149.257521 86.233058 
L 152.53686 85.322404 
L 155.816198 84.047827 
L 159.095537 82.315737 
L 162.374876 80.108479 
L 165.654215 77.510485 
L 168.933554 74.713244 
L 172.212893 71.991701 
L 175.492231 69.655108 
L 178.77157 67.985061 
L 182.050909 67.177379 
L 185.330248 67.301595 
L 188.609587 68.285217 
L 191.888926 69.923898 
L 195.168264 71.91452 
L 198.447603 73.905009 
L 201.726942 75.551297 
L 205.006281 76.569638 
L 208.28562 76.773855 
L 211.564959 76.092795 
L 214.844298 74.570434 
L 218.123636 72.35524 
L 221.402975 69.68403 
L 224.682314 66.860366 
L 227.961653 64.223279 
L 231.240992 62.10322 
L 234.520331 60.769037 
L 237.799669 60.378112 
L 241.079008 60.945363 
L 244.358347 62.342006 
L 247.637686 64.324154 
L 250.917025 66.580903 
L 254.196364 68.787809 
L 257.475702 70.655204 
L 260.755041 71.967417 
L 264.03438 72.612482 
L 267.313719 72.600318 
L 270.593058 72.063678 
L 273.872397 71.235892 
L 277.151736 70.405248 
L 280.431074 69.855232 
L 283.710413 69.806629 
L 286.989752 70.37712 
L 290.269091 71.566863 
L 293.54843 73.269385 
L 296.827769 75.301023 
L 300.107107 77.440895 
L 303.386446 79.474578 
L 306.665785 81.235359 
L 309.945124 82.63572 
L 313.224463 83.681014 
L 316.503802 84.459933 
L 319.78314 85.11336 
L 323.062479 85.791733 
L 326.341818 86.616121 
L 329.621157 87.656122 
L 332.900496 88.92904 
L 336.179835 90.414623 
L 339.459174 92.073791 
L 342.738512 93.86129 
L 346.017851 95.728856 
L 349.29719 97.622451 
L 352.576529 99.480046 
L 355.855868 101.234552 
L 359.135207 102.822175 
L 362.414545 104.192842 
L 365.693884 105.318348 
L 368.973223 106.195316 
L 372.252562 106.842521 
L 375.531901 107.294184 
L 378.81124 107.591764 
L 382.090579 107.776557 
L 385.369917 107.884527 
L 388.649256 107.943777 
L 391.928595 107.974261 
L 395.207934 107.988942 
L 398.487273 107.995549 
" style="fill:none;stroke:#00008b;stroke-linecap:square;stroke-width:4;"/>
   </g>
   <g id="patch_53">
    <path d="M 57.6 108 
L 57.6 41.472 
" style="fill:none;stroke:#000000;stroke-linecap:square;stroke-linejoin:miter;stroke-width:0.8;"/>
   </g>
   <g id="patch_54">
    <path d="M 414.72 108 
L 414.72 41.472 
" style="fill:none;stroke:#000000;stroke-linecap:square;stroke-linejoin:miter;stroke-width:0.8;"/>
   </g>
   <g id="patch_55">
    <path d="M 57.6 108 
L 414.72 108 
" style="fill:none;stroke:#000000;stroke-linecap:square;stroke-linejoin:miter;stroke-width:0.8;"/>
   </g>
   <g id="patch_56">
    <path d="M 57.6 41.472 
L 414.72 41.472 
" style="fill:none;stroke:#000000;stroke-linecap:square;stroke-linejoin:miter;stroke-width:0.8;"/>
   </g>
   <g id="legend_1">
    <g id="patch_57">
     <path d="M 369.80125 64.150125 
L 407.72 64.150125 
Q 409.72 64.150125 409.72 62.150125 
L 409.72 48.472 
Q 409.72 46.472 407.72 46.472 
L 369.80125 46.472 
Q 367.80125 46.472 367.80125 48.472 
L 367.80125 62.150125 
Q 367.80125 64.150125 369.80125 64.150125 
z
" style="fill:#ffffff;opacity:0.8;stroke:#cccccc;stroke-linejoin:miter;"/>
    </g>
    <g id="patch_58">
     <path d="M 371.80125 58.070438 
L 391.80125 58.070438 
L 391.80125 51.070438 
L 371.80125 51.070438 
z
" style="fill:#00008b;opacity:0.4;stroke:#000000;stroke-linejoin:miter;"/>
    </g>
    <g id="text_10">
     <!-- x -->
     <defs>
      <path d="M 54.890625 54.6875 
L 35.109375 28.078125 
L 55.90625 0 
L 45.3125 0 
L 29.390625 21.484375 
L 13.484375 0 
L 2.875 0 
L 24.125 28.609375 
L 4.6875 54.6875 
L 15.28125 54.6875 
L 29.78125 35.203125 
L 44.28125 54.6875 
z
" id="DejaVuSans-120"/>
     </defs>
     <g transform="translate(399.80125 58.070438)scale(0.1 -0.1)">
      <use xlink:href="#DejaVuSans-120"/>
     </g>
    </g>
   </g>
  </g>
  <g id="axes_2">
   <g id="patch_59">
    <path d="M 57.6 207.792 
L 414.72 207.792 
L 414.72 141.264 
L 57.6 141.264 
z
" style="fill:#ffffff;"/>
   </g>
   <g id="patch_60">
    <path clip-path="url(#pa29c450e68)" d="M 108.715402 207.792 
L 113.813186 207.792 
L 113.813186 204.643677 
L 108.715402 204.643677 
z
" style="fill:#006400;opacity:0.4;stroke:#000000;stroke-linejoin:miter;"/>
   </g>
   <g id="patch_61">
    <path clip-path="url(#pa29c450e68)" d="M 113.813186 207.792 
L 118.91097 207.792 
L 118.91097 202.282435 
L 113.813186 202.282435 
z
" style="fill:#006400;opacity:0.4;stroke:#000000;stroke-linejoin:miter;"/>
   </g>
   <g id="patch_62">
    <path clip-path="url(#pa29c450e68)" d="M 118.91097 207.792 
L 124.008754 207.792 
L 124.008754 201.888894 
L 118.91097 201.888894 
z
" style="fill:#006400;opacity:0.4;stroke:#000000;stroke-linejoin:miter;"/>
   </g>
   <g id="patch_63">
    <path clip-path="url(#pa29c450e68)" d="M 124.008754 207.792 
L 129.106538 207.792 
L 129.106538 192.837466 
L 124.008754 192.837466 
z
" style="fill:#006400;opacity:0.4;stroke:#000000;stroke-linejoin:miter;"/>
   </g>
   <g id="patch_64">
    <path clip-path="url(#pa29c450e68)" d="M 129.106538 207.792 
L 134.204322 207.792 
L 134.204322 190.869764 
L 129.106538 190.869764 
z
" style="fill:#006400;opacity:0.4;stroke:#000000;stroke-linejoin:miter;"/>
   </g>
   <g id="patch_65">
    <path clip-path="url(#pa29c450e68)" d="M 134.204322 207.792 
L 139.302106 207.792 
L 139.302106 188.508522 
L 134.204322 188.508522 
z
" style="fill:#006400;opacity:0.4;stroke:#000000;stroke-linejoin:miter;"/>
   </g>
   <g id="patch_66">
    <path clip-path="url(#pa29c450e68)" d="M 139.302106 207.792 
L 144.39989 207.792 
L 144.39989 182.211876 
L 139.302106 182.211876 
z
" style="fill:#006400;opacity:0.4;stroke:#000000;stroke-linejoin:miter;"/>
   </g>
   <g id="patch_67">
    <path clip-path="url(#pa29c450e68)" d="M 144.39989 207.792 
L 149.497673 207.792 
L 149.497673 171.192745 
L 144.39989 171.192745 
z
" style="fill:#006400;opacity:0.4;stroke:#000000;stroke-linejoin:miter;"/>
   </g>
   <g id="patch_68">
    <path clip-path="url(#pa29c450e68)" d="M 149.497673 207.792 
L 154.595457 207.792 
L 154.595457 177.882932 
L 149.497673 177.882932 
z
" style="fill:#006400;opacity:0.4;stroke:#000000;stroke-linejoin:miter;"/>
   </g>
   <g id="patch_69">
    <path clip-path="url(#pa29c450e68)" d="M 154.595457 207.792 
L 159.693241 207.792 
L 159.693241 184.573118 
L 154.595457 184.573118 
z
" style="fill:#006400;opacity:0.4;stroke:#000000;stroke-linejoin:miter;"/>
   </g>
   <g id="patch_70">
    <path clip-path="url(#pa29c450e68)" d="M 159.693241 207.792 
L 164.791025 207.792 
L 164.791025 186.54082 
L 159.693241 186.54082 
z
" style="fill:#006400;opacity:0.4;stroke:#000000;stroke-linejoin:miter;"/>
   </g>
   <g id="patch_71">
    <path clip-path="url(#pa29c450e68)" d="M 164.791025 207.792 
L 169.888809 207.792 
L 169.888809 182.211876 
L 164.791025 182.211876 
z
" style="fill:#006400;opacity:0.4;stroke:#000000;stroke-linejoin:miter;"/>
   </g>
   <g id="patch_72">
    <path clip-path="url(#pa29c450e68)" d="M 169.888809 207.792 
L 174.986593 207.792 
L 174.986593 183.392497 
L 169.888809 183.392497 
z
" style="fill:#006400;opacity:0.4;stroke:#000000;stroke-linejoin:miter;"/>
   </g>
   <g id="patch_73">
    <path clip-path="url(#pa29c450e68)" d="M 174.986593 207.792 
L 180.084377 207.792 
L 180.084377 175.521689 
L 174.986593 175.521689 
z
" style="fill:#006400;opacity:0.4;stroke:#000000;stroke-linejoin:miter;"/>
   </g>
   <g id="patch_74">
    <path clip-path="url(#pa29c450e68)" d="M 180.084377 207.792 
L 185.182161 207.792 
L 185.182161 178.670012 
L 180.084377 178.670012 
z
" style="fill:#006400;opacity:0.4;stroke:#000000;stroke-linejoin:miter;"/>
   </g>
   <g id="patch_75">
    <path clip-path="url(#pa29c450e68)" d="M 185.182161 207.792 
L 190.279945 207.792 
L 190.279945 177.882932 
L 185.182161 177.882932 
z
" style="fill:#006400;opacity:0.4;stroke:#000000;stroke-linejoin:miter;"/>
   </g>
   <g id="patch_76">
    <path clip-path="url(#pa29c450e68)" d="M 190.279945 207.792 
L 195.377729 207.792 
L 195.377729 184.966658 
L 190.279945 184.966658 
z
" style="fill:#006400;opacity:0.4;stroke:#000000;stroke-linejoin:miter;"/>
   </g>
   <g id="patch_77">
    <path clip-path="url(#pa29c450e68)" d="M 195.377729 207.792 
L 200.475513 207.792 
L 200.475513 185.753739 
L 195.377729 185.753739 
z
" style="fill:#006400;opacity:0.4;stroke:#000000;stroke-linejoin:miter;"/>
   </g>
   <g id="patch_78">
    <path clip-path="url(#pa29c450e68)" d="M 200.475513 207.792 
L 205.573297 207.792 
L 205.573297 183.392497 
L 200.475513 183.392497 
z
" style="fill:#006400;opacity:0.4;stroke:#000000;stroke-linejoin:miter;"/>
   </g>
   <g id="patch_79">
    <path clip-path="url(#pa29c450e68)" d="M 205.573297 207.792 
L 210.67108 207.792 
L 210.67108 181.424795 
L 205.573297 181.424795 
z
" style="fill:#006400;opacity:0.4;stroke:#000000;stroke-linejoin:miter;"/>
   </g>
   <g id="patch_80">
    <path clip-path="url(#pa29c450e68)" d="M 210.67108 207.792 
L 215.768864 207.792 
L 215.768864 184.966658 
L 210.67108 184.966658 
z
" style="fill:#006400;opacity:0.4;stroke:#000000;stroke-linejoin:miter;"/>
   </g>
   <g id="patch_81">
    <path clip-path="url(#pa29c450e68)" d="M 215.768864 207.792 
L 220.866648 207.792 
L 220.866648 163.321938 
L 215.768864 163.321938 
z
" style="fill:#006400;opacity:0.4;stroke:#000000;stroke-linejoin:miter;"/>
   </g>
   <g id="patch_82">
    <path clip-path="url(#pa29c450e68)" d="M 220.866648 207.792 
L 225.964432 207.792 
L 225.964432 160.960696 
L 220.866648 160.960696 
z
" style="fill:#006400;opacity:0.4;stroke:#000000;stroke-linejoin:miter;"/>
   </g>
   <g id="patch_83">
    <path clip-path="url(#pa29c450e68)" d="M 225.964432 207.792 
L 231.062216 207.792 
L 231.062216 147.580323 
L 225.964432 147.580323 
z
" style="fill:#006400;opacity:0.4;stroke:#000000;stroke-linejoin:miter;"/>
   </g>
   <g id="patch_84">
    <path clip-path="url(#pa29c450e68)" d="M 231.062216 207.792 
L 236.16 207.792 
L 236.16 144.432 
L 231.062216 144.432 
z
" style="fill:#006400;opacity:0.4;stroke:#000000;stroke-linejoin:miter;"/>
   </g>
   <g id="patch_85">
    <path clip-path="url(#pa29c450e68)" d="M 236.16 207.792 
L 241.257784 207.792 
L 241.257784 158.599453 
L 236.16 158.599453 
z
" style="fill:#006400;opacity:0.4;stroke:#000000;stroke-linejoin:miter;"/>
   </g>
   <g id="patch_86">
    <path clip-path="url(#pa29c450e68)" d="M 241.257784 207.792 
L 246.355568 207.792 
L 246.355568 164.896099 
L 241.257784 164.896099 
z
" style="fill:#006400;opacity:0.4;stroke:#000000;stroke-linejoin:miter;"/>
   </g>
   <g id="patch_87">
    <path clip-path="url(#pa29c450e68)" d="M 246.355568 207.792 
L 251.453352 207.792 
L 251.453352 174.734609 
L 246.355568 174.734609 
z
" style="fill:#006400;opacity:0.4;stroke:#000000;stroke-linejoin:miter;"/>
   </g>
   <g id="patch_88">
    <path clip-path="url(#pa29c450e68)" d="M 251.453352 207.792 
L 256.551136 207.792 
L 256.551136 180.244174 
L 251.453352 180.244174 
z
" style="fill:#006400;opacity:0.4;stroke:#000000;stroke-linejoin:miter;"/>
   </g>
   <g id="patch_89">
    <path clip-path="url(#pa29c450e68)" d="M 256.551136 207.792 
L 261.64892 207.792 
L 261.64892 187.721441 
L 256.551136 187.721441 
z
" style="fill:#006400;opacity:0.4;stroke:#000000;stroke-linejoin:miter;"/>
   </g>
   <g id="patch_90">
    <path clip-path="url(#pa29c450e68)" d="M 261.64892 207.792 
L 266.746703 207.792 
L 266.746703 177.095851 
L 261.64892 177.095851 
z
" style="fill:#006400;opacity:0.4;stroke:#000000;stroke-linejoin:miter;"/>
   </g>
   <g id="patch_91">
    <path clip-path="url(#pa29c450e68)" d="M 266.746703 207.792 
L 271.844487 207.792 
L 271.844487 186.54082 
L 266.746703 186.54082 
z
" style="fill:#006400;opacity:0.4;stroke:#000000;stroke-linejoin:miter;"/>
   </g>
   <g id="patch_92">
    <path clip-path="url(#pa29c450e68)" d="M 271.844487 207.792 
L 276.942271 207.792 
L 276.942271 183.786037 
L 271.844487 183.786037 
z
" style="fill:#006400;opacity:0.4;stroke:#000000;stroke-linejoin:miter;"/>
   </g>
   <g id="patch_93">
    <path clip-path="url(#pa29c450e68)" d="M 276.942271 207.792 
L 282.040055 207.792 
L 282.040055 178.670012 
L 276.942271 178.670012 
z
" style="fill:#006400;opacity:0.4;stroke:#000000;stroke-linejoin:miter;"/>
   </g>
   <g id="patch_94">
    <path clip-path="url(#pa29c450e68)" d="M 282.040055 207.792 
L 287.137839 207.792 
L 287.137839 184.179578 
L 282.040055 184.179578 
z
" style="fill:#006400;opacity:0.4;stroke:#000000;stroke-linejoin:miter;"/>
   </g>
   <g id="patch_95">
    <path clip-path="url(#pa29c450e68)" d="M 287.137839 207.792 
L 292.235623 207.792 
L 292.235623 175.521689 
L 287.137839 175.521689 
z
" style="fill:#006400;opacity:0.4;stroke:#000000;stroke-linejoin:miter;"/>
   </g>
   <g id="patch_96">
    <path clip-path="url(#pa29c450e68)" d="M 292.235623 207.792 
L 297.333407 207.792 
L 297.333407 181.031255 
L 292.235623 181.031255 
z
" style="fill:#006400;opacity:0.4;stroke:#000000;stroke-linejoin:miter;"/>
   </g>
   <g id="patch_97">
    <path clip-path="url(#pa29c450e68)" d="M 297.333407 207.792 
L 302.431191 207.792 
L 302.431191 184.966658 
L 297.333407 184.966658 
z
" style="fill:#006400;opacity:0.4;stroke:#000000;stroke-linejoin:miter;"/>
   </g>
   <g id="patch_98">
    <path clip-path="url(#pa29c450e68)" d="M 302.431191 207.792 
L 307.528975 207.792 
L 307.528975 176.702311 
L 302.431191 176.702311 
z
" style="fill:#006400;opacity:0.4;stroke:#000000;stroke-linejoin:miter;"/>
   </g>
   <g id="patch_99">
    <path clip-path="url(#pa29c450e68)" d="M 307.528975 207.792 
L 312.626759 207.792 
L 312.626759 187.327901 
L 307.528975 187.327901 
z
" style="fill:#006400;opacity:0.4;stroke:#000000;stroke-linejoin:miter;"/>
   </g>
   <g id="patch_100">
    <path clip-path="url(#pa29c450e68)" d="M 312.626759 207.792 
L 317.724543 207.792 
L 317.724543 181.818335 
L 312.626759 181.818335 
z
" style="fill:#006400;opacity:0.4;stroke:#000000;stroke-linejoin:miter;"/>
   </g>
   <g id="patch_101">
    <path clip-path="url(#pa29c450e68)" d="M 317.724543 207.792 
L 322.822327 207.792 
L 322.822327 180.637714 
L 317.724543 180.637714 
z
" style="fill:#006400;opacity:0.4;stroke:#000000;stroke-linejoin:miter;"/>
   </g>
   <g id="patch_102">
    <path clip-path="url(#pa29c450e68)" d="M 322.822327 207.792 
L 327.92011 207.792 
L 327.92011 176.702311 
L 322.822327 176.702311 
z
" style="fill:#006400;opacity:0.4;stroke:#000000;stroke-linejoin:miter;"/>
   </g>
   <g id="patch_103">
    <path clip-path="url(#pa29c450e68)" d="M 327.92011 207.792 
L 333.017894 207.792 
L 333.017894 191.263304 
L 327.92011 191.263304 
z
" style="fill:#006400;opacity:0.4;stroke:#000000;stroke-linejoin:miter;"/>
   </g>
   <g id="patch_104">
    <path clip-path="url(#pa29c450e68)" d="M 333.017894 207.792 
L 338.115678 207.792 
L 338.115678 188.902062 
L 333.017894 188.902062 
z
" style="fill:#006400;opacity:0.4;stroke:#000000;stroke-linejoin:miter;"/>
   </g>
   <g id="patch_105">
    <path clip-path="url(#pa29c450e68)" d="M 338.115678 207.792 
L 343.213462 207.792 
L 343.213462 201.101814 
L 338.115678 201.101814 
z
" style="fill:#006400;opacity:0.4;stroke:#000000;stroke-linejoin:miter;"/>
   </g>
   <g id="patch_106">
    <path clip-path="url(#pa29c450e68)" d="M 343.213462 207.792 
L 348.311246 207.792 
L 348.311246 205.430758 
L 343.213462 205.430758 
z
" style="fill:#006400;opacity:0.4;stroke:#000000;stroke-linejoin:miter;"/>
   </g>
   <g id="patch_107">
    <path clip-path="url(#pa29c450e68)" d="M 348.311246 207.792 
L 353.40903 207.792 
L 353.40903 204.643677 
L 348.311246 204.643677 
z
" style="fill:#006400;opacity:0.4;stroke:#000000;stroke-linejoin:miter;"/>
   </g>
   <g id="patch_108">
    <path clip-path="url(#pa29c450e68)" d="M 353.40903 207.792 
L 358.506814 207.792 
L 358.506814 207.792 
L 353.40903 207.792 
z
" style="fill:#006400;opacity:0.4;stroke:#000000;stroke-linejoin:miter;"/>
   </g>
   <g id="patch_109">
    <path clip-path="url(#pa29c450e68)" d="M 358.506814 207.792 
L 363.604598 207.792 
L 363.604598 206.217839 
L 358.506814 206.217839 
z
" style="fill:#006400;opacity:0.4;stroke:#000000;stroke-linejoin:miter;"/>
   </g>
   <g id="matplotlib.axis_3">
    <g id="xtick_6">
     <g id="line2d_10">
      <g>
       <use style="stroke:#000000;stroke-width:0.8;" x="84.938457" xlink:href="#me1b26b2009" y="207.792"/>
      </g>
     </g>
     <g id="text_11">
      <!-- −1.0 -->
      <g transform="translate(72.797051 222.390437)scale(0.1 -0.1)">
       <use xlink:href="#DejaVuSans-8722"/>
       <use x="83.789062" xlink:href="#DejaVuSans-49"/>
       <use x="147.412109" xlink:href="#DejaVuSans-46"/>
       <use x="179.199219" xlink:href="#DejaVuSans-48"/>
      </g>
     </g>
    </g>
    <g id="xtick_7">
     <g id="line2d_11">
      <g>
       <use style="stroke:#000000;stroke-width:0.8;" x="158.282572" xlink:href="#me1b26b2009" y="207.792"/>
      </g>
     </g>
     <g id="text_12">
      <!-- −0.5 -->
      <g transform="translate(146.141166 222.390437)scale(0.1 -0.1)">
       <use xlink:href="#DejaVuSans-8722"/>
       <use x="83.789062" xlink:href="#DejaVuSans-48"/>
       <use x="147.412109" xlink:href="#DejaVuSans-46"/>
       <use x="179.199219" xlink:href="#DejaVuSans-53"/>
      </g>
     </g>
    </g>
    <g id="xtick_8">
     <g id="line2d_12">
      <g>
       <use style="stroke:#000000;stroke-width:0.8;" x="231.626687" xlink:href="#me1b26b2009" y="207.792"/>
      </g>
     </g>
     <g id="text_13">
      <!-- 0.0 -->
      <g transform="translate(223.675125 222.390437)scale(0.1 -0.1)">
       <use xlink:href="#DejaVuSans-48"/>
       <use x="63.623047" xlink:href="#DejaVuSans-46"/>
       <use x="95.410156" xlink:href="#DejaVuSans-48"/>
      </g>
     </g>
    </g>
    <g id="xtick_9">
     <g id="line2d_13">
      <g>
       <use style="stroke:#000000;stroke-width:0.8;" x="304.970802" xlink:href="#me1b26b2009" y="207.792"/>
      </g>
     </g>
     <g id="text_14">
      <!-- 0.5 -->
      <g transform="translate(297.01924 222.390437)scale(0.1 -0.1)">
       <use xlink:href="#DejaVuSans-48"/>
       <use x="63.623047" xlink:href="#DejaVuSans-46"/>
       <use x="95.410156" xlink:href="#DejaVuSans-53"/>
      </g>
     </g>
    </g>
    <g id="xtick_10">
     <g id="line2d_14">
      <g>
       <use style="stroke:#000000;stroke-width:0.8;" x="378.314917" xlink:href="#me1b26b2009" y="207.792"/>
      </g>
     </g>
     <g id="text_15">
      <!-- 1.0 -->
      <g transform="translate(370.363355 222.390437)scale(0.1 -0.1)">
       <use xlink:href="#DejaVuSans-49"/>
       <use x="63.623047" xlink:href="#DejaVuSans-46"/>
       <use x="95.410156" xlink:href="#DejaVuSans-48"/>
      </g>
     </g>
    </g>
   </g>
   <g id="matplotlib.axis_4">
    <g id="ytick_4">
     <g id="line2d_15">
      <g>
       <use style="stroke:#000000;stroke-width:0.8;" x="57.6" xlink:href="#mf69830ccf3" y="207.792"/>
      </g>
     </g>
     <g id="text_16">
      <!-- 0 -->
      <g transform="translate(44.2375 211.591219)scale(0.1 -0.1)">
       <use xlink:href="#DejaVuSans-48"/>
      </g>
     </g>
    </g>
    <g id="ytick_5">
     <g id="line2d_16">
      <g>
       <use style="stroke:#000000;stroke-width:0.8;" x="57.6" xlink:href="#mf69830ccf3" y="164.519507"/>
      </g>
     </g>
     <g id="text_17">
      <!-- 1 -->
      <g transform="translate(44.2375 168.318725)scale(0.1 -0.1)">
       <use xlink:href="#DejaVuSans-49"/>
      </g>
     </g>
    </g>
    <g id="text_18">
     <!-- Density -->
     <g transform="translate(38.157812 193.536594)rotate(-90)scale(0.1 -0.1)">
      <use xlink:href="#DejaVuSans-68"/>
      <use x="77.001953" xlink:href="#DejaVuSans-101"/>
      <use x="138.525391" xlink:href="#DejaVuSans-110"/>
      <use x="201.904297" xlink:href="#DejaVuSans-115"/>
      <use x="254.003906" xlink:href="#DejaVuSans-105"/>
      <use x="281.787109" xlink:href="#DejaVuSans-116"/>
      <use x="320.996094" xlink:href="#DejaVuSans-121"/>
     </g>
    </g>
   </g>
   <g id="line2d_17">
    <path clip-path="url(#pa29c450e68)" d="M 73.832727 207.786497 
L 77.112066 207.778481 
L 80.391405 207.760981 
L 83.670744 207.725402 
L 86.950083 207.657895 
L 90.229421 207.538056 
L 93.50876 207.33843 
L 96.788099 207.025326 
L 100.067438 206.561193 
L 103.346777 205.908341 
L 106.626116 205.033425 
L 109.905455 203.911828 
L 113.184793 202.531135 
L 116.464132 200.893128 
L 119.743471 199.014399 
L 123.02281 196.926495 
L 126.302149 194.677062 
L 129.581488 192.332841 
L 132.860826 189.983077 
L 136.140165 187.739167 
L 139.419504 185.725267 
L 142.698843 184.057494 
L 145.978182 182.815618 
L 149.257521 182.017565 
L 152.53686 181.60897 
L 155.816198 181.47517 
L 159.095537 181.473475 
L 162.374876 181.474355 
L 165.654215 181.396367 
L 168.933554 181.222771 
L 172.212893 180.995594 
L 175.492231 180.791295 
L 178.77157 180.687598 
L 182.050909 180.732284 
L 185.330248 180.922335 
L 188.609587 181.197315 
L 191.888926 181.446214 
L 195.168264 181.523635 
L 198.447603 181.270639 
L 201.726942 180.537415 
L 205.006281 179.207686 
L 208.28562 177.225477 
L 211.564959 174.622154 
L 214.844298 171.536759 
L 218.123636 168.219304 
L 221.402975 165.008279 
L 224.682314 162.280929 
L 227.961653 160.385024 
L 231.240992 159.569245 
L 234.520331 159.931848 
L 237.799669 161.402507 
L 241.079008 163.761826 
L 244.358347 166.691462 
L 247.637686 169.839562 
L 250.917025 172.883989 
L 254.196364 175.579118 
L 257.475702 177.778553 
L 260.755041 179.433408 
L 264.03438 180.571958 
L 267.313719 181.270275 
L 270.593058 181.623914 
L 273.872397 181.727845 
L 277.151736 181.66687 
L 280.431074 181.51403 
L 283.710413 181.332071 
L 286.989752 181.173583 
L 290.269091 181.078191 
L 293.54843 181.068428 
L 296.827769 181.147793 
L 300.107107 181.30423 
L 303.386446 181.520055 
L 306.665785 181.786333 
L 309.945124 182.117075 
L 313.224463 182.557356 
L 316.503802 183.180423 
L 319.78314 184.072372 
L 323.062479 185.30795 
L 326.341818 186.925281 
L 329.621157 188.908379 
L 332.900496 191.183493 
L 336.179835 193.630245 
L 339.459174 196.103668 
L 342.738512 198.46054 
L 346.017851 200.583119 
L 349.29719 202.394903 
L 352.576529 203.865725 
L 355.855868 205.00657 
L 359.135207 205.857322 
L 362.414545 206.472045 
L 365.693884 206.906138 
L 368.973223 207.20796 
L 372.252562 207.415377 
L 375.531901 207.556024 
L 378.81124 207.649466 
L 382.090579 207.709654 
L 385.369917 207.746821 
L 388.649256 207.768601 
L 391.928595 207.780616 
L 395.207934 207.786817 
L 398.487273 207.789798 
" style="fill:none;stroke:#006400;stroke-linecap:square;stroke-width:4;"/>
   </g>
   <g id="patch_110">
    <path d="M 57.6 207.792 
L 57.6 141.264 
" style="fill:none;stroke:#000000;stroke-linecap:square;stroke-linejoin:miter;stroke-width:0.8;"/>
   </g>
   <g id="patch_111">
    <path d="M 414.72 207.792 
L 414.72 141.264 
" style="fill:none;stroke:#000000;stroke-linecap:square;stroke-linejoin:miter;stroke-width:0.8;"/>
   </g>
   <g id="patch_112">
    <path d="M 57.6 207.792 
L 414.72 207.792 
" style="fill:none;stroke:#000000;stroke-linecap:square;stroke-linejoin:miter;stroke-width:0.8;"/>
   </g>
   <g id="patch_113">
    <path d="M 57.6 141.264 
L 414.72 141.264 
" style="fill:none;stroke:#000000;stroke-linecap:square;stroke-linejoin:miter;stroke-width:0.8;"/>
   </g>
   <g id="legend_2">
    <g id="patch_114">
     <path d="M 369.80125 163.942125 
L 407.72 163.942125 
Q 409.72 163.942125 409.72 161.942125 
L 409.72 148.264 
Q 409.72 146.264 407.72 146.264 
L 369.80125 146.264 
Q 367.80125 146.264 367.80125 148.264 
L 367.80125 161.942125 
Q 367.80125 163.942125 369.80125 163.942125 
z
" style="fill:#ffffff;opacity:0.8;stroke:#cccccc;stroke-linejoin:miter;"/>
    </g>
    <g id="patch_115">
     <path d="M 371.80125 157.862437 
L 391.80125 157.862437 
L 391.80125 150.862437 
L 371.80125 150.862437 
z
" style="fill:#006400;opacity:0.4;stroke:#000000;stroke-linejoin:miter;"/>
    </g>
    <g id="text_19">
     <!-- y -->
     <g transform="translate(399.80125 157.862437)scale(0.1 -0.1)">
      <use xlink:href="#DejaVuSans-121"/>
     </g>
    </g>
   </g>
  </g>
  <g id="axes_3">
   <g id="patch_116">
    <path d="M 57.6 307.584 
L 414.72 307.584 
L 414.72 241.056 
L 57.6 241.056 
z
" style="fill:#ffffff;"/>
   </g>
   <g id="patch_117">
    <path clip-path="url(#pf5695de73e)" d="M 109.692103 307.584 
L 114.750819 307.584 
L 114.750819 307.303646 
L 109.692103 307.303646 
z
" style="fill:#8b0000;opacity:0.4;stroke:#000000;stroke-linejoin:miter;"/>
   </g>
   <g id="patch_118">
    <path clip-path="url(#pf5695de73e)" d="M 114.750819 307.584 
L 119.809535 307.584 
L 119.809535 307.584 
L 114.750819 307.584 
z
" style="fill:#8b0000;opacity:0.4;stroke:#000000;stroke-linejoin:miter;"/>
   </g>
   <g id="patch_119">
    <path clip-path="url(#pf5695de73e)" d="M 119.809535 307.584 
L 124.868251 307.584 
L 124.868251 305.901876 
L 119.809535 305.901876 
z
" style="fill:#8b0000;opacity:0.4;stroke:#000000;stroke-linejoin:miter;"/>
   </g>
   <g id="patch_120">
    <path clip-path="url(#pf5695de73e)" d="M 124.868251 307.584 
L 129.926967 307.584 
L 129.926967 303.098336 
L 124.868251 303.098336 
z
" style="fill:#8b0000;opacity:0.4;stroke:#000000;stroke-linejoin:miter;"/>
   </g>
   <g id="patch_121">
    <path clip-path="url(#pf5695de73e)" d="M 129.926967 307.584 
L 134.985682 307.584 
L 134.985682 298.893027 
L 129.926967 298.893027 
z
" style="fill:#8b0000;opacity:0.4;stroke:#000000;stroke-linejoin:miter;"/>
   </g>
   <g id="patch_122">
    <path clip-path="url(#pf5695de73e)" d="M 134.985682 307.584 
L 140.044398 307.584 
L 140.044398 294.407363 
L 134.985682 294.407363 
z
" style="fill:#8b0000;opacity:0.4;stroke:#000000;stroke-linejoin:miter;"/>
   </g>
   <g id="patch_123">
    <path clip-path="url(#pf5695de73e)" d="M 140.044398 307.584 
L 145.103114 307.584 
L 145.103114 289.921699 
L 140.044398 289.921699 
z
" style="fill:#8b0000;opacity:0.4;stroke:#000000;stroke-linejoin:miter;"/>
   </g>
   <g id="patch_124">
    <path clip-path="url(#pf5695de73e)" d="M 145.103114 307.584 
L 150.16183 307.584 
L 150.16183 285.716389 
L 145.103114 285.716389 
z
" style="fill:#8b0000;opacity:0.4;stroke:#000000;stroke-linejoin:miter;"/>
   </g>
   <g id="patch_125">
    <path clip-path="url(#pf5695de73e)" d="M 150.16183 307.584 
L 155.220546 307.584 
L 155.220546 279.828956 
L 150.16183 279.828956 
z
" style="fill:#8b0000;opacity:0.4;stroke:#000000;stroke-linejoin:miter;"/>
   </g>
   <g id="patch_126">
    <path clip-path="url(#pf5695de73e)" d="M 155.220546 307.584 
L 160.279262 307.584 
L 160.279262 280.389664 
L 155.220546 280.389664 
z
" style="fill:#8b0000;opacity:0.4;stroke:#000000;stroke-linejoin:miter;"/>
   </g>
   <g id="patch_127">
    <path clip-path="url(#pf5695de73e)" d="M 160.279262 307.584 
L 165.337978 307.584 
L 165.337978 281.230726 
L 160.279262 281.230726 
z
" style="fill:#8b0000;opacity:0.4;stroke:#000000;stroke-linejoin:miter;"/>
   </g>
   <g id="patch_128">
    <path clip-path="url(#pf5695de73e)" d="M 165.337978 307.584 
L 170.396694 307.584 
L 170.396694 285.716389 
L 165.337978 285.716389 
z
" style="fill:#8b0000;opacity:0.4;stroke:#000000;stroke-linejoin:miter;"/>
   </g>
   <g id="patch_129">
    <path clip-path="url(#pf5695de73e)" d="M 170.396694 307.584 
L 175.455409 307.584 
L 175.455409 294.127009 
L 170.396694 294.127009 
z
" style="fill:#8b0000;opacity:0.4;stroke:#000000;stroke-linejoin:miter;"/>
   </g>
   <g id="patch_130">
    <path clip-path="url(#pf5695de73e)" d="M 175.455409 307.584 
L 180.514125 307.584 
L 180.514125 295.248425 
L 175.455409 295.248425 
z
" style="fill:#8b0000;opacity:0.4;stroke:#000000;stroke-linejoin:miter;"/>
   </g>
   <g id="patch_131">
    <path clip-path="url(#pf5695de73e)" d="M 180.514125 307.584 
L 185.572841 307.584 
L 185.572841 294.407363 
L 180.514125 294.407363 
z
" style="fill:#8b0000;opacity:0.4;stroke:#000000;stroke-linejoin:miter;"/>
   </g>
   <g id="patch_132">
    <path clip-path="url(#pf5695de73e)" d="M 185.572841 307.584 
L 190.631557 307.584 
L 190.631557 296.089487 
L 185.572841 296.089487 
z
" style="fill:#8b0000;opacity:0.4;stroke:#000000;stroke-linejoin:miter;"/>
   </g>
   <g id="patch_133">
    <path clip-path="url(#pf5695de73e)" d="M 190.631557 307.584 
L 195.690273 307.584 
L 195.690273 299.453735 
L 190.631557 299.453735 
z
" style="fill:#8b0000;opacity:0.4;stroke:#000000;stroke-linejoin:miter;"/>
   </g>
   <g id="patch_134">
    <path clip-path="url(#pf5695de73e)" d="M 195.690273 307.584 
L 200.748989 307.584 
L 200.748989 297.210903 
L 195.690273 297.210903 
z
" style="fill:#8b0000;opacity:0.4;stroke:#000000;stroke-linejoin:miter;"/>
   </g>
   <g id="patch_135">
    <path clip-path="url(#pf5695de73e)" d="M 200.748989 307.584 
L 205.807705 307.584 
L 205.807705 296.369841 
L 200.748989 296.369841 
z
" style="fill:#8b0000;opacity:0.4;stroke:#000000;stroke-linejoin:miter;"/>
   </g>
   <g id="patch_136">
    <path clip-path="url(#pf5695de73e)" d="M 205.807705 307.584 
L 210.866421 307.584 
L 210.866421 293.285947 
L 205.807705 293.285947 
z
" style="fill:#8b0000;opacity:0.4;stroke:#000000;stroke-linejoin:miter;"/>
   </g>
   <g id="patch_137">
    <path clip-path="url(#pf5695de73e)" d="M 210.866421 307.584 
L 215.925136 307.584 
L 215.925136 293.005593 
L 210.866421 293.005593 
z
" style="fill:#8b0000;opacity:0.4;stroke:#000000;stroke-linejoin:miter;"/>
   </g>
   <g id="patch_138">
    <path clip-path="url(#pf5695de73e)" d="M 215.925136 307.584 
L 220.983852 307.584 
L 220.983852 292.164531 
L 215.925136 292.164531 
z
" style="fill:#8b0000;opacity:0.4;stroke:#000000;stroke-linejoin:miter;"/>
   </g>
   <g id="patch_139">
    <path clip-path="url(#pf5695de73e)" d="M 220.983852 307.584 
L 226.042568 307.584 
L 226.042568 284.875327 
L 220.983852 284.875327 
z
" style="fill:#8b0000;opacity:0.4;stroke:#000000;stroke-linejoin:miter;"/>
   </g>
   <g id="patch_140">
    <path clip-path="url(#pf5695de73e)" d="M 226.042568 307.584 
L 231.101284 307.584 
L 231.101284 272.539752 
L 226.042568 272.539752 
z
" style="fill:#8b0000;opacity:0.4;stroke:#000000;stroke-linejoin:miter;"/>
   </g>
   <g id="patch_141">
    <path clip-path="url(#pf5695de73e)" d="M 231.101284 307.584 
L 236.16 307.584 
L 236.16 252.634619 
L 231.101284 252.634619 
z
" style="fill:#8b0000;opacity:0.4;stroke:#000000;stroke-linejoin:miter;"/>
   </g>
   <g id="patch_142">
    <path clip-path="url(#pf5695de73e)" d="M 236.16 307.584 
L 241.218716 307.584 
L 241.218716 244.224 
L 236.16 244.224 
z
" style="fill:#8b0000;opacity:0.4;stroke:#000000;stroke-linejoin:miter;"/>
   </g>
   <g id="patch_143">
    <path clip-path="url(#pf5695de73e)" d="M 241.218716 307.584 
L 246.277432 307.584 
L 246.277432 255.438159 
L 241.218716 255.438159 
z
" style="fill:#8b0000;opacity:0.4;stroke:#000000;stroke-linejoin:miter;"/>
   </g>
   <g id="patch_144">
    <path clip-path="url(#pf5695de73e)" d="M 246.277432 307.584 
L 251.336148 307.584 
L 251.336148 274.782584 
L 246.277432 274.782584 
z
" style="fill:#8b0000;opacity:0.4;stroke:#000000;stroke-linejoin:miter;"/>
   </g>
   <g id="patch_145">
    <path clip-path="url(#pf5695de73e)" d="M 251.336148 307.584 
L 256.394864 307.584 
L 256.394864 283.473558 
L 251.336148 283.473558 
z
" style="fill:#8b0000;opacity:0.4;stroke:#000000;stroke-linejoin:miter;"/>
   </g>
   <g id="patch_146">
    <path clip-path="url(#pf5695de73e)" d="M 256.394864 307.584 
L 261.453579 307.584 
L 261.453579 288.519929 
L 256.394864 288.519929 
z
" style="fill:#8b0000;opacity:0.4;stroke:#000000;stroke-linejoin:miter;"/>
   </g>
   <g id="patch_147">
    <path clip-path="url(#pf5695de73e)" d="M 261.453579 307.584 
L 266.512295 307.584 
L 266.512295 286.837805 
L 261.453579 286.837805 
z
" style="fill:#8b0000;opacity:0.4;stroke:#000000;stroke-linejoin:miter;"/>
   </g>
   <g id="patch_148">
    <path clip-path="url(#pf5695de73e)" d="M 266.512295 307.584 
L 271.571011 307.584 
L 271.571011 295.248425 
L 266.512295 295.248425 
z
" style="fill:#8b0000;opacity:0.4;stroke:#000000;stroke-linejoin:miter;"/>
   </g>
   <g id="patch_149">
    <path clip-path="url(#pf5695de73e)" d="M 271.571011 307.584 
L 276.629727 307.584 
L 276.629727 299.734088 
L 271.571011 299.734088 
z
" style="fill:#8b0000;opacity:0.4;stroke:#000000;stroke-linejoin:miter;"/>
   </g>
   <g id="patch_150">
    <path clip-path="url(#pf5695de73e)" d="M 276.629727 307.584 
L 281.688443 307.584 
L 281.688443 297.491257 
L 276.629727 297.491257 
z
" style="fill:#8b0000;opacity:0.4;stroke:#000000;stroke-linejoin:miter;"/>
   </g>
   <g id="patch_151">
    <path clip-path="url(#pf5695de73e)" d="M 281.688443 307.584 
L 286.747159 307.584 
L 286.747159 294.127009 
L 281.688443 294.127009 
z
" style="fill:#8b0000;opacity:0.4;stroke:#000000;stroke-linejoin:miter;"/>
   </g>
   <g id="patch_152">
    <path clip-path="url(#pf5695de73e)" d="M 286.747159 307.584 
L 291.805875 307.584 
L 291.805875 295.248425 
L 286.747159 295.248425 
z
" style="fill:#8b0000;opacity:0.4;stroke:#000000;stroke-linejoin:miter;"/>
   </g>
   <g id="patch_153">
    <path clip-path="url(#pf5695de73e)" d="M 291.805875 307.584 
L 296.864591 307.584 
L 296.864591 296.930549 
L 291.805875 296.930549 
z
" style="fill:#8b0000;opacity:0.4;stroke:#000000;stroke-linejoin:miter;"/>
   </g>
   <g id="patch_154">
    <path clip-path="url(#pf5695de73e)" d="M 296.864591 307.584 
L 301.923306 307.584 
L 301.923306 294.968071 
L 296.864591 294.968071 
z
" style="fill:#8b0000;opacity:0.4;stroke:#000000;stroke-linejoin:miter;"/>
   </g>
   <g id="patch_155">
    <path clip-path="url(#pf5695de73e)" d="M 301.923306 307.584 
L 306.982022 307.584 
L 306.982022 292.444885 
L 301.923306 292.444885 
z
" style="fill:#8b0000;opacity:0.4;stroke:#000000;stroke-linejoin:miter;"/>
   </g>
   <g id="patch_156">
    <path clip-path="url(#pf5695de73e)" d="M 306.982022 307.584 
L 312.040738 307.584 
L 312.040738 284.875327 
L 306.982022 284.875327 
z
" style="fill:#8b0000;opacity:0.4;stroke:#000000;stroke-linejoin:miter;"/>
   </g>
   <g id="patch_157">
    <path clip-path="url(#pf5695de73e)" d="M 312.040738 307.584 
L 317.099454 307.584 
L 317.099454 287.959221 
L 312.040738 287.959221 
z
" style="fill:#8b0000;opacity:0.4;stroke:#000000;stroke-linejoin:miter;"/>
   </g>
   <g id="patch_158">
    <path clip-path="url(#pf5695de73e)" d="M 317.099454 307.584 
L 322.15817 307.584 
L 322.15817 285.716389 
L 317.099454 285.716389 
z
" style="fill:#8b0000;opacity:0.4;stroke:#000000;stroke-linejoin:miter;"/>
   </g>
   <g id="patch_159">
    <path clip-path="url(#pf5695de73e)" d="M 322.15817 307.584 
L 327.216886 307.584 
L 327.216886 277.866478 
L 322.15817 277.866478 
z
" style="fill:#8b0000;opacity:0.4;stroke:#000000;stroke-linejoin:miter;"/>
   </g>
   <g id="patch_160">
    <path clip-path="url(#pf5695de73e)" d="M 327.216886 307.584 
L 332.275602 307.584 
L 332.275602 279.268248 
L 327.216886 279.268248 
z
" style="fill:#8b0000;opacity:0.4;stroke:#000000;stroke-linejoin:miter;"/>
   </g>
   <g id="patch_161">
    <path clip-path="url(#pf5695de73e)" d="M 332.275602 307.584 
L 337.334318 307.584 
L 337.334318 285.996743 
L 332.275602 285.996743 
z
" style="fill:#8b0000;opacity:0.4;stroke:#000000;stroke-linejoin:miter;"/>
   </g>
   <g id="patch_162">
    <path clip-path="url(#pf5695de73e)" d="M 337.334318 307.584 
L 342.393033 307.584 
L 342.393033 293.846655 
L 337.334318 293.846655 
z
" style="fill:#8b0000;opacity:0.4;stroke:#000000;stroke-linejoin:miter;"/>
   </g>
   <g id="patch_163">
    <path clip-path="url(#pf5695de73e)" d="M 342.393033 307.584 
L 347.451749 307.584 
L 347.451749 299.173381 
L 342.393033 299.173381 
z
" style="fill:#8b0000;opacity:0.4;stroke:#000000;stroke-linejoin:miter;"/>
   </g>
   <g id="patch_164">
    <path clip-path="url(#pf5695de73e)" d="M 347.451749 307.584 
L 352.510465 307.584 
L 352.510465 304.500106 
L 347.451749 304.500106 
z
" style="fill:#8b0000;opacity:0.4;stroke:#000000;stroke-linejoin:miter;"/>
   </g>
   <g id="patch_165">
    <path clip-path="url(#pf5695de73e)" d="M 352.510465 307.584 
L 357.569181 307.584 
L 357.569181 305.901876 
L 352.510465 305.901876 
z
" style="fill:#8b0000;opacity:0.4;stroke:#000000;stroke-linejoin:miter;"/>
   </g>
   <g id="patch_166">
    <path clip-path="url(#pf5695de73e)" d="M 357.569181 307.584 
L 362.627897 307.584 
L 362.627897 306.18223 
L 357.569181 306.18223 
z
" style="fill:#8b0000;opacity:0.4;stroke:#000000;stroke-linejoin:miter;"/>
   </g>
   <g id="matplotlib.axis_5">
    <g id="xtick_11">
     <g id="line2d_18">
      <g>
       <use style="stroke:#000000;stroke-width:0.8;" x="91.25063" xlink:href="#me1b26b2009" y="307.584"/>
      </g>
     </g>
     <g id="text_20">
      <!-- −1.0 -->
      <g transform="translate(79.109223 322.182437)scale(0.1 -0.1)">
       <use xlink:href="#DejaVuSans-8722"/>
       <use x="83.789062" xlink:href="#DejaVuSans-49"/>
       <use x="147.412109" xlink:href="#DejaVuSans-46"/>
       <use x="179.199219" xlink:href="#DejaVuSans-48"/>
      </g>
     </g>
    </g>
    <g id="xtick_12">
     <g id="line2d_19">
      <g>
       <use style="stroke:#000000;stroke-width:0.8;" x="165.257113" xlink:href="#me1b26b2009" y="307.584"/>
      </g>
     </g>
     <g id="text_21">
      <!-- −0.5 -->
      <g transform="translate(153.115707 322.182437)scale(0.1 -0.1)">
       <use xlink:href="#DejaVuSans-8722"/>
       <use x="83.789062" xlink:href="#DejaVuSans-48"/>
       <use x="147.412109" xlink:href="#DejaVuSans-46"/>
       <use x="179.199219" xlink:href="#DejaVuSans-53"/>
      </g>
     </g>
    </g>
    <g id="xtick_13">
     <g id="line2d_20">
      <g>
       <use style="stroke:#000000;stroke-width:0.8;" x="239.263596" xlink:href="#me1b26b2009" y="307.584"/>
      </g>
     </g>
     <g id="text_22">
      <!-- 0.0 -->
      <g transform="translate(231.312033 322.182437)scale(0.1 -0.1)">
       <use xlink:href="#DejaVuSans-48"/>
       <use x="63.623047" xlink:href="#DejaVuSans-46"/>
       <use x="95.410156" xlink:href="#DejaVuSans-48"/>
      </g>
     </g>
    </g>
    <g id="xtick_14">
     <g id="line2d_21">
      <g>
       <use style="stroke:#000000;stroke-width:0.8;" x="313.270079" xlink:href="#me1b26b2009" y="307.584"/>
      </g>
     </g>
     <g id="text_23">
      <!-- 0.5 -->
      <g transform="translate(305.318517 322.182437)scale(0.1 -0.1)">
       <use xlink:href="#DejaVuSans-48"/>
       <use x="63.623047" xlink:href="#DejaVuSans-46"/>
       <use x="95.410156" xlink:href="#DejaVuSans-53"/>
      </g>
     </g>
    </g>
    <g id="xtick_15">
     <g id="line2d_22">
      <g>
       <use style="stroke:#000000;stroke-width:0.8;" x="387.276562" xlink:href="#me1b26b2009" y="307.584"/>
      </g>
     </g>
     <g id="text_24">
      <!-- 1.0 -->
      <g transform="translate(379.325 322.182437)scale(0.1 -0.1)">
       <use xlink:href="#DejaVuSans-49"/>
       <use x="63.623047" xlink:href="#DejaVuSans-46"/>
       <use x="95.410156" xlink:href="#DejaVuSans-48"/>
      </g>
     </g>
    </g>
    <g id="text_25">
     <!-- Position -->
     <defs>
      <path d="M 19.671875 64.796875 
L 19.671875 37.40625 
L 32.078125 37.40625 
Q 38.96875 37.40625 42.71875 40.96875 
Q 46.484375 44.53125 46.484375 51.125 
Q 46.484375 57.671875 42.71875 61.234375 
Q 38.96875 64.796875 32.078125 64.796875 
z
M 9.8125 72.90625 
L 32.078125 72.90625 
Q 44.34375 72.90625 50.609375 67.359375 
Q 56.890625 61.8125 56.890625 51.125 
Q 56.890625 40.328125 50.609375 34.8125 
Q 44.34375 29.296875 32.078125 29.296875 
L 19.671875 29.296875 
L 19.671875 0 
L 9.8125 0 
z
" id="DejaVuSans-80"/>
      <path d="M 30.609375 48.390625 
Q 23.390625 48.390625 19.1875 42.75 
Q 14.984375 37.109375 14.984375 27.296875 
Q 14.984375 17.484375 19.15625 11.84375 
Q 23.34375 6.203125 30.609375 6.203125 
Q 37.796875 6.203125 41.984375 11.859375 
Q 46.1875 17.53125 46.1875 27.296875 
Q 46.1875 37.015625 41.984375 42.703125 
Q 37.796875 48.390625 30.609375 48.390625 
z
M 30.609375 56 
Q 42.328125 56 49.015625 48.375 
Q 55.71875 40.765625 55.71875 27.296875 
Q 55.71875 13.875 49.015625 6.21875 
Q 42.328125 -1.421875 30.609375 -1.421875 
Q 18.84375 -1.421875 12.171875 6.21875 
Q 5.515625 13.875 5.515625 27.296875 
Q 5.515625 40.765625 12.171875 48.375 
Q 18.84375 56 30.609375 56 
z
" id="DejaVuSans-111"/>
     </defs>
     <g transform="translate(216.517031 335.860562)scale(0.1 -0.1)">
      <use xlink:href="#DejaVuSans-80"/>
      <use x="60.255859" xlink:href="#DejaVuSans-111"/>
      <use x="121.4375" xlink:href="#DejaVuSans-115"/>
      <use x="173.537109" xlink:href="#DejaVuSans-105"/>
      <use x="201.320312" xlink:href="#DejaVuSans-116"/>
      <use x="240.529297" xlink:href="#DejaVuSans-105"/>
      <use x="268.3125" xlink:href="#DejaVuSans-111"/>
      <use x="329.494141" xlink:href="#DejaVuSans-110"/>
     </g>
    </g>
   </g>
   <g id="matplotlib.axis_6">
    <g id="ytick_6">
     <g id="line2d_23">
      <g>
       <use style="stroke:#000000;stroke-width:0.8;" x="57.6" xlink:href="#mf69830ccf3" y="307.584"/>
      </g>
     </g>
     <g id="text_26">
      <!-- 0 -->
      <g transform="translate(44.2375 311.383219)scale(0.1 -0.1)">
       <use xlink:href="#DejaVuSans-48"/>
      </g>
     </g>
    </g>
    <g id="ytick_7">
     <g id="line2d_24">
      <g>
       <use style="stroke:#000000;stroke-width:0.8;" x="57.6" xlink:href="#mf69830ccf3" y="277.267174"/>
      </g>
     </g>
     <g id="text_27">
      <!-- 1 -->
      <g transform="translate(44.2375 281.066393)scale(0.1 -0.1)">
       <use xlink:href="#DejaVuSans-49"/>
      </g>
     </g>
    </g>
    <g id="ytick_8">
     <g id="line2d_25">
      <g>
       <use style="stroke:#000000;stroke-width:0.8;" x="57.6" xlink:href="#mf69830ccf3" y="246.950348"/>
      </g>
     </g>
     <g id="text_28">
      <!-- 2 -->
      <defs>
       <path d="M 19.1875 8.296875 
L 53.609375 8.296875 
L 53.609375 0 
L 7.328125 0 
L 7.328125 8.296875 
Q 12.9375 14.109375 22.625 23.890625 
Q 32.328125 33.6875 34.8125 36.53125 
Q 39.546875 41.84375 41.421875 45.53125 
Q 43.3125 49.21875 43.3125 52.78125 
Q 43.3125 58.59375 39.234375 62.25 
Q 35.15625 65.921875 28.609375 65.921875 
Q 23.96875 65.921875 18.8125 64.3125 
Q 13.671875 62.703125 7.8125 59.421875 
L 7.8125 69.390625 
Q 13.765625 71.78125 18.9375 73 
Q 24.125 74.21875 28.421875 74.21875 
Q 39.75 74.21875 46.484375 68.546875 
Q 53.21875 62.890625 53.21875 53.421875 
Q 53.21875 48.921875 51.53125 44.890625 
Q 49.859375 40.875 45.40625 35.40625 
Q 44.1875 33.984375 37.640625 27.21875 
Q 31.109375 20.453125 19.1875 8.296875 
z
" id="DejaVuSans-50"/>
      </defs>
      <g transform="translate(44.2375 250.749567)scale(0.1 -0.1)">
       <use xlink:href="#DejaVuSans-50"/>
      </g>
     </g>
    </g>
    <g id="text_29">
     <!-- Density -->
     <g transform="translate(38.157812 293.328594)rotate(-90)scale(0.1 -0.1)">
      <use xlink:href="#DejaVuSans-68"/>
      <use x="77.001953" xlink:href="#DejaVuSans-101"/>
      <use x="138.525391" xlink:href="#DejaVuSans-110"/>
      <use x="201.904297" xlink:href="#DejaVuSans-115"/>
      <use x="254.003906" xlink:href="#DejaVuSans-105"/>
      <use x="281.787109" xlink:href="#DejaVuSans-116"/>
      <use x="320.996094" xlink:href="#DejaVuSans-121"/>
     </g>
    </g>
   </g>
   <g id="line2d_26">
    <path clip-path="url(#pf5695de73e)" d="M 73.832727 307.583369 
L 77.112066 307.582514 
L 80.391405 307.580672 
L 83.670744 307.576862 
L 86.950083 307.569249 
L 90.229421 307.554488 
L 93.50876 307.52667 
L 96.788099 307.475817 
L 100.067438 307.386041 
L 103.346777 307.233749 
L 106.626116 306.986634 
L 109.905455 306.604311 
L 113.184793 306.041303 
L 116.464132 305.252529 
L 119.743471 304.200654 
L 123.02281 302.864004 
L 126.302149 301.243405 
L 129.581488 299.366509 
L 132.860826 297.288778 
L 136.140165 295.091187 
L 139.419504 292.875401 
L 142.698843 290.757385 
L 145.978182 288.859872 
L 149.257521 287.303173 
L 152.53686 286.193329 
L 155.816198 285.607467 
L 159.095537 285.578456 
L 162.374876 286.083423 
L 165.654215 287.041531 
L 168.933554 288.324329 
L 172.212893 289.777379 
L 175.492231 291.247046 
L 178.77157 292.603955 
L 182.050909 293.756241 
L 185.330248 294.650308 
L 188.609587 295.26179 
L 191.888926 295.582024 
L 195.168264 295.604777 
L 198.447603 295.315579 
L 201.726942 294.68408 
L 205.006281 293.660109 
L 208.28562 292.176011 
L 211.564959 290.159499 
L 214.844298 287.559998 
L 218.123636 284.386254 
L 221.402975 280.745365 
L 224.682314 276.867143 
L 227.961653 273.097456 
L 231.240992 269.852215 
L 234.520331 267.538222 
L 237.799669 266.462234 
L 241.079008 266.757767 
L 244.358347 268.355273 
L 247.637686 271.005906 
L 250.917025 274.348906 
L 254.196364 277.997047 
L 257.475702 281.610941 
L 260.755041 284.942071 
L 264.03438 287.840621 
L 267.313719 290.238514 
L 270.593058 292.123826 
L 273.872397 293.518958 
L 277.151736 294.466375 
L 280.431074 295.018911 
L 283.710413 295.230521 
L 286.989752 295.146867 
L 290.269091 294.799092 
L 293.54843 294.204739 
L 296.827769 293.37656 
L 300.107107 292.33569 
L 303.386446 291.123557 
L 306.665785 289.808296 
L 309.945124 288.48466 
L 313.224463 287.268857 
L 316.503802 286.289819 
L 319.78314 285.677011 
L 323.062479 285.544274 
L 326.341818 285.970695 
L 329.621157 286.982482 
L 332.900496 288.541795 
L 336.179835 290.547693 
L 339.459174 292.850597 
L 342.738512 295.276974 
L 346.017851 297.657608 
L 349.29719 299.852182 
L 352.576529 301.764823 
L 355.855868 303.348548 
L 359.135207 304.599878 
L 362.414545 305.547122 
L 365.693884 306.236656 
L 368.973223 306.720773 
L 372.252562 307.049178 
L 375.531901 307.26443 
L 378.81124 307.400496 
L 382.090579 307.483152 
L 385.369917 307.531181 
L 388.649256 307.557743 
L 391.928595 307.571656 
L 395.207934 307.57853 
L 398.487273 307.581721 
" style="fill:none;stroke:#8b0000;stroke-linecap:square;stroke-width:4;"/>
   </g>
   <g id="patch_167">
    <path d="M 57.6 307.584 
L 57.6 241.056 
" style="fill:none;stroke:#000000;stroke-linecap:square;stroke-linejoin:miter;stroke-width:0.8;"/>
   </g>
   <g id="patch_168">
    <path d="M 414.72 307.584 
L 414.72 241.056 
" style="fill:none;stroke:#000000;stroke-linecap:square;stroke-linejoin:miter;stroke-width:0.8;"/>
   </g>
   <g id="patch_169">
    <path d="M 57.6 307.584 
L 414.72 307.584 
" style="fill:none;stroke:#000000;stroke-linecap:square;stroke-linejoin:miter;stroke-width:0.8;"/>
   </g>
   <g id="patch_170">
    <path d="M 57.6 241.056 
L 414.72 241.056 
" style="fill:none;stroke:#000000;stroke-linecap:square;stroke-linejoin:miter;stroke-width:0.8;"/>
   </g>
   <g id="legend_3">
    <g id="patch_171">
     <path d="M 370.471563 263.734125 
L 407.72 263.734125 
Q 409.72 263.734125 409.72 261.734125 
L 409.72 248.056 
Q 409.72 246.056 407.72 246.056 
L 370.471563 246.056 
Q 368.471563 246.056 368.471563 248.056 
L 368.471563 261.734125 
Q 368.471563 263.734125 370.471563 263.734125 
z
" style="fill:#ffffff;opacity:0.8;stroke:#cccccc;stroke-linejoin:miter;"/>
    </g>
    <g id="patch_172">
     <path d="M 372.471563 257.654437 
L 392.471563 257.654437 
L 392.471563 250.654437 
L 372.471563 250.654437 
z
" style="fill:#8b0000;opacity:0.4;stroke:#000000;stroke-linejoin:miter;"/>
    </g>
    <g id="text_30">
     <!-- z -->
     <defs>
      <path d="M 5.515625 54.6875 
L 48.1875 54.6875 
L 48.1875 46.484375 
L 14.40625 7.171875 
L 48.1875 7.171875 
L 48.1875 0 
L 4.296875 0 
L 4.296875 8.203125 
L 38.09375 47.515625 
L 5.515625 47.515625 
z
" id="DejaVuSans-122"/>
     </defs>
     <g transform="translate(400.471563 257.654437)scale(0.1 -0.1)">
      <use xlink:href="#DejaVuSans-122"/>
     </g>
    </g>
   </g>
  </g>
  <g id="text_31">
   <!-- Motif 2 Histogram -->
   <defs>
    <path d="M 9.8125 72.90625 
L 24.515625 72.90625 
L 43.109375 23.296875 
L 61.8125 72.90625 
L 76.515625 72.90625 
L 76.515625 0 
L 66.890625 0 
L 66.890625 64.015625 
L 48.09375 14.015625 
L 38.1875 14.015625 
L 19.390625 64.015625 
L 19.390625 0 
L 9.8125 0 
z
" id="DejaVuSans-77"/>
    <path d="M 37.109375 75.984375 
L 37.109375 68.5 
L 28.515625 68.5 
Q 23.6875 68.5 21.796875 66.546875 
Q 19.921875 64.59375 19.921875 59.515625 
L 19.921875 54.6875 
L 34.71875 54.6875 
L 34.71875 47.703125 
L 19.921875 47.703125 
L 19.921875 0 
L 10.890625 0 
L 10.890625 47.703125 
L 2.296875 47.703125 
L 2.296875 54.6875 
L 10.890625 54.6875 
L 10.890625 58.5 
Q 10.890625 67.625 15.140625 71.796875 
Q 19.390625 75.984375 28.609375 75.984375 
z
" id="DejaVuSans-102"/>
    <path id="DejaVuSans-32"/>
    <path d="M 9.8125 72.90625 
L 19.671875 72.90625 
L 19.671875 43.015625 
L 55.515625 43.015625 
L 55.515625 72.90625 
L 65.375 72.90625 
L 65.375 0 
L 55.515625 0 
L 55.515625 34.71875 
L 19.671875 34.71875 
L 19.671875 0 
L 9.8125 0 
z
" id="DejaVuSans-72"/>
    <path d="M 45.40625 27.984375 
Q 45.40625 37.75 41.375 43.109375 
Q 37.359375 48.484375 30.078125 48.484375 
Q 22.859375 48.484375 18.828125 43.109375 
Q 14.796875 37.75 14.796875 27.984375 
Q 14.796875 18.265625 18.828125 12.890625 
Q 22.859375 7.515625 30.078125 7.515625 
Q 37.359375 7.515625 41.375 12.890625 
Q 45.40625 18.265625 45.40625 27.984375 
z
M 54.390625 6.78125 
Q 54.390625 -7.171875 48.1875 -13.984375 
Q 42 -20.796875 29.203125 -20.796875 
Q 24.46875 -20.796875 20.265625 -20.09375 
Q 16.0625 -19.390625 12.109375 -17.921875 
L 12.109375 -9.1875 
Q 16.0625 -11.328125 19.921875 -12.34375 
Q 23.78125 -13.375 27.78125 -13.375 
Q 36.625 -13.375 41.015625 -8.765625 
Q 45.40625 -4.15625 45.40625 5.171875 
L 45.40625 9.625 
Q 42.625 4.78125 38.28125 2.390625 
Q 33.9375 0 27.875 0 
Q 17.828125 0 11.671875 7.65625 
Q 5.515625 15.328125 5.515625 27.984375 
Q 5.515625 40.671875 11.671875 48.328125 
Q 17.828125 56 27.875 56 
Q 33.9375 56 38.28125 53.609375 
Q 42.625 51.21875 45.40625 46.390625 
L 45.40625 54.6875 
L 54.390625 54.6875 
z
" id="DejaVuSans-103"/>
    <path d="M 41.109375 46.296875 
Q 39.59375 47.171875 37.8125 47.578125 
Q 36.03125 48 33.890625 48 
Q 26.265625 48 22.1875 43.046875 
Q 18.109375 38.09375 18.109375 28.8125 
L 18.109375 0 
L 9.078125 0 
L 9.078125 54.6875 
L 18.109375 54.6875 
L 18.109375 46.1875 
Q 20.953125 51.171875 25.484375 53.578125 
Q 30.03125 56 36.53125 56 
Q 37.453125 56 38.578125 55.875 
Q 39.703125 55.765625 41.0625 55.515625 
z
" id="DejaVuSans-114"/>
    <path d="M 34.28125 27.484375 
Q 23.390625 27.484375 19.1875 25 
Q 14.984375 22.515625 14.984375 16.5 
Q 14.984375 11.71875 18.140625 8.90625 
Q 21.296875 6.109375 26.703125 6.109375 
Q 34.1875 6.109375 38.703125 11.40625 
Q 43.21875 16.703125 43.21875 25.484375 
L 43.21875 27.484375 
z
M 52.203125 31.203125 
L 52.203125 0 
L 43.21875 0 
L 43.21875 8.296875 
Q 40.140625 3.328125 35.546875 0.953125 
Q 30.953125 -1.421875 24.3125 -1.421875 
Q 15.921875 -1.421875 10.953125 3.296875 
Q 6 8.015625 6 15.921875 
Q 6 25.140625 12.171875 29.828125 
Q 18.359375 34.515625 30.609375 34.515625 
L 43.21875 34.515625 
L 43.21875 35.40625 
Q 43.21875 41.609375 39.140625 45 
Q 35.0625 48.390625 27.6875 48.390625 
Q 23 48.390625 18.546875 47.265625 
Q 14.109375 46.140625 10.015625 43.890625 
L 10.015625 52.203125 
Q 14.9375 54.109375 19.578125 55.046875 
Q 24.21875 56 28.609375 56 
Q 40.484375 56 46.34375 49.84375 
Q 52.203125 43.703125 52.203125 31.203125 
z
" id="DejaVuSans-97"/>
    <path d="M 52 44.1875 
Q 55.375 50.25 60.0625 53.125 
Q 64.75 56 71.09375 56 
Q 79.640625 56 84.28125 50.015625 
Q 88.921875 44.046875 88.921875 33.015625 
L 88.921875 0 
L 79.890625 0 
L 79.890625 32.71875 
Q 79.890625 40.578125 77.09375 44.375 
Q 74.3125 48.1875 68.609375 48.1875 
Q 61.625 48.1875 57.5625 43.546875 
Q 53.515625 38.921875 53.515625 30.90625 
L 53.515625 0 
L 44.484375 0 
L 44.484375 32.71875 
Q 44.484375 40.625 41.703125 44.40625 
Q 38.921875 48.1875 33.109375 48.1875 
Q 26.21875 48.1875 22.15625 43.53125 
Q 18.109375 38.875 18.109375 30.90625 
L 18.109375 0 
L 9.078125 0 
L 9.078125 54.6875 
L 18.109375 54.6875 
L 18.109375 46.1875 
Q 21.1875 51.21875 25.484375 53.609375 
Q 29.78125 56 35.6875 56 
Q 41.65625 56 45.828125 52.96875 
Q 50 49.953125 52 44.1875 
z
" id="DejaVuSans-109"/>
   </defs>
   <g transform="translate(176.664375 16.030125)scale(0.12 -0.12)">
    <use xlink:href="#DejaVuSans-77"/>
    <use x="86.279297" xlink:href="#DejaVuSans-111"/>
    <use x="147.460938" xlink:href="#DejaVuSans-116"/>
    <use x="186.669922" xlink:href="#DejaVuSans-105"/>
    <use x="214.453125" xlink:href="#DejaVuSans-102"/>
    <use x="249.658203" xlink:href="#DejaVuSans-32"/>
    <use x="281.445312" xlink:href="#DejaVuSans-50"/>
    <use x="345.068359" xlink:href="#DejaVuSans-32"/>
    <use x="376.855469" xlink:href="#DejaVuSans-72"/>
    <use x="452.050781" xlink:href="#DejaVuSans-105"/>
    <use x="479.833984" xlink:href="#DejaVuSans-115"/>
    <use x="531.933594" xlink:href="#DejaVuSans-116"/>
    <use x="571.142578" xlink:href="#DejaVuSans-111"/>
    <use x="632.324219" xlink:href="#DejaVuSans-103"/>
    <use x="695.800781" xlink:href="#DejaVuSans-114"/>
    <use x="736.914062" xlink:href="#DejaVuSans-97"/>
    <use x="798.193359" xlink:href="#DejaVuSans-109"/>
   </g>
  </g>
 </g>
 <defs>
  <clipPath id="p8b83057198">
   <rect height="66.528" width="357.12" x="57.6" y="41.472"/>
  </clipPath>
  <clipPath id="pa29c450e68">
   <rect height="66.528" width="357.12" x="57.6" y="141.264"/>
  </clipPath>
  <clipPath id="pf5695de73e">
   <rect height="66.528" width="357.12" x="57.6" y="241.056"/>
  </clipPath>
 </defs>
</svg>
